<?xml version="1.0" encoding="UTF-8" standalone="no"?>
<!-- Created with Inkscape (http://www.inkscape.org/) -->

<svg
   xmlns:dc="http://purl.org/dc/elements/1.1/"
   xmlns:cc="http://creativecommons.org/ns#"
   xmlns:rdf="http://www.w3.org/1999/02/22-rdf-syntax-ns#"
   xmlns:svg="http://www.w3.org/2000/svg"
   xmlns="http://www.w3.org/2000/svg"
   xmlns:sodipodi="http://sodipodi.sourceforge.net/DTD/sodipodi-0.dtd"
   xmlns:inkscape="http://www.inkscape.org/namespaces/inkscape"
   width="499.23221"
   height="606.11554"
   id="svg4400"
   version="1.1"
   inkscape:version="0.48.4 r9939"
   sodipodi:docname="sleeptrack.pdf">
  <defs
     id="defs4402">
    <clipPath
       clipPathUnits="userSpaceOnUse"
       id="clipPath6711">
      <path
         sodipodi:type="star"
         style="fill:none;stroke:#1a1a1a;stroke-width:32;stroke-linecap:round;stroke-linejoin:round;stroke-miterlimit:4;stroke-opacity:1;stroke-dasharray:none;stroke-dashoffset:0"
         id="path6713"
         sodipodi:sides="3"
         sodipodi:cx="-1709.1781"
         sodipodi:cy="-58.805614"
         sodipodi:r1="617.56598"
         sodipodi:r2="308.78299"
         sodipodi:arg1="1.5707963"
         sodipodi:arg2="2.6179939"
         inkscape:flatsided="true"
         inkscape:rounded="0"
         inkscape:randomized="0"
         d="m -1709.1781,558.76036 -534.8278,-926.34895 1069.6556,-3e-5 z"
         inkscape:transform-center-y="83.467801"
         transform="matrix(0.54062431,0,0,0.54062431,-583.12436,175.32181)" />
    </clipPath>
    <clipPath
       clipPathUnits="userSpaceOnUse"
       id="clipPath4322">
      <path
         sodipodi:type="star"
         style="fill:none;stroke:#1a1a1a;stroke-width:32;stroke-linecap:round;stroke-linejoin:round;stroke-miterlimit:4;stroke-opacity:1;stroke-dasharray:none;stroke-dashoffset:0"
         id="path4324"
         sodipodi:sides="3"
         sodipodi:cx="-1709.1781"
         sodipodi:cy="-58.805614"
         sodipodi:r1="617.56598"
         sodipodi:r2="308.78299"
         sodipodi:arg1="1.5707963"
         sodipodi:arg2="2.6179939"
         inkscape:flatsided="true"
         inkscape:rounded="0"
         inkscape:randomized="0"
         d="m -1709.1781,558.76036 -534.8278,-926.34895 1069.6556,-3e-5 z"
         inkscape:transform-center-y="83.467801"
         transform="matrix(0.54062431,0,0,0.54062431,-583.12436,175.32181)" />
    </clipPath>
    <clipPath
       clipPathUnits="userSpaceOnUse"
       id="clipPath4326">
      <path
         sodipodi:type="star"
         style="fill:none;stroke:#1a1a1a;stroke-width:32;stroke-linecap:round;stroke-linejoin:round;stroke-miterlimit:4;stroke-opacity:1;stroke-dasharray:none;stroke-dashoffset:0"
         id="path4328"
         sodipodi:sides="3"
         sodipodi:cx="-1709.1781"
         sodipodi:cy="-58.805614"
         sodipodi:r1="617.56598"
         sodipodi:r2="308.78299"
         sodipodi:arg1="1.5707963"
         sodipodi:arg2="2.6179939"
         inkscape:flatsided="true"
         inkscape:rounded="0"
         inkscape:randomized="0"
         d="m -1709.1781,558.76036 -534.8278,-926.34895 1069.6556,-3e-5 z"
         inkscape:transform-center-y="83.467801"
         transform="matrix(0.54062431,0,0,0.54062431,-583.12436,175.32181)" />
    </clipPath>
    <clipPath
       clipPathUnits="userSpaceOnUse"
       id="clipPath4330">
      <path
         sodipodi:type="star"
         style="fill:none;stroke:#1a1a1a;stroke-width:32;stroke-linecap:round;stroke-linejoin:round;stroke-miterlimit:4;stroke-opacity:1;stroke-dasharray:none;stroke-dashoffset:0"
         id="path4332"
         sodipodi:sides="3"
         sodipodi:cx="-1709.1781"
         sodipodi:cy="-58.805614"
         sodipodi:r1="617.56598"
         sodipodi:r2="308.78299"
         sodipodi:arg1="1.5707963"
         sodipodi:arg2="2.6179939"
         inkscape:flatsided="true"
         inkscape:rounded="0"
         inkscape:randomized="0"
         d="m -1709.1781,558.76036 -534.8278,-926.34895 1069.6556,-3e-5 z"
         inkscape:transform-center-y="83.467801"
         transform="matrix(0.54062431,0,0,0.54062431,-583.12436,175.32181)" />
    </clipPath>
  </defs>
  <sodipodi:namedview
     id="base"
     pagecolor="#ffffff"
     bordercolor="#666666"
     borderopacity="1.0"
     inkscape:pageopacity="0.0"
     inkscape:pageshadow="2"
     inkscape:zoom="0.49497475"
     inkscape:cx="237.41572"
     inkscape:cy="261.63622"
     inkscape:document-units="px"
     inkscape:current-layer="layer1"
     showgrid="false"
     fit-margin-top="0"
     fit-margin-left="0"
     fit-margin-right="0"
     fit-margin-bottom="0"
     inkscape:window-width="1366"
     inkscape:window-height="706"
     inkscape:window-x="-8"
     inkscape:window-y="-8"
     inkscape:window-maximized="1" />
  <metadata
     id="metadata4405">
    <rdf:RDF>
      <cc:Work
         rdf:about="">
        <dc:format>image/svg+xml</dc:format>
        <dc:type
           rdf:resource="http://purl.org/dc/dcmitype/StillImage" />
        <dc:title></dc:title>
      </cc:Work>
    </rdf:RDF>
  </metadata>
  <g
     inkscape:label="Layer 1"
     inkscape:groupmode="layer"
     id="layer1"
     transform="translate(-137.58428,-187.88285)">
    <g
       id="g4172"
       clip-path="url(#clipPath6711)"
       transform="matrix(0.08255729,0.0773749,-0.0773749,0.08255729,377.93476,320.5759)"
       style="stroke:#1a1a1a"
       inkscape:export-filename="C:\Users\John\sleeptrack-rectangle-colored.png"
       inkscape:export-xdpi="300"
       inkscape:export-ydpi="300">
      <path
         transform="translate(-1802.1121,-113.13708)"
         style="fill:none;stroke:#2586c8;stroke-width:39.37888336;stroke-miterlimit:4;stroke-opacity:1;stroke-dasharray:none"
         d="m 618.21338,636.17932 c 0,167.36756 -135.67822,303.04578 -303.04578,303.04578 -167.36756,0 -303.045774,-135.67822 -303.045774,-303.04578 0,-167.36756 135.678214,-303.04578 303.045774,-303.04578 167.36756,0 303.04578,135.67822 303.04578,303.04578 z"
         id="path4174"
         inkscape:connector-curvature="0" />
      <path
         transform="matrix(1.3419461,0,0,1.3419461,-1909.8824,-330.67615)"
         style="fill:none;stroke:#2586c8;stroke-width:29.34460831;stroke-miterlimit:4;stroke-opacity:1;stroke-dasharray:none"
         d="m 618.21338,636.17932 c 0,167.36756 -135.67822,303.04578 -303.04578,303.04578 -167.36756,0 -303.045774,-135.67822 -303.045774,-303.04578 0,-167.36756 135.678214,-303.04578 303.045774,-303.04578 167.36756,0 303.04578,135.67822 303.04578,303.04578 z"
         id="path4176"
         inkscape:connector-curvature="0" />
      <path
         transform="matrix(1.7092216,0,0,1.7092216,-2025.6357,-564.32922)"
         style="fill:none;stroke:#2586c8;stroke-width:23.03907394;stroke-miterlimit:4;stroke-opacity:1;stroke-dasharray:none"
         d="m 618.21338,636.17932 c 0,167.36756 -135.67822,303.04578 -303.04578,303.04578 -167.36756,0 -303.045774,-135.67822 -303.045774,-303.04578 0,-167.36756 135.678214,-303.04578 303.045774,-303.04578 167.36756,0 303.04578,135.67822 303.04578,303.04578 z"
         id="path4178"
         inkscape:connector-curvature="0" />
    </g>
    <path
       style="fill:none;stroke:#2586c8;stroke-width:3.7873137;stroke-linecap:round;stroke-linejoin:round;stroke-miterlimit:4;stroke-opacity:1;stroke-dasharray:none;stroke-dashoffset:0"
       d="m 140.29892,197.03832 15.36989,0 -16.17895,16.98796 16.17895,0"
       id="path4180"
       inkscape:connector-curvature="0"
       inkscape:export-filename="C:\Users\John\sleeptrack-rectangle-colored.png"
       inkscape:export-xdpi="300"
       inkscape:export-ydpi="300" />
    <path
       transform="matrix(0.1456299,0,0,0.1456299,156.44126,172.13941)"
       style="fill:#80bde8;fill-opacity:1;stroke:none"
       d="m 618.21338,636.17932 c 0,167.36756 -135.67822,303.04578 -303.04578,303.04578 -167.36756,0 -303.045774,-135.67822 -303.045774,-303.04578 0,-167.36756 135.678214,-303.04578 303.045774,-303.04578 167.36756,0 303.04578,135.67822 303.04578,303.04578 z"
       id="path4182"
       inkscape:export-filename="C:\Users\John\sleeptrack-rectangle-colored.png"
       inkscape:export-xdpi="300"
       inkscape:export-ydpi="300" />
    <path
       style="fill:#26a2ad;fill-opacity:1;fill-rule:evenodd;stroke:none"
       d="m 160.67073,268.57122 c 2.532,57.02636 86.29417,51.41218 87.04211,0 -8.66328,31.64756 -65.63754,56.35857 -87.04211,0 z"
       id="path4184"
       inkscape:connector-curvature="0"
       sodipodi:nodetypes="ccc"
       inkscape:export-filename="C:\Users\John\sleeptrack-rectangle-colored.png"
       inkscape:export-xdpi="300"
       inkscape:export-ydpi="300" />
    <path
       sodipodi:nodetypes="ccc"
       inkscape:connector-curvature="0"
       id="path4186"
       d="m 160.67073,266.03807 c 2.532,-61.9607 86.29417,-55.21692 87.04211,0 -8.66328,-31.64744 -65.63754,-56.35861 -87.04211,0 z"
       style="fill:#add5f0;fill-opacity:1;fill-rule:evenodd;stroke:none"
       inkscape:export-filename="C:\Users\John\sleeptrack-rectangle-colored.png"
       inkscape:export-xdpi="300"
       inkscape:export-ydpi="300" />
    <path
       transform="matrix(0.1456299,0,0,0.1456299,156.44126,172.13941)"
       style="fill:none;stroke:#2586c8;stroke-width:46.02884674;stroke-miterlimit:4;stroke-opacity:1"
       d="m 618.21338,636.17932 c 0,167.36756 -135.67822,303.04578 -303.04578,303.04578 -167.36756,0 -303.045774,-135.67822 -303.045774,-303.04578 0,-167.36756 135.678214,-303.04578 303.045774,-303.04578 167.36756,0 303.04578,135.67822 303.04578,303.04578 z"
       id="path4188"
       inkscape:export-filename="C:\Users\John\sleeptrack-rectangle-colored.png"
       inkscape:export-xdpi="300"
       inkscape:export-ydpi="300" />
    <path
       style="fill:none;stroke:#2586c8;stroke-width:3.34174705;stroke-linecap:round;stroke-linejoin:round;stroke-miterlimit:4;stroke-opacity:1;stroke-dasharray:none;stroke-dashoffset:0"
       d="m 153.27218,225.86615 7.85314,0 -8.2665,8.67968 8.2665,0"
       id="path4190"
       inkscape:connector-curvature="0"
       inkscape:export-filename="C:\Users\John\sleeptrack-rectangle-colored.png"
       inkscape:export-xdpi="300"
       inkscape:export-ydpi="300" />
    <path
       inkscape:connector-curvature="0"
       id="path4192"
       d="m 162.28581,206.5726 12.35365,0 -13.00383,13.65406 13.00383,0"
       style="fill:none;stroke:#2586c8;stroke-width:3.7873137;stroke-linecap:round;stroke-linejoin:round;stroke-miterlimit:4;stroke-opacity:1;stroke-dasharray:none;stroke-dashoffset:0"
       inkscape:export-filename="C:\Users\John\sleeptrack-rectangle-colored.png"
       inkscape:export-xdpi="300"
       inkscape:export-ydpi="300" />
    <g
       id="g4194"
       transform="matrix(2.0850925,0,0,2.0850925,-34.848201,-988.14339)"
       inkscape:export-filename="C:\Users\John\sleeptrack-rectangle-colored.png"
       inkscape:export-xdpi="300"
       inkscape:export-ydpi="300">
      <path
         sodipodi:nodetypes="csc"
         inkscape:connector-curvature="0"
         id="path4196"
         d="m 98.889801,599.50816 c 0,3.13997 2.545439,5.68542 5.685409,5.68542 3.13997,0 5.68541,-2.54545 5.68541,-5.68542"
         style="fill:none;stroke:#2586c8;stroke-width:2.7861681;stroke-linecap:round;stroke-linejoin:round;stroke-miterlimit:4;stroke-opacity:1;stroke-dasharray:none" />
      <path
         style="fill:none;stroke:#2586c8;stroke-width:2.7861681;stroke-linecap:round;stroke-linejoin:round;stroke-miterlimit:4;stroke-opacity:1;stroke-dasharray:none"
         d="m 117.24693,599.50816 c 0,3.13997 2.54545,5.68542 5.68542,5.68542 3.13997,0 5.68541,-2.54545 5.68541,-5.68542"
         id="path4198"
         inkscape:connector-curvature="0"
         sodipodi:nodetypes="csc" />
    </g>
    <path
       style="fill:none;stroke:#2586c8;stroke-width:5.8094182;stroke-linecap:round;stroke-linejoin:round;stroke-miterlimit:4;stroke-opacity:1;stroke-dasharray:none;stroke-dashoffset:0"
       d="m 187.44554,287.6352 c 8.51338,5.95636 19.64483,6.27806 29.78698,0"
       id="path4200"
       inkscape:connector-curvature="0"
       sodipodi:nodetypes="cc"
       inkscape:export-filename="C:\Users\John\sleeptrack-rectangle-colored.png"
       inkscape:export-xdpi="300"
       inkscape:export-ydpi="300" />
    <g
       style="font-size:71.78179169px;font-style:normal;font-variant:normal;font-weight:bold;font-stretch:normal;text-align:center;line-height:231.99999332%;letter-spacing:0px;word-spacing:-1.99393833px;text-anchor:middle;fill:#3598dc;fill-opacity:1;stroke:none;font-family:Lato;-inkscape-font-specification:Lato Bold"
       id="text4202"
       inkscape:export-filename="C:\Users\John\sleeptrack-rectangle-colored.png"
       inkscape:export-xdpi="300"
       inkscape:export-ydpi="300">
      <path
         d="m 298.54437,245.69737 c -0.21617,0.3593 -0.44363,0.62838 -0.68238,0.80723 -0.2388,0.17895 -0.55023,0.2684 -0.93429,0.26835 -0.40602,5e-5 -0.8781,-0.20332 -1.41623,-0.61008 -0.53818,-0.40668 -1.22019,-0.85539 -2.04602,-1.34613 -0.82589,-0.49065 -1.81896,-0.93936 -2.97923,-1.34613 -1.16031,-0.40667 -2.56631,-0.61003 -4.21801,-0.61008 -1.55535,5e-5 -2.93105,0.20961 -4.1271,0.6287 -1.19609,0.41919 -2.195,0.98765 -2.99675,1.70539 -0.80178,0.71783 -1.40602,1.56122 -1.81273,2.53015 -0.40673,0.96902 -0.61009,2.01576 -0.61008,3.14024 -10e-6,1.43561 0.35304,2.62584 1.05916,3.57068 0.70609,0.94492 1.63929,1.75252 2.79959,2.42282 1.16028,0.67035 2.4761,1.25086 3.94747,1.74153 1.47134,0.49072 2.97884,0.99931 4.52251,1.52575 1.54362,0.52651 3.05112,1.1187 4.52251,1.77659 1.47133,0.65794 2.78715,1.48927 3.94747,2.494 1.16026,1.00478 2.09346,2.237 2.7996,3.69665 0.70607,1.45969 1.05912,3.25416 1.05915,5.38342 -3e-5,2.24903 -0.38302,4.36041 -1.14897,6.33413 -0.76602,1.97375 -1.88468,3.69045 -3.35601,5.15012 -1.47139,1.45968 -3.2779,2.60828 -5.41956,3.44582 -2.14171,0.83755 -4.57583,1.25632 -7.30239,1.25632 -3.32681,0 -6.36007,-0.60425 -9.09977,-1.81273 -2.73973,-1.20848 -5.07856,-2.84158 -7.01652,-4.89929 l 2.01098,-3.30125 c 0.19131,-0.26286 0.42461,-0.48411 0.6999,-0.66375 0.27528,-0.17962 0.58014,-0.26943 0.91458,-0.26944 0.50237,10e-6 1.07667,0.26909 1.72291,0.80723 0.64622,0.53817 1.45382,1.13037 2.42281,1.77659 0.96897,0.64623 2.14131,1.23843 3.51702,1.77658 1.37568,0.53816 3.05661,0.80724 5.04277,0.80724 1.65024,0 3.1216,-0.22709 4.41408,-0.68128 1.29243,-0.45418 2.38737,-1.0942 3.28481,-1.92007 0.89739,-0.82585 1.58524,-1.81308 2.06355,-2.9617 0.47826,-1.14859 0.7174,-2.42827 0.71743,-3.83904 -3e-5,-1.55531 -0.35309,-2.82951 -1.05916,-3.8226 -0.70614,-0.99306 -1.63313,-1.82476 -2.78098,-2.4951 -1.1479,-0.67031 -2.45788,-1.23877 -3.92995,-1.70539 -1.4721,-0.46658 -2.9796,-0.94486 -4.5225,-1.43485 -1.54294,-0.48994 -3.05007,-1.05804 -4.52141,-1.70429 -1.47137,-0.6462 -2.78135,-1.48374 -3.92995,-2.51263 -1.14862,-1.02882 -2.07597,-2.31507 -2.78207,-3.85875 -0.70611,-1.54361 -1.05917,-3.45163 -1.05916,-5.72405 -1e-5,-1.81817 0.35305,-3.57686 1.05916,-5.27608 0.7061,-1.69914 1.72911,-3.20664 3.06904,-4.52251 1.33991,-1.31577 2.99674,-2.36836 4.97048,-3.15776 1.97372,-0.78929 4.24063,-1.18397 6.80074,-1.18402 2.87113,5e-5 5.4911,0.4546 7.8599,1.36365 2.36874,0.90915 4.43886,2.22461 6.21037,3.94638 z"
         style="font-weight:normal;fill:#80bde8;fill-opacity:1;-inkscape-font-specification:Lato"
         id="path4629" />
      <path
         d="m 316.29485,236.2208 0,52.8681 -6.38781,0 0,-52.8681 z"
         style="font-weight:normal;fill:#80bde8;fill-opacity:1;-inkscape-font-specification:Lato"
         id="path4631" />
      <path
         d="m 341.94686,252.15746 c 2.17744,4e-5 4.18732,0.36478 6.02964,1.09421 1.84227,0.72951 3.43338,1.78209 4.77333,3.15776 1.33989,1.37573 2.38663,3.07455 3.14024,5.09645 0.75353,2.02195 1.13031,4.32537 1.13035,6.91026 -4e-5,1.00478 -0.10774,1.67474 -0.32312,2.00989 -0.21544,0.33518 -0.6218,0.50276 -1.21907,0.50274 l -24.19086,0 c 0.0482,2.29723 0.35925,4.29506 0.93319,5.9935 0.57393,1.69846 1.36328,3.11615 2.36805,4.25306 1.00474,1.13693 2.20118,1.98652 3.58931,2.54877 1.38809,0.56226 2.94379,0.84339 4.66708,0.84339 1.60205,0 2.98359,-0.18547 4.14463,-0.55642 1.161,-0.37094 2.16028,-0.77182 2.99785,-1.20264 0.83751,-0.43081 1.53741,-0.83169 2.09969,-1.20264 0.56223,-0.37094 1.04635,-0.55641 1.45238,-0.55642 0.52717,10e-6 0.93389,0.20374 1.22016,0.61118 l 1.79411,2.33081 c -0.78865,0.95803 -1.73353,1.78973 -2.83464,2.4951 -1.10118,0.70537 -2.27973,1.28552 -3.53564,1.74043 -1.25598,0.45492 -2.55391,0.79592 -3.89381,1.02302 -1.33994,0.22709 -2.66781,0.34064 -3.98361,0.34064 -2.51192,0 -4.82666,-0.42462 -6.94423,-1.27384 -2.11759,-0.84922 -3.94821,-2.09312 -5.49185,-3.7317 -1.54365,-1.63857 -2.74629,-3.66634 -3.60793,-6.08331 -0.86164,-2.41696 -1.29246,-5.19245 -1.29245,-8.3265 -10e-6,-2.5367 0.38883,-4.90584 1.16649,-7.10742 0.77766,-2.20153 1.89633,-4.10991 3.35601,-5.72515 1.45967,-1.61517 3.24246,-2.88317 5.34837,-3.80399 2.10589,-0.92075 4.47466,-1.38114 7.10633,-1.38118 z m 0.14458,4.70105 c -3.08732,3e-5 -5.51633,0.89124 -7.28706,2.67363 -1.77075,1.78245 -2.87153,4.25309 -3.30234,7.41192 l 19.7768,0 c -3e-5,-1.48375 -0.20339,-2.84156 -0.61008,-4.07344 -0.40675,-1.23182 -1.00516,-2.29645 -1.79521,-3.1939 -0.7901,-0.89739 -1.75324,-1.59144 -2.88941,-2.08217 -1.13621,-0.49066 -2.43378,-0.73601 -3.8927,-0.73604 z"
         style="font-weight:normal;fill:#80bde8;fill-opacity:1;-inkscape-font-specification:Lato"
         id="path4633" />
      <path
         d="m 379.52014,252.15746 c 2.17744,4e-5 4.18732,0.36478 6.02964,1.09421 1.84227,0.72951 3.43338,1.78209 4.77333,3.15776 1.33989,1.37573 2.38663,3.07455 3.14024,5.09645 0.75353,2.02195 1.13031,4.32537 1.13035,6.91026 -4e-5,1.00478 -0.10774,1.67474 -0.32312,2.00989 -0.21544,0.33518 -0.6218,0.50276 -1.21907,0.50274 l -24.19086,0 c 0.0482,2.29723 0.35925,4.29506 0.93319,5.9935 0.57393,1.69846 1.36328,3.11615 2.36805,4.25306 1.00474,1.13693 2.20118,1.98652 3.58931,2.54877 1.3881,0.56226 2.94379,0.84339 4.66709,0.84339 1.60204,0 2.98358,-0.18547 4.14462,-0.55642 1.161,-0.37094 2.16028,-0.77182 2.99785,-1.20264 0.83751,-0.43081 1.53741,-0.83169 2.09969,-1.20264 0.56223,-0.37094 1.04635,-0.55641 1.45238,-0.55642 0.52717,10e-6 0.93389,0.20374 1.22016,0.61118 l 1.79411,2.33081 c -0.78865,0.95803 -1.73353,1.78973 -2.83464,2.4951 -1.10118,0.70537 -2.27972,1.28552 -3.53564,1.74043 -1.25598,0.45492 -2.55391,0.79592 -3.89381,1.02302 -1.33994,0.22709 -2.66781,0.34064 -3.98361,0.34064 -2.51192,0 -4.82666,-0.42462 -6.94423,-1.27384 -2.11759,-0.84922 -3.94821,-2.09312 -5.49185,-3.7317 -1.54365,-1.63857 -2.74629,-3.66634 -3.60793,-6.08331 -0.86164,-2.41696 -1.29246,-5.19245 -1.29245,-8.3265 -10e-6,-2.5367 0.38883,-4.90584 1.16649,-7.10742 0.77767,-2.20153 1.89633,-4.10991 3.35601,-5.72515 1.45967,-1.61517 3.24246,-2.88317 5.34837,-3.80399 2.10589,-0.92075 4.47466,-1.38114 7.10633,-1.38118 z m 0.14458,4.70105 c -3.08731,3e-5 -5.51633,0.89124 -7.28706,2.67363 -1.77075,1.78245 -2.87153,4.25309 -3.30234,7.41192 l 19.7768,0 c -3e-5,-1.48375 -0.20339,-2.84156 -0.61008,-4.07344 -0.40675,-1.23182 -1.00515,-2.29645 -1.79521,-3.1939 -0.7901,-0.89739 -1.75324,-1.59144 -2.88941,-2.08217 -1.13621,-0.49066 -2.43378,-0.73601 -3.8927,-0.73604 z"
         style="font-weight:normal;fill:#80bde8;fill-opacity:1;-inkscape-font-specification:Lato"
         id="path4635" />
      <path
         d="m 402.70113,301.40011 0,-48.66871 3.80509,0 c 0.90836,4e-5 1.4823,0.44254 1.72181,1.32751 l 0.53889,4.30673 c 1.55532,-1.88973 3.3319,-3.40891 5.32975,-4.55755 1.99781,-1.14858 4.30087,-1.72288 6.90917,-1.72292 2.08105,4e-5 3.97118,0.40092 5.67038,1.20265 1.69915,0.80179 3.14678,1.98618 4.34288,3.55316 1.19604,1.56704 2.11719,3.51121 2.76345,5.83249 0.64619,2.32134 0.96931,4.98913 0.96935,8.00338 -4e-5,2.67986 -0.35894,5.17423 -1.07669,7.48311 -0.71782,2.30891 -1.74668,4.30674 -3.08656,5.9935 -1.33996,1.68677 -2.9851,3.01464 -4.93544,3.98362 -1.95039,0.96898 -4.14575,1.45347 -6.58606,1.45347 -2.24904,0 -4.1691,-0.37058 -5.7602,-1.11174 -1.59112,-0.74115 -2.99712,-1.79374 -4.21801,-3.15776 l 0,16.07906 z m 16.18639,-44.1473 c -2.08109,4e-5 -3.90514,0.47868 -5.47213,1.43595 -1.56703,0.95732 -3.00918,2.30929 -4.32645,4.0559 l 0,17.58619 c 1.17269,1.58017 2.45894,2.69299 3.85875,3.33849 1.39978,0.6455 2.96132,0.96825 4.68462,0.96825 3.37351,0 5.96937,-1.20812 7.7876,-3.62436 1.81818,-2.41623 2.72728,-5.86169 2.72731,-10.33638 -3e-5,-2.36875 -0.20924,-4.40273 -0.62761,-6.10193 -0.41844,-1.69916 -1.02231,-3.09275 -1.81163,-4.18078 -0.78938,-1.08797 -1.75836,-1.88352 -2.90694,-2.38666 -1.14863,-0.50308 -2.45314,-0.75463 -3.91352,-0.75467 z"
         style="font-weight:normal;fill:#80bde8;fill-opacity:1;-inkscape-font-specification:Lato"
         id="path4637" />
      <path
         d="m 478.94956,237.19124 0,7.93219 -15.61245,0 0,43.96547 -9.654,0 0,-43.96547 -15.68475,0 0,-7.93219 z"
         style=""
         id="path4639" />
      <path
         d="m 484.63639,289.0889 0,-36.8241 5.20269,0 c 0.90982,4e-5 1.544,0.16762 1.90254,0.50275 0.35852,0.3352 0.59766,0.9095 0.71742,1.72291 l 0.53889,4.44912 c 1.31581,-2.27236 2.85909,-4.06646 4.62985,-5.38232 1.77072,-1.31579 3.7565,-1.9737 5.95735,-1.97374 1.81964,4e-5 3.32751,0.41845 4.52361,1.25522 l -1.14788,6.63973 c -0.0731,0.43085 -0.22895,0.73607 -0.4677,0.91567 -0.2388,0.17966 -0.56191,0.26948 -0.96934,0.26945 -0.35928,3e-5 -0.84998,-0.084 -1.47209,-0.25192 -0.62215,-0.16792 -1.44728,-0.25189 -2.47538,-0.25192 -1.84305,3e-5 -3.42248,0.50861 -4.73828,1.52576 -1.31584,1.01719 -2.42794,2.50717 -3.3363,4.46993 l 0,22.93346 z"
         style=""
         id="path4641" />
      <path
         d="m 542.7926,289.0889 -3.98252,0 c -0.8383,0 -1.49658,-0.1256 -1.97483,-0.37679 -0.47831,-0.25119 -0.83721,-0.75941 -1.07669,-1.52466 l -0.78861,-2.61996 c -0.93323,0.83681 -1.84854,1.57212 -2.74593,2.20594 -0.89744,0.63381 -1.8248,1.16613 -2.78207,1.59695 -0.95731,0.43082 -1.97412,0.75393 -3.05042,0.96934 -1.07633,0.21541 -2.2724,0.32312 -3.58821,0.32312 -1.55535,0 -2.99129,-0.20921 -4.30783,-0.62761 -1.31656,-0.41841 -2.44728,-1.04638 -3.39215,-1.88392 -0.94489,-0.83754 -1.68057,-1.87844 -2.20704,-3.12271 -0.52648,-1.24426 -0.78972,-2.69225 -0.78971,-4.34398 -10e-6,-1.38737 0.36509,-2.75686 1.0953,-4.10848 0.7302,-1.35159 1.94452,-2.57175 3.64298,-3.6605 1.69844,-1.08871 3.95951,-1.99197 6.78321,-2.70978 2.82367,-0.71777 6.32901,-1.12486 10.51601,-1.22126 l 0,-2.15337 c -3e-5,-2.46368 -0.52066,-4.28772 -1.56191,-5.47214 -1.04129,-1.18435 -2.55426,-1.77655 -4.53893,-1.77658 -1.4356,3e-5 -2.63203,0.16725 -3.58931,0.50165 -0.95731,0.33446 -1.78901,0.71125 -2.4951,1.13035 -0.70612,0.41917 -1.35819,0.79632 -1.95621,1.13145 -0.59805,0.33519 -1.25633,0.50277 -1.97484,0.50275 -0.59731,2e-5 -1.11137,-0.15551 -1.54218,-0.4666 -0.43083,-0.31104 -0.77767,-0.6944 -1.04054,-1.15007 l -1.61448,-2.83465 c 4.23517,-3.87587 9.34366,-5.81383 15.32549,-5.81387 2.15261,4e-5 4.07231,0.35273 5.7591,1.05807 1.68674,0.70541 3.11647,1.68643 4.28921,2.94308 1.17267,1.25671 2.06388,2.75837 2.67363,4.50498 0.60969,1.74667 0.91455,3.66053 0.91458,5.74158 z m -17.22693,-5.5269 c 0.90982,0 1.74736,-0.084 2.51263,-0.25192 0.76523,-0.16794 1.48886,-0.41913 2.17089,-0.75357 0.68199,-0.33443 1.34026,-0.74699 1.97483,-1.23769 0.63452,-0.49069 1.27454,-1.0712 1.92007,-1.74154 l 0,-6.20817 c -2.58494,0.11976 -4.74451,0.34102 -6.47872,0.66375 -1.73425,0.32276 -3.12784,0.73533 -4.18077,1.23769 -1.05297,0.50239 -1.8007,1.08875 -2.24319,1.75906 -0.44251,0.67034 -0.66376,1.39981 -0.66375,2.18842 -1e-5,1.55533 0.46038,2.66816 1.38118,3.33848 0.92077,0.67033 2.12305,1.00549 3.60683,1.00549 z"
         style=""
         id="path4643" />
      <path
         d="m 577.38884,260.05241 c -0.26436,0.33592 -0.52213,0.59952 -0.77328,0.79081 -0.25122,0.19134 -0.61559,0.287 -1.09312,0.28697 -0.45567,3e-5 -0.8989,-0.13762 -1.3297,-0.41293 -0.43084,-0.27526 -0.94527,-0.58632 -1.54328,-0.9332 -0.59806,-0.34682 -1.30964,-0.65788 -2.13474,-0.9332 -0.82516,-0.27525 -1.84817,-0.4129 -3.06904,-0.41293 -1.55535,3e-5 -2.919,0.28116 -4.09096,0.84339 -1.17199,0.56228 -2.14681,1.36988 -2.92446,2.42281 -0.77768,1.05297 -1.35819,2.32718 -1.74153,3.8226 -0.38337,1.49548 -0.57505,3.18809 -0.57504,5.07783 -10e-6,1.9628 0.20956,3.70981 0.62871,5.24103 0.41912,1.53124 1.02336,2.81713 1.81272,3.85765 0.78934,1.04055 1.74627,1.83026 2.87079,2.36915 1.1245,0.53889 2.39286,0.80834 3.80509,0.80833 1.41219,1e-5 2.55495,-0.17378 3.4283,-0.52137 0.87329,-0.34756 1.60897,-0.73056 2.20703,-1.14897 0.59801,-0.4184 1.11828,-0.80102 1.56081,-1.14788 0.44247,-0.34683 0.93901,-0.52026 1.48961,-0.52027 0.71703,10e-6 1.25519,0.2753 1.61448,0.82586 l 2.54767,3.22896 c -0.97996,1.14934 -2.04423,2.11284 -3.1928,2.8905 -1.14864,0.77767 -2.33924,1.3998 -3.57179,1.8664 -1.23261,0.4666 -2.50681,0.79555 -3.82261,0.98687 -1.31584,0.19131 -2.61998,0.28697 -3.91242,0.28697 -2.27241,0 -4.41372,-0.42498 -6.42395,-1.27494 -2.01026,-0.84995 -3.76311,-2.08837 -5.25855,-3.71526 -1.49546,-1.62689 -2.67985,-3.61851 -3.55317,-5.97488 -0.87332,-2.35635 -1.30998,-5.0424 -1.30998,-8.05815 0,-2.70319 0.38883,-5.20924 1.1665,-7.51816 0.77766,-2.30887 1.92042,-4.3067 3.4283,-5.9935 1.50786,-1.68673 3.37425,-3.00876 5.59919,-3.96609 2.22491,-0.95726 4.78463,-1.43591 7.67917,-1.43595 2.75284,4e-5 5.16396,0.44254 7.23338,1.32751 2.06936,0.88504 3.92992,2.1534 5.58167,3.80509 z"
         style=""
         id="path4645" />
      <path
         d="m 594.69246,235.7542 0,30.54363 1.64952,0 c 0.59875,2e-5 1.06572,-0.0836 1.4009,-0.25083 0.33514,-0.16719 0.69404,-0.47862 1.07668,-0.93429 l 9.15235,-11.30353 c 0.40597,-0.47898 0.83642,-0.85612 1.29136,-1.13145 0.45489,-0.27525 1.05329,-0.41289 1.79521,-0.41293 l 8.11181,0 -11.4503,13.67377 c -0.40602,0.5024 -0.82442,0.96316 -1.25522,1.38227 -0.43084,0.41916 -0.89744,0.78426 -1.39979,1.0953 0.50235,0.35928 0.94485,0.77806 1.3275,1.25632 0.38261,0.4783 0.76523,0.99273 1.14788,1.54328 l 12.27397,17.87316 -8.00228,0 c -0.69373,0 -1.28008,-0.11976 -1.75906,-0.35926 -0.47904,-0.23951 -0.90986,-0.64623 -1.29246,-1.22017 l -9.36703,-13.96073 c -0.35928,-0.55056 -0.71817,-0.90945 -1.07669,-1.07669 -0.35854,-0.1672 -0.89707,-0.2508 -1.61557,-0.25082 l -2.00878,0 0,16.86767 -8.86539,0 0,-53.3347 z"
         style=""
         id="path4647" />
    </g>
    <g
       style="stroke:#1a1a1a"
       transform="matrix(0.08255729,0.0773749,-0.0773749,0.08255729,377.93476,519.23649)"
       clip-path="url(#clipPath6711)"
       id="g4208"
       inkscape:export-filename="C:\Users\John\sleeptrack-rectangle-black.png"
       inkscape:export-xdpi="300"
       inkscape:export-ydpi="300">
      <path
         inkscape:connector-curvature="0"
         id="path4210"
         d="m 618.21338,636.17932 c 0,167.36756 -135.67822,303.04578 -303.04578,303.04578 -167.36756,0 -303.045774,-135.67822 -303.045774,-303.04578 0,-167.36756 135.678214,-303.04578 303.045774,-303.04578 167.36756,0 303.04578,135.67822 303.04578,303.04578 z"
         style="fill:none;stroke:#1a1a1a;stroke-width:39.37888336;stroke-miterlimit:4;stroke-opacity:1;stroke-dasharray:none"
         transform="translate(-1802.1121,-113.13708)" />
      <path
         inkscape:connector-curvature="0"
         id="path4212"
         d="m 618.21338,636.17932 c 0,167.36756 -135.67822,303.04578 -303.04578,303.04578 -167.36756,0 -303.045774,-135.67822 -303.045774,-303.04578 0,-167.36756 135.678214,-303.04578 303.045774,-303.04578 167.36756,0 303.04578,135.67822 303.04578,303.04578 z"
         style="fill:none;stroke:#1a1a1a;stroke-width:29.34460831;stroke-miterlimit:4;stroke-opacity:1;stroke-dasharray:none"
         transform="matrix(1.3419461,0,0,1.3419461,-1909.8824,-330.67615)" />
      <path
         inkscape:connector-curvature="0"
         id="path4214"
         d="m 618.21338,636.17932 c 0,167.36756 -135.67822,303.04578 -303.04578,303.04578 -167.36756,0 -303.045774,-135.67822 -303.045774,-303.04578 0,-167.36756 135.678214,-303.04578 303.045774,-303.04578 167.36756,0 303.04578,135.67822 303.04578,303.04578 z"
         style="fill:none;stroke:#1a1a1a;stroke-width:23.03907394;stroke-miterlimit:4;stroke-opacity:1;stroke-dasharray:none"
         transform="matrix(1.7092216,0,0,1.7092216,-2025.6357,-564.32922)" />
    </g>
    <path
       inkscape:connector-curvature="0"
       id="path4216"
       d="m 140.29892,395.69887 15.36989,0 -16.17895,16.98796 16.17895,0"
       style="fill:none;stroke:#1a1a1a;stroke-width:3.7873137;stroke-linecap:round;stroke-linejoin:round;stroke-miterlimit:4;stroke-opacity:1;stroke-dasharray:none;stroke-dashoffset:0"
       inkscape:export-filename="C:\Users\John\sleeptrack-rectangle-black.png"
       inkscape:export-xdpi="300"
       inkscape:export-ydpi="300" />
    <path
       transform="matrix(0.1456299,0,0,0.1456299,156.44126,370.8)"
       style="fill:none;stroke:#1a1a1a;stroke-width:46.02884674;stroke-miterlimit:4;stroke-opacity:1"
       d="m 618.21338,636.17932 c 0,167.36756 -135.67822,303.04578 -303.04578,303.04578 -167.36756,0 -303.045774,-135.67822 -303.045774,-303.04578 0,-167.36756 135.678214,-303.04578 303.045774,-303.04578 167.36756,0 303.04578,135.67822 303.04578,303.04578 z"
       id="path4224"
       inkscape:export-filename="C:\Users\John\sleeptrack-rectangle-black.png"
       inkscape:export-xdpi="300"
       inkscape:export-ydpi="300" />
    <path
       inkscape:connector-curvature="0"
       id="path4226"
       d="m 153.27218,424.5267 7.85314,0 -8.2665,8.67972 8.2665,0"
       style="fill:none;stroke:#1a1a1a;stroke-width:3.34174705;stroke-linecap:round;stroke-linejoin:round;stroke-miterlimit:4;stroke-opacity:1;stroke-dasharray:none;stroke-dashoffset:0"
       inkscape:export-filename="C:\Users\John\sleeptrack-rectangle-black.png"
       inkscape:export-xdpi="300"
       inkscape:export-ydpi="300" />
    <path
       style="fill:none;stroke:#1a1a1a;stroke-width:3.7873137;stroke-linecap:round;stroke-linejoin:round;stroke-miterlimit:4;stroke-opacity:1;stroke-dasharray:none;stroke-dashoffset:0"
       d="m 162.28581,405.23319 12.35365,0 -13.00383,13.65406 13.00383,0"
       id="path4228"
       inkscape:connector-curvature="0"
       inkscape:export-filename="C:\Users\John\sleeptrack-rectangle-black.png"
       inkscape:export-xdpi="300"
       inkscape:export-ydpi="300" />
    <g
       transform="matrix(2.0850925,0,0,2.0850925,-34.848201,-789.48281)"
       id="g4230"
       style="stroke:#1a1a1a"
       inkscape:export-filename="C:\Users\John\sleeptrack-rectangle-black.png"
       inkscape:export-xdpi="300"
       inkscape:export-ydpi="300">
      <path
         style="fill:none;stroke:#1a1a1a;stroke-width:2.7861681;stroke-linecap:round;stroke-linejoin:round;stroke-miterlimit:4;stroke-opacity:1;stroke-dasharray:none"
         d="m 98.889801,599.50816 c 0,3.13997 2.545439,5.68542 5.685409,5.68542 3.13997,0 5.68541,-2.54545 5.68541,-5.68542"
         id="path4232"
         inkscape:connector-curvature="0"
         sodipodi:nodetypes="csc" />
      <path
         sodipodi:nodetypes="csc"
         inkscape:connector-curvature="0"
         id="path4234"
         d="m 117.24693,599.50816 c 0,3.13997 2.54545,5.68542 5.68542,5.68542 3.13997,0 5.68541,-2.54545 5.68541,-5.68542"
         style="fill:none;stroke:#1a1a1a;stroke-width:2.7861681;stroke-linecap:round;stroke-linejoin:round;stroke-miterlimit:4;stroke-opacity:1;stroke-dasharray:none" />
    </g>
    <path
       sodipodi:nodetypes="cc"
       inkscape:connector-curvature="0"
       id="path4236"
       d="m 187.44554,486.29579 c 8.51338,5.95632 19.64483,6.27802 29.78698,0"
       style="fill:none;stroke:#1a1a1a;stroke-width:5.8094182;stroke-linecap:round;stroke-linejoin:round;stroke-miterlimit:4;stroke-opacity:1;stroke-dasharray:none;stroke-dashoffset:0"
       inkscape:export-filename="C:\Users\John\sleeptrack-rectangle-black.png"
       inkscape:export-xdpi="300"
       inkscape:export-ydpi="300" />
    <g
       style="font-size:71.78179169px;font-style:normal;font-variant:normal;font-weight:bold;font-stretch:normal;text-align:center;line-height:231.99999332%;letter-spacing:0px;word-spacing:-1.99393833px;text-anchor:middle;fill:#1a1a1a;fill-opacity:1;stroke:none;font-family:Lato;-inkscape-font-specification:Lato Bold"
       id="text4238"
       inkscape:export-filename="C:\Users\John\sleeptrack-rectangle-black.png"
       inkscape:export-xdpi="300"
       inkscape:export-ydpi="300">
      <path
         d="m 298.54437,444.35792 c -0.21617,0.3593 -0.44363,0.62838 -0.68238,0.80724 -0.2388,0.17894 -0.55023,0.26839 -0.93429,0.26835 -0.40602,4e-5 -0.8781,-0.20332 -1.41623,-0.61009 -0.53818,-0.40668 -1.22019,-0.85539 -2.04602,-1.34613 -0.82589,-0.49065 -1.81896,-0.93936 -2.97923,-1.34612 -1.16031,-0.40668 -2.56631,-0.61004 -4.21801,-0.61009 -1.55535,5e-5 -2.93105,0.20962 -4.1271,0.62871 -1.19609,0.41918 -2.195,0.98764 -2.99675,1.70538 -0.80178,0.71784 -1.40602,1.56122 -1.81273,2.53015 -0.40673,0.96902 -0.61009,2.01577 -0.61008,3.14024 -10e-6,1.43561 0.35304,2.62584 1.05916,3.57069 0.70609,0.94491 1.63929,1.75252 2.79959,2.42281 1.16028,0.67036 2.4761,1.25087 3.94747,1.74153 1.47134,0.49073 2.97884,0.99931 4.52251,1.52576 1.54362,0.5265 3.05112,1.1187 4.52251,1.77658 1.47133,0.65794 2.78715,1.48927 3.94747,2.494 1.16026,1.00479 2.09346,2.237 2.7996,3.69665 0.70607,1.4597 1.05912,3.25417 1.05915,5.38342 -3e-5,2.24903 -0.38302,4.36041 -1.14897,6.33414 -0.76602,1.97374 -1.88468,3.69044 -3.35601,5.15011 -1.47139,1.45968 -3.2779,2.60829 -5.41956,3.44583 -2.14171,0.83754 -4.57583,1.25631 -7.30239,1.25631 -3.32681,0 -6.36007,-0.60424 -9.09977,-1.81273 -2.73973,-1.20848 -5.07856,-2.84157 -7.01652,-4.89929 l 2.01098,-3.30124 c 0.19131,-0.26287 0.42461,-0.48412 0.6999,-0.66376 0.27528,-0.17962 0.58014,-0.26943 0.91458,-0.26944 0.50237,10e-6 1.07667,0.26909 1.72291,0.80724 0.64622,0.53817 1.45382,1.13036 2.42281,1.77658 0.96897,0.64624 2.14131,1.23843 3.51702,1.77658 1.37568,0.53817 3.05661,0.80724 5.04277,0.80724 1.65024,0 3.1216,-0.22709 4.41408,-0.68128 1.29243,-0.45418 2.38737,-1.0942 3.28481,-1.92007 0.89739,-0.82585 1.58524,-1.81308 2.06355,-2.9617 0.47826,-1.14859 0.7174,-2.42827 0.71743,-3.83903 -3e-5,-1.55532 -0.35309,-2.82952 -1.05916,-3.82261 -0.70614,-0.99306 -1.63313,-1.82476 -2.78098,-2.4951 -1.1479,-0.67031 -2.45788,-1.23877 -3.92995,-1.70539 -1.4721,-0.46658 -2.9796,-0.94486 -4.5225,-1.43485 -1.54294,-0.48994 -3.05007,-1.05803 -4.52141,-1.70429 -1.47137,-0.6462 -2.78135,-1.48374 -3.92995,-2.51262 -1.14862,-1.02883 -2.07597,-2.31508 -2.78207,-3.85876 -0.70611,-1.54361 -1.05917,-3.45163 -1.05916,-5.72405 -1e-5,-1.81817 0.35305,-3.57686 1.05916,-5.27608 0.7061,-1.69913 1.72911,-3.20663 3.06904,-4.5225 1.33991,-1.31578 2.99674,-2.36836 4.97048,-3.15776 1.97372,-0.7893 4.24063,-1.18397 6.80074,-1.18403 2.87113,6e-5 5.4911,0.45461 7.8599,1.36366 2.36874,0.90915 4.43886,2.22461 6.21037,3.94637 z"
         style="font-weight:normal;fill:#1a1a1a;fill-opacity:1;-inkscape-font-specification:Lato"
         id="path4607" />
      <path
         d="m 316.29485,434.88135 0,52.8681 -6.38781,0 0,-52.8681 z"
         style="font-weight:normal;fill:#1a1a1a;fill-opacity:1;-inkscape-font-specification:Lato"
         id="path4609" />
      <path
         d="m 341.94686,450.81802 c 2.17744,3e-5 4.18732,0.36477 6.02964,1.0942 1.84227,0.72951 3.43338,1.7821 4.77333,3.15776 1.33989,1.37574 2.38663,3.07455 3.14024,5.09645 0.75353,2.02196 1.13031,4.32538 1.13035,6.91027 -4e-5,1.00478 -0.10774,1.67474 -0.32312,2.00988 -0.21544,0.33518 -0.6218,0.50276 -1.21907,0.50274 l -24.19086,0 c 0.0482,2.29724 0.35925,4.29507 0.93319,5.9935 0.57393,1.69846 1.36328,3.11615 2.36805,4.25306 1.00474,1.13694 2.20118,1.98653 3.58931,2.54878 1.38809,0.56226 2.94379,0.84338 4.66708,0.84338 1.60205,0 2.98359,-0.18547 4.14463,-0.55642 1.161,-0.37093 2.16028,-0.77181 2.99785,-1.20264 0.83751,-0.43081 1.53741,-0.83169 2.09969,-1.20264 0.56223,-0.37094 1.04635,-0.55641 1.45238,-0.55641 0.52717,0 0.93389,0.20373 1.22016,0.61117 l 1.79411,2.33081 c -0.78865,0.95803 -1.73353,1.78973 -2.83464,2.4951 -1.10118,0.70538 -2.27973,1.28552 -3.53564,1.74044 -1.25598,0.45491 -2.55391,0.79592 -3.89381,1.02301 -1.33994,0.22709 -2.66781,0.34064 -3.98361,0.34064 -2.51192,0 -4.82666,-0.42461 -6.94423,-1.27384 -2.11759,-0.84922 -3.94821,-2.09312 -5.49185,-3.7317 -1.54365,-1.63856 -2.74629,-3.66633 -3.60793,-6.08331 -0.86164,-2.41696 -1.29246,-5.19245 -1.29245,-8.3265 -10e-6,-2.5367 0.38883,-4.90583 1.16649,-7.10742 0.77766,-2.20153 1.89633,-4.10991 3.35601,-5.72515 1.45967,-1.61517 3.24246,-2.88317 5.34837,-3.80399 2.10589,-0.92074 4.47466,-1.38114 7.10633,-1.38117 z m 0.14458,4.70104 c -3.08732,3e-5 -5.51633,0.89124 -7.28706,2.67363 -1.77075,1.78245 -2.87153,4.25309 -3.30234,7.41192 l 19.7768,0 c -3e-5,-1.48375 -0.20339,-2.84156 -0.61008,-4.07343 -0.40675,-1.23183 -1.00516,-2.29646 -1.79521,-3.19391 -0.7901,-0.89738 -1.75324,-1.59144 -2.88941,-2.08217 -1.13621,-0.49066 -2.43378,-0.73601 -3.8927,-0.73604 z"
         style="font-weight:normal;fill:#1a1a1a;fill-opacity:1;-inkscape-font-specification:Lato"
         id="path4611" />
      <path
         d="m 379.52014,450.81802 c 2.17744,3e-5 4.18732,0.36477 6.02964,1.0942 1.84227,0.72951 3.43338,1.7821 4.77333,3.15776 1.33989,1.37574 2.38663,3.07455 3.14024,5.09645 0.75353,2.02196 1.13031,4.32538 1.13035,6.91027 -4e-5,1.00478 -0.10774,1.67474 -0.32312,2.00988 -0.21544,0.33518 -0.6218,0.50276 -1.21907,0.50274 l -24.19086,0 c 0.0482,2.29724 0.35925,4.29507 0.93319,5.9935 0.57393,1.69846 1.36328,3.11615 2.36805,4.25306 1.00474,1.13694 2.20118,1.98653 3.58931,2.54878 1.3881,0.56226 2.94379,0.84338 4.66709,0.84338 1.60204,0 2.98358,-0.18547 4.14462,-0.55642 1.161,-0.37093 2.16028,-0.77181 2.99785,-1.20264 0.83751,-0.43081 1.53741,-0.83169 2.09969,-1.20264 0.56223,-0.37094 1.04635,-0.55641 1.45238,-0.55641 0.52717,0 0.93389,0.20373 1.22016,0.61117 l 1.79411,2.33081 c -0.78865,0.95803 -1.73353,1.78973 -2.83464,2.4951 -1.10118,0.70538 -2.27972,1.28552 -3.53564,1.74044 -1.25598,0.45491 -2.55391,0.79592 -3.89381,1.02301 -1.33994,0.22709 -2.66781,0.34064 -3.98361,0.34064 -2.51192,0 -4.82666,-0.42461 -6.94423,-1.27384 -2.11759,-0.84922 -3.94821,-2.09312 -5.49185,-3.7317 -1.54365,-1.63856 -2.74629,-3.66633 -3.60793,-6.08331 -0.86164,-2.41696 -1.29246,-5.19245 -1.29245,-8.3265 -10e-6,-2.5367 0.38883,-4.90583 1.16649,-7.10742 0.77767,-2.20153 1.89633,-4.10991 3.35601,-5.72515 1.45967,-1.61517 3.24246,-2.88317 5.34837,-3.80399 2.10589,-0.92074 4.47466,-1.38114 7.10633,-1.38117 z m 0.14458,4.70104 c -3.08731,3e-5 -5.51633,0.89124 -7.28706,2.67363 -1.77075,1.78245 -2.87153,4.25309 -3.30234,7.41192 l 19.7768,0 c -3e-5,-1.48375 -0.20339,-2.84156 -0.61008,-4.07343 -0.40675,-1.23183 -1.00515,-2.29646 -1.79521,-3.19391 -0.7901,-0.89738 -1.75324,-1.59144 -2.88941,-2.08217 -1.13621,-0.49066 -2.43378,-0.73601 -3.8927,-0.73604 z"
         style="font-weight:normal;fill:#1a1a1a;fill-opacity:1;-inkscape-font-specification:Lato"
         id="path4613" />
      <path
         d="m 402.70113,500.06066 0,-48.6687 3.80509,0 c 0.90836,3e-5 1.4823,0.44253 1.72181,1.3275 l 0.53889,4.30674 c 1.55532,-1.88974 3.3319,-3.40892 5.32975,-4.55756 1.99781,-1.14857 4.30087,-1.72288 6.90917,-1.72291 2.08105,3e-5 3.97118,0.40091 5.67038,1.20264 1.69915,0.8018 3.14678,1.98618 4.34288,3.55316 1.19604,1.56705 2.11719,3.51121 2.76345,5.83249 0.64619,2.32134 0.96931,4.98913 0.96935,8.00338 -4e-5,2.67986 -0.35894,5.17423 -1.07669,7.48312 -0.71782,2.3089 -1.74668,4.30673 -3.08656,5.99349 -1.33996,1.68677 -2.9851,3.01465 -4.93544,3.98362 -1.95039,0.96898 -4.14575,1.45347 -6.58606,1.45347 -2.24904,0 -4.1691,-0.37058 -5.7602,-1.11173 -1.59112,-0.74116 -2.99712,-1.79374 -4.21801,-3.15776 l 0,16.07905 z m 16.18639,-44.14729 c -2.08109,3e-5 -3.90514,0.47868 -5.47213,1.43594 -1.56703,0.95732 -3.00918,2.30929 -4.32645,4.05591 l 0,17.58619 c 1.17269,1.58016 2.45894,2.69299 3.85875,3.33848 1.39978,0.6455 2.96132,0.96825 4.68462,0.96825 3.37351,0 5.96937,-1.20812 7.7876,-3.62436 1.81818,-2.41623 2.72728,-5.86168 2.72731,-10.33638 -3e-5,-2.36875 -0.20924,-4.40273 -0.62761,-6.10193 -0.41844,-1.69915 -1.02231,-3.09274 -1.81163,-4.18077 -0.78938,-1.08797 -1.75836,-1.88353 -2.90694,-2.38667 -1.14863,-0.50308 -2.45314,-0.75463 -3.91352,-0.75466 z"
         style="font-weight:normal;fill:#1a1a1a;fill-opacity:1;-inkscape-font-specification:Lato"
         id="path4615" />
      <path
         d="m 478.94956,435.85179 0,7.93219 -15.61245,0 0,43.96547 -9.654,0 0,-43.96547 -15.68475,0 0,-7.93219 z"
         style=""
         id="path4617" />
      <path
         d="m 484.63639,487.74945 0,-36.82409 5.20269,0 c 0.90982,3e-5 1.544,0.16761 1.90254,0.50274 0.35852,0.3352 0.59766,0.9095 0.71742,1.72291 l 0.53889,4.44912 c 1.31581,-2.27235 2.85909,-4.06646 4.62985,-5.38232 1.77072,-1.31578 3.7565,-1.97369 5.95735,-1.97373 1.81964,4e-5 3.32751,0.41844 4.52361,1.25522 l -1.14788,6.63972 c -0.0731,0.43085 -0.22895,0.73608 -0.4677,0.91568 -0.2388,0.17966 -0.56191,0.26947 -0.96934,0.26944 -0.35928,3e-5 -0.84998,-0.0839 -1.47209,-0.25192 -0.62215,-0.16792 -1.44728,-0.25189 -2.47538,-0.25192 -1.84305,3e-5 -3.42248,0.50862 -4.73828,1.52576 -1.31584,1.0172 -2.42794,2.50717 -3.3363,4.46993 l 0,22.93346 z"
         style=""
         id="path4619" />
      <path
         d="m 542.7926,487.74945 -3.98252,0 c -0.8383,0 -1.49658,-0.12559 -1.97483,-0.37678 -0.47831,-0.25119 -0.83721,-0.75941 -1.07669,-1.52467 l -0.78861,-2.61996 c -0.93323,0.83681 -1.84854,1.57213 -2.74593,2.20594 -0.89744,0.63382 -1.8248,1.16613 -2.78207,1.59695 -0.95731,0.43082 -1.97412,0.75394 -3.05042,0.96935 -1.07633,0.2154 -2.2724,0.32311 -3.58821,0.32311 -1.55535,0 -2.99129,-0.2092 -4.30783,-0.62761 -1.31656,-0.4184 -2.44728,-1.04638 -3.39215,-1.88392 -0.94489,-0.83754 -1.68057,-1.87844 -2.20704,-3.12271 -0.52648,-1.24426 -0.78972,-2.69225 -0.78971,-4.34397 -10e-6,-1.38738 0.36509,-2.75687 1.0953,-4.10849 0.7302,-1.35158 1.94452,-2.57175 3.64298,-3.6605 1.69844,-1.08871 3.95951,-1.99197 6.78321,-2.70978 2.82367,-0.71777 6.32901,-1.12485 10.51601,-1.22126 l 0,-2.15337 c -3e-5,-2.46367 -0.52066,-4.28772 -1.56191,-5.47213 -1.04129,-1.18436 -2.55426,-1.77655 -4.53893,-1.77658 -1.4356,3e-5 -2.63203,0.16724 -3.58931,0.50164 -0.95731,0.33447 -1.78901,0.71125 -2.4951,1.13036 -0.70612,0.41916 -1.35819,0.79631 -1.95621,1.13145 -0.59805,0.33519 -1.25633,0.50277 -1.97484,0.50274 -0.59731,3e-5 -1.11137,-0.15551 -1.54218,-0.4666 -0.43083,-0.31104 -0.77767,-0.69439 -1.04054,-1.15007 l -1.61448,-2.83464 c 4.23517,-3.87588 9.34366,-5.81383 15.32549,-5.81387 2.15261,4e-5 4.07231,0.35272 5.7591,1.05806 1.68674,0.70541 3.11647,1.68644 4.28921,2.94308 1.17267,1.25671 2.06388,2.75837 2.67363,4.50498 0.60969,1.74667 0.91455,3.66053 0.91458,5.74158 z m -17.22693,-5.5269 c 0.90982,10e-6 1.74736,-0.084 2.51263,-0.25192 0.76523,-0.16794 1.48886,-0.41913 2.17089,-0.75357 0.68199,-0.33442 1.34026,-0.74699 1.97483,-1.23769 0.63452,-0.49069 1.27454,-1.0712 1.92007,-1.74153 l 0,-6.20818 c -2.58494,0.11977 -4.74451,0.34102 -6.47872,0.66375 -1.73425,0.32277 -3.12784,0.73533 -4.18077,1.2377 -1.05297,0.50239 -1.8007,1.08874 -2.24319,1.75905 -0.44251,0.67034 -0.66376,1.39981 -0.66375,2.18842 -1e-5,1.55534 0.46038,2.66816 1.38118,3.33848 0.92077,0.67033 2.12305,1.0055 3.60683,1.00549 z"
         style=""
         id="path4621" />
      <path
         d="m 577.38884,458.71296 c -0.26436,0.33592 -0.52213,0.59953 -0.77328,0.79081 -0.25122,0.19134 -0.61559,0.287 -1.09312,0.28697 -0.45567,3e-5 -0.8989,-0.13761 -1.3297,-0.41293 -0.43084,-0.27526 -0.94527,-0.58632 -1.54328,-0.9332 -0.59806,-0.34681 -1.30964,-0.65788 -2.13474,-0.9332 -0.82516,-0.27525 -1.84817,-0.41289 -3.06904,-0.41292 -1.55535,3e-5 -2.919,0.28115 -4.09096,0.84338 -1.17199,0.56228 -2.14681,1.36989 -2.92446,2.42281 -0.77768,1.05298 -1.35819,2.32718 -1.74153,3.82261 -0.38337,1.49547 -0.57505,3.18808 -0.57504,5.07782 -10e-6,1.9628 0.20956,3.70981 0.62871,5.24103 0.41912,1.53125 1.02336,2.81713 1.81272,3.85766 0.78934,1.04054 1.74627,1.83026 2.87079,2.36914 1.1245,0.53889 2.39286,0.80834 3.80509,0.80833 1.41219,10e-6 2.55495,-0.17378 3.4283,-0.52136 0.87329,-0.34757 1.60897,-0.73056 2.20703,-1.14898 0.59801,-0.41839 1.11828,-0.80102 1.56081,-1.14787 0.44247,-0.34684 0.93901,-0.52026 1.48961,-0.52027 0.71703,1e-5 1.25519,0.27529 1.61448,0.82586 l 2.54767,3.22895 c -0.97996,1.14934 -2.04423,2.11284 -3.1928,2.89051 -1.14864,0.77766 -2.33924,1.39979 -3.57179,1.86639 -1.23261,0.4666 -2.50681,0.79556 -3.82261,0.98687 -1.31584,0.19131 -2.61998,0.28697 -3.91242,0.28697 -2.27241,0 -4.41372,-0.42498 -6.42395,-1.27493 -2.01026,-0.84996 -3.76311,-2.08838 -5.25855,-3.71527 -1.49546,-1.62689 -2.67985,-3.61851 -3.55317,-5.97488 -0.87332,-2.35635 -1.30998,-5.0424 -1.30998,-8.05815 0,-2.70318 0.38883,-5.20923 1.1665,-7.51816 0.77766,-2.30887 1.92042,-4.3067 3.4283,-5.9935 1.50786,-1.68673 3.37425,-3.00876 5.59919,-3.96609 2.22491,-0.95726 4.78463,-1.4359 7.67917,-1.43594 2.75284,4e-5 5.16396,0.44254 7.23338,1.32751 2.06936,0.88504 3.92992,2.1534 5.58167,3.80508 z"
         style=""
         id="path4623" />
      <path
         d="m 594.69246,434.41476 0,30.54362 1.64952,0 c 0.59875,2e-5 1.06572,-0.0836 1.4009,-0.25082 0.33514,-0.1672 0.69404,-0.47863 1.07668,-0.9343 l 9.15235,-11.30353 c 0.40597,-0.47897 0.83642,-0.85612 1.29136,-1.13144 0.45489,-0.27525 1.05329,-0.4129 1.79521,-0.41293 l 8.11181,0 -11.4503,13.67376 c -0.40602,0.5024 -0.82442,0.96316 -1.25522,1.38227 -0.43084,0.41916 -0.89744,0.78426 -1.39979,1.09531 0.50235,0.35928 0.94485,0.77805 1.3275,1.25631 0.38261,0.4783 0.76523,0.99273 1.14788,1.54328 l 12.27397,17.87316 -8.00228,0 c -0.69373,0 -1.28008,-0.11975 -1.75906,-0.35926 -0.47904,-0.2395 -0.90986,-0.64623 -1.29246,-1.22017 l -9.36703,-13.96073 c -0.35928,-0.55056 -0.71817,-0.90945 -1.07669,-1.07668 -0.35854,-0.1672 -0.89707,-0.25081 -1.61557,-0.25083 l -2.00878,0 0,16.86767 -8.86539,0 0,-53.33469 z"
         style=""
         id="path4625" />
    </g>
    <g
       id="g4244"
       clip-path="url(#clipPath6711)"
       transform="matrix(0.1093388,0.10247527,-0.10247527,0.1093388,476.7397,745.43967)"
       style="stroke:#1a1a1a"
       inkscape:export-filename="C:\Users\John\sleeptrack-square-black.png"
       inkscape:export-xdpi="300"
       inkscape:export-ydpi="300">
      <path
         transform="translate(-1802.1121,-113.13708)"
         style="fill:none;stroke:#1a1a1a;stroke-width:39.37888336;stroke-miterlimit:4;stroke-opacity:1;stroke-dasharray:none"
         d="m 618.21338,636.17932 c 0,167.36756 -135.67822,303.04578 -303.04578,303.04578 -167.36756,0 -303.045774,-135.67822 -303.045774,-303.04578 0,-167.36756 135.678214,-303.04578 303.045774,-303.04578 167.36756,0 303.04578,135.67822 303.04578,303.04578 z"
         id="path4246"
         inkscape:connector-curvature="0" />
      <path
         transform="matrix(1.3419461,0,0,1.3419461,-1909.8824,-330.67615)"
         style="fill:none;stroke:#1a1a1a;stroke-width:29.34460831;stroke-miterlimit:4;stroke-opacity:1;stroke-dasharray:none"
         d="m 618.21338,636.17932 c 0,167.36756 -135.67822,303.04578 -303.04578,303.04578 -167.36756,0 -303.045774,-135.67822 -303.045774,-303.04578 0,-167.36756 135.678214,-303.04578 303.045774,-303.04578 167.36756,0 303.04578,135.67822 303.04578,303.04578 z"
         id="path4248"
         inkscape:connector-curvature="0" />
      <path
         transform="matrix(1.7092216,0,0,1.7092216,-2025.6357,-564.32922)"
         style="fill:none;stroke:#1a1a1a;stroke-width:23.03907394;stroke-miterlimit:4;stroke-opacity:1;stroke-dasharray:none"
         d="m 618.21338,636.17932 c 0,167.36756 -135.67822,303.04578 -303.04578,303.04578 -167.36756,0 -303.045774,-135.67822 -303.045774,-303.04578 0,-167.36756 135.678214,-303.04578 303.045774,-303.04578 167.36756,0 303.04578,135.67822 303.04578,303.04578 z"
         id="path4250"
         inkscape:connector-curvature="0" />
    </g>
    <path
       style="fill:none;stroke:#1a1a1a;stroke-width:5.01591682;stroke-linecap:round;stroke-linejoin:round;stroke-miterlimit:4;stroke-opacity:1;stroke-dasharray:none;stroke-dashoffset:0"
       d="m 162.01485,581.8265 20.35588,0 -21.42736,22.49884 21.42736,0"
       id="path4252"
       inkscape:connector-curvature="0"
       inkscape:export-filename="C:\Users\John\sleeptrack-square-black.png"
       inkscape:export-xdpi="300"
       inkscape:export-ydpi="300" />
    <path
       transform="matrix(0.19287217,0,0,0.19287217,183.39371,548.85039)"
       style="fill:none;stroke:#1a1a1a;stroke-width:46.02884674;stroke-miterlimit:4;stroke-opacity:1"
       d="m 618.21338,636.17932 c 0,167.36756 -135.67822,303.04578 -303.04578,303.04578 -167.36756,0 -303.045774,-135.67822 -303.045774,-303.04578 0,-167.36756 135.678214,-303.04578 303.045774,-303.04578 167.36756,0 303.04578,135.67822 303.04578,303.04578 z"
       id="path4254"
       inkscape:export-filename="C:\Users\John\sleeptrack-square-black.png"
       inkscape:export-xdpi="300"
       inkscape:export-ydpi="300" />
    <path
       style="fill:none;stroke:#1a1a1a;stroke-width:4.42580843;stroke-linecap:round;stroke-linejoin:round;stroke-miterlimit:4;stroke-opacity:1;stroke-dasharray:none;stroke-dashoffset:0"
       d="m 179.19661,620.00603 10.40067,0 -10.9481,11.49545 10.9481,0"
       id="path4256"
       inkscape:connector-curvature="0"
       inkscape:export-filename="C:\Users\John\sleeptrack-square-black.png"
       inkscape:export-xdpi="300"
       inkscape:export-ydpi="300" />
    <path
       inkscape:connector-curvature="0"
       id="path4258"
       d="m 191.13424,594.4537 16.36117,0 -17.22228,18.08344 17.22228,0"
       style="fill:none;stroke:#1a1a1a;stroke-width:5.01591682;stroke-linecap:round;stroke-linejoin:round;stroke-miterlimit:4;stroke-opacity:1;stroke-dasharray:none;stroke-dashoffset:0"
       inkscape:export-filename="C:\Users\John\sleeptrack-square-black.png"
       inkscape:export-xdpi="300"
       inkscape:export-ydpi="300" />
    <g
       style="stroke:#1a1a1a"
       id="g4260"
       transform="matrix(2.7614956,0,0,2.7614956,-69.949931,-987.82768)"
       inkscape:export-filename="C:\Users\John\sleeptrack-square-black.png"
       inkscape:export-xdpi="300"
       inkscape:export-ydpi="300">
      <path
         sodipodi:nodetypes="csc"
         inkscape:connector-curvature="0"
         id="path4262"
         d="m 98.889801,599.50816 c 0,3.13997 2.545439,5.68542 5.685409,5.68542 3.13997,0 5.68541,-2.54545 5.68541,-5.68542"
         style="fill:none;stroke:#1a1a1a;stroke-width:2.7861681;stroke-linecap:round;stroke-linejoin:round;stroke-miterlimit:4;stroke-opacity:1;stroke-dasharray:none" />
      <path
         style="fill:none;stroke:#1a1a1a;stroke-width:2.7861681;stroke-linecap:round;stroke-linejoin:round;stroke-miterlimit:4;stroke-opacity:1;stroke-dasharray:none"
         d="m 117.24693,599.50816 c 0,3.13997 2.54545,5.68542 5.68542,5.68542 3.13997,0 5.68541,-2.54545 5.68541,-5.68542"
         id="path4264"
         inkscape:connector-curvature="0"
         sodipodi:nodetypes="csc" />
    </g>
    <path
       style="fill:none;stroke:#1a1a1a;stroke-width:7.69399118;stroke-linecap:round;stroke-linejoin:round;stroke-miterlimit:4;stroke-opacity:1;stroke-dasharray:none;stroke-dashoffset:0"
       d="m 224.4558,701.81298 c 11.2751,7.88858 26.01761,8.31463 39.44988,0"
       id="path4266"
       inkscape:connector-curvature="0"
       sodipodi:nodetypes="cc"
       inkscape:export-filename="C:\Users\John\sleeptrack-square-black.png"
       inkscape:export-xdpi="300"
       inkscape:export-ydpi="300" />
    <g
       style="font-size:47.58570862px;font-style:normal;font-variant:normal;font-weight:bold;font-stretch:normal;text-align:center;line-height:231.99999332%;letter-spacing:0px;word-spacing:-1.32182491px;text-anchor:middle;fill:#1a1a1a;fill-opacity:1;stroke:none;font-family:Lato;-inkscape-font-specification:Lato Bold"
       id="text4268"
       inkscape:export-filename="C:\Users\John\sleeptrack-square-black.png"
       inkscape:export-xdpi="300"
       inkscape:export-ydpi="300">
      <path
         d="m 160.55027,757.07185 c -0.1433,0.23819 -0.29409,0.41656 -0.45236,0.53513 -0.15831,0.11863 -0.36476,0.17793 -0.61936,0.1779 -0.26916,3e-5 -0.58211,-0.13479 -0.93885,-0.40444 -0.35677,-0.2696 -0.80889,-0.56706 -1.35635,-0.89238 -0.5475,-0.32526 -1.20583,-0.62272 -1.975,-0.89237 -0.76919,-0.2696 -1.70126,-0.40441 -2.79621,-0.40444 -1.03107,3e-5 -1.94305,0.13895 -2.73594,0.41678 -0.79292,0.27788 -1.45512,0.65473 -1.98661,1.13054 -0.53152,0.47586 -0.93208,1.03496 -1.2017,1.67729 -0.26963,0.64238 -0.40445,1.33629 -0.40444,2.08173 -1e-5,0.9517 0.23404,1.74073 0.70214,2.36709 0.46808,0.6264 1.08672,1.16178 1.85591,1.60613 0.76917,0.44439 1.64146,0.82923 2.61687,1.1545 0.97538,0.32531 1.97473,0.66246 2.99807,1.01146 1.0233,0.34903 2.02265,0.74161 2.99806,1.17773 0.97538,0.43616 1.84767,0.98727 2.61687,1.65333 0.76916,0.66609 1.3878,1.48295 1.85591,2.45059 0.46807,0.96766 0.70212,2.15726 0.70214,3.56878 -2e-5,1.49094 -0.25392,2.89062 -0.76168,4.19904 -0.50781,1.30844 -1.2494,2.44648 -2.22477,3.41412 -0.97541,0.96766 -2.17299,1.72909 -3.59274,2.28432 -1.41979,0.55522 -3.03342,0.83283 -4.84091,0.83283 -2.20542,0 -4.21623,-0.40056 -6.03245,-1.20169 -1.81622,-0.80113 -3.36668,-1.88375 -4.65139,-3.24785 l 1.33312,-2.18847 c 0.12682,-0.17425 0.28148,-0.32093 0.46397,-0.44001 0.18249,-0.11908 0.38459,-0.17862 0.6063,-0.17862 0.33303,0 0.71375,0.17838 1.14215,0.53513 0.4284,0.35677 0.96377,0.74934 1.60614,1.17774 0.64235,0.4284 1.41952,0.82098 2.33151,1.17773 0.91197,0.35676 2.02629,0.53514 3.34296,0.53514 1.09398,0 2.06937,-0.15054 2.92619,-0.45164 0.85678,-0.30108 1.58264,-0.72537 2.17757,-1.27285 0.5949,-0.54747 1.05089,-1.20193 1.36797,-1.96338 0.31705,-0.76143 0.47558,-1.60975 0.4756,-2.54498 -2e-5,-1.03105 -0.23407,-1.87574 -0.70214,-2.53409 -0.46811,-0.65832 -1.08263,-1.20967 -1.84357,-1.65405 -0.76097,-0.44436 -1.62938,-0.82121 -2.60525,-1.13054 -0.97589,-0.30931 -1.97524,-0.62637 -2.99806,-0.95119 -1.02285,-0.3248 -2.02196,-0.7014 -2.99735,-1.12982 -0.9754,-0.42838 -1.84381,-0.9836 -2.60524,-1.66567 -0.76145,-0.68203 -1.37621,-1.53471 -1.8443,-2.55805 -0.4681,-1.0233 -0.70214,-2.28816 -0.70214,-3.7946 0,-1.2053 0.23404,-2.37117 0.70214,-3.49763 0.46809,-1.12639 1.14627,-2.12574 2.03453,-2.99806 0.88826,-0.87226 1.98661,-1.57004 3.29505,-2.09335 1.30842,-0.52324 2.8112,-0.78488 4.50835,-0.78492 1.90334,4e-5 3.64017,0.30137 5.2105,0.904 1.57029,0.6027 2.94262,1.47474 4.11699,2.61614 z"
         style="font-weight:normal;fill:#1a1a1a;fill-opacity:1;-inkscape-font-specification:Lato"
         id="path4585" />
      <path
         d="m 172.31745,750.78963 0,35.04741 -4.23461,0 0,-35.04741 z"
         style="font-weight:normal;fill:#1a1a1a;fill-opacity:1;-inkscape-font-specification:Lato"
         id="path4587" />
      <path
         d="m 189.32272,761.35439 c 1.44348,2e-5 2.77587,0.24181 3.99719,0.72537 1.22128,0.48361 2.27606,1.18139 3.16434,2.09335 0.88824,0.912 1.58215,2.03818 2.08173,3.37854 0.49953,1.3404 0.74931,2.86739 0.74934,4.58097 -3e-5,0.66609 -0.0714,1.11022 -0.2142,1.33239 -0.14283,0.2222 -0.41221,0.3333 -0.80815,0.33328 l -16.03665,0 c 0.0319,1.52289 0.23815,2.84729 0.61863,3.97322 0.38047,1.12595 0.90375,2.06577 1.56983,2.81945 0.66607,0.7537 1.45921,1.31691 2.37943,1.68964 0.9202,0.37273 1.95151,0.5591 3.09392,0.55909 1.06202,10e-6 1.97788,-0.12295 2.74756,-0.36885 0.76965,-0.24591 1.43209,-0.51166 1.98734,-0.79726 0.5552,-0.2856 1.01918,-0.55135 1.39193,-0.79726 0.37271,-0.2459 0.69365,-0.36885 0.96281,-0.36886 0.34947,10e-6 0.6191,0.13506 0.80888,0.40516 l 1.18935,1.54515 c -0.52282,0.63509 -1.1492,1.18645 -1.87915,1.65405 -0.72999,0.46761 -1.51128,0.8522 -2.34385,1.15378 -0.83261,0.30157 -1.69304,0.52763 -2.58129,0.67817 -0.88828,0.15055 -1.76855,0.22582 -2.64083,0.22582 -1.6652,0 -3.19969,-0.28148 -4.60347,-0.84445 -1.4038,-0.56297 -2.61736,-1.38758 -3.64067,-2.47383 -1.02332,-1.08624 -1.82058,-2.43049 -2.39177,-4.03276 -0.5712,-1.60225 -0.8568,-3.44219 -0.8568,-5.51981 0,-1.68164 0.25776,-3.25219 0.7733,-4.71167 0.51552,-1.45944 1.25711,-2.72455 2.22477,-3.79532 0.96764,-1.07074 2.14949,-1.91132 3.54555,-2.52175 1.39603,-0.61039 2.96635,-0.91559 4.71093,-0.91561 z m 0.0958,3.11642 c -2.04665,2e-5 -3.65689,0.59082 -4.83075,1.77241 -1.17387,1.18163 -1.9036,2.81946 -2.18919,4.91352 l 13.11047,0 c -2e-5,-0.98361 -0.13483,-1.88373 -0.40444,-2.70037 -0.26964,-0.8166 -0.66634,-1.52237 -1.19008,-2.1173 -0.52378,-0.5949 -1.16226,-1.05501 -1.91545,-1.38032 -0.75322,-0.32527 -1.61341,-0.48792 -2.58056,-0.48794 z"
         style="font-weight:normal;fill:#1a1a1a;fill-opacity:1;-inkscape-font-specification:Lato"
         id="path4589" />
      <path
         d="m 214.23087,761.35439 c 1.44347,2e-5 2.77586,0.24181 3.99718,0.72537 1.22128,0.48361 2.27606,1.18139 3.16434,2.09335 0.88824,0.912 1.58215,2.03818 2.08173,3.37854 0.49954,1.3404 0.74932,2.86739 0.74934,4.58097 -2e-5,0.66609 -0.0714,1.11022 -0.2142,1.33239 -0.14282,0.2222 -0.41221,0.3333 -0.80815,0.33328 l -16.03665,0 c 0.0319,1.52289 0.23815,2.84729 0.61864,3.97322 0.38047,1.12595 0.90374,2.06577 1.56982,2.81945 0.66607,0.7537 1.45921,1.31691 2.37943,1.68964 0.9202,0.37273 1.95151,0.5591 3.09392,0.55909 1.06203,10e-6 1.97788,-0.12295 2.74756,-0.36885 0.76965,-0.24591 1.4321,-0.51166 1.98734,-0.79726 0.5552,-0.2856 1.01918,-0.55135 1.39193,-0.79726 0.37271,-0.2459 0.69365,-0.36885 0.96281,-0.36886 0.34948,10e-6 0.6191,0.13506 0.80888,0.40516 l 1.18935,1.54515 c -0.52281,0.63509 -1.1492,1.18645 -1.87915,1.65405 -0.72999,0.46761 -1.51127,0.8522 -2.34385,1.15378 -0.83261,0.30157 -1.69304,0.52763 -2.58129,0.67817 -0.88827,0.15055 -1.76855,0.22582 -2.64082,0.22582 -1.6652,0 -3.1997,-0.28148 -4.60348,-0.84445 -1.4038,-0.56297 -2.61735,-1.38758 -3.64067,-2.47383 -1.02332,-1.08624 -1.82057,-2.43049 -2.39177,-4.03276 -0.5712,-1.60225 -0.8568,-3.44219 -0.8568,-5.51981 0,-1.68164 0.25777,-3.25219 0.7733,-4.71167 0.51553,-1.45944 1.25712,-2.72455 2.22477,-3.79532 0.96764,-1.07074 2.14949,-1.91132 3.54555,-2.52175 1.39604,-0.61039 2.96635,-0.91559 4.71094,-0.91561 z m 0.0958,3.11642 c -2.04664,2e-5 -3.65689,0.59082 -4.83074,1.77241 -1.17387,1.18163 -1.9036,2.81946 -2.1892,4.91352 l 13.11047,0 c -2e-5,-0.98361 -0.13483,-1.88373 -0.40444,-2.70037 -0.26964,-0.8166 -0.66633,-1.52237 -1.19008,-2.1173 -0.52377,-0.5949 -1.16226,-1.05501 -1.91545,-1.38032 -0.75322,-0.32527 -1.61341,-0.48792 -2.58056,-0.48794 z"
         style="font-weight:normal;fill:#1a1a1a;fill-opacity:1;-inkscape-font-specification:Lato"
         id="path4591" />
      <path
         d="m 229.59805,793.9984 0,-32.26354 2.52248,0 c 0.60217,3e-5 0.98265,0.29337 1.14143,0.88004 l 0.35724,2.85502 c 1.03105,-1.25274 2.20878,-2.25984 3.5332,-3.0213 1.3244,-0.76141 2.85114,-1.14213 4.58024,-1.14216 1.37958,3e-5 2.63258,0.26578 3.75902,0.79726 1.12641,0.53153 2.08607,1.31669 2.87899,2.35547 0.79288,1.03883 1.40353,2.32766 1.83195,3.86649 0.42838,1.53886 0.64258,3.3074 0.6426,5.30561 -2e-5,1.77654 -0.23794,3.43011 -0.71376,4.96072 -0.47586,1.53062 -1.15791,2.85503 -2.04615,3.97322 -0.88828,1.11819 -1.97888,1.99847 -3.2718,2.64082 -1.29296,0.64236 -2.74831,0.96354 -4.36605,0.96354 -1.49093,0 -2.76379,-0.24566 -3.81856,-0.73699 -1.05479,-0.49133 -1.98686,-1.18911 -2.79621,-2.09335 l 0,10.65915 z m 10.73031,-29.26619 c -1.3796,2e-5 -2.5888,0.31732 -3.62759,0.95191 -1.03882,0.63463 -1.99485,1.53088 -2.8681,2.68875 l 0,11.65827 c 0.7774,1.04752 1.63009,1.78524 2.55805,2.21315 0.92795,0.42792 1.96312,0.64188 3.10553,0.64187 2.23638,10e-6 3.95723,-0.80088 5.16258,-2.40266 1.2053,-1.60177 1.80797,-3.88584 1.80799,-6.85221 -2e-5,-1.5703 -0.13871,-2.91867 -0.41606,-4.0451 -0.27739,-1.12641 -0.67771,-2.05025 -1.20097,-2.77153 -0.52329,-0.72124 -1.16565,-1.24863 -1.92707,-1.58217 -0.76145,-0.3335 -1.62624,-0.50026 -2.59436,-0.50028 z"
         style="font-weight:normal;fill:#1a1a1a;fill-opacity:1;-inkscape-font-specification:Lato"
         id="path4593" />
      <path
         d="m 280.1448,751.43295 0,5.25842 -10.34984,0 0,29.14567 -6.39984,0 0,-29.14567 -10.39776,0 0,-5.25842 z"
         style=""
         id="path4595" />
      <path
         d="m 283.91471,785.83704 0,-24.4115 3.44897,0 c 0.60314,3e-5 1.02356,0.11112 1.26124,0.33328 0.23767,0.22221 0.3962,0.60293 0.4756,1.14216 l 0.35724,2.94942 c 0.87228,-1.5064 1.89535,-2.69575 3.06922,-3.56806 1.17385,-0.87226 2.49027,-1.30841 3.94926,-1.30843 1.20628,2e-5 2.20588,0.27739 2.9988,0.83211 l -0.76096,4.40162 c -0.0484,0.28562 -0.15177,0.48796 -0.31004,0.60702 -0.15831,0.1191 -0.37251,0.17864 -0.6426,0.17862 -0.23818,2e-5 -0.56347,-0.0557 -0.97588,-0.167 -0.41244,-0.11132 -0.95943,-0.16699 -1.64098,-0.167 -1.2218,1e-5 -2.26884,0.33717 -3.14111,1.01145 -0.8723,0.67433 -1.60954,1.66206 -2.21171,2.96322 l 0,15.20309 z"
         style=""
         id="path4597" />
      <path
         d="m 322.46773,785.83704 -2.6401,0 c -0.55573,0 -0.99211,-0.0833 -1.30916,-0.24978 -0.31708,-0.16652 -0.555,-0.50343 -0.71375,-1.01073 l -0.5228,-1.73684 c -0.61865,0.55475 -1.22543,1.0422 -1.82033,1.46237 -0.59493,0.42017 -1.2097,0.77306 -1.8443,1.05865 -0.63462,0.2856 -1.30868,0.4998 -2.02218,0.6426 -0.71353,0.1428 -1.50643,0.2142 -2.37871,0.2142 -1.03107,0 -1.98299,-0.13868 -2.85575,-0.41605 -0.87278,-0.27737 -1.62236,-0.69367 -2.24873,-1.2489 -0.62639,-0.55522 -1.11409,-1.24525 -1.4631,-2.07011 -0.34901,-0.82484 -0.52352,-1.78475 -0.52351,-2.87971 -1e-5,-0.91972 0.24203,-1.82759 0.7261,-2.7236 0.48406,-0.896 1.28906,-1.70488 2.41501,-2.42663 1.12593,-0.72173 2.62484,-1.32052 4.49673,-1.79637 1.87188,-0.47583 4.19564,-0.74569 6.97129,-0.8096 l 0,-1.42752 c -1e-5,-1.63322 -0.34515,-2.84242 -1.03542,-3.62759 -0.69029,-0.78514 -1.69328,-1.17772 -3.00896,-1.17774 -0.95168,2e-5 -1.74483,0.11087 -2.37943,0.33255 -0.63462,0.22173 -1.18597,0.47151 -1.65405,0.74934 -0.4681,0.27787 -0.90037,0.52789 -1.29682,0.75006 -0.39646,0.22221 -0.83284,0.3333 -1.30916,0.33328 -0.39597,2e-5 -0.73675,-0.10309 -1.02235,-0.30932 -0.2856,-0.20619 -0.51553,-0.46033 -0.68979,-0.7624 l -1.07027,-1.87915 c 2.80758,-2.5694 6.19411,-3.85412 10.15959,-3.85414 1.42702,2e-5 2.69963,0.23383 3.81784,0.70141 1.11817,0.46764 2.06598,1.11798 2.84341,1.95103 0.77739,0.8331 1.36819,1.82859 1.77241,2.98645 0.40417,1.15791 0.60627,2.42665 0.60629,3.80622 z m -11.4201,-3.66391 c 0.60313,10e-6 1.15836,-0.0557 1.66567,-0.167 0.50729,-0.11133 0.987,-0.27785 1.43913,-0.49956 0.4521,-0.22169 0.88849,-0.49519 1.30916,-0.82049 0.42064,-0.32529 0.84492,-0.71012 1.27285,-1.1545 l 0,-4.11554 c -1.71361,0.0794 -3.14523,0.22607 -4.29488,0.44002 -1.14967,0.21397 -2.07351,0.48747 -2.77152,0.82049 -0.69804,0.33305 -1.19372,0.72176 -1.48706,1.16612 -0.29335,0.44438 -0.44002,0.92797 -0.44001,1.45075 -1e-5,1.03107 0.30519,1.76879 0.91561,2.21315 0.6104,0.44438 1.40741,0.66657 2.39105,0.66656 z"
         style=""
         id="path4599" />
      <path
         d="m 345.40233,766.58812 c -0.17525,0.22269 -0.34613,0.39744 -0.51262,0.52424 -0.16654,0.12685 -0.40809,0.19026 -0.72465,0.19024 -0.30208,2e-5 -0.59591,-0.0912 -0.88149,-0.27374 -0.28562,-0.18247 -0.62664,-0.38869 -1.02307,-0.61864 -0.39647,-0.22991 -0.86819,-0.43612 -1.41517,-0.61863 -0.54701,-0.18248 -1.22519,-0.27372 -2.03454,-0.27374 -1.03107,2e-5 -1.93506,0.18638 -2.71198,0.55909 -0.77694,0.37275 -1.42317,0.90813 -1.93869,1.60614 -0.51554,0.69804 -0.90037,1.54273 -1.1545,2.53409 -0.25414,0.99138 -0.38121,2.11345 -0.3812,3.3662 -10e-6,1.30118 0.13892,2.45931 0.41678,3.47439 0.27785,1.01509 0.67841,1.86753 1.2017,2.55732 0.52326,0.6898 1.15763,1.21332 1.90311,1.57056 0.74545,0.35724 1.58627,0.53586 2.52247,0.53586 0.93617,0 1.69373,-0.1152 2.27269,-0.34562 0.57893,-0.23042 1.06663,-0.48431 1.46309,-0.76168 0.39644,-0.27737 0.74133,-0.53102 1.0347,-0.76096 0.29332,-0.22992 0.62249,-0.34489 0.98749,-0.34489 0.47534,0 0.83209,0.1825 1.07028,0.54748 l 1.6889,2.14054 c -0.64963,0.76192 -1.35516,1.40065 -2.11658,1.91618 -0.76145,0.51553 -1.55072,0.92795 -2.36781,1.23727 -0.81712,0.30932 -1.66182,0.52739 -2.53409,0.65422 -0.8723,0.12682 -1.73685,0.19024 -2.59363,0.19024 -1.50643,0 -2.92595,-0.28173 -4.25858,-0.84518 -1.33264,-0.56346 -2.49464,-1.38443 -3.48601,-2.46294 -0.99137,-1.07849 -1.77652,-2.39878 -2.35547,-3.96087 -0.57894,-1.56208 -0.86841,-3.34272 -0.86841,-5.34192 0,-1.792 0.25776,-3.45332 0.7733,-4.98395 0.51552,-1.53061 1.27309,-2.85501 2.27269,-3.97323 0.99959,-1.11817 2.23687,-1.99457 3.71182,-2.6292 1.47495,-0.63459 3.17184,-0.9519 5.09069,-0.95192 1.82492,2e-5 3.42331,0.29337 4.79517,0.88003 1.37183,0.58671 2.60523,1.42754 3.70021,2.52247 z"
         style=""
         id="path4601" />
      <path
         d="m 356.87327,750.48031 0,20.24803 1.0935,0 c 0.39693,2e-5 0.70649,-0.0554 0.92869,-0.16628 0.22217,-0.11083 0.46009,-0.31729 0.71375,-0.61936 l 6.0673,-7.49335 c 0.26912,-0.31753 0.55448,-0.56755 0.85607,-0.75007 0.30155,-0.18246 0.69825,-0.27371 1.19008,-0.27374 l 5.3775,0 -7.59066,9.06464 c -0.26915,0.33305 -0.54652,0.6385 -0.83211,0.91634 -0.28561,0.27787 -0.59493,0.5199 -0.92795,0.7261 0.33302,0.23817 0.62636,0.51579 0.88003,0.83284 0.25363,0.31707 0.50729,0.6581 0.76095,1.02307 l 8.13668,11.84851 -5.30489,0 c -0.45988,0 -0.84858,-0.0794 -1.16611,-0.23816 -0.31757,-0.15878 -0.60317,-0.4284 -0.8568,-0.80888 l -6.20961,-9.25487 c -0.23817,-0.36498 -0.47609,-0.6029 -0.71376,-0.71376 -0.23768,-0.11084 -0.59468,-0.16627 -1.07099,-0.16628 l -1.33167,0 0,11.18195 -5.87706,0 0,-35.35673 z"
         style=""
         id="path4603" />
    </g>
    <g
       style="stroke:#1a1a1a"
       transform="matrix(0.11043962,0.10350691,-0.10350691,0.11043962,741.12753,745.36982)"
       clip-path="url(#clipPath6711)"
       id="g4274"
       inkscape:export-filename="C:\Users\John\sleeptrack-square-colored.png"
       inkscape:export-xdpi="300"
       inkscape:export-ydpi="300">
      <path
         inkscape:connector-curvature="0"
         id="path4276"
         d="m 618.21338,636.17932 c 0,167.36756 -135.67822,303.04578 -303.04578,303.04578 -167.36756,0 -303.045774,-135.67822 -303.045774,-303.04578 0,-167.36756 135.678214,-303.04578 303.045774,-303.04578 167.36756,0 303.04578,135.67822 303.04578,303.04578 z"
         style="fill:none;stroke:#2586c8;stroke-width:39.37888336;stroke-miterlimit:4;stroke-opacity:1;stroke-dasharray:none"
         transform="translate(-1802.1121,-113.13708)" />
      <path
         inkscape:connector-curvature="0"
         id="path4278"
         d="m 618.21338,636.17932 c 0,167.36756 -135.67822,303.04578 -303.04578,303.04578 -167.36756,0 -303.045774,-135.67822 -303.045774,-303.04578 0,-167.36756 135.678214,-303.04578 303.045774,-303.04578 167.36756,0 303.04578,135.67822 303.04578,303.04578 z"
         style="fill:none;stroke:#2586c8;stroke-width:29.34460831;stroke-miterlimit:4;stroke-opacity:1;stroke-dasharray:none"
         transform="matrix(1.3419461,0,0,1.3419461,-1909.8824,-330.67615)" />
      <path
         inkscape:connector-curvature="0"
         id="path4280"
         d="m 618.21338,636.17932 c 0,167.36756 -135.67822,303.04578 -303.04578,303.04578 -167.36756,0 -303.045774,-135.67822 -303.045774,-303.04578 0,-167.36756 135.678214,-303.04578 303.045774,-303.04578 167.36756,0 303.04578,135.67822 303.04578,303.04578 z"
         style="fill:none;stroke:#2586c8;stroke-width:23.03907394;stroke-miterlimit:4;stroke-opacity:1;stroke-dasharray:none"
         transform="matrix(1.7092216,0,0,1.7092216,-2025.6357,-564.32922)" />
    </g>
    <path
       inkscape:connector-curvature="0"
       id="path4282"
       d="m 423.23406,580.10942 20.56095,0 -21.64312,22.72538 21.64312,0"
       style="fill:none;stroke:#2586c8;stroke-width:5.06641483;stroke-linecap:round;stroke-linejoin:round;stroke-miterlimit:4;stroke-opacity:1;stroke-dasharray:none;stroke-dashoffset:0"
       inkscape:export-filename="C:\Users\John\sleeptrack-square-colored.png"
       inkscape:export-xdpi="300"
       inkscape:export-ydpi="300" />
    <path
       transform="matrix(0.19481393,0,0,0.19481393,444.82808,546.80136)"
       style="fill:#80bde8;fill-opacity:1;stroke:none"
       d="m 618.21338,636.17932 c 0,167.36756 -135.67822,303.04578 -303.04578,303.04578 -167.36756,0 -303.045774,-135.67822 -303.045774,-303.04578 0,-167.36756 135.678214,-303.04578 303.045774,-303.04578 167.36756,0 303.04578,135.67822 303.04578,303.04578 z"
       id="path4284"
       inkscape:export-filename="C:\Users\John\sleeptrack-square-colored.png"
       inkscape:export-xdpi="300"
       inkscape:export-ydpi="300" />
    <path
       sodipodi:nodetypes="ccc"
       inkscape:connector-curvature="0"
       id="path4286"
       d="m 450.48606,675.8014 c 3.38703,76.28609 115.43834,68.77577 116.43909,0 -11.58898,42.33599 -87.80554,75.39273 -116.43909,0 z"
       style="fill:#26a2ad;fill-opacity:1;fill-rule:evenodd;stroke:none"
       inkscape:export-filename="C:\Users\John\sleeptrack-square-colored.png"
       inkscape:export-xdpi="300"
       inkscape:export-ydpi="300" />
    <path
       style="fill:#add5f0;fill-opacity:1;fill-rule:evenodd;stroke:none"
       d="m 450.48606,672.41272 c 3.38703,-82.88689 115.43834,-73.86555 116.43909,0 -11.58898,-42.33583 -87.80554,-75.39277 -116.43909,0 z"
       id="path4288"
       inkscape:connector-curvature="0"
       sodipodi:nodetypes="ccc"
       inkscape:export-filename="C:\Users\John\sleeptrack-square-colored.png"
       inkscape:export-xdpi="300"
       inkscape:export-ydpi="300" />
    <path
       transform="matrix(0.19481393,0,0,0.19481393,444.82808,546.80136)"
       style="fill:none;stroke:#2586c8;stroke-width:46.02884674;stroke-miterlimit:4;stroke-opacity:1"
       d="m 618.21338,636.17932 c 0,167.36756 -135.67822,303.04578 -303.04578,303.04578 -167.36756,0 -303.045774,-135.67822 -303.045774,-303.04578 0,-167.36756 135.678214,-303.04578 303.045774,-303.04578 167.36756,0 303.04578,135.67822 303.04578,303.04578 z"
       id="path4290"
       inkscape:export-filename="C:\Users\John\sleeptrack-square-colored.png"
       inkscape:export-xdpi="300"
       inkscape:export-ydpi="300" />
    <path
       inkscape:connector-curvature="0"
       id="path4292"
       d="m 440.5888,618.67341 10.50521,0 -11.05808,11.61109 11.05808,0"
       style="fill:none;stroke:#2586c8;stroke-width:4.470366;stroke-linecap:round;stroke-linejoin:round;stroke-miterlimit:4;stroke-opacity:1;stroke-dasharray:none;stroke-dashoffset:0"
       inkscape:export-filename="C:\Users\John\sleeptrack-square-colored.png"
       inkscape:export-xdpi="300"
       inkscape:export-ydpi="300" />
    <path
       style="fill:none;stroke:#2586c8;stroke-width:5.06641483;stroke-linecap:round;stroke-linejoin:round;stroke-miterlimit:4;stroke-opacity:1;stroke-dasharray:none;stroke-dashoffset:0"
       d="m 452.64642,592.86381 16.52603,0 -17.39545,18.26546 17.39545,0"
       id="path4294"
       inkscape:connector-curvature="0"
       inkscape:export-filename="C:\Users\John\sleeptrack-square-colored.png"
       inkscape:export-xdpi="300"
       inkscape:export-ydpi="300" />
    <g
       transform="matrix(2.7892973,0,0,2.7892973,188.93388,-1005.3475)"
       id="g4296"
       inkscape:export-filename="C:\Users\John\sleeptrack-square-colored.png"
       inkscape:export-xdpi="300"
       inkscape:export-ydpi="300">
      <path
         style="fill:none;stroke:#2586c8;stroke-width:2.7861681;stroke-linecap:round;stroke-linejoin:round;stroke-miterlimit:4;stroke-opacity:1;stroke-dasharray:none"
         d="m 98.889801,599.50816 c 0,3.13997 2.545439,5.68542 5.685409,5.68542 3.13997,0 5.68541,-2.54545 5.68541,-5.68542"
         id="path4298"
         inkscape:connector-curvature="0"
         sodipodi:nodetypes="csc" />
      <path
         sodipodi:nodetypes="csc"
         inkscape:connector-curvature="0"
         id="path4300"
         d="m 117.24693,599.50816 c 0,3.13997 2.54545,5.68542 5.68542,5.68542 3.13997,0 5.68541,-2.54545 5.68541,-5.68542"
         style="fill:none;stroke:#2586c8;stroke-width:2.7861681;stroke-linecap:round;stroke-linejoin:round;stroke-miterlimit:4;stroke-opacity:1;stroke-dasharray:none" />
    </g>
    <path
       sodipodi:nodetypes="cc"
       inkscape:connector-curvature="0"
       id="path4302"
       d="m 486.30364,701.3039 c 11.3886,7.96803 26.27959,8.39838 39.84691,0"
       style="fill:none;stroke:#2586c8;stroke-width:7.77145147;stroke-linecap:round;stroke-linejoin:round;stroke-miterlimit:4;stroke-opacity:1;stroke-dasharray:none;stroke-dashoffset:0"
       inkscape:export-filename="C:\Users\John\sleeptrack-square-colored.png"
       inkscape:export-xdpi="300"
       inkscape:export-ydpi="300" />
    <g
       style="font-size:49.79256058px;font-style:normal;font-variant:normal;font-weight:bold;font-stretch:normal;text-align:center;line-height:231.99999332%;letter-spacing:0px;word-spacing:-1.38312638px;text-anchor:middle;fill:#3598dc;fill-opacity:1;stroke:none;font-family:Lato;-inkscape-font-specification:Lato Bold"
       id="text4304"
       inkscape:export-filename="C:\Users\John\sleeptrack-square-colored.png"
       inkscape:export-xdpi="300"
       inkscape:export-ydpi="300">
      <path
         d="m 413.47478,755.35922 c -0.14995,0.24924 -0.30773,0.43589 -0.47334,0.55995 -0.16565,0.12413 -0.38168,0.18618 -0.64809,0.18615 -0.28164,3e-5 -0.6091,-0.14104 -0.98238,-0.42319 -0.37333,-0.2821 -0.84641,-0.59336 -1.41926,-0.93377 -0.57289,-0.34035 -1.26175,-0.6516 -2.06659,-0.93376 -0.80487,-0.2821 -1.78017,-0.42316 -2.92589,-0.42319 -1.07889,3e-5 -2.03317,0.1454 -2.86283,0.43611 -0.82968,0.29077 -1.5226,0.68509 -2.07874,1.18296 -0.55616,0.49794 -0.97531,1.08297 -1.25743,1.75508 -0.28213,0.67218 -0.4232,1.39827 -0.42319,2.17828 -10e-6,0.99583 0.24489,1.82145 0.7347,2.47686 0.48979,0.65545 1.13712,1.21566 1.94198,1.68062 0.80485,0.465 1.71759,0.86768 2.73823,1.20804 1.02062,0.3404 2.06632,0.69319 3.13711,1.05837 1.07076,0.36521 2.11646,0.776 3.1371,1.23235 1.02061,0.45639 1.93336,1.03306 2.73823,1.73001 0.80483,0.69698 1.45216,1.55172 1.94198,2.56423 0.48978,1.01254 0.73468,2.25731 0.73471,3.73429 -3e-5,1.56008 -0.2657,3.02467 -0.79701,4.39378 -0.53136,1.36912 -1.30734,2.55993 -2.32795,3.57246 -1.02065,1.01252 -2.27377,1.80927 -3.75936,2.39025 -1.48563,0.58097 -3.1741,0.87146 -5.06541,0.87146 -2.3077,0 -4.41177,-0.41915 -6.31221,-1.25743 -1.90045,-0.83828 -3.52282,-1.9711 -4.86711,-3.39847 l 1.39495,-2.28996 c 0.1327,-0.18234 0.29453,-0.33581 0.48549,-0.46042 0.19095,-0.1246 0.40242,-0.1869 0.63441,-0.18691 0.34848,10e-6 0.74686,0.18666 1.19513,0.55996 0.44826,0.37331 1.00846,0.78409 1.68062,1.23235 0.67214,0.44827 1.48535,0.85906 2.43963,1.23235 0.95427,0.37331 2.12027,0.55996 3.498,0.55996 1.14472,0 2.16534,-0.15752 3.06189,-0.47258 0.89652,-0.31505 1.65604,-0.75901 2.27857,-1.33189 0.62249,-0.57286 1.09962,-1.25767 1.43141,-2.05442 0.33175,-0.79675 0.49763,-1.68442 0.49765,-2.66301 -2e-5,-1.07887 -0.24492,-1.96274 -0.7347,-2.65162 -0.48982,-0.68884 -1.13284,-1.26577 -1.92907,-1.73076 -0.79626,-0.46497 -1.70495,-0.85929 -2.72607,-1.18297 -1.02115,-0.32365 -2.06685,-0.65541 -3.1371,-0.9953 -1.07028,-0.33986 -2.11573,-0.73393 -3.13635,-1.18221 -1.02064,-0.44825 -1.92933,-1.02922 -2.72607,-1.74292 -0.79676,-0.71366 -1.44003,-1.60589 -1.92983,-2.67669 -0.4898,-1.07075 -0.7347,-2.39428 -0.7347,-3.97058 0,-1.2612 0.2449,-2.48114 0.7347,-3.65983 0.4898,-1.17863 1.19943,-2.22433 2.12889,-3.13711 0.92945,-0.91271 2.07873,-1.64285 3.44785,-2.19043 1.36911,-0.54751 2.94159,-0.82128 4.71744,-0.82131 1.99161,3e-5 3.80899,0.31534 5.45214,0.94592 1.64312,0.63064 3.07909,1.54313 4.30792,2.73746 z"
         style="font-weight:normal;fill:#80bde8;fill-opacity:1;-inkscape-font-specification:Lato"
         id="path4562" />
      <path
         d="m 425.78768,748.78565 0,36.67279 -4.431,0 0,-36.67279 z"
         style="font-weight:normal;fill:#80bde8;fill-opacity:1;-inkscape-font-specification:Lato"
         id="path4564" />
      <path
         d="m 443.58159,759.84037 c 1.51042,2e-5 2.9046,0.25303 4.18256,0.75901 1.27792,0.50604 2.38162,1.23618 3.31109,2.19043 0.92944,0.9543 1.65553,2.13271 2.17828,3.53523 0.5227,1.40256 0.78406,3.00037 0.78408,4.79342 -2e-5,0.69698 -0.0747,1.16171 -0.22413,1.39418 -0.14945,0.23251 -0.43132,0.34875 -0.84563,0.34874 l -16.78037,0 c 0.0334,1.59351 0.2492,2.97934 0.64733,4.15748 0.39811,1.17817 0.94565,2.16157 1.64263,2.95021 0.69696,0.78865 1.52688,1.37798 2.48978,1.76799 0.96287,0.39002 2.04201,0.58503 3.2374,0.58503 1.11128,0 2.0696,-0.12865 2.87498,-0.38597 0.80534,-0.2573 1.49851,-0.53538 2.0795,-0.83423 0.58096,-0.29884 1.06645,-0.57692 1.45649,-0.83423 0.39,-0.25731 0.72582,-0.38596 1.00746,-0.38597 0.36568,10e-6 0.64781,0.14133 0.84639,0.42396 l 1.24451,1.6168 c -0.54706,0.66455 -1.20249,1.24147 -1.9663,1.73076 -0.76384,0.4893 -1.58136,0.89172 -2.45255,1.20728 -0.87122,0.31556 -1.77155,0.55211 -2.70099,0.70963 -0.92948,0.15753 -1.85058,0.23629 -2.7633,0.23629 -1.74243,0 -3.34808,-0.29454 -4.81697,-0.88362 -1.46891,-0.58907 -2.73874,-1.45192 -3.80951,-2.58855 -1.07078,-1.13661 -1.90501,-2.54321 -2.50269,-4.21978 -0.5977,-1.67656 -0.89654,-3.60183 -0.89654,-5.77581 0,-1.75962 0.26972,-3.40301 0.80916,-4.93017 0.53944,-1.52713 1.31542,-2.85091 2.32795,-3.97134 1.01252,-1.12039 2.24918,-1.99995 3.70998,-2.6387 1.46078,-0.63869 3.10392,-0.95805 4.92941,-0.95807 z m 0.10029,3.26095 c -2.14156,2e-5 -3.82648,0.61822 -5.05478,1.85461 -1.22831,1.23642 -1.99188,2.95022 -2.29072,5.14139 l 13.71849,0 c -2e-5,-1.02922 -0.14109,-1.97109 -0.4232,-2.8256 -0.28215,-0.85447 -0.69724,-1.59297 -1.24527,-2.2155 -0.54807,-0.62249 -1.21616,-1.10393 -2.00428,-1.44433 -0.78816,-0.34036 -1.68823,-0.51055 -2.70024,-0.51057 z"
         style="font-weight:normal;fill:#80bde8;fill-opacity:1;-inkscape-font-specification:Lato"
         id="path4566" />
      <path
         d="m 469.64488,759.84037 c 1.51042,2e-5 2.9046,0.25303 4.18256,0.75901 1.27792,0.50604 2.38162,1.23618 3.3111,2.19043 0.92943,0.9543 1.65552,2.13271 2.17827,3.53523 0.5227,1.40256 0.78406,3.00037 0.78409,4.79342 -3e-5,0.69698 -0.0747,1.16171 -0.22414,1.39418 -0.14944,0.23251 -0.43132,0.34875 -0.84562,0.34874 l -16.78038,0 c 0.0334,1.59351 0.2492,2.97934 0.64733,4.15748 0.39811,1.17817 0.94566,2.16157 1.64263,2.95021 0.69696,0.78865 1.52688,1.37798 2.48978,1.76799 0.96288,0.39002 2.04201,0.58503 3.2374,0.58503 1.11128,0 2.06961,-0.12865 2.87499,-0.38597 0.80534,-0.2573 1.4985,-0.53538 2.0795,-0.83423 0.58095,-0.29884 1.06645,-0.57692 1.45648,-0.83423 0.39,-0.25731 0.72582,-0.38596 1.00746,-0.38597 0.36569,10e-6 0.64782,0.14133 0.84639,0.42396 l 1.24451,1.6168 c -0.54706,0.66455 -1.20249,1.24147 -1.96629,1.73076 -0.76385,0.4893 -1.58137,0.89172 -2.45255,1.20728 -0.87123,0.31556 -1.77156,0.55211 -2.701,0.70963 -0.92947,0.15753 -1.85057,0.23629 -2.7633,0.23629 -1.74243,0 -3.34808,-0.29454 -4.81697,-0.88362 -1.4689,-0.58907 -2.73874,-1.45192 -3.80951,-2.58855 -1.07077,-1.13661 -1.90501,-2.54321 -2.50269,-4.21978 -0.59769,-1.67656 -0.89654,-3.60183 -0.89653,-5.77581 -10e-6,-1.75962 0.26971,-3.40301 0.80915,-4.93017 0.53944,-1.52713 1.31542,-2.85091 2.32795,-3.97134 1.01252,-1.12039 2.24918,-1.99995 3.70998,-2.6387 1.46078,-0.63869 3.10392,-0.95805 4.92941,-0.95807 z m 0.1003,3.26095 c -2.14157,2e-5 -3.82649,0.61822 -5.05478,1.85461 -1.22831,1.23642 -1.99188,2.95022 -2.29072,5.14139 l 13.71848,0 c -2e-5,-1.02922 -0.14108,-1.97109 -0.42319,-2.8256 -0.28215,-0.85447 -0.69724,-1.59297 -1.24527,-2.2155 -0.54807,-0.62249 -1.21617,-1.10393 -2.00429,-1.44433 -0.78815,-0.34036 -1.68823,-0.51055 -2.70023,-0.51057 z"
         style="font-weight:normal;fill:#80bde8;fill-opacity:1;-inkscape-font-specification:Lato"
         id="path4568" />
      <path
         d="m 485.72475,793.9983 0,-33.75981 2.63945,0 c 0.6301,3e-5 1.02822,0.30697 1.19437,0.92085 l 0.3738,2.98743 c 1.07888,-1.31084 2.31123,-2.36465 3.69707,-3.16142 1.38581,-0.79673 2.98336,-1.1951 4.79265,-1.19513 1.44355,3e-5 2.75467,0.27811 3.93335,0.83424 1.17864,0.55618 2.18281,1.37774 3.01251,2.4647 0.82965,1.08701 1.46862,2.43561 1.91691,4.0458 0.44824,1.61023 0.67237,3.46079 0.6724,5.55167 -3e-5,1.85893 -0.24898,3.58918 -0.74686,5.19078 -0.49793,1.60161 -1.21161,2.98743 -2.14104,4.15748 -0.92948,1.17006 -2.07066,2.09116 -3.42355,2.7633 -1.35292,0.67215 -2.87576,1.00822 -4.56852,1.00822 -1.56008,0 -2.89196,-0.25706 -3.99565,-0.77117 -1.10371,-0.51411 -2.07901,-1.24425 -2.92589,-2.19043 l 0,11.15349 z m 11.22794,-30.62346 c -1.44359,2e-5 -2.70886,0.33204 -3.79583,0.99606 -1.087,0.66407 -2.08737,1.60188 -3.00111,2.81345 l 0,12.19893 c 0.81345,1.09611 1.70568,1.86804 2.67668,2.31579 0.97098,0.44777 2.05417,0.67165 3.24956,0.67164 2.34009,10e-6 4.14075,-0.83802 5.40199,-2.51409 1.26121,-1.67605 1.89182,-4.06605 1.89184,-7.16999 -2e-5,-1.64312 -0.14514,-3.05402 -0.43535,-4.2327 -0.29026,-1.17865 -0.70914,-2.14533 -1.25667,-2.90006 -0.54756,-0.75469 -1.21971,-1.30654 -2.01644,-1.65555 -0.79677,-0.34896 -1.70166,-0.52346 -2.71467,-0.52348 z"
         style="font-weight:normal;fill:#80bde8;fill-opacity:1;-inkscape-font-specification:Lato"
         id="path4570" />
      <path
         d="m 538.61567,749.45881 0,5.50229 -10.82982,0 0,30.49734 -6.69665,0 0,-30.49734 -10.87997,0 0,-5.50229 z"
         style=""
         id="path4572" />
      <path
         d="m 542.56041,785.45844 0,-25.54361 3.60893,0 c 0.63111,2e-5 1.07102,0.11627 1.31972,0.34873 0.24869,0.23252 0.41458,0.63089 0.49766,1.19513 l 0.3738,3.0862 c 0.91274,-1.57625 1.98326,-2.82076 3.21157,-3.73353 1.22829,-0.91272 2.60576,-1.36909 4.13241,-1.36911 1.26222,2e-5 2.30818,0.29026 3.13787,0.8707 l -0.79624,4.60575 c -0.0507,0.29886 -0.15882,0.51059 -0.32443,0.63517 -0.16565,0.12462 -0.38978,0.18693 -0.6724,0.18691 -0.24922,2e-5 -0.5896,-0.0582 -1.02113,-0.17475 -0.43157,-0.11648 -1.00394,-0.17473 -1.71709,-0.17475 -1.27846,2e-5 -2.37406,0.35281 -3.28679,1.05836 -0.91275,0.7056 -1.68417,1.73915 -2.31427,3.10064 l 0,15.90816 z"
         style=""
         id="path4574" />
      <path
         d="m 582.90138,785.45844 -2.76253,0 c -0.5815,0 -1.03813,-0.0871 -1.36988,-0.26137 -0.33178,-0.17424 -0.58074,-0.52677 -0.74686,-1.0576 l -0.54703,-1.81738 c -0.64735,0.58047 -1.28226,1.09053 -1.90476,1.53018 -0.62252,0.43966 -1.26579,0.80891 -1.92982,1.10775 -0.66406,0.29885 -1.36938,0.52298 -2.11597,0.6724 -0.74662,0.14943 -1.57629,0.22414 -2.48902,0.22414 -1.07889,0 -2.07495,-0.14512 -2.9882,-0.43535 -0.91325,-0.29024 -1.69759,-0.72584 -2.35302,-1.30682 -0.65543,-0.58097 -1.16575,-1.30301 -1.53094,-2.16611 -0.3652,-0.8631 -0.5478,-1.86752 -0.5478,-3.01327 0,-0.96237 0.25326,-1.91234 0.75978,-2.84991 0.50651,-0.93755 1.34884,-1.78394 2.527,-2.53916 1.17815,-0.75521 2.74658,-1.38177 4.70529,-1.87969 1.95868,-0.49789 4.39021,-0.78027 7.29459,-0.84714 l 0,-1.49372 c -2e-5,-1.70897 -0.36117,-2.97424 -1.08344,-3.79583 -0.72231,-0.82155 -1.77181,-1.23233 -3.1485,-1.23236 -0.99583,3e-5 -1.82575,0.11602 -2.48978,0.34798 -0.66406,0.23201 -1.24098,0.49337 -1.73077,0.78409 -0.48981,0.29076 -0.94213,0.55237 -1.35696,0.78484 -0.41484,0.23251 -0.87146,0.34876 -1.36987,0.34874 -0.41434,2e-5 -0.77092,-0.10787 -1.06976,-0.32366 -0.29885,-0.21576 -0.53945,-0.48168 -0.72179,-0.79777 l -1.1199,-1.96629 c 2.93778,-2.68856 6.48137,-4.03286 10.63076,-4.03288 1.49319,2e-5 2.82482,0.24467 3.99489,0.73394 1.17003,0.48932 2.16179,1.16982 2.97527,2.04151 0.81345,0.87174 1.43165,1.91339 1.85461,3.12495 0.42292,1.21161 0.63439,2.53919 0.63441,3.98274 z m -11.94972,-3.83383 c 0.6311,1e-5 1.21208,-0.0582 1.74292,-0.17474 0.53081,-0.1165 1.03277,-0.29074 1.50587,-0.52273 0.47307,-0.23198 0.9297,-0.51816 1.36987,-0.85854 0.44015,-0.34038 0.88411,-0.74306 1.33189,-1.20804 l 0,-4.3064 c -1.79308,0.0831 -3.2911,0.23655 -4.49407,0.46042 -1.20298,0.22389 -2.16967,0.51007 -2.90005,0.85854 -0.73041,0.3485 -1.24908,0.75523 -1.55602,1.2202 -0.30696,0.46499 -0.46043,0.971 -0.46043,1.51803 0,1.07889 0.31936,1.85082 0.95808,2.31579 0.63871,0.46499 1.47269,0.69748 2.50194,0.69747 z"
         style=""
         id="path4576" />
      <path
         d="m 606.89961,765.31682 c -0.18338,0.23302 -0.36218,0.41587 -0.5364,0.54856 -0.17426,0.13273 -0.42701,0.19908 -0.75825,0.19906 -0.31609,2e-5 -0.62354,-0.0955 -0.92237,-0.28644 -0.29886,-0.19093 -0.6557,-0.40671 -1.07052,-0.64732 -0.41486,-0.24058 -0.90845,-0.45635 -1.4808,-0.64733 -0.57238,-0.19094 -1.28201,-0.28641 -2.12889,-0.28644 -1.07889,3e-5 -2.02481,0.19503 -2.83775,0.58503 -0.81297,0.39004 -1.48917,0.95024 -2.0286,1.68062 -0.53945,0.73042 -0.94213,1.61429 -1.20804,2.65161 -0.26593,1.03736 -0.39889,2.21147 -0.39888,3.52232 -10e-6,1.36152 0.14536,2.57336 0.43611,3.63552 0.29073,1.06217 0.70987,1.95414 1.25742,2.67592 0.54754,0.72179 1.21133,1.26959 1.99137,1.64339 0.78002,0.37382 1.65984,0.56072 2.63946,0.56072 0.97958,0 1.77228,-0.12055 2.37809,-0.36166 0.60578,-0.24109 1.11609,-0.50676 1.53094,-0.797 0.41482,-0.29023 0.77571,-0.55564 1.08268,-0.79624 0.30693,-0.24059 0.65136,-0.36089 1.0333,-0.3609 0.49737,10e-6 0.87068,0.19097 1.1199,0.57287 l 1.76724,2.23982 c -0.67977,0.79726 -1.41802,1.4656 -2.21474,2.00504 -0.79677,0.53944 -1.62265,0.97099 -2.47763,1.29466 -0.85501,0.32366 -1.73888,0.55185 -2.65161,0.68455 -0.91276,0.13271 -1.81739,0.19906 -2.71391,0.19906 -1.57629,0 -3.06165,-0.29479 -4.45608,-0.88437 -1.39444,-0.58959 -2.61034,-1.44864 -3.64767,-2.57716 -1.03735,-1.12851 -1.85892,-2.51003 -2.46471,-4.14457 -0.6058,-1.63451 -0.90869,-3.49773 -0.90869,-5.58965 0,-1.87511 0.26972,-3.61347 0.80916,-5.21509 0.53943,-1.60159 1.33213,-2.98741 2.37809,-4.15749 1.04595,-1.17003 2.3406,-2.08707 3.88397,-2.75114 1.54334,-0.66402 3.31893,-0.99604 5.32677,-0.99606 1.90955,2e-5 3.58207,0.30697 5.01755,0.92084 1.43545,0.61392 2.72605,1.49374 3.87181,2.63946 z"
         style=""
         id="path4578" />
      <path
         d="m 618.90252,748.46199 0,21.18706 1.14422,0 c 0.41533,2e-5 0.73925,-0.058 0.97175,-0.17398 0.23248,-0.11598 0.48143,-0.33201 0.74686,-0.64809 l 6.34867,-7.84087 c 0.28161,-0.33225 0.5802,-0.59387 0.89578,-0.78485 0.31554,-0.19093 0.73063,-0.28641 1.24527,-0.28643 l 5.62688,0 -7.94268,9.48502 c -0.28164,0.3485 -0.57187,0.66811 -0.8707,0.95883 -0.29886,0.29076 -0.62252,0.54402 -0.97099,0.75978 0.34847,0.24922 0.65542,0.5397 0.92085,0.87146 0.26539,0.33178 0.53081,0.68862 0.79624,1.07052 l 8.51403,12.398 -5.55091,0 c -0.48121,0 -0.88794,-0.0831 -1.2202,-0.24921 -0.33229,-0.16614 -0.63113,-0.44827 -0.89653,-0.84639 l -6.49759,-9.68408 c -0.24922,-0.3819 -0.49817,-0.63086 -0.74686,-0.74686 -0.24871,-0.11598 -0.62226,-0.17398 -1.12066,-0.17399 l -1.39343,0 0,11.70053 -6.14961,0 0,-36.99645 z"
         style=""
         id="path4580" />
    </g>
  </g>
</svg>
