G04 ================== begin FILE IDENTIFICATION RECORD ==================*
G04 Layout Name:  C:/Users/Madison/Desktop/gc/Photon_Dev/Photon_4Layer_shrunk.brd*
G04 Film Name:    SleepTrack_V1_Silkscreen_Top*
G04 File Format:  Gerber RS274X*
G04 File Origin:  Cadence Allegro 17.0-P009*
G04 Origin Date:  Fri Dec 18 22:17:58 2015*
G04 *
G04 Layer:  USER PART NUMBER/SILKSCREEN_TOP*
G04 Layer:  TOLERANCE/SILKSCREEN_TOP*
G04 Layer:  REF DES/SILKSCREEN_TOP*
G04 Layer:  PACKAGE GEOMETRY/SILKSCREEN_TOP*
G04 Layer:  DEVICE TYPE/SILKSCREEN_TOP*
G04 Layer:  COMPONENT VALUE/SILKSCREEN_TOP*
G04 Layer:  BOARD GEOMETRY/SILKSCREEN_TOP*
G04 *
G04 Offset:    (0.00 0.00)*
G04 Mirror:    No*
G04 Mode:      Positive*
G04 Rotation:  0*
G04 FullContactRelief:  No*
G04 UndefLineWidth:     0.00*
G04 ================== end FILE IDENTIFICATION RECORD ====================*
%FSLAX25Y25*MOIN*%
%IR0*IPPOS*OFA0.00000B0.00000*MIA0B0*SFA1.00000B1.00000*%
G75*
%LPD*%
G75*
G36*
G01X-49704Y87058D02*
Y96901D01*
X-22538D01*
Y87058D01*
X-49704D01*
G37*
G36*
G01X-31805Y-82242D02*
X8353D01*
Y-97990D01*
X-8773D01*
Y-107833D01*
X-14679D01*
Y-97990D01*
X-31805D01*
Y-82242D01*
G37*
G36*
G01X-10249Y86811D02*
Y96654D01*
X16917D01*
Y86811D01*
X-10249D01*
G37*
G36*
G01X9675Y65635D02*
X12675Y61635D01*
X15675Y65635D01*
X9675D01*
G37*
G36*
G01X56396Y-111167D02*
X56397Y-98765D01*
X55708Y-98076D01*
X33464D01*
X32775Y-98765D01*
X32774Y-111167D01*
X33463Y-111856D01*
X55707D01*
X56396Y-111167D01*
G37*
G36*
G01X24263Y-98005D02*
X65011D01*
X67275Y-95741D01*
X67276Y-45151D01*
X65012Y-42887D01*
X24264D01*
X22000Y-45151D01*
X21999Y-95741D01*
X24263Y-98005D01*
G37*
G36*
G01X40311Y50905D02*
X36311Y47905D01*
X40311Y44905D01*
Y50905D01*
G37*
G36*
G01X83048Y6220D02*
Y46378D01*
X98796D01*
Y29252D01*
X108639D01*
Y23346D01*
X98796D01*
Y6220D01*
X83048D01*
G37*
G36*
G01X-40629Y-95832D02*
X-75669Y-95831D01*
X-75668Y-57879D01*
X-40628Y-57880D01*
X-40629Y-95832D01*
G37*
M02*
