G04 ================== begin FILE IDENTIFICATION RECORD ==================*
G04 Layout Name:  C:/Users/Madison/Desktop/gc/Photon_Dev/Photon_4Layer_shrunk.brd*
G04 Film Name:    SleepTrack_V1_GROUND*
G04 File Format:  Gerber RS274X*
G04 File Origin:  Cadence Allegro 17.0-P009*
G04 Origin Date:  Fri Dec 18 22:18:30 2015*
G04 *
G04 Layer:  ETCH/GROUND*
G04 Layer:  PIN/GROUND*
G04 Layer:  VIA CLASS/GROUND*
G04 *
G04 Offset:    (0.00 0.00)*
G04 Mirror:    No*
G04 Mode:      Negative*
G04 Rotation:  0*
G04 FullContactRelief:  Yes*
G04 UndefLineWidth:     10.00*
G04 ================== end FILE IDENTIFICATION RECORD ====================*
%FSLAX25Y25*MOIN*%
%IR0*IPPOS*OFA0.00000B0.00000*MIA0B0*SFA1.00000B1.00000*%
%ADD10C,.03*%
%AMMACRO12*
21,1,.03937,.04528,0.0,0.0,89.999*
1,1,.04528,0.0,.019685*
1,1,.04528,0.0,-.019685*%
%ADD12MACRO12*%
%ADD11C,.075*%
%AMMACRO14*
21,1,.03937,.04528,0.0,0.0,179.999*
1,1,.04528,-.019685,0.0*
1,1,.04528,.019685,0.0*%
%ADD14MACRO14*%
%ADD13O,.04528X.08465*%
%ADD15C,.15004*%
%ADD16R,.78742X.43704*%
G75*
%LPD*%
G75*
G36*
G01X-110000Y-110000D02*
X110000D01*
Y110000D01*
X-110000D01*
Y-110000D01*
G37*
%LPC*%
G75*
G36*
G01X-90500Y-99499D02*
G02X-99499Y-90500I0J8999D01*
G01Y90500D01*
G02X-90500Y99499I8999J0D01*
G01X90500D01*
G02X99499Y90500I0J-8999D01*
G01Y-90500D01*
G02X90500Y-99499I-8999J0D01*
G01X-90500D01*
G37*
%LPD*%
G75*
G54D15*
X-90000Y-90000D03*
Y90000D03*
X90000Y-90000D03*
Y90000D03*
G54D16*
X-53859Y49296D03*
G54D10*
X-97045Y3640D03*
X-91572Y73541D03*
X-83655Y-79651D03*
X-82940Y-62205D03*
X-72891Y17693D03*
X-74120Y14268D03*
X-72423Y82004D03*
X-48204Y-24713D03*
X-48711Y14157D03*
X-62543Y72696D03*
X-56004Y85562D03*
X-52793Y79612D03*
X-59735Y81354D03*
X-62400Y91936D03*
X-42679Y-76830D03*
X-33111Y-52897D03*
X-34645Y-69602D03*
X-30472Y-66313D03*
X-25688Y-51402D03*
X-42679Y-43394D03*
X-32344Y-30329D03*
X-36621Y-24713D03*
X-43784Y-29835D03*
X-36998Y-20167D03*
X-40976Y16848D03*
X-32981Y17381D03*
X-28841Y17687D03*
X-36998Y17381D03*
X-44902Y16679D03*
X-28444Y83967D03*
X-5337Y-42690D03*
X-7514Y-50128D03*
X-24373Y-41899D03*
X-22958Y-23985D03*
X-23881Y-10478D03*
X-4316Y-9204D03*
X-10001Y-22100D03*
X-4004Y6240D03*
X-10686Y-776D03*
X-23452Y18369D03*
X-5408Y44265D03*
X-11715Y65465D03*
X-11297Y57447D03*
X-4992Y80028D03*
X17277Y-73515D03*
X12435Y-48341D03*
X10193Y-43353D03*
X-1768Y-40690D03*
X18499Y-50674D03*
X16641Y-8626D03*
X8296Y4240D03*
X2379Y12207D03*
X12727Y24955D03*
X10504Y51298D03*
X14235Y75075D03*
X13982Y84339D03*
X39169Y-38688D03*
X20641Y-33600D03*
X28509Y-31993D03*
X28080Y6487D03*
X32175Y1625D03*
X27664Y-5798D03*
X23881Y19032D03*
X30909Y41891D03*
X24687Y52377D03*
X29341Y63337D03*
X26546Y59449D03*
X42510Y-21671D03*
X50128Y-29588D03*
X54704Y-18642D03*
X60996Y19054D03*
X72000Y-57259D03*
X79976Y-58825D03*
X64545Y5889D03*
X77259Y26832D03*
X66534Y77909D03*
X90142Y-17056D03*
X92452Y-3068D03*
G54D11*
X-11726Y-90116D03*
X-21726D03*
X94003Y-66501D03*
Y-46501D03*
X90922Y26299D03*
Y16299D03*
X92716Y66609D03*
G54D12*
X24814Y-63182D03*
X62216Y-82080D03*
G54D14*
X44499Y-95859D03*
X61034Y-52159D03*
G54D13*
X36546Y94575D03*
X62176D03*
M02*
