G04 ================== begin FILE IDENTIFICATION RECORD ==================*
G04 Layout Name:  C:/Users/Madison/Desktop/gc/Photon_Dev/Photon_4Layer_shrunk.brd*
G04 Film Name:    SleepTrack_V1_TOP*
G04 File Format:  Gerber RS274X*
G04 File Origin:  Cadence Allegro 17.0-P009*
G04 Origin Date:  Fri Dec 18 22:17:58 2015*
G04 *
G04 Layer:  ETCH/TOP*
G04 Layer:  PIN/TOP*
G04 Layer:  VIA CLASS/TOP*
G04 *
G04 Offset:    (0.00 0.00)*
G04 Mirror:    No*
G04 Mode:      Positive*
G04 Rotation:  0*
G04 FullContactRelief:  No*
G04 UndefLineWidth:     0.00*
G04 ================== end FILE IDENTIFICATION RECORD ====================*
%FSLAX25Y25*MOIN*%
%IR0*IPPOS*OFA0.00000B0.00000*MIA0B0*SFA1.00000B1.00000*%
%ADD45R,.0315X.1063*%
%ADD29C,.06*%
%ADD12C,.024*%
%AMMACRO25*
4,1,6,.03536,.0348,
.0348,.03535,
-.0348,.03536,
-.07015,0.0,
0.0,-.07015,
.03535,-.0348,
.03536,.0348,
0.0*
%
%ADD25MACRO25*%
%AMMACRO24*
4,1,6,.0348,-.03536,
.03535,-.0348,
.03536,.0348,
0.0,.07015,
-.07015,0.0,
-.0348,-.03535,
.0348,-.03536,
0.0*
%
%ADD24MACRO24*%
%AMMACRO17*
4,1,6,-.03536,-.0348,
-.0348,-.03535,
.0348,-.03536,
.07015,0.0,
0.0,.07015,
-.03535,.0348,
-.03536,-.0348,
0.0*
%
%ADD17MACRO17*%
%AMMACRO36*
21,1,.03937,.03937,0.0,0.0,89.999*
1,1,.03937,0.0,.019685*
1,1,.03937,0.0,-.019685*%
%ADD36MACRO36*%
%ADD21C,.03937*%
%ADD15R,.04724X.04724*%
%ADD44R,.00984X.02362*%
%ADD40R,.12598X.05512*%
%ADD31R,.00906X.02953*%
%AMMACRO16*
21,1,.04,.03,0.0,0.0,179.999*%
%ADD16MACRO16*%
%ADD23R,.03X.04*%
%ADD28R,.04X.03*%
%AMMACRO37*
21,1,.04,.03,0.0,0.0,.001*%
%ADD37MACRO37*%
%ADD38R,.04X.025*%
%ADD34R,.05X.025*%
%ADD10C,.135*%
%ADD27R,.03543X.05*%
%ADD26R,.0315X.04724*%
%AMMACRO42*
21,1,.03937,.03937,0.0,0.0,179.999*
1,1,.03937,-.019685,0.0*
1,1,.03937,.019685,0.0*%
%ADD42MACRO42*%
%AMMACRO18*
4,1,6,-.0348,.03536,
-.03535,.0348,
-.03536,-.0348,
0.0,-.07015,
.07015,0.0,
.0348,.03535,
-.0348,.03536,
0.0*
%
%ADD18MACRO18*%
%ADD14R,.04724X.02362*%
%ADD22R,.05709X.0315*%
%ADD19R,.02362X.04724*%
%ADD43R,.01575X.05512*%
%ADD11R,.06693X.04331*%
%ADD30R,.03937X.03543*%
%ADD33R,.02559X.01457*%
%ADD13R,.01969X.02362*%
%AMMACRO20*
21,1,.04,.03,0.0,0.0,89.999*%
%ADD20MACRO20*%
%ADD32R,.05906X.0689*%
%ADD41O,.03937X.07874*%
%ADD35R,.0689X.06299*%
%ADD39R,.06299X.0689*%
%ADD46C,.006*%
G75*
%LPD*%
G75*
G54D10*
X-90000Y-90000D03*
Y90000D03*
X90000Y-90000D03*
Y90000D03*
G54D20*
X-77077Y93818D03*
Y87818D03*
X-7566Y4410D03*
Y10410D03*
X53222Y6763D03*
Y12763D03*
G54D11*
X-92794Y-77446D03*
Y-62486D03*
G54D30*
X-9668Y-34272D03*
Y-27972D03*
X-11280Y26893D03*
Y33193D03*
X6080Y-34272D03*
Y-27972D03*
X4468Y26893D03*
Y33193D03*
G54D21*
X-58097Y-51181D03*
X-52936Y-43160D03*
X-46566Y-43173D03*
X-57239Y74555D03*
X-51116Y83746D03*
X18499Y-63635D03*
X19955Y-17784D03*
X34333Y69251D03*
X34268Y63336D03*
X78390Y49127D03*
Y55991D03*
G54D12*
X-90670Y-55346D03*
X-94929Y1068D03*
X-97045Y3640D03*
X-95629Y20753D03*
X-91572Y73541D03*
X-83655Y-79651D03*
X-82940Y-62205D03*
X-85056Y-16468D03*
X-85163Y7345D03*
X-72891Y17693D03*
X-74120Y14268D03*
X-81874Y74477D03*
X-72423Y82004D03*
X-48204Y-24713D03*
X-65670Y16400D03*
X-48711Y14157D03*
X-62543Y72696D03*
X-58591Y90558D03*
X-56004Y85562D03*
X-52793Y79612D03*
X-59735Y81354D03*
X-62400Y91936D03*
X-42679Y-76830D03*
X-33111Y-52897D03*
X-34645Y-69602D03*
X-30472Y-66313D03*
X-25688Y-51402D03*
X-42679Y-43394D03*
X-37453Y-31538D03*
X-32344Y-30329D03*
X-36621Y-24713D03*
X-43784Y-29835D03*
X-36998Y-20167D03*
X-40976Y16848D03*
X-32981Y17381D03*
X-28841Y17687D03*
X-36998Y17381D03*
X-44902Y16679D03*
X-28444Y83967D03*
X-6006Y-55250D03*
X-12051Y-38922D03*
X-5337Y-42690D03*
X-7514Y-50128D03*
X-24373Y-41899D03*
X-23296Y-17498D03*
X-22958Y-23985D03*
X-23881Y-10478D03*
X-4316Y-9204D03*
X-10001Y-22100D03*
X-22464Y-6474D03*
X-4004Y6240D03*
X-10686Y-776D03*
X-23452Y18369D03*
X-10361Y39000D03*
X-5408Y44265D03*
X-11715Y65465D03*
X-11297Y57447D03*
X-3458Y89557D03*
X-4992Y80028D03*
X13728Y-84474D03*
X17277Y-73515D03*
X12435Y-48341D03*
X10193Y-43353D03*
X-1768Y-40690D03*
X18499Y-50674D03*
X1859Y-17238D03*
X16641Y-8626D03*
X8296Y4240D03*
X2379Y12207D03*
X12727Y24955D03*
X-910Y44291D03*
X10504Y51298D03*
X14235Y75075D03*
X13982Y84339D03*
X39650Y-54249D03*
X39169Y-38688D03*
X20641Y-33600D03*
X28509Y-31993D03*
X27768Y2262D03*
X28080Y6487D03*
X32175Y1625D03*
X27664Y-5798D03*
X23881Y19032D03*
X40248Y30927D03*
X30909Y41891D03*
X24687Y52377D03*
X29341Y63337D03*
X26546Y59449D03*
X38389Y79456D03*
X45292Y-72553D03*
X42510Y-21671D03*
X50128Y-29588D03*
X54704Y-18642D03*
X57278Y-3393D03*
X60729Y3660D03*
X57096Y11362D03*
X60996Y19054D03*
X48763Y21112D03*
X72000Y-57259D03*
X79976Y-58825D03*
X72202Y-40833D03*
X72930Y-21957D03*
X72689Y4842D03*
X64545Y5889D03*
X77259Y26832D03*
X80379Y38896D03*
X66430Y44031D03*
X66534Y77909D03*
X90766Y-12506D03*
X90142Y-17056D03*
X92452Y-3068D03*
G54D13*
X-93024Y-42531D03*
X-89284Y-51979D03*
X-85544Y-42531D03*
G54D22*
X-49219Y88129D03*
X-22645D03*
X-9764Y87882D03*
X16810D03*
G54D31*
X2269Y-54542D03*
X4829D03*
X2269Y-44700D03*
X4829D03*
G54D40*
X33613Y84929D03*
X65109D03*
G54D41*
X36546Y94575D03*
X62176D03*
G54D32*
X3549Y-49621D03*
G54D14*
X-90867Y-34365D03*
Y-30428D03*
Y-26491D03*
Y-22554D03*
Y-18617D03*
Y-14680D03*
Y-10743D03*
Y-6806D03*
Y-2869D03*
Y1068D03*
Y5005D03*
Y8942D03*
Y12879D03*
Y16816D03*
Y20753D03*
X-16851Y-34365D03*
Y-10743D03*
Y-14680D03*
Y-18617D03*
Y-22554D03*
Y-26491D03*
Y-30428D03*
Y8942D03*
Y5005D03*
Y1068D03*
Y-2869D03*
Y-6806D03*
Y20753D03*
Y16816D03*
Y12879D03*
G54D23*
X-65988Y93844D03*
Y87844D03*
X-7566Y-14336D03*
Y-8336D03*
X14287Y-34239D03*
Y-28239D03*
X24557Y-34239D03*
X32669Y-11736D03*
X24557Y-28239D03*
X32669Y-5736D03*
X19383Y23267D03*
Y17267D03*
X42510Y-11736D03*
X53222D03*
X42510Y-5736D03*
X53222D03*
X47970Y73343D03*
Y67343D03*
X59540Y73590D03*
Y67590D03*
X65065Y14823D03*
Y20823D03*
G54D33*
X-2357Y-53460D03*
Y-50901D03*
Y-48341D03*
Y-45782D03*
X9455D03*
Y-48341D03*
Y-50901D03*
Y-53460D03*
G54D42*
X44499Y-95859D03*
X61034Y-52159D03*
G54D15*
X-89765Y67683D03*
X-55828Y-17436D03*
X-67639D03*
X-55828Y-5625D03*
Y6186D03*
X-67639Y-5625D03*
Y6186D03*
X-44016Y-17436D03*
Y-5625D03*
Y6186D03*
X-17953Y67683D03*
G54D24*
X-40627Y-94378D03*
G54D43*
X44243Y84142D03*
X46802D03*
X49361D03*
X51920D03*
X54479D03*
G54D34*
X2561Y-10776D03*
Y4224D03*
Y-776D03*
Y-5776D03*
X22061Y-10776D03*
Y-776D03*
Y4224D03*
Y-5776D03*
G54D16*
X-92817Y77116D03*
X-69150Y-46904D03*
X-75150D03*
X-86817Y77116D03*
X15408Y80613D03*
X21408D03*
G54D25*
X-40627Y-59334D03*
G54D35*
X12675Y56233D03*
Y71037D03*
G54D26*
X-39098Y-42287D03*
X-34768D03*
Y-48193D03*
X-39098D03*
G54D44*
X69045Y-9651D03*
X67076D03*
X65108D03*
X63139D03*
Y-203D03*
X65108D03*
X67076D03*
X69045D03*
G54D17*
X-75671Y-94378D03*
G54D18*
Y-59334D03*
G54D27*
X-27664Y95550D03*
X-44200D03*
X-4745Y95303D03*
X11791D03*
G54D36*
X34656Y-69875D03*
X24814Y-63182D03*
X62216Y-82080D03*
G54D45*
X86214Y-27911D03*
X94876D03*
G54D46*
G01X-83655Y-79651D02*
X-85860Y-77446D01*
X-92794D01*
G01Y-62486D02*
Y-44742D01*
X-93024Y-44512D01*
Y-42531D01*
G01X-73019Y-91726D02*
X-75671Y-94378D01*
X-79547Y-90502D01*
Y-78699D01*
X-92794Y-65452D01*
Y-62486D01*
G01X-90867Y1068D02*
X-94929D01*
G01X-94497Y5005D02*
X-94696Y5204D01*
Y12279D01*
X-94096Y12879D01*
X-90867D01*
G01X-94497Y5005D02*
X-90867D01*
G01X-97045Y3640D02*
X-95680Y5005D01*
X-94497D01*
G01X-90867Y20753D02*
X-95629D01*
G01X-91572Y73541D02*
X-92817Y74786D01*
Y77116D01*
G01X-44701Y-90304D02*
X-71597D01*
X-73019Y-91726D01*
G01X-89284Y-51979D02*
Y-53960D01*
X-90670Y-55346D01*
G01X-73019Y-61986D02*
Y-61895D01*
X-75335Y-59579D01*
X-80314D01*
X-82940Y-62205D01*
G01X-78322Y-61986D02*
X-73019D01*
G01X-75150Y-46904D02*
X-81367D01*
X-85544Y-42727D01*
Y-42531D01*
G01X-90867Y-34365D02*
X-89686D01*
X-85056Y-29735D01*
Y-24450D01*
G01X-90867Y-26491D02*
X-87097D01*
X-85056Y-24450D01*
G01D02*
Y-16468D01*
G01X-85163Y7345D02*
X-86760Y8942D01*
X-90867D01*
G01Y16816D02*
Y12879D01*
G01X-73544Y22722D02*
Y18346D01*
X-72891Y17693D01*
G01X-74120Y14268D02*
X-77481Y17629D01*
Y22722D01*
G01X-81874Y74477D02*
Y74973D01*
X-84017Y77116D01*
X-86817D01*
G01X-77077Y87818D02*
Y85018D01*
X-74063Y82004D01*
X-72423D01*
G01X-62426Y74555D02*
X-64974D01*
X-72423Y82004D01*
G01X-65988Y93844D02*
X-68288D01*
X-68314Y93818D01*
X-77077D01*
G01X-49922Y-36727D02*
Y-40146D01*
X-52936Y-43160D01*
G01X-49922Y-36727D02*
Y-25824D01*
X-50204Y-25542D01*
Y-23884D01*
X-49922Y-23602D01*
Y-23342D01*
X-55828Y-17436D01*
G01X-69150Y-46904D02*
X-62374D01*
X-58097Y-51181D01*
G01X-69150Y-46904D02*
Y-43852D01*
X-65670Y-40372D01*
Y-36727D01*
G01X-55828Y-17436D02*
X-44016D01*
G01X-67639Y-5625D02*
Y-17436D01*
G01X-55828D02*
X-67639D01*
G01X-55828Y-5625D02*
Y-17436D01*
G01X-36621Y-24713D02*
X-48204D01*
G01X-67639Y-5625D02*
X-55828D01*
G01X-67639Y6186D02*
X-55828D01*
G01X-67639D02*
Y14431D01*
X-65670Y16400D01*
G01X-67639Y-5625D02*
Y6186D01*
G01X-55828D02*
Y-5625D01*
G01X-44016Y6186D02*
X-55828D01*
G01X-65670Y16400D02*
Y22722D01*
G01X-49922D02*
Y15368D01*
X-48711Y14157D01*
G01X-57239Y74555D02*
X-62426D01*
G01X-62543Y72696D02*
Y74438D01*
X-62426Y74555D01*
G01X-65988Y87844D02*
X-61305D01*
X-58591Y90558D01*
G01D02*
X-53599Y95550D01*
X-44200D01*
G01X-53985Y83746D02*
X-54188D01*
X-56004Y85562D01*
G01X-51116Y83746D02*
X-53985D01*
G01X-52793Y79612D02*
X-52208Y79027D01*
X-48347D01*
X-44012Y74692D01*
X-14762D01*
X-11128Y71058D01*
X-6250D01*
G01X-62400Y91936D02*
Y92556D01*
X-63688Y93844D01*
X-65988D01*
G01X-25688Y-51402D02*
Y-75920D01*
X-26598Y-76830D01*
X-42679D01*
G01X-44701Y-90304D02*
X-43279Y-91726D01*
G01X-44701Y-90304D02*
Y-63408D01*
X-43279Y-61986D01*
G01X-34645Y-69602D02*
Y-54192D01*
X-35111Y-53726D01*
Y-52068D01*
X-34768Y-51725D01*
Y-48193D01*
G01X-30472Y-66313D02*
X-30992Y-65793D01*
Y-42600D01*
X-26300Y-37908D01*
Y-36727D01*
G01X-39098Y-42287D02*
X-41572D01*
X-42679Y-43394D01*
G01X-33111Y-52897D02*
X-32192Y-51978D01*
Y-42488D01*
X-32393Y-42287D01*
X-34768D01*
G01X-37453Y-31538D02*
X-38111Y-32196D01*
Y-36727D01*
G01X-46566Y-43173D02*
X-41546Y-48193D01*
X-39098D01*
G01X-45985Y-36727D02*
X-42048D01*
G01X-43784Y-29835D02*
X-42048Y-31571D01*
Y-36727D01*
G01X-46566Y-43173D02*
Y-40456D01*
X-46163Y-40053D01*
Y-36905D01*
X-45985Y-36727D01*
G01X-32344Y-30329D02*
X-34174Y-32159D01*
Y-36727D01*
G01X-44016Y-5625D02*
Y-17436D01*
G01X-36998Y-20167D02*
Y17381D01*
G01X-44016Y6186D02*
Y-5625D01*
G01X-26300Y22722D02*
Y19560D01*
X-25109Y18369D01*
X-23452D01*
G01X-42048Y22722D02*
Y17920D01*
X-40976Y16848D01*
G01X-34174Y22722D02*
Y18574D01*
X-32981Y17381D01*
G01X-30237Y22722D02*
Y19083D01*
X-28841Y17687D01*
G01X-38111Y22722D02*
Y18494D01*
X-36998Y17381D01*
G01X-45985Y22722D02*
Y17762D01*
X-44902Y16679D01*
G01X-36228Y80314D02*
Y78014D01*
X-36127Y77913D01*
Y76702D01*
X-35527Y76102D01*
X-24713D01*
X-20787Y80028D01*
X-4992D01*
G01X-30228Y80314D02*
Y83060D01*
X-29321Y83967D01*
X-28444D01*
G01X-27664Y95550D02*
X-31122D01*
X-36228Y90444D01*
Y80314D01*
G01X-6006Y-55250D02*
Y-52470D01*
X-4437Y-50901D01*
X-2357D01*
G01X6080Y-34272D02*
X-9668D01*
G01X-12051Y-38922D02*
X-11746D01*
X-9668Y-36844D01*
Y-34272D01*
G01X-20113Y-26491D02*
Y-42690D01*
X-5337D01*
G01X-7514Y-50128D02*
X-5727Y-48341D01*
X-2357D01*
G01X-22363Y-36727D02*
Y-39889D01*
X-24373Y-41899D01*
G01X-23296Y-17498D02*
X-22177Y-18617D01*
X-16851D01*
G01X-22464Y-6474D02*
Y-8292D01*
X-20013Y-10743D01*
X-16851D01*
G01Y-22554D02*
X-21527D01*
X-22958Y-23985D01*
G01X-20113Y-26491D02*
X-25281D01*
X-25881Y-25891D01*
Y730D01*
X-20462Y6149D01*
Y19493D01*
X-20113Y19842D01*
Y22307D01*
X-19586Y22834D01*
X-17121D01*
X-14189Y25766D01*
Y65465D01*
X-11715D01*
G01X-16851Y-26491D02*
X-20113D01*
G01X-16851Y-14680D02*
X-10210D01*
X-9866Y-14336D01*
X-7566D01*
G01X-23881Y-10478D02*
Y-10812D01*
X-20013Y-14680D01*
X-16851D01*
G01X6080Y-27972D02*
X-9668D01*
G01X-16851Y-30428D02*
X-12124D01*
X-9668Y-27972D01*
G01X-10001Y-22100D02*
X9865D01*
X10465Y-21500D01*
Y18595D01*
X11315Y19445D01*
Y20922D01*
X12727Y22334D01*
Y24955D01*
G01X-7566Y4410D02*
X-5266D01*
X-4004Y5672D01*
Y6240D01*
G01X2561Y-5776D02*
X-839D01*
Y-4826D01*
X-13589D01*
Y5005D01*
X-16851D01*
G01X-7566Y-8336D02*
X-5184D01*
X-4316Y-9204D01*
G01X2561Y-776D02*
X-10686D01*
G01X-7566Y10410D02*
X-2941D01*
X8915Y22266D01*
Y50058D01*
X6461Y52512D01*
Y89245D01*
X11791Y94575D01*
Y95303D01*
G01X-16851Y12879D02*
X-12335D01*
X-9866Y10410D01*
X-7566D01*
G01X-11280Y33193D02*
X4468D01*
G01X-10361Y39000D02*
X-11280Y38081D01*
Y33193D01*
G01X4468Y26893D02*
X-11280D01*
G01D02*
Y24321D01*
X-9113Y22154D01*
Y18252D01*
X-10549Y16816D01*
X-16851D01*
G01X-5408Y44265D02*
X-5585D01*
X-6185Y44865D01*
Y48100D01*
G01X-11297Y57447D02*
Y58448D01*
X-10270Y59475D01*
X-6185D01*
G01X-3458Y89557D02*
X-4745Y90844D01*
Y95303D01*
G01X13728Y-84474D02*
X8086Y-90116D01*
X-1726D01*
G01X17277Y-73515D02*
X14989D01*
X-2301Y-56225D01*
Y-55045D01*
X-2357Y-54989D01*
Y-53460D01*
G01X14287Y-34239D02*
X11987D01*
X11954Y-34272D01*
X6080D01*
G01X9455Y-53460D02*
X11535D01*
X19127Y-45868D01*
X31989D01*
X39169Y-38688D01*
G01X12435Y-48341D02*
X9455D01*
G01Y-50901D02*
Y-48341D01*
G01X20641Y-33600D02*
Y-43353D01*
X10193D01*
G01X32669Y-11736D02*
Y-14536D01*
X32799Y-14666D01*
Y-37700D01*
X25831Y-44668D01*
X15795D01*
X14681Y-45782D01*
X9455D01*
G01X-1768Y-40690D02*
Y-43664D01*
X-2357Y-44253D01*
Y-45782D01*
G01X1859Y-17238D02*
X2561Y-16536D01*
Y-10776D01*
G01X35285Y5681D02*
X34785D01*
X30433Y10033D01*
X16715D01*
X11665Y4983D01*
Y-9000D01*
X13441Y-10776D01*
X22061D01*
G01X6080Y-27972D02*
X11720D01*
X11987Y-28239D01*
X14287D01*
G01X24557D02*
X14287D01*
G01X8296Y4240D02*
X5877D01*
X5861Y4224D01*
X2561D01*
G01X16641Y-8626D02*
X27861D01*
Y-8836D01*
X59104D01*
Y-45690D01*
X79976D01*
Y-58825D01*
G01X4527Y33134D02*
X4468Y33193D01*
G01X10504Y51298D02*
Y49298D01*
X10116Y48910D01*
Y24286D01*
X10115Y24285D01*
Y19943D01*
X2379Y12207D01*
G01X-185Y48100D02*
Y59475D01*
G01X-910Y44291D02*
X-185Y45016D01*
Y48100D01*
G01Y59475D02*
Y61775D01*
X-250Y61840D01*
Y71058D01*
G01X30909Y47905D02*
X25248D01*
X16920Y56233D01*
X12675D01*
G01X14235Y75075D02*
Y72597D01*
X12675Y71037D01*
G01X15408Y80613D02*
Y82913D01*
X13982Y84339D01*
G01X24814Y-63182D02*
X21722D01*
X21269Y-63635D01*
X18499D01*
G01D02*
Y-50674D01*
G01X28509Y-31993D02*
Y-32587D01*
X26857Y-34239D01*
X24557D01*
G01X19955Y-17784D02*
X22061Y-15678D01*
Y-10776D01*
G01X27768Y2262D02*
Y1631D01*
X25361Y-776D01*
X22061D01*
G01X33211Y15620D02*
Y13526D01*
X35765Y10972D01*
X44447D01*
X48656Y6763D01*
X53222D01*
G01X22061Y4224D02*
X25817D01*
X28080Y6487D01*
G01X32175Y1625D02*
Y-2442D01*
X32669Y-2936D01*
Y-5736D01*
G01X27664Y-5798D02*
X25383D01*
X25361Y-5776D01*
X22061D01*
G01X19383Y17267D02*
X22116D01*
X23881Y19032D01*
G01X33211Y23120D02*
X21830D01*
X21683Y23267D01*
X19383D01*
G01X35311Y34528D02*
Y27270D01*
X33211Y25170D01*
Y23120D01*
G01X30909Y47905D02*
Y41891D01*
G01D02*
X35311Y37489D01*
Y34528D01*
G01X21408Y80613D02*
Y55656D01*
X24687Y52377D01*
G01X59540Y67590D02*
Y62816D01*
X57837Y61113D01*
X40768D01*
X38545Y63336D01*
X34268D01*
G01D02*
X29340D01*
X29341Y63337D01*
G01X26546Y59449D02*
Y67756D01*
X28041Y69251D01*
X34333D01*
G01X47970Y67343D02*
X39011D01*
X37103Y69251D01*
X34333D01*
G01X46802Y84142D02*
Y80586D01*
X45672Y79456D01*
X38389D01*
G01X42510Y-11736D02*
Y-21671D01*
G01X54704Y-18642D02*
X53222Y-17160D01*
Y-11736D01*
G01X57278Y-3393D02*
Y-3980D01*
X55522Y-5736D01*
X53222D01*
G01X63139Y-203D02*
Y1250D01*
X60729Y3660D01*
G01X57096Y11362D02*
X55695Y12763D01*
X53222D01*
G01X42510Y-5736D02*
Y2156D01*
X41285Y3381D01*
Y5681D01*
G01X65065Y14823D02*
X62398D01*
X60048Y17173D01*
X47996D01*
X46443Y15620D01*
X43411D01*
G01X40248Y30927D02*
X41311Y31990D01*
Y34528D01*
G01X48763Y21112D02*
X47021Y19370D01*
X43411D01*
G01Y23120D02*
X44161D01*
X50011Y28970D01*
Y38831D01*
X45713Y43129D01*
Y47905D01*
G01D02*
X58485D01*
X58511Y47931D01*
X61311D01*
G01X59540Y73590D02*
X59254Y73876D01*
Y75931D01*
X58654Y76531D01*
X55250D01*
X51920Y79861D01*
Y84142D01*
G01X49361D02*
Y77534D01*
X47970Y76143D01*
Y73343D01*
G01X66534Y77909D02*
X64831Y79612D01*
X55250D01*
X54479Y80383D01*
Y84142D01*
G01X94003Y-66501D02*
X87652D01*
X79976Y-58825D01*
G01X71172Y-17771D02*
Y-21070D01*
X72059Y-21957D01*
X72930D01*
G01X65108Y-9651D02*
Y-15407D01*
X65172Y-15471D01*
Y-17771D01*
G01X69045Y-203D02*
Y1198D01*
X72689Y4842D01*
G01X65108Y-203D02*
X65130Y-225D01*
G01X65108Y-203D02*
Y5326D01*
X64545Y5889D01*
G01X67389Y35776D02*
X71318D01*
X73073Y34021D01*
Y9581D01*
X67076Y3584D01*
Y-203D01*
G01X65065Y20823D02*
X62765D01*
X60996Y19054D01*
G01X77259Y26832D02*
Y42588D01*
X78390Y43719D01*
Y49127D01*
G01X80379Y38896D02*
X82976Y36299D01*
X90922D01*
G01X66430Y44031D02*
X67311Y44912D01*
Y47931D01*
G01X78390Y55991D02*
X67071D01*
X61311Y50231D01*
Y47931D01*
G01D02*
Y38154D01*
X61389Y38076D01*
Y35776D01*
G01X78390Y55991D02*
X82098D01*
X92716Y66609D01*
G01X86214Y-27911D02*
Y-43315D01*
X89400Y-46501D01*
X94003D01*
G01X95645Y-13286D02*
X91546D01*
X90766Y-12506D01*
G01X86214Y-27911D02*
Y-19855D01*
X85445Y-19086D01*
Y-17036D01*
G01X95645Y-9536D02*
X98445D01*
X98956Y-10047D01*
Y-26206D01*
X97251Y-27911D01*
X94876D01*
G01X90142Y-17056D02*
X92825D01*
X92845Y-17036D01*
X95645D01*
G01X87545Y325D02*
Y12922D01*
X90922Y16299D01*
G01X87545Y325D02*
Y-5386D01*
X85445Y-7486D01*
Y-9536D01*
G01X93545Y325D02*
Y-1975D01*
X92452Y-3068D01*
G54D19*
X-69607Y-36727D03*
X-73544D03*
X-77481D03*
X-81418D03*
X-85355D03*
Y22722D03*
X-81418D03*
X-77481D03*
X-73544D03*
X-69607D03*
X-49922Y-36727D03*
X-53859D03*
X-57796D03*
X-61733D03*
X-65670D03*
Y22722D03*
X-61733D03*
X-57796D03*
X-53859D03*
X-49922D03*
X-26300Y-36727D03*
X-30237D03*
X-34174D03*
X-38111D03*
X-42048D03*
X-45985D03*
Y22722D03*
X-42048D03*
X-38111D03*
X-34174D03*
X-30237D03*
X-26300D03*
X-22363Y-36727D03*
Y22722D03*
G54D37*
X35285Y5681D03*
X41285D03*
G54D28*
X-30228Y80314D03*
X-36228D03*
X-6185Y48100D03*
Y59475D03*
X-6250Y71058D03*
X-185Y48100D03*
Y59475D03*
X-250Y71058D03*
X35311Y34528D03*
X41311D03*
X61389Y35776D03*
X61311Y47931D03*
X65172Y-17771D03*
X71172D03*
X67389Y35776D03*
X67311Y47931D03*
X87545Y325D03*
X93545D03*
G54D38*
X33211Y23120D03*
Y15620D03*
X43411D03*
Y19370D03*
Y23120D03*
X95645Y-17036D03*
Y-13286D03*
Y-9536D03*
X85445D03*
Y-17036D03*
G54D29*
X-1726Y-90116D03*
X-11726D03*
X-21726D03*
X94003Y-66501D03*
Y-56501D03*
Y-46501D03*
X90922Y36299D03*
Y26299D03*
Y16299D03*
X92716Y66609D03*
Y76609D03*
G54D39*
X30909Y47905D03*
X45713D03*
M02*
