G04 ================== begin FILE IDENTIFICATION RECORD ==================*
G04 Layout Name:  C:/Users/Madison/Desktop/gc/Photon_Dev/Photon_4Layer_shrunk.brd*
G04 Film Name:    SleepTrack_V1_Pastemask_Top*
G04 File Format:  Gerber RS274X*
G04 File Origin:  Cadence Allegro 17.0-P009*
G04 Origin Date:  Sat Jan 16 11:21:11 2016*
G04 *
G04 Layer:  PIN/SOLDERMASK_TOP*
G04 Layer:  DRC ERROR CLASS/SOLDERMASK_TOP*
G04 *
G04 Offset:    (0.00 0.00)*
G04 Mirror:    No*
G04 Mode:      Positive*
G04 Rotation:  0*
G04 FullContactRelief:  No*
G04 UndefLineWidth:     10.00*
G04 ================== end FILE IDENTIFICATION RECORD ====================*
%FSLAX25Y25*MOIN*%
%IR0*IPPOS*OFA0.00000B0.00000*MIA0B0*SFA1.00000B1.00000*%
%ADD31R,.0749X.06899*%
%ADD35R,.06899X.0749*%
%AMMACRO18*
21,1,.046,.036,0.0,0.0,89.999*%
%ADD18MACRO18*%
%ADD27C,.07*%
%ADD41R,.0375X.1123*%
%ADD40C,.075*%
%AMMACRO32*
21,1,.03937,.04528,0.0,0.0,89.999*
1,1,.04528,0.0,.019685*
1,1,.04528,0.0,-.019685*%
%ADD32MACRO32*%
%ADD19C,.04537*%
%ADD13R,.05324X.05324*%
%AMMACRO16*
4,1,6,-.03535,.03904,
-.03904,.03536,
-.03904,-.03535,
0.0,-.07439,
.07439,0.0,
.03536,.03904,
-.03535,.03904,
0.0*
%
%ADD16MACRO16*%
%AMMACRO14*
21,1,.046,.036,0.0,0.0,179.999*%
%ADD14MACRO14*%
%ADD34R,.046X.031*%
%ADD30R,.055X.03*%
%ADD21R,.036X.046*%
%ADD26R,.046X.036*%
%AMMACRO37*
21,1,.03937,.04528,0.0,0.0,179.999*
1,1,.04528,-.019685,0.0*
1,1,.04528,.019685,0.0*%
%ADD37MACRO37*%
%AMMACRO33*
21,1,.046,.036,0.0,0.0,.001*%
%ADD33MACRO33*%
%ADD25R,.04143X.056*%
%ADD38R,.02175X.06112*%
%ADD24R,.0375X.05324*%
%ADD28R,.04537X.04143*%
%ADD29R,.03159X.02057*%
%ADD12R,.05324X.02962*%
%ADD20R,.06309X.0375*%
%ADD17R,.02962X.05324*%
%AMMACRO23*
4,1,6,.03904,.03535,
.03536,.03904,
-.03535,.03904,
-.07439,0.0,
0.0,-.07439,
.03904,-.03536,
.03904,.03535,
0.0*
%
%ADD23MACRO23*%
%AMMACRO22*
4,1,6,.03535,-.03904,
.03904,-.03536,
.03904,.03535,
0.0,.07439,
-.07439,0.0,
-.03536,-.03904,
.03535,-.03904,
0.0*
%
%ADD22MACRO22*%
%AMMACRO15*
4,1,6,-.03904,-.03535,
-.03536,-.03904,
.03535,-.03904,
.07439,0.0,
0.0,.07439,
-.03904,.03536,
-.03904,-.03535,
0.0*
%
%ADD15MACRO15*%
%ADD39R,.01584X.02962*%
%ADD10R,.07293X.04931*%
%ADD36O,.04528X.08465*%
%ADD11R,.02569X.02962*%
%LPD*%
G75*
G54D10*
X-92794Y-77446D03*
Y-62486D03*
G54D11*
X-93024Y-42531D03*
X-89284Y-51979D03*
X-85544Y-42531D03*
G54D20*
X-49219Y88129D03*
X-22645D03*
X-9764Y87882D03*
X16810D03*
G54D12*
X-90867Y-34365D03*
Y-30428D03*
Y-26491D03*
Y-22554D03*
Y-18617D03*
Y-14680D03*
Y-10743D03*
Y-6806D03*
Y-2869D03*
Y1068D03*
Y5005D03*
Y8942D03*
Y12879D03*
Y16816D03*
Y20753D03*
X-16851Y-34365D03*
Y-10743D03*
Y-14680D03*
Y-18617D03*
Y-22554D03*
Y-26491D03*
Y-30428D03*
Y8942D03*
Y5005D03*
Y1068D03*
Y-2869D03*
Y-6806D03*
Y20753D03*
Y16816D03*
Y12879D03*
G54D21*
X-65988Y93844D03*
Y87844D03*
X-7566Y-14336D03*
Y-8336D03*
X14287Y-34239D03*
Y-28239D03*
X24557Y-34239D03*
X32669Y-11736D03*
X24557Y-28239D03*
X32669Y-5736D03*
X19383Y23267D03*
Y17267D03*
X42510Y-11736D03*
X53222D03*
X42510Y-5736D03*
X53222D03*
X47970Y73343D03*
Y67343D03*
X59540Y73590D03*
Y67590D03*
X65065Y14823D03*
Y20823D03*
G54D30*
X2561Y-10776D03*
Y4224D03*
Y-776D03*
Y-5776D03*
X22061Y-10776D03*
Y-776D03*
Y4224D03*
Y-5776D03*
G54D22*
X-40627Y-94378D03*
G54D13*
X-89765Y67683D03*
X-67639Y-17436D03*
Y-5625D03*
Y6186D03*
X-55828Y-17436D03*
Y-5625D03*
Y6186D03*
X-44016Y-17436D03*
Y-5625D03*
Y6186D03*
X-17953Y67683D03*
G54D40*
X94003Y-66501D03*
Y-56501D03*
Y-46501D03*
X92716Y66609D03*
Y76609D03*
G54D31*
X12675Y56233D03*
Y71037D03*
G54D23*
X-40627Y-59334D03*
G54D14*
X-92817Y77116D03*
X-69150Y-46904D03*
X-75150D03*
X-86817Y77116D03*
X15408Y80613D03*
X21408D03*
G54D32*
X34656Y-69875D03*
X24814Y-63182D03*
X62216Y-82080D03*
G54D41*
X86214Y-27911D03*
X94876D03*
G54D15*
X-75671Y-94378D03*
G54D24*
X-39098Y-42287D03*
X-34768D03*
Y-48193D03*
X-39098D03*
G54D33*
X35285Y5681D03*
X41285D03*
G54D25*
X-27664Y95550D03*
X-44200D03*
X-4745Y95303D03*
X11791D03*
G54D34*
X33211Y23120D03*
Y15620D03*
X43411D03*
Y19370D03*
Y23120D03*
X95645Y-17036D03*
Y-13286D03*
Y-9536D03*
X85445D03*
Y-17036D03*
G54D16*
X-75671Y-59334D03*
G54D17*
X-69607Y-36727D03*
X-73544D03*
X-77481D03*
X-81418D03*
X-85355D03*
Y22722D03*
X-81418D03*
X-77481D03*
X-73544D03*
X-69607D03*
X-49922Y-36727D03*
X-53859D03*
X-57796D03*
X-61733D03*
X-65670D03*
Y22722D03*
X-61733D03*
X-57796D03*
X-53859D03*
X-49922D03*
X-26300Y-36727D03*
X-30237D03*
X-34174D03*
X-38111D03*
X-42048D03*
X-45985D03*
Y22722D03*
X-42048D03*
X-38111D03*
X-34174D03*
X-30237D03*
X-26300D03*
X-22363Y-36727D03*
Y22722D03*
G54D26*
X-30228Y80314D03*
X-36228D03*
X-6185Y48100D03*
Y59475D03*
X-6250Y71058D03*
X-185Y48100D03*
Y59475D03*
X-250Y71058D03*
X35311Y34528D03*
X41311D03*
X61389Y35776D03*
X61311Y47931D03*
X65172Y-17771D03*
X71172D03*
X67389Y35776D03*
X67311Y47931D03*
X87545Y325D03*
X93545D03*
G54D35*
X30909Y47905D03*
X45713D03*
G54D36*
X36546Y94575D03*
X62176D03*
G54D27*
X-1726Y-90116D03*
X-11726D03*
X-21726D03*
X90922Y36299D03*
Y26299D03*
Y16299D03*
G54D18*
X-77077Y93818D03*
Y87818D03*
X-7566Y4410D03*
Y10410D03*
X53222Y6763D03*
Y12763D03*
G54D28*
X-9668Y-34272D03*
Y-27972D03*
X-11280Y26893D03*
Y33193D03*
X6080Y-34272D03*
Y-27972D03*
X4468Y26893D03*
Y33193D03*
G54D37*
X44499Y-95859D03*
X61034Y-52159D03*
G54D19*
X-58097Y-51181D03*
X-52936Y-43160D03*
X-46566Y-43173D03*
X-57239Y74555D03*
X-51116Y83746D03*
X18499Y-63635D03*
X19955Y-17784D03*
X34333Y69251D03*
X34268Y63336D03*
X78390Y49127D03*
Y55991D03*
G54D29*
X-2357Y-53460D03*
X9455D03*
X-2357Y-50901D03*
Y-48341D03*
Y-45782D03*
X9455D03*
Y-48341D03*
Y-50901D03*
G54D38*
X44243Y84142D03*
X46802D03*
X49361D03*
X51920D03*
X54479D03*
G54D39*
X69045Y-9651D03*
X67076D03*
X65108D03*
X63139D03*
Y-203D03*
X65108D03*
X67076D03*
X69045D03*
M02*
