%
M48
M72
T01C0.0120
T02C0.0315
T03C0.0787
%
T01
X15100Y17100
X17600Y24600
T02
X6100Y12100
X7100Y12100
X8100Y14600
X8100Y15600
X8100Y16600
X8100Y17600
X8100Y18600
X8100Y19600
X8100Y20600
X8100Y21600
X8100Y22600
X8100Y23600
X8100Y24600
X8100Y25600
X8100Y26600
X8100Y27600
X8100Y28600
X8100Y29600
X8100Y30600
X9600Y32600
X10600Y32600
X18100Y32600
X19100Y32600
X18100Y18600
X17100Y18600
X16100Y18600
X15100Y18600
X14100Y18600
X13100Y18600
X12100Y18600
X11100Y18600
X11100Y12100
X10100Y12100
X12100Y12100
X14600Y11600
X14600Y10600
X14600Y9600
X16600Y14100
X16600Y15100
X16600Y16100
X17600Y16100
X17600Y15100
X17600Y14100
X17600Y11600
X17600Y10600
X17600Y9600
X18100Y7600
X18100Y2600
X2100Y14600
X2100Y15600
X2100Y16600
X2100Y17600
X2100Y18600
X2100Y19600
X2100Y20600
X2100Y21600
X2100Y22600
X2100Y23600
X2100Y24600
X2100Y25600
X2100Y26600
X2100Y27600
X2100Y28600
X2100Y29600
X2100Y30600
T03
X14320Y6270
X14320Y4070
X15100Y3100
M30
