G75*
G70*
%OFA0B0*%
%FSLAX24Y24*%
%IPPOS*%
%LPD*%
%AMOC8*
5,1,8,0,0,1.08239X$1,22.5*
%
%ADD10C,0.0000*%
%ADD11C,0.0515*%
%ADD12C,0.1181*%
%ADD13C,0.0240*%
%ADD14C,0.0240*%
D10*
X000100Y000100D02*
X000100Y034096D01*
X020470Y034096D01*
X020470Y000100D01*
X000100Y000100D01*
D11*
X006100Y012100D03*
X007100Y012100D03*
X008100Y014600D03*
X008100Y015600D03*
X008100Y016600D03*
X008100Y017600D03*
X008100Y018600D03*
X008100Y019600D03*
X008100Y020600D03*
X008100Y021600D03*
X008100Y022600D03*
X008100Y023600D03*
X008100Y024600D03*
X008100Y025600D03*
X008100Y026600D03*
X008100Y027600D03*
X008100Y028600D03*
X008100Y029600D03*
X008100Y030600D03*
X009600Y032600D03*
X010600Y032600D03*
X018100Y032600D03*
X019100Y032600D03*
X018100Y018600D03*
X017100Y018600D03*
X016100Y018600D03*
X015100Y018600D03*
X014100Y018600D03*
X013100Y018600D03*
X012100Y018600D03*
X011100Y018600D03*
X011100Y012100D03*
X010100Y012100D03*
X012100Y012100D03*
X014600Y011600D03*
X014600Y010600D03*
X014600Y009600D03*
X016600Y014100D03*
X016600Y015100D03*
X016600Y016100D03*
X017600Y016100D03*
X017600Y015100D03*
X017600Y014100D03*
X017600Y011600D03*
X017600Y010600D03*
X017600Y009600D03*
X018100Y007600D03*
X018100Y002600D03*
X002100Y014600D03*
X002100Y015600D03*
X002100Y016600D03*
X002100Y017600D03*
X002100Y018600D03*
X002100Y019600D03*
X002100Y020600D03*
X002100Y021600D03*
X002100Y022600D03*
X002100Y023600D03*
X002100Y024600D03*
X002100Y025600D03*
X002100Y026600D03*
X002100Y027600D03*
X002100Y028600D03*
X002100Y029600D03*
X002100Y030600D03*
D12*
X014320Y006270D03*
X014320Y004070D03*
X015100Y003100D03*
D13*
X017600Y002100D02*
X018600Y002100D01*
X019100Y002600D01*
X019100Y023600D01*
X008100Y023600D01*
X008100Y021600D02*
X014100Y021600D01*
X017100Y018600D01*
X018600Y017600D02*
X012100Y017600D01*
X011600Y018100D01*
X003600Y018100D01*
X002100Y019600D01*
X001600Y020100D02*
X013600Y020100D01*
X015100Y018600D01*
X014600Y018100D02*
X015600Y018100D01*
X015600Y019100D01*
X013600Y021100D01*
X001100Y021100D01*
X001100Y015600D01*
X002100Y014600D01*
X002100Y015600D02*
X001600Y016100D01*
X001600Y020100D01*
X002100Y016600D02*
X004100Y014600D01*
X006600Y014600D01*
X009600Y011600D01*
X011600Y011600D01*
X012100Y012100D01*
X017100Y012100D01*
X017100Y014600D01*
X017600Y015100D01*
X016600Y015100D02*
X013100Y015100D01*
X010100Y012100D01*
X008100Y014600D02*
X010600Y017100D01*
X015100Y017100D01*
X014600Y018100D02*
X014100Y018600D01*
X011600Y018100D02*
X011100Y018600D01*
X014600Y010600D02*
X017600Y007600D01*
X017600Y002100D01*
X018100Y002600D02*
X018100Y007100D01*
X018600Y007100D01*
X018600Y017600D01*
X017600Y024600D02*
X009600Y032600D01*
D14*
X017600Y024600D03*
X015100Y017100D03*
M02*
