G75*
G70*
%OFA0B0*%
%FSLAX24Y24*%
%IPPOS*%
%LPD*%
%AMOC8*
5,1,8,0,0,1.08239X$1,22.5*
%
%ADD10C,0.0000*%
%ADD11C,0.0515*%
%ADD12C,0.1181*%
%ADD13C,0.0240*%
%ADD14C,0.0240*%
D10*
X000100Y000100D02*
X000100Y034096D01*
X020470Y034096D01*
X020470Y000100D01*
X000100Y000100D01*
D11*
X006100Y012100D03*
X007100Y012100D03*
X008100Y014600D03*
X008100Y015600D03*
X008100Y016600D03*
X008100Y017600D03*
X008100Y018600D03*
X008100Y019600D03*
X008100Y020600D03*
X008100Y021600D03*
X008100Y022600D03*
X008100Y023600D03*
X008100Y024600D03*
X008100Y025600D03*
X008100Y026600D03*
X008100Y027600D03*
X008100Y028600D03*
X008100Y029600D03*
X008100Y030600D03*
X009600Y032600D03*
X010600Y032600D03*
X018100Y032600D03*
X019100Y032600D03*
X018100Y018600D03*
X017100Y018600D03*
X016100Y018600D03*
X015100Y018600D03*
X014100Y018600D03*
X013100Y018600D03*
X012100Y018600D03*
X011100Y018600D03*
X011100Y012100D03*
X010100Y012100D03*
X012100Y012100D03*
X014600Y011600D03*
X014600Y010600D03*
X014600Y009600D03*
X016600Y014100D03*
X016600Y015100D03*
X016600Y016100D03*
X017600Y016100D03*
X017600Y015100D03*
X017600Y014100D03*
X017600Y011600D03*
X017600Y010600D03*
X017600Y009600D03*
X018100Y007600D03*
X018100Y002600D03*
X002100Y014600D03*
X002100Y015600D03*
X002100Y016600D03*
X002100Y017600D03*
X002100Y018600D03*
X002100Y019600D03*
X002100Y020600D03*
X002100Y021600D03*
X002100Y022600D03*
X002100Y023600D03*
X002100Y024600D03*
X002100Y025600D03*
X002100Y026600D03*
X002100Y027600D03*
X002100Y028600D03*
X002100Y029600D03*
X002100Y030600D03*
D12*
X014320Y006270D03*
X014320Y004070D03*
X015100Y003100D03*
D13*
X013600Y003100D01*
X013100Y003600D01*
X013100Y015600D01*
X012600Y016100D01*
X012600Y028600D01*
X013600Y029600D01*
X015100Y029600D01*
X018100Y032600D01*
X019100Y032600D02*
X016600Y030100D01*
X016600Y016100D01*
X017600Y016100D02*
X017600Y024600D01*
X016100Y018600D02*
X016100Y018100D01*
X015100Y017100D01*
X015100Y016800D02*
X015100Y013100D01*
X009100Y013100D01*
X009100Y017600D01*
X015100Y017600D01*
X015100Y017524D01*
X014846Y017270D01*
X014800Y017160D01*
X014800Y017040D01*
X014846Y016930D01*
X014930Y016846D01*
X015040Y016800D01*
X015100Y016800D01*
X014941Y016841D02*
X009100Y016841D01*
X009100Y016603D02*
X015100Y016603D01*
X015100Y016364D02*
X009100Y016364D01*
X009100Y016126D02*
X015100Y016126D01*
X015100Y015887D02*
X009100Y015887D01*
X009100Y015649D02*
X015100Y015649D01*
X015100Y015410D02*
X009100Y015410D01*
X009100Y015172D02*
X015100Y015172D01*
X015100Y014933D02*
X009100Y014933D01*
X009100Y014695D02*
X015100Y014695D01*
X015100Y014456D02*
X009100Y014456D01*
X009100Y014218D02*
X015100Y014218D01*
X015100Y013979D02*
X009100Y013979D01*
X009100Y013741D02*
X015100Y013741D01*
X015100Y013502D02*
X009100Y013502D01*
X009100Y013264D02*
X015100Y013264D01*
X017100Y011600D02*
X013100Y015600D01*
X012600Y016100D02*
X013100Y016600D01*
X013100Y018600D01*
X012600Y016100D02*
X011600Y016100D01*
X011600Y015100D01*
X011100Y014600D01*
X011100Y013600D01*
X010100Y013600D01*
X010100Y016100D01*
X007600Y016100D01*
X006100Y017600D01*
X002100Y017600D01*
X001600Y011600D02*
X001600Y027100D01*
X002100Y027600D01*
X008100Y025600D02*
X008600Y026100D01*
X008600Y033100D01*
X019600Y033100D01*
X019600Y012600D01*
X017600Y010600D01*
X017600Y009600D02*
X017600Y008100D01*
X018100Y007600D01*
X017600Y011600D02*
X017100Y011600D01*
X014600Y009600D02*
X014600Y006600D01*
X014320Y006270D01*
X014600Y006100D01*
X014600Y004100D01*
X014320Y004070D01*
X011100Y012100D02*
X011100Y013600D01*
X011600Y013600D01*
X010100Y013600D02*
X007600Y013600D01*
X006100Y012100D01*
X006600Y011600D02*
X001600Y011600D01*
X006600Y011600D02*
X007100Y012100D01*
X009100Y017080D02*
X014800Y017080D01*
X014894Y017318D02*
X009100Y017318D01*
X009100Y017557D02*
X015100Y017557D01*
X011600Y016100D02*
X010100Y016100D01*
X012600Y028600D02*
X010600Y030600D01*
X010600Y032600D01*
D14*
X017600Y024600D03*
X015100Y017100D03*
M02*
