G04 ================== begin FILE IDENTIFICATION RECORD ==================*
G04 Layout Name:  C:/Users/Madison/Desktop/gc/Photon_Dev/Photon_4Layer_shrunk.brd*
G04 Film Name:    SleepTrack_V1_BOTTOM*
G04 File Format:  Gerber RS274X*
G04 File Origin:  Cadence Allegro 17.0-P009*
G04 Origin Date:  Tue Dec 29 01:24:50 2015*
G04 *
G04 Layer:  ETCH/BOTTOM*
G04 Layer:  PIN/BOTTOM*
G04 Layer:  VIA CLASS/BOTTOM*
G04 *
G04 Offset:    (0.00 0.00)*
G04 Mirror:    No*
G04 Mode:      Positive*
G04 Rotation:  0*
G04 FullContactRelief:  No*
G04 UndefLineWidth:     0.00*
G04 ================== end FILE IDENTIFICATION RECORD ====================*
%FSLAX25Y25*MOIN*%
%IR0*IPPOS*OFA0.00000B0.00000*MIA0B0*SFA1.00000B1.00000*%
%AMMACRO15*
21,1,.01772,.00906,0.0,0.0,179.999*%
%ADD15MACRO15*%
%ADD17C,.06*%
%ADD11C,.024*%
%AMMACRO18*
21,1,.03937,.03937,0.0,0.0,89.999*
1,1,.03937,0.0,.019685*
1,1,.03937,0.0,-.019685*%
%ADD18MACRO18*%
%ADD12R,.03X.04*%
%ADD16R,.04X.03*%
%ADD10C,.135*%
%AMMACRO14*
21,1,.01772,.00906,0.0,0.0,89.999*%
%ADD14MACRO14*%
%AMMACRO20*
21,1,.03937,.03937,0.0,0.0,179.999*
1,1,.03937,-.019685,0.0*
1,1,.03937,.019685,0.0*%
%ADD20MACRO20*%
%AMMACRO13*
21,1,.04,.03,0.0,0.0,89.999*%
%ADD13MACRO13*%
%ADD19O,.03937X.07874*%
%ADD21C,.006*%
G75*
%LPD*%
G75*
G54D10*
X-90000Y-90000D03*
Y90000D03*
X90000Y-90000D03*
Y90000D03*
G54D20*
X44499Y-95859D03*
X61034Y-52159D03*
G54D11*
X-90670Y-55346D03*
X-94929Y1068D03*
X-97045Y3640D03*
X-95629Y20753D03*
X-91572Y73541D03*
X-83655Y-79651D03*
X-82940Y-62205D03*
X-85056Y-16468D03*
X-85163Y7345D03*
X-72891Y17693D03*
X-74120Y14268D03*
X-81874Y74477D03*
X-72423Y82004D03*
X-48204Y-24713D03*
X-65670Y16400D03*
X-48711Y14157D03*
X-62543Y72696D03*
X-58591Y90558D03*
X-56745Y85605D03*
X-52793Y79612D03*
X-59735Y81354D03*
X-62400Y91936D03*
X-42679Y-76830D03*
X-33111Y-52897D03*
X-34645Y-69602D03*
X-30472Y-66313D03*
X-25688Y-51402D03*
X-42679Y-43394D03*
X-37453Y-31538D03*
X-32344Y-30329D03*
X-36621Y-24713D03*
X-43784Y-29835D03*
X-36998Y-20167D03*
X-40976Y16848D03*
X-32981Y17381D03*
X-28841Y17687D03*
X-36998Y17381D03*
X-44902Y16679D03*
X-28444Y83967D03*
X-6006Y-55250D03*
X-12051Y-38922D03*
X-5337Y-42690D03*
X-7514Y-50128D03*
X-24373Y-41899D03*
X-23296Y-17498D03*
X-22958Y-23985D03*
X-23881Y-10478D03*
X-4316Y-9204D03*
X-10001Y-22100D03*
X-22464Y-6474D03*
X-4004Y6240D03*
X-10686Y-776D03*
X-23452Y18369D03*
X-10361Y39000D03*
X-5408Y44265D03*
X-11715Y65465D03*
X-11297Y57447D03*
X-3458Y89557D03*
X-4992Y80028D03*
X13728Y-84474D03*
X17277Y-73515D03*
X12435Y-48341D03*
X10193Y-43353D03*
X-1768Y-40690D03*
X18499Y-50674D03*
X1859Y-17238D03*
X16641Y-8626D03*
X8296Y4240D03*
X2379Y12207D03*
X12727Y24955D03*
X-910Y44291D03*
X10504Y51298D03*
X14235Y75075D03*
X13982Y84339D03*
X39650Y-54249D03*
X39169Y-38688D03*
X20641Y-33600D03*
X28509Y-31993D03*
X27768Y2262D03*
X28080Y6487D03*
X32175Y1625D03*
X27664Y-5798D03*
X23881Y19032D03*
X40248Y30927D03*
X30909Y41891D03*
X24687Y52377D03*
X29341Y63337D03*
X26546Y59449D03*
X38389Y79456D03*
X45292Y-72553D03*
X42510Y-21671D03*
X50128Y-29588D03*
X54704Y-18642D03*
X57278Y-3393D03*
X60729Y3660D03*
X57096Y11362D03*
X60996Y19054D03*
X48763Y21112D03*
X72000Y-57259D03*
X79976Y-58825D03*
X72202Y-40833D03*
X72930Y-21957D03*
X72689Y4842D03*
X64545Y5889D03*
X77259Y26832D03*
X80379Y38896D03*
X66430Y44031D03*
X66534Y77909D03*
X90766Y-12506D03*
X90142Y-17056D03*
X92452Y-3068D03*
G54D21*
G01X-48204Y-24713D02*
X-90597D01*
X-97526Y-17784D01*
Y819D01*
X-99045Y2338D01*
Y5072D01*
X-96980Y7137D01*
Y19275D01*
X-97629Y19924D01*
Y69564D01*
X-95394Y71799D01*
X-92659D01*
X-92401Y71541D01*
X-90743D01*
X-90485Y71799D01*
X-63440D01*
X-62543Y72696D01*
G01X-67626Y-16468D02*
X-80158D01*
G01X-85056D02*
X-80158D01*
G01Y-10468D02*
X-67626D01*
G01X-80158Y1264D02*
Y-10468D01*
G01X-85163Y7345D02*
X-83163D01*
X-83082Y7264D01*
X-80158D01*
G01X-67626D02*
X-80158D01*
G01X29341Y63337D02*
X26650D01*
X-10050Y26637D01*
X-61947D01*
X-70891Y17693D01*
X-72891D01*
G01X26546Y59449D02*
Y59410D01*
X-7462Y25402D01*
X-61256D01*
X-69563Y17095D01*
Y16198D01*
X-71493Y14268D01*
X-74120D01*
G01X-77185Y76199D02*
Y74878D01*
X-79001Y73062D01*
X-80459D01*
X-81874Y74477D01*
G01X-69310Y76199D02*
X-71279D01*
G01D02*
X-73248D01*
G01X-77185D02*
X-75216D01*
G01D02*
X-73248D01*
G01X-72423Y82004D02*
X-69310Y85117D01*
Y87419D01*
G01X-54769Y-16468D02*
X-42575D01*
G01X-67626D02*
X-54769D01*
G01X-67626Y-10468D02*
Y1264D01*
G01X-54769Y-10468D02*
X-67626D01*
G01X-54769D02*
X-42575D01*
G01X-54769Y1264D02*
Y-10468D01*
G01Y7264D02*
X-67626D01*
G01X-42575D02*
X-54769D01*
G01X-10686Y-776D02*
X-15664D01*
X-27321Y10881D01*
X-45435D01*
X-48711Y14157D01*
G01X-65373Y76199D02*
X-67342D01*
G01D02*
X-69310D01*
G01X-11297Y57447D02*
X-13715Y59865D01*
Y71708D01*
X-14703Y72696D01*
X-48706D01*
X-53919Y77909D01*
X-62725D01*
X-63405Y77229D01*
Y76199D01*
G01X-56745Y85605D02*
X-29635D01*
X-29273Y85967D01*
X-27615D01*
X-27210Y85562D01*
X-12315D01*
X-11715Y84962D01*
Y65465D01*
G01X-56745Y85605D02*
X-64896D01*
X-65373Y86082D01*
Y87419D01*
G01X-63405Y83778D02*
X-57747D01*
X-57574Y83605D01*
X-57358D01*
X-54780Y81027D01*
X-54208D01*
X-52793Y79612D01*
G01X-63405Y79840D02*
X-65091D01*
X-67342Y82091D01*
Y87419D01*
G01X-63405Y79840D02*
Y81809D01*
G01X-59735Y81354D02*
X-61249Y79840D01*
X-63405D01*
G01X-62400Y91936D02*
X-63405Y90931D01*
Y87419D01*
G01X-42679Y-43394D02*
Y-76830D01*
G01X-21726Y-90116D02*
X-39453D01*
Y-20167D01*
X-36998D01*
G01X-19802Y-57343D02*
X-18980Y-58165D01*
Y-59538D01*
X-19580Y-60138D01*
X-30381D01*
X-33111Y-57408D01*
Y-52897D01*
G01X-34645Y-69602D02*
X-32201Y-72046D01*
X-21697D01*
X-19802Y-70151D01*
Y-67548D01*
G01X-30472Y-66313D02*
X-30329D01*
X-29094Y-67548D01*
G01D02*
X-25802D01*
G01X-29099D02*
X-29094D01*
G01X-25802Y-57343D02*
X-28602D01*
X-31101Y-54844D01*
Y-52824D01*
X-30004Y-51727D01*
Y-42887D01*
X-29016Y-41899D01*
X-24373D01*
G01X-32344Y-30329D02*
X-29893D01*
X-19802Y-40420D01*
Y-47164D01*
G01X-42575Y-16468D02*
X-30836D01*
G01D02*
X-28536D01*
X-27506Y-17498D01*
X-23296D01*
G01X-22958Y-23985D02*
X-35893D01*
X-36621Y-24713D01*
G01X-30836Y-10468D02*
Y1264D01*
G01X-42575Y-10468D02*
X-30836D01*
G01X-42575D02*
Y1264D01*
G01X-30836Y-10468D02*
X-28536D01*
X-28526Y-10478D01*
X-23881D01*
G01X-30836Y7264D02*
X-42575D01*
G01X8296Y4240D02*
X-17227D01*
X-26637Y13650D01*
X-40376D01*
X-40976Y14250D01*
Y16848D01*
G01X2379Y12207D02*
X-1040Y8788D01*
X-19930D01*
X-26144Y15002D01*
X-30602D01*
X-32981Y17381D01*
G01X-28841Y17687D02*
X-27426Y16272D01*
X-23747D01*
X-21277Y13802D01*
X1145D01*
X1550Y14207D01*
X3208D01*
X3613Y13802D01*
X16641D01*
Y-8626D01*
G01X-44902Y16679D02*
Y13078D01*
X-44187Y12363D01*
X-27105D01*
X-15821Y1079D01*
X-13264D01*
Y1224D01*
X-7336D01*
Y-37419D01*
X34162D01*
Y-44551D01*
X56059D01*
G01X-11726Y-90116D02*
Y-41426D01*
X-10051Y-39751D01*
Y-38093D01*
X-11726Y-36418D01*
Y-23825D01*
X-10001Y-22100D01*
G01X-25688Y-51402D02*
Y-47278D01*
X-25802Y-47164D01*
G01X-302Y-46618D02*
X-3402D01*
Y-42690D01*
X-5337D01*
G01X-7514Y-50128D02*
X-6302Y-48916D01*
Y-46618D01*
G01X-23452Y18369D02*
X-20878Y15795D01*
X18641D01*
Y-35600D01*
X39169D01*
G01X10504Y51298D02*
Y64532D01*
X-4992Y80028D01*
G01X10193Y-43353D02*
Y-48341D01*
X12435D01*
G01X-1768Y-40690D02*
X-897Y-39819D01*
X10517D01*
X18499Y-47801D01*
Y-50674D01*
G01X-4316Y-9204D02*
X5876D01*
X6881Y-8199D01*
Y2825D01*
X8296Y4240D01*
G01X12727Y24955D02*
Y25832D01*
X24687Y37792D01*
Y52377D01*
G01X14235Y75075D02*
X15054Y75894D01*
X65663D01*
X66534Y76765D01*
Y77909D01*
G01X17277Y-73515D02*
X24924D01*
X44499Y-93090D01*
Y-95859D01*
G01X45292Y-72553D02*
X42614Y-69875D01*
X34656D01*
G01X34791Y-60034D02*
Y-52090D01*
X34661Y-51960D01*
Y-49660D01*
G01X34791Y-60034D02*
Y-60355D01*
X31964Y-63182D01*
X24814D01*
G01X42510Y-21671D02*
X20641D01*
Y-33600D01*
G01X32175Y1625D02*
Y13016D01*
X34850Y15691D01*
X35350D01*
G01X27664Y-5798D02*
X41350Y7888D01*
Y15691D01*
G01X60996Y19054D02*
X58405D01*
X58383Y19032D01*
X23881D01*
G01X77259Y26832D02*
X63128D01*
X48069Y41891D01*
X30909D01*
G01X39650Y-54249D02*
X40661Y-53238D01*
Y-49660D01*
G01X40791Y-60034D02*
X52752D01*
X52778Y-60008D01*
X55578D01*
G01D02*
Y-62308D01*
X55640Y-62370D01*
Y-69043D01*
X62216Y-75619D01*
Y-82080D01*
G01X39169Y-35600D02*
Y-38688D01*
G01X39198Y-32071D02*
Y-34371D01*
X39169Y-34400D01*
Y-35600D01*
G01X61034Y-52159D02*
Y-49390D01*
X59887Y-48243D01*
Y-47879D01*
X56559Y-44551D01*
X56059D01*
G01X50128Y-29588D02*
Y-29941D01*
X47998Y-32071D01*
X45198D01*
G01X61578Y-60008D02*
X69251D01*
X72000Y-57259D01*
G01X72202Y-40833D02*
X68484Y-44551D01*
X62059D01*
G01X77259Y26832D02*
X78079D01*
X78781Y26130D01*
X86953D01*
X87122Y26299D01*
X90922D01*
G01X90142Y-17056D02*
X88766Y-15680D01*
Y-9774D01*
X92452Y-6088D01*
Y-3068D01*
G54D12*
X-80158Y-10468D03*
Y-16468D03*
X-54769D03*
Y-10468D03*
X-67626Y1264D03*
Y7264D03*
X-42575Y-16468D03*
Y-10468D03*
G54D13*
X-80158Y1264D03*
Y7264D03*
X-67626Y-10468D03*
Y-16468D03*
X-54769Y7264D03*
Y1264D03*
X-30836Y-10468D03*
Y-16468D03*
X-42575Y7264D03*
Y1264D03*
X-30836D03*
Y7264D03*
G54D14*
X-71279Y76199D03*
X-73248D03*
X-75216D03*
X-77185D03*
X-79153D03*
Y87419D03*
X-77185D03*
X-75216D03*
X-73248D03*
X-71279D03*
X-63405Y76199D03*
X-65373D03*
X-67342D03*
X-69310D03*
Y87419D03*
X-67342D03*
X-65373D03*
X-63405D03*
G54D15*
X-79153Y79840D03*
Y81809D03*
Y83778D03*
X-63405D03*
Y81809D03*
Y79840D03*
G54D16*
X-25802Y-67548D03*
Y-57343D03*
Y-47164D03*
X-19802Y-67548D03*
Y-57343D03*
X-6302Y-46618D03*
X-19802Y-47164D03*
X-302Y-46618D03*
X34791Y-60034D03*
X40791D03*
X39198Y-32071D03*
X34661Y-49660D03*
X40661D03*
X35350Y15691D03*
X61578Y-60008D03*
X55578D03*
X45198Y-32071D03*
X56059Y-44551D03*
X62059D03*
X41350Y15691D03*
G54D17*
X-1726Y-90116D03*
X-11726D03*
X-21726D03*
X94003Y-66501D03*
Y-56501D03*
Y-46501D03*
X90922Y36299D03*
Y26299D03*
Y16299D03*
X92716Y66609D03*
Y76609D03*
G54D18*
X34656Y-69875D03*
X24814Y-63182D03*
X62216Y-82080D03*
G54D19*
X36546Y94575D03*
X62176D03*
M02*
