G04 ================== begin FILE IDENTIFICATION RECORD ==================*
G04 Layout Name:  C:/Users/Madison/Desktop/gc/Photon_Dev/Photon_4Layer_shrunk.brd*
G04 Film Name:    SleepTrack_V1_Pastemask_Bottom*
G04 File Format:  Gerber RS274X*
G04 File Origin:  Cadence Allegro 17.0-P009*
G04 Origin Date:  Sat Jan 16 11:21:11 2016*
G04 *
G04 Layer:  PIN/SOLDERMASK_BOTTOM*
G04 Layer:  DRC ERROR CLASS/SOLDERMASK_BOTTOM*
G04 *
G04 Offset:    (0.00 0.00)*
G04 Mirror:    No*
G04 Mode:      Positive*
G04 Rotation:  0*
G04 FullContactRelief:  No*
G04 UndefLineWidth:     10.00*
G04 ================== end FILE IDENTIFICATION RECORD ====================*
%FSLAX25Y25*MOIN*%
%IR0*IPPOS*OFA0.00000B0.00000*MIA0B0*SFA1.00000B1.00000*%
%AMMACRO11*
21,1,.046,.036,0.0,0.0,89.999*%
%ADD11MACRO11*%
%AMMACRO12*
21,1,.02372,.01506,0.0,0.0,89.999*%
%ADD12MACRO12*%
%ADD15C,.07*%
%ADD19C,.075*%
%AMMACRO16*
21,1,.03937,.04528,0.0,0.0,89.999*
1,1,.04528,0.0,.019685*
1,1,.04528,0.0,-.019685*%
%ADD16MACRO16*%
%AMMACRO13*
21,1,.02372,.01506,0.0,0.0,179.999*%
%ADD13MACRO13*%
%ADD10R,.036X.046*%
%ADD14R,.046X.036*%
%AMMACRO18*
21,1,.03937,.04528,0.0,0.0,179.999*
1,1,.04528,-.019685,0.0*
1,1,.04528,.019685,0.0*%
%ADD18MACRO18*%
%ADD17O,.04528X.08465*%
%LPD*%
G75*
G54D10*
X-80158Y-10468D03*
Y-16468D03*
X-54769D03*
Y-10468D03*
X-67626Y1264D03*
Y7264D03*
X-42575Y-16468D03*
Y-10468D03*
G54D11*
X-80158Y1264D03*
Y7264D03*
X-67626Y-10468D03*
Y-16468D03*
X-54769Y7264D03*
Y1264D03*
X-30836Y-10468D03*
Y-16468D03*
X-42575Y7264D03*
Y1264D03*
X-30836D03*
Y7264D03*
G54D12*
X-71279Y76199D03*
X-73248D03*
X-75216D03*
X-77185D03*
X-79153D03*
Y87419D03*
X-77185D03*
X-75216D03*
X-73248D03*
X-71279D03*
X-63405Y76199D03*
X-65373D03*
X-67342D03*
X-69310D03*
Y87419D03*
X-67342D03*
X-65373D03*
X-63405D03*
G54D13*
X-79153Y79840D03*
Y81809D03*
Y83778D03*
X-63405D03*
Y81809D03*
Y79840D03*
G54D14*
X-25802Y-67548D03*
Y-57343D03*
Y-47164D03*
X-19802Y-67548D03*
Y-57343D03*
X-6302Y-46618D03*
X-19802Y-47164D03*
X-302Y-46618D03*
X34791Y-60034D03*
X40791D03*
X39198Y-32071D03*
X34661Y-49660D03*
X40661D03*
X35350Y15691D03*
X61578Y-60008D03*
X55578D03*
X45198Y-32071D03*
X56059Y-44551D03*
X62059D03*
X41350Y15691D03*
G54D15*
X-1726Y-90116D03*
X-11726D03*
X-21726D03*
X90922Y36299D03*
Y26299D03*
Y16299D03*
G54D16*
X34656Y-69875D03*
X24814Y-63182D03*
X62216Y-82080D03*
G54D17*
X36546Y94575D03*
X62176D03*
G54D18*
X44499Y-95859D03*
X61034Y-52159D03*
G54D19*
X94003Y-66501D03*
Y-56501D03*
Y-46501D03*
X92716Y66609D03*
Y76609D03*
M02*
