G04 ================== begin FILE IDENTIFICATION RECORD ==================*
G04 Layout Name:  C:/Users/Madison/Desktop/gc/Photon_Dev/IMU_External/IMU.brd*
G04 Film Name:    IMU_Assembly_Top_V1*
G04 File Format:  Gerber RS274X*
G04 File Origin:  Cadence Allegro 17.0-P009*
G04 Origin Date:  Tue Mar 01 05:51:37 2016*
G04 *
G04 Layer:  PACKAGE GEOMETRY/ASSEMBLY_TOP*
G04 Layer:  MANUFACTURING/XSECTION_CHART*
G04 Layer:  MANUFACTURING/NCLEGEND-1-4*
G04 Layer:  BOARD GEOMETRY/OUTLINE*
G04 Layer:  BOARD GEOMETRY/DIMENSION*
G04 *
G04 Offset:    (0.00 0.00)*
G04 Mirror:    No*
G04 Mode:      Positive*
G04 Rotation:  0*
G04 FullContactRelief:  No*
G04 UndefLineWidth:     6.00*
G04 ================== end FILE IDENTIFICATION RECORD ====================*
%FSLAX25Y25*MOIN*%
%IR0*IPPOS*OFA0.00000B0.00000*MIA0B0*SFA1.00000B1.00000*%
%AMMACRO11*
1,1,.006,.025,0.0*
20,1,.006,.025,0.0,.02462,-.004341,0.0*
1,1,.006,.02462,-.004341*
20,1,.006,.02462,-.004341,.023492,-.008551,0.0*
1,1,.006,.023492,-.008551*
20,1,.006,.023492,-.008551,.021651,-.0125,0.0*
1,1,.006,.021651,-.0125*
20,1,.006,.021651,-.0125,.019151,-.01607,0.0*
1,1,.006,.019151,-.01607*
20,1,.006,.019151,-.01607,.01607,-.019151,0.0*
1,1,.006,.01607,-.019151*
20,1,.006,.01607,-.019151,.0125,-.021651,0.0*
1,1,.006,.0125,-.021651*
20,1,.006,.0125,-.021651,.008551,-.023492,0.0*
1,1,.006,.008551,-.023492*
20,1,.006,.008551,-.023492,.004341,-.02462,0.0*
1,1,.006,.004341,-.02462*
20,1,.006,.004341,-.02462,0.0,-.025,0.0*
1,1,.006,0.0,-.025*
20,1,.006,0.0,-.025,-.004341,-.02462,0.0*
1,1,.006,-.004341,-.02462*
20,1,.006,-.004341,-.02462,-.008551,-.023492,0.0*
1,1,.006,-.008551,-.023492*
20,1,.006,-.008551,-.023492,-.0125,-.021651,0.0*
1,1,.006,-.0125,-.021651*
20,1,.006,-.0125,-.021651,-.01607,-.019151,0.0*
1,1,.006,-.01607,-.019151*
20,1,.006,-.01607,-.019151,-.019151,-.01607,0.0*
1,1,.006,-.019151,-.01607*
20,1,.006,-.019151,-.01607,-.021651,-.0125,0.0*
1,1,.006,-.021651,-.0125*
20,1,.006,-.021651,-.0125,-.023492,-.008551,0.0*
1,1,.006,-.023492,-.008551*
20,1,.006,-.023492,-.008551,-.02462,-.004341,0.0*
1,1,.006,-.02462,-.004341*
20,1,.006,-.02462,-.004341,-.025,0.0,0.0*
1,1,.006,-.025,0.0*
20,1,.006,-.025,0.0,-.02462,.004341,0.0*
1,1,.006,-.02462,.004341*
20,1,.006,-.02462,.004341,-.023492,.008551,0.0*
1,1,.006,-.023492,.008551*
20,1,.006,-.023492,.008551,-.021651,.0125,0.0*
1,1,.006,-.021651,.0125*
20,1,.006,-.021651,.0125,-.019151,.01607,0.0*
1,1,.006,-.019151,.01607*
20,1,.006,-.019151,.01607,-.01607,.019151,0.0*
1,1,.006,-.01607,.019151*
20,1,.006,-.01607,.019151,-.0125,.021651,0.0*
1,1,.006,-.0125,.021651*
20,1,.006,-.0125,.021651,-.008551,.023492,0.0*
1,1,.006,-.008551,.023492*
20,1,.006,-.008551,.023492,-.004341,.02462,0.0*
1,1,.006,-.004341,.02462*
20,1,.006,-.004341,.02462,0.0,.025,0.0*
1,1,.006,0.0,.025*
20,1,.006,0.0,.025,.004341,.02462,0.0*
1,1,.006,.004341,.02462*
20,1,.006,.004341,.02462,.008551,.023492,0.0*
1,1,.006,.008551,.023492*
20,1,.006,.008551,.023492,.0125,.021651,0.0*
1,1,.006,.0125,.021651*
20,1,.006,.0125,.021651,.01607,.019151,0.0*
1,1,.006,.01607,.019151*
20,1,.006,.01607,.019151,.019151,.01607,0.0*
1,1,.006,.019151,.01607*
20,1,.006,.019151,.01607,.021651,.0125,0.0*
1,1,.006,.021651,.0125*
20,1,.006,.021651,.0125,.023492,.008551,0.0*
1,1,.006,.023492,.008551*
20,1,.006,.023492,.008551,.02462,.004341,0.0*
1,1,.006,.02462,.004341*
20,1,.006,.02462,.004341,.025,0.0,0.0*
1,1,.006,.025,0.0*
1,1,.006,.0125,0.0*
20,1,.006,.0125,0.0,-.0125,0.0,0.0*
1,1,.006,-.0125,0.0*
1,1,.006,0.0,.0125*
20,1,.006,0.0,.0125,0.0,-.0125,0.0*
1,1,.006,0.0,-.0125*
%
%ADD11MACRO11*%
%AMMACRO10*
1,1,.006,.025,0.0*
20,1,.006,.025,0.0,.0125,.021651,0.0*
1,1,.006,.0125,.021651*
20,1,.006,.0125,.021651,-.0125,.021651,0.0*
1,1,.006,-.0125,.021651*
20,1,.006,-.0125,.021651,-.025,0.0,0.0*
1,1,.006,-.025,0.0*
20,1,.006,-.025,0.0,-.0125,-.021651,0.0*
1,1,.006,-.0125,-.021651*
20,1,.006,-.0125,-.021651,.0125,-.021651,0.0*
1,1,.006,.0125,-.021651*
20,1,.006,.0125,-.021651,.025,0.0,0.0*
1,1,.006,.025,0.0*
%
%ADD10MACRO10*%
%ADD12C,.006*%
G75*
%LPD*%
G75*
G36*
G01X166025Y119994D02*
Y111714D01*
X166650D01*
Y-70446D01*
X166025D01*
Y-78726D01*
X169775D01*
Y-70446D01*
X169150D01*
Y111714D01*
X169775D01*
Y119994D01*
X166025D01*
G37*
G36*
G01X161025Y-78726D02*
Y-70446D01*
X176025D01*
Y-78726D01*
X161025D01*
G37*
G36*
G01Y-15246D02*
Y-6966D01*
X176025D01*
Y-15246D01*
X161025D01*
G37*
G36*
G01Y48234D02*
Y56514D01*
X176025D01*
Y48234D01*
X161025D01*
G37*
G36*
G01Y111714D02*
Y119994D01*
X176025D01*
Y111714D01*
X161025D01*
G37*
G54D10*
X-293775Y-247625D03*
X13850Y-14850D03*
Y-4850D03*
Y5150D03*
Y15150D03*
G54D11*
X-293775Y-222625D03*
X-12550Y-9125D03*
X-8762Y-9038D03*
X5925Y-15950D03*
X-2300Y-7125D03*
X-2750Y12000D03*
X-1350Y16750D03*
X-2355Y-1305D03*
G54D12*
G01X-338725Y-260125D02*
Y-135125D01*
X358775D01*
Y-260125D01*
X-338725D01*
G01Y-235125D02*
X358775D01*
G01X-327720Y-203875D02*
Y-191375D01*
X-321830D01*
G01X-324000Y-197417D02*
X-327720D01*
G01X-314235Y-191375D02*
X-310515D01*
G01X-312375D02*
Y-203875D01*
G01X-314235D02*
X-310515D01*
G01X-299045Y-197625D02*
X-295945D01*
Y-201375D01*
X-296875Y-202625D01*
X-297960Y-203458D01*
X-299510Y-203875D01*
X-301060Y-203458D01*
X-302145Y-202625D01*
X-303075Y-201375D01*
X-303695Y-199917D01*
X-304005Y-198250D01*
Y-196792D01*
X-303695Y-195542D01*
X-303075Y-194083D01*
X-302145Y-192833D01*
X-301215Y-192000D01*
X-299975Y-191375D01*
X-298890D01*
X-297650Y-191792D01*
X-296720Y-192625D01*
G01X-290985Y-191375D02*
Y-200333D01*
X-290365Y-202209D01*
X-289125Y-203458D01*
X-287575Y-203875D01*
X-286025Y-203458D01*
X-284785Y-202209D01*
X-284165Y-200333D01*
Y-191375D01*
G01X-278275Y-203875D02*
Y-191375D01*
X-274400D01*
X-273160Y-192000D01*
X-272385Y-192833D01*
X-272075Y-194500D01*
X-272385Y-196167D01*
X-273315Y-197208D01*
X-274400Y-197833D01*
X-278275D01*
G01X-274400D02*
X-272075Y-203875D01*
G01X-259675D02*
X-265875D01*
Y-191375D01*
X-259675D01*
G01X-262155Y-197417D02*
X-265875D01*
G01X-338725Y-185125D02*
X358775D01*
G01X-338725Y-210125D02*
X358775D01*
G01X-338725Y-160125D02*
X358775D01*
G01X-248825Y-185125D02*
Y-260125D01*
G01X-225420Y-203875D02*
Y-191375D01*
X-219530D01*
G01X-221700Y-197417D02*
X-225420D01*
G01X-211935Y-191375D02*
X-208215D01*
G01X-210075D02*
Y-203875D01*
G01X-211935D02*
X-208215D01*
G01X-201240D02*
Y-191375D01*
X-194110Y-203875D01*
Y-191375D01*
G01X-187135D02*
X-183415D01*
G01X-185275D02*
Y-203875D01*
G01X-187135D02*
X-183415D01*
G01X-176130Y-202209D02*
X-174890Y-203250D01*
X-173495Y-203875D01*
X-172255D01*
X-171015Y-203250D01*
X-170085Y-202209D01*
X-169620Y-200750D01*
X-169930Y-199292D01*
X-170705Y-198042D01*
X-172100Y-197208D01*
X-173960Y-196792D01*
X-175045Y-195958D01*
X-175510Y-194500D01*
X-175200Y-193042D01*
X-174425Y-192000D01*
X-173340Y-191375D01*
X-172255D01*
X-171170Y-191792D01*
X-170240Y-192833D01*
G01X-163730Y-203875D02*
Y-191375D01*
G01X-157220D02*
Y-203875D01*
G01Y-197625D02*
X-163730D01*
G01X-144975Y-203875D02*
X-151175D01*
Y-191375D01*
X-144975D01*
G01X-147455Y-197417D02*
X-151175D01*
G01X-139085Y-203875D02*
Y-191375D01*
X-135985D01*
X-134745Y-192000D01*
X-133815Y-192833D01*
X-133040Y-194083D01*
X-132420Y-195542D01*
X-132265Y-197625D01*
X-132420Y-199708D01*
X-133040Y-201167D01*
X-133815Y-202417D01*
X-134745Y-203250D01*
X-135985Y-203875D01*
X-139085D01*
G01X-127925Y-208042D02*
X-118625D01*
G01X-114130Y-202209D02*
X-112890Y-203250D01*
X-111495Y-203875D01*
X-110255D01*
X-109015Y-203250D01*
X-108085Y-202209D01*
X-107620Y-200750D01*
X-107930Y-199292D01*
X-108705Y-198042D01*
X-110100Y-197208D01*
X-111960Y-196792D01*
X-113045Y-195958D01*
X-113510Y-194500D01*
X-113200Y-193042D01*
X-112425Y-192000D01*
X-111340Y-191375D01*
X-110255D01*
X-109170Y-191792D01*
X-108240Y-192833D01*
G01X-100335Y-191375D02*
X-96615D01*
G01X-98475D02*
Y-203875D01*
G01X-100335D02*
X-96615D01*
G01X-89020Y-191375D02*
X-83130D01*
X-89020Y-203875D01*
X-83130D01*
G01X-70575D02*
X-76775D01*
Y-191375D01*
X-70575D01*
G01X-73055Y-197417D02*
X-76775D01*
G01X-170085Y-251375D02*
X-169155Y-252834D01*
X-167915Y-253667D01*
X-166520Y-253875D01*
X-165280Y-253667D01*
X-164040Y-252625D01*
X-163265Y-251375D01*
X-163110Y-250125D01*
X-163420Y-248667D01*
X-164505Y-247625D01*
X-165590Y-247208D01*
X-166985D01*
G01X-165590D02*
X-164660Y-246583D01*
X-163885Y-245542D01*
X-163575Y-244292D01*
X-163885Y-243042D01*
X-164660Y-242000D01*
X-166055Y-241375D01*
X-167450Y-241583D01*
X-168845Y-242417D01*
G01X-157220Y-248667D02*
X-156135Y-247208D01*
X-155205Y-246375D01*
X-153965Y-245958D01*
X-152880Y-246375D01*
X-152105Y-247208D01*
X-151485Y-248458D01*
X-151330Y-249917D01*
X-151485Y-251167D01*
X-152105Y-252417D01*
X-153035Y-253458D01*
X-154120Y-253875D01*
X-155360Y-253458D01*
X-156445Y-252209D01*
X-157065Y-250333D01*
X-157220Y-248250D01*
X-156910Y-245542D01*
X-156445Y-244083D01*
X-155670Y-242625D01*
X-154585Y-241583D01*
X-153500Y-241375D01*
X-152415Y-241792D01*
X-151640Y-242833D01*
G01X-141875Y-254292D02*
X-142185Y-254083D01*
Y-253667D01*
X-141875Y-253458D01*
X-141565Y-253667D01*
Y-254083D01*
X-141875Y-254292D01*
G01X-129475Y-241375D02*
X-130715Y-241792D01*
X-131645Y-242833D01*
X-132265Y-244083D01*
X-132730Y-245750D01*
X-132885Y-247625D01*
X-132730Y-249500D01*
X-132265Y-251167D01*
X-131645Y-252417D01*
X-130715Y-253458D01*
X-129475Y-253875D01*
X-128235Y-253458D01*
X-127305Y-252417D01*
X-126685Y-251167D01*
X-126220Y-249500D01*
X-126065Y-247625D01*
X-126220Y-245750D01*
X-126685Y-244083D01*
X-127305Y-242833D01*
X-128235Y-241792D01*
X-129475Y-241375D01*
G01X-166675Y-228875D02*
Y-216375D01*
X-168535Y-218875D01*
G01Y-228875D02*
X-164815D01*
G01X-157685Y-226375D02*
X-156755Y-227834D01*
X-155515Y-228667D01*
X-154120Y-228875D01*
X-152880Y-228667D01*
X-151640Y-227625D01*
X-150865Y-226375D01*
X-150710Y-225125D01*
X-151020Y-223667D01*
X-152105Y-222625D01*
X-153190Y-222208D01*
X-154585D01*
G01X-153190D02*
X-152260Y-221583D01*
X-151485Y-220542D01*
X-151175Y-219292D01*
X-151485Y-218042D01*
X-152260Y-217000D01*
X-153655Y-216375D01*
X-155050Y-216583D01*
X-156445Y-217417D01*
G01X-141875Y-229292D02*
X-142185Y-229083D01*
Y-228667D01*
X-141875Y-228458D01*
X-141565Y-228667D01*
Y-229083D01*
X-141875Y-229292D01*
G01X-129475Y-216375D02*
X-130715Y-216792D01*
X-131645Y-217833D01*
X-132265Y-219083D01*
X-132730Y-220750D01*
X-132885Y-222625D01*
X-132730Y-224500D01*
X-132265Y-226167D01*
X-131645Y-227417D01*
X-130715Y-228458D01*
X-129475Y-228875D01*
X-128235Y-228458D01*
X-127305Y-227417D01*
X-126685Y-226167D01*
X-126220Y-224500D01*
X-126065Y-222625D01*
X-126220Y-220750D01*
X-126685Y-219083D01*
X-127305Y-217833D01*
X-128235Y-216792D01*
X-129475Y-216375D01*
G01X-148385Y-153875D02*
Y-141375D01*
X-145285D01*
X-144045Y-142000D01*
X-143115Y-142833D01*
X-142340Y-144083D01*
X-141720Y-145542D01*
X-141565Y-147625D01*
X-141720Y-149708D01*
X-142340Y-151167D01*
X-143115Y-152417D01*
X-144045Y-153250D01*
X-145285Y-153875D01*
X-148385D01*
G01X-135675D02*
Y-141375D01*
X-131800D01*
X-130560Y-142000D01*
X-129785Y-142833D01*
X-129475Y-144500D01*
X-129785Y-146167D01*
X-130715Y-147208D01*
X-131800Y-147833D01*
X-135675D01*
G01X-131800D02*
X-129475Y-153875D01*
G01X-122035Y-141375D02*
X-118315D01*
G01X-120175D02*
Y-153875D01*
G01X-122035D02*
X-118315D01*
G01X-110875Y-141375D02*
Y-153875D01*
X-104675D01*
G01X-98475Y-141375D02*
Y-153875D01*
X-92275D01*
G01X-67165Y-142417D02*
X-68095Y-141792D01*
X-69180Y-141375D01*
X-70420D01*
X-71815Y-142000D01*
X-72900Y-143042D01*
X-73675Y-144292D01*
X-74295Y-146375D01*
X-74450Y-148250D01*
X-74140Y-150125D01*
X-73675Y-151375D01*
X-72745Y-152625D01*
X-71660Y-153458D01*
X-70575Y-153875D01*
X-69490D01*
X-68405Y-153458D01*
X-67475Y-152834D01*
X-66700Y-152000D01*
G01X-61430Y-153875D02*
Y-141375D01*
G01X-54920D02*
Y-153875D01*
G01Y-147625D02*
X-61430D01*
G01X-49650Y-153875D02*
X-45775Y-141375D01*
X-41900Y-153875D01*
G01X-43295Y-149500D02*
X-48255D01*
G01X-36475Y-153875D02*
Y-141375D01*
X-32600D01*
X-31360Y-142000D01*
X-30585Y-142833D01*
X-30275Y-144500D01*
X-30585Y-146167D01*
X-31515Y-147208D01*
X-32600Y-147833D01*
X-36475D01*
G01X-32600D02*
X-30275Y-153875D01*
G01X-20975Y-141375D02*
Y-153875D01*
G01X-24540Y-141375D02*
X-17410D01*
G01X-8575Y-154292D02*
X-8885Y-154083D01*
Y-153667D01*
X-8575Y-153458D01*
X-8265Y-153667D01*
Y-154083D01*
X-8575Y-154292D01*
G01Y-148667D02*
X-8885Y-148458D01*
Y-148042D01*
X-8575Y-147833D01*
X-8265Y-148042D01*
Y-148458D01*
X-8575Y-148667D01*
G01X16225Y-141375D02*
Y-153875D01*
G01X12660Y-141375D02*
X19790D01*
G01X28625Y-153875D02*
X27385Y-153667D01*
X26300Y-152834D01*
X25370Y-151583D01*
X24750Y-150125D01*
X24440Y-148458D01*
Y-146792D01*
X24750Y-145125D01*
X25370Y-143667D01*
X26300Y-142417D01*
X27385Y-141583D01*
X28625Y-141375D01*
X29865Y-141583D01*
X30950Y-142417D01*
X31880Y-143667D01*
X32500Y-145125D01*
X32810Y-146792D01*
Y-148458D01*
X32500Y-150125D01*
X31880Y-151583D01*
X30950Y-152834D01*
X29865Y-153667D01*
X28625Y-153875D01*
G01X37925D02*
Y-141375D01*
X41645D01*
X42885Y-142000D01*
X43815Y-143458D01*
X44125Y-145125D01*
X43815Y-146792D01*
X43040Y-148042D01*
X41645Y-148667D01*
X37925D01*
G01X65825Y-141375D02*
Y-153875D01*
G01X63655Y-145542D02*
X67995D01*
G01X78225Y-153875D02*
X77295Y-153667D01*
X76365Y-152834D01*
X75745Y-151375D01*
X75435Y-149708D01*
X75745Y-148042D01*
X76365Y-146583D01*
X77295Y-145750D01*
X78225Y-145542D01*
X79155Y-145750D01*
X80085Y-146583D01*
X80705Y-148042D01*
X80860Y-149708D01*
X80705Y-151375D01*
X80085Y-152834D01*
X79155Y-153667D01*
X78225Y-153875D01*
G01X104265Y-147208D02*
X104885Y-146583D01*
X105350Y-145542D01*
X105660Y-144083D01*
X105350Y-142833D01*
X104730Y-142000D01*
X103645Y-141375D01*
X99460D01*
Y-153875D01*
X104575D01*
X105660Y-153042D01*
X106280Y-151792D01*
X106590Y-150333D01*
X106280Y-148875D01*
X105350Y-147625D01*
X104265Y-147208D01*
X99460D01*
G01X115425Y-153875D02*
X114185Y-153667D01*
X113100Y-152834D01*
X112170Y-151583D01*
X111550Y-150125D01*
X111240Y-148458D01*
Y-146792D01*
X111550Y-145125D01*
X112170Y-143667D01*
X113100Y-142417D01*
X114185Y-141583D01*
X115425Y-141375D01*
X116665Y-141583D01*
X117750Y-142417D01*
X118680Y-143667D01*
X119300Y-145125D01*
X119610Y-146792D01*
Y-148458D01*
X119300Y-150125D01*
X118680Y-151583D01*
X117750Y-152834D01*
X116665Y-153667D01*
X115425Y-153875D01*
G01X127825Y-141375D02*
Y-153875D01*
G01X124260Y-141375D02*
X131390D01*
G01X140225D02*
Y-153875D01*
G01X136660Y-141375D02*
X143790D01*
G01X152625Y-153875D02*
X151385Y-153667D01*
X150300Y-152834D01*
X149370Y-151583D01*
X148750Y-150125D01*
X148440Y-148458D01*
Y-146792D01*
X148750Y-145125D01*
X149370Y-143667D01*
X150300Y-142417D01*
X151385Y-141583D01*
X152625Y-141375D01*
X153865Y-141583D01*
X154950Y-142417D01*
X155880Y-143667D01*
X156500Y-145125D01*
X156810Y-146792D01*
Y-148458D01*
X156500Y-150125D01*
X155880Y-151583D01*
X154950Y-152834D01*
X153865Y-153667D01*
X152625Y-153875D01*
G01X160995D02*
Y-141375D01*
X165025Y-151792D01*
X169055Y-141375D01*
Y-153875D01*
G01X-117850Y-178875D02*
X-113975Y-166375D01*
X-110100Y-178875D01*
G01X-111495Y-174500D02*
X-116455D01*
G01X-104675Y-166375D02*
Y-178875D01*
X-98475D01*
G01X-92275Y-166375D02*
Y-178875D01*
X-86075D01*
G01X-67785Y-166375D02*
Y-175333D01*
X-67165Y-177209D01*
X-65925Y-178458D01*
X-64375Y-178875D01*
X-62825Y-178458D01*
X-61585Y-177209D01*
X-60965Y-175333D01*
Y-166375D01*
G01X-55540Y-178875D02*
Y-166375D01*
X-48410Y-178875D01*
Y-166375D01*
G01X-41435D02*
X-37715D01*
G01X-39575D02*
Y-178875D01*
G01X-41435D02*
X-37715D01*
G01X-27175Y-166375D02*
Y-178875D01*
G01X-30740Y-166375D02*
X-23610D01*
G01X-18030Y-177209D02*
X-16790Y-178250D01*
X-15395Y-178875D01*
X-14155D01*
X-12915Y-178250D01*
X-11985Y-177209D01*
X-11520Y-175750D01*
X-11830Y-174292D01*
X-12605Y-173042D01*
X-14000Y-172208D01*
X-15860Y-171792D01*
X-16945Y-170958D01*
X-17410Y-169500D01*
X-17100Y-168042D01*
X-16325Y-167000D01*
X-15240Y-166375D01*
X-14155D01*
X-13070Y-166792D01*
X-12140Y-167833D01*
G01X6150Y-178875D02*
X10025Y-166375D01*
X13900Y-178875D01*
G01X12505Y-174500D02*
X7545D01*
G01X19325Y-178875D02*
Y-166375D01*
X23200D01*
X24440Y-167000D01*
X25215Y-167833D01*
X25525Y-169500D01*
X25215Y-171167D01*
X24285Y-172208D01*
X23200Y-172833D01*
X19325D01*
G01X23200D02*
X25525Y-178875D01*
G01X37925D02*
X31725D01*
Y-166375D01*
X37925D01*
G01X35445Y-172417D02*
X31725D01*
G01X57765Y-166375D02*
X61485D01*
G01X59625D02*
Y-178875D01*
G01X57765D02*
X61485D01*
G01X68460D02*
Y-166375D01*
X75590Y-178875D01*
Y-166375D01*
G01X92795Y-178875D02*
Y-166375D01*
X96825Y-176792D01*
X100855Y-166375D01*
Y-178875D01*
G01X107365Y-166375D02*
X111085D01*
G01X109225D02*
Y-178875D01*
G01X107365D02*
X111085D01*
G01X118525Y-166375D02*
Y-178875D01*
X124725D01*
G01X130770Y-177209D02*
X132010Y-178250D01*
X133405Y-178875D01*
X134645D01*
X135885Y-178250D01*
X136815Y-177209D01*
X137280Y-175750D01*
X136970Y-174292D01*
X136195Y-173042D01*
X134800Y-172208D01*
X132940Y-171792D01*
X131855Y-170958D01*
X131390Y-169500D01*
X131700Y-168042D01*
X132475Y-167000D01*
X133560Y-166375D01*
X134645D01*
X135730Y-166792D01*
X136660Y-167833D01*
G01X-47325Y-185125D02*
Y-260125D01*
G01X-55750Y-43117D02*
X-56060Y-42908D01*
Y-42492D01*
X-55750Y-42283D01*
X-55440Y-42492D01*
Y-42908D01*
X-55750Y-43117D01*
G01X-41490Y-42700D02*
Y-30200D01*
X-47225Y-39158D01*
X-39475D01*
G01X-30950Y-30200D02*
X-32190Y-30617D01*
X-33120Y-31658D01*
X-33740Y-32908D01*
X-34205Y-34575D01*
X-34360Y-36450D01*
X-34205Y-38325D01*
X-33740Y-39992D01*
X-33120Y-41242D01*
X-32190Y-42283D01*
X-30950Y-42700D01*
X-29710Y-42283D01*
X-28780Y-41242D01*
X-28160Y-39992D01*
X-27695Y-38325D01*
X-27540Y-36450D01*
X-27695Y-34575D01*
X-28160Y-32908D01*
X-28780Y-31658D01*
X-29710Y-30617D01*
X-30950Y-30200D01*
G01X-30000Y-20000D02*
X-53350D01*
G01X-43350Y-20825D02*
Y-20000D01*
G01X-45850Y-5000D02*
X-43350Y-20000D01*
X-40850Y-5000D01*
X-45850D01*
G01X-43350Y-20000D02*
Y20000D01*
G01X-30000D02*
X-53350D01*
G01X-40850Y5000D02*
X-43350Y20000D01*
X-45850Y5000D01*
X-40850D01*
G01X-20000Y-30000D02*
Y-47225D01*
G01X20000Y-37225D02*
X-20000D01*
G01X-5000Y-34725D02*
X-20000Y-37225D01*
X-5000Y-39725D01*
Y-34725D01*
G01X-13983Y-18475D02*
Y-15975D01*
X-13317D01*
X-13103Y-16100D01*
X-12970Y-16267D01*
X-12917Y-16600D01*
X-12970Y-16933D01*
X-13130Y-17142D01*
X-13317Y-17267D01*
X-13983D01*
G01X-13317D02*
X-12917Y-18475D01*
G01X-11837Y-17975D02*
X-11677Y-18267D01*
X-11463Y-18433D01*
X-11223Y-18475D01*
X-11010Y-18433D01*
X-10797Y-18225D01*
X-10663Y-17975D01*
X-10637Y-17725D01*
X-10690Y-17433D01*
X-10877Y-17225D01*
X-11063Y-17142D01*
X-11303D01*
G01X-11063D02*
X-10903Y-17017D01*
X-10770Y-16808D01*
X-10717Y-16558D01*
X-10770Y-16308D01*
X-10903Y-16100D01*
X-11143Y-15975D01*
X-11383Y-16017D01*
X-11623Y-16183D01*
G01X-13958Y-14275D02*
Y-11775D01*
X-13292D01*
X-13078Y-11900D01*
X-12945Y-12067D01*
X-12892Y-12400D01*
X-12945Y-12733D01*
X-13105Y-12942D01*
X-13292Y-13067D01*
X-13958D01*
G01X-13292D02*
X-12892Y-14275D01*
G01X-10905D02*
Y-11775D01*
X-11892Y-13567D01*
X-10558D01*
G01X-20000Y-20000D02*
Y20000D01*
X20000D01*
Y-20000D01*
X-20000D01*
G01X-4510Y10683D02*
X-18290D01*
Y-7033D01*
X-4510D01*
Y10683D01*
G01X-17947Y-4868D02*
X-17907Y-4435D01*
X-17846Y-4068D01*
X-17766Y-3735D01*
X-17666Y-3368D01*
X-17506Y-2868D01*
X-18307D01*
G01X-18287Y-6003D02*
X-18147Y-5769D01*
X-18027Y-5636D01*
X-17866Y-5569D01*
X-17726Y-5636D01*
X-17626Y-5769D01*
X-17546Y-5969D01*
X-17526Y-6203D01*
X-17546Y-6403D01*
X-17626Y-6603D01*
X-17746Y-6769D01*
X-17886Y-6836D01*
X-18047Y-6769D01*
X-18187Y-6569D01*
X-18267Y-6269D01*
X-18287Y-5936D01*
X-18247Y-5503D01*
X-18187Y-5269D01*
X-18087Y-5036D01*
X-17947Y-4869D01*
X-17806Y-4836D01*
X-17666Y-4903D01*
X-17566Y-5069D01*
G01X-16287Y-18505D02*
X-14713D01*
Y-15945D01*
X-16287D01*
Y-18505D01*
G01X-16262Y-14305D02*
X-14688D01*
Y-11745D01*
X-16262D01*
Y-14305D01*
G01X-16442Y18137D02*
X-16567Y17977D01*
X-16650Y17790D01*
Y17577D01*
X-16525Y17337D01*
X-16317Y17150D01*
X-16067Y17017D01*
X-15650Y16910D01*
X-15275Y16883D01*
X-14900Y16937D01*
X-14650Y17017D01*
X-14400Y17177D01*
X-14233Y17363D01*
X-14150Y17550D01*
Y17737D01*
X-14233Y17923D01*
X-14358Y18083D01*
X-14525Y18217D01*
G01X-14150Y19750D02*
X-14192Y19937D01*
X-14317Y20150D01*
X-14525Y20283D01*
X-14817Y20337D01*
X-15108Y20283D01*
X-15358Y20123D01*
X-15483Y19883D01*
Y19617D01*
X-15567Y19457D01*
X-15775Y19323D01*
X-16067Y19270D01*
X-16358Y19350D01*
X-16567Y19537D01*
X-16650Y19750D01*
X-16567Y19963D01*
X-16358Y20150D01*
X-16067Y20230D01*
X-15775Y20177D01*
X-15567Y20043D01*
X-15483Y19883D01*
Y19617D01*
X-15358Y19377D01*
X-15108Y19217D01*
X-14817Y19163D01*
X-14525Y19217D01*
X-14317Y19350D01*
X-14192Y19563D01*
X-14150Y19750D01*
G01X-12592Y18287D02*
X-12717Y18127D01*
X-12800Y17940D01*
Y17727D01*
X-12675Y17487D01*
X-12467Y17300D01*
X-12217Y17167D01*
X-11800Y17060D01*
X-11425Y17033D01*
X-11050Y17087D01*
X-10800Y17167D01*
X-10550Y17327D01*
X-10383Y17513D01*
X-10300Y17700D01*
Y17887D01*
X-10383Y18073D01*
X-10508Y18233D01*
X-10675Y18367D01*
G01X-10592Y19447D02*
X-10383Y19633D01*
X-10300Y19847D01*
X-10383Y20060D01*
X-10633Y20247D01*
X-11008Y20380D01*
X-11383Y20433D01*
X-11842D01*
X-12217Y20380D01*
X-12550Y20247D01*
X-12717Y20087D01*
X-12800Y19900D01*
X-12717Y19687D01*
X-12550Y19527D01*
X-12300Y19420D01*
X-11967Y19367D01*
X-11675Y19420D01*
X-11383Y19553D01*
X-11217Y19713D01*
X-11175Y19900D01*
X-11258Y20113D01*
X-11467Y20273D01*
X-11842Y20433D01*
G01X-12762Y2050D02*
Y258D01*
X-12655Y-117D01*
X-12442Y-367D01*
X-12175Y-450D01*
X-11908Y-367D01*
X-11695Y-117D01*
X-11588Y258D01*
Y2050D01*
G01X-9975Y-450D02*
Y2050D01*
X-10295Y1550D01*
G01Y-450D02*
X-9655D01*
G01X-11006Y7987D02*
X-9006D01*
X-9406Y8227D01*
G01X-11006D02*
Y7746D01*
G01X-10173Y7068D02*
X-9939Y6928D01*
X-9806Y6808D01*
X-9739Y6647D01*
X-9806Y6507D01*
X-9939Y6407D01*
X-10139Y6327D01*
X-10373Y6307D01*
X-10573Y6327D01*
X-10773Y6407D01*
X-10939Y6527D01*
X-11006Y6667D01*
X-10939Y6828D01*
X-10739Y6968D01*
X-10439Y7048D01*
X-10106Y7068D01*
X-9673Y7028D01*
X-9439Y6968D01*
X-9206Y6868D01*
X-9039Y6728D01*
X-9006Y6587D01*
X-9073Y6447D01*
X-9239Y6347D01*
G01X-12975Y7987D02*
X-10975D01*
X-11375Y8227D01*
G01X-12975D02*
Y7746D01*
G01X-12675Y7128D02*
X-12842Y7008D01*
X-12942Y6868D01*
X-12975Y6688D01*
X-12908Y6507D01*
X-12775Y6367D01*
X-12542Y6267D01*
X-12275Y6247D01*
X-12008Y6287D01*
X-11842Y6387D01*
X-11708Y6527D01*
X-11675Y6667D01*
X-11708Y6808D01*
X-11842Y6988D01*
X-10975Y6928D01*
Y6387D01*
G01X-14943Y7987D02*
X-12943D01*
X-13343Y8227D01*
G01X-14943D02*
Y7746D01*
G01Y6447D02*
X-12943D01*
X-14376Y7188D01*
Y6187D01*
G01X-15037Y-3640D02*
X-15204Y-3760D01*
X-15304Y-3900D01*
X-15337Y-4080D01*
X-15270Y-4261D01*
X-15137Y-4401D01*
X-14904Y-4501D01*
X-14637Y-4521D01*
X-14370Y-4481D01*
X-14204Y-4381D01*
X-14070Y-4241D01*
X-14037Y-4101D01*
X-14070Y-3960D01*
X-14204Y-3780D01*
X-13337Y-3840D01*
Y-4381D01*
G01X-12975Y-4321D02*
X-10975D01*
X-12408Y-3580D01*
Y-4581D01*
G01X-10606Y-3640D02*
X-10839Y-3760D01*
X-10973Y-3920D01*
X-11006Y-4101D01*
X-10973Y-4261D01*
X-10806Y-4421D01*
X-10606Y-4521D01*
X-10406Y-4541D01*
X-10173Y-4501D01*
X-10006Y-4361D01*
X-9939Y-4221D01*
Y-4040D01*
G01Y-4221D02*
X-9839Y-4341D01*
X-9673Y-4441D01*
X-9473Y-4481D01*
X-9273Y-4441D01*
X-9106Y-4341D01*
X-9006Y-4161D01*
X-9039Y-3980D01*
X-9173Y-3800D01*
G01X-7764Y-3700D02*
X-7564Y-3820D01*
X-7464Y-3960D01*
X-7431Y-4121D01*
X-7498Y-4321D01*
X-7664Y-4461D01*
X-7864Y-4501D01*
X-8064Y-4481D01*
X-8231Y-4401D01*
X-8564Y-4000D01*
X-8798Y-3820D01*
X-9131Y-3700D01*
X-9431Y-3660D01*
Y-4501D01*
G01X-19206Y8124D02*
Y10124D01*
X-19446Y9724D01*
G01Y8124D02*
X-18965D01*
G01X-18347Y8524D02*
X-18227Y8291D01*
X-18067Y8157D01*
X-17886Y8124D01*
X-17726Y8157D01*
X-17566Y8324D01*
X-17466Y8524D01*
X-17446Y8724D01*
X-17486Y8957D01*
X-17626Y9124D01*
X-17766Y9191D01*
X-17947D01*
G01X-17766D02*
X-17646Y9291D01*
X-17546Y9457D01*
X-17506Y9657D01*
X-17546Y9857D01*
X-17646Y10024D01*
X-17826Y10124D01*
X-18007Y10091D01*
X-18187Y9957D01*
G01X-19206Y6156D02*
Y8156D01*
X-19446Y7756D01*
G01Y6156D02*
X-18965D01*
G01X-18287Y7823D02*
X-18167Y8023D01*
X-18027Y8123D01*
X-17866Y8156D01*
X-17666Y8089D01*
X-17526Y7923D01*
X-17486Y7723D01*
X-17506Y7523D01*
X-17586Y7356D01*
X-17987Y7023D01*
X-18167Y6789D01*
X-18287Y6456D01*
X-18327Y6156D01*
X-17486D01*
G01X-19206Y4187D02*
Y6187D01*
X-19446Y5787D01*
G01Y4187D02*
X-18965D01*
G01X-17907D02*
Y6187D01*
X-18147Y5787D01*
G01Y4187D02*
X-17666D01*
G01X-19599Y2219D02*
Y4219D01*
X-19839Y3819D01*
G01Y2219D02*
X-19358D01*
G01X-18300Y4219D02*
X-18460Y4152D01*
X-18580Y3986D01*
X-18660Y3786D01*
X-18720Y3519D01*
X-18740Y3219D01*
X-18720Y2919D01*
X-18660Y2652D01*
X-18580Y2452D01*
X-18460Y2286D01*
X-18300Y2219D01*
X-18139Y2286D01*
X-18019Y2452D01*
X-17939Y2652D01*
X-17879Y2919D01*
X-17859Y3219D01*
X-17879Y3519D01*
X-17939Y3786D01*
X-18019Y3986D01*
X-18139Y4152D01*
X-18300Y4219D01*
G01X-18640Y89D02*
X-18500Y-77D01*
X-18340Y-144D01*
X-18179Y-77D01*
X-18039Y123D01*
X-17939Y423D01*
X-17899Y723D01*
Y1089D01*
X-17939Y1389D01*
X-18039Y1656D01*
X-18159Y1789D01*
X-18300Y1856D01*
X-18460Y1789D01*
X-18580Y1656D01*
X-18660Y1456D01*
X-18700Y1189D01*
X-18660Y956D01*
X-18560Y723D01*
X-18440Y589D01*
X-18300Y556D01*
X-18139Y623D01*
X-18019Y789D01*
X-17899Y1089D01*
G01X-17907Y-2506D02*
X-17766Y-2473D01*
X-17606Y-2373D01*
X-17506Y-2206D01*
X-17466Y-1973D01*
X-17506Y-1739D01*
X-17626Y-1539D01*
X-17806Y-1439D01*
X-18007D01*
X-18127Y-1373D01*
X-18227Y-1206D01*
X-18267Y-973D01*
X-18207Y-739D01*
X-18067Y-573D01*
X-17907Y-506D01*
X-17746Y-573D01*
X-17606Y-739D01*
X-17546Y-973D01*
X-17586Y-1206D01*
X-17686Y-1373D01*
X-17806Y-1439D01*
X-18007D01*
X-18187Y-1539D01*
X-18307Y-1739D01*
X-18347Y-1973D01*
X-18307Y-2206D01*
X-18207Y-2373D01*
X-18047Y-2473D01*
X-17907Y-2506D01*
G01X-16730Y16412D02*
Y14838D01*
X-14170D01*
Y16412D01*
X-16730D01*
G01X-12955D02*
Y14838D01*
X-10395D01*
Y16412D01*
X-12955D01*
G01X3825Y-191375D02*
Y-203875D01*
G01X260Y-191375D02*
X7390D01*
G01X16225Y-203875D02*
X14985Y-203667D01*
X13900Y-202834D01*
X12970Y-201583D01*
X12350Y-200125D01*
X12040Y-198458D01*
Y-196792D01*
X12350Y-195125D01*
X12970Y-193667D01*
X13900Y-192417D01*
X14985Y-191583D01*
X16225Y-191375D01*
X17465Y-191583D01*
X18550Y-192417D01*
X19480Y-193667D01*
X20100Y-195125D01*
X20410Y-196792D01*
Y-198458D01*
X20100Y-200125D01*
X19480Y-201583D01*
X18550Y-202834D01*
X17465Y-203667D01*
X16225Y-203875D01*
G01X28625D02*
X27385Y-203667D01*
X26300Y-202834D01*
X25370Y-201583D01*
X24750Y-200125D01*
X24440Y-198458D01*
Y-196792D01*
X24750Y-195125D01*
X25370Y-193667D01*
X26300Y-192417D01*
X27385Y-191583D01*
X28625Y-191375D01*
X29865Y-191583D01*
X30950Y-192417D01*
X31880Y-193667D01*
X32500Y-195125D01*
X32810Y-196792D01*
Y-198458D01*
X32500Y-200125D01*
X31880Y-201583D01*
X30950Y-202834D01*
X29865Y-203667D01*
X28625Y-203875D01*
G01X37925Y-191375D02*
Y-203875D01*
X44125D01*
G01X48775Y-208042D02*
X58075D01*
G01X62570Y-202209D02*
X63810Y-203250D01*
X65205Y-203875D01*
X66445D01*
X67685Y-203250D01*
X68615Y-202209D01*
X69080Y-200750D01*
X68770Y-199292D01*
X67995Y-198042D01*
X66600Y-197208D01*
X64740Y-196792D01*
X63655Y-195958D01*
X63190Y-194500D01*
X63500Y-193042D01*
X64275Y-192000D01*
X65360Y-191375D01*
X66445D01*
X67530Y-191792D01*
X68460Y-192833D01*
G01X76365Y-191375D02*
X80085D01*
G01X78225D02*
Y-203875D01*
G01X76365D02*
X80085D01*
G01X87680Y-191375D02*
X93570D01*
X87680Y-203875D01*
X93570D01*
G01X106125D02*
X99925D01*
Y-191375D01*
X106125D01*
G01X103645Y-197417D02*
X99925D01*
G01X23625Y-43892D02*
X23315Y-43683D01*
Y-43267D01*
X23625Y-43058D01*
X23935Y-43267D01*
Y-43683D01*
X23625Y-43892D01*
G01X37885Y-43475D02*
Y-30975D01*
X32150Y-39933D01*
X39900D01*
G01X48425Y-30975D02*
X47185Y-31392D01*
X46255Y-32433D01*
X45635Y-33683D01*
X45170Y-35350D01*
X45015Y-37225D01*
X45170Y-39100D01*
X45635Y-40767D01*
X46255Y-42017D01*
X47185Y-43058D01*
X48425Y-43475D01*
X49665Y-43058D01*
X50595Y-42017D01*
X51215Y-40767D01*
X51680Y-39100D01*
X51835Y-37225D01*
X51680Y-35350D01*
X51215Y-33683D01*
X50595Y-32433D01*
X49665Y-31392D01*
X48425Y-30975D01*
G01X9600Y-37225D02*
X20000D01*
G01X5000Y-39725D02*
X20000Y-37225D01*
X5000Y-34725D01*
Y-39725D01*
G01X-4133Y-18275D02*
Y-15775D01*
X-3467D01*
X-3253Y-15900D01*
X-3120Y-16067D01*
X-3067Y-16400D01*
X-3120Y-16733D01*
X-3280Y-16942D01*
X-3467Y-17067D01*
X-4133D01*
G01X-3467D02*
X-3067Y-18275D01*
G01X-1400D02*
Y-15775D01*
X-1720Y-16275D01*
G01Y-18275D02*
X-1080D01*
G01X-4133Y-14275D02*
Y-11775D01*
X-3467D01*
X-3253Y-11900D01*
X-3120Y-12067D01*
X-3067Y-12400D01*
X-3120Y-12733D01*
X-3280Y-12942D01*
X-3467Y-13067D01*
X-4133D01*
G01X-3467D02*
X-3067Y-14275D01*
G01X-1907Y-12192D02*
X-1747Y-11942D01*
X-1560Y-11817D01*
X-1347Y-11775D01*
X-1080Y-11858D01*
X-893Y-12067D01*
X-840Y-12317D01*
X-867Y-12567D01*
X-973Y-12775D01*
X-1507Y-13192D01*
X-1747Y-13483D01*
X-1907Y-13900D01*
X-1960Y-14275D01*
X-840D01*
G01X3837Y-13758D02*
X3677Y-13633D01*
X3490Y-13550D01*
X3277D01*
X3037Y-13675D01*
X2850Y-13883D01*
X2717Y-14133D01*
X2610Y-14550D01*
X2583Y-14925D01*
X2637Y-15300D01*
X2717Y-15550D01*
X2877Y-15800D01*
X3063Y-15967D01*
X3250Y-16050D01*
X3437D01*
X3623Y-15967D01*
X3783Y-15842D01*
X3917Y-15675D01*
G01X4943Y-15008D02*
X5130Y-14717D01*
X5290Y-14550D01*
X5503Y-14467D01*
X5690Y-14550D01*
X5823Y-14717D01*
X5930Y-14967D01*
X5957Y-15258D01*
X5930Y-15508D01*
X5823Y-15758D01*
X5663Y-15967D01*
X5477Y-16050D01*
X5263Y-15967D01*
X5077Y-15717D01*
X4970Y-15342D01*
X4943Y-14925D01*
X4997Y-14383D01*
X5077Y-14092D01*
X5210Y-13800D01*
X5397Y-13592D01*
X5583Y-13550D01*
X5770Y-13633D01*
X5903Y-13842D01*
G01X9250Y-19950D02*
X58450D01*
Y20250D01*
X9250D01*
Y-19950D01*
G01X14090Y-14850D02*
Y-12850D01*
X13350Y-14283D01*
X14350D01*
G01X13410Y-4450D02*
X13530Y-4683D01*
X13690Y-4817D01*
X13870Y-4850D01*
X14030Y-4817D01*
X14190Y-4650D01*
X14290Y-4450D01*
X14310Y-4250D01*
X14270Y-4017D01*
X14130Y-3850D01*
X13990Y-3783D01*
X13810D01*
G01X13990D02*
X14110Y-3683D01*
X14210Y-3517D01*
X14250Y-3317D01*
X14210Y-3117D01*
X14110Y-2950D01*
X13930Y-2850D01*
X13750Y-2883D01*
X13570Y-3017D01*
G01X-3733Y-6049D02*
Y-4049D01*
X-3973Y-4449D01*
G01Y-6049D02*
X-3492D01*
G01X-4763Y-15895D02*
X-6337D01*
Y-18455D01*
X-4763D01*
Y-15895D01*
G01X-4738Y-11745D02*
X-6312D01*
Y-14305D01*
X-4738D01*
Y-11745D01*
G01X-505Y-13913D02*
Y-15487D01*
X2055D01*
Y-13913D01*
X-505D01*
G01X3287Y6392D02*
X3127Y6517D01*
X2940Y6600D01*
X2727D01*
X2487Y6475D01*
X2300Y6267D01*
X2167Y6017D01*
X2060Y5600D01*
X2033Y5225D01*
X2087Y4850D01*
X2167Y4600D01*
X2327Y4350D01*
X2513Y4183D01*
X2700Y4100D01*
X2887D01*
X3073Y4183D01*
X3233Y4308D01*
X3367Y4475D01*
G01X4847Y4100D02*
X4900Y4642D01*
X4980Y5100D01*
X5087Y5517D01*
X5220Y5975D01*
X5433Y6600D01*
X4367D01*
G01X-8767Y18187D02*
X-8892Y18027D01*
X-8975Y17840D01*
Y17627D01*
X-8850Y17387D01*
X-8642Y17200D01*
X-8392Y17067D01*
X-7975Y16960D01*
X-7600Y16933D01*
X-7225Y16987D01*
X-6975Y17067D01*
X-6725Y17227D01*
X-6558Y17413D01*
X-6475Y17600D01*
Y17787D01*
X-6558Y17973D01*
X-6683Y18133D01*
X-6850Y18267D01*
G01X-6475Y19800D02*
X-8975D01*
X-8475Y19480D01*
G01X-6475D02*
Y20120D01*
G01X-8975Y22000D02*
X-8892Y21787D01*
X-8683Y21627D01*
X-8433Y21520D01*
X-8100Y21440D01*
X-7725Y21413D01*
X-7350Y21440D01*
X-7017Y21520D01*
X-6767Y21627D01*
X-6558Y21787D01*
X-6475Y22000D01*
X-6558Y22213D01*
X-6767Y22373D01*
X-7017Y22480D01*
X-7350Y22560D01*
X-7725Y22587D01*
X-8100Y22560D01*
X-8433Y22480D01*
X-8683Y22373D01*
X-8892Y22213D01*
X-8975Y22000D01*
G01X12717Y12138D02*
X12842Y12298D01*
X12925Y12485D01*
Y12698D01*
X12800Y12938D01*
X12592Y13125D01*
X12342Y13258D01*
X11925Y13365D01*
X11550Y13392D01*
X11175Y13338D01*
X10925Y13258D01*
X10675Y13098D01*
X10508Y12912D01*
X10425Y12725D01*
Y12538D01*
X10508Y12352D01*
X10633Y12192D01*
X10800Y12058D01*
G01X10425Y11138D02*
X12925D01*
X10425Y9912D01*
X12925D01*
G01X10425Y8325D02*
X12925D01*
X12425Y8645D01*
G01X10425D02*
Y8005D01*
G01X13470Y6817D02*
X13590Y7017D01*
X13730Y7117D01*
X13890Y7150D01*
X14090Y7083D01*
X14230Y6917D01*
X14270Y6717D01*
X14250Y6517D01*
X14170Y6350D01*
X13770Y6017D01*
X13590Y5783D01*
X13470Y5450D01*
X13430Y5150D01*
X14270D01*
G01X13850Y15150D02*
Y17150D01*
X13610Y16750D01*
G01Y15150D02*
X14090D01*
G01X-9038Y7987D02*
X-7038D01*
X-7438Y8227D01*
G01X-9038D02*
Y7746D01*
G01Y6728D02*
X-8605Y6688D01*
X-8238Y6627D01*
X-7905Y6547D01*
X-7538Y6447D01*
X-7038Y6287D01*
Y7088D01*
G01X-5412Y-2414D02*
X-5292Y-2214D01*
X-5152Y-2114D01*
X-4991Y-2081D01*
X-4791Y-2148D01*
X-4651Y-2314D01*
X-4611Y-2514D01*
X-4631Y-2714D01*
X-4711Y-2881D01*
X-5112Y-3214D01*
X-5292Y-3448D01*
X-5412Y-3781D01*
X-5452Y-4081D01*
X-4611D01*
G01X-3492D02*
Y-2081D01*
X-4233Y-3514D01*
X-3232D01*
G01X-5412Y-445D02*
X-5292Y-245D01*
X-5152Y-145D01*
X-4991Y-112D01*
X-4791Y-179D01*
X-4651Y-345D01*
X-4611Y-545D01*
X-4631Y-745D01*
X-4711Y-912D01*
X-5112Y-1245D01*
X-5292Y-1479D01*
X-5412Y-1812D01*
X-5452Y-2112D01*
X-4611D01*
G01X-4173Y-1712D02*
X-4053Y-1945D01*
X-3893Y-2079D01*
X-3712Y-2112D01*
X-3552Y-2079D01*
X-3392Y-1912D01*
X-3292Y-1712D01*
X-3272Y-1512D01*
X-3312Y-1279D01*
X-3452Y-1112D01*
X-3592Y-1045D01*
X-3773D01*
G01X-3592D02*
X-3472Y-945D01*
X-3372Y-779D01*
X-3332Y-579D01*
X-3372Y-379D01*
X-3472Y-212D01*
X-3652Y-112D01*
X-3833Y-145D01*
X-4013Y-279D01*
G01X-5412Y1523D02*
X-5292Y1723D01*
X-5152Y1823D01*
X-4991Y1856D01*
X-4791Y1789D01*
X-4651Y1623D01*
X-4611Y1423D01*
X-4631Y1223D01*
X-4711Y1056D01*
X-5112Y723D01*
X-5292Y489D01*
X-5412Y156D01*
X-5452Y-144D01*
X-4611D01*
G01X-4113Y1523D02*
X-3993Y1723D01*
X-3853Y1823D01*
X-3692Y1856D01*
X-3492Y1789D01*
X-3352Y1623D01*
X-3312Y1423D01*
X-3332Y1223D01*
X-3412Y1056D01*
X-3813Y723D01*
X-3993Y489D01*
X-4113Y156D01*
X-4153Y-144D01*
X-3312D01*
G01X-5412Y3886D02*
X-5292Y4086D01*
X-5152Y4186D01*
X-4991Y4219D01*
X-4791Y4152D01*
X-4651Y3986D01*
X-4611Y3786D01*
X-4631Y3586D01*
X-4711Y3419D01*
X-5112Y3086D01*
X-5292Y2852D01*
X-5412Y2519D01*
X-5452Y2219D01*
X-4611D01*
G01X-3733D02*
Y4219D01*
X-3973Y3819D01*
G01Y2219D02*
X-3492D01*
G01X-5412Y5854D02*
X-5292Y6054D01*
X-5152Y6154D01*
X-4991Y6187D01*
X-4791Y6120D01*
X-4651Y5954D01*
X-4611Y5754D01*
X-4631Y5554D01*
X-4711Y5387D01*
X-5112Y5054D01*
X-5292Y4820D01*
X-5412Y4487D01*
X-5452Y4187D01*
X-4611D01*
G01X-3733Y6187D02*
X-3893Y6120D01*
X-4013Y5954D01*
X-4093Y5754D01*
X-4153Y5487D01*
X-4173Y5187D01*
X-4153Y4887D01*
X-4093Y4620D01*
X-4013Y4420D01*
X-3893Y4254D01*
X-3733Y4187D01*
X-3572Y4254D01*
X-3452Y4420D01*
X-3372Y4620D01*
X-3312Y4887D01*
X-3292Y5187D01*
X-3312Y5487D01*
X-3372Y5754D01*
X-3452Y5954D01*
X-3572Y6120D01*
X-3733Y6187D01*
G01X-5426Y6156D02*
Y8156D01*
X-5666Y7756D01*
G01Y6156D02*
X-5185D01*
G01X-4467Y6389D02*
X-4327Y6223D01*
X-4167Y6156D01*
X-4006Y6223D01*
X-3866Y6423D01*
X-3766Y6723D01*
X-3726Y7023D01*
Y7389D01*
X-3766Y7689D01*
X-3866Y7956D01*
X-3986Y8089D01*
X-4127Y8156D01*
X-4287Y8089D01*
X-4407Y7956D01*
X-4487Y7756D01*
X-4527Y7489D01*
X-4487Y7256D01*
X-4387Y7023D01*
X-4267Y6889D01*
X-4127Y6856D01*
X-3966Y6923D01*
X-3846Y7089D01*
X-3726Y7389D01*
G01X-5426Y8518D02*
Y10518D01*
X-5666Y10118D01*
G01Y8518D02*
X-5185D01*
G01X-4127D02*
X-3986Y8551D01*
X-3826Y8651D01*
X-3726Y8818D01*
X-3686Y9051D01*
X-3726Y9285D01*
X-3846Y9485D01*
X-4026Y9585D01*
X-4227D01*
X-4347Y9651D01*
X-4447Y9818D01*
X-4487Y10051D01*
X-4427Y10285D01*
X-4287Y10451D01*
X-4127Y10518D01*
X-3966Y10451D01*
X-3826Y10285D01*
X-3766Y10051D01*
X-3806Y9818D01*
X-3906Y9651D01*
X-4026Y9585D01*
X-4227D01*
X-4407Y9485D01*
X-4527Y9285D01*
X-4567Y9051D01*
X-4527Y8818D01*
X-4427Y8651D01*
X-4267Y8551D01*
X-4127Y8518D01*
G01X-9180Y16412D02*
Y14838D01*
X-6620D01*
Y16412D01*
X-9180D01*
G01X1630Y4538D02*
Y6112D01*
X-930D01*
Y4538D01*
X1630D01*
G01X51410Y-249708D02*
X55440D01*
G01X51410Y-224708D02*
X55440D01*
G01X20000Y-30000D02*
Y-47225D01*
G01X139125Y-88725D02*
X140725D01*
G01X141325D02*
X142925D01*
G01X143525D02*
X145125D01*
G01X145725D02*
X147325D01*
G01X147925D02*
X149525D01*
G01X150125D02*
X151725D01*
G01X152325D02*
X153925D01*
G01X154525D02*
X156125D01*
G01X156725D02*
X158325D01*
G01X158925D02*
X160525D01*
G01X161125D02*
X162725D01*
G01X163325D02*
X164925D01*
G01X165525D02*
X167125D01*
G01X167725D02*
X169325D01*
G01X169925D02*
X171525D01*
G01X172125D02*
X173725D01*
G01X174325D02*
X175925D01*
G01X176525D02*
X178125D01*
G01X178725D02*
X180325D01*
G01X180925D02*
X182525D01*
G01X183125D02*
X184725D01*
G01X185325D02*
X186925D01*
G01X187525D02*
X189125D01*
G01X189725D02*
X191325D01*
G01X191925D02*
X193525D01*
G01X194125D02*
X195725D01*
G01X196325D02*
X197925D01*
G01X154175Y-185125D02*
Y-260125D01*
G01X140438Y-87892D02*
Y-85392D01*
X140972D01*
X141185Y-85517D01*
X141345Y-85684D01*
X141478Y-85934D01*
X141585Y-86225D01*
X141612Y-86642D01*
X141585Y-87059D01*
X141478Y-87350D01*
X141345Y-87600D01*
X141185Y-87767D01*
X140972Y-87892D01*
X140438D01*
G01X143758D02*
X142692D01*
Y-85392D01*
X143758D01*
G01X143332Y-86600D02*
X142692D01*
G01X144865Y-87559D02*
X145078Y-87767D01*
X145318Y-87892D01*
X145532D01*
X145745Y-87767D01*
X145905Y-87559D01*
X145985Y-87267D01*
X145932Y-86975D01*
X145798Y-86725D01*
X145558Y-86559D01*
X145238Y-86475D01*
X145052Y-86309D01*
X144972Y-86017D01*
X145025Y-85725D01*
X145158Y-85517D01*
X145345Y-85392D01*
X145532D01*
X145718Y-85475D01*
X145878Y-85684D01*
G01X147305Y-85392D02*
X147945D01*
G01X147625D02*
Y-87892D01*
G01X147305D02*
X147945D01*
G01X149985Y-86642D02*
X150518D01*
Y-87392D01*
X150358Y-87642D01*
X150172Y-87809D01*
X149905Y-87892D01*
X149638Y-87809D01*
X149452Y-87642D01*
X149292Y-87392D01*
X149185Y-87100D01*
X149132Y-86767D01*
Y-86475D01*
X149185Y-86225D01*
X149292Y-85934D01*
X149452Y-85684D01*
X149612Y-85517D01*
X149825Y-85392D01*
X150012D01*
X150225Y-85475D01*
X150385Y-85642D01*
G01X151412Y-87892D02*
Y-85392D01*
X152638Y-87892D01*
Y-85392D01*
G01X157012Y-85600D02*
X156852Y-85475D01*
X156665Y-85392D01*
X156452D01*
X156212Y-85517D01*
X156025Y-85725D01*
X155892Y-85975D01*
X155785Y-86392D01*
X155758Y-86767D01*
X155812Y-87142D01*
X155892Y-87392D01*
X156052Y-87642D01*
X156238Y-87809D01*
X156425Y-87892D01*
X156612D01*
X156798Y-87809D01*
X156958Y-87684D01*
X157092Y-87517D01*
G01X158092Y-87892D02*
Y-85392D01*
X158758D01*
X158972Y-85517D01*
X159105Y-85684D01*
X159158Y-86017D01*
X159105Y-86350D01*
X158945Y-86559D01*
X158758Y-86684D01*
X158092D01*
G01X158758D02*
X159158Y-87892D01*
G01X160825D02*
X160612Y-87850D01*
X160425Y-87684D01*
X160265Y-87434D01*
X160158Y-87142D01*
X160105Y-86809D01*
Y-86475D01*
X160158Y-86142D01*
X160265Y-85850D01*
X160425Y-85600D01*
X160612Y-85434D01*
X160825Y-85392D01*
X161038Y-85434D01*
X161225Y-85600D01*
X161385Y-85850D01*
X161492Y-86142D01*
X161545Y-86475D01*
Y-86809D01*
X161492Y-87142D01*
X161385Y-87434D01*
X161225Y-87684D01*
X161038Y-87850D01*
X160825Y-87892D01*
G01X162465Y-87559D02*
X162678Y-87767D01*
X162918Y-87892D01*
X163132D01*
X163345Y-87767D01*
X163505Y-87559D01*
X163585Y-87267D01*
X163532Y-86975D01*
X163398Y-86725D01*
X163158Y-86559D01*
X162838Y-86475D01*
X162652Y-86309D01*
X162572Y-86017D01*
X162625Y-85725D01*
X162758Y-85517D01*
X162945Y-85392D01*
X163132D01*
X163318Y-85475D01*
X163478Y-85684D01*
G01X164665Y-87559D02*
X164878Y-87767D01*
X165118Y-87892D01*
X165332D01*
X165545Y-87767D01*
X165705Y-87559D01*
X165785Y-87267D01*
X165732Y-86975D01*
X165598Y-86725D01*
X165358Y-86559D01*
X165038Y-86475D01*
X164852Y-86309D01*
X164772Y-86017D01*
X164825Y-85725D01*
X164958Y-85517D01*
X165145Y-85392D01*
X165332D01*
X165518Y-85475D01*
X165678Y-85684D01*
G01X169065Y-87559D02*
X169278Y-87767D01*
X169518Y-87892D01*
X169732D01*
X169945Y-87767D01*
X170105Y-87559D01*
X170185Y-87267D01*
X170132Y-86975D01*
X169998Y-86725D01*
X169758Y-86559D01*
X169438Y-86475D01*
X169252Y-86309D01*
X169172Y-86017D01*
X169225Y-85725D01*
X169358Y-85517D01*
X169545Y-85392D01*
X169732D01*
X169918Y-85475D01*
X170078Y-85684D01*
G01X172358Y-87892D02*
X171292D01*
Y-85392D01*
X172358D01*
G01X171932Y-86600D02*
X171292D01*
G01X174612Y-85600D02*
X174452Y-85475D01*
X174265Y-85392D01*
X174052D01*
X173812Y-85517D01*
X173625Y-85725D01*
X173492Y-85975D01*
X173385Y-86392D01*
X173358Y-86767D01*
X173412Y-87142D01*
X173492Y-87392D01*
X173652Y-87642D01*
X173838Y-87809D01*
X174025Y-87892D01*
X174212D01*
X174398Y-87809D01*
X174558Y-87684D01*
X174692Y-87517D01*
G01X176225Y-85392D02*
Y-87892D01*
G01X175612Y-85392D02*
X176838D01*
G01X178105D02*
X178745D01*
G01X178425D02*
Y-87892D01*
G01X178105D02*
X178745D01*
G01X180625D02*
X180412Y-87850D01*
X180225Y-87684D01*
X180065Y-87434D01*
X179958Y-87142D01*
X179905Y-86809D01*
Y-86475D01*
X179958Y-86142D01*
X180065Y-85850D01*
X180225Y-85600D01*
X180412Y-85434D01*
X180625Y-85392D01*
X180838Y-85434D01*
X181025Y-85600D01*
X181185Y-85850D01*
X181292Y-86142D01*
X181345Y-86475D01*
Y-86809D01*
X181292Y-87142D01*
X181185Y-87434D01*
X181025Y-87684D01*
X180838Y-87850D01*
X180625Y-87892D01*
G01X182212D02*
Y-85392D01*
X183438Y-87892D01*
Y-85392D01*
G01X187812Y-85600D02*
X187652Y-85475D01*
X187465Y-85392D01*
X187252D01*
X187012Y-85517D01*
X186825Y-85725D01*
X186692Y-85975D01*
X186585Y-86392D01*
X186558Y-86767D01*
X186612Y-87142D01*
X186692Y-87392D01*
X186852Y-87642D01*
X187038Y-87809D01*
X187225Y-87892D01*
X187412D01*
X187598Y-87809D01*
X187758Y-87684D01*
X187892Y-87517D01*
G01X188865Y-87892D02*
Y-85392D01*
G01X189985D02*
Y-87892D01*
G01Y-86642D02*
X188865D01*
G01X190958Y-87892D02*
X191625Y-85392D01*
X192292Y-87892D01*
G01X192052Y-87017D02*
X191198D01*
G01X193292Y-87892D02*
Y-85392D01*
X193958D01*
X194172Y-85517D01*
X194305Y-85684D01*
X194358Y-86017D01*
X194305Y-86350D01*
X194145Y-86559D01*
X193958Y-86684D01*
X193292D01*
G01X193958D02*
X194358Y-87892D01*
G01X196025Y-85392D02*
Y-87892D01*
G01X195412Y-85392D02*
X196638D01*
G01X143225Y-90392D02*
Y-92892D01*
G01X142612Y-90392D02*
X143838D01*
G01X145425Y-92892D02*
X145212Y-92850D01*
X145025Y-92684D01*
X144865Y-92434D01*
X144758Y-92142D01*
X144705Y-91809D01*
Y-91475D01*
X144758Y-91142D01*
X144865Y-90850D01*
X145025Y-90600D01*
X145212Y-90434D01*
X145425Y-90392D01*
X145638Y-90434D01*
X145825Y-90600D01*
X145985Y-90850D01*
X146092Y-91142D01*
X146145Y-91475D01*
Y-91809D01*
X146092Y-92142D01*
X145985Y-92434D01*
X145825Y-92684D01*
X145638Y-92850D01*
X145425Y-92892D01*
G01X147625Y-90392D02*
Y-92892D01*
G01X147012Y-90392D02*
X148238D01*
G01X149158Y-92892D02*
X149825Y-90392D01*
X150492Y-92892D01*
G01X150252Y-92017D02*
X149398D01*
G01X151492Y-90392D02*
Y-92892D01*
X152558D01*
G01X156425Y-90392D02*
Y-92892D01*
G01X155812Y-90392D02*
X157038D01*
G01X158065Y-92892D02*
Y-90392D01*
G01X159185D02*
Y-92892D01*
G01Y-91642D02*
X158065D01*
G01X160505Y-90392D02*
X161145D01*
G01X160825D02*
Y-92892D01*
G01X160505D02*
X161145D01*
G01X163612Y-90600D02*
X163452Y-90475D01*
X163265Y-90392D01*
X163052D01*
X162812Y-90517D01*
X162625Y-90725D01*
X162492Y-90975D01*
X162385Y-91392D01*
X162358Y-91767D01*
X162412Y-92142D01*
X162492Y-92392D01*
X162652Y-92642D01*
X162838Y-92809D01*
X163025Y-92892D01*
X163212D01*
X163398Y-92809D01*
X163558Y-92684D01*
X163692Y-92517D01*
G01X164638Y-92892D02*
Y-90392D01*
G01X165652D02*
X164638Y-91934D01*
G01X165812Y-92892D02*
X165092Y-91225D01*
G01X166812Y-92892D02*
Y-90392D01*
X168038Y-92892D01*
Y-90392D01*
G01X170158Y-92892D02*
X169092D01*
Y-90392D01*
X170158D01*
G01X169732Y-91600D02*
X169092D01*
G01X171265Y-92559D02*
X171478Y-92767D01*
X171718Y-92892D01*
X171932D01*
X172145Y-92767D01*
X172305Y-92559D01*
X172385Y-92267D01*
X172332Y-91975D01*
X172198Y-91725D01*
X171958Y-91559D01*
X171638Y-91475D01*
X171452Y-91309D01*
X171372Y-91017D01*
X171425Y-90725D01*
X171558Y-90517D01*
X171745Y-90392D01*
X171932D01*
X172118Y-90475D01*
X172278Y-90684D01*
G01X173465Y-92559D02*
X173678Y-92767D01*
X173918Y-92892D01*
X174132D01*
X174345Y-92767D01*
X174505Y-92559D01*
X174585Y-92267D01*
X174532Y-91975D01*
X174398Y-91725D01*
X174158Y-91559D01*
X173838Y-91475D01*
X173652Y-91309D01*
X173572Y-91017D01*
X173625Y-90725D01*
X173758Y-90517D01*
X173945Y-90392D01*
X174132D01*
X174318Y-90475D01*
X174478Y-90684D01*
G01X177918Y-90809D02*
X178078Y-90559D01*
X178265Y-90434D01*
X178478Y-90392D01*
X178745Y-90475D01*
X178932Y-90684D01*
X178985Y-90934D01*
X178958Y-91184D01*
X178852Y-91392D01*
X178318Y-91809D01*
X178078Y-92100D01*
X177918Y-92517D01*
X177865Y-92892D01*
X178985D01*
G01X180625D02*
X180812Y-92850D01*
X181025Y-92725D01*
X181158Y-92517D01*
X181212Y-92225D01*
X181158Y-91934D01*
X180998Y-91684D01*
X180758Y-91559D01*
X180492D01*
X180332Y-91475D01*
X180198Y-91267D01*
X180145Y-90975D01*
X180225Y-90684D01*
X180412Y-90475D01*
X180625Y-90392D01*
X180838Y-90475D01*
X181025Y-90684D01*
X181105Y-90975D01*
X181052Y-91267D01*
X180918Y-91475D01*
X180758Y-91559D01*
X180492D01*
X180252Y-91684D01*
X180092Y-91934D01*
X180038Y-92225D01*
X180092Y-92517D01*
X180225Y-92725D01*
X180438Y-92850D01*
X180625Y-92892D01*
G01X182825Y-92975D02*
X182772Y-92934D01*
Y-92850D01*
X182825Y-92809D01*
X182878Y-92850D01*
Y-92934D01*
X182825Y-92975D01*
G01X185025Y-92892D02*
X185212Y-92850D01*
X185425Y-92725D01*
X185558Y-92517D01*
X185612Y-92225D01*
X185558Y-91934D01*
X185398Y-91684D01*
X185158Y-91559D01*
X184892D01*
X184732Y-91475D01*
X184598Y-91267D01*
X184545Y-90975D01*
X184625Y-90684D01*
X184812Y-90475D01*
X185025Y-90392D01*
X185238Y-90475D01*
X185425Y-90684D01*
X185505Y-90975D01*
X185452Y-91267D01*
X185318Y-91475D01*
X185158Y-91559D01*
X184892D01*
X184652Y-91684D01*
X184492Y-91934D01*
X184438Y-92225D01*
X184492Y-92517D01*
X184625Y-92725D01*
X184838Y-92850D01*
X185025Y-92892D01*
G01X188732D02*
Y-90392D01*
X189425Y-92475D01*
X190118Y-90392D01*
Y-92892D01*
G01X191305Y-90392D02*
X191945D01*
G01X191625D02*
Y-92892D01*
G01X191305D02*
X191945D01*
G01X193292Y-90392D02*
Y-92892D01*
X194358D01*
G01X161025Y-70446D02*
Y-15246D01*
X176025D01*
Y-70446D01*
X161025D01*
G01Y-6966D02*
Y48234D01*
X176025D01*
Y-6966D01*
X161025D01*
G01Y56514D02*
Y111714D01*
X176025D01*
Y56514D01*
X161025D01*
G01X167900Y123294D02*
X165400D01*
X165900Y122974D01*
G01X167900D02*
Y123614D01*
G01X167067Y125147D02*
Y125841D01*
G01X167900Y128014D02*
X165400D01*
X167192Y127027D01*
Y128361D01*
G01X183625Y-253875D02*
Y-241375D01*
X187345D01*
X188585Y-242000D01*
X189515Y-243458D01*
X189825Y-245125D01*
X189515Y-246792D01*
X188740Y-248042D01*
X187345Y-248667D01*
X183625D01*
G01X196025Y-241375D02*
Y-253875D01*
X202225D01*
G01X207650D02*
X211525Y-241375D01*
X215400Y-253875D01*
G01X214005Y-249500D02*
X209045D01*
G01X223925Y-241375D02*
Y-253875D01*
G01X220360Y-241375D02*
X227490D01*
G01X239425Y-253875D02*
X233225D01*
Y-241375D01*
X239425D01*
G01X236945Y-247417D02*
X233225D01*
G01X245315Y-253875D02*
Y-241375D01*
X248415D01*
X249655Y-242000D01*
X250585Y-242833D01*
X251360Y-244083D01*
X251980Y-245542D01*
X252135Y-247625D01*
X251980Y-249708D01*
X251360Y-251167D01*
X250585Y-252417D01*
X249655Y-253250D01*
X248415Y-253875D01*
X245315D01*
G01X183625Y-228875D02*
Y-216375D01*
X187345D01*
X188585Y-217000D01*
X189515Y-218458D01*
X189825Y-220125D01*
X189515Y-221792D01*
X188740Y-223042D01*
X187345Y-223667D01*
X183625D01*
G01X196025Y-216375D02*
Y-228875D01*
X202225D01*
G01X207650D02*
X211525Y-216375D01*
X215400Y-228875D01*
G01X214005Y-224500D02*
X209045D01*
G01X223925Y-216375D02*
Y-228875D01*
G01X220360Y-216375D02*
X227490D01*
G01X239425Y-228875D02*
X233225D01*
Y-216375D01*
X239425D01*
G01X236945Y-222417D02*
X233225D01*
G01X245315Y-228875D02*
Y-216375D01*
X248415D01*
X249655Y-217000D01*
X250585Y-217833D01*
X251360Y-219083D01*
X251980Y-220542D01*
X252135Y-222625D01*
X251980Y-224708D01*
X251360Y-226167D01*
X250585Y-227417D01*
X249655Y-228250D01*
X248415Y-228875D01*
X245315D01*
G01X183625Y-203875D02*
Y-191375D01*
X187345D01*
X188585Y-192000D01*
X189515Y-193458D01*
X189825Y-195125D01*
X189515Y-196792D01*
X188740Y-198042D01*
X187345Y-198667D01*
X183625D01*
G01X196025Y-191375D02*
Y-203875D01*
X202225D01*
G01X207650D02*
X211525Y-191375D01*
X215400Y-203875D01*
G01X214005Y-199500D02*
X209045D01*
G01X223925Y-191375D02*
Y-203875D01*
G01X220360Y-191375D02*
X227490D01*
G01X239425Y-203875D02*
X233225D01*
Y-191375D01*
X239425D01*
G01X236945Y-197417D02*
X233225D01*
G01X245315Y-203875D02*
Y-191375D01*
X248415D01*
X249655Y-192000D01*
X250585Y-192833D01*
X251360Y-194083D01*
X251980Y-195542D01*
X252135Y-197625D01*
X251980Y-199708D01*
X251360Y-201167D01*
X250585Y-202417D01*
X249655Y-203250D01*
X248415Y-203875D01*
X245315D01*
G01X178492Y-72086D02*
Y-74586D01*
X179558D01*
G01X181545D02*
Y-72086D01*
X180558Y-73878D01*
X181892D01*
G01X183425Y-74669D02*
X183372Y-74628D01*
Y-74544D01*
X183425Y-74503D01*
X183478Y-74544D01*
Y-74628D01*
X183425Y-74669D01*
G01Y-73544D02*
X183372Y-73503D01*
Y-73419D01*
X183425Y-73378D01*
X183478Y-73419D01*
Y-73503D01*
X183425Y-73544D01*
G01X188038Y-73253D02*
X188145Y-73128D01*
X188225Y-72919D01*
X188278Y-72628D01*
X188225Y-72378D01*
X188118Y-72211D01*
X187932Y-72086D01*
X187212D01*
Y-74586D01*
X188092D01*
X188278Y-74419D01*
X188385Y-74169D01*
X188438Y-73878D01*
X188385Y-73586D01*
X188225Y-73336D01*
X188038Y-73253D01*
X187212D01*
G01X190025Y-74586D02*
X189812Y-74544D01*
X189625Y-74378D01*
X189465Y-74128D01*
X189358Y-73836D01*
X189305Y-73503D01*
Y-73169D01*
X189358Y-72836D01*
X189465Y-72544D01*
X189625Y-72294D01*
X189812Y-72128D01*
X190025Y-72086D01*
X190238Y-72128D01*
X190425Y-72294D01*
X190585Y-72544D01*
X190692Y-72836D01*
X190745Y-73169D01*
Y-73503D01*
X190692Y-73836D01*
X190585Y-74128D01*
X190425Y-74378D01*
X190238Y-74544D01*
X190025Y-74586D01*
G01X192225Y-72086D02*
Y-74586D01*
G01X191612Y-72086D02*
X192838D01*
G01X194425D02*
Y-74586D01*
G01X193812Y-72086D02*
X195038D01*
G01X196625Y-74586D02*
X196412Y-74544D01*
X196225Y-74378D01*
X196065Y-74128D01*
X195958Y-73836D01*
X195905Y-73503D01*
Y-73169D01*
X195958Y-72836D01*
X196065Y-72544D01*
X196225Y-72294D01*
X196412Y-72128D01*
X196625Y-72086D01*
X196838Y-72128D01*
X197025Y-72294D01*
X197185Y-72544D01*
X197292Y-72836D01*
X197345Y-73169D01*
Y-73503D01*
X197292Y-73836D01*
X197185Y-74128D01*
X197025Y-74378D01*
X196838Y-74544D01*
X196625Y-74586D01*
G01X198132D02*
Y-72086D01*
X198825Y-74169D01*
X199518Y-72086D01*
Y-74586D01*
G01X203812Y-72294D02*
X203652Y-72169D01*
X203465Y-72086D01*
X203252D01*
X203012Y-72211D01*
X202825Y-72419D01*
X202692Y-72669D01*
X202585Y-73086D01*
X202558Y-73461D01*
X202612Y-73836D01*
X202692Y-74086D01*
X202852Y-74336D01*
X203038Y-74503D01*
X203225Y-74586D01*
X203412D01*
X203598Y-74503D01*
X203758Y-74378D01*
X203892Y-74211D01*
G01X205425Y-74586D02*
X205212Y-74544D01*
X205025Y-74378D01*
X204865Y-74128D01*
X204758Y-73836D01*
X204705Y-73503D01*
Y-73169D01*
X204758Y-72836D01*
X204865Y-72544D01*
X205025Y-72294D01*
X205212Y-72128D01*
X205425Y-72086D01*
X205638Y-72128D01*
X205825Y-72294D01*
X205985Y-72544D01*
X206092Y-72836D01*
X206145Y-73169D01*
Y-73503D01*
X206092Y-73836D01*
X205985Y-74128D01*
X205825Y-74378D01*
X205638Y-74544D01*
X205425Y-74586D01*
G01X207012D02*
Y-72086D01*
X208238Y-74586D01*
Y-72086D01*
G01X209238Y-74586D02*
Y-72086D01*
X209772D01*
X209985Y-72211D01*
X210145Y-72378D01*
X210278Y-72628D01*
X210385Y-72919D01*
X210412Y-73336D01*
X210385Y-73753D01*
X210278Y-74044D01*
X210145Y-74294D01*
X209985Y-74461D01*
X209772Y-74586D01*
X209238D01*
G01X211438Y-72086D02*
Y-73878D01*
X211545Y-74253D01*
X211758Y-74503D01*
X212025Y-74586D01*
X212292Y-74503D01*
X212505Y-74253D01*
X212612Y-73878D01*
Y-72086D01*
G01X214812Y-72294D02*
X214652Y-72169D01*
X214465Y-72086D01*
X214252D01*
X214012Y-72211D01*
X213825Y-72419D01*
X213692Y-72669D01*
X213585Y-73086D01*
X213558Y-73461D01*
X213612Y-73836D01*
X213692Y-74086D01*
X213852Y-74336D01*
X214038Y-74503D01*
X214225Y-74586D01*
X214412D01*
X214598Y-74503D01*
X214758Y-74378D01*
X214892Y-74211D01*
G01X216425Y-72086D02*
Y-74586D01*
G01X215812Y-72086D02*
X217038D01*
G01X218625Y-74586D02*
X218412Y-74544D01*
X218225Y-74378D01*
X218065Y-74128D01*
X217958Y-73836D01*
X217905Y-73503D01*
Y-73169D01*
X217958Y-72836D01*
X218065Y-72544D01*
X218225Y-72294D01*
X218412Y-72128D01*
X218625Y-72086D01*
X218838Y-72128D01*
X219025Y-72294D01*
X219185Y-72544D01*
X219292Y-72836D01*
X219345Y-73169D01*
Y-73503D01*
X219292Y-73836D01*
X219185Y-74128D01*
X219025Y-74378D01*
X218838Y-74544D01*
X218625Y-74586D01*
G01X220292D02*
Y-72086D01*
X220958D01*
X221172Y-72211D01*
X221305Y-72378D01*
X221358Y-72711D01*
X221305Y-73044D01*
X221145Y-73253D01*
X220958Y-73378D01*
X220292D01*
G01X220958D02*
X221358Y-74586D01*
G01X224878Y-73753D02*
X225572D01*
G01X230212Y-72294D02*
X230052Y-72169D01*
X229865Y-72086D01*
X229652D01*
X229412Y-72211D01*
X229225Y-72419D01*
X229092Y-72669D01*
X228985Y-73086D01*
X228958Y-73461D01*
X229012Y-73836D01*
X229092Y-74086D01*
X229252Y-74336D01*
X229438Y-74503D01*
X229625Y-74586D01*
X229812D01*
X229998Y-74503D01*
X230158Y-74378D01*
X230292Y-74211D01*
G01X231825Y-74586D02*
X231612Y-74544D01*
X231425Y-74378D01*
X231265Y-74128D01*
X231158Y-73836D01*
X231105Y-73503D01*
Y-73169D01*
X231158Y-72836D01*
X231265Y-72544D01*
X231425Y-72294D01*
X231612Y-72128D01*
X231825Y-72086D01*
X232038Y-72128D01*
X232225Y-72294D01*
X232385Y-72544D01*
X232492Y-72836D01*
X232545Y-73169D01*
Y-73503D01*
X232492Y-73836D01*
X232385Y-74128D01*
X232225Y-74378D01*
X232038Y-74544D01*
X231825Y-74586D01*
G01X233492D02*
Y-72086D01*
X234132D01*
X234345Y-72211D01*
X234505Y-72503D01*
X234558Y-72836D01*
X234505Y-73169D01*
X234372Y-73419D01*
X234132Y-73544D01*
X233492D01*
G01X235692Y-74586D02*
Y-72086D01*
X236332D01*
X236545Y-72211D01*
X236705Y-72503D01*
X236758Y-72836D01*
X236705Y-73169D01*
X236572Y-73419D01*
X236332Y-73544D01*
X235692D01*
G01X238958Y-74586D02*
X237892D01*
Y-72086D01*
X238958D01*
G01X238532Y-73294D02*
X237892D01*
G01X240092Y-74586D02*
Y-72086D01*
X240758D01*
X240972Y-72211D01*
X241105Y-72378D01*
X241158Y-72711D01*
X241105Y-73044D01*
X240945Y-73253D01*
X240758Y-73378D01*
X240092D01*
G01X240758D02*
X241158Y-74586D01*
G01X245025D02*
Y-72086D01*
X244705Y-72586D01*
G01Y-74586D02*
X245345D01*
G01X247225Y-74669D02*
X247172Y-74628D01*
Y-74544D01*
X247225Y-74503D01*
X247278Y-74544D01*
Y-74628D01*
X247225Y-74669D01*
G01X248918Y-72503D02*
X249078Y-72253D01*
X249265Y-72128D01*
X249478Y-72086D01*
X249745Y-72169D01*
X249932Y-72378D01*
X249985Y-72628D01*
X249958Y-72878D01*
X249852Y-73086D01*
X249318Y-73503D01*
X249078Y-73794D01*
X248918Y-74211D01*
X248865Y-74586D01*
X249985D01*
G01X253132D02*
Y-72086D01*
X253825Y-74169D01*
X254518Y-72086D01*
Y-74586D01*
G01X255705Y-72086D02*
X256345D01*
G01X256025D02*
Y-74586D01*
G01X255705D02*
X256345D01*
G01X257692Y-72086D02*
Y-74586D01*
X258758D01*
G01X182838Y-82142D02*
X184012Y-80309D01*
G01X183425Y-79976D02*
Y-82476D01*
G01X184012Y-82142D02*
X182838Y-80309D01*
G01X182625Y-81226D02*
X184225D01*
G01X189465Y-81726D02*
X189678Y-81934D01*
X189918Y-82059D01*
X190132D01*
X190345Y-81934D01*
X190505Y-81726D01*
X190585Y-81434D01*
X190532Y-81142D01*
X190398Y-80892D01*
X190158Y-80726D01*
X189838Y-80642D01*
X189652Y-80476D01*
X189572Y-80184D01*
X189625Y-79892D01*
X189758Y-79684D01*
X189945Y-79559D01*
X190132D01*
X190318Y-79642D01*
X190478Y-79851D01*
G01X191638Y-79559D02*
Y-81351D01*
X191745Y-81726D01*
X191958Y-81976D01*
X192225Y-82059D01*
X192492Y-81976D01*
X192705Y-81726D01*
X192812Y-81351D01*
Y-79559D01*
G01X193892Y-82059D02*
Y-79559D01*
X194558D01*
X194772Y-79684D01*
X194905Y-79851D01*
X194958Y-80184D01*
X194905Y-80517D01*
X194745Y-80726D01*
X194558Y-80851D01*
X193892D01*
G01X194558D02*
X194958Y-82059D01*
G01X196118D02*
Y-79559D01*
X197132D01*
G01X196758Y-80767D02*
X196118D01*
G01X198158Y-82059D02*
X198825Y-79559D01*
X199492Y-82059D01*
G01X199252Y-81184D02*
X198398D01*
G01X201612Y-79767D02*
X201452Y-79642D01*
X201265Y-79559D01*
X201052D01*
X200812Y-79684D01*
X200625Y-79892D01*
X200492Y-80142D01*
X200385Y-80559D01*
X200358Y-80934D01*
X200412Y-81309D01*
X200492Y-81559D01*
X200652Y-81809D01*
X200838Y-81976D01*
X201025Y-82059D01*
X201212D01*
X201398Y-81976D01*
X201558Y-81851D01*
X201692Y-81684D01*
G01X203758Y-82059D02*
X202692D01*
Y-79559D01*
X203758D01*
G01X203332Y-80767D02*
X202692D01*
G01X207278Y-81226D02*
X207972D01*
G01X211358Y-82059D02*
X212025Y-79559D01*
X212692Y-82059D01*
G01X212452Y-81184D02*
X211598D01*
G01X213905Y-79559D02*
X214545D01*
G01X214225D02*
Y-82059D01*
G01X213905D02*
X214545D01*
G01X215892D02*
Y-79559D01*
X216558D01*
X216772Y-79684D01*
X216905Y-79851D01*
X216958Y-80184D01*
X216905Y-80517D01*
X216745Y-80726D01*
X216558Y-80851D01*
X215892D01*
G01X216558D02*
X216958Y-82059D01*
G01X220825Y-79559D02*
X220612Y-79642D01*
X220452Y-79851D01*
X220345Y-80101D01*
X220265Y-80434D01*
X220238Y-80809D01*
X220265Y-81184D01*
X220345Y-81517D01*
X220452Y-81767D01*
X220612Y-81976D01*
X220825Y-82059D01*
X221038Y-81976D01*
X221198Y-81767D01*
X221305Y-81517D01*
X221385Y-81184D01*
X221412Y-80809D01*
X221385Y-80434D01*
X221305Y-80101D01*
X221198Y-79851D01*
X221038Y-79642D01*
X220825Y-79559D01*
G01X224532Y-82059D02*
Y-79559D01*
X225225Y-81642D01*
X225918Y-79559D01*
Y-82059D01*
G01X227105Y-79559D02*
X227745D01*
G01X227425D02*
Y-82059D01*
G01X227105D02*
X227745D01*
G01X229092Y-79559D02*
Y-82059D01*
X230158D01*
G01X182838Y-42929D02*
X184012Y-41096D01*
G01X183425Y-40763D02*
Y-43263D01*
G01X184012Y-42929D02*
X182838Y-41096D01*
G01X182625Y-42013D02*
X184225D01*
G01X189438Y-42846D02*
Y-40346D01*
X189972D01*
X190185Y-40471D01*
X190345Y-40638D01*
X190478Y-40888D01*
X190585Y-41179D01*
X190612Y-41596D01*
X190585Y-42013D01*
X190478Y-42304D01*
X190345Y-42554D01*
X190185Y-42721D01*
X189972Y-42846D01*
X189438D01*
G01X191905Y-40346D02*
X192545D01*
G01X192225D02*
Y-42846D01*
G01X191905D02*
X192545D01*
G01X194958D02*
X193892D01*
Y-40346D01*
X194958D01*
G01X194532Y-41554D02*
X193892D01*
G01X196092Y-40346D02*
Y-42846D01*
X197158D01*
G01X199358D02*
X198292D01*
Y-40346D01*
X199358D01*
G01X198932Y-41554D02*
X198292D01*
G01X201612Y-40554D02*
X201452Y-40429D01*
X201265Y-40346D01*
X201052D01*
X200812Y-40471D01*
X200625Y-40679D01*
X200492Y-40929D01*
X200385Y-41346D01*
X200358Y-41721D01*
X200412Y-42096D01*
X200492Y-42346D01*
X200652Y-42596D01*
X200838Y-42763D01*
X201025Y-42846D01*
X201212D01*
X201398Y-42763D01*
X201558Y-42638D01*
X201692Y-42471D01*
G01X203225Y-40346D02*
Y-42846D01*
G01X202612Y-40346D02*
X203838D01*
G01X204892Y-42846D02*
Y-40346D01*
X205558D01*
X205772Y-40471D01*
X205905Y-40638D01*
X205958Y-40971D01*
X205905Y-41304D01*
X205745Y-41513D01*
X205558Y-41638D01*
X204892D01*
G01X205558D02*
X205958Y-42846D01*
G01X207305Y-40346D02*
X207945D01*
G01X207625D02*
Y-42846D01*
G01X207305D02*
X207945D01*
G01X210412Y-40554D02*
X210252Y-40429D01*
X210065Y-40346D01*
X209852D01*
X209612Y-40471D01*
X209425Y-40679D01*
X209292Y-40929D01*
X209185Y-41346D01*
X209158Y-41721D01*
X209212Y-42096D01*
X209292Y-42346D01*
X209452Y-42596D01*
X209638Y-42763D01*
X209825Y-42846D01*
X210012D01*
X210198Y-42763D01*
X210358Y-42638D01*
X210492Y-42471D01*
G01X213878Y-42013D02*
X214572D01*
G01X218118Y-42846D02*
Y-40346D01*
X219132D01*
G01X218758Y-41554D02*
X218118D01*
G01X220292Y-42846D02*
Y-40346D01*
X220958D01*
X221172Y-40471D01*
X221305Y-40638D01*
X221358Y-40971D01*
X221305Y-41304D01*
X221145Y-41513D01*
X220958Y-41638D01*
X220292D01*
G01X220958D02*
X221358Y-42846D01*
G01X222678Y-42013D02*
X223372D01*
G01X225545Y-42846D02*
Y-40346D01*
X224558Y-42138D01*
X225892D01*
G01X229625Y-42846D02*
X229812Y-42804D01*
X230025Y-42679D01*
X230158Y-42471D01*
X230212Y-42179D01*
X230158Y-41888D01*
X229998Y-41638D01*
X229758Y-41513D01*
X229492D01*
X229332Y-41429D01*
X229198Y-41221D01*
X229145Y-40929D01*
X229225Y-40638D01*
X229412Y-40429D01*
X229625Y-40346D01*
X229838Y-40429D01*
X230025Y-40638D01*
X230105Y-40929D01*
X230052Y-41221D01*
X229918Y-41429D01*
X229758Y-41513D01*
X229492D01*
X229252Y-41638D01*
X229092Y-41888D01*
X229038Y-42179D01*
X229092Y-42471D01*
X229225Y-42679D01*
X229438Y-42804D01*
X229625Y-42846D01*
G01X233332D02*
Y-40346D01*
X234025Y-42429D01*
X234718Y-40346D01*
Y-42846D01*
G01X235905Y-40346D02*
X236545D01*
G01X236225D02*
Y-42846D01*
G01X235905D02*
X236545D01*
G01X237892Y-40346D02*
Y-42846D01*
X238958D01*
G01X178492Y-8606D02*
Y-11106D01*
X179558D01*
G01X180638Y-10606D02*
X180798Y-10898D01*
X181012Y-11064D01*
X181252Y-11106D01*
X181465Y-11064D01*
X181678Y-10856D01*
X181812Y-10606D01*
X181838Y-10356D01*
X181785Y-10064D01*
X181598Y-9856D01*
X181412Y-9773D01*
X181172D01*
G01X181412D02*
X181572Y-9648D01*
X181705Y-9439D01*
X181758Y-9189D01*
X181705Y-8939D01*
X181572Y-8731D01*
X181332Y-8606D01*
X181092Y-8648D01*
X180852Y-8814D01*
G01X183425Y-11189D02*
X183372Y-11148D01*
Y-11064D01*
X183425Y-11023D01*
X183478Y-11064D01*
Y-11148D01*
X183425Y-11189D01*
G01Y-10064D02*
X183372Y-10023D01*
Y-9939D01*
X183425Y-9898D01*
X183478Y-9939D01*
Y-10023D01*
X183425Y-10064D01*
G01X187238Y-10606D02*
X187398Y-10898D01*
X187612Y-11064D01*
X187852Y-11106D01*
X188065Y-11064D01*
X188278Y-10856D01*
X188412Y-10606D01*
X188438Y-10356D01*
X188385Y-10064D01*
X188198Y-9856D01*
X188012Y-9773D01*
X187772D01*
G01X188012D02*
X188172Y-9648D01*
X188305Y-9439D01*
X188358Y-9189D01*
X188305Y-8939D01*
X188172Y-8731D01*
X187932Y-8606D01*
X187692Y-8648D01*
X187452Y-8814D01*
G01X189358Y-8606D02*
X190025Y-11106D01*
X190692Y-8606D01*
G01X191638Y-10606D02*
X191798Y-10898D01*
X192012Y-11064D01*
X192252Y-11106D01*
X192465Y-11064D01*
X192678Y-10856D01*
X192812Y-10606D01*
X192838Y-10356D01*
X192785Y-10064D01*
X192598Y-9856D01*
X192412Y-9773D01*
X192172D01*
G01X192412D02*
X192572Y-9648D01*
X192705Y-9439D01*
X192758Y-9189D01*
X192705Y-8939D01*
X192572Y-8731D01*
X192332Y-8606D01*
X192092Y-8648D01*
X191852Y-8814D01*
G01X196092Y-11106D02*
Y-8606D01*
X196732D01*
X196945Y-8731D01*
X197105Y-9023D01*
X197158Y-9356D01*
X197105Y-9689D01*
X196972Y-9939D01*
X196732Y-10064D01*
X196092D01*
G01X198292Y-8606D02*
Y-11106D01*
X199358D01*
G01X200358D02*
X201025Y-8606D01*
X201692Y-11106D01*
G01X201452Y-10231D02*
X200598D01*
G01X202612Y-11106D02*
Y-8606D01*
X203838Y-11106D01*
Y-8606D01*
G01X205958Y-11106D02*
X204892D01*
Y-8606D01*
X205958D01*
G01X205532Y-9814D02*
X204892D01*
G01X209478Y-10273D02*
X210172D01*
G01X214812Y-8814D02*
X214652Y-8689D01*
X214465Y-8606D01*
X214252D01*
X214012Y-8731D01*
X213825Y-8939D01*
X213692Y-9189D01*
X213585Y-9606D01*
X213558Y-9981D01*
X213612Y-10356D01*
X213692Y-10606D01*
X213852Y-10856D01*
X214038Y-11023D01*
X214225Y-11106D01*
X214412D01*
X214598Y-11023D01*
X214758Y-10898D01*
X214892Y-10731D01*
G01X216425Y-11106D02*
X216212Y-11064D01*
X216025Y-10898D01*
X215865Y-10648D01*
X215758Y-10356D01*
X215705Y-10023D01*
Y-9689D01*
X215758Y-9356D01*
X215865Y-9064D01*
X216025Y-8814D01*
X216212Y-8648D01*
X216425Y-8606D01*
X216638Y-8648D01*
X216825Y-8814D01*
X216985Y-9064D01*
X217092Y-9356D01*
X217145Y-9689D01*
Y-10023D01*
X217092Y-10356D01*
X216985Y-10648D01*
X216825Y-10898D01*
X216638Y-11064D01*
X216425Y-11106D01*
G01X218092D02*
Y-8606D01*
X218732D01*
X218945Y-8731D01*
X219105Y-9023D01*
X219158Y-9356D01*
X219105Y-9689D01*
X218972Y-9939D01*
X218732Y-10064D01*
X218092D01*
G01X220292Y-11106D02*
Y-8606D01*
X220932D01*
X221145Y-8731D01*
X221305Y-9023D01*
X221358Y-9356D01*
X221305Y-9689D01*
X221172Y-9939D01*
X220932Y-10064D01*
X220292D01*
G01X223558Y-11106D02*
X222492D01*
Y-8606D01*
X223558D01*
G01X223132Y-9814D02*
X222492D01*
G01X224692Y-11106D02*
Y-8606D01*
X225358D01*
X225572Y-8731D01*
X225705Y-8898D01*
X225758Y-9231D01*
X225705Y-9564D01*
X225545Y-9773D01*
X225358Y-9898D01*
X224692D01*
G01X225358D02*
X225758Y-11106D01*
G01X229625D02*
Y-8606D01*
X229305Y-9106D01*
G01Y-11106D02*
X229945D01*
G01X231825Y-11189D02*
X231772Y-11148D01*
Y-11064D01*
X231825Y-11023D01*
X231878Y-11064D01*
Y-11148D01*
X231825Y-11189D01*
G01X233518Y-9023D02*
X233678Y-8773D01*
X233865Y-8648D01*
X234078Y-8606D01*
X234345Y-8689D01*
X234532Y-8898D01*
X234585Y-9148D01*
X234558Y-9398D01*
X234452Y-9606D01*
X233918Y-10023D01*
X233678Y-10314D01*
X233518Y-10731D01*
X233465Y-11106D01*
X234585D01*
G01X237732D02*
Y-8606D01*
X238425Y-10689D01*
X239118Y-8606D01*
Y-11106D01*
G01X240305Y-8606D02*
X240945D01*
G01X240625D02*
Y-11106D01*
G01X240305D02*
X240945D01*
G01X242292Y-8606D02*
Y-11106D01*
X243358D01*
G01X182838Y20551D02*
X184012Y22384D01*
G01X183425Y22717D02*
Y20217D01*
G01X184012Y20551D02*
X182838Y22384D01*
G01X182625Y21467D02*
X184225D01*
G01X189438Y20634D02*
Y23134D01*
X189972D01*
X190185Y23009D01*
X190345Y22842D01*
X190478Y22592D01*
X190585Y22301D01*
X190612Y21884D01*
X190585Y21467D01*
X190478Y21176D01*
X190345Y20926D01*
X190185Y20759D01*
X189972Y20634D01*
X189438D01*
G01X191905Y23134D02*
X192545D01*
G01X192225D02*
Y20634D01*
G01X191905D02*
X192545D01*
G01X194958D02*
X193892D01*
Y23134D01*
X194958D01*
G01X194532Y21926D02*
X193892D01*
G01X196092Y23134D02*
Y20634D01*
X197158D01*
G01X199358D02*
X198292D01*
Y23134D01*
X199358D01*
G01X198932Y21926D02*
X198292D01*
G01X201612Y22926D02*
X201452Y23051D01*
X201265Y23134D01*
X201052D01*
X200812Y23009D01*
X200625Y22801D01*
X200492Y22551D01*
X200385Y22134D01*
X200358Y21759D01*
X200412Y21384D01*
X200492Y21134D01*
X200652Y20884D01*
X200838Y20717D01*
X201025Y20634D01*
X201212D01*
X201398Y20717D01*
X201558Y20842D01*
X201692Y21009D01*
G01X203225Y23134D02*
Y20634D01*
G01X202612Y23134D02*
X203838D01*
G01X204892Y20634D02*
Y23134D01*
X205558D01*
X205772Y23009D01*
X205905Y22842D01*
X205958Y22509D01*
X205905Y22176D01*
X205745Y21967D01*
X205558Y21842D01*
X204892D01*
G01X205558D02*
X205958Y20634D01*
G01X207305Y23134D02*
X207945D01*
G01X207625D02*
Y20634D01*
G01X207305D02*
X207945D01*
G01X210412Y22926D02*
X210252Y23051D01*
X210065Y23134D01*
X209852D01*
X209612Y23009D01*
X209425Y22801D01*
X209292Y22551D01*
X209185Y22134D01*
X209158Y21759D01*
X209212Y21384D01*
X209292Y21134D01*
X209452Y20884D01*
X209638Y20717D01*
X209825Y20634D01*
X210012D01*
X210198Y20717D01*
X210358Y20842D01*
X210492Y21009D01*
G01X213878Y21467D02*
X214572D01*
G01X218118Y20634D02*
Y23134D01*
X219132D01*
G01X218758Y21926D02*
X218118D01*
G01X220292Y20634D02*
Y23134D01*
X220958D01*
X221172Y23009D01*
X221305Y22842D01*
X221358Y22509D01*
X221305Y22176D01*
X221145Y21967D01*
X220958Y21842D01*
X220292D01*
G01X220958D02*
X221358Y20634D01*
G01X222678Y21467D02*
X223372D01*
G01X225545Y20634D02*
Y23134D01*
X224558Y21342D01*
X225892D01*
G01X229625Y20634D02*
X229812Y20676D01*
X230025Y20801D01*
X230158Y21009D01*
X230212Y21301D01*
X230158Y21592D01*
X229998Y21842D01*
X229758Y21967D01*
X229492D01*
X229332Y22051D01*
X229198Y22259D01*
X229145Y22551D01*
X229225Y22842D01*
X229412Y23051D01*
X229625Y23134D01*
X229838Y23051D01*
X230025Y22842D01*
X230105Y22551D01*
X230052Y22259D01*
X229918Y22051D01*
X229758Y21967D01*
X229492D01*
X229252Y21842D01*
X229092Y21592D01*
X229038Y21301D01*
X229092Y21009D01*
X229225Y20801D01*
X229438Y20676D01*
X229625Y20634D01*
G01X233332D02*
Y23134D01*
X234025Y21051D01*
X234718Y23134D01*
Y20634D01*
G01X235905Y23134D02*
X236545D01*
G01X236225D02*
Y20634D01*
G01X235905D02*
X236545D01*
G01X237892Y23134D02*
Y20634D01*
X238958D01*
G01X178492Y54874D02*
Y52374D01*
X179558D01*
G01X180718Y54457D02*
X180878Y54707D01*
X181065Y54832D01*
X181278Y54874D01*
X181545Y54791D01*
X181732Y54582D01*
X181785Y54332D01*
X181758Y54082D01*
X181652Y53874D01*
X181118Y53457D01*
X180878Y53166D01*
X180718Y52749D01*
X180665Y52374D01*
X181785D01*
G01X183425Y52291D02*
X183372Y52332D01*
Y52416D01*
X183425Y52457D01*
X183478Y52416D01*
Y52332D01*
X183425Y52291D01*
G01Y53416D02*
X183372Y53457D01*
Y53541D01*
X183425Y53582D01*
X183478Y53541D01*
Y53457D01*
X183425Y53416D01*
G01X187985Y53624D02*
X188518D01*
Y52874D01*
X188358Y52624D01*
X188172Y52457D01*
X187905Y52374D01*
X187638Y52457D01*
X187452Y52624D01*
X187292Y52874D01*
X187185Y53166D01*
X187132Y53499D01*
Y53791D01*
X187185Y54041D01*
X187292Y54332D01*
X187452Y54582D01*
X187612Y54749D01*
X187825Y54874D01*
X188012D01*
X188225Y54791D01*
X188385Y54624D01*
G01X189412Y52374D02*
Y54874D01*
X190638Y52374D01*
Y54874D01*
G01X191638Y52374D02*
Y54874D01*
X192172D01*
X192385Y54749D01*
X192545Y54582D01*
X192678Y54332D01*
X192785Y54041D01*
X192812Y53624D01*
X192785Y53207D01*
X192678Y52916D01*
X192545Y52666D01*
X192385Y52499D01*
X192172Y52374D01*
X191638D01*
G01X196092D02*
Y54874D01*
X196732D01*
X196945Y54749D01*
X197105Y54457D01*
X197158Y54124D01*
X197105Y53791D01*
X196972Y53541D01*
X196732Y53416D01*
X196092D01*
G01X198292Y54874D02*
Y52374D01*
X199358D01*
G01X200358D02*
X201025Y54874D01*
X201692Y52374D01*
G01X201452Y53249D02*
X200598D01*
G01X202612Y52374D02*
Y54874D01*
X203838Y52374D01*
Y54874D01*
G01X205958Y52374D02*
X204892D01*
Y54874D01*
X205958D01*
G01X205532Y53666D02*
X204892D01*
G01X209478Y53207D02*
X210172D01*
G01X214812Y54666D02*
X214652Y54791D01*
X214465Y54874D01*
X214252D01*
X214012Y54749D01*
X213825Y54541D01*
X213692Y54291D01*
X213585Y53874D01*
X213558Y53499D01*
X213612Y53124D01*
X213692Y52874D01*
X213852Y52624D01*
X214038Y52457D01*
X214225Y52374D01*
X214412D01*
X214598Y52457D01*
X214758Y52582D01*
X214892Y52749D01*
G01X216425Y52374D02*
X216212Y52416D01*
X216025Y52582D01*
X215865Y52832D01*
X215758Y53124D01*
X215705Y53457D01*
Y53791D01*
X215758Y54124D01*
X215865Y54416D01*
X216025Y54666D01*
X216212Y54832D01*
X216425Y54874D01*
X216638Y54832D01*
X216825Y54666D01*
X216985Y54416D01*
X217092Y54124D01*
X217145Y53791D01*
Y53457D01*
X217092Y53124D01*
X216985Y52832D01*
X216825Y52582D01*
X216638Y52416D01*
X216425Y52374D01*
G01X218092D02*
Y54874D01*
X218732D01*
X218945Y54749D01*
X219105Y54457D01*
X219158Y54124D01*
X219105Y53791D01*
X218972Y53541D01*
X218732Y53416D01*
X218092D01*
G01X220292Y52374D02*
Y54874D01*
X220932D01*
X221145Y54749D01*
X221305Y54457D01*
X221358Y54124D01*
X221305Y53791D01*
X221172Y53541D01*
X220932Y53416D01*
X220292D01*
G01X223558Y52374D02*
X222492D01*
Y54874D01*
X223558D01*
G01X223132Y53666D02*
X222492D01*
G01X224692Y52374D02*
Y54874D01*
X225358D01*
X225572Y54749D01*
X225705Y54582D01*
X225758Y54249D01*
X225705Y53916D01*
X225545Y53707D01*
X225358Y53582D01*
X224692D01*
G01X225358D02*
X225758Y52374D01*
G01X229625D02*
Y54874D01*
X229305Y54374D01*
G01Y52374D02*
X229945D01*
G01X231825Y52291D02*
X231772Y52332D01*
Y52416D01*
X231825Y52457D01*
X231878Y52416D01*
Y52332D01*
X231825Y52291D01*
G01X233518Y54457D02*
X233678Y54707D01*
X233865Y54832D01*
X234078Y54874D01*
X234345Y54791D01*
X234532Y54582D01*
X234585Y54332D01*
X234558Y54082D01*
X234452Y53874D01*
X233918Y53457D01*
X233678Y53166D01*
X233518Y52749D01*
X233465Y52374D01*
X234585D01*
G01X237732D02*
Y54874D01*
X238425Y52791D01*
X239118Y54874D01*
Y52374D01*
G01X240305Y54874D02*
X240945D01*
G01X240625D02*
Y52374D01*
G01X240305D02*
X240945D01*
G01X242292Y54874D02*
Y52374D01*
X243358D01*
G01X182838Y84031D02*
X184012Y85864D01*
G01X183425Y86197D02*
Y83697D01*
G01X184012Y84031D02*
X182838Y85864D01*
G01X182625Y84947D02*
X184225D01*
G01X189438Y84114D02*
Y86614D01*
X189972D01*
X190185Y86489D01*
X190345Y86322D01*
X190478Y86072D01*
X190585Y85781D01*
X190612Y85364D01*
X190585Y84947D01*
X190478Y84656D01*
X190345Y84406D01*
X190185Y84239D01*
X189972Y84114D01*
X189438D01*
G01X191905Y86614D02*
X192545D01*
G01X192225D02*
Y84114D01*
G01X191905D02*
X192545D01*
G01X194958D02*
X193892D01*
Y86614D01*
X194958D01*
G01X194532Y85406D02*
X193892D01*
G01X196092Y86614D02*
Y84114D01*
X197158D01*
G01X199358D02*
X198292D01*
Y86614D01*
X199358D01*
G01X198932Y85406D02*
X198292D01*
G01X201612Y86406D02*
X201452Y86531D01*
X201265Y86614D01*
X201052D01*
X200812Y86489D01*
X200625Y86281D01*
X200492Y86031D01*
X200385Y85614D01*
X200358Y85239D01*
X200412Y84864D01*
X200492Y84614D01*
X200652Y84364D01*
X200838Y84197D01*
X201025Y84114D01*
X201212D01*
X201398Y84197D01*
X201558Y84322D01*
X201692Y84489D01*
G01X203225Y86614D02*
Y84114D01*
G01X202612Y86614D02*
X203838D01*
G01X204892Y84114D02*
Y86614D01*
X205558D01*
X205772Y86489D01*
X205905Y86322D01*
X205958Y85989D01*
X205905Y85656D01*
X205745Y85447D01*
X205558Y85322D01*
X204892D01*
G01X205558D02*
X205958Y84114D01*
G01X207305Y86614D02*
X207945D01*
G01X207625D02*
Y84114D01*
G01X207305D02*
X207945D01*
G01X210412Y86406D02*
X210252Y86531D01*
X210065Y86614D01*
X209852D01*
X209612Y86489D01*
X209425Y86281D01*
X209292Y86031D01*
X209185Y85614D01*
X209158Y85239D01*
X209212Y84864D01*
X209292Y84614D01*
X209452Y84364D01*
X209638Y84197D01*
X209825Y84114D01*
X210012D01*
X210198Y84197D01*
X210358Y84322D01*
X210492Y84489D01*
G01X213878Y84947D02*
X214572D01*
G01X218118Y84114D02*
Y86614D01*
X219132D01*
G01X218758Y85406D02*
X218118D01*
G01X220292Y84114D02*
Y86614D01*
X220958D01*
X221172Y86489D01*
X221305Y86322D01*
X221358Y85989D01*
X221305Y85656D01*
X221145Y85447D01*
X220958Y85322D01*
X220292D01*
G01X220958D02*
X221358Y84114D01*
G01X222678Y84947D02*
X223372D01*
G01X225545Y84114D02*
Y86614D01*
X224558Y84822D01*
X225892D01*
G01X229625Y84114D02*
X229812Y84156D01*
X230025Y84281D01*
X230158Y84489D01*
X230212Y84781D01*
X230158Y85072D01*
X229998Y85322D01*
X229758Y85447D01*
X229492D01*
X229332Y85531D01*
X229198Y85739D01*
X229145Y86031D01*
X229225Y86322D01*
X229412Y86531D01*
X229625Y86614D01*
X229838Y86531D01*
X230025Y86322D01*
X230105Y86031D01*
X230052Y85739D01*
X229918Y85531D01*
X229758Y85447D01*
X229492D01*
X229252Y85322D01*
X229092Y85072D01*
X229038Y84781D01*
X229092Y84489D01*
X229225Y84281D01*
X229438Y84156D01*
X229625Y84114D01*
G01X233332D02*
Y86614D01*
X234025Y84531D01*
X234718Y86614D01*
Y84114D01*
G01X235905Y86614D02*
X236545D01*
G01X236225D02*
Y84114D01*
G01X235905D02*
X236545D01*
G01X237892Y86614D02*
Y84114D01*
X238958D01*
G01X182838Y120744D02*
X184012Y122577D01*
G01X183425Y122910D02*
Y120410D01*
G01X184012Y120744D02*
X182838Y122577D01*
G01X182625Y121660D02*
X184225D01*
G01X189465Y121160D02*
X189678Y120952D01*
X189918Y120827D01*
X190132D01*
X190345Y120952D01*
X190505Y121160D01*
X190585Y121452D01*
X190532Y121744D01*
X190398Y121994D01*
X190158Y122160D01*
X189838Y122244D01*
X189652Y122410D01*
X189572Y122702D01*
X189625Y122994D01*
X189758Y123202D01*
X189945Y123327D01*
X190132D01*
X190318Y123244D01*
X190478Y123035D01*
G01X191638Y123327D02*
Y121535D01*
X191745Y121160D01*
X191958Y120910D01*
X192225Y120827D01*
X192492Y120910D01*
X192705Y121160D01*
X192812Y121535D01*
Y123327D01*
G01X193892Y120827D02*
Y123327D01*
X194558D01*
X194772Y123202D01*
X194905Y123035D01*
X194958Y122702D01*
X194905Y122369D01*
X194745Y122160D01*
X194558Y122035D01*
X193892D01*
G01X194558D02*
X194958Y120827D01*
G01X196118D02*
Y123327D01*
X197132D01*
G01X196758Y122119D02*
X196118D01*
G01X198158Y120827D02*
X198825Y123327D01*
X199492Y120827D01*
G01X199252Y121702D02*
X198398D01*
G01X201612Y123119D02*
X201452Y123244D01*
X201265Y123327D01*
X201052D01*
X200812Y123202D01*
X200625Y122994D01*
X200492Y122744D01*
X200385Y122327D01*
X200358Y121952D01*
X200412Y121577D01*
X200492Y121327D01*
X200652Y121077D01*
X200838Y120910D01*
X201025Y120827D01*
X201212D01*
X201398Y120910D01*
X201558Y121035D01*
X201692Y121202D01*
G01X203758Y120827D02*
X202692D01*
Y123327D01*
X203758D01*
G01X203332Y122119D02*
X202692D01*
G01X207278Y121660D02*
X207972D01*
G01X211358Y120827D02*
X212025Y123327D01*
X212692Y120827D01*
G01X212452Y121702D02*
X211598D01*
G01X213905Y123327D02*
X214545D01*
G01X214225D02*
Y120827D01*
G01X213905D02*
X214545D01*
G01X215892D02*
Y123327D01*
X216558D01*
X216772Y123202D01*
X216905Y123035D01*
X216958Y122702D01*
X216905Y122369D01*
X216745Y122160D01*
X216558Y122035D01*
X215892D01*
G01X216558D02*
X216958Y120827D01*
G01X220825Y123327D02*
X220612Y123244D01*
X220452Y123035D01*
X220345Y122785D01*
X220265Y122452D01*
X220238Y122077D01*
X220265Y121702D01*
X220345Y121369D01*
X220452Y121119D01*
X220612Y120910D01*
X220825Y120827D01*
X221038Y120910D01*
X221198Y121119D01*
X221305Y121369D01*
X221385Y121702D01*
X221412Y122077D01*
X221385Y122452D01*
X221305Y122785D01*
X221198Y123035D01*
X221038Y123244D01*
X220825Y123327D01*
G01X224532Y120827D02*
Y123327D01*
X225225Y121244D01*
X225918Y123327D01*
Y120827D01*
G01X227105Y123327D02*
X227745D01*
G01X227425D02*
Y120827D01*
G01X227105D02*
X227745D01*
G01X229092Y123327D02*
Y120827D01*
X230158D01*
G01X178492Y118354D02*
Y115854D01*
X179558D01*
G01X181225D02*
Y118354D01*
X180905Y117854D01*
G01Y115854D02*
X181545D01*
G01X183425Y115771D02*
X183372Y115812D01*
Y115896D01*
X183425Y115937D01*
X183478Y115896D01*
Y115812D01*
X183425Y115771D01*
G01Y116896D02*
X183372Y116937D01*
Y117021D01*
X183425Y117062D01*
X183478Y117021D01*
Y116937D01*
X183425Y116896D01*
G01X187825Y118354D02*
Y115854D01*
G01X187212Y118354D02*
X188438D01*
G01X190025Y115854D02*
X189812Y115896D01*
X189625Y116062D01*
X189465Y116312D01*
X189358Y116604D01*
X189305Y116937D01*
Y117271D01*
X189358Y117604D01*
X189465Y117896D01*
X189625Y118146D01*
X189812Y118312D01*
X190025Y118354D01*
X190238Y118312D01*
X190425Y118146D01*
X190585Y117896D01*
X190692Y117604D01*
X190745Y117271D01*
Y116937D01*
X190692Y116604D01*
X190585Y116312D01*
X190425Y116062D01*
X190238Y115896D01*
X190025Y115854D01*
G01X191692D02*
Y118354D01*
X192332D01*
X192545Y118229D01*
X192705Y117937D01*
X192758Y117604D01*
X192705Y117271D01*
X192572Y117021D01*
X192332Y116896D01*
X191692D01*
G01X197212Y118146D02*
X197052Y118271D01*
X196865Y118354D01*
X196652D01*
X196412Y118229D01*
X196225Y118021D01*
X196092Y117771D01*
X195985Y117354D01*
X195958Y116979D01*
X196012Y116604D01*
X196092Y116354D01*
X196252Y116104D01*
X196438Y115937D01*
X196625Y115854D01*
X196812D01*
X196998Y115937D01*
X197158Y116062D01*
X197292Y116229D01*
G01X198825Y115854D02*
X198612Y115896D01*
X198425Y116062D01*
X198265Y116312D01*
X198158Y116604D01*
X198105Y116937D01*
Y117271D01*
X198158Y117604D01*
X198265Y117896D01*
X198425Y118146D01*
X198612Y118312D01*
X198825Y118354D01*
X199038Y118312D01*
X199225Y118146D01*
X199385Y117896D01*
X199492Y117604D01*
X199545Y117271D01*
Y116937D01*
X199492Y116604D01*
X199385Y116312D01*
X199225Y116062D01*
X199038Y115896D01*
X198825Y115854D01*
G01X200412D02*
Y118354D01*
X201638Y115854D01*
Y118354D01*
G01X202638Y115854D02*
Y118354D01*
X203172D01*
X203385Y118229D01*
X203545Y118062D01*
X203678Y117812D01*
X203785Y117521D01*
X203812Y117104D01*
X203785Y116687D01*
X203678Y116396D01*
X203545Y116146D01*
X203385Y115979D01*
X203172Y115854D01*
X202638D01*
G01X204838Y118354D02*
Y116562D01*
X204945Y116187D01*
X205158Y115937D01*
X205425Y115854D01*
X205692Y115937D01*
X205905Y116187D01*
X206012Y116562D01*
Y118354D01*
G01X208212Y118146D02*
X208052Y118271D01*
X207865Y118354D01*
X207652D01*
X207412Y118229D01*
X207225Y118021D01*
X207092Y117771D01*
X206985Y117354D01*
X206958Y116979D01*
X207012Y116604D01*
X207092Y116354D01*
X207252Y116104D01*
X207438Y115937D01*
X207625Y115854D01*
X207812D01*
X207998Y115937D01*
X208158Y116062D01*
X208292Y116229D01*
G01X209825Y118354D02*
Y115854D01*
G01X209212Y118354D02*
X210438D01*
G01X212025Y115854D02*
X211812Y115896D01*
X211625Y116062D01*
X211465Y116312D01*
X211358Y116604D01*
X211305Y116937D01*
Y117271D01*
X211358Y117604D01*
X211465Y117896D01*
X211625Y118146D01*
X211812Y118312D01*
X212025Y118354D01*
X212238Y118312D01*
X212425Y118146D01*
X212585Y117896D01*
X212692Y117604D01*
X212745Y117271D01*
Y116937D01*
X212692Y116604D01*
X212585Y116312D01*
X212425Y116062D01*
X212238Y115896D01*
X212025Y115854D01*
G01X213692D02*
Y118354D01*
X214358D01*
X214572Y118229D01*
X214705Y118062D01*
X214758Y117729D01*
X214705Y117396D01*
X214545Y117187D01*
X214358Y117062D01*
X213692D01*
G01X214358D02*
X214758Y115854D01*
G01X218278Y116687D02*
X218972D01*
G01X223612Y118146D02*
X223452Y118271D01*
X223265Y118354D01*
X223052D01*
X222812Y118229D01*
X222625Y118021D01*
X222492Y117771D01*
X222385Y117354D01*
X222358Y116979D01*
X222412Y116604D01*
X222492Y116354D01*
X222652Y116104D01*
X222838Y115937D01*
X223025Y115854D01*
X223212D01*
X223398Y115937D01*
X223558Y116062D01*
X223692Y116229D01*
G01X225225Y115854D02*
X225012Y115896D01*
X224825Y116062D01*
X224665Y116312D01*
X224558Y116604D01*
X224505Y116937D01*
Y117271D01*
X224558Y117604D01*
X224665Y117896D01*
X224825Y118146D01*
X225012Y118312D01*
X225225Y118354D01*
X225438Y118312D01*
X225625Y118146D01*
X225785Y117896D01*
X225892Y117604D01*
X225945Y117271D01*
Y116937D01*
X225892Y116604D01*
X225785Y116312D01*
X225625Y116062D01*
X225438Y115896D01*
X225225Y115854D01*
G01X226892D02*
Y118354D01*
X227532D01*
X227745Y118229D01*
X227905Y117937D01*
X227958Y117604D01*
X227905Y117271D01*
X227772Y117021D01*
X227532Y116896D01*
X226892D01*
G01X229092Y115854D02*
Y118354D01*
X229732D01*
X229945Y118229D01*
X230105Y117937D01*
X230158Y117604D01*
X230105Y117271D01*
X229972Y117021D01*
X229732Y116896D01*
X229092D01*
G01X232358Y115854D02*
X231292D01*
Y118354D01*
X232358D01*
G01X231932Y117146D02*
X231292D01*
G01X233492Y115854D02*
Y118354D01*
X234158D01*
X234372Y118229D01*
X234505Y118062D01*
X234558Y117729D01*
X234505Y117396D01*
X234345Y117187D01*
X234158Y117062D01*
X233492D01*
G01X234158D02*
X234558Y115854D01*
G01X238425D02*
Y118354D01*
X238105Y117854D01*
G01Y115854D02*
X238745D01*
G01X240625Y115771D02*
X240572Y115812D01*
Y115896D01*
X240625Y115937D01*
X240678Y115896D01*
Y115812D01*
X240625Y115771D01*
G01X242318Y117937D02*
X242478Y118187D01*
X242665Y118312D01*
X242878Y118354D01*
X243145Y118271D01*
X243332Y118062D01*
X243385Y117812D01*
X243358Y117562D01*
X243252Y117354D01*
X242718Y116937D01*
X242478Y116646D01*
X242318Y116229D01*
X242265Y115854D01*
X243385D01*
G01X246532D02*
Y118354D01*
X247225Y116271D01*
X247918Y118354D01*
Y115854D01*
G01X249105Y118354D02*
X249745D01*
G01X249425D02*
Y115854D01*
G01X249105D02*
X249745D01*
G01X251092Y118354D02*
Y115854D01*
X252158D01*
G01X281275Y-185125D02*
Y-260125D01*
G01X321885Y-253875D02*
Y-241375D01*
X316150Y-250333D01*
X323900D01*
G01X319715Y-228875D02*
X320025Y-226167D01*
X320490Y-223875D01*
X321110Y-221792D01*
X321885Y-219500D01*
X323125Y-216375D01*
X316925D01*
G01X307625Y-203875D02*
X306385Y-203667D01*
X305300Y-202834D01*
X304370Y-201583D01*
X303750Y-200125D01*
X303440Y-198458D01*
Y-196792D01*
X303750Y-195125D01*
X304370Y-193667D01*
X305300Y-192417D01*
X306385Y-191583D01*
X307625Y-191375D01*
X308865Y-191583D01*
X309950Y-192417D01*
X310880Y-193667D01*
X311500Y-195125D01*
X311810Y-196792D01*
Y-198458D01*
X311500Y-200125D01*
X310880Y-201583D01*
X309950Y-202834D01*
X308865Y-203667D01*
X307625Y-203875D01*
G01X308865Y-200542D02*
X310725Y-203875D01*
G01X320025Y-191375D02*
Y-203875D01*
G01X316460Y-191375D02*
X323590D01*
G01X332425Y-203875D02*
Y-198250D01*
X329325Y-191375D01*
G01X335525D02*
X332425Y-198250D01*
M02*
