%FSTAX24Y24*%
%MOIN*%
%SFA1B1*%

%IPPOS*%
%ADD34C,0.003940*%
%LNaux_bno055-1*%
%LPD*%
G54D34*
X002624Y001788D02*
D01*
X002624Y001802*
X002622Y001816*
X00262Y001829*
X002617Y001842*
X002612Y001855*
X002607Y001868*
X002601Y001881*
X002594Y001892*
X002587Y001904*
X002578Y001915*
X002569Y001925*
X002559Y001934*
X002549Y001943*
X002538Y001951*
X002526Y001959*
X002514Y001965*
X002501Y001971*
X002488Y001975*
X002475Y001979*
X002462Y001982*
X002448Y001984*
X002434Y001985*
X002421*
X002407Y001984*
X002393Y001982*
X00238Y001979*
X002367Y001975*
X002354Y001971*
X002341Y001965*
X002329Y001959*
X002317Y001951*
X002306Y001943*
X002296Y001934*
X002286Y001925*
X002277Y001915*
X002268Y001904*
X00226Y001892*
X002254Y001881*
X002248Y001868*
X002242Y001855*
X002238Y001842*
X002235Y001829*
X002232Y001816*
X002231Y001802*
X002231Y001788*
X002231Y001774*
X002232Y001761*
X002235Y001747*
X002238Y001734*
X002242Y001721*
X002248Y001708*
X002254Y001696*
X00226Y001684*
X002268Y001672*
X002277Y001662*
X002286Y001651*
X002296Y001642*
X002306Y001633*
X002317Y001625*
X002329Y001618*
X002341Y001611*
X002354Y001606*
X002367Y001601*
X00238Y001597*
X002393Y001594*
X002407Y001592*
X002421Y001591*
X002434*
X002448Y001592*
X002462Y001594*
X002475Y001597*
X002488Y001601*
X002501Y001606*
X002514Y001611*
X002526Y001618*
X002538Y001625*
X002549Y001633*
X002559Y001642*
X002569Y001651*
X002578Y001662*
X002587Y001672*
X002594Y001684*
X002601Y001696*
X002607Y001708*
X002612Y001721*
X002617Y001734*
X00262Y001747*
X002622Y001761*
X002624Y001774*
X002624Y001788*
X004181Y002583D02*
Y003016D01*
X004418Y002583D02*
Y003016D01*
X004181Y002583D02*
X004418D01*
X004181Y003016D02*
X004418D01*
X002068Y001434D02*
X003569D01*
Y003481*
X002073D02*
X003569D01*
X002073Y001429D02*
Y003481D01*
X002068Y001434D02*
X002073Y001429D01*
X001381Y003383D02*
Y003816D01*
X001618Y003383D02*
Y003816D01*
X001381Y003383D02*
X001618D01*
X001381Y003816D02*
X001618D01*
Y002283D02*
Y002716D01*
X001381Y002283D02*
Y002716D01*
X001618*
X001381Y002283D02*
X001618D01*
X002683Y000631D02*
X003116D01*
X002683Y000868D02*
X003116D01*
Y000631D02*
Y000868D01*
X002683Y000631D02*
Y000868D01*
X004418Y001383D02*
Y001816D01*
X004181Y001383D02*
Y001816D01*
X004418*
X004181Y001383D02*
X004418D01*
M02*