%FSTAX24Y24*%
%MOIN*%
%SFA1B1*%

%IPPOS*%
%ADD34C,0.003940*%
%ADD35C,0.001970*%
%LNaux_bno055-1*%
%LPD*%
G54D34*
X004181Y0028D02*
X004418D01*
X0043Y002681D02*
Y002918D01*
X002821Y002261D02*
Y002654D01*
X002624Y002457D02*
X003018D01*
X001381Y0036D02*
X001618D01*
X0015Y003481D02*
Y003718D01*
X001381Y0025D02*
X001618D01*
X0015Y002381D02*
Y002618D01*
X0029Y000631D02*
Y000868D01*
X002781Y00075D02*
X003018D01*
X004181Y0016D02*
X004418D01*
X0043Y001481D02*
Y001718D01*
G54D35*
X004122Y002445D02*
Y003154D01*
X004477Y002445D02*
Y003154D01*
X004122Y002445D02*
X004477D01*
X004122Y003154D02*
X004477D01*
X001729Y001089D02*
X003914D01*
X001729Y003826D02*
X003914D01*
X001729Y001089D02*
Y003826D01*
X003914Y001089D02*
Y003826D01*
X001322Y003245D02*
Y003954D01*
X001677Y003245D02*
Y003954D01*
X001322Y003245D02*
X001677D01*
X001322Y003954D02*
X001677D01*
Y002145D02*
Y002854D01*
X001322Y002145D02*
Y002854D01*
X001677*
X001322Y002145D02*
X001677D01*
X002545Y000572D02*
X003254D01*
X002545Y000927D02*
X003254D01*
Y000572D02*
Y000927D01*
X002545Y000572D02*
Y000927D01*
X004477Y001245D02*
Y001954D01*
X004122Y001245D02*
Y001954D01*
X004477*
X004122Y001245D02*
X004477D01*
M02*