%FSTAX24Y24*%
%MOIN*%
%SFA1B1*%

%IPPOS*%
%ADD10R,0.023620X0.023620*%
%ADD11O,0.009840X0.055120*%
%ADD12O,0.055120X0.009840*%
%ADD13R,0.023620X0.023620*%
%ADD14C,0.010000*%
%ADD15C,0.047240*%
%ADD16R,0.047240X0.047240*%
%ADD17C,0.020000*%
%LNaux_bno055-1*%
%LPD*%
G54D10*
X0043Y002622D03*
Y002977D03*
X0015Y003422D03*
Y003777D03*
Y002677D03*
Y002322D03*
X0043Y001777D03*
Y001422D03*
G54D11*
X002526Y001453D03*
X002723D03*
X00292D03*
X003116D03*
Y003461D03*
X00292D03*
X002723D03*
X002526D03*
G54D12*
X00355Y001572D03*
Y001768D03*
Y001965D03*
Y002162D03*
Y002359D03*
Y002556D03*
Y002753D03*
Y00295D03*
Y003146D03*
Y003343D03*
X002093D03*
Y003146D03*
Y00295D03*
Y002753D03*
Y002556D03*
Y002359D03*
Y002162D03*
Y001965D03*
Y001768D03*
Y001572D03*
G54D13*
X003077Y00075D03*
X002722D03*
G54D14*
X0015Y003704D02*
X001595Y0038D01*
X0042Y001322D02*
X0043Y001422D01*
X0042Y00105D02*
Y001322D01*
X004Y00095D02*
Y001132D01*
X0038Y00075D02*
X004Y00095D01*
X00405Y001182D02*
Y0015D01*
X004Y001132D02*
X00405Y001182D01*
X003967Y00265D02*
X004D01*
X003873Y002556D02*
X003967Y00265D01*
X00355Y002556D02*
X003873D01*
X00405Y00245D02*
X004172D01*
X004322Y0026*
X0043Y002622D02*
X004322Y0026D01*
X0042Y00335D02*
X00425D01*
X00292Y003461D02*
X003116D01*
X004291Y001768D02*
X0043Y001777D01*
X00355Y001768D02*
X004291D01*
X00405Y0032D02*
Y00375D01*
X00385Y00395D02*
X00405Y00375D01*
X0028Y00395D02*
X00385D01*
X002723Y003461D02*
Y003873D01*
X0028Y00395*
X00405Y0032D02*
X004272Y002977D01*
X0043*
X002723Y001453D02*
Y002126D01*
X002687Y002162D02*
X002723Y002126D01*
X002093Y002162D02*
X002687D01*
X00365Y001029D02*
Y00115D01*
X00292Y001029D02*
X00365D01*
X003077Y00075D02*
X0038D01*
X00292Y001029D02*
Y001453D01*
X003977Y001572D02*
X00405Y0015D01*
X00355Y001572D02*
X003977D01*
X002722Y001453D02*
X002723Y001453D01*
X002722Y00075D02*
Y001453D01*
X004Y00265D02*
Y0027D01*
X0016Y0015D02*
X001672Y001572D01*
X0016Y0011D02*
Y0015D01*
X0012Y0007D02*
X0016Y0011D01*
X001086Y001713D02*
X00135Y00145D01*
X001086Y001713D02*
Y001909D01*
X0015Y0018D02*
Y0019D01*
X00135Y0013D02*
Y00145D01*
X001086Y001909D02*
X0015Y002322D01*
X001762Y002162D02*
X002093D01*
X0015Y0019D02*
X001762Y002162D01*
X001672Y001572D02*
X002093D01*
X001853Y003346D02*
X002093D01*
X001777Y003422D02*
X001853Y003346D01*
X0015Y003422D02*
X001777D01*
X001172D02*
X001427D01*
X00105Y0033D02*
X001172Y003422D01*
X001595Y0038D02*
X0019D01*
X0015Y003D02*
X001646Y003146D01*
X0015Y002677D02*
Y003D01*
X001646Y003146D02*
X002093D01*
X001227Y002677D02*
X0015D01*
X001Y00245D02*
X001227Y002677D01*
X001Y0023D02*
Y00245D01*
X0007Y002D02*
X001Y0023D01*
X0007Y0017D02*
Y002D01*
X00105Y00305D02*
Y0033D01*
X0007Y0027D02*
X00105Y00305D01*
X0007Y0007D02*
X0012D01*
X00225Y00385D02*
X00245D01*
X002526Y003773*
Y003461D02*
Y003773D01*
G54D15*
X0007Y0037D03*
Y0027D03*
Y0017D03*
G54D16*
X0007Y0007D03*
G54D17*
X0042Y00105D03*
X00405Y00245D03*
X00365Y00115D03*
X00425Y00335D03*
X004Y0027D03*
X00435Y0022D03*
X0015Y0018D03*
X00135Y0013D03*
X0019Y0038D03*
X00225Y00385D03*
M02*