G04 Layer_Color=32768*
%FSLAX25Y25*%
%MOIN*%
G70*
G01*
G75*
%ADD34C,0.00394*%
%ADD35C,0.00197*%
D34*
X41819Y28000D02*
X44181D01*
X43000Y26819D02*
Y29181D01*
X28216Y22610D02*
Y26547D01*
X26248Y24579D02*
X30185D01*
X13819Y36000D02*
X16181D01*
X15000Y34819D02*
Y37181D01*
X13819Y25000D02*
X16181D01*
X15000Y23819D02*
Y26181D01*
X29000Y6319D02*
Y8681D01*
X27819Y7500D02*
X30181D01*
X41819Y16000D02*
X44181D01*
X43000Y14819D02*
Y17181D01*
D35*
X41228Y24457D02*
Y31543D01*
X44772Y24457D02*
Y31543D01*
X41228Y24457D02*
X44772D01*
X41228Y31543D02*
X44772D01*
X17291Y10898D02*
X39142D01*
X17291Y38260D02*
X39142D01*
X17291Y10898D02*
Y38260D01*
X39142Y10898D02*
Y38260D01*
X13228Y32457D02*
Y39543D01*
X16772Y32457D02*
Y39543D01*
X13228Y32457D02*
X16772D01*
X13228Y39543D02*
X16772D01*
X16772Y21457D02*
Y28543D01*
X13228Y21457D02*
Y28543D01*
X16772D01*
X13228Y21457D02*
X16772D01*
X25457Y5728D02*
X32543D01*
X25457Y9272D02*
X32543D01*
Y5728D02*
Y9272D01*
X25457Y5728D02*
Y9272D01*
X44772Y12457D02*
Y19543D01*
X41228Y12457D02*
Y19543D01*
X44772D01*
X41228Y12457D02*
X44772D01*
M02*
