G04 Layer_Color=255*
%FSLAX25Y25*%
%MOIN*%
G70*
G01*
G75*
%ADD10R,0.02520X0.02520*%
%ADD11R,0.02362X0.02362*%
%ADD12R,0.02362X0.02362*%
%ADD13O,0.05512X0.00984*%
%ADD14O,0.00984X0.05512*%
%ADD16R,0.04921X0.04921*%
%ADD17C,0.04921*%
D10*
X38189Y5000D02*
D03*
X41811D02*
D03*
X21811Y7500D02*
D03*
X18189D02*
D03*
D11*
X43000Y14228D02*
D03*
Y17772D02*
D03*
X15000Y23228D02*
D03*
Y26772D02*
D03*
Y37772D02*
D03*
Y34228D02*
D03*
X43000Y29772D02*
D03*
Y26228D02*
D03*
D12*
X27228Y7500D02*
D03*
X30772D02*
D03*
D13*
X20933Y15721D02*
D03*
Y17689D02*
D03*
Y19658D02*
D03*
Y21626D02*
D03*
Y23595D02*
D03*
Y25563D02*
D03*
Y27531D02*
D03*
Y29500D02*
D03*
Y31468D02*
D03*
Y33437D02*
D03*
X35500D02*
D03*
Y31468D02*
D03*
Y29500D02*
D03*
Y27531D02*
D03*
Y25563D02*
D03*
Y23595D02*
D03*
Y21626D02*
D03*
Y19658D02*
D03*
Y17689D02*
D03*
Y15721D02*
D03*
D14*
X25264Y34618D02*
D03*
X27232D02*
D03*
X29201D02*
D03*
X31169D02*
D03*
Y14539D02*
D03*
X29201D02*
D03*
X27232D02*
D03*
X25264D02*
D03*
D16*
X7000Y7000D02*
D03*
D17*
Y17000D02*
D03*
Y27000D02*
D03*
Y37000D02*
D03*
M02*
