G04 Layer_Color=2752767*
%FSLAX25Y25*%
%MOIN*%
G70*
G01*
G75*
%ADD39C,0.00200*%
%ADD40C,0.00267*%
D39*
X6200Y6200D02*
Y7800D01*
X7800D01*
Y6200D01*
X6200D01*
Y16200D02*
Y17800D01*
X7800D01*
Y16200D01*
X6200D01*
Y26200D02*
Y27800D01*
X7800D01*
Y26200D01*
X6200D01*
Y36200D02*
Y37800D01*
X7800D01*
Y36200D01*
X6200D01*
D40*
X34800Y4500D02*
G03*
X34800Y4500I-800J0D01*
G01*
X42800Y10500D02*
G03*
X42800Y10500I-800J0D01*
G01*
X18989Y4189D02*
G03*
X18989Y4189I-800J0D01*
G01*
X22800Y11000D02*
G03*
X22800Y11000I-800J0D01*
G01*
X28300Y20500D02*
G03*
X28300Y20500I-800J0D01*
G01*
X23300Y38500D02*
G03*
X23300Y38500I-800J0D01*
G01*
X19800Y38000D02*
G03*
X19800Y38000I-800J0D01*
G01*
X14300Y13000D02*
G03*
X14300Y13000I-800J0D01*
G01*
X15800Y18000D02*
G03*
X15800Y18000I-800J0D01*
G01*
X44300Y22000D02*
G03*
X44300Y22000I-800J0D01*
G01*
X40800Y27000D02*
G03*
X40800Y27000I-800J0D01*
G01*
X43300Y33500D02*
G03*
X43300Y33500I-800J0D01*
G01*
X37300Y11500D02*
G03*
X37300Y11500I-800J0D01*
G01*
X41300Y24500D02*
G03*
X41300Y24500I-800J0D01*
G01*
M02*
