G04 Layer_Physical_Order=4*
G04 Layer_Color=16711680*
%FSLAX25Y25*%
%MOIN*%
G70*
G01*
G75*
%ADD14C,0.01000*%
%ADD15C,0.04724*%
%ADD16R,0.04724X0.04724*%
%ADD17C,0.02000*%
G04:AMPARAMS|DCode=23|XSize=39.37mil|YSize=39.37mil|CornerRadius=9.84mil|HoleSize=0mil|Usage=FLASHONLY|Rotation=90.000|XOffset=0mil|YOffset=0mil|HoleType=Round|Shape=RoundedRectangle|*
%AMROUNDEDRECTD23*
21,1,0.03937,0.01969,0,0,90.0*
21,1,0.01969,0.03937,0,0,90.0*
1,1,0.01969,0.00984,0.00984*
1,1,0.01969,0.00984,-0.00984*
1,1,0.01969,-0.00984,-0.00984*
1,1,0.01969,-0.00984,0.00984*
%
%ADD23ROUNDEDRECTD23*%
D14*
X38500Y24500D02*
X40500D01*
X35500Y27500D02*
X38500Y24500D01*
X37000Y22480D02*
X37480Y22000D01*
X43500D01*
X41520Y32520D02*
X42500Y33500D01*
X37000Y32520D02*
X41520D01*
D15*
X7000Y37000D02*
D03*
Y27000D02*
D03*
Y17000D02*
D03*
D16*
Y7000D02*
D03*
D17*
X42000Y10500D02*
D03*
X40500Y24500D02*
D03*
X36500Y11500D02*
D03*
X42500Y33500D02*
D03*
X40000Y27000D02*
D03*
X43500Y22000D02*
D03*
X15000Y18000D02*
D03*
X13500Y13000D02*
D03*
X19000Y38000D02*
D03*
X22500Y38500D02*
D03*
D23*
X35500Y32520D02*
D03*
Y27500D02*
D03*
Y22480D02*
D03*
M02*
