G04 Layer_Physical_Order=4*
G04 Layer_Color=16711680*
%FSLAX25Y25*%
%MOIN*%
G70*
G01*
G75*
%ADD15C,0.01000*%
%ADD16R,0.04921X0.04921*%
%ADD17C,0.04921*%
%ADD18C,0.02000*%
G04:AMPARAMS|DCode=24|XSize=39.37mil|YSize=39.37mil|CornerRadius=9.84mil|HoleSize=0mil|Usage=FLASHONLY|Rotation=90.000|XOffset=0mil|YOffset=0mil|HoleType=Round|Shape=RoundedRectangle|*
%AMROUNDEDRECTD24*
21,1,0.03937,0.01969,0,0,90.0*
21,1,0.01969,0.03937,0,0,90.0*
1,1,0.01969,0.00984,0.00984*
1,1,0.01969,0.00984,-0.00984*
1,1,0.01969,-0.00984,-0.00984*
1,1,0.01969,-0.00984,0.00984*
%
%ADD24ROUNDEDRECTD24*%
D15*
X22000Y11000D02*
Y15000D01*
X27500Y20500D01*
X37000Y32520D02*
X41520D01*
X42500Y33500D01*
X37480Y22000D02*
X43500D01*
X37000Y22480D02*
X37480Y22000D01*
X35500Y27500D02*
X38500Y24500D01*
X40500D01*
D16*
X7000Y7000D02*
D03*
D17*
Y17000D02*
D03*
Y27000D02*
D03*
Y37000D02*
D03*
D18*
X34000Y4500D02*
D03*
X42000Y10500D02*
D03*
X18189Y4189D02*
D03*
X22000Y11000D02*
D03*
X27500Y20500D02*
D03*
X22500Y38500D02*
D03*
X19000Y38000D02*
D03*
X13500Y13000D02*
D03*
X15000Y18000D02*
D03*
X43500Y22000D02*
D03*
X40000Y27000D02*
D03*
X42500Y33500D02*
D03*
X36500Y11500D02*
D03*
X40500Y24500D02*
D03*
D24*
X35500Y22480D02*
D03*
Y27500D02*
D03*
Y32520D02*
D03*
M02*
