G04 Layer_Physical_Order=1*
G04 Layer_Color=255*
%FSLAX25Y25*%
%MOIN*%
G70*
G01*
G75*
%ADD10R,0.02520X0.02520*%
%ADD11R,0.02362X0.02362*%
%ADD12R,0.02362X0.02362*%
%ADD13O,0.05512X0.00984*%
%ADD14O,0.00984X0.05512*%
%ADD15C,0.01000*%
%ADD16R,0.04921X0.04921*%
%ADD17C,0.04921*%
%ADD18C,0.02000*%
D10*
X38189Y5000D02*
D03*
X41811D02*
D03*
X21811Y7500D02*
D03*
X18189D02*
D03*
D11*
X43000Y14228D02*
D03*
Y17772D02*
D03*
X15000Y23228D02*
D03*
Y26772D02*
D03*
Y37772D02*
D03*
Y34228D02*
D03*
X43000Y29772D02*
D03*
Y26228D02*
D03*
D12*
X27228Y7500D02*
D03*
X30772D02*
D03*
D13*
X20933Y15721D02*
D03*
Y17689D02*
D03*
Y19658D02*
D03*
Y21626D02*
D03*
Y23595D02*
D03*
Y25563D02*
D03*
Y27531D02*
D03*
Y29500D02*
D03*
Y31468D02*
D03*
Y33437D02*
D03*
X35500D02*
D03*
Y31468D02*
D03*
Y29500D02*
D03*
Y27531D02*
D03*
Y25563D02*
D03*
Y23595D02*
D03*
Y21626D02*
D03*
Y19658D02*
D03*
Y17689D02*
D03*
Y15721D02*
D03*
D14*
X25264Y34618D02*
D03*
X27232D02*
D03*
X29201D02*
D03*
X31169D02*
D03*
Y14539D02*
D03*
X29201D02*
D03*
X27232D02*
D03*
X25264D02*
D03*
D15*
X42000Y5189D02*
X43740Y6929D01*
Y8760D01*
X15000Y37043D02*
X15957Y38000D01*
X34000Y4500D02*
X38189D01*
X42000Y10500D02*
Y13228D01*
Y10500D02*
X43740Y8760D01*
X40500Y11828D02*
Y15000D01*
X40000Y11328D02*
X40500Y11828D01*
X42000Y5189D02*
Y5760D01*
X39260Y8760D02*
X40000Y9500D01*
X38930Y8760D02*
X39260D01*
X38051Y7881D02*
X38930Y8760D01*
X38051Y7551D02*
Y7881D01*
X38000Y7500D02*
X38051Y7551D01*
X41811Y5000D02*
X42000Y5189D01*
X18189Y4189D02*
Y7500D01*
X21811D02*
X22000Y7689D01*
Y11000D01*
X27500Y20500D02*
X30595Y23595D01*
X25500Y19672D02*
X27232Y17939D01*
Y14539D02*
Y17939D01*
X20933Y21626D02*
X24600D01*
X25500Y20726D01*
Y19672D02*
Y20726D01*
X35500Y17689D02*
X42917D01*
X40000Y9500D02*
Y11328D01*
X39779Y15721D02*
X40500Y15000D01*
X35500Y15721D02*
X39779D01*
X30595Y23595D02*
X35500D01*
X25264Y34618D02*
Y37736D01*
X24500Y38500D02*
X25264Y37736D01*
X22500Y38500D02*
X24500D01*
X7000Y7000D02*
X12000D01*
X7000Y27000D02*
X10500Y30500D01*
Y33000D01*
X7000Y17000D02*
Y20000D01*
X10000Y23000D01*
Y24500D01*
X12272Y26772D01*
X15000D01*
X16468Y31468D02*
X20933D01*
X15000Y26772D02*
Y30000D01*
X16468Y31468D01*
X15957Y38000D02*
X19000D01*
X10500Y33000D02*
X11728Y34228D01*
X14272D01*
X15000D02*
X17772D01*
X18531Y33468D01*
X20933D01*
X16721Y15721D02*
X20933D01*
X15000Y19000D02*
X17626Y21626D01*
X20933D01*
X10862Y19091D02*
X15000Y23228D01*
X13500Y13000D02*
Y14500D01*
X15000Y18000D02*
Y19000D01*
X10862Y17138D02*
Y19091D01*
Y17138D02*
X13500Y14500D01*
X12000Y7000D02*
X16000Y11000D01*
Y15000D01*
X16721Y15721D01*
X40000Y26500D02*
Y27000D01*
X27228Y7500D02*
Y14535D01*
X27232Y14539D01*
X29201Y10299D02*
Y14539D01*
X30772Y7500D02*
X38000D01*
X29201Y10299D02*
X36500D01*
Y11500D01*
X42728Y29772D02*
X43000D01*
X40500Y32000D02*
X42728Y29772D01*
X27232Y38732D02*
X28000Y39500D01*
X27232Y34618D02*
Y38732D01*
X28000Y39500D02*
X38500D01*
X40500Y37500D01*
Y32000D02*
Y37500D01*
X42917Y17689D02*
X43000Y17772D01*
X29201Y34618D02*
X31169D01*
X42000Y33500D02*
X42500D01*
X43000Y26228D02*
X43228Y26000D01*
X41728Y24500D02*
X43228Y26000D01*
X40500Y24500D02*
X41728D01*
X35500Y25563D02*
X38735D01*
X39672Y26500D01*
X40000D01*
X42000Y13228D02*
X43000Y14228D01*
D16*
X7000Y7000D02*
D03*
D17*
Y17000D02*
D03*
Y27000D02*
D03*
Y37000D02*
D03*
D18*
X34000Y4500D02*
D03*
X42000Y10500D02*
D03*
X18189Y4189D02*
D03*
X22000Y11000D02*
D03*
X27500Y20500D02*
D03*
X22500Y38500D02*
D03*
X19000Y38000D02*
D03*
X13500Y13000D02*
D03*
X15000Y18000D02*
D03*
X43500Y22000D02*
D03*
X40000Y27000D02*
D03*
X42500Y33500D02*
D03*
X36500Y11500D02*
D03*
X40500Y24500D02*
D03*
M02*
