M48
INCH
T01C.013
T02C.02
T03C.035
T04C.036
T05C.13
T06C.1495
;LEADER: 12 
;HEADER: 
;CODE  : ASCII 
;FILE  : SLEEPTRACK2_PHASE3-1-4.drl for  ... layers TOP and BOTTOM
;DESIGN: SLEEPTRACK2_PHASE3.brd
;T01 Holesize 1. = 13.000000 Tolerance = +0.000000/-0.000000 PLATED MILS Quantity = 75
;T02 Holesize 2. = 20.000000 Tolerance = +0.000000/-0.000000 PLATED MILS Quantity = 30
;T03 Holesize 3. = 35.000000 Tolerance = +0.000000/-0.000000 PLATED MILS Quantity = 5
;T04 Holesize 4. = 36.000000 Tolerance = +0.000000/-0.000000 PLATED MILS Quantity = 27
;T05 Holesize 5. = 130.000000 Tolerance = +0.000000/-0.000000 NON_PLATED MILS Quantity = 4
%
G90
T01
X-0088960Y-0142600
X-0091870Y-0110870
X-0097870Y-0122430
X-0055364Y-0109330
X-0049390Y-0125650
X-0117120Y-0132030
X-0117030Y-0121850
X-0085290Y-0135120
X-0068400Y-0133960
X-0084200Y-0109300
X-0067990Y-0123490
X-0070117Y-0109430
X0078440Y-0113020
X0070250Y-0114490
X0065540Y-0108650
X0064830Y-0116210
X-0063239Y-0113109
X-0068410Y-0118420
X-0102390Y-0126380
X-0102410Y-0113890
X-0098330Y-0142120
X-0096650Y-0131000
X-0040000Y0010410
X-0070000Y0011960
X-0073960Y0008080
X-0059581Y-0040541
X-0015790Y-0017350
X-0015790Y-0035660
X0121500Y0013310
X-0054010Y-0044340
X-0022990Y0023570
X-0026200Y-0063710
X-0006725Y-0059905
X-0000560Y-0056040
X-0069970Y-0006800
X-0056010Y-0012130
X-0041340Y0005140
X-0058064Y0014350
X-0033180Y0004420
X-0067988Y0097562
X-0041990Y0085220
X-0087500Y0085220
X-0065890Y0082420
X-0019670Y-0032130
X-0031960Y-0006500
X-0063519Y-0046111
X-0018480Y-0059530
X-0027280Y-0049350
X-0064980Y-0016410
X-0073337Y-0041570
X-0045430Y0023390
X-0010610Y-0064130
X0118700Y-0018090
X-0081590Y0002670
X0113800Y0012450
X-0075960Y-0003620
X-0070615Y0019485
X-0070080Y0026160
X-0038600Y-0026900
X-0036290Y-0020730
X-0044130Y-0011020
X-0040070Y-0009460
X-0048080Y0012710
X-0053100Y0012720
X-0081790Y-0016750
X-0109480Y-0128480
X-0095190Y-0134710
X-0081940Y-0103540
X-0077990Y-0107800
X-0078810Y-0097180
X-0085030Y-0089030
X-0074040Y-0139240
X-0078910Y-0143270
X-0096180Y-0107110
X-0067320Y-0140080
T02
X-0028280Y-0144160
X-0023280Y-0134160
X-0018280Y-0144160
X-0013280Y-0134160
X-0008280Y-0144160
X-0003280Y-0134160
X0001720Y-0144160
X0006720Y-0134160
X0011720Y-0144160
X0016720Y-0134160
X0021720Y-0144160
X0026720Y-0134160
X0031720Y-0144160
X0036720Y-0134160
X0041720Y-0144160
X0046720Y-0134160
X0051720Y-0144160
X0056720Y-0134160
X0061720Y-0144160
X0066720Y-0134160
X0071720Y-0144160
X0076720Y-0134160
X0081720Y-0144160
X0086720Y-0134160
X0091720Y-0144160
X0096720Y-0134160
X0101720Y-0144160
X0106720Y-0134160
X0111720Y-0144160
X0116720Y-0134160
T03
X-0114890Y0078600
R02Y-0010000
X-0098560Y0027270
X-0098560Y0035070
T04
X-0098250Y-0010150
R02Y0010000
X-0004160Y0100030
R11Y-0010000
X0103660Y0100030
R11Y-0010000
T05
X-0110840Y0110840
X-0110840Y-0060840
X0110840Y0110840
X0110840Y-0060840
M30
