G04 ================== begin FILE IDENTIFICATION RECORD ==================*
G04 Layout Name:  SLEEPTRACK2_PHASE2.brd*
G04 Film Name:    Sleeptrack2_Phase_2_Silkscreen_Bottom_V1*
G04 File Format:  Gerber RS274X*
G04 File Origin:  Cadence Allegro 17.0-P009*
G04 Origin Date:  Thu Jul 14 23:11:08 2016*
G04 *
G04 Layer:  USER PART NUMBER/SILKSCREEN_BOTTOM*
G04 Layer:  TOLERANCE/SILKSCREEN_BOTTOM*
G04 Layer:  REF DES/SILKSCREEN_BOTTOM*
G04 Layer:  PACKAGE GEOMETRY/SILKSCREEN_BOTTOM*
G04 Layer:  DEVICE TYPE/SILKSCREEN_BOTTOM*
G04 Layer:  COMPONENT VALUE/SILKSCREEN_BOTTOM*
G04 Layer:  BOARD GEOMETRY/SILKSCREEN_BOTTOM*
G04 *
G04 Offset:    (0.00 0.00)*
G04 Mirror:    No*
G04 Mode:      Positive*
G04 Rotation:  0*
G04 FullContactRelief:  No*
G04 UndefLineWidth:     10.00*
G04 ================== end FILE IDENTIFICATION RECORD ====================*
%FSLAX25Y25*MOIN*%
%IR0*IPPOS*OFA0.00000B0.00000*MIA0B0*SFA1.00000B1.00000*%
%ADD10C,.01*%
G75*
%LPD*%
G75*
G54D10*
G01X-72927Y-3017D02*
X-72677Y-3337D01*
X-72510Y-3710D01*
Y-4137D01*
X-72760Y-4617D01*
X-73177Y-4990D01*
X-73677Y-5257D01*
X-74510Y-5470D01*
X-75260Y-5523D01*
X-76010Y-5417D01*
X-76510Y-5257D01*
X-77010Y-4937D01*
X-77343Y-4563D01*
X-77510Y-4190D01*
Y-3817D01*
X-77343Y-3443D01*
X-77093Y-3123D01*
X-76760Y-2857D01*
G01X-77510Y850D02*
X-72510D01*
X-76093Y-1123D01*
Y1543D01*
G01X-80410Y-470D02*
X-77910D01*
Y-5470D01*
X-78910D01*
G01X-88910D02*
X-89910D01*
Y-470D01*
X-87410D01*
G01X-77200Y5343D02*
X-72200D01*
Y6677D01*
X-72450Y7103D01*
X-72783Y7370D01*
X-73450Y7477D01*
X-74117Y7370D01*
X-74533Y7050D01*
X-74783Y6677D01*
Y5343D01*
G01Y6677D02*
X-77200Y7477D01*
G01Y10703D02*
X-76117Y10810D01*
X-75200Y10970D01*
X-74367Y11183D01*
X-73450Y11450D01*
X-72200Y11877D01*
Y9743D01*
G01X-80410Y10580D02*
X-77910D01*
Y5580D01*
X-78910D01*
G01X-88910D02*
X-89910D01*
Y10580D01*
X-87410D01*
G01X-76280Y16623D02*
X-71280D01*
Y17957D01*
X-71530Y18383D01*
X-71863Y18650D01*
X-72530Y18757D01*
X-73197Y18650D01*
X-73613Y18330D01*
X-73863Y17957D01*
Y16623D01*
G01Y17957D02*
X-76280Y18757D01*
G01X-74197Y21077D02*
X-73613Y21450D01*
X-73280Y21770D01*
X-73113Y22197D01*
X-73280Y22570D01*
X-73613Y22837D01*
X-74113Y23050D01*
X-74697Y23103D01*
X-75197Y23050D01*
X-75697Y22837D01*
X-76113Y22517D01*
X-76280Y22143D01*
X-76113Y21717D01*
X-75613Y21343D01*
X-74863Y21130D01*
X-74030Y21077D01*
X-72947Y21183D01*
X-72363Y21343D01*
X-71780Y21610D01*
X-71363Y21983D01*
X-71280Y22357D01*
X-71447Y22730D01*
X-71863Y22997D01*
G01X-80480Y21950D02*
X-77980D01*
Y16950D01*
X-78980D01*
G01X-88980D02*
X-89980D01*
Y21950D01*
X-87480D01*
G01X-68737Y28807D02*
X-69057Y28557D01*
X-69430Y28390D01*
X-69857D01*
X-70337Y28640D01*
X-70710Y29057D01*
X-70977Y29557D01*
X-71190Y30390D01*
X-71243Y31140D01*
X-71137Y31890D01*
X-70977Y32390D01*
X-70657Y32890D01*
X-70283Y33223D01*
X-69910Y33390D01*
X-69537D01*
X-69163Y33223D01*
X-68843Y32973D01*
X-68577Y32640D01*
G01X-66683D02*
X-66363Y33057D01*
X-65990Y33307D01*
X-65510Y33390D01*
X-65030Y33223D01*
X-64657Y32890D01*
X-64390Y32307D01*
X-64337Y31640D01*
X-64443Y30973D01*
X-64710Y30557D01*
X-65083Y30223D01*
X-65457Y30140D01*
X-65830Y30223D01*
X-66310Y30557D01*
X-66150Y28390D01*
X-64710D01*
G01X-47336Y8830D02*
Y-6130D01*
G01X-66824D02*
Y8830D01*
G01X-47336Y-6130D02*
X-66824D01*
G01X-20452Y-13150D02*
Y-28110D01*
X-51948D01*
Y-13150D01*
X-20452D01*
G01X-35433Y23460D02*
Y28460D01*
X-36767D01*
X-37193Y28210D01*
X-37460Y27877D01*
X-37567Y27210D01*
X-37460Y26543D01*
X-37140Y26127D01*
X-36767Y25877D01*
X-35433D01*
G01X-36767D02*
X-37567Y23460D01*
G01X-39727Y24210D02*
X-40047Y23793D01*
X-40420Y23543D01*
X-40900Y23460D01*
X-41380Y23627D01*
X-41753Y23960D01*
X-42020Y24543D01*
X-42073Y25210D01*
X-41967Y25877D01*
X-41700Y26293D01*
X-41327Y26627D01*
X-40953Y26710D01*
X-40580Y26627D01*
X-40100Y26293D01*
X-40260Y28460D01*
X-41700D01*
G01X-36220Y12380D02*
Y9880D01*
X-41220D01*
Y10880D01*
G01Y20880D02*
Y21880D01*
X-36220D01*
Y19380D01*
G01X-64410Y16890D02*
X-66910D01*
Y21890D01*
X-65910D01*
G01X-55910D02*
X-54910D01*
Y16890D01*
X-57410D01*
G01X-47157Y14540D02*
Y10957D01*
X-47410Y10207D01*
X-47916Y9707D01*
X-48549Y9540D01*
X-49183Y9707D01*
X-49689Y10207D01*
X-49942Y10957D01*
Y14540D01*
G01X-54407Y9540D02*
Y14540D01*
X-52065Y10957D01*
X-55230D01*
G01X-66824Y8830D02*
X-47336D01*
G01X-32809Y-34880D02*
Y-32630D01*
X-31543Y-29880D01*
G01X-34076D02*
X-32809Y-32630D01*
G01X-37907Y-34880D02*
Y-29880D01*
X-37148Y-30880D01*
G01Y-34880D02*
X-38667D01*
M02*
