G04 ================== begin FILE IDENTIFICATION RECORD ==================*
G04 Layout Name:  SLEEPTRACK2_PHASE2.brd*
G04 Film Name:    Sleeptrack2_Phase_2_TOP_V1*
G04 File Format:  Gerber RS274X*
G04 File Origin:  Cadence Allegro 17.0-P009*
G04 Origin Date:  Thu Jul 14 23:11:08 2016*
G04 *
G04 Layer:  ETCH/TOP*
G04 Layer:  PIN/TOP*
G04 Layer:  VIA CLASS/TOP*
G04 *
G04 Offset:    (0.00 0.00)*
G04 Mirror:    No*
G04 Mode:      Positive*
G04 Rotation:  0*
G04 FullContactRelief:  No*
G04 UndefLineWidth:     10.00*
G04 ================== end FILE IDENTIFICATION RECORD ====================*
%FSLAX25Y25*MOIN*%
%IR0*IPPOS*OFA0.00000B0.00000*MIA0B0*SFA1.00000B1.00000*%
%ADD19R,.1X.08*%
%ADD12C,.024*%
%ADD11C,.06*%
%ADD21R,.07X.07*%
%ADD20R,.045X.045*%
%ADD13R,.03X.04*%
%ADD16R,.04X.03*%
%ADD17R,.01201X.03201*%
%ADD14R,.04X.025*%
%ADD22R,.06X.07*%
%ADD10C,.135*%
%ADD18R,.06417X.0689*%
%ADD15R,.06299X.0689*%
%ADD23C,.01*%
%ADD24C,.03*%
%ADD25C,.04*%
%ADD26C,.025*%
G75*
%LPD*%
G75*
G54D10*
X-110840Y-60840D03*
Y110840D03*
X110840Y-60840D03*
Y110840D03*
G54D20*
X24750Y30000D03*
X74750Y90000D03*
Y100000D03*
G54D11*
X-98250Y-10150D03*
X-98560Y27270D03*
X-98250Y9850D03*
Y-150D03*
X-114890Y58600D03*
X-98560Y35070D03*
X-114890Y68600D03*
Y78600D03*
X12700Y-69440D03*
X22700D03*
X-4160Y-9970D03*
Y30D03*
Y10030D03*
Y20030D03*
Y30030D03*
Y40030D03*
Y50030D03*
Y60030D03*
Y70030D03*
Y80030D03*
Y90030D03*
Y100030D03*
X32700Y-69440D03*
X42700D03*
X103660Y-9970D03*
Y30D03*
Y10030D03*
Y20030D03*
Y30030D03*
Y40030D03*
Y50030D03*
Y60030D03*
Y70030D03*
Y80030D03*
Y90030D03*
Y100030D03*
G54D21*
X24750Y70000D03*
Y100000D03*
G54D12*
X-73100Y-6800D03*
X-72950Y3360D03*
X-87500Y85220D03*
X-67988Y97562D03*
X-56010Y-12130D03*
X-50230Y15510D03*
X-58064Y14350D03*
X-41340Y5140D03*
X-65890Y82420D03*
X-41990Y85220D03*
X-10610Y-64130D03*
X-26200Y-63710D03*
X-27280Y-49350D03*
X-18480Y-59530D03*
X-15790Y-35660D03*
X-32610Y-4840D03*
X-19670Y-32130D03*
X-15790Y-17350D03*
X-34680Y1840D03*
X-560Y-56040D03*
X-6725Y-59905D03*
X7600Y-58150D03*
X118700Y-18090D03*
X113800Y12450D03*
G54D22*
X45750Y111000D03*
X53750D03*
G54D13*
X-83250Y79220D03*
Y85220D03*
X-46280Y79220D03*
Y85220D03*
X-34610Y-43360D03*
Y-49360D03*
X-560Y-45060D03*
Y-51060D03*
X114040Y-16060D03*
Y-10060D03*
X113800Y7540D03*
Y1540D03*
G54D23*
G01X-74302Y65600D02*
Y39918D01*
X-95180Y19040D01*
X-101930D01*
X-113140Y7830D01*
Y-33770D01*
X-103550Y-43360D01*
X-34610D01*
G01X-14276Y-52909D02*
Y-53769D01*
G01D02*
Y-60216D01*
X-15270Y-61210D01*
Y-63710D01*
G01D02*
X-11030D01*
X-10610Y-64130D01*
G01X-18480Y-59530D02*
X-17930Y-58980D01*
Y-57630D01*
X-16244Y-55944D01*
Y-53769D01*
G01X-27280Y-49350D02*
X-32100D01*
X-32110Y-49360D01*
X-34610D01*
G01X-16244Y-53005D02*
Y-53769D01*
G01X-18213Y-43336D02*
Y-42351D01*
G01X-19670Y-32130D02*
Y-38072D01*
X-18213Y-39529D01*
Y-42351D01*
G01X-12307Y-53005D02*
Y-53769D01*
G01X-6725Y-59905D02*
X-12307Y-54323D01*
Y-53769D01*
G01X-18213Y-52909D02*
Y-53769D01*
G01X-21270Y-63710D02*
Y-61210D01*
X-21415Y-61065D01*
Y-57375D01*
X-18213Y-54173D01*
Y-53769D01*
G01X-21270Y-63710D02*
X-26200D01*
G01X-15790Y-17350D02*
Y-35660D01*
G01X-16244Y-43115D02*
Y-42351D01*
G01X-15790Y-35660D02*
Y-38380D01*
X-16244Y-38834D01*
Y-42351D01*
G01X-560Y-45060D02*
Y-41790D01*
X-3360Y-38990D01*
X-12580D01*
X-14276Y-40686D01*
Y-42351D01*
G01Y-43336D02*
Y-42351D01*
G01X-32610Y-4840D02*
X-25770D01*
X-19670Y-10940D01*
Y-32130D01*
G01X-560Y-51060D02*
Y-56040D01*
G01X7600Y-58150D02*
X21410D01*
X32700Y-69440D01*
G01X103660Y-9970D02*
X111450D01*
X111540Y-10060D01*
X114040D01*
G01X103660Y30D02*
X109790D01*
X111300Y1540D01*
X113800D01*
G01X118700Y-18090D02*
X117144Y-16534D01*
X116684D01*
X116210Y-16060D01*
X114040D01*
G01X113800Y7540D02*
Y12450D01*
G54D14*
X-72020Y85970D03*
Y82220D03*
Y78470D03*
X-61820D03*
Y85970D03*
G54D24*
G01X-98560Y35070D02*
Y40070D01*
X-98680Y40190D01*
Y61990D01*
X-105290Y68600D01*
X-114890D01*
G01X-98250Y-10150D02*
X-84990D01*
X-79910Y-5070D01*
Y7380D01*
X-76910Y10380D01*
X-24510D01*
X-4160Y-9970D01*
G01X-72020Y85970D02*
Y88970D01*
G01X-74302Y65600D02*
X-74322Y65620D01*
Y71525D01*
X-72020Y73827D01*
Y78470D01*
G01X-83250Y85220D02*
X-87500D01*
G01X-72020Y88970D02*
Y95594D01*
X-76620Y100194D01*
Y110130D01*
X-76578Y110172D01*
Y110672D01*
X-72620Y114630D01*
X-72120D01*
G01X-67988Y97562D02*
Y88978D01*
X-66320Y87310D01*
Y82850D01*
X-65890Y82420D01*
G01X-67988Y97562D02*
X-72120Y101694D01*
Y102730D01*
G01X-66120D02*
X-65620D01*
X-61820Y98930D01*
Y85970D01*
G01X-46280Y79220D02*
X-49780D01*
X-50530Y78470D01*
X-61820D01*
G01X-59498Y65600D02*
Y67750D01*
X-59518Y67770D01*
Y71525D01*
X-61820Y73827D01*
Y78470D01*
G01X-31832Y114640D02*
X-31340Y114148D01*
Y83090D01*
X-35210Y79220D01*
X-46280D01*
G01X-66120Y114630D02*
X-56720D01*
X-56700Y114610D01*
X-52700D01*
G01X-46700D02*
X-42700D01*
X-42670Y114640D01*
X-31832D01*
G01D02*
X-18190D01*
X-15290Y111740D01*
Y103750D01*
X-11570Y100030D01*
X-4160D01*
G54D15*
X-74302Y65600D03*
X-59498D03*
G54D25*
G01X-114890Y78600D02*
X-87870D01*
X-87250Y79220D01*
X-83250D01*
G54D16*
X-72120Y114630D03*
Y102730D03*
X-66120Y114630D03*
X-46700Y114610D03*
X-52700D03*
X-66120Y102730D03*
X-15270Y-63710D03*
X-21270D03*
G54D26*
G01X-72020Y78470D02*
X-79250D01*
X-80000Y79220D01*
X-83250D01*
G01Y85220D02*
X-80000D01*
X-79930Y85150D01*
X-78700D01*
X-75770Y82220D01*
X-72020D01*
G01D02*
X-65280D01*
G01X-72020Y88970D02*
X-72000Y88990D01*
G01X-46280Y85220D02*
X-41990D01*
G01X-65280Y82220D02*
X-55500D01*
X-52500Y85220D01*
X-46280D01*
G01X-65890Y82420D02*
X-65480D01*
X-65280Y82220D01*
G01X9750Y-10000D02*
X620D01*
X590Y-9970D01*
X-4160D01*
G01Y30D02*
X2970D01*
X3000Y0D01*
X9750D01*
G01X-4160Y10030D02*
X2970D01*
X3000Y10000D01*
X9750D01*
G01X-4160Y20030D02*
X2970D01*
X3000Y20000D01*
X9750D01*
G01X-4160Y40030D02*
X2970D01*
X3000Y40000D01*
X9750D01*
G01X-4160Y50030D02*
X2970D01*
X3000Y50000D01*
X9750D01*
G01X-4160Y30030D02*
X2970D01*
X3000Y30000D01*
X9750D01*
G01Y80000D02*
X620D01*
X590Y80030D01*
X-4160D01*
G01Y60030D02*
X2970D01*
X3000Y60000D01*
X9750D01*
G01X-4160Y70030D02*
X2970D01*
X3000Y70000D01*
X9750D01*
G01X-4160Y90030D02*
X2970D01*
X3000Y90000D01*
X9750D01*
G01X-4160Y100030D02*
X2970D01*
X3000Y100000D01*
X9750D01*
G01X89750Y-10000D02*
X98880D01*
X98910Y-9970D01*
X103660D01*
G01X89750Y0D02*
X98880D01*
X98910Y30D01*
X103660D01*
G01X89750Y10000D02*
X98880D01*
X98910Y10030D01*
X103660D01*
G01X89750Y20000D02*
X98880D01*
X98910Y20030D01*
X103660D01*
G01X89750Y40000D02*
X98880D01*
X98910Y40030D01*
X103660D01*
G01X89750Y30000D02*
X98880D01*
X98910Y30030D01*
X103660D01*
G01X89750Y50000D02*
X98880D01*
X98910Y50030D01*
X103660D01*
G01X89750Y70000D02*
X98880D01*
X98910Y70030D01*
X103660D01*
G01Y60030D02*
X96530D01*
X96500Y60000D01*
X89750D01*
G01X103660Y80030D02*
X96530D01*
X96500Y80000D01*
X89750D01*
G01X103660Y100030D02*
X96530D01*
X96500Y100000D01*
X89750D01*
G01X103660Y90030D02*
X96530D01*
X96500Y90000D01*
X89750D01*
G54D17*
X-18213Y-42351D03*
X-16244D03*
X-14276D03*
X-12307D03*
Y-53769D03*
X-14276D03*
X-16244D03*
X-18213D03*
G54D18*
X-15260Y-48060D03*
G54D19*
X9750Y-10000D03*
Y0D03*
Y10000D03*
Y20000D03*
Y30000D03*
Y40000D03*
Y50000D03*
Y60000D03*
Y70000D03*
Y80000D03*
Y90000D03*
Y100000D03*
X89750Y-10000D03*
Y20000D03*
Y10000D03*
Y0D03*
Y50000D03*
Y40000D03*
Y30000D03*
Y80000D03*
Y70000D03*
Y60000D03*
Y100000D03*
Y90000D03*
M02*
