G04 ================== begin FILE IDENTIFICATION RECORD ==================*
G04 Layout Name:  SLEEPTRACK2_PHASE2.brd*
G04 Film Name:    Sleeptrack2_Phase_2_Soldermask_Bottom_V1*
G04 File Format:  Gerber RS274X*
G04 File Origin:  Cadence Allegro 17.0-P009*
G04 Origin Date:  Thu Jul 14 23:11:08 2016*
G04 *
G04 Layer:  VIA CLASS/SOLDERMASK_BOTTOM*
G04 Layer:  PIN/SOLDERMASK_BOTTOM*
G04 Layer:  PACKAGE GEOMETRY/SOLDERMASK_BOTTOM*
G04 Layer:  DRC ERROR CLASS/SOLDERMASK_BOTTOM*
G04 Layer:  BOARD GEOMETRY/SOLDERMASK_BOTTOM*
G04 *
G04 Offset:    (0.00 0.00)*
G04 Mirror:    No*
G04 Mode:      Positive*
G04 Rotation:  0*
G04 FullContactRelief:  No*
G04 UndefLineWidth:     0.00*
G04 ================== end FILE IDENTIFICATION RECORD ====================*
%FSLAX25Y25*MOIN*%
%IR0*IPPOS*OFA0.00000B0.00000*MIA0B0*SFA1.00000B1.00000*%
%ADD11C,.07*%
%ADD12C,.044*%
%ADD10C,.075*%
%ADD16R,.036X.046*%
%ADD13R,.046X.036*%
%ADD17R,.01909X.01024*%
%ADD14R,.01024X.01909*%
%ADD15R,.05315X.07677*%
%LPD*%
G75*
G54D10*
X-98250Y-10150D03*
Y9850D03*
Y-150D03*
X12700Y-69440D03*
X22700D03*
X-4160Y-9970D03*
Y30D03*
Y10030D03*
Y20030D03*
Y30030D03*
Y40030D03*
Y50030D03*
Y60030D03*
Y70030D03*
Y80030D03*
Y90030D03*
Y100030D03*
X32700Y-69440D03*
X42700D03*
X103660Y-9970D03*
Y30D03*
Y10030D03*
Y20030D03*
Y30030D03*
Y40030D03*
Y50030D03*
Y60030D03*
Y70030D03*
Y80030D03*
Y90030D03*
Y100030D03*
G54D11*
X-98560Y27270D03*
X-114890Y58600D03*
X-98560Y35070D03*
X-114890Y68600D03*
Y78600D03*
G54D12*
X-73100Y-6800D03*
X-72950Y3360D03*
X-87500Y85220D03*
X-67988Y97562D03*
X-56010Y-12130D03*
X-50230Y15510D03*
X-58064Y14350D03*
X-41340Y5140D03*
X-65890Y82420D03*
X-41990Y85220D03*
X-10610Y-64130D03*
X-26200Y-63710D03*
X-27280Y-49350D03*
X-18480Y-59530D03*
X-15790Y-35660D03*
X-32610Y-4840D03*
X-19670Y-32130D03*
X-15790Y-17350D03*
X-34680Y1840D03*
X-560Y-56040D03*
X-6725Y-59905D03*
X7600Y-58150D03*
X118700Y-18090D03*
X113800Y12450D03*
G54D13*
X-80910Y8080D03*
X-86910D03*
X-80980Y19450D03*
X-86980D03*
X-80910Y-2970D03*
X-86910D03*
X-63910Y19390D03*
X-57910D03*
G54D14*
X-48222Y-4800D03*
X-50190D03*
X-52159D03*
X-54127D03*
X-56096D03*
X-58064D03*
X-60033D03*
X-62001D03*
X-63970D03*
X-65938D03*
X-48222Y7500D03*
X-50190D03*
X-52159D03*
X-54127D03*
X-56096D03*
X-58064D03*
X-60033D03*
X-62001D03*
X-63970D03*
X-65938D03*
G54D15*
X-47027Y-26929D03*
Y-14331D03*
X-25373Y-26929D03*
Y-14331D03*
G54D16*
X-38720Y12880D03*
Y18880D03*
G54D17*
X-48222Y4303D03*
Y2334D03*
Y366D03*
Y-1603D03*
X-65938Y4303D03*
Y2334D03*
Y366D03*
Y-1603D03*
M02*
