G04 ================== begin FILE IDENTIFICATION RECORD ==================*
G04 Layout Name:  SLEEPTRACK2_PHASE2.brd*
G04 Film Name:    Sleeptrack2_Phase_2_BOTTOM_V1*
G04 File Format:  Gerber RS274X*
G04 File Origin:  Cadence Allegro 17.0-P009*
G04 Origin Date:  Thu Jul 14 23:11:08 2016*
G04 *
G04 Layer:  ETCH/BOTTOM*
G04 Layer:  PIN/BOTTOM*
G04 Layer:  VIA CLASS/BOTTOM*
G04 *
G04 Offset:    (0.00 0.00)*
G04 Mirror:    No*
G04 Mode:      Positive*
G04 Rotation:  0*
G04 FullContactRelief:  No*
G04 UndefLineWidth:     10.00*
G04 ================== end FILE IDENTIFICATION RECORD ====================*
%FSLAX25Y25*MOIN*%
%IR0*IPPOS*OFA0.00000B0.00000*MIA0B0*SFA1.00000B1.00000*%
%ADD12C,.024*%
%ADD11C,.06*%
%ADD17R,.0187X.00984*%
%ADD14R,.00984X.0187*%
%ADD16R,.03X.04*%
%ADD13R,.04X.03*%
%ADD10C,.135*%
%ADD15R,.05118X.0748*%
%ADD18C,.01*%
G75*
%LPD*%
G75*
G54D10*
X-110840Y-60840D03*
Y110840D03*
X110840Y-60840D03*
Y110840D03*
G54D11*
X-98250Y-10150D03*
X-98560Y27270D03*
X-98250Y9850D03*
Y-150D03*
X-114890Y58600D03*
X-98560Y35070D03*
X-114890Y68600D03*
Y78600D03*
X12700Y-69440D03*
X22700D03*
X-4160Y-9970D03*
Y30D03*
Y10030D03*
Y20030D03*
Y30030D03*
Y40030D03*
Y50030D03*
Y60030D03*
Y70030D03*
Y80030D03*
Y90030D03*
Y100030D03*
X32700Y-69440D03*
X42700D03*
X103660Y-9970D03*
Y30D03*
Y10030D03*
Y20030D03*
Y30030D03*
Y40030D03*
Y50030D03*
Y60030D03*
Y70030D03*
Y80030D03*
Y90030D03*
Y100030D03*
G54D12*
X-73100Y-6800D03*
X-72950Y3360D03*
X-87500Y85220D03*
X-67988Y97562D03*
X-56010Y-12130D03*
X-50230Y15510D03*
X-58064Y14350D03*
X-41340Y5140D03*
X-65890Y82420D03*
X-41990Y85220D03*
X-10610Y-64130D03*
X-26200Y-63710D03*
X-27280Y-49350D03*
X-18480Y-59530D03*
X-15790Y-35660D03*
X-32610Y-4840D03*
X-19670Y-32130D03*
X-15790Y-17350D03*
X-34680Y1840D03*
X-560Y-56040D03*
X-6725Y-59905D03*
X7600Y-58150D03*
X118700Y-18090D03*
X113800Y12450D03*
G54D13*
X-80910Y8080D03*
X-86910D03*
X-80980Y19450D03*
X-86980D03*
X-80910Y-2970D03*
X-86910D03*
X-63910Y19390D03*
X-57910D03*
G54D14*
X-48222Y-4800D03*
X-50190D03*
X-52159D03*
X-54127D03*
X-56096D03*
X-58064D03*
X-60033D03*
X-62001D03*
X-63970D03*
X-65938D03*
X-48222Y7500D03*
X-50190D03*
X-52159D03*
X-54127D03*
X-56096D03*
X-58064D03*
X-60033D03*
X-62001D03*
X-63970D03*
X-65938D03*
G54D15*
X-47027Y-26929D03*
Y-14331D03*
X-25373Y-26929D03*
Y-14331D03*
G54D16*
X-38720Y12880D03*
Y18880D03*
G54D17*
X-48222Y4303D03*
Y2334D03*
Y366D03*
Y-1603D03*
X-65938Y4303D03*
Y2334D03*
Y366D03*
Y-1603D03*
G54D18*
G01D02*
X-67903D01*
X-73100Y-6800D01*
G01D02*
X-85580D01*
X-86910Y-5470D01*
Y-2970D01*
G01X-80910D02*
X-73990D01*
X-70605Y415D01*
X-65987D01*
X-65938Y366D01*
G01Y2334D02*
X-69724D01*
X-70750Y3360D01*
X-72950D01*
G01X-86980Y19450D02*
Y16950D01*
X-86910Y16880D01*
Y8080D01*
G01D02*
Y-2970D01*
G01X-65938Y4303D02*
X-67173D01*
X-70950Y8080D01*
X-80910D01*
G01X-80980Y19450D02*
X-76480D01*
X-69480Y12450D01*
X-67180D01*
X-65870Y11140D01*
Y7568D01*
X-65938Y7500D01*
G01X-63970Y-4800D02*
X-63950Y-4780D01*
Y-3390D01*
X-62976Y-2416D01*
Y-634D01*
X-63976Y366D01*
X-65938D01*
G01X-32610Y-4840D02*
X-42020D01*
X-42060Y-4800D01*
X-48222D01*
G01X-56010Y-12130D02*
Y-8940D01*
X-58064Y-6886D01*
Y-4800D01*
G01X-62001D02*
Y-17719D01*
X-52791Y-26929D01*
X-47027D01*
G01Y-14331D02*
X-50586D01*
X-51205Y-14950D01*
X-58800D01*
X-60033Y-13717D01*
Y-4800D01*
G01X-50230Y15510D02*
X-51786Y13954D01*
Y13934D01*
X-56096Y9624D01*
Y7500D01*
G01X-50190D02*
Y11140D01*
X-50230Y11180D01*
Y15510D01*
G01X-65938Y2334D02*
Y366D01*
G01X-34680Y1840D02*
X-36880D01*
X-38323Y397D01*
X-43801D01*
X-43832Y366D01*
X-48222D01*
G01X-58064Y14350D02*
Y16736D01*
X-57910Y16890D01*
Y19390D01*
G01X-38720Y18880D02*
X-41220D01*
X-41730Y19390D01*
X-57910D01*
G01X-58064Y7500D02*
Y14350D01*
G01X-41340Y5140D02*
X-44180D01*
X-45017Y4303D01*
X-48222D01*
G01Y7500D02*
X-43700D01*
X-41340Y5140D01*
G01X-48222Y-1603D02*
X-25707D01*
X-15790Y-11520D01*
Y-17350D01*
G01X-63910Y19390D02*
Y16030D01*
X-61160Y13280D01*
Y11040D01*
X-60060Y9940D01*
Y7527D01*
X-60033Y7500D01*
G01X-48222Y2334D02*
X-39305D01*
X-37699Y3940D01*
Y8859D01*
X-38720Y9880D01*
Y12880D01*
G01X-18480Y-59530D02*
X-20036Y-57974D01*
Y-56594D01*
X-27280Y-49350D01*
G01X-15790Y-35660D02*
X-15270D01*
X-15190Y-35580D01*
X-1990D01*
X6910Y-44480D01*
Y-57460D01*
X7600Y-58150D01*
G01X22420Y-65220D02*
X21790Y-64590D01*
X19730D01*
X8990Y-53850D01*
Y-42490D01*
X-1370Y-32130D01*
X-19670D01*
G01X22700Y-69440D02*
X22420Y-69160D01*
Y-65220D01*
G01D02*
Y-64450D01*
X26710Y-60160D01*
X83720D01*
X110730Y-33150D01*
Y-11510D01*
X109190Y-9970D01*
X103660D01*
G01X32700Y-69440D02*
Y-65440D01*
X32580Y-65320D01*
Y-63330D01*
X33580Y-62330D01*
X84930D01*
X113128Y-34132D01*
Y-4008D01*
X109090Y30D01*
X103660D01*
M02*
