G04 ================== begin FILE IDENTIFICATION RECORD ==================*
G04 Layout Name:  C:/Users/Madison/Desktop/gc/Photon_Dev/Sleep_Track_V3_VAR.brd*
G04 Film Name:    SleepTrack_V3_Silkscreen_Bottom_RA*
G04 File Format:  Gerber RS274X*
G04 File Origin:  Cadence Allegro 17.0-P009*
G04 Origin Date:  Mon Mar 21 06:42:51 2016*
G04 *
G04 Layer:  USER PART NUMBER/SILKSCREEN_BOTTOM*
G04 Layer:  TOLERANCE/SILKSCREEN_BOTTOM*
G04 Layer:  REF DES/SILKSCREEN_BOTTOM*
G04 Layer:  PACKAGE GEOMETRY/SILKSCREEN_BOTTOM*
G04 Layer:  DEVICE TYPE/SILKSCREEN_BOTTOM*
G04 Layer:  COMPONENT VALUE/SILKSCREEN_BOTTOM*
G04 Layer:  BOARD GEOMETRY/SILKSCREEN_BOTTOM*
G04 *
G04 Offset:    (0.00 0.00)*
G04 Mirror:    No*
G04 Mode:      Positive*
G04 Rotation:  0*
G04 FullContactRelief:  No*
G04 UndefLineWidth:     10.00*
G04 ================== end FILE IDENTIFICATION RECORD ====================*
%FSLAX25Y25*MOIN*%
%IR0*IPPOS*OFA0.00000B0.00000*MIA0B0*SFA1.00000B1.00000*%
%ADD10C,.01*%
G75*
%LPD*%
G75*
G54D10*
G01X-72117Y-16948D02*
X-71867Y-17268D01*
X-71700Y-17641D01*
Y-18068D01*
X-71950Y-18548D01*
X-72367Y-18921D01*
X-72867Y-19188D01*
X-73700Y-19401D01*
X-74450Y-19454D01*
X-75200Y-19348D01*
X-75700Y-19188D01*
X-76200Y-18868D01*
X-76533Y-18494D01*
X-76700Y-18121D01*
Y-17748D01*
X-76533Y-17374D01*
X-76283Y-17054D01*
X-75950Y-16788D01*
G01X-76700Y-13721D02*
X-71700D01*
X-72700Y-14361D01*
G01X-76700D02*
Y-13081D01*
G01Y-9428D02*
X-75617Y-9321D01*
X-74700Y-9161D01*
X-73867Y-8948D01*
X-72950Y-8681D01*
X-71700Y-8254D01*
Y-10388D01*
G01X-77658Y-18468D02*
Y-19468D01*
X-82658D01*
Y-16968D01*
G01Y-9968D02*
Y-7468D01*
X-77658D01*
Y-8468D01*
G01X-72078Y1148D02*
X-71828Y828D01*
X-71661Y455D01*
Y28D01*
X-71911Y-452D01*
X-72328Y-825D01*
X-72828Y-1092D01*
X-73661Y-1305D01*
X-74411Y-1358D01*
X-75161Y-1252D01*
X-75661Y-1092D01*
X-76161Y-772D01*
X-76494Y-398D01*
X-76661Y-25D01*
Y348D01*
X-76494Y722D01*
X-76244Y1042D01*
X-75911Y1308D01*
G01X-76661Y4375D02*
X-71661D01*
X-72661Y3735D01*
G01X-76661D02*
Y5015D01*
G01Y8775D02*
X-76578Y9148D01*
X-76328Y9575D01*
X-75911Y9842D01*
X-75328Y9948D01*
X-74744Y9842D01*
X-74244Y9522D01*
X-73994Y9042D01*
Y8508D01*
X-73828Y8188D01*
X-73411Y7922D01*
X-72828Y7815D01*
X-72244Y7975D01*
X-71828Y8348D01*
X-71661Y8775D01*
X-71828Y9202D01*
X-72244Y9575D01*
X-72828Y9735D01*
X-73411Y9628D01*
X-73828Y9362D01*
X-73994Y9042D01*
Y8508D01*
X-74244Y8028D01*
X-74744Y7708D01*
X-75328Y7602D01*
X-75911Y7708D01*
X-76328Y7975D01*
X-76578Y8402D01*
X-76661Y8775D01*
G01X-77658Y764D02*
Y-1736D01*
X-82658D01*
Y-736D01*
G01Y9264D02*
Y10264D01*
X-77658D01*
Y7764D01*
G01X-61350Y15774D02*
X-59957Y16015D01*
X-57459Y16609D01*
X-56759Y16809D01*
X-54060Y17994D01*
X-53740Y18154D01*
X-51632Y19550D01*
X-51335Y19751D01*
X-49150Y21674D01*
X-47675Y23395D01*
X-46470Y25184D01*
X-46227Y25559D01*
X-44880Y28284D01*
X-44780Y28584D01*
X-43988Y31482D01*
X-43912Y31866D01*
X-43697Y33176D01*
X-43550Y35074D01*
X-43707Y37379D01*
X-43793Y38069D01*
X-44380Y40564D01*
X-44680Y41564D01*
X-45270Y43064D01*
X-45430Y43384D01*
X-46473Y45359D01*
X-46827Y45889D01*
X-47975Y47452D01*
X-48625Y48196D01*
X-50128Y49699D01*
X-50872Y50349D01*
X-52665Y51651D01*
X-53340Y52094D01*
X-55660Y53244D01*
X-56140Y53404D01*
X-58258Y54136D01*
X-59142Y54312D01*
X-61450Y54674D01*
X-64850D01*
X-67043Y54333D01*
X-67158Y54312D01*
X-69060Y53804D01*
X-70040Y53444D01*
X-71840Y52654D01*
X-72660Y52194D01*
X-74265Y51197D01*
X-75972Y49799D01*
X-77675Y48096D01*
X-79026Y46456D01*
X-80230Y44464D01*
X-80570Y43884D01*
X-81220Y42364D01*
X-81680Y41084D01*
X-82188Y39182D01*
X-82550Y36674D01*
Y33774D01*
X-82406Y32879D01*
X-82112Y30982D01*
X-81480Y28764D01*
X-81180Y28064D01*
X-80427Y26289D01*
X-79870Y25364D01*
X-78673Y23559D01*
X-77750Y22374D01*
X-75950Y20574D01*
X-75471Y20249D01*
X-74535Y19497D01*
X-72460Y18154D01*
X-72060Y17954D01*
X-69740Y16904D01*
X-68859Y16639D01*
X-66343Y16015D01*
X-65857Y15933D01*
X-64949Y15823D01*
X-61350Y15774D01*
G01X-76750Y36474D02*
X-76707Y35779D01*
X-76520Y34884D01*
X-75926Y33792D01*
X-75250Y32874D01*
X-75068Y32750D01*
X-73932Y31898D01*
X-73340Y31604D01*
X-72259Y31339D01*
X-72150Y31274D01*
X-70950D01*
X-70159Y31509D01*
X-69176Y31918D01*
X-68832Y32150D01*
X-68350Y32474D01*
X-67450Y33374D01*
X-66973Y34089D01*
X-66730Y34564D01*
X-66415Y35565D01*
X-66250Y36474D01*
G01X-81250Y48574D02*
X-83148Y48621D01*
X-83940Y48994D01*
X-84050Y49074D01*
G01X-84550Y48874D02*
X-84350Y49074D01*
X-84250D01*
G01X-84050D02*
X-84150D01*
G01D02*
Y49174D01*
G01Y49074D02*
X-84250D01*
G01X-84150Y49174D02*
Y49474D01*
X-82099Y51715D01*
X-82050Y51874D01*
G01D02*
Y51974D01*
G01X-81950D02*
X-81850D01*
X-81650Y52174D01*
G01X-81950Y51974D02*
X-82050D01*
G01D02*
X-82150D01*
G01D02*
X-82240Y51994D01*
X-83153Y52427D01*
X-84750Y52474D01*
G01X-75250Y54974D02*
X-79049Y55023D01*
X-80040Y55494D01*
X-80150Y55574D01*
G01X-80650Y55274D02*
X-80250Y55574D01*
G01X-80150D02*
Y55674D01*
G01Y55574D02*
X-80250D01*
G01X-80150Y55674D02*
X-80101Y55835D01*
X-76150Y60274D01*
G01X-83650Y57674D02*
X-88849Y57723D01*
X-89840Y58194D01*
X-89950Y58274D01*
G01X-90450Y57974D02*
X-90050Y58274D01*
G01X-89950D02*
Y58374D01*
G01Y58274D02*
X-90050D01*
G01X-89950Y58374D02*
X-89903Y58540D01*
X-84599Y64314D01*
X-84550Y64474D01*
G01X-76150Y60274D02*
Y60374D01*
G01X-76050D02*
X-75650Y60674D01*
G01X-76050Y60374D02*
X-76150D01*
G01D02*
X-76250D01*
G01D02*
X-76340Y60394D01*
X-77451Y60925D01*
X-80850Y60974D01*
G01X-84550Y64474D02*
Y64574D01*
G01X-84450D02*
X-84050Y64874D01*
G01X-84450Y64574D02*
X-84550D01*
G01D02*
X-84650D01*
G01D02*
X-84740Y64594D01*
X-85851Y65125D01*
X-90550Y65174D01*
G01X-46546Y-16662D02*
X-46296Y-16982D01*
X-46129Y-17355D01*
Y-17782D01*
X-46379Y-18262D01*
X-46796Y-18635D01*
X-47296Y-18902D01*
X-48129Y-19115D01*
X-48879Y-19168D01*
X-49629Y-19062D01*
X-50129Y-18902D01*
X-50629Y-18582D01*
X-50962Y-18208D01*
X-51129Y-17835D01*
Y-17462D01*
X-50962Y-17088D01*
X-50712Y-16768D01*
X-50379Y-16502D01*
G01X-51129Y-13435D02*
X-46129D01*
X-47129Y-14075D01*
G01X-51129D02*
Y-12795D01*
G01Y-8395D02*
X-46129D01*
X-49712Y-10368D01*
Y-7702D01*
G01X-52269Y-16968D02*
Y-19468D01*
X-57269D01*
Y-18468D01*
G01X-59286Y-16805D02*
X-59036Y-17125D01*
X-58869Y-17498D01*
Y-17925D01*
X-59119Y-18405D01*
X-59536Y-18778D01*
X-60036Y-19045D01*
X-60869Y-19258D01*
X-61619Y-19311D01*
X-62369Y-19205D01*
X-62869Y-19045D01*
X-63369Y-18725D01*
X-63702Y-18351D01*
X-63869Y-17978D01*
Y-17605D01*
X-63702Y-17231D01*
X-63452Y-16911D01*
X-63119Y-16645D01*
G01X-63869Y-13578D02*
X-58869D01*
X-59869Y-14218D01*
G01X-63869D02*
Y-12938D01*
G01X-63119Y-10351D02*
X-63536Y-10031D01*
X-63786Y-9658D01*
X-63869Y-9178D01*
X-63702Y-8698D01*
X-63369Y-8325D01*
X-62786Y-8058D01*
X-62119Y-8005D01*
X-61452Y-8111D01*
X-61036Y-8378D01*
X-60702Y-8751D01*
X-60619Y-9125D01*
X-60702Y-9498D01*
X-61036Y-9978D01*
X-58869Y-9818D01*
Y-8378D01*
G01X-65126Y-18468D02*
Y-19468D01*
X-70126D01*
Y-16968D01*
G01X-46637Y927D02*
X-46387Y607D01*
X-46220Y234D01*
Y-193D01*
X-46470Y-673D01*
X-46887Y-1046D01*
X-47387Y-1313D01*
X-48220Y-1526D01*
X-48970Y-1579D01*
X-49720Y-1473D01*
X-50220Y-1313D01*
X-50720Y-993D01*
X-51053Y-619D01*
X-51220Y-246D01*
Y127D01*
X-51053Y501D01*
X-50803Y821D01*
X-50470Y1087D01*
G01X-51220Y4154D02*
X-46220D01*
X-47220Y3514D01*
G01X-51220D02*
Y4794D01*
G01X-47053Y7541D02*
X-46553Y7861D01*
X-46303Y8234D01*
X-46220Y8661D01*
X-46387Y9194D01*
X-46803Y9567D01*
X-47303Y9674D01*
X-47803Y9621D01*
X-48220Y9407D01*
X-49053Y8341D01*
X-49637Y7861D01*
X-50470Y7541D01*
X-51220Y7434D01*
Y9674D01*
G01X-57269Y7764D02*
Y10264D01*
X-52269D01*
Y9264D01*
G01Y-736D02*
Y-1736D01*
X-57269D01*
Y764D01*
G01Y-8468D02*
Y-7468D01*
X-52269D01*
Y-9968D01*
G01X-70126D02*
Y-7468D01*
X-65126D01*
Y-8468D01*
G01X-59416Y966D02*
X-59166Y646D01*
X-58999Y273D01*
Y-154D01*
X-59249Y-634D01*
X-59666Y-1007D01*
X-60166Y-1274D01*
X-60999Y-1487D01*
X-61749Y-1540D01*
X-62499Y-1434D01*
X-62999Y-1274D01*
X-63499Y-954D01*
X-63832Y-580D01*
X-63999Y-207D01*
Y166D01*
X-63832Y540D01*
X-63582Y860D01*
X-63249Y1126D01*
G01X-63999Y4193D02*
X-58999D01*
X-59999Y3553D01*
G01X-63999D02*
Y4833D01*
G01X-61916Y7580D02*
X-61332Y7953D01*
X-60999Y8273D01*
X-60832Y8700D01*
X-60999Y9073D01*
X-61332Y9340D01*
X-61832Y9553D01*
X-62416Y9606D01*
X-62916Y9553D01*
X-63416Y9340D01*
X-63832Y9020D01*
X-63999Y8646D01*
X-63832Y8220D01*
X-63332Y7846D01*
X-62582Y7633D01*
X-61749Y7580D01*
X-60666Y7686D01*
X-60082Y7846D01*
X-59499Y8113D01*
X-59082Y8486D01*
X-58999Y8860D01*
X-59166Y9233D01*
X-59582Y9500D01*
G01X-65126Y764D02*
Y-1736D01*
X-70126D01*
Y-736D01*
G01Y9264D02*
Y10264D01*
X-65126D01*
Y7764D01*
G01X-69550Y24974D02*
X-68240Y24304D01*
X-66559Y23639D01*
X-63850Y23074D01*
X-62750D01*
X-61257Y23315D01*
X-59360Y23804D01*
X-57560Y24594D01*
X-56550Y25074D01*
G01X-59850Y36474D02*
X-59806Y35679D01*
X-59620Y34884D01*
X-59026Y33792D01*
X-58450Y32974D01*
X-58168Y32750D01*
X-57032Y31898D01*
X-56440Y31604D01*
X-55359Y31339D01*
X-55250Y31274D01*
X-54050D01*
X-53259Y31509D01*
X-52276Y31918D01*
X-51932Y32150D01*
X-51450Y32474D01*
X-50550Y33374D01*
X-50073Y34089D01*
X-49870Y34484D01*
X-49492Y35680D01*
X-49350Y36474D01*
G01X-44350Y49574D02*
X-44730Y50184D01*
X-46050Y52074D01*
X-47850Y53874D01*
X-48868Y54650D01*
X-50660Y55754D01*
X-52950Y56774D01*
G01X-39350Y51174D02*
X-40127Y52589D01*
X-41275Y54354D01*
X-43125Y56497D01*
X-44573Y57849D01*
X-45670Y58749D01*
X-47665Y60051D01*
X-48060Y60254D01*
X-51550Y61774D01*
X-51950D01*
X-52240Y61554D01*
X-52350Y61474D01*
G01X-33950Y52774D02*
X-34630Y54184D01*
X-36274Y56956D01*
X-37226Y58194D01*
X-38050Y59274D01*
X-40650Y61874D01*
X-41770Y62749D01*
X-44365Y64551D01*
X-45640Y65294D01*
X-49060Y66744D01*
X-49360Y66844D01*
X-50450Y67174D01*
X-50850Y67674D01*
G01X-53650Y56374D02*
X-53050Y56774D01*
G01X-52950D02*
X-53050D01*
G01D02*
Y56874D01*
G01D02*
X-53150Y56974D01*
G01X-30095Y-58825D02*
Y-53825D01*
X-31429D01*
X-31855Y-54075D01*
X-32122Y-54408D01*
X-32229Y-55075D01*
X-32122Y-55742D01*
X-31802Y-56158D01*
X-31429Y-56408D01*
X-30095D01*
G01X-31429D02*
X-32229Y-58825D01*
G01X-34549Y-54658D02*
X-34869Y-54158D01*
X-35242Y-53908D01*
X-35669Y-53825D01*
X-36202Y-53992D01*
X-36575Y-54408D01*
X-36682Y-54908D01*
X-36629Y-55408D01*
X-36415Y-55825D01*
X-35349Y-56658D01*
X-34869Y-57242D01*
X-34549Y-58075D01*
X-34442Y-58825D01*
X-36682D01*
G01X-38949Y-56742D02*
X-39322Y-56158D01*
X-39642Y-55825D01*
X-40069Y-55658D01*
X-40442Y-55825D01*
X-40709Y-56158D01*
X-40922Y-56658D01*
X-40975Y-57242D01*
X-40922Y-57742D01*
X-40709Y-58242D01*
X-40389Y-58658D01*
X-40015Y-58825D01*
X-39589Y-58658D01*
X-39215Y-58158D01*
X-39002Y-57408D01*
X-38949Y-56575D01*
X-39055Y-55492D01*
X-39215Y-54908D01*
X-39482Y-54325D01*
X-39855Y-53908D01*
X-40229Y-53825D01*
X-40602Y-53992D01*
X-40869Y-54408D01*
G01X-26302Y-59843D02*
X-28802D01*
Y-54843D01*
X-27802D01*
G01X-31343Y-69784D02*
Y-64784D01*
X-32677D01*
X-33103Y-65034D01*
X-33370Y-65367D01*
X-33477Y-66034D01*
X-33370Y-66701D01*
X-33050Y-67117D01*
X-32677Y-67367D01*
X-31343D01*
G01X-32677D02*
X-33477Y-69784D01*
G01X-35797Y-65617D02*
X-36117Y-65117D01*
X-36490Y-64867D01*
X-36917Y-64784D01*
X-37450Y-64951D01*
X-37823Y-65367D01*
X-37930Y-65867D01*
X-37877Y-66367D01*
X-37663Y-66784D01*
X-36597Y-67617D01*
X-36117Y-68201D01*
X-35797Y-69034D01*
X-35690Y-69784D01*
X-37930D01*
G01X-41103D02*
X-41210Y-68701D01*
X-41370Y-67784D01*
X-41583Y-66951D01*
X-41850Y-66034D01*
X-42277Y-64784D01*
X-40143D01*
G01X-26302Y-70048D02*
X-28802D01*
Y-65048D01*
X-27802D01*
G01X-31525Y-49127D02*
Y-44127D01*
X-32859D01*
X-33285Y-44377D01*
X-33552Y-44710D01*
X-33659Y-45377D01*
X-33552Y-46044D01*
X-33232Y-46460D01*
X-32859Y-46710D01*
X-31525D01*
G01X-32859D02*
X-33659Y-49127D01*
G01X-35979Y-44960D02*
X-36299Y-44460D01*
X-36672Y-44210D01*
X-37099Y-44127D01*
X-37632Y-44294D01*
X-38005Y-44710D01*
X-38112Y-45210D01*
X-38059Y-45710D01*
X-37845Y-46127D01*
X-36779Y-46960D01*
X-36299Y-47544D01*
X-35979Y-48377D01*
X-35872Y-49127D01*
X-38112D01*
G01X-40219Y-48377D02*
X-40539Y-48794D01*
X-40912Y-49044D01*
X-41392Y-49127D01*
X-41872Y-48960D01*
X-42245Y-48627D01*
X-42512Y-48044D01*
X-42565Y-47377D01*
X-42459Y-46710D01*
X-42192Y-46294D01*
X-41819Y-45960D01*
X-41445Y-45877D01*
X-41072Y-45960D01*
X-40592Y-46294D01*
X-40752Y-44127D01*
X-42192D01*
G01X-26302Y-49664D02*
X-28802D01*
Y-44664D01*
X-27802D01*
G01X-34612Y-17117D02*
X-34362Y-17437D01*
X-34195Y-17810D01*
Y-18237D01*
X-34445Y-18717D01*
X-34862Y-19090D01*
X-35362Y-19357D01*
X-36195Y-19570D01*
X-36945Y-19623D01*
X-37695Y-19517D01*
X-38195Y-19357D01*
X-38695Y-19037D01*
X-39028Y-18663D01*
X-39195Y-18290D01*
Y-17917D01*
X-39028Y-17543D01*
X-38778Y-17223D01*
X-38445Y-16957D01*
G01X-39195Y-13890D02*
X-34195D01*
X-35195Y-14530D01*
G01X-39195D02*
Y-13250D01*
G01X-38195Y-10663D02*
X-38778Y-10343D01*
X-39112Y-9917D01*
X-39195Y-9437D01*
X-39112Y-9010D01*
X-38695Y-8583D01*
X-38195Y-8317D01*
X-37695Y-8263D01*
X-37112Y-8370D01*
X-36695Y-8743D01*
X-36528Y-9117D01*
Y-9597D01*
G01Y-9117D02*
X-36278Y-8797D01*
X-35862Y-8530D01*
X-35362Y-8423D01*
X-34862Y-8530D01*
X-34445Y-8797D01*
X-34195Y-9277D01*
X-34278Y-9757D01*
X-34612Y-10237D01*
G01X-40075Y-16968D02*
Y-19468D01*
X-45075D01*
Y-18468D01*
G01X-22860Y-16961D02*
X-22610Y-17281D01*
X-22443Y-17654D01*
Y-18081D01*
X-22693Y-18561D01*
X-23110Y-18934D01*
X-23610Y-19201D01*
X-24443Y-19414D01*
X-25193Y-19467D01*
X-25943Y-19361D01*
X-26443Y-19201D01*
X-26943Y-18881D01*
X-27276Y-18507D01*
X-27443Y-18134D01*
Y-17761D01*
X-27276Y-17387D01*
X-27026Y-17067D01*
X-26693Y-16801D01*
G01X-23276Y-14747D02*
X-22776Y-14427D01*
X-22526Y-14054D01*
X-22443Y-13627D01*
X-22610Y-13094D01*
X-23026Y-12721D01*
X-23526Y-12614D01*
X-24026Y-12667D01*
X-24443Y-12881D01*
X-25276Y-13947D01*
X-25860Y-14427D01*
X-26693Y-14747D01*
X-27443Y-14854D01*
Y-12614D01*
G01X-26443Y-10507D02*
X-27026Y-10187D01*
X-27360Y-9761D01*
X-27443Y-9281D01*
X-27360Y-8854D01*
X-26943Y-8427D01*
X-26443Y-8161D01*
X-25943Y-8107D01*
X-25360Y-8214D01*
X-24943Y-8587D01*
X-24776Y-8961D01*
Y-9441D01*
G01Y-8961D02*
X-24526Y-8641D01*
X-24110Y-8374D01*
X-23610Y-8267D01*
X-23110Y-8374D01*
X-22693Y-8641D01*
X-22443Y-9121D01*
X-22526Y-9601D01*
X-22860Y-10081D01*
G01X-28336Y-18468D02*
Y-19468D01*
X-33336D01*
Y-16968D01*
G01X-45075Y-8468D02*
Y-7468D01*
X-40075D01*
Y-9968D01*
G01X-22769Y3098D02*
X-22519Y2778D01*
X-22352Y2405D01*
Y1978D01*
X-22602Y1498D01*
X-23019Y1125D01*
X-23519Y858D01*
X-24352Y645D01*
X-25102Y592D01*
X-25852Y698D01*
X-26352Y858D01*
X-26852Y1178D01*
X-27185Y1552D01*
X-27352Y1925D01*
Y2298D01*
X-27185Y2672D01*
X-26935Y2992D01*
X-26602Y3258D01*
G01X-27352Y6965D02*
X-22352D01*
X-25935Y4992D01*
Y7658D01*
G01X-28336Y764D02*
Y-1736D01*
X-33336D01*
Y-736D01*
G01Y9264D02*
Y10264D01*
X-28336D01*
Y7764D01*
G01X-33336Y-9968D02*
Y-7468D01*
X-28336D01*
Y-8468D01*
G01X-34469Y1213D02*
X-34219Y893D01*
X-34052Y520D01*
Y93D01*
X-34302Y-387D01*
X-34719Y-760D01*
X-35219Y-1027D01*
X-36052Y-1240D01*
X-36802Y-1293D01*
X-37552Y-1187D01*
X-38052Y-1027D01*
X-38552Y-707D01*
X-38885Y-333D01*
X-39052Y40D01*
Y413D01*
X-38885Y787D01*
X-38635Y1107D01*
X-38302Y1373D01*
G01X-39052Y4440D02*
X-34052D01*
X-35052Y3800D01*
G01X-39052D02*
Y5080D01*
G01Y8840D02*
X-34052D01*
X-35052Y8200D01*
G01X-39052D02*
Y9480D01*
G01X-45075Y7764D02*
Y10264D01*
X-40075D01*
Y9264D01*
G01Y-736D02*
Y-1736D01*
X-45075D01*
Y764D01*
G01X-31543Y24974D02*
Y27474D01*
X-30850Y25391D01*
X-30157Y27474D01*
Y24974D01*
G01X-29317D02*
X-28650Y27474D01*
X-27983Y24974D01*
G01X-28223Y25849D02*
X-29077D01*
G01X-27037Y24974D02*
Y27474D01*
X-26503D01*
X-26290Y27349D01*
X-26130Y27182D01*
X-25997Y26932D01*
X-25890Y26641D01*
X-25863Y26224D01*
X-25890Y25807D01*
X-25997Y25516D01*
X-26130Y25266D01*
X-26290Y25099D01*
X-26503Y24974D01*
X-27037D01*
G01X-24570Y27474D02*
X-23930D01*
G01X-24250D02*
Y24974D01*
G01X-24570D02*
X-23930D01*
G01X-22610Y25307D02*
X-22397Y25099D01*
X-22157Y24974D01*
X-21943D01*
X-21730Y25099D01*
X-21570Y25307D01*
X-21490Y25599D01*
X-21543Y25891D01*
X-21677Y26141D01*
X-21917Y26307D01*
X-22237Y26391D01*
X-22423Y26557D01*
X-22503Y26849D01*
X-22450Y27141D01*
X-22317Y27349D01*
X-22130Y27474D01*
X-21943D01*
X-21757Y27391D01*
X-21597Y27182D01*
G01X-19850Y24974D02*
X-20063Y25016D01*
X-20250Y25182D01*
X-20410Y25432D01*
X-20517Y25724D01*
X-20570Y26057D01*
Y26391D01*
X-20517Y26724D01*
X-20410Y27016D01*
X-20250Y27266D01*
X-20063Y27432D01*
X-19850Y27474D01*
X-19637Y27432D01*
X-19450Y27266D01*
X-19290Y27016D01*
X-19183Y26724D01*
X-19130Y26391D01*
Y26057D01*
X-19183Y25724D01*
X-19290Y25432D01*
X-19450Y25182D01*
X-19637Y25016D01*
X-19850Y24974D01*
G01X-18263D02*
Y27474D01*
X-17037Y24974D01*
Y27474D01*
G01X-13250D02*
Y24974D01*
G01X-13863Y27474D02*
X-12637D01*
G01X-11583Y24974D02*
Y27474D01*
X-10917D01*
X-10703Y27349D01*
X-10570Y27182D01*
X-10517Y26849D01*
X-10570Y26516D01*
X-10730Y26307D01*
X-10917Y26182D01*
X-11583D01*
G01X-10917D02*
X-10517Y24974D01*
G01X-9517D02*
X-8850Y27474D01*
X-8183Y24974D01*
G01X-8423Y25849D02*
X-9277D01*
G01X-6650Y24974D02*
Y26099D01*
X-7183Y27474D01*
G01X-6117D02*
X-6650Y26099D01*
G01X-5063Y24974D02*
Y27474D01*
X-3837Y24974D01*
Y27474D01*
G01X-2810Y24974D02*
Y27474D01*
G01X-1690D02*
Y24974D01*
G01Y26224D02*
X-2810D01*
G01X-717Y24974D02*
X-50Y27474D01*
X617Y24974D01*
G01X377Y25849D02*
X-477D01*
G01X1457Y24974D02*
Y27474D01*
X2150Y25391D01*
X2843Y27474D01*
Y24974D01*
G01X-31383Y30574D02*
Y28074D01*
X-30317D01*
G01X-29237Y30574D02*
Y28782D01*
X-29130Y28407D01*
X-28917Y28157D01*
X-28650Y28074D01*
X-28383Y28157D01*
X-28170Y28407D01*
X-28063Y28782D01*
Y30574D01*
G01X-25863Y30366D02*
X-26023Y30491D01*
X-26210Y30574D01*
X-26423D01*
X-26663Y30449D01*
X-26850Y30241D01*
X-26983Y29991D01*
X-27090Y29574D01*
X-27117Y29199D01*
X-27063Y28824D01*
X-26983Y28574D01*
X-26823Y28324D01*
X-26637Y28157D01*
X-26450Y28074D01*
X-26263D01*
X-26077Y28157D01*
X-25917Y28282D01*
X-25783Y28449D01*
G01X-22850Y30574D02*
X-22477Y28074D01*
X-22050Y30574D01*
X-21623Y28074D01*
X-21250Y30574D01*
G01X-20517Y28074D02*
X-19850Y30574D01*
X-19183Y28074D01*
G01X-19423Y28949D02*
X-20277D01*
G01X-18210Y28407D02*
X-17997Y28199D01*
X-17757Y28074D01*
X-17543D01*
X-17330Y28199D01*
X-17170Y28407D01*
X-17090Y28699D01*
X-17143Y28991D01*
X-17277Y29241D01*
X-17517Y29407D01*
X-17837Y29491D01*
X-18023Y29657D01*
X-18103Y29949D01*
X-18050Y30241D01*
X-17917Y30449D01*
X-17730Y30574D01*
X-17543D01*
X-17357Y30491D01*
X-17197Y30282D01*
G01X-15450Y30574D02*
Y28074D01*
G01X-16063Y30574D02*
X-14837D01*
G01X-13570D02*
X-12930D01*
G01X-13250D02*
Y28074D01*
G01X-13570D02*
X-12930D01*
G01X-11717D02*
X-11050Y30574D01*
X-10383Y28074D01*
G01X-10623Y28949D02*
X-11477D01*
G01X-9437Y30574D02*
Y28782D01*
X-9330Y28407D01*
X-9117Y28157D01*
X-8850Y28074D01*
X-8583Y28157D01*
X-8370Y28407D01*
X-8263Y28782D01*
Y30574D01*
G01X-7210Y28074D02*
X-6090Y30574D01*
G01X-7210D02*
X-6090Y28074D01*
G01X-31410Y31507D02*
X-31197Y31299D01*
X-30957Y31174D01*
X-30743D01*
X-30530Y31299D01*
X-30370Y31507D01*
X-30290Y31799D01*
X-30343Y32091D01*
X-30477Y32341D01*
X-30717Y32507D01*
X-31037Y32591D01*
X-31223Y32757D01*
X-31303Y33049D01*
X-31250Y33341D01*
X-31117Y33549D01*
X-30930Y33674D01*
X-30743D01*
X-30557Y33591D01*
X-30397Y33382D01*
G01X-29183Y33674D02*
Y31174D01*
X-28117D01*
G01X-25917D02*
X-26983D01*
Y33674D01*
X-25917D01*
G01X-26343Y32466D02*
X-26983D01*
G01X-23717Y31174D02*
X-24783D01*
Y33674D01*
X-23717D01*
G01X-24143Y32466D02*
X-24783D01*
G01X-22583Y31174D02*
Y33674D01*
X-21943D01*
X-21730Y33549D01*
X-21570Y33257D01*
X-21517Y32924D01*
X-21570Y32591D01*
X-21703Y32341D01*
X-21943Y32216D01*
X-22583D01*
G01X-19850Y33674D02*
Y31174D01*
G01X-20463Y33674D02*
X-19237D01*
G01X-18183Y31174D02*
Y33674D01*
X-17517D01*
X-17303Y33549D01*
X-17170Y33382D01*
X-17117Y33049D01*
X-17170Y32716D01*
X-17330Y32507D01*
X-17517Y32382D01*
X-18183D01*
G01X-17517D02*
X-17117Y31174D01*
G01X-16117D02*
X-15450Y33674D01*
X-14783Y31174D01*
G01X-15023Y32049D02*
X-15877D01*
G01X-12663Y33466D02*
X-12823Y33591D01*
X-13010Y33674D01*
X-13223D01*
X-13463Y33549D01*
X-13650Y33341D01*
X-13783Y33091D01*
X-13890Y32674D01*
X-13917Y32299D01*
X-13863Y31924D01*
X-13783Y31674D01*
X-13623Y31424D01*
X-13437Y31257D01*
X-13250Y31174D01*
X-13063D01*
X-12877Y31257D01*
X-12717Y31382D01*
X-12583Y31549D01*
G01X-11637Y31174D02*
Y33674D01*
G01X-10623D02*
X-11637Y32132D01*
G01X-10463Y31174D02*
X-11183Y32841D01*
G01X-8850Y31091D02*
X-8903Y31132D01*
Y31216D01*
X-8850Y31257D01*
X-8797Y31216D01*
Y31132D01*
X-8850Y31091D01*
G01X-6970Y33674D02*
X-6330D01*
G01X-6650D02*
Y31174D01*
G01X-6970D02*
X-6330D01*
G01X-4450D02*
X-4663Y31216D01*
X-4850Y31382D01*
X-5010Y31632D01*
X-5117Y31924D01*
X-5170Y32257D01*
Y32591D01*
X-5117Y32924D01*
X-5010Y33216D01*
X-4850Y33466D01*
X-4663Y33632D01*
X-4450Y33674D01*
X-4237Y33632D01*
X-4050Y33466D01*
X-3890Y33216D01*
X-3783Y32924D01*
X-3730Y32591D01*
Y32257D01*
X-3783Y31924D01*
X-3890Y31632D01*
X-4050Y31382D01*
X-4237Y31216D01*
X-4450Y31174D01*
G01X-717Y33674D02*
X-50Y31174D01*
X617Y33674D01*
G01X1350Y30341D02*
X2950D01*
G01X3763Y31674D02*
X3923Y31382D01*
X4137Y31216D01*
X4377Y31174D01*
X4590Y31216D01*
X4803Y31424D01*
X4937Y31674D01*
X4963Y31924D01*
X4910Y32216D01*
X4723Y32424D01*
X4537Y32507D01*
X4297D01*
G01X4537D02*
X4697Y32632D01*
X4830Y32841D01*
X4883Y33091D01*
X4830Y33341D01*
X4697Y33549D01*
X4457Y33674D01*
X4217Y33632D01*
X3977Y33466D01*
G01X6550Y31091D02*
X6497Y31132D01*
Y31216D01*
X6550Y31257D01*
X6603Y31216D01*
Y31132D01*
X6550Y31091D01*
G01X8750Y33674D02*
X8537Y33591D01*
X8377Y33382D01*
X8270Y33132D01*
X8190Y32799D01*
X8163Y32424D01*
X8190Y32049D01*
X8270Y31716D01*
X8377Y31466D01*
X8537Y31257D01*
X8750Y31174D01*
X8963Y31257D01*
X9123Y31466D01*
X9230Y31716D01*
X9310Y32049D01*
X9337Y32424D01*
X9310Y32799D01*
X9230Y33132D01*
X9123Y33382D01*
X8963Y33591D01*
X8750Y33674D01*
G01X-44650Y48774D02*
X-44380Y49284D01*
X-44350Y49474D01*
G01X-43050Y48974D02*
X-44250Y49574D01*
G01X-44350Y49474D02*
Y49574D01*
G01X-44250D02*
X-44350D01*
G01X-39750Y50074D02*
X-39573Y50289D01*
X-39370Y50884D01*
X-39350Y50974D01*
G01X-38050Y50474D02*
X-39250Y51074D01*
G01X-39350Y50974D02*
Y51074D01*
G01X-39250D02*
X-39350D01*
G01D02*
Y51174D01*
G01X-34450Y51574D02*
X-34273Y51789D01*
X-33970Y52484D01*
X-33950Y52574D01*
G01X-32850Y52174D02*
X-33850Y52674D01*
G01X-33950Y52574D02*
Y52674D01*
G01X-33850D02*
X-33950D01*
G01D02*
Y52774D01*
G01X-27825Y74113D02*
Y87893D01*
X-10109D01*
Y74113D01*
X-27825D01*
G01X-17802Y-54843D02*
X-16802D01*
Y-59843D01*
X-19302D01*
G01X-17802Y-65048D02*
X-16802D01*
Y-70048D01*
X-19302D01*
G01X-17802Y-44664D02*
X-16802D01*
Y-49664D01*
X-19302D01*
G01X1560Y-41834D02*
Y-36834D01*
X226D01*
X-200Y-37084D01*
X-467Y-37417D01*
X-574Y-38084D01*
X-467Y-38751D01*
X-147Y-39167D01*
X226Y-39417D01*
X1560D01*
G01X226D02*
X-574Y-41834D01*
G01X-2734Y-40834D02*
X-3054Y-41417D01*
X-3480Y-41751D01*
X-3960Y-41834D01*
X-4387Y-41751D01*
X-4814Y-41334D01*
X-5080Y-40834D01*
X-5134Y-40334D01*
X-5027Y-39751D01*
X-4654Y-39334D01*
X-4280Y-39167D01*
X-3800D01*
G01X-4280D02*
X-4600Y-38917D01*
X-4867Y-38501D01*
X-4974Y-38001D01*
X-4867Y-37501D01*
X-4600Y-37084D01*
X-4120Y-36834D01*
X-3640Y-36917D01*
X-3160Y-37251D01*
G01X-8200Y-41834D02*
X-8307Y-40751D01*
X-8467Y-39834D01*
X-8680Y-39001D01*
X-8947Y-38084D01*
X-9374Y-36834D01*
X-7240D01*
G01X-6802Y-49118D02*
X-9302D01*
Y-44118D01*
X-8302D01*
G01X-8219Y84433D02*
X-4636D01*
X-3886Y84180D01*
X-3386Y83674D01*
X-3219Y83041D01*
X-3386Y82407D01*
X-3886Y81901D01*
X-4636Y81648D01*
X-8219D01*
G01X-5302Y79146D02*
X-5886Y78702D01*
X-6219Y78322D01*
X-6386Y77816D01*
X-6219Y77373D01*
X-5886Y77056D01*
X-5386Y76803D01*
X-4802Y76739D01*
X-4302Y76803D01*
X-3802Y77056D01*
X-3386Y77436D01*
X-3219Y77879D01*
X-3386Y78386D01*
X-3886Y78829D01*
X-4636Y79082D01*
X-5469Y79146D01*
X-6552Y79019D01*
X-7136Y78829D01*
X-7719Y78512D01*
X-8136Y78069D01*
X-8219Y77626D01*
X-8052Y77183D01*
X-7636Y76866D01*
G01X1698Y-44118D02*
X2698D01*
Y-49118D01*
X198D01*
G01X29965Y-62153D02*
Y-57153D01*
X28631D01*
X28205Y-57403D01*
X27938Y-57736D01*
X27831Y-58403D01*
X27938Y-59070D01*
X28258Y-59486D01*
X28631Y-59736D01*
X29965D01*
G01X28631D02*
X27831Y-62153D01*
G01X25511Y-57986D02*
X25191Y-57486D01*
X24818Y-57236D01*
X24391Y-57153D01*
X23858Y-57320D01*
X23485Y-57736D01*
X23378Y-58236D01*
X23431Y-58736D01*
X23645Y-59153D01*
X24711Y-59986D01*
X25191Y-60570D01*
X25511Y-61403D01*
X25618Y-62153D01*
X23378D01*
G01X21271Y-61153D02*
X20951Y-61736D01*
X20525Y-62070D01*
X20045Y-62153D01*
X19618Y-62070D01*
X19191Y-61653D01*
X18925Y-61153D01*
X18871Y-60653D01*
X18978Y-60070D01*
X19351Y-59653D01*
X19725Y-59486D01*
X20205D01*
G01X19725D02*
X19405Y-59236D01*
X19138Y-58820D01*
X19031Y-58320D01*
X19138Y-57820D01*
X19405Y-57403D01*
X19885Y-57153D01*
X20365Y-57236D01*
X20845Y-57570D01*
G01X34291Y-62534D02*
X31791D01*
Y-57534D01*
X32791D01*
G01X27127Y-46858D02*
X27447Y-46608D01*
X27820Y-46441D01*
X28247D01*
X28727Y-46691D01*
X29100Y-47108D01*
X29367Y-47608D01*
X29580Y-48441D01*
X29633Y-49191D01*
X29527Y-49941D01*
X29367Y-50441D01*
X29047Y-50941D01*
X28673Y-51274D01*
X28300Y-51441D01*
X27927D01*
X27553Y-51274D01*
X27233Y-51024D01*
X26967Y-50691D01*
G01X23900Y-51441D02*
Y-46441D01*
X24540Y-47441D01*
G01Y-51441D02*
X23260D01*
G01X20407Y-50858D02*
X20033Y-51274D01*
X19607Y-51441D01*
X19180Y-51274D01*
X18807Y-50774D01*
X18540Y-50024D01*
X18433Y-49274D01*
Y-48358D01*
X18540Y-47608D01*
X18807Y-46941D01*
X19127Y-46608D01*
X19500Y-46441D01*
X19927Y-46608D01*
X20247Y-46941D01*
X20460Y-47441D01*
X20567Y-48108D01*
X20460Y-48691D01*
X20193Y-49274D01*
X19873Y-49608D01*
X19500Y-49691D01*
X19073Y-49524D01*
X18753Y-49108D01*
X18433Y-48358D01*
G01X34161Y-52160D02*
X31661D01*
Y-47160D01*
X32661D01*
G01X47593Y-40768D02*
Y-35768D01*
X46259D01*
X45833Y-36018D01*
X45566Y-36351D01*
X45459Y-37018D01*
X45566Y-37685D01*
X45886Y-38101D01*
X46259Y-38351D01*
X47593D01*
G01X46259D02*
X45459Y-40768D01*
G01X43139Y-36601D02*
X42819Y-36101D01*
X42446Y-35851D01*
X42019Y-35768D01*
X41486Y-35935D01*
X41113Y-36351D01*
X41006Y-36851D01*
X41059Y-37351D01*
X41273Y-37768D01*
X42339Y-38601D01*
X42819Y-39185D01*
X43139Y-40018D01*
X43246Y-40768D01*
X41006D01*
G01X38633Y-40185D02*
X38259Y-40601D01*
X37833Y-40768D01*
X37406Y-40601D01*
X37033Y-40101D01*
X36766Y-39351D01*
X36659Y-38601D01*
Y-37685D01*
X36766Y-36935D01*
X37033Y-36268D01*
X37353Y-35935D01*
X37726Y-35768D01*
X38153Y-35935D01*
X38473Y-36268D01*
X38686Y-36768D01*
X38793Y-37435D01*
X38686Y-38018D01*
X38419Y-38601D01*
X38099Y-38935D01*
X37726Y-39018D01*
X37299Y-38851D01*
X36979Y-38435D01*
X36659Y-37685D01*
G01X37198Y-34571D02*
X36198D01*
Y-29571D01*
X38698D01*
G01X41518Y10706D02*
X41838Y10956D01*
X42211Y11123D01*
X42638D01*
X43118Y10873D01*
X43491Y10456D01*
X43758Y9956D01*
X43971Y9123D01*
X44024Y8373D01*
X43918Y7623D01*
X43758Y7123D01*
X43438Y6623D01*
X43064Y6290D01*
X42691Y6123D01*
X42318D01*
X41944Y6290D01*
X41624Y6540D01*
X41358Y6873D01*
G01X39304Y10290D02*
X38984Y10790D01*
X38611Y11040D01*
X38184Y11123D01*
X37651Y10956D01*
X37278Y10540D01*
X37171Y10040D01*
X37224Y9540D01*
X37438Y9123D01*
X38504Y8290D01*
X38984Y7706D01*
X39304Y6873D01*
X39411Y6123D01*
X37171D01*
G01X34904Y10290D02*
X34584Y10790D01*
X34211Y11040D01*
X33784Y11123D01*
X33251Y10956D01*
X32878Y10540D01*
X32771Y10040D01*
X32824Y9540D01*
X33038Y9123D01*
X34104Y8290D01*
X34584Y7706D01*
X34904Y6873D01*
X35011Y6123D01*
X32771D01*
G01X33350Y13191D02*
X32350D01*
Y18191D01*
X34850D01*
G01X61581Y-57057D02*
Y-52057D01*
X60247D01*
X59821Y-52307D01*
X59554Y-52640D01*
X59447Y-53307D01*
X59554Y-53974D01*
X59874Y-54390D01*
X60247Y-54640D01*
X61581D01*
G01X60247D02*
X59447Y-57057D01*
G01X57127Y-54974D02*
X56754Y-54390D01*
X56434Y-54057D01*
X56007Y-53890D01*
X55634Y-54057D01*
X55367Y-54390D01*
X55154Y-54890D01*
X55101Y-55474D01*
X55154Y-55974D01*
X55367Y-56474D01*
X55687Y-56890D01*
X56061Y-57057D01*
X56487Y-56890D01*
X56861Y-56390D01*
X57074Y-55640D01*
X57127Y-54807D01*
X57021Y-53724D01*
X56861Y-53140D01*
X56594Y-52557D01*
X56221Y-52140D01*
X55847Y-52057D01*
X55474Y-52224D01*
X55207Y-52640D01*
G01X53578Y-62508D02*
X52578D01*
Y-57508D01*
X55078D01*
G01X42791Y-57534D02*
X43791D01*
Y-62534D01*
X41291D01*
G01X64311Y-39832D02*
Y-34832D01*
X62977D01*
X62551Y-35082D01*
X62284Y-35415D01*
X62177Y-36082D01*
X62284Y-36749D01*
X62604Y-37165D01*
X62977Y-37415D01*
X64311D01*
G01X62977D02*
X62177Y-39832D01*
G01X59857Y-35665D02*
X59537Y-35165D01*
X59164Y-34915D01*
X58737Y-34832D01*
X58204Y-34999D01*
X57831Y-35415D01*
X57724Y-35915D01*
X57777Y-36415D01*
X57991Y-36832D01*
X59057Y-37665D01*
X59537Y-38249D01*
X59857Y-39082D01*
X59964Y-39832D01*
X57724D01*
G01X55457Y-35665D02*
X55137Y-35165D01*
X54764Y-34915D01*
X54337Y-34832D01*
X53804Y-34999D01*
X53431Y-35415D01*
X53324Y-35915D01*
X53377Y-36415D01*
X53591Y-36832D01*
X54657Y-37665D01*
X55137Y-38249D01*
X55457Y-39082D01*
X55564Y-39832D01*
X53324D01*
G01X55559Y-47051D02*
X53059D01*
Y-42051D01*
X54059D01*
G01X42661Y-47160D02*
X43661D01*
Y-52160D01*
X41161D01*
G01X45698Y-29571D02*
X48198D01*
Y-34571D01*
X47198D01*
G01X41850Y18191D02*
X44350D01*
Y13191D01*
X43350D01*
G01X62078Y-57508D02*
X64578D01*
Y-62508D01*
X63578D01*
G01X64059Y-42051D02*
X65059D01*
Y-47051D01*
X62559D01*
M02*
