G04 ================== begin FILE IDENTIFICATION RECORD ==================*
G04 Layout Name:  C:/Users/Madison/Desktop/gc/Photon_Dev/Sleep_Track_V3_VAR.brd*
G04 Film Name:    SleepTrack_V3_Soldermask_Top_RA*
G04 File Format:  Gerber RS274X*
G04 File Origin:  Cadence Allegro 17.0-P009*
G04 Origin Date:  Mon Mar 21 06:42:51 2016*
G04 *
G04 Layer:  VIA CLASS/SOLDERMASK_TOP*
G04 Layer:  PIN/SOLDERMASK_TOP*
G04 Layer:  DRC ERROR CLASS/SOLDERMASK_TOP*
G04 *
G04 Offset:    (0.00 0.00)*
G04 Mirror:    No*
G04 Mode:      Positive*
G04 Rotation:  0*
G04 FullContactRelief:  No*
G04 UndefLineWidth:     10.00*
G04 ================== end FILE IDENTIFICATION RECORD ====================*
%FSLAX25Y25*MOIN*%
%IR0*IPPOS*OFA0.00000B0.00000*MIA0B0*SFA1.00000B1.00000*%
%ADD33R,.0749X.06899*%
%ADD37R,.06899X.0749*%
%AMMACRO19*
21,1,.046,.036,0.0,0.0,89.999*%
%ADD19MACRO19*%
%ADD39R,.06X.1*%
%AMMACRO17*
4,1,6,-.03536,.03904,
-.03904,.03536,
-.03904,-.03536,
0.0,-.07439,
.07439,0.0,
.03536,.03904,
-.03536,.03904,
0.0*
%
%ADD17MACRO17*%
%ADD42C,.07*%
%ADD11C,.044*%
%ADD43R,.0375X.1123*%
%AMMACRO34*
21,1,.03937,.04528,0.0,0.0,89.999*
1,1,.04528,0.0,.019685*
1,1,.04528,0.0,-.019685*%
%ADD34MACRO34*%
%ADD25C,.075*%
%ADD22C,.04537*%
%ADD14R,.05324X.05324*%
%AMMACRO15*
21,1,.046,.036,0.0,0.0,179.999*%
%ADD15MACRO15*%
%AMMACRO21*
4,1,6,.03904,.03536,
.03536,.03904,
-.03536,.03904,
-.07439,0.0,
0.0,-.07439,
.03904,-.03536,
.03904,.03536,
0.0*
%
%ADD21MACRO21*%
%AMMACRO20*
4,1,6,.03536,-.03904,
.03904,-.03536,
.03904,.03536,
0.0,.07439,
-.07439,0.0,
-.03536,-.03904,
.03536,-.03904,
0.0*
%
%ADD20MACRO20*%
%AMMACRO16*
4,1,6,-.03904,-.03536,
-.03536,-.03904,
.03536,-.03904,
.07439,0.0,
0.0,.07439,
-.03904,.03536,
-.03904,-.03536,
0.0*
%
%ADD16MACRO16*%
%ADD36R,.046X.031*%
%ADD32R,.055X.03*%
%ADD23R,.036X.046*%
%ADD26R,.046X.036*%
%AMMACRO38*
21,1,.03937,.04528,0.0,0.0,179.999*
1,1,.04528,-.019685,0.0*
1,1,.04528,.019685,0.0*%
%ADD38MACRO38*%
%AMMACRO35*
21,1,.046,.036,0.0,0.0,.001*%
%ADD35MACRO35*%
%ADD27R,.04143X.056*%
%ADD40R,.02175X.06112*%
%ADD28R,.05324X.0375*%
%ADD29R,.04537X.04143*%
%ADD30R,.03159X.02057*%
%ADD12R,.05324X.02962*%
%ADD24R,.06309X.0375*%
%ADD18R,.02962X.05324*%
%ADD41R,.01584X.02962*%
%ADD10R,.07293X.04931*%
%ADD13R,.02569X.02962*%
%ADD31R,.0689X.05906*%
%LPD*%
G75*
G54D10*
X-92794Y-77446D03*
Y-62486D03*
G54D20*
X-41140Y-91681D03*
G54D11*
X-90670Y-55346D03*
X-97058Y-2860D03*
X-97045Y3640D03*
X-95629Y20753D03*
X-91572Y73541D03*
X-83655Y-79651D03*
X-80158Y-21307D03*
Y11934D03*
X-74815Y12740D03*
X-72891Y17693D03*
X-83733Y73437D03*
X-53716Y-64805D03*
X-46696Y-27690D03*
X-54821Y13130D03*
X-65670Y16400D03*
X-46930Y15106D03*
X-62439Y86398D03*
X-62400Y91936D03*
X-30472Y-66313D03*
X-27339Y-42978D03*
X-33540Y-43420D03*
X-40014Y-29198D03*
X-32936Y-23634D03*
Y-28724D03*
X-26663Y-29003D03*
X-40781Y13365D03*
X-34866Y14378D03*
X-29718Y15765D03*
X-32461Y90662D03*
X-31876Y84812D03*
X-6292Y-71006D03*
X-12545Y-69017D03*
X-6006Y-55250D03*
X-12051Y-38922D03*
X-7514Y-50128D03*
X-23296Y-17498D03*
X-24466Y-12038D03*
X-4316Y-9204D03*
X-22958Y-23985D03*
X-22464Y-6474D03*
X-10686Y-776D03*
X-24029Y14854D03*
X-10361Y39000D03*
X-5408Y44265D03*
X-11310Y70018D03*
X-8298Y74278D03*
X-11674Y59475D03*
X-11715Y65465D03*
X-4992Y80028D03*
X-10569Y91208D03*
X1573Y-63128D03*
X17277Y-73515D03*
X12435Y-48341D03*
X10193Y-43353D03*
X-1768Y-40690D03*
X18499Y-50674D03*
X1859Y-17238D03*
X8296Y4240D03*
X2379Y12207D03*
X-117Y18837D03*
X-910Y44291D03*
X10504Y51298D03*
X6006Y44369D03*
X4264Y76323D03*
X-1625Y75595D03*
X39650Y-54249D03*
X39182Y-39780D03*
X20641Y-33600D03*
X28509Y-31993D03*
X25220Y-16562D03*
X29731Y-19162D03*
X27768Y2262D03*
X28080Y6487D03*
X32175Y1625D03*
X27664Y-5798D03*
X23881Y19032D03*
X40248Y30927D03*
X30909Y41891D03*
X22717Y53540D03*
X20787Y71799D03*
X29601Y58019D03*
X23049Y92378D03*
X45292Y-72553D03*
X48854Y-41780D03*
X42510Y-21671D03*
X50128Y-29588D03*
X54704Y-18642D03*
X60697Y-23699D03*
X57278Y-3393D03*
X60729Y3660D03*
X57096Y11362D03*
X60996Y19054D03*
X48763Y21112D03*
X47047Y75192D03*
X50923Y74960D03*
X58600Y75955D03*
X72000Y-57259D03*
X72202Y-40833D03*
X72930Y-21957D03*
X70382Y-12337D03*
X72689Y4842D03*
X64545Y5889D03*
X77259Y26832D03*
X80379Y38896D03*
X66430Y44031D03*
X90766Y-12506D03*
X90142Y-17056D03*
X92452Y-3068D03*
G54D12*
X-90867Y-34365D03*
Y-30428D03*
Y-26491D03*
Y-22554D03*
Y-18617D03*
Y-14680D03*
Y-10743D03*
Y-6806D03*
Y-2869D03*
Y1068D03*
Y5005D03*
Y8942D03*
Y12879D03*
Y16816D03*
Y20753D03*
X-16851Y-34365D03*
Y-10743D03*
Y-14680D03*
Y-18617D03*
Y-22554D03*
Y-26491D03*
Y-30428D03*
Y8942D03*
Y5005D03*
Y1068D03*
Y-2869D03*
Y-6806D03*
Y20753D03*
Y16816D03*
Y12879D03*
G54D30*
X-2357Y-53460D03*
X9455D03*
X-2357Y-50901D03*
Y-48341D03*
Y-45782D03*
X9455D03*
Y-48341D03*
Y-50901D03*
G54D21*
X-41140Y-59795D03*
G54D31*
X3549Y-49621D03*
G54D13*
X-93024Y-42531D03*
X-89284Y-51979D03*
X-85544Y-42531D03*
G54D40*
X48364Y81152D03*
X50923D03*
X53482D03*
X56041D03*
X58600D03*
G54D22*
X-49023Y-44967D03*
Y-51181D03*
X-57733Y-45175D03*
X-62478Y74711D03*
X-47151Y79547D03*
X18460Y-62049D03*
X19955Y-17784D03*
X38181Y60437D03*
X38246Y66352D03*
X78390Y55991D03*
Y49127D03*
G54D41*
X69045Y-9651D03*
X67076D03*
X65108D03*
X63139D03*
Y-203D03*
X65108D03*
X67076D03*
X69045D03*
G54D23*
X-65988Y93844D03*
Y87844D03*
X-7566Y-14336D03*
Y-8336D03*
X14287Y-34239D03*
Y-28239D03*
X24557Y-34239D03*
Y-28239D03*
X32669Y-11736D03*
Y-5736D03*
X19383Y23267D03*
Y17267D03*
X53222Y-11736D03*
X42510D03*
X53222Y-5736D03*
X42510D03*
X60138Y69326D03*
Y63326D03*
X48568Y69079D03*
Y63079D03*
X65065Y14823D03*
Y20823D03*
G54D32*
X2561Y-10776D03*
Y4224D03*
Y-776D03*
Y-5776D03*
X22061Y-10776D03*
Y-776D03*
Y4224D03*
Y-5776D03*
G54D14*
X-89765Y67683D03*
X-67639Y-17436D03*
Y-5625D03*
Y6186D03*
X-55828Y-17436D03*
Y-5625D03*
Y6186D03*
X-44016Y-17436D03*
Y-5625D03*
Y6186D03*
X-17953Y67683D03*
G54D24*
X-48400Y96783D03*
X-9244D03*
X-21826D03*
X17330D03*
G54D15*
X-92817Y77116D03*
X-69150Y-46904D03*
X-75150D03*
X-86817Y77116D03*
G54D42*
X82295Y65754D03*
Y73554D03*
X90922Y36299D03*
Y26299D03*
Y16299D03*
G54D33*
X12675Y56233D03*
Y71037D03*
G54D16*
X-72302Y-90957D03*
G54D25*
X-24856Y-88569D03*
X-4856D03*
X-14856D03*
X5144D03*
X84942Y-65331D03*
Y-55331D03*
Y-45331D03*
G54D34*
X34656Y-69875D03*
X24814Y-63182D03*
X62216Y-82080D03*
G54D43*
X86214Y-27911D03*
X94876D03*
G54D35*
X35285Y5681D03*
X41285D03*
G54D26*
X-30228Y80314D03*
X-36228D03*
X-6185Y48100D03*
X-6172Y69953D03*
X-6185Y59475D03*
X-185Y48100D03*
X-172Y69953D03*
X-185Y59475D03*
X29Y82316D03*
X6029D03*
X35311Y34528D03*
X41311D03*
X61311Y47931D03*
X61389Y35776D03*
X65172Y-17771D03*
X71172D03*
X67311Y47931D03*
X67389Y35776D03*
X87545Y325D03*
X93545D03*
G54D17*
X-73026Y-59795D03*
G54D18*
X-69607Y-36727D03*
X-73544D03*
X-77481D03*
X-81418D03*
X-85355D03*
Y22722D03*
X-81418D03*
X-77481D03*
X-73544D03*
X-69607D03*
X-49922Y-36727D03*
X-53859D03*
X-57796D03*
X-61733D03*
X-65670D03*
Y22722D03*
X-61733D03*
X-57796D03*
X-53859D03*
X-49922D03*
X-26300Y-36727D03*
X-30237D03*
X-34174D03*
X-38111D03*
X-42048D03*
X-45985D03*
Y22722D03*
X-42048D03*
X-38111D03*
X-34174D03*
X-30237D03*
X-26300D03*
X-22363Y-36727D03*
Y22722D03*
G54D27*
X-43381Y89362D03*
X-26845D03*
X-4225D03*
X12311D03*
G54D36*
X33211Y23120D03*
Y15620D03*
X43411D03*
Y19370D03*
Y23120D03*
X95645Y-17036D03*
Y-13286D03*
Y-9536D03*
X85445D03*
Y-17036D03*
G54D28*
X-4340Y-60313D03*
Y-64643D03*
X-10246D03*
Y-60313D03*
G54D19*
X-77077Y93818D03*
Y87818D03*
X53222Y6763D03*
Y12763D03*
G54D37*
X30909Y47905D03*
X45713D03*
G54D29*
X-9668Y-34272D03*
Y-27972D03*
X-11280Y26893D03*
Y33193D03*
X6080Y-34272D03*
Y-27972D03*
X4468Y26893D03*
Y33193D03*
G54D38*
X44499Y-95859D03*
X61034Y-52159D03*
G54D39*
X49695Y92569D03*
X57269D03*
M02*
