G04 ================== begin FILE IDENTIFICATION RECORD ==================*
G04 Layout Name:  C:/Users/Madison/Desktop/gc/Photon_Dev/Sleep_Track_V3_VAR.brd*
G04 Film Name:    SleepTrack_V3_Soldermask_Bottom_RA*
G04 File Format:  Gerber RS274X*
G04 File Origin:  Cadence Allegro 17.0-P009*
G04 Origin Date:  Mon Mar 21 06:52:47 2016*
G04 *
G04 Layer:  VIA CLASS/SOLDERMASK_BOTTOM*
G04 Layer:  PIN/SOLDERMASK_BOTTOM*
G04 Layer:  DRC ERROR CLASS/SOLDERMASK_BOTTOM*
G04 *
G04 Offset:    (0.00 0.00)*
G04 Mirror:    No*
G04 Mode:      Positive*
G04 Rotation:  0*
G04 FullContactRelief:  No*
G04 UndefLineWidth:     10.00*
G04 ================== end FILE IDENTIFICATION RECORD ====================*
%FSLAX25Y25*MOIN*%
%IR0*IPPOS*OFA0.00000B0.00000*MIA0B0*SFA1.00000B1.00000*%
%AMMACRO12*
21,1,.046,.036,0.0,0.0,89.999*%
%ADD12MACRO12*%
%ADD20C,.07*%
%ADD10C,.044*%
%AMMACRO18*
21,1,.03937,.04528,0.0,0.0,89.999*
1,1,.04528,0.0,.019685*
1,1,.04528,0.0,-.019685*%
%ADD18MACRO18*%
%ADD13C,.075*%
%AMMACRO15*
4,1,5,-.00551,-.00788,
-.00551,.00788,
.00184,.00788,
.00551,.0042,
.00551,-.00788,
-.00551,-.00788,
0.0*
%
%ADD15MACRO15*%
%ADD11R,.036X.046*%
%ADD14R,.046X.036*%
%AMMACRO19*
21,1,.03937,.04528,0.0,0.0,179.999*
1,1,.04528,-.019685,0.0*
1,1,.04528,.019685,0.0*%
%ADD19MACRO19*%
%ADD16R,.01506X.02372*%
%ADD17R,.02372X.01506*%
%LPD*%
G75*
G54D10*
X-90670Y-55346D03*
X-97058Y-2860D03*
X-97045Y3640D03*
X-95629Y20753D03*
X-91572Y73541D03*
X-83655Y-79651D03*
X-80158Y-21307D03*
Y11934D03*
X-74815Y12740D03*
X-72891Y17693D03*
X-83733Y73437D03*
X-53716Y-64805D03*
X-46696Y-27690D03*
X-54821Y13130D03*
X-65670Y16400D03*
X-46930Y15106D03*
X-62439Y86398D03*
X-62400Y91936D03*
X-30472Y-66313D03*
X-27339Y-42978D03*
X-33540Y-43420D03*
X-40014Y-29198D03*
X-32936Y-23634D03*
Y-28724D03*
X-26663Y-29003D03*
X-40781Y13365D03*
X-34866Y14378D03*
X-29718Y15765D03*
X-32461Y90662D03*
X-31876Y84812D03*
X-6292Y-71006D03*
X-12545Y-69017D03*
X-6006Y-55250D03*
X-12051Y-38922D03*
X-7514Y-50128D03*
X-23296Y-17498D03*
X-24466Y-12038D03*
X-4316Y-9204D03*
X-22958Y-23985D03*
X-22464Y-6474D03*
X-10686Y-776D03*
X-24029Y14854D03*
X-10361Y39000D03*
X-5408Y44265D03*
X-11310Y70018D03*
X-8298Y74278D03*
X-11674Y59475D03*
X-11715Y65465D03*
X-4992Y80028D03*
X-10569Y91208D03*
X1573Y-63128D03*
X17277Y-73515D03*
X12435Y-48341D03*
X10193Y-43353D03*
X-1768Y-40690D03*
X18499Y-50674D03*
X1859Y-17238D03*
X8296Y4240D03*
X2379Y12207D03*
X-117Y18837D03*
X-910Y44291D03*
X10504Y51298D03*
X6006Y44369D03*
X4264Y76323D03*
X-1625Y75595D03*
X39650Y-54249D03*
X39182Y-39780D03*
X20641Y-33600D03*
X28509Y-31993D03*
X25220Y-16562D03*
X29731Y-19162D03*
X27768Y2262D03*
X28080Y6487D03*
X32175Y1625D03*
X27664Y-5798D03*
X23881Y19032D03*
X40248Y30927D03*
X30909Y41891D03*
X22717Y53540D03*
X20787Y71799D03*
X29601Y58019D03*
X23049Y92378D03*
X45292Y-72553D03*
X48854Y-41780D03*
X42510Y-21671D03*
X50128Y-29588D03*
X54704Y-18642D03*
X60697Y-23699D03*
X57278Y-3393D03*
X60729Y3660D03*
X57096Y11362D03*
X60996Y19054D03*
X48763Y21112D03*
X47047Y75192D03*
X58600Y75955D03*
X72000Y-57259D03*
X72202Y-40833D03*
X72930Y-21957D03*
X70382Y-12337D03*
X72689Y4842D03*
X64545Y5889D03*
X77259Y26832D03*
X80379Y38896D03*
X66430Y44031D03*
X90766Y-12506D03*
X90142Y-17056D03*
X92452Y-3068D03*
G54D11*
X-80158Y-10468D03*
Y-16468D03*
X-54769D03*
Y-10468D03*
X-67626Y1264D03*
Y7264D03*
X-42575Y-16468D03*
Y-10468D03*
G54D20*
X82295Y65754D03*
Y73554D03*
X90922Y36299D03*
Y26299D03*
Y16299D03*
G54D12*
X-80158Y1264D03*
Y7264D03*
X-67626Y-10468D03*
Y-16468D03*
X-54769Y7264D03*
Y1264D03*
X-30836Y-10468D03*
Y-16468D03*
Y1264D03*
Y7264D03*
X-42575D03*
Y1264D03*
G54D13*
X-24856Y-88569D03*
X-4856D03*
X-14856D03*
X5144D03*
X84942Y-65331D03*
Y-55331D03*
Y-45331D03*
G54D14*
X-25802Y-57343D03*
Y-67548D03*
Y-47164D03*
X-19802Y-57343D03*
Y-67548D03*
Y-47164D03*
X-6302Y-46618D03*
X-302D03*
X34791Y-60034D03*
X40791D03*
X34661Y-49660D03*
X40661D03*
X39198Y-32071D03*
X35350Y15691D03*
X61578Y-60008D03*
X55578D03*
X56059Y-44551D03*
X62059D03*
X45198Y-32071D03*
X41350Y15691D03*
G54D15*
X-13042Y75983D03*
G54D16*
X-14735D03*
X-16428D03*
X-18121D03*
X-19813D03*
X-21506D03*
X-23199D03*
X-24892D03*
Y86023D03*
X-23199D03*
X-21506D03*
X-19813D03*
X-18121D03*
X-16428D03*
X-14735D03*
X-13042D03*
G54D17*
X-24892Y78464D03*
Y80157D03*
Y81849D03*
Y83542D03*
X-13042D03*
Y81849D03*
Y80157D03*
Y78464D03*
G54D18*
X34656Y-69875D03*
X24814Y-63182D03*
X62216Y-82080D03*
G54D19*
X44499Y-95859D03*
X61034Y-52159D03*
M02*
