G04 This is an RS-274x file exported by *
G04 gerbv version 2.6.1 *
G04 More information is available about gerbv at *
G04 http://gerbv.geda-project.org/ *
G04 --End of header info--*
%MOIN*%
%FSLAX34Y34*%
%IPPOS*%
G04 --Define apertures--*
%ADD10C,0.0240*%
%ADD11R,0.0512X0.0748*%
%ADD12C,0.1350*%
%ADD13R,0.0400X0.0300*%
%ADD14R,0.0300X0.0098*%
%ADD15R,0.0098X0.0300*%
%ADD16R,0.0697X0.0972*%
%ADD17R,0.0216X0.0394*%
%ADD18C,0.0220*%
%ADD19C,0.0100*%
%ADD20C,0.0060*%
%ADD21C,0.0080*%
G04 --Start main section--*
G54D10*
G01X-011712Y-013203D03*
G01X-011703Y-012185D03*
G01X-010239Y-012638D03*
G01X-010241Y-011389D03*
G01X-009833Y-014212D03*
G01X-009665Y-013100D03*
G01X-009787Y-012243D03*
G01X-009187Y-011087D03*
G01X-008896Y-014260D03*
G01X-008529Y-013512D03*
G01X-008420Y-010930D03*
G01X-006840Y-013396D03*
G01X-006799Y-012349D03*
G01X-006841Y-011842D03*
G01X-006324Y-011311D03*
G01X-007012Y-010943D03*
G01X-005536Y-010933D03*
G01X-004939Y-012565D03*
G54D20*
G01X-009278Y-013203D02*
G01X-009278Y-013142D01*
G01X-009278Y-013142D02*
G01X-009335Y-013085D01*
G01X-009357Y-012175D02*
G01X-009357Y-012140D01*
G01X-008884Y-011737D02*
G01X-008884Y-011536D01*
G01X-008884Y-011536D02*
G01X-008894Y-011526D01*
G01X-008294Y-013203D02*
G01X-008294Y-013405D01*
G01X-008294Y-013405D02*
G01X-008296Y-013407D01*
G01X-007427Y-012568D02*
G01X-007375Y-012568D01*
G01X-007375Y-012568D02*
G01X-007372Y-012565D01*
G01X-007427Y-012175D02*
G01X-007287Y-012175D01*
G01X-007287Y-012175D02*
G01X-007281Y-012181D01*
G01X-007427Y-012765D02*
G01X-007427Y-012809D01*
G54D11*
G01X-011563Y-010038D03*
G01X-011563Y-008778D03*
G01X-009397Y-010038D03*
G01X-009397Y-008778D03*
G54D21*
G01X-011706Y-013197D02*
G01X-011712Y-013203D01*
G01X-009357Y-012140D02*
G01X-009824Y-011673D01*
G01X-009824Y-011673D02*
G01X-011722Y-011673D01*
G01X-010301Y-014212D02*
G01X-009833Y-014212D01*
G01X-008687Y-013203D02*
G01X-008687Y-013344D01*
G01X-008687Y-013344D02*
G01X-008946Y-013603D01*
G01X-008946Y-013603D02*
G01X-009099Y-013603D01*
G01X-009099Y-013603D02*
G01X-009378Y-013882D01*
G01X-009378Y-013882D02*
G01X-009794Y-013882D01*
G01X-009794Y-013882D02*
G01X-010252Y-013424D01*
G01X-010252Y-013424D02*
G01X-010252Y-013252D01*
G01X-010252Y-013252D02*
G01X-010301Y-013203D01*
G01X-010241Y-011389D02*
G01X-010241Y-011339D01*
G01X-010241Y-011339D02*
G01X-010301Y-011279D01*
G01X-010301Y-011279D02*
G01X-010301Y-010996D01*
G01X-009335Y-013085D02*
G01X-009417Y-013085D01*
G01X-009417Y-013085D02*
G01X-009432Y-013100D01*
G01X-009432Y-013100D02*
G01X-009665Y-013100D01*
G01X-009357Y-012765D02*
G01X-009902Y-012765D01*
G01X-009902Y-012765D02*
G01X-010029Y-012638D01*
G01X-010029Y-012638D02*
G01X-010239Y-012638D01*
G01X-009278Y-012765D02*
G01X-009357Y-012765D01*
G01X-009278Y-012175D02*
G01X-009322Y-012175D01*
G01X-009322Y-012175D02*
G01X-009357Y-012140D01*
G01X-009357Y-012568D02*
G01X-009489Y-012568D01*
G01X-009278Y-012568D02*
G01X-009357Y-012568D01*
G01X-009357Y-012372D02*
G01X-009641Y-012372D01*
G01X-009278Y-012372D02*
G01X-009357Y-012372D01*
G01X-008896Y-013893D02*
G01X-008896Y-014260D01*
G01X-008687Y-013085D02*
G01X-008687Y-013203D01*
G01X-008490Y-013203D02*
G01X-008490Y-013473D01*
G01X-008490Y-013473D02*
G01X-008529Y-013512D01*
G01X-008490Y-013085D02*
G01X-008490Y-013203D01*
G01X-007427Y-012372D02*
G01X-007188Y-012372D01*
G01X-007506Y-012372D02*
G01X-007427Y-012372D01*
G54D13*
G01X-010301Y-014212D03*
G01X-010901Y-014212D03*
G01X-010301Y-013203D03*
G01X-010901Y-013203D03*
G01X-010301Y-012185D03*
G01X-010901Y-012185D03*
G01X-010301Y-010996D03*
G01X-010901Y-010996D03*
G01X-008296Y-013893D03*
G01X-008896Y-013893D03*
G01X-006050Y-012565D03*
G01X-005450Y-012565D03*
G54D14*
G01X-009357Y-012765D03*
G01X-009357Y-012568D03*
G01X-009357Y-012372D03*
G01X-009357Y-012175D03*
G01X-007427Y-012765D03*
G01X-007427Y-012568D03*
G01X-007427Y-012372D03*
G01X-007427Y-012175D03*
G54D15*
G01X-008490Y-013203D03*
G01X-008687Y-013203D03*
G01X-008884Y-013203D03*
G01X-009081Y-013203D03*
G01X-009278Y-013203D03*
G01X-008490Y-011737D03*
G01X-008687Y-011737D03*
G01X-008884Y-011737D03*
G01X-009081Y-011737D03*
G01X-009278Y-011737D03*
G01X-007516Y-013203D03*
G01X-007703Y-013203D03*
G01X-007900Y-013203D03*
G01X-008097Y-013203D03*
G01X-008294Y-013203D03*
G01X-007506Y-011737D03*
G01X-007703Y-011737D03*
G01X-007900Y-011737D03*
G01X-008097Y-011737D03*
G01X-008294Y-011737D03*
G54D16*
G01X-007460Y-008600D03*
G01X-004794Y-008600D03*
G54D17*
G01X-006718Y-010352D03*
G01X-005536Y-010352D03*
G01X-005930Y-010352D03*
G01X-006324Y-010352D03*
G54D19*
G01X-011712Y-013203D02*
G01X-011722Y-013213D01*
G01X-011722Y-013213D02*
G01X-011722Y-014112D01*
G01X-011722Y-014112D02*
G01X-011622Y-014212D01*
G01X-011622Y-014212D02*
G01X-010901Y-014212D01*
G01X-011703Y-012185D02*
G01X-011703Y-012405D01*
G01X-011703Y-012405D02*
G01X-011706Y-012408D01*
G01X-011706Y-012408D02*
G01X-011706Y-013197D01*
G01X-010901Y-013203D02*
G01X-011712Y-013203D01*
G01X-011722Y-011673D02*
G01X-011722Y-011946D01*
G01X-011722Y-011946D02*
G01X-011703Y-011965D01*
G01X-011703Y-011965D02*
G01X-011703Y-012185D01*
G01X-011703Y-012185D02*
G01X-010901Y-012185D01*
G01X-010901Y-010996D02*
G01X-011622Y-010996D01*
G01X-011622Y-010996D02*
G01X-011722Y-011096D01*
G01X-011722Y-011096D02*
G01X-011722Y-011673D01*
G01X-009787Y-012243D02*
G01X-009787Y-012238D01*
G01X-009787Y-012238D02*
G01X-009840Y-012185D01*
G01X-009840Y-012185D02*
G01X-010301Y-012185D01*
G01X-009489Y-012568D02*
G01X-009682Y-012568D01*
G01X-009682Y-012568D02*
G01X-009787Y-012463D01*
G01X-009787Y-012463D02*
G01X-009787Y-012243D01*
G01X-009641Y-012372D02*
G01X-009770Y-012243D01*
G01X-009770Y-012243D02*
G01X-009787Y-012243D01*
G01X-008894Y-011526D02*
G01X-008894Y-010659D01*
G01X-008894Y-010659D02*
G01X-009397Y-010156D01*
G01X-009397Y-010156D02*
G01X-009397Y-010038D01*
G01X-008687Y-011737D02*
G01X-008687Y-009139D01*
G01X-008687Y-009139D02*
G01X-008929Y-008897D01*
G01X-008929Y-008897D02*
G01X-008929Y-008890D01*
G01X-008929Y-008890D02*
G01X-009041Y-008778D01*
G01X-009041Y-008778D02*
G01X-009397Y-008778D01*
G01X-008894Y-011845D02*
G01X-008894Y-011526D01*
G01X-008490Y-011737D02*
G01X-008490Y-011260D01*
G01X-008490Y-011260D02*
G01X-008420Y-011190D01*
G01X-008420Y-011190D02*
G01X-008420Y-010930D01*
G01X-009081Y-011737D02*
G01X-009081Y-011413D01*
G01X-009081Y-011413D02*
G01X-009187Y-011307D01*
G01X-009187Y-011307D02*
G01X-009187Y-011087D01*
G01X-008296Y-013407D02*
G01X-008296Y-013893D01*
G01X-008294Y-013085D02*
G01X-008296Y-013087D01*
G01X-008296Y-013087D02*
G01X-008296Y-013407D01*
G01X-006883Y-013353D02*
G01X-007093Y-013353D01*
G01X-007093Y-013353D02*
G01X-007211Y-013235D01*
G01X-007211Y-013235D02*
G01X-007213Y-013235D01*
G01X-007213Y-013235D02*
G01X-007245Y-013203D01*
G01X-007245Y-013203D02*
G01X-007516Y-013203D01*
G01X-007506Y-012568D02*
G01X-007503Y-012565D01*
G01X-007503Y-012565D02*
G01X-007372Y-012565D01*
G01X-007506Y-012175D02*
G01X-007500Y-012181D01*
G01X-007500Y-012181D02*
G01X-007281Y-012181D01*
G01X-007188Y-012372D02*
G01X-007055Y-012505D01*
G01X-007055Y-012505D02*
G01X-006955Y-012505D01*
G01X-006955Y-012505D02*
G01X-006799Y-012349D01*
G01X-007506Y-012765D02*
G01X-007471Y-012765D01*
G01X-007471Y-012765D02*
G01X-007427Y-012809D01*
G01X-007427Y-012809D02*
G01X-007151Y-013085D01*
G01X-007151Y-013085D02*
G01X-007149Y-013085D01*
G01X-007149Y-013085D02*
G01X-006996Y-013238D01*
G01X-006996Y-013238D02*
G01X-006996Y-013240D01*
G01X-006996Y-013240D02*
G01X-006883Y-013353D01*
G01X-007506Y-011737D02*
G01X-007425Y-011655D01*
G01X-007425Y-011655D02*
G01X-006966Y-011655D01*
G01X-006966Y-011655D02*
G01X-006932Y-011622D01*
G01X-006932Y-011622D02*
G01X-006030Y-011622D01*
G01X-006030Y-011622D02*
G01X-005930Y-011522D01*
G01X-005930Y-011522D02*
G01X-005930Y-010352D01*
G01X-006840Y-013396D02*
G01X-006883Y-013353D01*
G01X-007372Y-012565D02*
G01X-007278Y-012565D01*
G01X-007278Y-012565D02*
G01X-007049Y-012794D01*
G01X-007049Y-012794D02*
G01X-006579Y-012794D01*
G01X-006579Y-012794D02*
G01X-006350Y-012565D01*
G01X-006350Y-012565D02*
G01X-006050Y-012565D01*
G01X-007281Y-012181D02*
G01X-007271Y-012171D01*
G01X-007271Y-012171D02*
G01X-007170Y-012171D01*
G01X-007170Y-012171D02*
G01X-006841Y-011842D01*
G01X-006718Y-010352D02*
G01X-006718Y-010649D01*
G01X-006718Y-010649D02*
G01X-007012Y-010943D01*
G01X-006324Y-010352D02*
G01X-006324Y-011311D01*
G01X-005536Y-010352D02*
G01X-005536Y-010933D01*
G01X-005450Y-012565D02*
G01X-004939Y-012565D01*
M02*
