G04 This is an RS-274x file exported by *
G04 gerbv version 2.6.1 *
G04 More information is available about gerbv at *
G04 http://gerbv.geda-project.org/ *
G04 --End of header info--*
%MOIN*%
%FSLAX34Y34*%
%IPPOS*%
G04 --Define apertures--*
%ADD10C,0.0100*%
G04 --Start main section--*
G36*
G01X-009219Y-011998D02*
G75*
G03X-009219Y-011998I-000039J0000000D01*
G37*
G54D10*
G01X-011330Y-014754D02*
G01X-011830Y-014754D01*
G01X-011830Y-014754D02*
G01X-011830Y-014620D01*
G01X-011830Y-014620D02*
G01X-011805Y-014578D01*
G01X-011805Y-014578D02*
G01X-011772Y-014551D01*
G01X-011772Y-014551D02*
G01X-011705Y-014540D01*
G01X-011705Y-014540D02*
G01X-011638Y-014551D01*
G01X-011638Y-014551D02*
G01X-011597Y-014583D01*
G01X-011597Y-014583D02*
G01X-011572Y-014620D01*
G01X-011572Y-014620D02*
G01X-011572Y-014754D01*
G01X-011572Y-014620D02*
G01X-011330Y-014540D01*
G01X-011330Y-014207D02*
G01X-011830Y-014207D01*
G01X-011830Y-014207D02*
G01X-011730Y-014271D01*
G01X-011330Y-014271D02*
G01X-011330Y-014143D01*
G01X-011430Y-013884D02*
G01X-011372Y-013852D01*
G01X-011372Y-013852D02*
G01X-011338Y-013810D01*
G01X-011338Y-013810D02*
G01X-011330Y-013762D01*
G01X-011330Y-013762D02*
G01X-011338Y-013719D01*
G01X-011338Y-013719D02*
G01X-011380Y-013676D01*
G01X-011380Y-013676D02*
G01X-011430Y-013650D01*
G01X-011430Y-013650D02*
G01X-011480Y-013644D01*
G01X-011480Y-013644D02*
G01X-011538Y-013655D01*
G01X-011538Y-013655D02*
G01X-011580Y-013692D01*
G01X-011580Y-013692D02*
G01X-011597Y-013730D01*
G01X-011597Y-013730D02*
G01X-011597Y-013778D01*
G01X-011597Y-013730D02*
G01X-011622Y-013698D01*
G01X-011622Y-013698D02*
G01X-011663Y-013671D01*
G01X-011663Y-013671D02*
G01X-011713Y-013660D01*
G01X-011713Y-013660D02*
G01X-011763Y-013671D01*
G01X-011763Y-013671D02*
G01X-011805Y-013698D01*
G01X-011805Y-013698D02*
G01X-011830Y-013746D01*
G01X-011830Y-013746D02*
G01X-011822Y-013794D01*
G01X-011822Y-013794D02*
G01X-011788Y-013842D01*
G01X-011788Y-013255D02*
G01X-011813Y-013287D01*
G01X-011813Y-013287D02*
G01X-011830Y-013324D01*
G01X-011830Y-013324D02*
G01X-011830Y-013367D01*
G01X-011830Y-013367D02*
G01X-011805Y-013415D01*
G01X-011805Y-013415D02*
G01X-011763Y-013452D01*
G01X-011763Y-013452D02*
G01X-011713Y-013479D01*
G01X-011713Y-013479D02*
G01X-011630Y-013500D01*
G01X-011630Y-013500D02*
G01X-011555Y-013505D01*
G01X-011555Y-013505D02*
G01X-011480Y-013495D01*
G01X-011480Y-013495D02*
G01X-011430Y-013479D01*
G01X-011430Y-013479D02*
G01X-011380Y-013447D01*
G01X-011380Y-013447D02*
G01X-011347Y-013409D01*
G01X-011347Y-013409D02*
G01X-011330Y-013372D01*
G01X-011330Y-013372D02*
G01X-011330Y-013335D01*
G01X-011330Y-013335D02*
G01X-011347Y-013297D01*
G01X-011347Y-013297D02*
G01X-011372Y-013265D01*
G01X-011372Y-013265D02*
G01X-011405Y-013239D01*
G01X-011330Y-012943D02*
G01X-011438Y-012932D01*
G01X-011438Y-012932D02*
G01X-011530Y-012916D01*
G01X-011530Y-012916D02*
G01X-011613Y-012895D01*
G01X-011613Y-012895D02*
G01X-011705Y-012868D01*
G01X-011705Y-012868D02*
G01X-011830Y-012825D01*
G01X-011830Y-012825D02*
G01X-011830Y-013039D01*
G01X-011788Y-012257D02*
G01X-011813Y-012289D01*
G01X-011813Y-012289D02*
G01X-011830Y-012326D01*
G01X-011830Y-012326D02*
G01X-011830Y-012369D01*
G01X-011830Y-012369D02*
G01X-011805Y-012417D01*
G01X-011805Y-012417D02*
G01X-011763Y-012454D01*
G01X-011763Y-012454D02*
G01X-011713Y-012481D01*
G01X-011713Y-012481D02*
G01X-011630Y-012502D01*
G01X-011630Y-012502D02*
G01X-011555Y-012507D01*
G01X-011555Y-012507D02*
G01X-011480Y-012497D01*
G01X-011480Y-012497D02*
G01X-011430Y-012481D01*
G01X-011430Y-012481D02*
G01X-011380Y-012449D01*
G01X-011380Y-012449D02*
G01X-011347Y-012411D01*
G01X-011347Y-012411D02*
G01X-011330Y-012374D01*
G01X-011330Y-012374D02*
G01X-011330Y-012337D01*
G01X-011330Y-012337D02*
G01X-011347Y-012299D01*
G01X-011347Y-012299D02*
G01X-011372Y-012267D01*
G01X-011372Y-012267D02*
G01X-011405Y-012241D01*
G01X-011538Y-012035D02*
G01X-011597Y-011998D01*
G01X-011597Y-011998D02*
G01X-011630Y-011966D01*
G01X-011630Y-011966D02*
G01X-011647Y-011923D01*
G01X-011647Y-011923D02*
G01X-011630Y-011886D01*
G01X-011630Y-011886D02*
G01X-011597Y-011859D01*
G01X-011597Y-011859D02*
G01X-011547Y-011838D01*
G01X-011547Y-011838D02*
G01X-011488Y-011833D01*
G01X-011488Y-011833D02*
G01X-011438Y-011838D01*
G01X-011438Y-011838D02*
G01X-011388Y-011859D01*
G01X-011388Y-011859D02*
G01X-011347Y-011891D01*
G01X-011347Y-011891D02*
G01X-011330Y-011929D01*
G01X-011330Y-011929D02*
G01X-011347Y-011971D01*
G01X-011347Y-011971D02*
G01X-011397Y-012009D01*
G01X-011397Y-012009D02*
G01X-011472Y-012030D01*
G01X-011472Y-012030D02*
G01X-011555Y-012035D01*
G01X-011555Y-012035D02*
G01X-011663Y-012025D01*
G01X-011663Y-012025D02*
G01X-011722Y-012009D01*
G01X-011722Y-012009D02*
G01X-011780Y-011982D01*
G01X-011780Y-011982D02*
G01X-011822Y-011945D01*
G01X-011822Y-011945D02*
G01X-011830Y-011907D01*
G01X-011830Y-011907D02*
G01X-011813Y-011870D01*
G01X-011813Y-011870D02*
G01X-011772Y-011843D01*
G01X-011330Y-011576D02*
G01X-011830Y-011576D01*
G01X-011830Y-011576D02*
G01X-011830Y-011442D01*
G01X-011830Y-011442D02*
G01X-011805Y-011400D01*
G01X-011805Y-011400D02*
G01X-011772Y-011373D01*
G01X-011772Y-011373D02*
G01X-011705Y-011362D01*
G01X-011705Y-011362D02*
G01X-011638Y-011373D01*
G01X-011638Y-011373D02*
G01X-011597Y-011405D01*
G01X-011597Y-011405D02*
G01X-011572Y-011442D01*
G01X-011572Y-011442D02*
G01X-011572Y-011576D01*
G01X-011572Y-011442D02*
G01X-011330Y-011362D01*
G01X-011330Y-011029D02*
G01X-011830Y-011029D01*
G01X-011830Y-011029D02*
G01X-011730Y-011093D01*
G01X-011330Y-011093D02*
G01X-011330Y-010965D01*
G01X-011330Y-010525D02*
G01X-011830Y-010525D01*
G01X-011830Y-010525D02*
G01X-011472Y-010722D01*
G01X-011472Y-010722D02*
G01X-011472Y-010456D01*
G01X-011125Y-009151D02*
G01X-010900Y-009151D01*
G01X-010900Y-009151D02*
G01X-010625Y-009024D01*
G01X-010625Y-009278D02*
G01X-010900Y-009151D01*
G01X-010708Y-009540D02*
G01X-010658Y-009578D01*
G01X-010658Y-009578D02*
G01X-010633Y-009623D01*
G01X-010633Y-009623D02*
G01X-010625Y-009673D01*
G01X-010625Y-009673D02*
G01X-010642Y-009737D01*
G01X-010642Y-009737D02*
G01X-010683Y-009781D01*
G01X-010683Y-009781D02*
G01X-010733Y-009794D01*
G01X-010733Y-009794D02*
G01X-010783Y-009787D01*
G01X-010783Y-009787D02*
G01X-010825Y-009762D01*
G01X-010825Y-009762D02*
G01X-010908Y-009635D01*
G01X-010908Y-009635D02*
G01X-010967Y-009578D01*
G01X-010967Y-009578D02*
G01X-011050Y-009540D01*
G01X-011050Y-009540D02*
G01X-011125Y-009528D01*
G01X-011125Y-009528D02*
G01X-011125Y-009794D01*
G01X-012055Y-008660D02*
G01X-012055Y-010156D01*
G01X-012055Y-010156D02*
G01X-008905Y-010156D01*
G01X-008905Y-010156D02*
G01X-008905Y-008660D01*
G01X-008905Y-008660D02*
G01X-012055Y-008660D01*
G01X-011101Y-013962D02*
G01X-011201Y-013962D01*
G01X-011201Y-013962D02*
G01X-011201Y-014462D01*
G01X-011201Y-014462D02*
G01X-010951Y-014462D01*
G01X-011101Y-012953D02*
G01X-011201Y-012953D01*
G01X-011201Y-012953D02*
G01X-011201Y-013453D01*
G01X-011201Y-013453D02*
G01X-010951Y-013453D01*
G01X-011101Y-011935D02*
G01X-011201Y-011935D01*
G01X-011201Y-011935D02*
G01X-011201Y-012435D01*
G01X-011201Y-012435D02*
G01X-010951Y-012435D01*
G01X-011101Y-010746D02*
G01X-011201Y-010746D01*
G01X-011201Y-010746D02*
G01X-011201Y-011246D01*
G01X-011201Y-011246D02*
G01X-010951Y-011246D01*
G01X-010251Y-014462D02*
G01X-010001Y-014462D01*
G01X-010001Y-014462D02*
G01X-010001Y-013962D01*
G01X-010001Y-013962D02*
G01X-010101Y-013962D01*
G01X-010251Y-013453D02*
G01X-010001Y-013453D01*
G01X-010001Y-013453D02*
G01X-010001Y-012953D01*
G01X-010001Y-012953D02*
G01X-010101Y-012953D01*
G01X-009366Y-011722D02*
G01X-009366Y-013218D01*
G01X-009366Y-013218D02*
G01X-007418Y-013218D01*
G01X-010251Y-012435D02*
G01X-010001Y-012435D01*
G01X-010001Y-012435D02*
G01X-010001Y-011935D01*
G01X-010001Y-011935D02*
G01X-010101Y-011935D01*
G01X-010251Y-011246D02*
G01X-010001Y-011246D01*
G01X-010001Y-011246D02*
G01X-010001Y-010746D01*
G01X-010001Y-010746D02*
G01X-010101Y-010746D01*
G01X-007418Y-011722D02*
G01X-009366Y-011722D01*
G01X-008127Y-014158D02*
G01X-008127Y-014658D01*
G01X-008127Y-014658D02*
G01X-008261Y-014658D01*
G01X-008261Y-014658D02*
G01X-008303Y-014633D01*
G01X-008303Y-014633D02*
G01X-008330Y-014600D01*
G01X-008330Y-014600D02*
G01X-008341Y-014533D01*
G01X-008341Y-014533D02*
G01X-008330Y-014466D01*
G01X-008330Y-014466D02*
G01X-008298Y-014425D01*
G01X-008298Y-014425D02*
G01X-008261Y-014400D01*
G01X-008261Y-014400D02*
G01X-008127Y-014400D01*
G01X-008261Y-014400D02*
G01X-008341Y-014158D01*
G01X-008674Y-014158D02*
G01X-008674Y-014658D01*
G01X-008674Y-014658D02*
G01X-008610Y-014558D01*
G01X-008610Y-014158D02*
G01X-008738Y-014158D01*
G01X-009013Y-014575D02*
G01X-009045Y-014625D01*
G01X-009045Y-014625D02*
G01X-009082Y-014650D01*
G01X-009082Y-014650D02*
G01X-009125Y-014658D01*
G01X-009125Y-014658D02*
G01X-009178Y-014641D01*
G01X-009178Y-014641D02*
G01X-009215Y-014600D01*
G01X-009215Y-014600D02*
G01X-009226Y-014550D01*
G01X-009226Y-014550D02*
G01X-009221Y-014500D01*
G01X-009221Y-014500D02*
G01X-009199Y-014458D01*
G01X-009199Y-014458D02*
G01X-009093Y-014375D01*
G01X-009093Y-014375D02*
G01X-009045Y-014316D01*
G01X-009045Y-014316D02*
G01X-009013Y-014233D01*
G01X-009013Y-014233D02*
G01X-009002Y-014158D01*
G01X-009002Y-014158D02*
G01X-009226Y-014158D01*
G01X-009096Y-013643D02*
G01X-009196Y-013643D01*
G01X-009196Y-013643D02*
G01X-009196Y-014143D01*
G01X-009196Y-014143D02*
G01X-008946Y-014143D01*
G01X-008246Y-014143D02*
G01X-007996Y-014143D01*
G01X-007996Y-014143D02*
G01X-007996Y-013643D01*
G01X-007996Y-013643D02*
G01X-008096Y-013643D01*
G01X-006795Y-012075D02*
G01X-007153Y-012075D01*
G01X-007153Y-012075D02*
G01X-007228Y-012100D01*
G01X-007228Y-012100D02*
G01X-007278Y-012151D01*
G01X-007278Y-012151D02*
G01X-007295Y-012214D01*
G01X-007295Y-012214D02*
G01X-007278Y-012277D01*
G01X-007278Y-012277D02*
G01X-007228Y-012328D01*
G01X-007228Y-012328D02*
G01X-007153Y-012353D01*
G01X-007153Y-012353D02*
G01X-006795Y-012353D01*
G01X-007220Y-012584D02*
G01X-007262Y-012622D01*
G01X-007262Y-012622D02*
G01X-007287Y-012667D01*
G01X-007287Y-012667D02*
G01X-007295Y-012724D01*
G01X-007295Y-012724D02*
G01X-007278Y-012781D01*
G01X-007278Y-012781D02*
G01X-007245Y-012825D01*
G01X-007245Y-012825D02*
G01X-007187Y-012857D01*
G01X-007187Y-012857D02*
G01X-007120Y-012863D01*
G01X-007120Y-012863D02*
G01X-007053Y-012850D01*
G01X-007053Y-012850D02*
G01X-007012Y-012819D01*
G01X-007012Y-012819D02*
G01X-006978Y-012774D01*
G01X-006978Y-012774D02*
G01X-006970Y-012730D01*
G01X-006970Y-012730D02*
G01X-006978Y-012686D01*
G01X-006978Y-012686D02*
G01X-007012Y-012629D01*
G01X-007012Y-012629D02*
G01X-006795Y-012648D01*
G01X-006795Y-012648D02*
G01X-006795Y-012819D01*
G01X-007859Y-008053D02*
G01X-007859Y-010572D01*
G01X-007859Y-010572D02*
G01X-004395Y-010572D01*
G01X-004395Y-010572D02*
G01X-004395Y-008053D01*
G01X-004395Y-008053D02*
G01X-007859Y-008053D01*
G01X-007418Y-013218D02*
G01X-007418Y-011722D01*
G01X-006225Y-013671D02*
G01X-006225Y-013171D01*
G01X-006225Y-013171D02*
G01X-006091Y-013171D01*
G01X-006091Y-013171D02*
G01X-006049Y-013196D01*
G01X-006049Y-013196D02*
G01X-006022Y-013229D01*
G01X-006022Y-013229D02*
G01X-006011Y-013296D01*
G01X-006011Y-013296D02*
G01X-006022Y-013363D01*
G01X-006022Y-013363D02*
G01X-006054Y-013404D01*
G01X-006054Y-013404D02*
G01X-006091Y-013429D01*
G01X-006091Y-013429D02*
G01X-006225Y-013429D01*
G01X-006091Y-013429D02*
G01X-006011Y-013671D01*
G01X-005678Y-013671D02*
G01X-005678Y-013171D01*
G01X-005678Y-013171D02*
G01X-005742Y-013271D01*
G01X-005742Y-013671D02*
G01X-005614Y-013671D01*
G01X-005238Y-013671D02*
G01X-005238Y-013171D01*
G01X-005238Y-013171D02*
G01X-005302Y-013271D01*
G01X-005302Y-013671D02*
G01X-005174Y-013671D01*
G01X-006100Y-012315D02*
G01X-006350Y-012315D01*
G01X-006350Y-012315D02*
G01X-006350Y-012815D01*
G01X-006350Y-012815D02*
G01X-006250Y-012815D01*
G01X-005250Y-012815D02*
G01X-005150Y-012815D01*
G01X-005150Y-012815D02*
G01X-005150Y-012315D01*
G01X-005150Y-012315D02*
G01X-005400Y-012315D01*
G01X-005296Y-011072D02*
G01X-005264Y-011122D01*
G01X-005264Y-011122D02*
G01X-005226Y-011155D01*
G01X-005226Y-011155D02*
G01X-005182Y-011172D01*
G01X-005182Y-011172D02*
G01X-005131Y-011155D01*
G01X-005131Y-011155D02*
G01X-005093Y-011122D01*
G01X-005093Y-011122D02*
G01X-005055Y-011072D01*
G01X-005055Y-011072D02*
G01X-005042Y-011005D01*
G01X-005042Y-011005D02*
G01X-005042Y-010672D01*
G01X-004780Y-010964D02*
G01X-004735Y-010905D01*
G01X-004735Y-010905D02*
G01X-004697Y-010872D01*
G01X-004697Y-010872D02*
G01X-004647Y-010855D01*
G01X-004647Y-010855D02*
G01X-004602Y-010872D01*
G01X-004602Y-010872D02*
G01X-004571Y-010905D01*
G01X-004571Y-010905D02*
G01X-004545Y-010955D01*
G01X-004545Y-010955D02*
G01X-004539Y-011014D01*
G01X-004539Y-011014D02*
G01X-004545Y-011064D01*
G01X-004545Y-011064D02*
G01X-004571Y-011114D01*
G01X-004571Y-011114D02*
G01X-004609Y-011155D01*
G01X-004609Y-011155D02*
G01X-004653Y-011172D01*
G01X-004653Y-011172D02*
G01X-004704Y-011155D01*
G01X-004704Y-011155D02*
G01X-004748Y-011105D01*
G01X-004748Y-011105D02*
G01X-004773Y-011030D01*
G01X-004773Y-011030D02*
G01X-004780Y-010947D01*
G01X-004780Y-010947D02*
G01X-004767Y-010839D01*
G01X-004767Y-010839D02*
G01X-004748Y-010780D01*
G01X-004748Y-010780D02*
G01X-004716Y-010722D01*
G01X-004716Y-010722D02*
G01X-004672Y-010680D01*
G01X-004672Y-010680D02*
G01X-004628Y-010672D01*
G01X-004628Y-010672D02*
G01X-004583Y-010689D01*
G01X-004583Y-010689D02*
G01X-004552Y-010730D01*
M02*
