M48
INCH
T01C.013
T02C.02559
T03C.035
T04C.036
T05C.13
;LEADER: 12 
;HEADER: 
;CODE  : ASCII 
;FILE  : Sleep_Track_V3_VAR-1-4.drl for  ... layers TOP and BOTTOM
;DESIGN: Sleep_Track_V3_VAR.brd
;T01 Holesize 1. = 13.000000 Tolerance = +0.000000/-0.000000 PLATED MILS Quantity = 107
;T03 Holesize 2. = 35.000000 Tolerance = +0.000000/-0.000000 PLATED MILS Quantity = 5
;T04 Holesize 3. = 36.000000 Tolerance = +0.000000/-0.000000 PLATED MILS Quantity = 7
;T05 Holesize 4. = 130.000000 Tolerance = +0.000000/-0.000000 NON_PLATED MILS Quantity = 4
%
G90
T01
X-0029718Y0015765
X-0024029Y0014854
X-0074815Y0012740
X0022717Y0053540
X-0072891Y0017693
X0029601Y0058019
X0017277Y-0073515
X0092452Y-0003068
X0090142Y-0017056
X-0046930Y0015106
X0060697Y-0023699
X0029731Y-0019162
X-0026663Y-0029003
X-0011715Y0065465
X0070382Y-0012337
X-0032936Y-0028724
X-0032936Y-0023634
X-0022958Y-0023985
X0025220Y-0016562
X-0000117Y0018837
X0006006Y0044369
X-0010569Y0091208
X0018499Y-0050674
X-0001768Y-0040690
X-0033540Y-0043420
X0048854Y-0041780
X-0034866Y0014378
X0002379Y0012207
X0010504Y0051298
X-0004992Y0080028
X-0027339Y-0042978
X-0030472Y-0066313
X0058600Y0075955
X0020787Y0071799
X0027664Y-0005798
X-0010686Y-0000776
X-0054821Y0013130
X-0004316Y-0009204
X-0040781Y0013365
X0008296Y0004240
X0032175Y0001625
X-0011674Y0059475
X-0001625Y0075595
X-0008298Y0074278
X0004264Y0076323
X-0053716Y-0064805
X-0005408Y0044265
X-0062400Y0091936
X-0091572Y0073541
X0028509Y-0031993
X0054704Y-0018642
X-0007514Y-0050128
X0072000Y-0057259
X-0046696Y-0027690
X-0097045Y0003640
X-0031876Y0084812
X-0083655Y-0079651
X0028080Y0006487
X0064545Y0005889
X-0024466Y-0012038
X0050128Y-0029588
X-0011310Y0070018
X0042510Y-0021671
X0020641Y-0033600
X0010193Y-0043353
X0012435Y-0048341
X0030909Y0041891
X0077259Y0026832
X0039182Y-0039780
X-0032461Y0090662
X-0062439Y0086398
X-0083733Y0073437
X0023049Y0092378
X-0022464Y-0006474
X-0010361Y0039000
X-0000910Y0044291
X0039650Y-0054249
X0048763Y0021112
X0066430Y0044031
X0040248Y0030927
X0057096Y0011362
X0060729Y0003660
X0057278Y-0003393
X0072930Y-0021957
X-0006006Y-0055250
X-0012051Y-0038922
X0027768Y0002262
X0072202Y-0040833
X-0040014Y-0029198
X0001859Y-0017238
X-0080158Y-0021307
X-0065670Y0016400
X-0080158Y0011934
X0090766Y-0012506
X0072689Y0004842
X-0095629Y0020753
X-0097058Y-0002860
X0045292Y-0072553
X-0090670Y-0055346
X0080379Y0038896
X-0023296Y-0017498
X0060996Y0019054
X0023881Y0019032
X-0012545Y-0069017
X-0006292Y-0071006
X0001573Y-0063128
X0047047Y0075192
T03
X0082295Y0073554
X0082295Y0065754
X0090922Y0016299
R02Y0010000
T04
X-0024856Y-0088569
R03X0010000
X0084942Y-0045331
R02Y-0010000
T05
X-0090000Y0090000
X-0090000Y-0090000
X0090000Y0090000
X0090000Y-0090000
M30
