M48
INCH
T01C.013
T02C.035
T03C.036
T04C.13
T05C.1495
;LEADER: 12 
;HEADER: 
;CODE  : ASCII 
;FILE  : SLEEPTRACK2_PHASE2-1-4.drl for  ... layers TOP and BOTTOM
;DESIGN: SLEEPTRACK2_PHASE2.brd
;T01 Holesize 1. = 13.000000 Tolerance = +0.000000/-0.000000 PLATED MILS Quantity = 24
;T02 Holesize 2. = 35.000000 Tolerance = +0.000000/-0.000000 PLATED MILS Quantity = 5
;T03 Holesize 3. = 36.000000 Tolerance = +0.000000/-0.000000 PLATED MILS Quantity = 31
;T04 Holesize 4. = 130.000000 Tolerance = +0.000000/-0.000000 NON_PLATED MILS Quantity = 4
;T05 Holesize 5. = 149.500000 Tolerance = +0.000000/-0.000000 NON_PLATED MILS Quantity = 1
%
G90
T01
X-0015790Y-0017350
X-0015790Y-0035660
X0007600Y-0058150
X-0026200Y-0063710
X-0006725Y-0059905
X-0000560Y-0056040
X-0073100Y-0006800
X-0056010Y-0012130
X-0041340Y0005140
X-0058064Y0014350
X-0034680Y0001840
X-0067988Y0097562
X-0041990Y0085220
X-0087500Y0085220
X-0065890Y0082420
X-0019670Y-0032130
X-0032610Y-0004840
X-0018480Y-0059530
X-0027280Y-0049350
X-0010610Y-0064130
X0118700Y-0018090
X-0072950Y0003360
X-0050230Y0015510
X0113800Y0012450
T02
X-0098560Y0027270
X-0098560Y0035070
X-0114890Y0078600
R02Y-0010000
T03
X-0098250Y-0010150
R02Y0010000
X-0004160Y0100030
R11Y-0010000
X0042700Y-0069440
R03X-0010000
X0103660Y0100030
R11Y-0010000
T04
X-0110840Y-0060840
X-0110840Y0110840
X0110840Y0110840
X0110840Y-0060840

M30
