G04 Layer_Color=255*
%FSLAX24Y24*%
%MOIN*%
G70*
G01*
G75*
%ADD10R,0.0236X0.0236*%
%ADD11R,0.0236X0.0197*%
%ADD12R,0.0591X0.0965*%
%ADD13R,0.0252X0.0252*%
%ADD14R,0.1500X0.0800*%
%ADD15R,0.0992X0.0992*%
%ADD19R,0.0374X0.0374*%
%ADD20C,0.0374*%
%ADD21R,0.0472X0.0472*%
%ADD22C,0.0472*%
%ADD23C,0.0335*%
%ADD24R,0.0335X0.0335*%
D10*
X-5370Y2537D02*
D03*
Y2183D02*
D03*
X5200Y-2127D02*
D03*
Y-1773D02*
D03*
Y-3097D02*
D03*
Y-2743D02*
D03*
X-5780Y2183D02*
D03*
Y2537D02*
D03*
D11*
X-4954Y1740D02*
D03*
X-4560D02*
D03*
D12*
X-5420Y4660D02*
D03*
Y5880D02*
D03*
D13*
X-5940Y2970D02*
D03*
X-5578D02*
D03*
D14*
X4164Y-2802D02*
D03*
X4164Y-1802D02*
D03*
Y-802D02*
D03*
Y198D02*
D03*
Y1198D02*
D03*
Y2198D02*
D03*
Y3198D02*
D03*
Y4198D02*
D03*
Y5198D02*
D03*
Y6198D02*
D03*
Y7198D02*
D03*
Y8198D02*
D03*
X-3344Y2198D02*
D03*
X-3344Y-2802D02*
D03*
X-3344Y-1802D02*
D03*
Y-802D02*
D03*
Y198D02*
D03*
Y1198D02*
D03*
Y3198D02*
D03*
Y4198D02*
D03*
Y5198D02*
D03*
Y6198D02*
D03*
Y7198D02*
D03*
Y8198D02*
D03*
D15*
X-1306Y-6744D02*
D03*
Y-9256D02*
D03*
X1206D02*
D03*
Y-6744D02*
D03*
D19*
X-4200Y-7250D02*
D03*
X5337Y-7200D02*
D03*
D20*
X-4987Y-7250D02*
D03*
X4550Y-7200D02*
D03*
D21*
X6000Y-3750D02*
D03*
X6050Y1350D02*
D03*
D22*
X6000Y-2750D02*
D03*
Y-1750D02*
D03*
Y-750D02*
D03*
X6050Y4350D02*
D03*
Y3350D02*
D03*
Y2350D02*
D03*
D23*
X-5550Y-1800D02*
D03*
Y-2800D02*
D03*
D24*
Y-3800D02*
D03*
M02*
