G04 Layer_Color=65535*
%FSLAX25Y25*%
%MOIN*%
G70*
G01*
G75*
%ADD16C,0.01000*%
%ADD19C,0.00050*%
%ADD20C,0.00025*%
%ADD46C,0.00984*%
%ADD47C,0.00787*%
%ADD48C,0.00394*%
%ADD49C,0.00250*%
D16*
X-18807Y-60610D02*
G03*
X-18807Y-60610I-1476J0D01*
G01*
X-47807Y-98484D02*
X-43083D01*
X-32847D02*
Y-66594D01*
X-58043D02*
X-32847D01*
X-58043Y-98484D02*
Y-66594D01*
X-43083Y-98484D02*
X-32847D01*
X-58043D02*
X-47807D01*
X55079Y-41437D02*
X64921D01*
Y-3543D01*
X55079D02*
X64921D01*
X55079Y-41437D02*
Y-3543D01*
X55579Y9563D02*
Y47457D01*
X65421D01*
Y9563D02*
Y47457D01*
X55579Y9563D02*
X65421D01*
X47567Y-97984D02*
X52291D01*
X62528D02*
Y-66094D01*
X37331D02*
X62528D01*
X37331Y-97984D02*
Y-66094D01*
X52291Y-97984D02*
X62528D01*
X37331D02*
X47567D01*
X-6307Y-62874D02*
X5307D01*
X-6701Y-97126D02*
X5307D01*
X16626Y-86004D02*
Y-73996D01*
X-17626Y-85807D02*
Y-73799D01*
X-63374Y-48079D02*
Y-7921D01*
Y-48079D02*
X-47626D01*
Y-7921D01*
X-63374D02*
X-47626D01*
D19*
X-65500Y-90000D02*
G03*
X-55500Y-100000I10000J0D01*
G01*
X56500D02*
G03*
X66500Y-90000I0J10000D01*
G01*
Y90000D02*
G03*
X56500Y100000I-10000J0D01*
G01*
X-55500D02*
G03*
X-65500Y90000I0J-10000D01*
G01*
X-55500Y100000D02*
X56500D01*
X-65500Y-90000D02*
Y90000D01*
X-55500Y-100000D02*
X56500D01*
X66500Y-90000D02*
Y90000D01*
D20*
X-136538Y-63500D02*
G03*
X-136538Y-63500I-13J0D01*
G01*
D46*
X-58826Y41088D02*
G03*
X-58826Y41088I-492J0D01*
G01*
D47*
X-59909Y43647D02*
Y61757D01*
X-48491Y43647D02*
Y61757D01*
X-59909Y43647D02*
X-58728D01*
X-59909Y61757D02*
X-58728D01*
X-49672Y43647D02*
X-48491D01*
X-49672Y61757D02*
X-48491D01*
D48*
X44059Y86604D02*
Y98907D01*
X20535D02*
X44059D01*
X20150D02*
X20535D01*
X20150D02*
Y103128D01*
X-11788D02*
X20150D01*
X-11788Y98907D02*
Y103128D01*
X-36059Y98907D02*
X-11788D01*
X-36059Y95954D02*
Y98907D01*
Y86899D02*
Y95954D01*
Y-32983D02*
X-30000Y-45286D01*
X38000D02*
X44059Y-32983D01*
X-30000Y-45286D02*
X38000D01*
X-30000D02*
X4098D01*
X4000Y-45384D02*
X4098Y-45286D01*
D49*
X-63999Y28000D02*
X-62000D01*
Y29000D01*
X-62333Y29333D01*
X-63666D01*
X-63999Y29000D01*
Y28000D01*
X-62000Y31332D02*
Y29999D01*
X-63333Y31332D01*
X-63666D01*
X-63999Y30999D01*
Y30333D01*
X-63666Y29999D01*
X-57067Y-4734D02*
X-57400Y-4401D01*
X-58067D01*
X-58400Y-4734D01*
Y-5067D01*
X-58067Y-5400D01*
X-57400D01*
X-57067Y-5734D01*
Y-6067D01*
X-57400Y-6400D01*
X-58067D01*
X-58400Y-6067D01*
X-56401Y-4401D02*
Y-6400D01*
X-55734Y-5734D01*
X-55068Y-6400D01*
Y-4401D01*
X-54401Y-6400D02*
X-53735D01*
X-54068D01*
Y-4401D01*
X-54401Y-4734D01*
X-61300Y64999D02*
Y63000D01*
X-60300D01*
X-59967Y63333D01*
Y64666D01*
X-60300Y64999D01*
X-61300D01*
X-59301Y63000D02*
X-58634D01*
X-58967D01*
Y64999D01*
X-59301Y64666D01*
X-47867Y21366D02*
X-48200Y21699D01*
X-48867D01*
X-49200Y21366D01*
Y20033D01*
X-48867Y19700D01*
X-48200D01*
X-47867Y20033D01*
X-47201Y21366D02*
X-46867Y21699D01*
X-46201D01*
X-45868Y21366D01*
Y21033D01*
X-46201Y20700D01*
X-46534D01*
X-46201D01*
X-45868Y20367D01*
Y20033D01*
X-46201Y19700D01*
X-46867D01*
X-47201Y20033D01*
X59833Y99D02*
X59166D01*
X59500D01*
Y-1567D01*
X59166Y-1900D01*
X58833D01*
X58500Y-1567D01*
X60499Y-1900D02*
X61166D01*
X60833D01*
Y99D01*
X60499Y-234D01*
X-47267Y-63001D02*
X-47934D01*
X-47600D01*
Y-64667D01*
X-47934Y-65000D01*
X-48267D01*
X-48600Y-64667D01*
X-46601Y-63334D02*
X-46267Y-63001D01*
X-45601D01*
X-45268Y-63334D01*
Y-63667D01*
X-45601Y-64000D01*
X-45934D01*
X-45601D01*
X-45268Y-64334D01*
Y-64667D01*
X-45601Y-65000D01*
X-46267D01*
X-46601Y-64667D01*
X60233Y51299D02*
X59566D01*
X59900D01*
Y49633D01*
X59566Y49300D01*
X59233D01*
X58900Y49633D01*
X61899Y49300D02*
Y51299D01*
X60899Y50300D01*
X62232D01*
X-15500Y-58801D02*
Y-60800D01*
X-14167D01*
X-12168Y-59134D02*
X-12501Y-58801D01*
X-13167D01*
X-13501Y-59134D01*
Y-59467D01*
X-13167Y-59800D01*
X-12501D01*
X-12168Y-60134D01*
Y-60467D01*
X-12501Y-60800D01*
X-13167D01*
X-13501Y-60467D01*
X-11501Y-60800D02*
X-10835D01*
X-11168D01*
Y-58801D01*
X-11501Y-59134D01*
X50700Y-35900D02*
Y-33901D01*
X51700D01*
X52033Y-34234D01*
Y-34900D01*
X51700Y-35234D01*
X50700D01*
X51366D02*
X52033Y-35900D01*
X52699D02*
X53366D01*
X53033D01*
Y-33901D01*
X52699Y-34234D01*
X50400Y-15800D02*
Y-13801D01*
X51400D01*
X51733Y-14134D01*
Y-14800D01*
X51400Y-15134D01*
X50400D01*
X51066D02*
X51733Y-15800D01*
X53732D02*
X52399D01*
X53732Y-14467D01*
Y-14134D01*
X53399Y-13801D01*
X52733D01*
X52399Y-14134D01*
X-55300Y17600D02*
Y19599D01*
X-54300D01*
X-53967Y19266D01*
Y18600D01*
X-54300Y18267D01*
X-55300D01*
X-54634D02*
X-53967Y17600D01*
X-51968Y19599D02*
X-53301D01*
Y18600D01*
X-52634Y18933D01*
X-52301D01*
X-51968Y18600D01*
Y17933D01*
X-52301Y17600D01*
X-52967D01*
X-53301Y17933D01*
X-59600Y17600D02*
Y19599D01*
X-58600D01*
X-58267Y19266D01*
Y18600D01*
X-58600Y18267D01*
X-59600D01*
X-58934D02*
X-58267Y17600D01*
X-56268Y19599D02*
X-56934Y19266D01*
X-57601Y18600D01*
Y17933D01*
X-57267Y17600D01*
X-56601D01*
X-56268Y17933D01*
Y18267D01*
X-56601Y18600D01*
X-57601D01*
X49433Y-62501D02*
X48766D01*
X49100D01*
Y-64167D01*
X48766Y-64500D01*
X48433D01*
X48100Y-64167D01*
X51432Y-62501D02*
X50099D01*
Y-63500D01*
X50766Y-63167D01*
X51099D01*
X51432Y-63500D01*
Y-64167D01*
X51099Y-64500D01*
X50433D01*
X50099Y-64167D01*
X-34200Y96499D02*
Y94833D01*
X-33867Y94500D01*
X-33200D01*
X-32867Y94833D01*
Y96499D01*
X-32201Y96166D02*
X-31867Y96499D01*
X-31201D01*
X-30868Y96166D01*
Y95833D01*
X-31201Y95500D01*
X-31534D01*
X-31201D01*
X-30868Y95166D01*
Y94833D01*
X-31201Y94500D01*
X-31867D01*
X-32201Y94833D01*
M02*
