M48
;Layer_Color=9474304
;FILE_FORMAT=2:5
INCH,LZ
;TYPE=PLATED
T1F00S00C0.01500
T2F00S00C0.02756
T3F00S00C0.03150
T4F00S00C0.04000
T5F00S00C0.04016
%
T01
X-00195Y-00812
Y-00775
X-0013Y-00852
X00205Y-00912
X00442Y-0094
X00471Y-00785
X00518Y-00831
X00354Y-00707
X00406Y-00614
X00468Y-0046
X00552Y-00151
X-00481Y00004
X-00477Y00033
X-00554Y-00014
X-00591Y-00005
X-00623Y0012384
X-00608Y00171
X-00621Y00209
X-00615Y00251
X-00507Y00255
X-00535Y00297
X-00566Y00336
X-00584Y0053
X-004641Y004689
X-00443Y00607
X-00441Y00209
T02
X-00555Y-0038
Y-0028
Y-0018
T03
X-0049874Y-00725
X-0042
X00455Y-0072
X0053374
T04
X-0030941Y-0028022
X-0030939Y-0018024
X0039138Y-0018022
X0039139Y-0028022
X0039138Y-0008022
Y0001976
Y0011976
Y0021976
Y0031976
Y0041976
Y0051976
Y0061976
Y0071976
Y0081976
X-0030941Y0081978
Y0071978
X-0030939Y0061976
Y0051976
Y0041976
Y0031976
Y0021976
Y0011976
Y0001976
Y-0008024
T05
X006Y-00375
Y-00275
Y-00175
Y-00075
X00605Y00135
Y00235
Y00335
Y00435
M30
