G04 Layer_Color=8388736*
%FSLAX25Y25*%
%MOIN*%
G70*
G01*
G75*
%ADD19C,0.00050*%
%ADD20C,0.00025*%
%ADD50R,0.03162X0.03162*%
%ADD51R,0.03162X0.02769*%
%ADD52R,0.06706X0.10446*%
%ADD53R,0.03320X0.03320*%
%ADD54R,0.15800X0.08800*%
%ADD55R,0.10721X0.10721*%
%ADD56R,0.04540X0.04540*%
%ADD57C,0.04540*%
%ADD58R,0.05524X0.05524*%
%ADD59C,0.05524*%
%ADD60C,0.04147*%
%ADD61R,0.04147X0.04147*%
%ADD62C,0.04800*%
D19*
X-65500Y-90000D02*
G03*
X-55500Y-100000I10000J0D01*
G01*
X56500D02*
G03*
X66500Y-90000I0J10000D01*
G01*
Y90000D02*
G03*
X56500Y100000I-10000J0D01*
G01*
X-55500D02*
G03*
X-65500Y90000I0J-10000D01*
G01*
X-55500Y100000D02*
X56500D01*
X-65500Y-90000D02*
Y90000D01*
X-55500Y-100000D02*
X56500D01*
X66500Y-90000D02*
Y90000D01*
D20*
X-136538Y-63500D02*
G03*
X-136538Y-63500I-13J0D01*
G01*
D50*
X-53700Y25372D02*
D03*
Y21828D02*
D03*
X52000Y-21272D02*
D03*
Y-17728D02*
D03*
Y-30972D02*
D03*
Y-27428D02*
D03*
X-57800Y21828D02*
D03*
Y25372D02*
D03*
D51*
X-49537Y17400D02*
D03*
X-45600D02*
D03*
D52*
X-54200Y46600D02*
D03*
Y58805D02*
D03*
D53*
X-59400Y29700D02*
D03*
X-55778D02*
D03*
D54*
X41639Y-28022D02*
D03*
X41638Y-18022D02*
D03*
Y-8022D02*
D03*
Y1976D02*
D03*
Y11976D02*
D03*
Y21976D02*
D03*
Y31976D02*
D03*
Y41976D02*
D03*
Y51976D02*
D03*
Y61976D02*
D03*
Y71976D02*
D03*
Y81976D02*
D03*
X-33439Y21976D02*
D03*
X-33441Y-28022D02*
D03*
X-33439Y-18024D02*
D03*
Y-8024D02*
D03*
Y1976D02*
D03*
Y11976D02*
D03*
Y31976D02*
D03*
Y41976D02*
D03*
Y51976D02*
D03*
Y61976D02*
D03*
Y71976D02*
D03*
Y81976D02*
D03*
D55*
X-13059Y-67441D02*
D03*
Y-92559D02*
D03*
X12059D02*
D03*
Y-67441D02*
D03*
D56*
X-42000Y-72500D02*
D03*
X53374Y-72000D02*
D03*
D57*
X-49874Y-72500D02*
D03*
X45500Y-72000D02*
D03*
D58*
X60000Y-37500D02*
D03*
X60500Y13500D02*
D03*
D59*
X60000Y-27500D02*
D03*
Y-17500D02*
D03*
Y-7500D02*
D03*
X60500Y43500D02*
D03*
Y33500D02*
D03*
Y23500D02*
D03*
D60*
X-55500Y-18000D02*
D03*
Y-28000D02*
D03*
D61*
Y-38000D02*
D03*
D62*
X39138Y-18022D02*
D03*
X39139Y-28022D02*
D03*
X39138Y-8022D02*
D03*
Y1976D02*
D03*
Y11976D02*
D03*
Y21976D02*
D03*
Y31976D02*
D03*
Y41976D02*
D03*
Y51976D02*
D03*
Y61976D02*
D03*
Y71976D02*
D03*
Y81976D02*
D03*
X-30941Y-28022D02*
D03*
X-30939Y-18024D02*
D03*
Y-8024D02*
D03*
Y1976D02*
D03*
Y11976D02*
D03*
Y21976D02*
D03*
Y31976D02*
D03*
Y41976D02*
D03*
Y51976D02*
D03*
Y61976D02*
D03*
X-30941Y71978D02*
D03*
Y81978D02*
D03*
M02*
