G04 Layer_Physical_Order=2*
G04 Layer_Color=32768*
%FSLAX25Y25*%
%MOIN*%
G70*
G01*
G75*
%ADD19C,0.00050*%
%ADD20C,0.00025*%
%ADD29C,0.04000*%
G04:AMPARAMS|DCode=30|XSize=91.496mil|YSize=91.496mil|CornerRadius=0mil|HoleSize=0mil|Usage=FLASHONLY|Rotation=0.000|XOffset=0mil|YOffset=0mil|HoleType=Round|Shape=Relief|Width=10mil|Gap=10mil|Entries=4|*
%AMTHD30*
7,0,0,0.09150,0.07150,0.01000,45*
%
%ADD30THD30*%
%ADD31C,0.07150*%
%ADD32C,0.08016*%
G04:AMPARAMS|DCode=33|XSize=100.157mil|YSize=100.157mil|CornerRadius=0mil|HoleSize=0mil|Usage=FLASHONLY|Rotation=0.000|XOffset=0mil|YOffset=0mil|HoleType=Round|Shape=Relief|Width=10mil|Gap=10mil|Entries=4|*
%AMTHD33*
7,0,0,0.10016,0.08016,0.01000,45*
%
%ADD33THD33*%
%ADD34C,0.06756*%
%ADD35C,0.05500*%
G04:AMPARAMS|DCode=36|XSize=75mil|YSize=75mil|CornerRadius=0mil|HoleSize=0mil|Usage=FLASHONLY|Rotation=0.000|XOffset=0mil|YOffset=0mil|HoleType=Round|Shape=Relief|Width=10mil|Gap=10mil|Entries=4|*
%AMTHD36*
7,0,0,0.07500,0.05500,0.01000,45*
%
%ADD36THD36*%
%ADD37C,0.08000*%
G04:AMPARAMS|DCode=38|XSize=100mil|YSize=100mil|CornerRadius=0mil|HoleSize=0mil|Usage=FLASHONLY|Rotation=0.000|XOffset=0mil|YOffset=0mil|HoleType=Round|Shape=Relief|Width=10mil|Gap=10mil|Entries=4|*
%AMTHD38*
7,0,0,0.10000,0.08000,0.01000,45*
%
%ADD38THD38*%
D19*
X-65500Y-90000D02*
G03*
X-55500Y-100000I10000J0D01*
G01*
X56500D02*
G03*
X66500Y-90000I0J10000D01*
G01*
Y90000D02*
G03*
X56500Y100000I-10000J0D01*
G01*
X-55500D02*
G03*
X-65500Y90000I0J-10000D01*
G01*
X-55500Y100000D02*
X56500D01*
X-65500Y-90000D02*
Y90000D01*
X-55500Y-100000D02*
X56500D01*
X66500Y-90000D02*
Y90000D01*
D20*
X-136538Y-63500D02*
G03*
X-136538Y-63500I-13J0D01*
G01*
D29*
X-65500Y-90000D02*
G03*
X-55500Y-100000I10000J0D01*
G01*
X56500D02*
G03*
X66500Y-90000I0J10000D01*
G01*
Y90000D02*
G03*
X56500Y100000I-10000J0D01*
G01*
X-55500D02*
G03*
X-65500Y90000I0J-10000D01*
G01*
Y-90000D02*
Y90000D01*
X-55500Y100000D02*
X56500D01*
X66500Y-90000D02*
Y90000D01*
X-55500Y-100000D02*
X56500D01*
D30*
X-42000Y-72500D02*
D03*
D31*
X-49874D02*
D03*
X53374Y-72000D02*
D03*
X45500D02*
D03*
D32*
X60000Y-37500D02*
D03*
Y-27500D02*
D03*
Y-17500D02*
D03*
X60500Y33500D02*
D03*
Y23500D02*
D03*
Y13500D02*
D03*
D33*
X60000Y-7500D02*
D03*
X60500Y43500D02*
D03*
D34*
X-55500Y-18000D02*
D03*
Y-28000D02*
D03*
Y-38000D02*
D03*
D35*
X40600Y-61400D02*
D03*
X46800Y-46000D02*
D03*
X35400Y-70700D02*
D03*
X-62300Y12384D02*
D03*
X-60800Y17100D02*
D03*
X-19500Y-77500D02*
D03*
Y-81200D02*
D03*
X-59100Y-500D02*
D03*
X-55400Y-1400D02*
D03*
X-53500Y29700D02*
D03*
X-44300Y60700D02*
D03*
X-50700Y25500D02*
D03*
X-48100Y400D02*
D03*
X-62100Y20900D02*
D03*
X-46410Y46890D02*
D03*
X55200Y-15100D02*
D03*
X47100Y-78500D02*
D03*
X-58400Y53000D02*
D03*
D36*
X-44100Y20900D02*
D03*
X-47700Y3300D02*
D03*
X-61500Y25100D02*
D03*
X-13000Y-85200D02*
D03*
X-56600Y33600D02*
D03*
X51800Y-83100D02*
D03*
X20500Y-91200D02*
D03*
X44200Y-94000D02*
D03*
D37*
X39138Y-18022D02*
D03*
X39139Y-28022D02*
D03*
X39138Y-8022D02*
D03*
Y1976D02*
D03*
Y11976D02*
D03*
Y21976D02*
D03*
Y31976D02*
D03*
Y41976D02*
D03*
Y61976D02*
D03*
Y71976D02*
D03*
Y81976D02*
D03*
X-30941Y-28022D02*
D03*
X-30939Y-18024D02*
D03*
Y-8024D02*
D03*
Y1976D02*
D03*
Y11976D02*
D03*
Y21976D02*
D03*
Y31976D02*
D03*
Y41976D02*
D03*
Y51976D02*
D03*
Y61976D02*
D03*
X-30941Y81978D02*
D03*
D38*
X39138Y51976D02*
D03*
X-30941Y71978D02*
D03*
M02*
