G04 Layer_Color=128*
%FSLAX25Y25*%
%MOIN*%
G70*
G01*
G75*
%ADD19C,0.00050*%
%ADD20C,0.00025*%
%ADD71C,0.00200*%
D19*
X-65500Y-90000D02*
G03*
X-55500Y-100000I10000J0D01*
G01*
X56500D02*
G03*
X66500Y-90000I0J10000D01*
G01*
Y90000D02*
G03*
X56500Y100000I-10000J0D01*
G01*
X-55500D02*
G03*
X-65500Y90000I0J-10000D01*
G01*
X-55500Y100000D02*
X56500D01*
X-65500Y-90000D02*
Y90000D01*
X-55500Y-100000D02*
X56500D01*
X66500Y-90000D02*
Y90000D01*
D20*
X-136538Y-63500D02*
G03*
X-136538Y-63500I-13J0D01*
G01*
D71*
X-43575Y-72500D02*
X-40425D01*
X-42000Y-74075D02*
Y-70925D01*
X-51449Y-72500D02*
X-48299D01*
X-49874Y-74075D02*
Y-70925D01*
X57992Y-37500D02*
X62008D01*
X60000Y-39508D02*
Y-35492D01*
X57992Y-27500D02*
X62008D01*
X60000Y-29508D02*
Y-25492D01*
X57992Y-17500D02*
X62008D01*
X60000Y-19508D02*
Y-15492D01*
X57992Y-7500D02*
X62008D01*
X60000Y-9508D02*
Y-5492D01*
X58492Y43500D02*
X62508D01*
X60500Y41492D02*
Y45508D01*
X58492Y33500D02*
X62508D01*
X60500Y31492D02*
Y35508D01*
X58492Y23500D02*
X62508D01*
X60500Y21492D02*
Y25508D01*
X58492Y13500D02*
X62508D01*
X60500Y11492D02*
Y15508D01*
X51799Y-72000D02*
X54949D01*
X53374Y-73575D02*
Y-70425D01*
X43925Y-72000D02*
X47075D01*
X45500Y-73575D02*
Y-70425D01*
X-56878Y-18000D02*
X-54122D01*
X-55500Y-19378D02*
Y-16622D01*
X-56878Y-28000D02*
X-54122D01*
X-55500Y-29378D02*
Y-26622D01*
X-56878Y-38000D02*
X-54122D01*
X-55500Y-39378D02*
Y-36622D01*
X39850Y-61400D02*
X41350D01*
X40600Y-62150D02*
Y-60650D01*
X46050Y-46000D02*
X47550D01*
X46800Y-46750D02*
Y-45250D01*
X34650Y-70700D02*
X36150D01*
X35400Y-71450D02*
Y-69950D01*
X-63050Y12384D02*
X-61550D01*
X-62300Y11634D02*
Y13134D01*
X-61550Y17100D02*
X-60050D01*
X-60800Y16350D02*
Y17850D01*
X-20250Y-77500D02*
X-18750D01*
X-19500Y-78250D02*
Y-76750D01*
X-20250Y-81200D02*
X-18750D01*
X-19500Y-81950D02*
Y-80450D01*
X-59850Y-500D02*
X-58350D01*
X-59100Y-1250D02*
Y250D01*
X-56150Y-1400D02*
X-54650D01*
X-55400Y-2150D02*
Y-650D01*
X-54250Y29700D02*
X-52750D01*
X-53500Y28950D02*
Y30450D01*
X-45050Y60700D02*
X-43550D01*
X-44300Y59950D02*
Y61450D01*
X-51450Y25500D02*
X-49950D01*
X-50700Y24750D02*
Y26250D01*
X-44850Y20900D02*
X-43350D01*
X-44100Y20150D02*
Y21650D01*
X-48850Y400D02*
X-47350D01*
X-48100Y-350D02*
Y1150D01*
X-48450Y3300D02*
X-46950D01*
X-47700Y2550D02*
Y4050D01*
X-62250Y25100D02*
X-60750D01*
X-61500Y24350D02*
Y25850D01*
X-62850Y20900D02*
X-61350D01*
X-62100Y20150D02*
Y21650D01*
X-13750Y-85200D02*
X-12250D01*
X-13000Y-85950D02*
Y-84450D01*
X-47160Y46890D02*
X-45660D01*
X-46410Y46140D02*
Y47640D01*
X-57350Y33600D02*
X-55850D01*
X-56600Y32850D02*
Y34350D01*
X51050Y-83100D02*
X52550D01*
X51800Y-83850D02*
Y-82350D01*
X19750Y-91200D02*
X21250D01*
X20500Y-91950D02*
Y-90450D01*
X54450Y-15100D02*
X55950D01*
X55200Y-15850D02*
Y-14350D01*
X46350Y-78500D02*
X47850D01*
X47100Y-79250D02*
Y-77750D01*
X43450Y-94000D02*
X44950D01*
X44200Y-94750D02*
Y-93250D01*
X-59150Y53000D02*
X-57650D01*
X-58400Y52250D02*
Y53750D01*
X37138Y-18022D02*
X41138D01*
X39138Y-20022D02*
Y-16022D01*
X37139Y-28022D02*
X41139D01*
X39139Y-30022D02*
Y-26022D01*
X37138Y-8022D02*
X41138D01*
X39138Y-10022D02*
Y-6022D01*
X37138Y1976D02*
X41138D01*
X39138Y-24D02*
Y3976D01*
X37138Y11976D02*
X41138D01*
X39138Y9976D02*
Y13976D01*
X37138Y21976D02*
X41138D01*
X39138Y19976D02*
Y23976D01*
X37138Y31976D02*
X41138D01*
X39138Y29976D02*
Y33976D01*
X37138Y41976D02*
X41138D01*
X39138Y39976D02*
Y43976D01*
X37138Y51976D02*
X41138D01*
X39138Y49976D02*
Y53976D01*
X37138Y61976D02*
X41138D01*
X39138Y59976D02*
Y63976D01*
X37138Y71976D02*
X41138D01*
X39138Y69976D02*
Y73976D01*
X37138Y81976D02*
X41138D01*
X39138Y79976D02*
Y83976D01*
X-32941Y-28022D02*
X-28941D01*
X-30941Y-30022D02*
Y-26022D01*
X-32939Y-18024D02*
X-28939D01*
X-30939Y-20024D02*
Y-16024D01*
X-32939Y-8024D02*
X-28939D01*
X-30939Y-10024D02*
Y-6024D01*
X-32939Y1976D02*
X-28939D01*
X-30939Y-24D02*
Y3976D01*
X-32939Y11976D02*
X-28939D01*
X-30939Y9976D02*
Y13976D01*
X-32939Y21976D02*
X-28939D01*
X-30939Y19976D02*
Y23976D01*
X-32939Y31976D02*
X-28939D01*
X-30939Y29976D02*
Y33976D01*
X-32939Y41976D02*
X-28939D01*
X-30939Y39976D02*
Y43976D01*
X-32939Y51976D02*
X-28939D01*
X-30939Y49976D02*
Y53976D01*
X-32939Y61976D02*
X-28939D01*
X-30939Y59976D02*
Y63976D01*
X-32941Y71978D02*
X-28941D01*
X-30941Y69978D02*
Y73978D01*
X-32941Y81978D02*
X-28941D01*
X-30941Y79978D02*
Y83978D01*
M02*
