G04 Layer_Color=32896*
%FSLAX25Y25*%
%MOIN*%
G70*
G01*
G75*
%ADD19C,0.00050*%
%ADD20C,0.00025*%
%ADD46C,0.00984*%
%ADD47C,0.00787*%
%ADD48C,0.00394*%
%ADD49C,0.00250*%
%ADD70C,0.00500*%
D19*
X65000Y-100000D02*
G03*
X75000Y-90000I0J10000D01*
G01*
X-57000D02*
G03*
X-47000Y-100000I10000J0D01*
G01*
Y100000D02*
G03*
X-57000Y90000I0J-10000D01*
G01*
X75000D02*
G03*
X65000Y100000I-10000J0D01*
G01*
X-47000D01*
X75000Y-90000D02*
Y90000D01*
X65000Y-100000D02*
X-47000D01*
X-57000Y-90000D02*
Y90000D01*
D20*
X146037Y-63500D02*
G03*
X146037Y-63500I13J0D01*
G01*
D46*
X69894Y58110D02*
G03*
X69894Y58110I492J0D01*
G01*
D47*
X-9403Y-84757D02*
X-9797D01*
X64278Y41854D02*
X61522D01*
X64278Y36146D02*
X61522D01*
X-29657Y-91697D02*
Y-91303D01*
X64078Y72654D02*
X61322D01*
X64078Y66946D02*
X61322D01*
X-23082Y-89134D02*
X-27314D01*
X-20227Y-86279D02*
X-23082Y-89134D01*
X-20227Y-86279D02*
Y-76929D01*
X-27314D01*
Y-89134D02*
Y-76929D01*
X69402Y50532D02*
X57198D01*
X69402Y54469D02*
X57198D01*
Y50532D02*
Y54469D01*
X69402Y50532D02*
Y54469D01*
D48*
X53797Y43083D02*
G03*
X53797Y43083I197J0D01*
G01*
X53597Y73883D02*
G03*
X53597Y73883I197J0D01*
G01*
X53870Y15778D02*
G03*
X53870Y15778I197J0D01*
G01*
D49*
X64650Y63449D02*
Y61783D01*
X64983Y61450D01*
X65650D01*
X65983Y61783D01*
Y63449D01*
X66649Y61450D02*
X67316D01*
X66983D01*
Y63449D01*
X66649Y63116D01*
X53766Y38667D02*
X54099Y39000D01*
Y39667D01*
X53766Y40000D01*
X52433D01*
X52100Y39667D01*
Y39000D01*
X52433Y38667D01*
X52100Y38001D02*
Y37334D01*
Y37667D01*
X54099D01*
X53766Y38001D01*
X53566Y70267D02*
X53899Y70600D01*
Y71267D01*
X53566Y71600D01*
X52233D01*
X51900Y71267D01*
Y70600D01*
X52233Y70267D01*
X51900Y68268D02*
Y69601D01*
X53233Y68268D01*
X53566D01*
X53899Y68601D01*
Y69267D01*
X53566Y69601D01*
X-9034Y-81433D02*
X-8701Y-81100D01*
Y-80433D01*
X-9034Y-80100D01*
X-10367D01*
X-10700Y-80433D01*
Y-81100D01*
X-10367Y-81433D01*
X-9034Y-82099D02*
X-8701Y-82433D01*
Y-83099D01*
X-9034Y-83432D01*
X-9367D01*
X-9700Y-83099D01*
X-10034Y-83432D01*
X-10367D01*
X-10700Y-83099D01*
Y-82433D01*
X-10367Y-82099D01*
X-10034D01*
X-9700Y-82433D01*
X-9367Y-82099D01*
X-9034D01*
X-9700Y-82433D02*
Y-83099D01*
X61000Y18699D02*
Y17033D01*
X61333Y16700D01*
X62000D01*
X62333Y17033D01*
Y18699D01*
X64332Y16700D02*
X62999D01*
X64332Y18033D01*
Y18366D01*
X63999Y18699D01*
X63333D01*
X62999Y18366D01*
X-21971Y-92931D02*
Y-91265D01*
X-22304Y-90931D01*
X-22971D01*
X-23304Y-91265D01*
Y-92931D01*
X-23970D02*
X-25303D01*
Y-92598D01*
X-23970Y-91265D01*
Y-90931D01*
X52400Y57100D02*
Y59099D01*
X53400D01*
X53733Y58766D01*
Y58100D01*
X53400Y57766D01*
X52400D01*
X53066D02*
X53733Y57100D01*
X54399Y58766D02*
X54733Y59099D01*
X55399D01*
X55732Y58766D01*
Y58433D01*
X55399Y58100D01*
X55066D01*
X55399D01*
X55732Y57766D01*
Y57433D01*
X55399Y57100D01*
X54733D01*
X54399Y57433D01*
X60800Y34200D02*
Y32201D01*
X59800D01*
X59467Y32534D01*
Y33200D01*
X59800Y33533D01*
X60800D01*
X60134D02*
X59467Y34200D01*
X57801D02*
Y32201D01*
X58801Y33200D01*
X57468D01*
D70*
X-40001Y-90501D02*
X-40501Y-90001D01*
X-41500D01*
X-42000Y-90501D01*
Y-92500D01*
X-41500Y-93000D01*
X-40501D01*
X-40001Y-92500D01*
X-39001D02*
X-38501Y-93000D01*
X-37501D01*
X-37002Y-92500D01*
Y-90501D01*
X-37501Y-90001D01*
X-38501D01*
X-39001Y-90501D01*
Y-91001D01*
X-38501Y-91501D01*
X-37002D01*
M02*
