G04 Layer_Color=128*
%FSLAX24Y24*%
%MOIN*%
G70*
G01*
G75*
%ADD71C,0.0020*%
D71*
X-4357Y-7250D02*
X-4043D01*
X-4200Y-7407D02*
Y-7093D01*
X-5145Y-7250D02*
X-4830D01*
X-4987Y-7407D02*
Y-7093D01*
X5799Y-3750D02*
X6201D01*
X6000Y-3951D02*
Y-3549D01*
X5799Y-2750D02*
X6201D01*
X6000Y-2951D02*
Y-2549D01*
X5799Y-1750D02*
X6201D01*
X6000Y-1951D02*
Y-1549D01*
X5799Y-750D02*
X6201D01*
X6000Y-951D02*
Y-549D01*
X5849Y4350D02*
X6251D01*
X6050Y4149D02*
Y4551D01*
X5849Y3350D02*
X6251D01*
X6050Y3149D02*
Y3551D01*
X5849Y2350D02*
X6251D01*
X6050Y2149D02*
Y2551D01*
X5849Y1350D02*
X6251D01*
X6050Y1149D02*
Y1551D01*
X5180Y-7200D02*
X5495D01*
X5337Y-7357D02*
Y-7043D01*
X4393Y-7200D02*
X4707D01*
X4550Y-7357D02*
Y-7043D01*
X-5688Y-1800D02*
X-5412D01*
X-5550Y-1938D02*
Y-1662D01*
X-5688Y-2800D02*
X-5412D01*
X-5550Y-2938D02*
Y-2662D01*
X-5688Y-3800D02*
X-5412D01*
X-5550Y-3938D02*
Y-3662D01*
X3985Y-6140D02*
X4135D01*
X4060Y-6215D02*
Y-6065D01*
X4605Y-4600D02*
X4755D01*
X4680Y-4675D02*
Y-4525D01*
X3465Y-7070D02*
X3615D01*
X3540Y-7145D02*
Y-6995D01*
X-6305Y1238D02*
X-6155D01*
X-6230Y1163D02*
Y1313D01*
X-6155Y1710D02*
X-6005D01*
X-6080Y1635D02*
Y1785D01*
X-2025Y-7750D02*
X-1875D01*
X-1950Y-7825D02*
Y-7675D01*
X-2025Y-8120D02*
X-1875D01*
X-1950Y-8195D02*
Y-8045D01*
X-5985Y-50D02*
X-5835D01*
X-5910Y-125D02*
Y25D01*
X-5615Y-140D02*
X-5465D01*
X-5540Y-215D02*
Y-65D01*
X-5425Y2970D02*
X-5275D01*
X-5350Y2895D02*
Y3045D01*
X-4505Y6070D02*
X-4355D01*
X-4430Y5995D02*
Y6145D01*
X-5145Y2550D02*
X-4995D01*
X-5070Y2475D02*
Y2625D01*
X-4485Y2090D02*
X-4335D01*
X-4410Y2015D02*
Y2165D01*
X-4885Y40D02*
X-4735D01*
X-4810Y-35D02*
Y115D01*
X-4845Y330D02*
X-4695D01*
X-4770Y255D02*
Y405D01*
X-6225Y2510D02*
X-6075D01*
X-6150Y2435D02*
Y2585D01*
X-6285Y2090D02*
X-6135D01*
X-6210Y2015D02*
Y2165D01*
X-1375Y-8520D02*
X-1225D01*
X-1300Y-8595D02*
Y-8445D01*
X-4716Y4689D02*
X-4566D01*
X-4641Y4614D02*
Y4764D01*
X-5735Y3360D02*
X-5585D01*
X-5660Y3285D02*
Y3435D01*
X5105Y-8310D02*
X5255D01*
X5180Y-8385D02*
Y-8235D01*
X1975Y-9120D02*
X2125D01*
X2050Y-9195D02*
Y-9045D01*
X5445Y-1510D02*
X5595D01*
X5520Y-1585D02*
Y-1435D01*
X4635Y-7850D02*
X4785D01*
X4710Y-7925D02*
Y-7775D01*
X4345Y-9400D02*
X4495D01*
X4420Y-9475D02*
Y-9325D01*
X-5915Y5300D02*
X-5765D01*
X-5840Y5225D02*
Y5375D01*
X3714Y-1802D02*
X4114D01*
X3914Y-2002D02*
Y-1602D01*
X3714Y-2802D02*
X4114D01*
X3914Y-3002D02*
Y-2602D01*
X3714Y-802D02*
X4114D01*
X3914Y-1002D02*
Y-602D01*
X3714Y198D02*
X4114D01*
X3914Y-2D02*
Y398D01*
X3714Y1198D02*
X4114D01*
X3914Y998D02*
Y1398D01*
X3714Y2198D02*
X4114D01*
X3914Y1998D02*
Y2398D01*
X3714Y3198D02*
X4114D01*
X3914Y2998D02*
Y3398D01*
X3714Y4198D02*
X4114D01*
X3914Y3998D02*
Y4398D01*
X3714Y5198D02*
X4114D01*
X3914Y4998D02*
Y5398D01*
X3714Y6198D02*
X4114D01*
X3914Y5998D02*
Y6398D01*
X3714Y7198D02*
X4114D01*
X3914Y6998D02*
Y7398D01*
X3714Y8198D02*
X4114D01*
X3914Y7998D02*
Y8398D01*
X-3294Y-2802D02*
X-2894D01*
X-3094Y-3002D02*
Y-2602D01*
X-3294Y-1802D02*
X-2894D01*
X-3094Y-2002D02*
Y-1602D01*
X-3294Y-802D02*
X-2894D01*
X-3094Y-1002D02*
Y-602D01*
X-3294Y198D02*
X-2894D01*
X-3094Y-2D02*
Y398D01*
X-3294Y1198D02*
X-2894D01*
X-3094Y998D02*
Y1398D01*
X-3294Y2198D02*
X-2894D01*
X-3094Y1998D02*
Y2398D01*
X-3294Y3198D02*
X-2894D01*
X-3094Y2998D02*
Y3398D01*
X-3294Y4198D02*
X-2894D01*
X-3094Y3998D02*
Y4398D01*
X-3294Y5198D02*
X-2894D01*
X-3094Y4998D02*
Y5398D01*
X-3294Y6198D02*
X-2894D01*
X-3094Y5998D02*
Y6398D01*
X-3294Y7198D02*
X-2894D01*
X-3094Y6998D02*
Y7398D01*
X-3294Y8198D02*
X-2894D01*
X-3094Y7998D02*
Y8398D01*
M02*
