G04 Layer_Physical_Order=1*
G04 Layer_Color=255*
%FSLAX24Y24*%
%MOIN*%
G70*
G01*
G75*
%ADD10R,0.0236X0.0236*%
%ADD11R,0.0236X0.0197*%
%ADD12R,0.0591X0.0965*%
%ADD13R,0.0252X0.0252*%
%ADD14R,0.1500X0.0800*%
%ADD15R,0.0992X0.0992*%
%ADD16C,0.0100*%
%ADD17C,0.0150*%
%ADD18C,0.0200*%
%ADD19R,0.0374X0.0374*%
%ADD20C,0.0374*%
%ADD21R,0.0472X0.0472*%
%ADD22C,0.0472*%
%ADD23C,0.0335*%
%ADD24R,0.0335X0.0335*%
%ADD25C,0.0200*%
%ADD26C,0.0400*%
D10*
X-5370Y2537D02*
D03*
Y2183D02*
D03*
X5200Y-2127D02*
D03*
Y-1773D02*
D03*
Y-3097D02*
D03*
Y-2743D02*
D03*
X-5780Y2183D02*
D03*
Y2537D02*
D03*
D11*
X-4954Y1740D02*
D03*
X-4560D02*
D03*
D12*
X-5420Y4660D02*
D03*
Y5880D02*
D03*
D13*
X-5940Y2970D02*
D03*
X-5578D02*
D03*
D14*
X4164Y-2802D02*
D03*
X4164Y-1802D02*
D03*
Y-802D02*
D03*
Y198D02*
D03*
Y1198D02*
D03*
Y2198D02*
D03*
Y3198D02*
D03*
Y4198D02*
D03*
Y5198D02*
D03*
Y6198D02*
D03*
Y7198D02*
D03*
Y8198D02*
D03*
X-3344Y2198D02*
D03*
X-3344Y-2802D02*
D03*
X-3344Y-1802D02*
D03*
Y-802D02*
D03*
Y198D02*
D03*
Y1198D02*
D03*
Y3198D02*
D03*
Y4198D02*
D03*
Y5198D02*
D03*
Y6198D02*
D03*
Y7198D02*
D03*
Y8198D02*
D03*
D15*
X-1306Y-6744D02*
D03*
Y-9256D02*
D03*
X1206D02*
D03*
Y-6744D02*
D03*
D16*
X6320Y-2290D02*
X6390Y-2360D01*
Y-3360D02*
Y-2360D01*
X6000Y-3750D02*
X6390Y-3360D01*
X5363Y-2290D02*
X6320D01*
X5200Y-2127D02*
X5363Y-2290D01*
X3966Y-2750D02*
X6000D01*
X2450Y-7750D02*
X4060Y-6140D01*
X-1950Y-7750D02*
X2450D01*
X3966Y-1750D02*
X5310D01*
X4690Y-5920D02*
Y-4590D01*
X2490Y-8120D02*
X3540Y-7070D01*
X-1950Y-8120D02*
X2490D01*
X5590Y3350D02*
X6050D01*
X5320Y3080D02*
X5590Y3350D01*
X5320Y-1740D02*
Y3080D01*
X5310Y-1750D02*
X6000D01*
X5310D02*
X5320Y-1740D01*
X3914Y-1802D02*
X3966Y-1750D01*
X3540Y-7070D02*
X4690Y-5920D01*
X-6230Y780D02*
X-5910Y460D01*
X-6230Y780D02*
Y1238D01*
X-5910Y-50D02*
Y460D01*
X4422Y-2802D02*
X4690Y-3070D01*
X3914Y-2802D02*
X3966Y-2750D01*
X3914Y-2802D02*
X4422D01*
X-5700Y20D02*
Y790D01*
X-6030Y1120D02*
X-5700Y790D01*
X-6080Y1710D02*
X-6030Y1660D01*
Y1120D02*
Y1660D01*
X-5700Y20D02*
X-5540Y-140D01*
X-4490Y1740D02*
X-4410Y1820D01*
Y2090D01*
X-4560Y1740D02*
X-4490D01*
X-5370Y2537D02*
X-5083D01*
X-5070Y2550D01*
X-4970Y200D02*
X-4810Y40D01*
X-4410Y-5110D02*
Y1190D01*
X-4970Y200D02*
Y1724D01*
X-4954Y1740D01*
X-4410Y-5110D02*
X-2776Y-6744D01*
X-4410Y1190D02*
X-3102D01*
X-3094Y1198D01*
X-6140Y2160D02*
X-5803D01*
X-6210Y2090D02*
X-6140Y2160D01*
X-6150Y2510D02*
X-6123Y2537D01*
X-5780D01*
X-5803Y2160D02*
X-5780Y2183D01*
X5200Y-3430D02*
Y-3097D01*
Y-3430D02*
X5520Y-3750D01*
X6000D01*
X-5940Y2970D02*
Y5200D01*
X-5840Y5300D01*
X5520Y-1510D02*
Y2140D01*
X5730Y2350D01*
X6050D01*
X-2776Y-6744D02*
X-1306D01*
D17*
X-5370Y2183D02*
X-5273Y2280D01*
X-4970D01*
X-4420Y2830D01*
Y4330D01*
X-5578Y2970D02*
X-5350D01*
X-5420Y4660D02*
X-5090Y4330D01*
X-4420D01*
Y4592D01*
X-4416Y4596D01*
Y6056D01*
X-4430Y6070D02*
X-4416Y6056D01*
X-5360Y220D02*
Y2183D01*
Y220D02*
X-4960Y-180D01*
Y-3850D02*
Y-180D01*
X-5500Y-3850D02*
X-4960D01*
X-1306Y-8526D02*
X-1300Y-8520D01*
X-1306Y-9256D02*
Y-8526D01*
X-5420Y5880D02*
X-5410Y5870D01*
X-4690D01*
X-4640Y5820D01*
Y4690D02*
Y5820D01*
X-4641Y4689D02*
X-4640Y4690D01*
X-5550Y-3800D02*
X-5500Y-3850D01*
X-5578Y2970D02*
X-5578Y2970D01*
D18*
X-4932Y8198D02*
X-3094D01*
X-4987Y-7250D02*
Y-7173D01*
X-6010Y-6150D02*
X-4987Y-7173D01*
X-6010Y-6150D02*
X-6000Y-6140D01*
Y-3250D01*
X-5550Y-2800D01*
X-5420Y5880D02*
Y7730D01*
X-4950Y8200D01*
X-4940Y8190D01*
X-4932Y8198D01*
D19*
X-4200Y-7250D02*
D03*
X5337Y-7200D02*
D03*
D20*
X-4987Y-7250D02*
D03*
X4550Y-7200D02*
D03*
D21*
X6000Y-3750D02*
D03*
X6050Y1350D02*
D03*
D22*
X6000Y-2750D02*
D03*
Y-1750D02*
D03*
Y-750D02*
D03*
X6050Y4350D02*
D03*
Y3350D02*
D03*
Y2350D02*
D03*
D23*
X-5550Y-1800D02*
D03*
Y-2800D02*
D03*
D24*
Y-3800D02*
D03*
D25*
X4060Y-6140D02*
D03*
X4680Y-4600D02*
D03*
X3540Y-7070D02*
D03*
X-6230Y1238D02*
D03*
X-6080Y1710D02*
D03*
X-1950Y-7750D02*
D03*
Y-8120D02*
D03*
X-5910Y-50D02*
D03*
X-5540Y-140D02*
D03*
X-5350Y2970D02*
D03*
X-4430Y6070D02*
D03*
X-5070Y2550D02*
D03*
X-4410Y2090D02*
D03*
X-4810Y40D02*
D03*
X-4770Y330D02*
D03*
X-6150Y2510D02*
D03*
X-6210Y2090D02*
D03*
X-1300Y-8520D02*
D03*
X-4641Y4689D02*
D03*
X-5660Y3360D02*
D03*
X5180Y-8310D02*
D03*
X2050Y-9120D02*
D03*
X5520Y-1510D02*
D03*
X4710Y-7850D02*
D03*
X4420Y-9400D02*
D03*
X-5840Y5300D02*
D03*
D26*
X3914Y-1802D02*
D03*
X3914Y-2802D02*
D03*
X3914Y-802D02*
D03*
Y198D02*
D03*
Y1198D02*
D03*
Y2198D02*
D03*
Y3198D02*
D03*
Y4198D02*
D03*
Y5198D02*
D03*
Y6198D02*
D03*
Y7198D02*
D03*
Y8198D02*
D03*
X-3094Y-2802D02*
D03*
X-3094Y-1802D02*
D03*
Y-802D02*
D03*
Y198D02*
D03*
Y1198D02*
D03*
Y2198D02*
D03*
Y3198D02*
D03*
Y4198D02*
D03*
Y5198D02*
D03*
Y6198D02*
D03*
X-3094Y7198D02*
D03*
Y8198D02*
D03*
M02*
