G04 Layer_Color=2752767*
%FSLAX24Y24*%
%MOIN*%
G70*
G01*
G75*
%ADD71C,0.0020*%
%ADD72C,0.0027*%
D71*
X-4280Y-7330D02*
Y-7170D01*
X-4120D01*
Y-7330D01*
X-4280D01*
X-5067D02*
Y-7170D01*
X-4907D01*
Y-7330D01*
X-5067D01*
X5257Y-7280D02*
Y-7120D01*
X5417D01*
Y-7280D01*
X5257D01*
X4470D02*
Y-7120D01*
X4630D01*
Y-7280D01*
X4470D01*
X-5550Y-1880D02*
X-5630Y-1720D01*
X-5470D01*
X-5550Y-1880D01*
Y-2880D02*
X-5630Y-2720D01*
X-5470D01*
X-5550Y-2880D01*
Y-3880D02*
X-5630Y-3720D01*
X-5470D01*
X-5550Y-3880D01*
X4060Y-6220D02*
X4100Y-6180D01*
X4140D01*
X4100Y-6140D01*
X4140Y-6100D01*
X4100D01*
X4060Y-6060D01*
X4020Y-6100D01*
X3980D01*
X4020Y-6140D01*
X3980Y-6180D01*
X4020D01*
X4060Y-6220D01*
X4680Y-4680D02*
X4720Y-4640D01*
X4760D01*
X4720Y-4600D01*
X4760Y-4560D01*
X4720D01*
X4680Y-4520D01*
X4640Y-4560D01*
X4600D01*
X4640Y-4600D01*
X4600Y-4640D01*
X4640D01*
X4680Y-4680D01*
X3540Y-7150D02*
X3580Y-7110D01*
X3620D01*
X3580Y-7070D01*
X3620Y-7030D01*
X3580D01*
X3540Y-6990D01*
X3500Y-7030D01*
X3460D01*
X3500Y-7070D01*
X3460Y-7110D01*
X3500D01*
X3540Y-7150D01*
X-6230Y1158D02*
X-6190Y1198D01*
X-6150D01*
X-6190Y1238D01*
X-6150Y1278D01*
X-6190D01*
X-6230Y1318D01*
X-6270Y1278D01*
X-6310D01*
X-6270Y1238D01*
X-6310Y1198D01*
X-6270D01*
X-6230Y1158D01*
X-6080Y1630D02*
X-6040Y1670D01*
X-6000D01*
X-6040Y1710D01*
X-6000Y1750D01*
X-6040D01*
X-6080Y1790D01*
X-6120Y1750D01*
X-6160D01*
X-6120Y1710D01*
X-6160Y1670D01*
X-6120D01*
X-6080Y1630D01*
X-1950Y-7830D02*
X-1910Y-7790D01*
X-1870D01*
X-1910Y-7750D01*
X-1870Y-7710D01*
X-1910D01*
X-1950Y-7670D01*
X-1990Y-7710D01*
X-2030D01*
X-1990Y-7750D01*
X-2030Y-7790D01*
X-1990D01*
X-1950Y-7830D01*
Y-8200D02*
X-1910Y-8160D01*
X-1870D01*
X-1910Y-8120D01*
X-1870Y-8080D01*
X-1910D01*
X-1950Y-8040D01*
X-1990Y-8080D01*
X-2030D01*
X-1990Y-8120D01*
X-2030Y-8160D01*
X-1990D01*
X-1950Y-8200D01*
X-5910Y-130D02*
X-5870Y-90D01*
X-5830D01*
X-5870Y-50D01*
X-5830Y-10D01*
X-5870D01*
X-5910Y30D01*
X-5950Y-10D01*
X-5990D01*
X-5950Y-50D01*
X-5990Y-90D01*
X-5950D01*
X-5910Y-130D01*
X-5540Y-220D02*
X-5500Y-180D01*
X-5460D01*
X-5500Y-140D01*
X-5460Y-100D01*
X-5500D01*
X-5540Y-60D01*
X-5580Y-100D01*
X-5620D01*
X-5580Y-140D01*
X-5620Y-180D01*
X-5580D01*
X-5540Y-220D01*
X-5350Y2890D02*
X-5310Y2930D01*
X-5270D01*
X-5310Y2970D01*
X-5270Y3010D01*
X-5310D01*
X-5350Y3050D01*
X-5390Y3010D01*
X-5430D01*
X-5390Y2970D01*
X-5430Y2930D01*
X-5390D01*
X-5350Y2890D01*
X-4430Y5990D02*
X-4390Y6030D01*
X-4350D01*
X-4390Y6070D01*
X-4350Y6110D01*
X-4390D01*
X-4430Y6150D01*
X-4470Y6110D01*
X-4510D01*
X-4470Y6070D01*
X-4510Y6030D01*
X-4470D01*
X-4430Y5990D01*
X-5070Y2470D02*
X-5030Y2510D01*
X-4990D01*
X-5030Y2550D01*
X-4990Y2590D01*
X-5030D01*
X-5070Y2630D01*
X-5110Y2590D01*
X-5150D01*
X-5110Y2550D01*
X-5150Y2510D01*
X-5110D01*
X-5070Y2470D01*
X-4410Y2010D02*
X-4370Y2050D01*
X-4330D01*
X-4370Y2090D01*
X-4330Y2130D01*
X-4370D01*
X-4410Y2170D01*
X-4450Y2130D01*
X-4490D01*
X-4450Y2090D01*
X-4490Y2050D01*
X-4450D01*
X-4410Y2010D01*
X-4810Y-40D02*
X-4770Y0D01*
X-4730D01*
X-4770Y40D01*
X-4730Y80D01*
X-4770D01*
X-4810Y120D01*
X-4850Y80D01*
X-4890D01*
X-4850Y40D01*
X-4890Y0D01*
X-4850D01*
X-4810Y-40D01*
X-4770Y250D02*
X-4730Y290D01*
X-4690D01*
X-4730Y330D01*
X-4690Y370D01*
X-4730D01*
X-4770Y410D01*
X-4810Y370D01*
X-4850D01*
X-4810Y330D01*
X-4850Y290D01*
X-4810D01*
X-4770Y250D01*
X-6150Y2430D02*
X-6110Y2470D01*
X-6070D01*
X-6110Y2510D01*
X-6070Y2550D01*
X-6110D01*
X-6150Y2590D01*
X-6190Y2550D01*
X-6230D01*
X-6190Y2510D01*
X-6230Y2470D01*
X-6190D01*
X-6150Y2430D01*
X-6210Y2010D02*
X-6170Y2050D01*
X-6130D01*
X-6170Y2090D01*
X-6130Y2130D01*
X-6170D01*
X-6210Y2170D01*
X-6250Y2130D01*
X-6290D01*
X-6250Y2090D01*
X-6290Y2050D01*
X-6250D01*
X-6210Y2010D01*
X-1300Y-8600D02*
X-1260Y-8560D01*
X-1220D01*
X-1260Y-8520D01*
X-1220Y-8480D01*
X-1260D01*
X-1300Y-8440D01*
X-1340Y-8480D01*
X-1380D01*
X-1340Y-8520D01*
X-1380Y-8560D01*
X-1340D01*
X-1300Y-8600D01*
X-4641Y4609D02*
X-4601Y4649D01*
X-4561D01*
X-4601Y4689D01*
X-4561Y4729D01*
X-4601D01*
X-4641Y4769D01*
X-4681Y4729D01*
X-4721D01*
X-4681Y4689D01*
X-4721Y4649D01*
X-4681D01*
X-4641Y4609D01*
X-5660Y3280D02*
X-5620Y3320D01*
X-5580D01*
X-5620Y3360D01*
X-5580Y3400D01*
X-5620D01*
X-5660Y3440D01*
X-5700Y3400D01*
X-5740D01*
X-5700Y3360D01*
X-5740Y3320D01*
X-5700D01*
X-5660Y3280D01*
X5180Y-8390D02*
X5220Y-8350D01*
X5260D01*
X5220Y-8310D01*
X5260Y-8270D01*
X5220D01*
X5180Y-8230D01*
X5140Y-8270D01*
X5100D01*
X5140Y-8310D01*
X5100Y-8350D01*
X5140D01*
X5180Y-8390D01*
X2050Y-9200D02*
X2090Y-9160D01*
X2130D01*
X2090Y-9120D01*
X2130Y-9080D01*
X2090D01*
X2050Y-9040D01*
X2010Y-9080D01*
X1970D01*
X2010Y-9120D01*
X1970Y-9160D01*
X2010D01*
X2050Y-9200D01*
X5520Y-1590D02*
X5560Y-1550D01*
X5600D01*
X5560Y-1510D01*
X5600Y-1470D01*
X5560D01*
X5520Y-1430D01*
X5480Y-1470D01*
X5440D01*
X5480Y-1510D01*
X5440Y-1550D01*
X5480D01*
X5520Y-1590D01*
X4710Y-7930D02*
X4750Y-7890D01*
X4790D01*
X4750Y-7850D01*
X4790Y-7810D01*
X4750D01*
X4710Y-7770D01*
X4670Y-7810D01*
X4630D01*
X4670Y-7850D01*
X4630Y-7890D01*
X4670D01*
X4710Y-7930D01*
X4420Y-9480D02*
X4460Y-9440D01*
X4500D01*
X4460Y-9400D01*
X4500Y-9360D01*
X4460D01*
X4420Y-9320D01*
X4380Y-9360D01*
X4340D01*
X4380Y-9400D01*
X4340Y-9440D01*
X4380D01*
X4420Y-9480D01*
X-5840Y5220D02*
X-5800Y5260D01*
X-5760D01*
X-5800Y5300D01*
X-5760Y5340D01*
X-5800D01*
X-5840Y5380D01*
X-5880Y5340D01*
X-5920D01*
X-5880Y5300D01*
X-5920Y5260D01*
X-5880D01*
X-5840Y5220D01*
X3834Y-1882D02*
X3874Y-1802D01*
X3834Y-1722D01*
X3914Y-1762D01*
X3994Y-1722D01*
X3954Y-1802D01*
X3994Y-1882D01*
X3914Y-1842D01*
X3834Y-1882D01*
X3834Y-2882D02*
X3874Y-2802D01*
X3834Y-2722D01*
X3914Y-2762D01*
X3994Y-2722D01*
X3954Y-2802D01*
X3994Y-2882D01*
X3914Y-2842D01*
X3834Y-2882D01*
X3834Y-882D02*
X3874Y-802D01*
X3834Y-722D01*
X3914Y-762D01*
X3994Y-722D01*
X3954Y-802D01*
X3994Y-882D01*
X3914Y-842D01*
X3834Y-882D01*
Y118D02*
X3874Y198D01*
X3834Y278D01*
X3914Y238D01*
X3994Y278D01*
X3954Y198D01*
X3994Y118D01*
X3914Y158D01*
X3834Y118D01*
Y1118D02*
X3874Y1198D01*
X3834Y1278D01*
X3914Y1238D01*
X3994Y1278D01*
X3954Y1198D01*
X3994Y1118D01*
X3914Y1158D01*
X3834Y1118D01*
Y2118D02*
X3874Y2198D01*
X3834Y2278D01*
X3914Y2238D01*
X3994Y2278D01*
X3954Y2198D01*
X3994Y2118D01*
X3914Y2158D01*
X3834Y2118D01*
Y3118D02*
X3874Y3198D01*
X3834Y3278D01*
X3914Y3238D01*
X3994Y3278D01*
X3954Y3198D01*
X3994Y3118D01*
X3914Y3158D01*
X3834Y3118D01*
Y4118D02*
X3874Y4198D01*
X3834Y4278D01*
X3914Y4238D01*
X3994Y4278D01*
X3954Y4198D01*
X3994Y4118D01*
X3914Y4158D01*
X3834Y4118D01*
Y5118D02*
X3874Y5198D01*
X3834Y5278D01*
X3914Y5238D01*
X3994Y5278D01*
X3954Y5198D01*
X3994Y5118D01*
X3914Y5158D01*
X3834Y5118D01*
Y6118D02*
X3874Y6198D01*
X3834Y6278D01*
X3914Y6238D01*
X3994Y6278D01*
X3954Y6198D01*
X3994Y6118D01*
X3914Y6158D01*
X3834Y6118D01*
Y7118D02*
X3874Y7198D01*
X3834Y7278D01*
X3914Y7238D01*
X3994Y7278D01*
X3954Y7198D01*
X3994Y7118D01*
X3914Y7158D01*
X3834Y7118D01*
Y8118D02*
X3874Y8198D01*
X3834Y8278D01*
X3914Y8238D01*
X3994Y8278D01*
X3954Y8198D01*
X3994Y8118D01*
X3914Y8158D01*
X3834Y8118D01*
X-3174Y-2882D02*
X-3134Y-2802D01*
X-3174Y-2722D01*
X-3094Y-2762D01*
X-3014Y-2722D01*
X-3054Y-2802D01*
X-3014Y-2882D01*
X-3094Y-2842D01*
X-3174Y-2882D01*
X-3174Y-1882D02*
X-3134Y-1802D01*
X-3174Y-1722D01*
X-3094Y-1762D01*
X-3014Y-1722D01*
X-3054Y-1802D01*
X-3014Y-1882D01*
X-3094Y-1842D01*
X-3174Y-1882D01*
Y-882D02*
X-3134Y-802D01*
X-3174Y-722D01*
X-3094Y-762D01*
X-3014Y-722D01*
X-3054Y-802D01*
X-3014Y-882D01*
X-3094Y-842D01*
X-3174Y-882D01*
Y118D02*
X-3134Y198D01*
X-3174Y278D01*
X-3094Y238D01*
X-3014Y278D01*
X-3054Y198D01*
X-3014Y118D01*
X-3094Y158D01*
X-3174Y118D01*
Y1118D02*
X-3134Y1198D01*
X-3174Y1278D01*
X-3094Y1238D01*
X-3014Y1278D01*
X-3054Y1198D01*
X-3014Y1118D01*
X-3094Y1158D01*
X-3174Y1118D01*
Y2118D02*
X-3134Y2198D01*
X-3174Y2278D01*
X-3094Y2238D01*
X-3014Y2278D01*
X-3054Y2198D01*
X-3014Y2118D01*
X-3094Y2158D01*
X-3174Y2118D01*
Y3118D02*
X-3134Y3198D01*
X-3174Y3278D01*
X-3094Y3238D01*
X-3014Y3278D01*
X-3054Y3198D01*
X-3014Y3118D01*
X-3094Y3158D01*
X-3174Y3118D01*
Y4118D02*
X-3134Y4198D01*
X-3174Y4278D01*
X-3094Y4238D01*
X-3014Y4278D01*
X-3054Y4198D01*
X-3014Y4118D01*
X-3094Y4158D01*
X-3174Y4118D01*
Y5118D02*
X-3134Y5198D01*
X-3174Y5278D01*
X-3094Y5238D01*
X-3014Y5278D01*
X-3054Y5198D01*
X-3014Y5118D01*
X-3094Y5158D01*
X-3174Y5118D01*
Y6118D02*
X-3134Y6198D01*
X-3174Y6278D01*
X-3094Y6238D01*
X-3014Y6278D01*
X-3054Y6198D01*
X-3014Y6118D01*
X-3094Y6158D01*
X-3174Y6118D01*
X-3174Y7118D02*
X-3134Y7198D01*
X-3174Y7278D01*
X-3094Y7238D01*
X-3014Y7278D01*
X-3054Y7198D01*
X-3014Y7118D01*
X-3094Y7158D01*
X-3174Y7118D01*
Y8118D02*
X-3134Y8198D01*
X-3174Y8278D01*
X-3094Y8238D01*
X-3014Y8278D01*
X-3054Y8198D01*
X-3014Y8118D01*
X-3094Y8158D01*
X-3174Y8118D01*
D72*
X6080Y-3750D02*
G03*
X6080Y-3750I-80J0D01*
G01*
Y-2750D02*
G03*
X6080Y-2750I-80J0D01*
G01*
Y-1750D02*
G03*
X6080Y-1750I-80J0D01*
G01*
Y-750D02*
G03*
X6080Y-750I-80J0D01*
G01*
X6130Y4350D02*
G03*
X6130Y4350I-80J0D01*
G01*
Y3350D02*
G03*
X6130Y3350I-80J0D01*
G01*
Y2350D02*
G03*
X6130Y2350I-80J0D01*
G01*
Y1350D02*
G03*
X6130Y1350I-80J0D01*
G01*
M02*
