G04 Layer_Color=255*
%FSLAX24Y24*%
%MOIN*%
G70*
G01*
G75*
%ADD10R,0.0236X0.0236*%
%ADD19R,0.0374X0.0374*%
%ADD20C,0.0374*%
%ADD21R,0.0472X0.0472*%
%ADD22C,0.0472*%
%ADD23C,0.0335*%
%ADD24R,0.0335X0.0335*%
%ADD37R,0.0236X0.0236*%
%ADD38R,0.0118X0.0197*%
%ADD39R,0.0512X0.0650*%
%ADD40R,0.0197X0.0118*%
%ADD41O,0.0669X0.0118*%
%ADD42R,0.0472X0.0118*%
%ADD43R,0.0236X0.0413*%
D10*
X-4440Y5096D02*
D03*
Y5450D02*
D03*
D19*
X-4200Y-7250D02*
D03*
X5337Y-7200D02*
D03*
D20*
X-4987Y-7250D02*
D03*
X4550Y-7200D02*
D03*
D21*
X6000Y-3750D02*
D03*
X6050Y1350D02*
D03*
D22*
X6000Y-2750D02*
D03*
Y-1750D02*
D03*
Y-750D02*
D03*
X6050Y4350D02*
D03*
Y3350D02*
D03*
Y2350D02*
D03*
D23*
X-5550Y-1800D02*
D03*
Y-2800D02*
D03*
D24*
Y-3800D02*
D03*
D37*
X-4786Y2970D02*
D03*
X-5140D02*
D03*
D38*
X1910Y-8968D02*
D03*
Y-8692D02*
D03*
D39*
X-4789Y3900D02*
D03*
X-5891D02*
D03*
X-4769Y6980D02*
D03*
X-5871D02*
D03*
D40*
X4408Y-9150D02*
D03*
X4132D02*
D03*
D41*
X4134Y-7909D02*
D03*
Y-8106D02*
D03*
Y-8303D02*
D03*
Y-8500D02*
D03*
Y-8697D02*
D03*
X2520Y-7909D02*
D03*
Y-8106D02*
D03*
Y-8303D02*
D03*
Y-8500D02*
D03*
Y-8697D02*
D03*
D42*
X-4776Y1435D02*
D03*
Y1238D02*
D03*
Y1042D02*
D03*
Y845D02*
D03*
X-5824Y1435D02*
D03*
Y1238D02*
D03*
Y1042D02*
D03*
Y845D02*
D03*
D43*
X-5754Y4689D02*
D03*
X-5006D02*
D03*
Y5811D02*
D03*
X-5380D02*
D03*
X-5754D02*
D03*
M02*
