G04 Layer_Color=8421504*
%FSLAX25Y25*%
%MOIN*%
G70*
G01*
G75*
%ADD10R,0.02362X0.02362*%
%ADD11R,0.02362X0.01969*%
%ADD12R,0.05906X0.09646*%
%ADD13R,0.02520X0.02520*%
%ADD14R,0.15000X0.08000*%
%ADD15R,0.09921X0.09921*%
%ADD19C,0.00050*%
%ADD20C,0.00025*%
%ADD21C,0.00500*%
%ADD22C,0.00400*%
%ADD23C,0.00394*%
%ADD24R,0.11417X0.02436*%
%ADD25C,0.00197*%
D10*
X-53700Y25372D02*
D03*
Y21828D02*
D03*
X52000Y-21272D02*
D03*
Y-17728D02*
D03*
Y-30972D02*
D03*
Y-27428D02*
D03*
X-57800Y21828D02*
D03*
Y25372D02*
D03*
D11*
X-49537Y17400D02*
D03*
X-45600D02*
D03*
D12*
X-54200Y46600D02*
D03*
Y58805D02*
D03*
D13*
X-59400Y29700D02*
D03*
X-55778D02*
D03*
D14*
X41639Y-28022D02*
D03*
X41638Y-18022D02*
D03*
Y-8022D02*
D03*
Y1976D02*
D03*
Y11976D02*
D03*
Y21976D02*
D03*
Y31976D02*
D03*
Y41976D02*
D03*
Y51976D02*
D03*
Y61976D02*
D03*
Y71976D02*
D03*
Y81976D02*
D03*
X-33439Y21976D02*
D03*
X-33441Y-28022D02*
D03*
X-33439Y-18024D02*
D03*
Y-8024D02*
D03*
Y1976D02*
D03*
Y11976D02*
D03*
Y31976D02*
D03*
Y41976D02*
D03*
Y51976D02*
D03*
Y61976D02*
D03*
Y71976D02*
D03*
Y81976D02*
D03*
D15*
X-13059Y-67441D02*
D03*
Y-92559D02*
D03*
X12059D02*
D03*
Y-67441D02*
D03*
D19*
X-65500Y-90000D02*
G03*
X-55500Y-100000I10000J0D01*
G01*
X56500D02*
G03*
X66500Y-90000I0J10000D01*
G01*
Y90000D02*
G03*
X56500Y100000I-10000J0D01*
G01*
X-55500D02*
G03*
X-65500Y90000I0J-10000D01*
G01*
X-55500Y100000D02*
X56500D01*
X-65500Y-90000D02*
Y90000D01*
X-55500Y-100000D02*
X56500D01*
X66500Y-90000D02*
Y90000D01*
D20*
X-136538Y-63500D02*
G03*
X-136538Y-63500I-13J0D01*
G01*
D21*
X38686Y-88876D02*
G03*
X39175Y-88387I-11J500D01*
G01*
Y-77565D02*
G03*
X38686Y-77076I-500J-11D01*
G01*
X28075Y-86776D02*
G03*
X30875Y-86776I1400J0D01*
G01*
X27375Y-88387D02*
G03*
X27864Y-88876I500J11D01*
G01*
Y-77076D02*
G03*
X27375Y-77565I11J-500D01*
G01*
X27864Y-88876D02*
X27875Y-88876D01*
X39175Y-77565D02*
X39175Y-77576D01*
X27375Y-88376D02*
Y-77576D01*
X38675Y-77076D02*
X38686Y-77076D01*
X38675Y-88876D02*
X38686Y-88876D01*
X27875Y-88876D02*
X38675D01*
X27864Y-77076D02*
X27875Y-77076D01*
X38675D01*
X39175Y-88376D02*
Y-77576D01*
X27375Y-88376D02*
X27375Y-88387D01*
X28075Y-86776D02*
X30875D01*
X27375Y-77576D02*
X27375Y-77565D01*
X39175Y-88387D02*
X39175Y-88376D01*
X25054Y-79490D02*
X26249D01*
X24569D02*
X25041D01*
X25054Y-78590D02*
X26249D01*
X23625D02*
X24569D01*
X23625Y-79490D02*
X24569D01*
X26249D02*
X27375D01*
X25041D02*
X25054D01*
X27375D02*
Y-78590D01*
X23625Y-79490D02*
Y-78590D01*
X26249D02*
X27375D01*
X25041D02*
X25054D01*
X24569D02*
X25041D01*
X25054Y-81458D02*
X26249D01*
X24569D02*
X25041D01*
X25054Y-80558D02*
X26249D01*
X23625D02*
X24569D01*
X23625Y-81458D02*
X24569D01*
X26249D02*
X27375D01*
X25041D02*
X25054D01*
X27375D02*
Y-80558D01*
X23625Y-81458D02*
Y-80558D01*
X26249D02*
X27375D01*
X25041D02*
X25054D01*
X24569D02*
X25041D01*
X25054Y-83426D02*
X26249D01*
X24569D02*
X25041D01*
X25054Y-82526D02*
X26249D01*
X23625D02*
X24569D01*
X23625Y-83426D02*
X24569D01*
X26249D02*
X27375D01*
X25041D02*
X25054D01*
X27375D02*
Y-82526D01*
X23625Y-83426D02*
Y-82526D01*
X26249D02*
X27375D01*
X25041D02*
X25054D01*
X24569D02*
X25041D01*
X25054Y-85394D02*
X26249D01*
X24569D02*
X25041D01*
X25054Y-84494D02*
X26249D01*
X23625D02*
X24569D01*
X23625Y-85394D02*
X24569D01*
X26249D02*
X27375D01*
X25041D02*
X25054D01*
X27375D02*
Y-84494D01*
X23625Y-85394D02*
Y-84494D01*
X26249D02*
X27375D01*
X25041D02*
X25054D01*
X24569D02*
X25041D01*
X25054Y-87362D02*
X26249D01*
X24569D02*
X25041D01*
X25054Y-86462D02*
X26249D01*
X23625D02*
X24569D01*
X23625Y-87362D02*
X24569D01*
X26249D02*
X27375D01*
X25041D02*
X25054D01*
X27375D02*
Y-86462D01*
X23625Y-87362D02*
Y-86462D01*
X26249D02*
X27375D01*
X25041D02*
X25054D01*
X24569D02*
X25041D01*
X40301Y-78590D02*
X41497D01*
X41510D02*
X41982D01*
X40301Y-79490D02*
X41497D01*
X41982D02*
X42925D01*
X41982Y-78590D02*
X42925D01*
X39175D02*
X40301D01*
X41497D02*
X41510D01*
X39175Y-79490D02*
Y-78590D01*
X42925Y-79490D02*
Y-78590D01*
X39175Y-79490D02*
X40301D01*
X41497D02*
X41510D01*
X41982D01*
X40301Y-80558D02*
X41497D01*
X41510D02*
X41982D01*
X40301Y-81458D02*
X41497D01*
X41982D02*
X42925D01*
X41982Y-80558D02*
X42925D01*
X39175D02*
X40301D01*
X41497D02*
X41510D01*
X39175Y-81458D02*
Y-80558D01*
X42925Y-81458D02*
Y-80558D01*
X39175Y-81458D02*
X40301D01*
X41497D02*
X41510D01*
X41982D01*
X40301Y-82526D02*
X41497D01*
X41510D02*
X41982D01*
X40301Y-83426D02*
X41497D01*
X41982D02*
X42925D01*
X41982Y-82526D02*
X42925D01*
X39175D02*
X40301D01*
X41497D02*
X41510D01*
X39175Y-83426D02*
Y-82526D01*
X42925Y-83426D02*
Y-82526D01*
X39175Y-83426D02*
X40301D01*
X41497D02*
X41510D01*
X41982D01*
X40301Y-84494D02*
X41497D01*
X41510D02*
X41982D01*
X40301Y-85394D02*
X41497D01*
X41982D02*
X42925D01*
X41982Y-84494D02*
X42925D01*
X39175D02*
X40301D01*
X41497D02*
X41510D01*
X39175Y-85394D02*
Y-84494D01*
X42925Y-85394D02*
Y-84494D01*
X39175Y-85394D02*
X40301D01*
X41497D02*
X41510D01*
X41982D01*
X40301Y-86462D02*
X41497D01*
X41510D02*
X41982D01*
X40301Y-87362D02*
X41497D01*
X41982D02*
X42925D01*
X41982Y-86462D02*
X42925D01*
X39175D02*
X40301D01*
X41497D02*
X41510D01*
X39175Y-87362D02*
Y-86462D01*
X42925Y-87362D02*
Y-86462D01*
X39175Y-87362D02*
X40301D01*
X41497D02*
X41510D01*
X41982D01*
D22*
X35278Y-87756D02*
X33195D01*
X32779Y-87339D01*
Y-86506D01*
X33195Y-86090D01*
X35278D01*
Y-85257D02*
Y-83591D01*
X34861D01*
X33195Y-85257D01*
X32779D01*
D23*
X-48630Y12227D02*
G03*
X-48630Y12227I-1575J0D01*
G01*
X-54881Y25765D02*
X-52519D01*
X-54881Y21435D02*
X-52519D01*
Y25765D01*
X-54881Y21435D02*
Y25765D01*
X-47463Y28519D02*
Y30881D01*
X-51794Y28519D02*
Y30881D01*
X-47463D01*
X-51794Y28519D02*
X-47463D01*
X-45581Y50563D02*
X-43219D01*
X-45581Y54894D02*
X-43219D01*
Y50563D02*
Y54894D01*
X-45581Y50563D02*
Y54894D01*
X50819Y-21665D02*
X53181D01*
X50819Y-17335D02*
X53181D01*
X50819Y-21665D02*
Y-17335D01*
X53181Y-21665D02*
Y-17335D01*
X50819Y-31365D02*
X53181D01*
X50819Y-27035D02*
X53181D01*
X50819Y-31365D02*
Y-27035D01*
X53181Y-31365D02*
Y-27035D01*
X19789Y-89579D02*
Y-87020D01*
X18411Y-89579D02*
Y-87020D01*
Y-89579D02*
X19789D01*
X18411Y-87020D02*
X19789D01*
X-46707Y35850D02*
Y42150D01*
X-60093Y35850D02*
Y42150D01*
X-46707D01*
X-60093Y35850D02*
X-46707D01*
X-49734Y16219D02*
Y18581D01*
X-45403Y16219D02*
Y18581D01*
X-49734D02*
X-45403D01*
X-49734Y16219D02*
X-45403D01*
X41421Y-90811D02*
X43979D01*
X41421Y-92189D02*
X43979D01*
Y-90811D01*
X41421Y-92189D02*
Y-90811D01*
X-46507Y66650D02*
Y72950D01*
X-59893Y66650D02*
Y72950D01*
X-46507D01*
X-59893Y66650D02*
X-46507D01*
X-59909Y43647D02*
X-48491D01*
X-59909Y61757D02*
X-48491D01*
X-59909Y43647D02*
Y61757D01*
X-48491Y43647D02*
Y61757D01*
X-59754Y28519D02*
Y30881D01*
X-55424Y28519D02*
Y30881D01*
X-59754D02*
X-55424D01*
X-59754Y28519D02*
X-55424D01*
X-58981Y21435D02*
X-56619D01*
X-58981Y25765D02*
X-56619D01*
X-58981Y21435D02*
Y25765D01*
X-56619Y21435D02*
Y25765D01*
X-47055Y7424D02*
Y15376D01*
X-58945Y7424D02*
Y15376D01*
X-47055D01*
X-58945Y7424D02*
X-47055D01*
X-47698Y48957D02*
Y56043D01*
X-59902Y48957D02*
Y56043D01*
Y48957D02*
X-47698D01*
X-59902Y56043D02*
X-47698D01*
X-53700Y22419D02*
Y24781D01*
X-54881Y23600D02*
X-52519D01*
X-50809Y29700D02*
X-48447D01*
X-49628Y28519D02*
Y30881D01*
X-44400Y51547D02*
Y53909D01*
X-45581Y52728D02*
X-43219D01*
X52000Y-20681D02*
Y-18319D01*
X50819Y-19500D02*
X53181D01*
X52000Y-30381D02*
Y-28019D01*
X50819Y-29200D02*
X53181D01*
X18411Y-88300D02*
X19789D01*
X19100Y-88989D02*
Y-87611D01*
X20084Y-91056D02*
Y-85544D01*
X18116Y-91056D02*
Y-85544D01*
Y-91056D02*
X20084D01*
X18116Y-85544D02*
X20084D01*
X-55369Y39000D02*
X-51432D01*
X-53400Y37031D02*
Y40968D01*
X-51112Y16022D02*
Y18778D01*
X-44025Y16022D02*
Y18778D01*
X-51112D02*
X-44025D01*
X-51112Y16022D02*
X-44025D01*
X-48750Y17400D02*
X-46387D01*
X-47569Y16219D02*
Y18581D01*
X42700Y-92189D02*
Y-90811D01*
X42011Y-91500D02*
X43389D01*
X39944Y-90516D02*
X45456D01*
X39944Y-92484D02*
X45456D01*
Y-90516D01*
X39944Y-92484D02*
Y-90516D01*
X-55168Y69800D02*
X-51231D01*
X-53200Y67831D02*
Y71768D01*
X-54200Y50734D02*
Y54671D01*
X-56169Y52702D02*
X-52232D01*
X33271Y-85000D02*
Y-81063D01*
X31302Y-83031D02*
X35239D01*
X-58770Y29700D02*
X-56408D01*
X-57589Y28519D02*
Y30881D01*
X-57800Y22419D02*
Y24781D01*
X-58981Y23600D02*
X-56619D01*
X-54969Y11400D02*
X-51032D01*
X-53000Y9431D02*
Y13368D01*
X-55769Y52500D02*
X-51832D01*
X-53800Y50532D02*
Y54469D01*
D24*
X-54200Y44865D02*
D03*
D25*
X-55472Y27143D02*
X-51928D01*
X-55472Y20057D02*
X-51928D01*
Y27143D01*
X-55472Y20057D02*
Y27143D01*
X-46085Y27928D02*
Y31472D01*
X-53172Y27928D02*
Y31472D01*
X-46085D01*
X-53172Y27928D02*
X-46085D01*
X-46172Y49185D02*
X-42628D01*
X-46172Y56272D02*
X-42628D01*
Y49185D02*
Y56272D01*
X-46172Y49185D02*
Y56272D01*
X50228Y-23043D02*
X53772D01*
X50228Y-15957D02*
X53772D01*
X50228Y-23043D02*
Y-15957D01*
X53772Y-23043D02*
Y-15957D01*
X50228Y-32743D02*
X53772D01*
X50228Y-25657D02*
X53772D01*
X50228Y-32743D02*
Y-25657D01*
X53772Y-32743D02*
Y-25657D01*
X-44345Y34669D02*
Y43331D01*
X-62455Y34669D02*
Y43331D01*
X-44345D01*
X-62455Y34669D02*
X-44345D01*
X-44145Y65469D02*
Y74131D01*
X-62255Y65469D02*
Y74131D01*
X-44145D01*
X-62255Y65469D02*
X-44145D01*
X-60893Y40694D02*
X-47507D01*
X-60893Y64710D02*
X-47507D01*
X-60893Y40694D02*
Y64710D01*
X-47507Y40694D02*
Y64710D01*
X20869Y-75945D02*
X45672D01*
X20869Y-90118D02*
X45672D01*
Y-75945D01*
X20869Y-90118D02*
Y-75945D01*
X-61329Y27731D02*
Y31668D01*
X-53849Y27731D02*
Y31668D01*
X-61329D02*
X-53849D01*
X-61329Y27731D02*
X-53849D01*
X-59572Y20057D02*
X-56028D01*
X-59572Y27143D02*
X-56028D01*
X-59572Y20057D02*
Y27143D01*
X-56028Y20057D02*
Y27143D01*
X-43433Y5298D02*
Y17502D01*
X-62567Y5298D02*
Y17502D01*
X-43433D01*
X-62567Y5298D02*
X-43433D01*
X-46713Y43839D02*
Y61161D01*
X-60887Y43839D02*
Y61161D01*
Y43839D02*
X-46713D01*
X-60887Y61161D02*
X-46713D01*
M02*
