G04 Layer_Physical_Order=1*
G04 Layer_Color=255*
%FSLAX25Y25*%
%MOIN*%
G70*
G01*
G75*
%ADD10R,0.02362X0.02362*%
%ADD11R,0.02362X0.01969*%
%ADD12R,0.05906X0.09646*%
%ADD13R,0.02520X0.02520*%
%ADD14R,0.15000X0.08000*%
%ADD15R,0.09921X0.09921*%
%ADD16C,0.01000*%
%ADD17C,0.01500*%
%ADD18C,0.02000*%
%ADD19C,0.00050*%
%ADD20C,0.00025*%
%ADD21R,0.03740X0.03740*%
%ADD22C,0.03740*%
%ADD23R,0.04724X0.04724*%
%ADD24C,0.04724*%
%ADD25C,0.03347*%
%ADD26R,0.03347X0.03347*%
%ADD27C,0.02000*%
%ADD28C,0.04000*%
D10*
X-53700Y25372D02*
D03*
Y21828D02*
D03*
X52000Y-21272D02*
D03*
Y-17728D02*
D03*
Y-30972D02*
D03*
Y-27428D02*
D03*
X-57800Y21828D02*
D03*
Y25372D02*
D03*
D11*
X-49537Y17400D02*
D03*
X-45600D02*
D03*
D12*
X-54200Y46600D02*
D03*
Y58805D02*
D03*
D13*
X-59400Y29700D02*
D03*
X-55778D02*
D03*
D14*
X41639Y-28022D02*
D03*
X41638Y-18022D02*
D03*
Y-8022D02*
D03*
Y1976D02*
D03*
Y11976D02*
D03*
Y21976D02*
D03*
Y31976D02*
D03*
Y41976D02*
D03*
Y51976D02*
D03*
Y61976D02*
D03*
Y71976D02*
D03*
Y81976D02*
D03*
X-33439Y21976D02*
D03*
X-33441Y-28022D02*
D03*
X-33439Y-18024D02*
D03*
Y-8024D02*
D03*
Y1976D02*
D03*
Y11976D02*
D03*
Y31976D02*
D03*
Y41976D02*
D03*
Y51976D02*
D03*
Y61976D02*
D03*
Y71976D02*
D03*
Y81976D02*
D03*
D15*
X-13059Y-67441D02*
D03*
Y-92559D02*
D03*
X12059D02*
D03*
Y-67441D02*
D03*
D16*
X63200Y-22900D02*
X63900Y-23600D01*
Y-33600D02*
Y-23600D01*
X60000Y-37500D02*
X63900Y-33600D01*
X53628Y-22900D02*
X63200D01*
X52000Y-21272D02*
X53628Y-22900D01*
X39661Y-27500D02*
X60000D01*
X24500Y-77500D02*
X40600Y-61400D01*
X-19500Y-77500D02*
X24500D01*
X39660Y-17500D02*
X53100D01*
X46900Y-59200D02*
Y-45900D01*
X24900Y-81200D02*
X35400Y-70700D01*
X-19500Y-81200D02*
X24900D01*
X55900Y33500D02*
X60500D01*
X53200Y30800D02*
X55900Y33500D01*
X53200Y-17400D02*
Y30800D01*
X53100Y-17500D02*
X60000D01*
X53100D02*
X53200Y-17400D01*
X39138Y-18022D02*
X39660Y-17500D01*
X35400Y-70700D02*
X46900Y-59200D01*
X-62300Y7800D02*
X-59100Y4600D01*
X-62300Y7800D02*
Y12384D01*
X-59100Y-500D02*
Y4600D01*
X44222Y-28022D02*
X46900Y-30700D01*
X39139Y-28022D02*
X39661Y-27500D01*
X39139Y-28022D02*
X44222D01*
X-57000Y200D02*
Y7900D01*
X-60300Y11200D02*
X-57000Y7900D01*
X-60800Y17100D02*
X-60300Y16600D01*
Y11200D02*
Y16600D01*
X-57000Y200D02*
X-55400Y-1400D01*
X-44900Y17400D02*
X-44100Y18200D01*
Y20900D01*
X-45600Y17400D02*
X-44900D01*
X-53700Y25372D02*
X-50828D01*
X-50700Y25500D01*
X-49700Y2000D02*
X-48100Y400D01*
X-44100Y-51100D02*
Y11900D01*
X-49700Y2000D02*
Y17237D01*
X-49537Y17400D01*
X-44100Y-51100D02*
X-27759Y-67441D01*
X-44100Y11900D02*
X-31015D01*
X-30939Y11976D01*
X-61400Y21600D02*
X-58028D01*
X-62100Y20900D02*
X-61400Y21600D01*
X-61500Y25100D02*
X-61228Y25372D01*
X-57800D01*
X-58028Y21600D02*
X-57800Y21828D01*
X52000Y-34300D02*
Y-30972D01*
Y-34300D02*
X55200Y-37500D01*
X60000D01*
X-59400Y29700D02*
Y52000D01*
X-58400Y53000D01*
X55200Y-15100D02*
Y21400D01*
X57300Y23500D01*
X60500D01*
X-27759Y-67441D02*
X-13059D01*
D17*
X-53700Y21828D02*
X-52728Y22800D01*
X-49700D01*
X-44200Y28300D01*
Y43300D01*
X-55778Y29700D02*
X-53500D01*
X-54200Y46600D02*
X-50900Y43300D01*
X-44200D01*
Y45918D01*
X-44160Y45958D01*
Y60560D01*
X-44300Y60700D02*
X-44160Y60560D01*
X-53600Y2200D02*
Y21828D01*
Y2200D02*
X-49600Y-1800D01*
Y-38500D02*
Y-1800D01*
X-55000Y-38500D02*
X-49600D01*
X-13059Y-85259D02*
X-13000Y-85200D01*
X-13059Y-92559D02*
Y-85259D01*
X-54200Y58805D02*
X-54095Y58700D01*
X-46900D01*
X-46400Y58200D01*
Y46900D02*
Y58200D01*
X-46410Y46890D02*
X-46400Y46900D01*
X-55500Y-38000D02*
X-55000Y-38500D01*
X-55778Y29700D02*
X-55778Y29700D01*
D18*
X-49324Y81976D02*
X-30939D01*
X-49874Y-72500D02*
Y-71726D01*
X-60100Y-61500D02*
X-49874Y-71726D01*
X-60100Y-61500D02*
X-60000Y-61400D01*
Y-32500D01*
X-55500Y-28000D01*
X-54200Y58805D02*
Y77300D01*
X-49500Y82000D01*
X-49400Y81900D01*
X-49324Y81976D01*
D19*
X-65500Y-90000D02*
G03*
X-55500Y-100000I10000J0D01*
G01*
X56500D02*
G03*
X66500Y-90000I0J10000D01*
G01*
Y90000D02*
G03*
X56500Y100000I-10000J0D01*
G01*
X-55500D02*
G03*
X-65500Y90000I0J-10000D01*
G01*
X-55500Y100000D02*
X56500D01*
X-65500Y-90000D02*
Y90000D01*
X-55500Y-100000D02*
X56500D01*
X66500Y-90000D02*
Y90000D01*
D20*
X-136538Y-63500D02*
G03*
X-136538Y-63500I-13J0D01*
G01*
D21*
X-42000Y-72500D02*
D03*
X53374Y-72000D02*
D03*
D22*
X-49874Y-72500D02*
D03*
X45500Y-72000D02*
D03*
D23*
X60000Y-37500D02*
D03*
X60500Y13500D02*
D03*
D24*
X60000Y-27500D02*
D03*
Y-17500D02*
D03*
Y-7500D02*
D03*
X60500Y43500D02*
D03*
Y33500D02*
D03*
Y23500D02*
D03*
D25*
X-55500Y-18000D02*
D03*
Y-28000D02*
D03*
D26*
Y-38000D02*
D03*
D27*
X40600Y-61400D02*
D03*
X46800Y-46000D02*
D03*
X35400Y-70700D02*
D03*
X-62300Y12384D02*
D03*
X-60800Y17100D02*
D03*
X-19500Y-77500D02*
D03*
Y-81200D02*
D03*
X-59100Y-500D02*
D03*
X-55400Y-1400D02*
D03*
X-53500Y29700D02*
D03*
X-44300Y60700D02*
D03*
X-50700Y25500D02*
D03*
X-44100Y20900D02*
D03*
X-48100Y400D02*
D03*
X-47700Y3300D02*
D03*
X-61500Y25100D02*
D03*
X-62100Y20900D02*
D03*
X-13000Y-85200D02*
D03*
X-46410Y46890D02*
D03*
X-56600Y33600D02*
D03*
X51800Y-83100D02*
D03*
X20500Y-91200D02*
D03*
X55200Y-15100D02*
D03*
X47100Y-78500D02*
D03*
X44200Y-94000D02*
D03*
X-58400Y53000D02*
D03*
D28*
X39138Y-18022D02*
D03*
X39139Y-28022D02*
D03*
X39138Y-8022D02*
D03*
Y1976D02*
D03*
Y11976D02*
D03*
Y21976D02*
D03*
Y31976D02*
D03*
Y41976D02*
D03*
Y51976D02*
D03*
Y61976D02*
D03*
Y71976D02*
D03*
Y81976D02*
D03*
X-30941Y-28022D02*
D03*
X-30939Y-18024D02*
D03*
Y-8024D02*
D03*
Y1976D02*
D03*
Y11976D02*
D03*
Y21976D02*
D03*
Y31976D02*
D03*
Y41976D02*
D03*
Y51976D02*
D03*
Y61976D02*
D03*
X-30941Y71978D02*
D03*
Y81978D02*
D03*
M02*
