G04 Layer_Color=8421504*
%FSLAX25Y25*%
%MOIN*%
G70*
G01*
G75*
%ADD10R,0.02362X0.02362*%
%ADD11R,0.02362X0.01969*%
%ADD12R,0.05906X0.09646*%
%ADD13R,0.02520X0.02520*%
%ADD14R,0.15000X0.08000*%
%ADD15R,0.09921X0.09921*%
%ADD19C,0.00050*%
%ADD20C,0.00025*%
D10*
X-53700Y25372D02*
D03*
Y21828D02*
D03*
X52000Y-21272D02*
D03*
Y-17728D02*
D03*
Y-30972D02*
D03*
Y-27428D02*
D03*
X-57800Y21828D02*
D03*
Y25372D02*
D03*
D11*
X-49537Y17400D02*
D03*
X-45600D02*
D03*
D12*
X-54200Y46600D02*
D03*
Y58805D02*
D03*
D13*
X-59400Y29700D02*
D03*
X-55778D02*
D03*
D14*
X41639Y-28022D02*
D03*
X41638Y-18022D02*
D03*
Y-8022D02*
D03*
Y1976D02*
D03*
Y11976D02*
D03*
Y21976D02*
D03*
Y31976D02*
D03*
Y41976D02*
D03*
Y51976D02*
D03*
Y61976D02*
D03*
Y71976D02*
D03*
Y81976D02*
D03*
X-33439Y21976D02*
D03*
X-33441Y-28022D02*
D03*
X-33439Y-18024D02*
D03*
Y-8024D02*
D03*
Y1976D02*
D03*
Y11976D02*
D03*
Y31976D02*
D03*
Y41976D02*
D03*
Y51976D02*
D03*
Y61976D02*
D03*
Y71976D02*
D03*
Y81976D02*
D03*
D15*
X-13059Y-67441D02*
D03*
Y-92559D02*
D03*
X12059D02*
D03*
Y-67441D02*
D03*
D19*
X-65500Y-90000D02*
G03*
X-55500Y-100000I10000J0D01*
G01*
X56500D02*
G03*
X66500Y-90000I0J10000D01*
G01*
Y90000D02*
G03*
X56500Y100000I-10000J0D01*
G01*
X-55500D02*
G03*
X-65500Y90000I0J-10000D01*
G01*
X-55500Y100000D02*
X56500D01*
X-65500Y-90000D02*
Y90000D01*
X-55500Y-100000D02*
X56500D01*
X66500Y-90000D02*
Y90000D01*
D20*
X-136538Y-63500D02*
G03*
X-136538Y-63500I-13J0D01*
G01*
M02*
