G04 Layer_Physical_Order=2*
G04 Layer_Color=32768*
%FSLAX24Y24*%
%MOIN*%
G70*
G01*
G75*
%ADD27C,0.0400*%
G04:AMPARAMS|DCode=28|XSize=91.496mil|YSize=91.496mil|CornerRadius=0mil|HoleSize=0mil|Usage=FLASHONLY|Rotation=0.000|XOffset=0mil|YOffset=0mil|HoleType=Round|Shape=Relief|Width=10mil|Gap=10mil|Entries=4|*
%AMTHD28*
7,0,0,0.0915,0.0715,0.0100,45*
%
%ADD28THD28*%
%ADD29C,0.0715*%
%ADD30C,0.0802*%
G04:AMPARAMS|DCode=31|XSize=100.157mil|YSize=100.157mil|CornerRadius=0mil|HoleSize=0mil|Usage=FLASHONLY|Rotation=0.000|XOffset=0mil|YOffset=0mil|HoleType=Round|Shape=Relief|Width=10mil|Gap=10mil|Entries=4|*
%AMTHD31*
7,0,0,0.1002,0.0802,0.0100,45*
%
%ADD31THD31*%
%ADD32C,0.0676*%
%ADD33C,0.0550*%
G04:AMPARAMS|DCode=34|XSize=75mil|YSize=75mil|CornerRadius=0mil|HoleSize=0mil|Usage=FLASHONLY|Rotation=0.000|XOffset=0mil|YOffset=0mil|HoleType=Round|Shape=Relief|Width=10mil|Gap=10mil|Entries=4|*
%AMTHD34*
7,0,0,0.0750,0.0550,0.0100,45*
%
%ADD34THD34*%
%ADD35C,0.0800*%
G04:AMPARAMS|DCode=36|XSize=100mil|YSize=100mil|CornerRadius=0mil|HoleSize=0mil|Usage=FLASHONLY|Rotation=0.000|XOffset=0mil|YOffset=0mil|HoleType=Round|Shape=Relief|Width=10mil|Gap=10mil|Entries=4|*
%AMTHD36*
7,0,0,0.1000,0.0800,0.0100,45*
%
%ADD36THD36*%
D27*
X-6550Y-9000D02*
G03*
X-5550Y-10000I1000J0D01*
G01*
X5650D02*
G03*
X6650Y-9000I0J1000D01*
G01*
Y9000D02*
G03*
X5650Y10000I-1000J0D01*
G01*
X-5550D02*
G03*
X-6550Y9000I0J-1000D01*
G01*
Y-9000D02*
Y9000D01*
X-5550Y10000D02*
X5650D01*
X6650Y-9000D02*
Y9000D01*
X-5550Y-10000D02*
X5650D01*
D28*
X-4200Y-7250D02*
D03*
D29*
X-4987D02*
D03*
X5337Y-7200D02*
D03*
X4550D02*
D03*
D30*
X6000Y-3750D02*
D03*
Y-2750D02*
D03*
Y-1750D02*
D03*
X6050Y3350D02*
D03*
Y2350D02*
D03*
Y1350D02*
D03*
D31*
X6000Y-750D02*
D03*
X6050Y4350D02*
D03*
D32*
X-5550Y-1800D02*
D03*
Y-2800D02*
D03*
Y-3800D02*
D03*
D33*
X4060Y-6140D02*
D03*
X4680Y-4600D02*
D03*
X3540Y-7070D02*
D03*
X-6230Y1238D02*
D03*
X-6080Y1710D02*
D03*
X-1950Y-7750D02*
D03*
Y-8120D02*
D03*
X-5910Y-50D02*
D03*
X-5540Y-140D02*
D03*
X-5350Y2970D02*
D03*
X-4430Y6070D02*
D03*
X-5070Y2550D02*
D03*
X-4810Y40D02*
D03*
X-6210Y2090D02*
D03*
X-4641Y4689D02*
D03*
X5520Y-1510D02*
D03*
X4710Y-7850D02*
D03*
X-5840Y5300D02*
D03*
D34*
X-4410Y2090D02*
D03*
X-4770Y330D02*
D03*
X-6150Y2510D02*
D03*
X-1300Y-8520D02*
D03*
X-5660Y3360D02*
D03*
X5180Y-8310D02*
D03*
X2050Y-9120D02*
D03*
X4420Y-9400D02*
D03*
D35*
X3914Y-1802D02*
D03*
X3914Y-2802D02*
D03*
X3914Y-802D02*
D03*
Y198D02*
D03*
Y1198D02*
D03*
Y2198D02*
D03*
Y3198D02*
D03*
Y4198D02*
D03*
Y6198D02*
D03*
Y7198D02*
D03*
Y8198D02*
D03*
X-3094Y-2802D02*
D03*
X-3094Y-1802D02*
D03*
Y-802D02*
D03*
Y198D02*
D03*
Y1198D02*
D03*
Y2198D02*
D03*
Y3198D02*
D03*
Y4198D02*
D03*
Y5198D02*
D03*
Y6198D02*
D03*
X-3094Y8198D02*
D03*
D36*
X3914Y5198D02*
D03*
X-3094Y7198D02*
D03*
M02*
