G04 ================== begin FILE IDENTIFICATION RECORD ==================*
G04 Layout Name:  SLEEPTRACK2_PHASE1.brd*
G04 Film Name:    Sleeptrack2_Phase_1_Manufacturing_V1*
G04 File Format:  Gerber RS274X*
G04 File Origin:  Cadence Allegro 17.0-P009*
G04 Origin Date:  Thu Jun 09 23:55:17 2016*
G04 *
G04 Layer:  MANUFACTURING/XSECTION_CHART*
G04 Layer:  BOARD GEOMETRY/OUTLINE*
G04 Layer:  BOARD GEOMETRY/ASSEMBLY_NOTES*
G04 Layer:  BOARD GEOMETRY/TOOLING_CORNERS*
G04 Layer:  BOARD GEOMETRY/DIMENSION*
G04 Layer:  BOARD GEOMETRY/ASSEMBLY_DETAIL*
G04 *
G04 Offset:    (0.00 0.00)*
G04 Mirror:    No*
G04 Mode:      Positive*
G04 Rotation:  0*
G04 FullContactRelief:  No*
G04 UndefLineWidth:     10.00*
G04 ================== end FILE IDENTIFICATION RECORD ====================*
%FSLAX25Y25*MOIN*%
%IR0*IPPOS*OFA0.00000B0.00000*MIA0B0*SFA1.00000B1.00000*%
%ADD10C,.01*%
G75*
%LPD*%
G75*
G36*
G01X223920Y105319D02*
Y97039D01*
X226420D01*
Y-85121D01*
X223920D01*
Y-93401D01*
X238920D01*
Y-85121D01*
X236420D01*
Y97039D01*
X238920D01*
Y105319D01*
X223920D01*
G37*
G36*
G01X203920Y-93401D02*
Y-85121D01*
X263920D01*
Y-93401D01*
X203920D01*
G37*
G36*
G01Y-29921D02*
Y-21641D01*
X263920D01*
Y-29921D01*
X203920D01*
G37*
G36*
G01Y33559D02*
Y41839D01*
X263920D01*
Y33559D01*
X203920D01*
G37*
G36*
G01Y97039D02*
Y105319D01*
X263920D01*
Y97039D01*
X203920D01*
G37*
G54D10*
G01X-125000Y-135000D02*
Y-158550D01*
G01X-35375Y-148550D02*
X-125000D01*
G01X-110000Y-146050D02*
X-125000Y-148550D01*
X-110000Y-151050D01*
Y-146050D01*
G01X-125000Y-122500D02*
Y122500D01*
G02X-122500Y125000I2500J0D01*
G01X122500D01*
G02X125000Y122500I0J-2500D01*
G01Y-122500D01*
G02X122500Y-125000I-2500J0D01*
G01X-122500D01*
G02X-125000Y-122500I0J2500D01*
G01X-24295Y-144383D02*
X-23365Y-143134D01*
X-22280Y-142508D01*
X-21040Y-142300D01*
X-19490Y-142717D01*
X-18405Y-143758D01*
X-18095Y-145008D01*
X-18250Y-146259D01*
X-18870Y-147300D01*
X-21970Y-149383D01*
X-23365Y-150842D01*
X-24295Y-152925D01*
X-24605Y-154800D01*
X-18095D01*
G01X-8950Y-155217D02*
X-9260Y-155008D01*
Y-154592D01*
X-8950Y-154383D01*
X-8640Y-154592D01*
Y-155008D01*
X-8950Y-155217D01*
G01X40Y-152925D02*
X970Y-153967D01*
X2055Y-154592D01*
X3450Y-154800D01*
X4845Y-154383D01*
X5930Y-153550D01*
X6705Y-152092D01*
X6860Y-150425D01*
X6550Y-148758D01*
X5775Y-147717D01*
X4690Y-146883D01*
X3605Y-146675D01*
X2520Y-146883D01*
X1125Y-147717D01*
X1590Y-142300D01*
X5775D01*
G01X15850D02*
X14610Y-142717D01*
X13680Y-143758D01*
X13060Y-145008D01*
X12595Y-146675D01*
X12440Y-148550D01*
X12595Y-150425D01*
X13060Y-152092D01*
X13680Y-153342D01*
X14610Y-154383D01*
X15850Y-154800D01*
X17090Y-154383D01*
X18020Y-153342D01*
X18640Y-152092D01*
X19105Y-150425D01*
X19260Y-148550D01*
X19105Y-146675D01*
X18640Y-145008D01*
X18020Y-143758D01*
X17090Y-142717D01*
X15850Y-142300D01*
G01X29875Y-148550D02*
X125000D01*
G01Y-135000D02*
Y-158550D01*
G01X110000Y-151050D02*
X125000Y-148550D01*
X110000Y-146050D01*
Y-151050D01*
G01X134500Y-124500D02*
X166320D01*
G01X134775Y-673D02*
X135705Y576D01*
X136790Y1202D01*
X138030Y1410D01*
X139580Y993D01*
X140665Y-48D01*
X140975Y-1298D01*
X140820Y-2549D01*
X140200Y-3590D01*
X137100Y-5673D01*
X135705Y-7132D01*
X134775Y-9215D01*
X134465Y-11090D01*
X140975D01*
G01X150120Y-11507D02*
X149810Y-11298D01*
Y-10882D01*
X150120Y-10673D01*
X150430Y-10882D01*
Y-11298D01*
X150120Y-11507D01*
G01X164380Y-11090D02*
Y1410D01*
X158645Y-7548D01*
X166395D01*
G01X172285Y-9632D02*
X173370Y-10673D01*
X174610Y-11090D01*
X175850Y-10673D01*
X176935Y-9424D01*
X177710Y-7548D01*
X178020Y-5673D01*
Y-3382D01*
X177710Y-1507D01*
X176935Y160D01*
X176005Y993D01*
X174920Y1410D01*
X173680Y993D01*
X172750Y160D01*
X172130Y-1090D01*
X171820Y-2757D01*
X172130Y-4215D01*
X172905Y-5673D01*
X173835Y-6507D01*
X174920Y-6715D01*
X176160Y-6299D01*
X177090Y-5257D01*
X178020Y-3382D01*
G01X134500Y124500D02*
X166320D01*
G01X156320Y-20465D02*
Y-124500D01*
G01X153820Y-109500D02*
X156320Y-124500D01*
X158820Y-109500D01*
X153820D01*
G01X156320Y10785D02*
Y124500D01*
G01X158820Y109500D02*
X156320Y124500D01*
X153820Y109500D01*
X158820D01*
G01X205833Y-102567D02*
Y-100067D01*
X206367D01*
X206580Y-100192D01*
X206740Y-100359D01*
X206873Y-100609D01*
X206980Y-100900D01*
X207007Y-101317D01*
X206980Y-101734D01*
X206873Y-102025D01*
X206740Y-102275D01*
X206580Y-102442D01*
X206367Y-102567D01*
X205833D01*
G01X209153D02*
X208087D01*
Y-100067D01*
X209153D01*
G01X208727Y-101275D02*
X208087D01*
G01X210260Y-102234D02*
X210473Y-102442D01*
X210713Y-102567D01*
X210927D01*
X211140Y-102442D01*
X211300Y-102234D01*
X211380Y-101942D01*
X211327Y-101650D01*
X211193Y-101400D01*
X210953Y-101234D01*
X210633Y-101150D01*
X210447Y-100984D01*
X210367Y-100692D01*
X210420Y-100400D01*
X210553Y-100192D01*
X210740Y-100067D01*
X210927D01*
X211113Y-100150D01*
X211273Y-100359D01*
G01X212700Y-100067D02*
X213340D01*
G01X213020D02*
Y-102567D01*
G01X212700D02*
X213340D01*
G01X215380Y-101317D02*
X215913D01*
Y-102067D01*
X215753Y-102317D01*
X215567Y-102484D01*
X215300Y-102567D01*
X215033Y-102484D01*
X214847Y-102317D01*
X214687Y-102067D01*
X214580Y-101775D01*
X214527Y-101442D01*
Y-101150D01*
X214580Y-100900D01*
X214687Y-100609D01*
X214847Y-100359D01*
X215007Y-100192D01*
X215220Y-100067D01*
X215407D01*
X215620Y-100150D01*
X215780Y-100317D01*
G01X216807Y-102567D02*
Y-100067D01*
X218033Y-102567D01*
Y-100067D01*
G01X222407Y-100275D02*
X222247Y-100150D01*
X222060Y-100067D01*
X221847D01*
X221607Y-100192D01*
X221420Y-100400D01*
X221287Y-100650D01*
X221180Y-101067D01*
X221153Y-101442D01*
X221207Y-101817D01*
X221287Y-102067D01*
X221447Y-102317D01*
X221633Y-102484D01*
X221820Y-102567D01*
X222007D01*
X222193Y-102484D01*
X222353Y-102359D01*
X222487Y-102192D01*
G01X223487Y-102567D02*
Y-100067D01*
X224153D01*
X224367Y-100192D01*
X224500Y-100359D01*
X224553Y-100692D01*
X224500Y-101025D01*
X224340Y-101234D01*
X224153Y-101359D01*
X223487D01*
G01X224153D02*
X224553Y-102567D01*
G01X226220D02*
X226007Y-102525D01*
X225820Y-102359D01*
X225660Y-102109D01*
X225553Y-101817D01*
X225500Y-101484D01*
Y-101150D01*
X225553Y-100817D01*
X225660Y-100525D01*
X225820Y-100275D01*
X226007Y-100109D01*
X226220Y-100067D01*
X226433Y-100109D01*
X226620Y-100275D01*
X226780Y-100525D01*
X226887Y-100817D01*
X226940Y-101150D01*
Y-101484D01*
X226887Y-101817D01*
X226780Y-102109D01*
X226620Y-102359D01*
X226433Y-102525D01*
X226220Y-102567D01*
G01X227860Y-102234D02*
X228073Y-102442D01*
X228313Y-102567D01*
X228527D01*
X228740Y-102442D01*
X228900Y-102234D01*
X228980Y-101942D01*
X228927Y-101650D01*
X228793Y-101400D01*
X228553Y-101234D01*
X228233Y-101150D01*
X228047Y-100984D01*
X227967Y-100692D01*
X228020Y-100400D01*
X228153Y-100192D01*
X228340Y-100067D01*
X228527D01*
X228713Y-100150D01*
X228873Y-100359D01*
G01X230060Y-102234D02*
X230273Y-102442D01*
X230513Y-102567D01*
X230727D01*
X230940Y-102442D01*
X231100Y-102234D01*
X231180Y-101942D01*
X231127Y-101650D01*
X230993Y-101400D01*
X230753Y-101234D01*
X230433Y-101150D01*
X230247Y-100984D01*
X230167Y-100692D01*
X230220Y-100400D01*
X230353Y-100192D01*
X230540Y-100067D01*
X230727D01*
X230913Y-100150D01*
X231073Y-100359D01*
G01X234460Y-102234D02*
X234673Y-102442D01*
X234913Y-102567D01*
X235127D01*
X235340Y-102442D01*
X235500Y-102234D01*
X235580Y-101942D01*
X235527Y-101650D01*
X235393Y-101400D01*
X235153Y-101234D01*
X234833Y-101150D01*
X234647Y-100984D01*
X234567Y-100692D01*
X234620Y-100400D01*
X234753Y-100192D01*
X234940Y-100067D01*
X235127D01*
X235313Y-100150D01*
X235473Y-100359D01*
G01X237753Y-102567D02*
X236687D01*
Y-100067D01*
X237753D01*
G01X237327Y-101275D02*
X236687D01*
G01X240007Y-100275D02*
X239847Y-100150D01*
X239660Y-100067D01*
X239447D01*
X239207Y-100192D01*
X239020Y-100400D01*
X238887Y-100650D01*
X238780Y-101067D01*
X238753Y-101442D01*
X238807Y-101817D01*
X238887Y-102067D01*
X239047Y-102317D01*
X239233Y-102484D01*
X239420Y-102567D01*
X239607D01*
X239793Y-102484D01*
X239953Y-102359D01*
X240087Y-102192D01*
G01X241620Y-100067D02*
Y-102567D01*
G01X241007Y-100067D02*
X242233D01*
G01X243500D02*
X244140D01*
G01X243820D02*
Y-102567D01*
G01X243500D02*
X244140D01*
G01X246020D02*
X245807Y-102525D01*
X245620Y-102359D01*
X245460Y-102109D01*
X245353Y-101817D01*
X245300Y-101484D01*
Y-101150D01*
X245353Y-100817D01*
X245460Y-100525D01*
X245620Y-100275D01*
X245807Y-100109D01*
X246020Y-100067D01*
X246233Y-100109D01*
X246420Y-100275D01*
X246580Y-100525D01*
X246687Y-100817D01*
X246740Y-101150D01*
Y-101484D01*
X246687Y-101817D01*
X246580Y-102109D01*
X246420Y-102359D01*
X246233Y-102525D01*
X246020Y-102567D01*
G01X247607D02*
Y-100067D01*
X248833Y-102567D01*
Y-100067D01*
G01X253207Y-100275D02*
X253047Y-100150D01*
X252860Y-100067D01*
X252647D01*
X252407Y-100192D01*
X252220Y-100400D01*
X252087Y-100650D01*
X251980Y-101067D01*
X251953Y-101442D01*
X252007Y-101817D01*
X252087Y-102067D01*
X252247Y-102317D01*
X252433Y-102484D01*
X252620Y-102567D01*
X252807D01*
X252993Y-102484D01*
X253153Y-102359D01*
X253287Y-102192D01*
G01X254260Y-102567D02*
Y-100067D01*
G01X255380D02*
Y-102567D01*
G01Y-101317D02*
X254260D01*
G01X256353Y-102567D02*
X257020Y-100067D01*
X257687Y-102567D01*
G01X257447Y-101692D02*
X256593D01*
G01X258687Y-102567D02*
Y-100067D01*
X259353D01*
X259567Y-100192D01*
X259700Y-100359D01*
X259753Y-100692D01*
X259700Y-101025D01*
X259540Y-101234D01*
X259353Y-101359D01*
X258687D01*
G01X259353D02*
X259753Y-102567D01*
G01X261420Y-100067D02*
Y-102567D01*
G01X260807Y-100067D02*
X262033D01*
G01X204520Y-103400D02*
X206120D01*
G01X206720D02*
X208320D01*
G01X208920D02*
X210520D01*
G01X211120D02*
X212720D01*
G01X213320D02*
X214920D01*
G01X215520D02*
X217120D01*
G01X217720D02*
X219320D01*
G01X219920D02*
X221520D01*
G01X222120D02*
X223720D01*
G01X224320D02*
X225920D01*
G01X226520D02*
X228120D01*
G01X228720D02*
X230320D01*
G01X230920D02*
X232520D01*
G01X233120D02*
X234720D01*
G01X235320D02*
X236920D01*
G01X237520D02*
X239120D01*
G01X239720D02*
X241320D01*
G01X241920D02*
X243520D01*
G01X244120D02*
X245720D01*
G01X246320D02*
X247920D01*
G01X248520D02*
X250120D01*
G01X250720D02*
X252320D01*
G01X252920D02*
X254520D01*
G01X255120D02*
X256720D01*
G01X257320D02*
X258920D01*
G01X259520D02*
X261120D01*
G01X261720D02*
X263320D01*
G01X208620Y-105067D02*
Y-107567D01*
G01X208007Y-105067D02*
X209233D01*
G01X210820Y-107567D02*
X210607Y-107525D01*
X210420Y-107359D01*
X210260Y-107109D01*
X210153Y-106817D01*
X210100Y-106484D01*
Y-106150D01*
X210153Y-105817D01*
X210260Y-105525D01*
X210420Y-105275D01*
X210607Y-105109D01*
X210820Y-105067D01*
X211033Y-105109D01*
X211220Y-105275D01*
X211380Y-105525D01*
X211487Y-105817D01*
X211540Y-106150D01*
Y-106484D01*
X211487Y-106817D01*
X211380Y-107109D01*
X211220Y-107359D01*
X211033Y-107525D01*
X210820Y-107567D01*
G01X213020Y-105067D02*
Y-107567D01*
G01X212407Y-105067D02*
X213633D01*
G01X214553Y-107567D02*
X215220Y-105067D01*
X215887Y-107567D01*
G01X215647Y-106692D02*
X214793D01*
G01X216887Y-105067D02*
Y-107567D01*
X217953D01*
G01X221820Y-105067D02*
Y-107567D01*
G01X221207Y-105067D02*
X222433D01*
G01X223460Y-107567D02*
Y-105067D01*
G01X224580D02*
Y-107567D01*
G01Y-106317D02*
X223460D01*
G01X225900Y-105067D02*
X226540D01*
G01X226220D02*
Y-107567D01*
G01X225900D02*
X226540D01*
G01X229007Y-105275D02*
X228847Y-105150D01*
X228660Y-105067D01*
X228447D01*
X228207Y-105192D01*
X228020Y-105400D01*
X227887Y-105650D01*
X227780Y-106067D01*
X227753Y-106442D01*
X227807Y-106817D01*
X227887Y-107067D01*
X228047Y-107317D01*
X228233Y-107484D01*
X228420Y-107567D01*
X228607D01*
X228793Y-107484D01*
X228953Y-107359D01*
X229087Y-107192D01*
G01X230033Y-107567D02*
Y-105067D01*
G01X231047D02*
X230033Y-106609D01*
G01X231207Y-107567D02*
X230487Y-105900D01*
G01X232207Y-107567D02*
Y-105067D01*
X233433Y-107567D01*
Y-105067D01*
G01X235553Y-107567D02*
X234487D01*
Y-105067D01*
X235553D01*
G01X235127Y-106275D02*
X234487D01*
G01X236660Y-107234D02*
X236873Y-107442D01*
X237113Y-107567D01*
X237327D01*
X237540Y-107442D01*
X237700Y-107234D01*
X237780Y-106942D01*
X237727Y-106650D01*
X237593Y-106400D01*
X237353Y-106234D01*
X237033Y-106150D01*
X236847Y-105984D01*
X236767Y-105692D01*
X236820Y-105400D01*
X236953Y-105192D01*
X237140Y-105067D01*
X237327D01*
X237513Y-105150D01*
X237673Y-105359D01*
G01X238860Y-107234D02*
X239073Y-107442D01*
X239313Y-107567D01*
X239527D01*
X239740Y-107442D01*
X239900Y-107234D01*
X239980Y-106942D01*
X239927Y-106650D01*
X239793Y-106400D01*
X239553Y-106234D01*
X239233Y-106150D01*
X239047Y-105984D01*
X238967Y-105692D01*
X239020Y-105400D01*
X239153Y-105192D01*
X239340Y-105067D01*
X239527D01*
X239713Y-105150D01*
X239873Y-105359D01*
G01X243313Y-105484D02*
X243473Y-105234D01*
X243660Y-105109D01*
X243873Y-105067D01*
X244140Y-105150D01*
X244327Y-105359D01*
X244380Y-105609D01*
X244353Y-105859D01*
X244247Y-106067D01*
X243713Y-106484D01*
X243473Y-106775D01*
X243313Y-107192D01*
X243260Y-107567D01*
X244380D01*
G01X246020D02*
X246207Y-107525D01*
X246420Y-107400D01*
X246553Y-107192D01*
X246607Y-106900D01*
X246553Y-106609D01*
X246393Y-106359D01*
X246153Y-106234D01*
X245887D01*
X245727Y-106150D01*
X245593Y-105942D01*
X245540Y-105650D01*
X245620Y-105359D01*
X245807Y-105150D01*
X246020Y-105067D01*
X246233Y-105150D01*
X246420Y-105359D01*
X246500Y-105650D01*
X246447Y-105942D01*
X246313Y-106150D01*
X246153Y-106234D01*
X245887D01*
X245647Y-106359D01*
X245487Y-106609D01*
X245433Y-106900D01*
X245487Y-107192D01*
X245620Y-107400D01*
X245833Y-107525D01*
X246020Y-107567D01*
G01X248220Y-107650D02*
X248167Y-107609D01*
Y-107525D01*
X248220Y-107484D01*
X248273Y-107525D01*
Y-107609D01*
X248220Y-107650D01*
G01X250420Y-107567D02*
X250607Y-107525D01*
X250820Y-107400D01*
X250953Y-107192D01*
X251007Y-106900D01*
X250953Y-106609D01*
X250793Y-106359D01*
X250553Y-106234D01*
X250287D01*
X250127Y-106150D01*
X249993Y-105942D01*
X249940Y-105650D01*
X250020Y-105359D01*
X250207Y-105150D01*
X250420Y-105067D01*
X250633Y-105150D01*
X250820Y-105359D01*
X250900Y-105650D01*
X250847Y-105942D01*
X250713Y-106150D01*
X250553Y-106234D01*
X250287D01*
X250047Y-106359D01*
X249887Y-106609D01*
X249833Y-106900D01*
X249887Y-107192D01*
X250020Y-107400D01*
X250233Y-107525D01*
X250420Y-107567D01*
G01X254127D02*
Y-105067D01*
X254820Y-107150D01*
X255513Y-105067D01*
Y-107567D01*
G01X256700Y-105067D02*
X257340D01*
G01X257020D02*
Y-107567D01*
G01X256700D02*
X257340D01*
G01X258687Y-105067D02*
Y-107567D01*
X259753D01*
G01X203920Y-85121D02*
Y-29921D01*
X263920D01*
Y-85121D01*
X203920D01*
G01Y-21641D02*
Y33559D01*
X263920D01*
Y-21641D01*
X203920D01*
G01Y41839D02*
Y97039D01*
X263920D01*
Y41839D01*
X203920D01*
G01X231420Y108619D02*
X228920D01*
X229420Y108299D01*
G01X231420D02*
Y108939D01*
G01X230587Y110472D02*
Y111166D01*
G01X231420Y113339D02*
X228920D01*
X230712Y112352D01*
Y113686D01*
G01X270733Y-96817D02*
X271907Y-94984D01*
G01X271320Y-94651D02*
Y-97151D01*
G01X271907Y-96817D02*
X270733Y-94984D01*
G01X270520Y-95901D02*
X272120D01*
G01X277360Y-96401D02*
X277573Y-96609D01*
X277813Y-96734D01*
X278027D01*
X278240Y-96609D01*
X278400Y-96401D01*
X278480Y-96109D01*
X278427Y-95817D01*
X278293Y-95567D01*
X278053Y-95401D01*
X277733Y-95317D01*
X277547Y-95151D01*
X277467Y-94859D01*
X277520Y-94567D01*
X277653Y-94359D01*
X277840Y-94234D01*
X278027D01*
X278213Y-94317D01*
X278373Y-94526D01*
G01X279533Y-94234D02*
Y-96026D01*
X279640Y-96401D01*
X279853Y-96651D01*
X280120Y-96734D01*
X280387Y-96651D01*
X280600Y-96401D01*
X280707Y-96026D01*
Y-94234D01*
G01X281787Y-96734D02*
Y-94234D01*
X282453D01*
X282667Y-94359D01*
X282800Y-94526D01*
X282853Y-94859D01*
X282800Y-95192D01*
X282640Y-95401D01*
X282453Y-95526D01*
X281787D01*
G01X282453D02*
X282853Y-96734D01*
G01X284013D02*
Y-94234D01*
X285027D01*
G01X284653Y-95442D02*
X284013D01*
G01X286053Y-96734D02*
X286720Y-94234D01*
X287387Y-96734D01*
G01X287147Y-95859D02*
X286293D01*
G01X289507Y-94442D02*
X289347Y-94317D01*
X289160Y-94234D01*
X288947D01*
X288707Y-94359D01*
X288520Y-94567D01*
X288387Y-94817D01*
X288280Y-95234D01*
X288253Y-95609D01*
X288307Y-95984D01*
X288387Y-96234D01*
X288547Y-96484D01*
X288733Y-96651D01*
X288920Y-96734D01*
X289107D01*
X289293Y-96651D01*
X289453Y-96526D01*
X289587Y-96359D01*
G01X291653Y-96734D02*
X290587D01*
Y-94234D01*
X291653D01*
G01X291227Y-95442D02*
X290587D01*
G01X295173Y-95901D02*
X295867D01*
G01X299253Y-96734D02*
X299920Y-94234D01*
X300587Y-96734D01*
G01X300347Y-95859D02*
X299493D01*
G01X301800Y-94234D02*
X302440D01*
G01X302120D02*
Y-96734D01*
G01X301800D02*
X302440D01*
G01X303787D02*
Y-94234D01*
X304453D01*
X304667Y-94359D01*
X304800Y-94526D01*
X304853Y-94859D01*
X304800Y-95192D01*
X304640Y-95401D01*
X304453Y-95526D01*
X303787D01*
G01X304453D02*
X304853Y-96734D01*
G01X308720Y-94234D02*
X308507Y-94317D01*
X308347Y-94526D01*
X308240Y-94776D01*
X308160Y-95109D01*
X308133Y-95484D01*
X308160Y-95859D01*
X308240Y-96192D01*
X308347Y-96442D01*
X308507Y-96651D01*
X308720Y-96734D01*
X308933Y-96651D01*
X309093Y-96442D01*
X309200Y-96192D01*
X309280Y-95859D01*
X309307Y-95484D01*
X309280Y-95109D01*
X309200Y-94776D01*
X309093Y-94526D01*
X308933Y-94317D01*
X308720Y-94234D01*
G01X312427Y-96734D02*
Y-94234D01*
X313120Y-96317D01*
X313813Y-94234D01*
Y-96734D01*
G01X315000Y-94234D02*
X315640D01*
G01X315320D02*
Y-96734D01*
G01X315000D02*
X315640D01*
G01X316987Y-94234D02*
Y-96734D01*
X318053D01*
G01X266387Y-86761D02*
Y-89261D01*
X267453D01*
G01X269440D02*
Y-86761D01*
X268453Y-88553D01*
X269787D01*
G01X271320Y-89344D02*
X271267Y-89303D01*
Y-89219D01*
X271320Y-89178D01*
X271373Y-89219D01*
Y-89303D01*
X271320Y-89344D01*
G01Y-88219D02*
X271267Y-88178D01*
Y-88094D01*
X271320Y-88053D01*
X271373Y-88094D01*
Y-88178D01*
X271320Y-88219D01*
G01X275933Y-87928D02*
X276040Y-87803D01*
X276120Y-87594D01*
X276173Y-87303D01*
X276120Y-87053D01*
X276013Y-86886D01*
X275827Y-86761D01*
X275107D01*
Y-89261D01*
X275987D01*
X276173Y-89094D01*
X276280Y-88844D01*
X276333Y-88553D01*
X276280Y-88261D01*
X276120Y-88011D01*
X275933Y-87928D01*
X275107D01*
G01X277920Y-89261D02*
X277707Y-89219D01*
X277520Y-89053D01*
X277360Y-88803D01*
X277253Y-88511D01*
X277200Y-88178D01*
Y-87844D01*
X277253Y-87511D01*
X277360Y-87219D01*
X277520Y-86969D01*
X277707Y-86803D01*
X277920Y-86761D01*
X278133Y-86803D01*
X278320Y-86969D01*
X278480Y-87219D01*
X278587Y-87511D01*
X278640Y-87844D01*
Y-88178D01*
X278587Y-88511D01*
X278480Y-88803D01*
X278320Y-89053D01*
X278133Y-89219D01*
X277920Y-89261D01*
G01X280120Y-86761D02*
Y-89261D01*
G01X279507Y-86761D02*
X280733D01*
G01X282320D02*
Y-89261D01*
G01X281707Y-86761D02*
X282933D01*
G01X284520Y-89261D02*
X284307Y-89219D01*
X284120Y-89053D01*
X283960Y-88803D01*
X283853Y-88511D01*
X283800Y-88178D01*
Y-87844D01*
X283853Y-87511D01*
X283960Y-87219D01*
X284120Y-86969D01*
X284307Y-86803D01*
X284520Y-86761D01*
X284733Y-86803D01*
X284920Y-86969D01*
X285080Y-87219D01*
X285187Y-87511D01*
X285240Y-87844D01*
Y-88178D01*
X285187Y-88511D01*
X285080Y-88803D01*
X284920Y-89053D01*
X284733Y-89219D01*
X284520Y-89261D01*
G01X286027D02*
Y-86761D01*
X286720Y-88844D01*
X287413Y-86761D01*
Y-89261D01*
G01X291707Y-86969D02*
X291547Y-86844D01*
X291360Y-86761D01*
X291147D01*
X290907Y-86886D01*
X290720Y-87094D01*
X290587Y-87344D01*
X290480Y-87761D01*
X290453Y-88136D01*
X290507Y-88511D01*
X290587Y-88761D01*
X290747Y-89011D01*
X290933Y-89178D01*
X291120Y-89261D01*
X291307D01*
X291493Y-89178D01*
X291653Y-89053D01*
X291787Y-88886D01*
G01X293320Y-89261D02*
X293107Y-89219D01*
X292920Y-89053D01*
X292760Y-88803D01*
X292653Y-88511D01*
X292600Y-88178D01*
Y-87844D01*
X292653Y-87511D01*
X292760Y-87219D01*
X292920Y-86969D01*
X293107Y-86803D01*
X293320Y-86761D01*
X293533Y-86803D01*
X293720Y-86969D01*
X293880Y-87219D01*
X293987Y-87511D01*
X294040Y-87844D01*
Y-88178D01*
X293987Y-88511D01*
X293880Y-88803D01*
X293720Y-89053D01*
X293533Y-89219D01*
X293320Y-89261D01*
G01X294907D02*
Y-86761D01*
X296133Y-89261D01*
Y-86761D01*
G01X297133Y-89261D02*
Y-86761D01*
X297667D01*
X297880Y-86886D01*
X298040Y-87053D01*
X298173Y-87303D01*
X298280Y-87594D01*
X298307Y-88011D01*
X298280Y-88428D01*
X298173Y-88719D01*
X298040Y-88969D01*
X297880Y-89136D01*
X297667Y-89261D01*
X297133D01*
G01X299333Y-86761D02*
Y-88553D01*
X299440Y-88928D01*
X299653Y-89178D01*
X299920Y-89261D01*
X300187Y-89178D01*
X300400Y-88928D01*
X300507Y-88553D01*
Y-86761D01*
G01X302707Y-86969D02*
X302547Y-86844D01*
X302360Y-86761D01*
X302147D01*
X301907Y-86886D01*
X301720Y-87094D01*
X301587Y-87344D01*
X301480Y-87761D01*
X301453Y-88136D01*
X301507Y-88511D01*
X301587Y-88761D01*
X301747Y-89011D01*
X301933Y-89178D01*
X302120Y-89261D01*
X302307D01*
X302493Y-89178D01*
X302653Y-89053D01*
X302787Y-88886D01*
G01X304320Y-86761D02*
Y-89261D01*
G01X303707Y-86761D02*
X304933D01*
G01X306520Y-89261D02*
X306307Y-89219D01*
X306120Y-89053D01*
X305960Y-88803D01*
X305853Y-88511D01*
X305800Y-88178D01*
Y-87844D01*
X305853Y-87511D01*
X305960Y-87219D01*
X306120Y-86969D01*
X306307Y-86803D01*
X306520Y-86761D01*
X306733Y-86803D01*
X306920Y-86969D01*
X307080Y-87219D01*
X307187Y-87511D01*
X307240Y-87844D01*
Y-88178D01*
X307187Y-88511D01*
X307080Y-88803D01*
X306920Y-89053D01*
X306733Y-89219D01*
X306520Y-89261D01*
G01X308187D02*
Y-86761D01*
X308853D01*
X309067Y-86886D01*
X309200Y-87053D01*
X309253Y-87386D01*
X309200Y-87719D01*
X309040Y-87928D01*
X308853Y-88053D01*
X308187D01*
G01X308853D02*
X309253Y-89261D01*
G01X312773Y-88428D02*
X313467D01*
G01X318107Y-86969D02*
X317947Y-86844D01*
X317760Y-86761D01*
X317547D01*
X317307Y-86886D01*
X317120Y-87094D01*
X316987Y-87344D01*
X316880Y-87761D01*
X316853Y-88136D01*
X316907Y-88511D01*
X316987Y-88761D01*
X317147Y-89011D01*
X317333Y-89178D01*
X317520Y-89261D01*
X317707D01*
X317893Y-89178D01*
X318053Y-89053D01*
X318187Y-88886D01*
G01X319720Y-89261D02*
X319507Y-89219D01*
X319320Y-89053D01*
X319160Y-88803D01*
X319053Y-88511D01*
X319000Y-88178D01*
Y-87844D01*
X319053Y-87511D01*
X319160Y-87219D01*
X319320Y-86969D01*
X319507Y-86803D01*
X319720Y-86761D01*
X319933Y-86803D01*
X320120Y-86969D01*
X320280Y-87219D01*
X320387Y-87511D01*
X320440Y-87844D01*
Y-88178D01*
X320387Y-88511D01*
X320280Y-88803D01*
X320120Y-89053D01*
X319933Y-89219D01*
X319720Y-89261D01*
G01X321387D02*
Y-86761D01*
X322027D01*
X322240Y-86886D01*
X322400Y-87178D01*
X322453Y-87511D01*
X322400Y-87844D01*
X322267Y-88094D01*
X322027Y-88219D01*
X321387D01*
G01X323587Y-89261D02*
Y-86761D01*
X324227D01*
X324440Y-86886D01*
X324600Y-87178D01*
X324653Y-87511D01*
X324600Y-87844D01*
X324467Y-88094D01*
X324227Y-88219D01*
X323587D01*
G01X326853Y-89261D02*
X325787D01*
Y-86761D01*
X326853D01*
G01X326427Y-87969D02*
X325787D01*
G01X327987Y-89261D02*
Y-86761D01*
X328653D01*
X328867Y-86886D01*
X329000Y-87053D01*
X329053Y-87386D01*
X329000Y-87719D01*
X328840Y-87928D01*
X328653Y-88053D01*
X327987D01*
G01X328653D02*
X329053Y-89261D01*
G01X332920D02*
Y-86761D01*
X332600Y-87261D01*
G01Y-89261D02*
X333240D01*
G01X335120Y-89344D02*
X335067Y-89303D01*
Y-89219D01*
X335120Y-89178D01*
X335173Y-89219D01*
Y-89303D01*
X335120Y-89344D01*
G01X336813Y-87178D02*
X336973Y-86928D01*
X337160Y-86803D01*
X337373Y-86761D01*
X337640Y-86844D01*
X337827Y-87053D01*
X337880Y-87303D01*
X337853Y-87553D01*
X337747Y-87761D01*
X337213Y-88178D01*
X336973Y-88469D01*
X336813Y-88886D01*
X336760Y-89261D01*
X337880D01*
G01X341027D02*
Y-86761D01*
X341720Y-88844D01*
X342413Y-86761D01*
Y-89261D01*
G01X343600Y-86761D02*
X344240D01*
G01X343920D02*
Y-89261D01*
G01X343600D02*
X344240D01*
G01X345587Y-86761D02*
Y-89261D01*
X346653D01*
G01X270733Y-57604D02*
X271907Y-55771D01*
G01X271320Y-55438D02*
Y-57938D01*
G01X271907Y-57604D02*
X270733Y-55771D01*
G01X270520Y-56688D02*
X272120D01*
G01X277333Y-57521D02*
Y-55021D01*
X277867D01*
X278080Y-55146D01*
X278240Y-55313D01*
X278373Y-55563D01*
X278480Y-55854D01*
X278507Y-56271D01*
X278480Y-56688D01*
X278373Y-56979D01*
X278240Y-57229D01*
X278080Y-57396D01*
X277867Y-57521D01*
X277333D01*
G01X279800Y-55021D02*
X280440D01*
G01X280120D02*
Y-57521D01*
G01X279800D02*
X280440D01*
G01X282853D02*
X281787D01*
Y-55021D01*
X282853D01*
G01X282427Y-56229D02*
X281787D01*
G01X283987Y-55021D02*
Y-57521D01*
X285053D01*
G01X287253D02*
X286187D01*
Y-55021D01*
X287253D01*
G01X286827Y-56229D02*
X286187D01*
G01X289507Y-55229D02*
X289347Y-55104D01*
X289160Y-55021D01*
X288947D01*
X288707Y-55146D01*
X288520Y-55354D01*
X288387Y-55604D01*
X288280Y-56021D01*
X288253Y-56396D01*
X288307Y-56771D01*
X288387Y-57021D01*
X288547Y-57271D01*
X288733Y-57438D01*
X288920Y-57521D01*
X289107D01*
X289293Y-57438D01*
X289453Y-57313D01*
X289587Y-57146D01*
G01X291120Y-55021D02*
Y-57521D01*
G01X290507Y-55021D02*
X291733D01*
G01X292787Y-57521D02*
Y-55021D01*
X293453D01*
X293667Y-55146D01*
X293800Y-55313D01*
X293853Y-55646D01*
X293800Y-55979D01*
X293640Y-56188D01*
X293453Y-56313D01*
X292787D01*
G01X293453D02*
X293853Y-57521D01*
G01X295200Y-55021D02*
X295840D01*
G01X295520D02*
Y-57521D01*
G01X295200D02*
X295840D01*
G01X298307Y-55229D02*
X298147Y-55104D01*
X297960Y-55021D01*
X297747D01*
X297507Y-55146D01*
X297320Y-55354D01*
X297187Y-55604D01*
X297080Y-56021D01*
X297053Y-56396D01*
X297107Y-56771D01*
X297187Y-57021D01*
X297347Y-57271D01*
X297533Y-57438D01*
X297720Y-57521D01*
X297907D01*
X298093Y-57438D01*
X298253Y-57313D01*
X298387Y-57146D01*
G01X301773Y-56688D02*
X302467D01*
G01X306013Y-57521D02*
Y-55021D01*
X307027D01*
G01X306653Y-56229D02*
X306013D01*
G01X308187Y-57521D02*
Y-55021D01*
X308853D01*
X309067Y-55146D01*
X309200Y-55313D01*
X309253Y-55646D01*
X309200Y-55979D01*
X309040Y-56188D01*
X308853Y-56313D01*
X308187D01*
G01X308853D02*
X309253Y-57521D01*
G01X310573Y-56688D02*
X311267D01*
G01X313440Y-57521D02*
Y-55021D01*
X312453Y-56813D01*
X313787D01*
G01X317520Y-57521D02*
X317707Y-57479D01*
X317920Y-57354D01*
X318053Y-57146D01*
X318107Y-56854D01*
X318053Y-56563D01*
X317893Y-56313D01*
X317653Y-56188D01*
X317387D01*
X317227Y-56104D01*
X317093Y-55896D01*
X317040Y-55604D01*
X317120Y-55313D01*
X317307Y-55104D01*
X317520Y-55021D01*
X317733Y-55104D01*
X317920Y-55313D01*
X318000Y-55604D01*
X317947Y-55896D01*
X317813Y-56104D01*
X317653Y-56188D01*
X317387D01*
X317147Y-56313D01*
X316987Y-56563D01*
X316933Y-56854D01*
X316987Y-57146D01*
X317120Y-57354D01*
X317333Y-57479D01*
X317520Y-57521D01*
G01X321227D02*
Y-55021D01*
X321920Y-57104D01*
X322613Y-55021D01*
Y-57521D01*
G01X323800Y-55021D02*
X324440D01*
G01X324120D02*
Y-57521D01*
G01X323800D02*
X324440D01*
G01X325787Y-55021D02*
Y-57521D01*
X326853D01*
G01X266387Y-23281D02*
Y-25781D01*
X267453D01*
G01X268533Y-25281D02*
X268693Y-25573D01*
X268907Y-25739D01*
X269147Y-25781D01*
X269360Y-25739D01*
X269573Y-25531D01*
X269707Y-25281D01*
X269733Y-25031D01*
X269680Y-24739D01*
X269493Y-24531D01*
X269307Y-24448D01*
X269067D01*
G01X269307D02*
X269467Y-24323D01*
X269600Y-24114D01*
X269653Y-23864D01*
X269600Y-23614D01*
X269467Y-23406D01*
X269227Y-23281D01*
X268987Y-23323D01*
X268747Y-23489D01*
G01X271320Y-25864D02*
X271267Y-25823D01*
Y-25739D01*
X271320Y-25698D01*
X271373Y-25739D01*
Y-25823D01*
X271320Y-25864D01*
G01Y-24739D02*
X271267Y-24698D01*
Y-24614D01*
X271320Y-24573D01*
X271373Y-24614D01*
Y-24698D01*
X271320Y-24739D01*
G01X275053Y-23281D02*
X275720Y-25781D01*
X276387Y-23281D01*
G01X278507Y-23489D02*
X278347Y-23364D01*
X278160Y-23281D01*
X277947D01*
X277707Y-23406D01*
X277520Y-23614D01*
X277387Y-23864D01*
X277280Y-24281D01*
X277253Y-24656D01*
X277307Y-25031D01*
X277387Y-25281D01*
X277547Y-25531D01*
X277733Y-25698D01*
X277920Y-25781D01*
X278107D01*
X278293Y-25698D01*
X278453Y-25573D01*
X278587Y-25406D01*
G01X280707Y-23489D02*
X280547Y-23364D01*
X280360Y-23281D01*
X280147D01*
X279907Y-23406D01*
X279720Y-23614D01*
X279587Y-23864D01*
X279480Y-24281D01*
X279453Y-24656D01*
X279507Y-25031D01*
X279587Y-25281D01*
X279747Y-25531D01*
X279933Y-25698D01*
X280120Y-25781D01*
X280307D01*
X280493Y-25698D01*
X280653Y-25573D01*
X280787Y-25406D01*
G01X283987Y-25781D02*
Y-23281D01*
X284627D01*
X284840Y-23406D01*
X285000Y-23698D01*
X285053Y-24031D01*
X285000Y-24364D01*
X284867Y-24614D01*
X284627Y-24739D01*
X283987D01*
G01X286187Y-23281D02*
Y-25781D01*
X287253D01*
G01X288253D02*
X288920Y-23281D01*
X289587Y-25781D01*
G01X289347Y-24906D02*
X288493D01*
G01X290507Y-25781D02*
Y-23281D01*
X291733Y-25781D01*
Y-23281D01*
G01X293853Y-25781D02*
X292787D01*
Y-23281D01*
X293853D01*
G01X293427Y-24489D02*
X292787D01*
G01X297373Y-24948D02*
X298067D01*
G01X302707Y-23489D02*
X302547Y-23364D01*
X302360Y-23281D01*
X302147D01*
X301907Y-23406D01*
X301720Y-23614D01*
X301587Y-23864D01*
X301480Y-24281D01*
X301453Y-24656D01*
X301507Y-25031D01*
X301587Y-25281D01*
X301747Y-25531D01*
X301933Y-25698D01*
X302120Y-25781D01*
X302307D01*
X302493Y-25698D01*
X302653Y-25573D01*
X302787Y-25406D01*
G01X304320Y-25781D02*
X304107Y-25739D01*
X303920Y-25573D01*
X303760Y-25323D01*
X303653Y-25031D01*
X303600Y-24698D01*
Y-24364D01*
X303653Y-24031D01*
X303760Y-23739D01*
X303920Y-23489D01*
X304107Y-23323D01*
X304320Y-23281D01*
X304533Y-23323D01*
X304720Y-23489D01*
X304880Y-23739D01*
X304987Y-24031D01*
X305040Y-24364D01*
Y-24698D01*
X304987Y-25031D01*
X304880Y-25323D01*
X304720Y-25573D01*
X304533Y-25739D01*
X304320Y-25781D01*
G01X305987D02*
Y-23281D01*
X306627D01*
X306840Y-23406D01*
X307000Y-23698D01*
X307053Y-24031D01*
X307000Y-24364D01*
X306867Y-24614D01*
X306627Y-24739D01*
X305987D01*
G01X308187Y-25781D02*
Y-23281D01*
X308827D01*
X309040Y-23406D01*
X309200Y-23698D01*
X309253Y-24031D01*
X309200Y-24364D01*
X309067Y-24614D01*
X308827Y-24739D01*
X308187D01*
G01X311453Y-25781D02*
X310387D01*
Y-23281D01*
X311453D01*
G01X311027Y-24489D02*
X310387D01*
G01X312587Y-25781D02*
Y-23281D01*
X313253D01*
X313467Y-23406D01*
X313600Y-23573D01*
X313653Y-23906D01*
X313600Y-24239D01*
X313440Y-24448D01*
X313253Y-24573D01*
X312587D01*
G01X313253D02*
X313653Y-25781D01*
G01X317520D02*
Y-23281D01*
X317200Y-23781D01*
G01Y-25781D02*
X317840D01*
G01X319720Y-25864D02*
X319667Y-25823D01*
Y-25739D01*
X319720Y-25698D01*
X319773Y-25739D01*
Y-25823D01*
X319720Y-25864D01*
G01X321413Y-23698D02*
X321573Y-23448D01*
X321760Y-23323D01*
X321973Y-23281D01*
X322240Y-23364D01*
X322427Y-23573D01*
X322480Y-23823D01*
X322453Y-24073D01*
X322347Y-24281D01*
X321813Y-24698D01*
X321573Y-24989D01*
X321413Y-25406D01*
X321360Y-25781D01*
X322480D01*
G01X325627D02*
Y-23281D01*
X326320Y-25364D01*
X327013Y-23281D01*
Y-25781D01*
G01X328200Y-23281D02*
X328840D01*
G01X328520D02*
Y-25781D01*
G01X328200D02*
X328840D01*
G01X330187Y-23281D02*
Y-25781D01*
X331253D01*
G01X270733Y5876D02*
X271907Y7709D01*
G01X271320Y8042D02*
Y5542D01*
G01X271907Y5876D02*
X270733Y7709D01*
G01X270520Y6792D02*
X272120D01*
G01X277333Y5959D02*
Y8459D01*
X277867D01*
X278080Y8334D01*
X278240Y8167D01*
X278373Y7917D01*
X278480Y7626D01*
X278507Y7209D01*
X278480Y6792D01*
X278373Y6501D01*
X278240Y6251D01*
X278080Y6084D01*
X277867Y5959D01*
X277333D01*
G01X279800Y8459D02*
X280440D01*
G01X280120D02*
Y5959D01*
G01X279800D02*
X280440D01*
G01X282853D02*
X281787D01*
Y8459D01*
X282853D01*
G01X282427Y7251D02*
X281787D01*
G01X283987Y8459D02*
Y5959D01*
X285053D01*
G01X287253D02*
X286187D01*
Y8459D01*
X287253D01*
G01X286827Y7251D02*
X286187D01*
G01X289507Y8251D02*
X289347Y8376D01*
X289160Y8459D01*
X288947D01*
X288707Y8334D01*
X288520Y8126D01*
X288387Y7876D01*
X288280Y7459D01*
X288253Y7084D01*
X288307Y6709D01*
X288387Y6459D01*
X288547Y6209D01*
X288733Y6042D01*
X288920Y5959D01*
X289107D01*
X289293Y6042D01*
X289453Y6167D01*
X289587Y6334D01*
G01X291120Y8459D02*
Y5959D01*
G01X290507Y8459D02*
X291733D01*
G01X292787Y5959D02*
Y8459D01*
X293453D01*
X293667Y8334D01*
X293800Y8167D01*
X293853Y7834D01*
X293800Y7501D01*
X293640Y7292D01*
X293453Y7167D01*
X292787D01*
G01X293453D02*
X293853Y5959D01*
G01X295200Y8459D02*
X295840D01*
G01X295520D02*
Y5959D01*
G01X295200D02*
X295840D01*
G01X298307Y8251D02*
X298147Y8376D01*
X297960Y8459D01*
X297747D01*
X297507Y8334D01*
X297320Y8126D01*
X297187Y7876D01*
X297080Y7459D01*
X297053Y7084D01*
X297107Y6709D01*
X297187Y6459D01*
X297347Y6209D01*
X297533Y6042D01*
X297720Y5959D01*
X297907D01*
X298093Y6042D01*
X298253Y6167D01*
X298387Y6334D01*
G01X301773Y6792D02*
X302467D01*
G01X306013Y5959D02*
Y8459D01*
X307027D01*
G01X306653Y7251D02*
X306013D01*
G01X308187Y5959D02*
Y8459D01*
X308853D01*
X309067Y8334D01*
X309200Y8167D01*
X309253Y7834D01*
X309200Y7501D01*
X309040Y7292D01*
X308853Y7167D01*
X308187D01*
G01X308853D02*
X309253Y5959D01*
G01X310573Y6792D02*
X311267D01*
G01X313440Y5959D02*
Y8459D01*
X312453Y6667D01*
X313787D01*
G01X317520Y5959D02*
X317707Y6001D01*
X317920Y6126D01*
X318053Y6334D01*
X318107Y6626D01*
X318053Y6917D01*
X317893Y7167D01*
X317653Y7292D01*
X317387D01*
X317227Y7376D01*
X317093Y7584D01*
X317040Y7876D01*
X317120Y8167D01*
X317307Y8376D01*
X317520Y8459D01*
X317733Y8376D01*
X317920Y8167D01*
X318000Y7876D01*
X317947Y7584D01*
X317813Y7376D01*
X317653Y7292D01*
X317387D01*
X317147Y7167D01*
X316987Y6917D01*
X316933Y6626D01*
X316987Y6334D01*
X317120Y6126D01*
X317333Y6001D01*
X317520Y5959D01*
G01X321227D02*
Y8459D01*
X321920Y6376D01*
X322613Y8459D01*
Y5959D01*
G01X323800Y8459D02*
X324440D01*
G01X324120D02*
Y5959D01*
G01X323800D02*
X324440D01*
G01X325787Y8459D02*
Y5959D01*
X326853D01*
G01X266387Y40199D02*
Y37699D01*
X267453D01*
G01X268613Y39782D02*
X268773Y40032D01*
X268960Y40157D01*
X269173Y40199D01*
X269440Y40116D01*
X269627Y39907D01*
X269680Y39657D01*
X269653Y39407D01*
X269547Y39199D01*
X269013Y38782D01*
X268773Y38491D01*
X268613Y38074D01*
X268560Y37699D01*
X269680D01*
G01X271320Y37616D02*
X271267Y37657D01*
Y37741D01*
X271320Y37782D01*
X271373Y37741D01*
Y37657D01*
X271320Y37616D01*
G01Y38741D02*
X271267Y38782D01*
Y38866D01*
X271320Y38907D01*
X271373Y38866D01*
Y38782D01*
X271320Y38741D01*
G01X275880Y38949D02*
X276413D01*
Y38199D01*
X276253Y37949D01*
X276067Y37782D01*
X275800Y37699D01*
X275533Y37782D01*
X275347Y37949D01*
X275187Y38199D01*
X275080Y38491D01*
X275027Y38824D01*
Y39116D01*
X275080Y39366D01*
X275187Y39657D01*
X275347Y39907D01*
X275507Y40074D01*
X275720Y40199D01*
X275907D01*
X276120Y40116D01*
X276280Y39949D01*
G01X277307Y37699D02*
Y40199D01*
X278533Y37699D01*
Y40199D01*
G01X279533Y37699D02*
Y40199D01*
X280067D01*
X280280Y40074D01*
X280440Y39907D01*
X280573Y39657D01*
X280680Y39366D01*
X280707Y38949D01*
X280680Y38532D01*
X280573Y38241D01*
X280440Y37991D01*
X280280Y37824D01*
X280067Y37699D01*
X279533D01*
G01X283987D02*
Y40199D01*
X284627D01*
X284840Y40074D01*
X285000Y39782D01*
X285053Y39449D01*
X285000Y39116D01*
X284867Y38866D01*
X284627Y38741D01*
X283987D01*
G01X286187Y40199D02*
Y37699D01*
X287253D01*
G01X288253D02*
X288920Y40199D01*
X289587Y37699D01*
G01X289347Y38574D02*
X288493D01*
G01X290507Y37699D02*
Y40199D01*
X291733Y37699D01*
Y40199D01*
G01X293853Y37699D02*
X292787D01*
Y40199D01*
X293853D01*
G01X293427Y38991D02*
X292787D01*
G01X297373Y38532D02*
X298067D01*
G01X302707Y39991D02*
X302547Y40116D01*
X302360Y40199D01*
X302147D01*
X301907Y40074D01*
X301720Y39866D01*
X301587Y39616D01*
X301480Y39199D01*
X301453Y38824D01*
X301507Y38449D01*
X301587Y38199D01*
X301747Y37949D01*
X301933Y37782D01*
X302120Y37699D01*
X302307D01*
X302493Y37782D01*
X302653Y37907D01*
X302787Y38074D01*
G01X304320Y37699D02*
X304107Y37741D01*
X303920Y37907D01*
X303760Y38157D01*
X303653Y38449D01*
X303600Y38782D01*
Y39116D01*
X303653Y39449D01*
X303760Y39741D01*
X303920Y39991D01*
X304107Y40157D01*
X304320Y40199D01*
X304533Y40157D01*
X304720Y39991D01*
X304880Y39741D01*
X304987Y39449D01*
X305040Y39116D01*
Y38782D01*
X304987Y38449D01*
X304880Y38157D01*
X304720Y37907D01*
X304533Y37741D01*
X304320Y37699D01*
G01X305987D02*
Y40199D01*
X306627D01*
X306840Y40074D01*
X307000Y39782D01*
X307053Y39449D01*
X307000Y39116D01*
X306867Y38866D01*
X306627Y38741D01*
X305987D01*
G01X308187Y37699D02*
Y40199D01*
X308827D01*
X309040Y40074D01*
X309200Y39782D01*
X309253Y39449D01*
X309200Y39116D01*
X309067Y38866D01*
X308827Y38741D01*
X308187D01*
G01X311453Y37699D02*
X310387D01*
Y40199D01*
X311453D01*
G01X311027Y38991D02*
X310387D01*
G01X312587Y37699D02*
Y40199D01*
X313253D01*
X313467Y40074D01*
X313600Y39907D01*
X313653Y39574D01*
X313600Y39241D01*
X313440Y39032D01*
X313253Y38907D01*
X312587D01*
G01X313253D02*
X313653Y37699D01*
G01X317520D02*
Y40199D01*
X317200Y39699D01*
G01Y37699D02*
X317840D01*
G01X319720Y37616D02*
X319667Y37657D01*
Y37741D01*
X319720Y37782D01*
X319773Y37741D01*
Y37657D01*
X319720Y37616D01*
G01X321413Y39782D02*
X321573Y40032D01*
X321760Y40157D01*
X321973Y40199D01*
X322240Y40116D01*
X322427Y39907D01*
X322480Y39657D01*
X322453Y39407D01*
X322347Y39199D01*
X321813Y38782D01*
X321573Y38491D01*
X321413Y38074D01*
X321360Y37699D01*
X322480D01*
G01X325627D02*
Y40199D01*
X326320Y38116D01*
X327013Y40199D01*
Y37699D01*
G01X328200Y40199D02*
X328840D01*
G01X328520D02*
Y37699D01*
G01X328200D02*
X328840D01*
G01X330187Y40199D02*
Y37699D01*
X331253D01*
G01X270733Y69356D02*
X271907Y71189D01*
G01X271320Y71522D02*
Y69022D01*
G01X271907Y69356D02*
X270733Y71189D01*
G01X270520Y70272D02*
X272120D01*
G01X277333Y69439D02*
Y71939D01*
X277867D01*
X278080Y71814D01*
X278240Y71647D01*
X278373Y71397D01*
X278480Y71106D01*
X278507Y70689D01*
X278480Y70272D01*
X278373Y69981D01*
X278240Y69731D01*
X278080Y69564D01*
X277867Y69439D01*
X277333D01*
G01X279800Y71939D02*
X280440D01*
G01X280120D02*
Y69439D01*
G01X279800D02*
X280440D01*
G01X282853D02*
X281787D01*
Y71939D01*
X282853D01*
G01X282427Y70731D02*
X281787D01*
G01X283987Y71939D02*
Y69439D01*
X285053D01*
G01X287253D02*
X286187D01*
Y71939D01*
X287253D01*
G01X286827Y70731D02*
X286187D01*
G01X289507Y71731D02*
X289347Y71856D01*
X289160Y71939D01*
X288947D01*
X288707Y71814D01*
X288520Y71606D01*
X288387Y71356D01*
X288280Y70939D01*
X288253Y70564D01*
X288307Y70189D01*
X288387Y69939D01*
X288547Y69689D01*
X288733Y69522D01*
X288920Y69439D01*
X289107D01*
X289293Y69522D01*
X289453Y69647D01*
X289587Y69814D01*
G01X291120Y71939D02*
Y69439D01*
G01X290507Y71939D02*
X291733D01*
G01X292787Y69439D02*
Y71939D01*
X293453D01*
X293667Y71814D01*
X293800Y71647D01*
X293853Y71314D01*
X293800Y70981D01*
X293640Y70772D01*
X293453Y70647D01*
X292787D01*
G01X293453D02*
X293853Y69439D01*
G01X295200Y71939D02*
X295840D01*
G01X295520D02*
Y69439D01*
G01X295200D02*
X295840D01*
G01X298307Y71731D02*
X298147Y71856D01*
X297960Y71939D01*
X297747D01*
X297507Y71814D01*
X297320Y71606D01*
X297187Y71356D01*
X297080Y70939D01*
X297053Y70564D01*
X297107Y70189D01*
X297187Y69939D01*
X297347Y69689D01*
X297533Y69522D01*
X297720Y69439D01*
X297907D01*
X298093Y69522D01*
X298253Y69647D01*
X298387Y69814D01*
G01X301773Y70272D02*
X302467D01*
G01X306013Y69439D02*
Y71939D01*
X307027D01*
G01X306653Y70731D02*
X306013D01*
G01X308187Y69439D02*
Y71939D01*
X308853D01*
X309067Y71814D01*
X309200Y71647D01*
X309253Y71314D01*
X309200Y70981D01*
X309040Y70772D01*
X308853Y70647D01*
X308187D01*
G01X308853D02*
X309253Y69439D01*
G01X310573Y70272D02*
X311267D01*
G01X313440Y69439D02*
Y71939D01*
X312453Y70147D01*
X313787D01*
G01X317520Y69439D02*
X317707Y69481D01*
X317920Y69606D01*
X318053Y69814D01*
X318107Y70106D01*
X318053Y70397D01*
X317893Y70647D01*
X317653Y70772D01*
X317387D01*
X317227Y70856D01*
X317093Y71064D01*
X317040Y71356D01*
X317120Y71647D01*
X317307Y71856D01*
X317520Y71939D01*
X317733Y71856D01*
X317920Y71647D01*
X318000Y71356D01*
X317947Y71064D01*
X317813Y70856D01*
X317653Y70772D01*
X317387D01*
X317147Y70647D01*
X316987Y70397D01*
X316933Y70106D01*
X316987Y69814D01*
X317120Y69606D01*
X317333Y69481D01*
X317520Y69439D01*
G01X321227D02*
Y71939D01*
X321920Y69856D01*
X322613Y71939D01*
Y69439D01*
G01X323800Y71939D02*
X324440D01*
G01X324120D02*
Y69439D01*
G01X323800D02*
X324440D01*
G01X325787Y71939D02*
Y69439D01*
X326853D01*
G01X270733Y106069D02*
X271907Y107902D01*
G01X271320Y108235D02*
Y105735D01*
G01X271907Y106069D02*
X270733Y107902D01*
G01X270520Y106985D02*
X272120D01*
G01X277360Y106485D02*
X277573Y106277D01*
X277813Y106152D01*
X278027D01*
X278240Y106277D01*
X278400Y106485D01*
X278480Y106777D01*
X278427Y107069D01*
X278293Y107319D01*
X278053Y107485D01*
X277733Y107569D01*
X277547Y107735D01*
X277467Y108027D01*
X277520Y108319D01*
X277653Y108527D01*
X277840Y108652D01*
X278027D01*
X278213Y108569D01*
X278373Y108360D01*
G01X279533Y108652D02*
Y106860D01*
X279640Y106485D01*
X279853Y106235D01*
X280120Y106152D01*
X280387Y106235D01*
X280600Y106485D01*
X280707Y106860D01*
Y108652D01*
G01X281787Y106152D02*
Y108652D01*
X282453D01*
X282667Y108527D01*
X282800Y108360D01*
X282853Y108027D01*
X282800Y107694D01*
X282640Y107485D01*
X282453Y107360D01*
X281787D01*
G01X282453D02*
X282853Y106152D01*
G01X284013D02*
Y108652D01*
X285027D01*
G01X284653Y107444D02*
X284013D01*
G01X286053Y106152D02*
X286720Y108652D01*
X287387Y106152D01*
G01X287147Y107027D02*
X286293D01*
G01X289507Y108444D02*
X289347Y108569D01*
X289160Y108652D01*
X288947D01*
X288707Y108527D01*
X288520Y108319D01*
X288387Y108069D01*
X288280Y107652D01*
X288253Y107277D01*
X288307Y106902D01*
X288387Y106652D01*
X288547Y106402D01*
X288733Y106235D01*
X288920Y106152D01*
X289107D01*
X289293Y106235D01*
X289453Y106360D01*
X289587Y106527D01*
G01X291653Y106152D02*
X290587D01*
Y108652D01*
X291653D01*
G01X291227Y107444D02*
X290587D01*
G01X295173Y106985D02*
X295867D01*
G01X299253Y106152D02*
X299920Y108652D01*
X300587Y106152D01*
G01X300347Y107027D02*
X299493D01*
G01X301800Y108652D02*
X302440D01*
G01X302120D02*
Y106152D01*
G01X301800D02*
X302440D01*
G01X303787D02*
Y108652D01*
X304453D01*
X304667Y108527D01*
X304800Y108360D01*
X304853Y108027D01*
X304800Y107694D01*
X304640Y107485D01*
X304453Y107360D01*
X303787D01*
G01X304453D02*
X304853Y106152D01*
G01X308720Y108652D02*
X308507Y108569D01*
X308347Y108360D01*
X308240Y108110D01*
X308160Y107777D01*
X308133Y107402D01*
X308160Y107027D01*
X308240Y106694D01*
X308347Y106444D01*
X308507Y106235D01*
X308720Y106152D01*
X308933Y106235D01*
X309093Y106444D01*
X309200Y106694D01*
X309280Y107027D01*
X309307Y107402D01*
X309280Y107777D01*
X309200Y108110D01*
X309093Y108360D01*
X308933Y108569D01*
X308720Y108652D01*
G01X312427Y106152D02*
Y108652D01*
X313120Y106569D01*
X313813Y108652D01*
Y106152D01*
G01X315000Y108652D02*
X315640D01*
G01X315320D02*
Y106152D01*
G01X315000D02*
X315640D01*
G01X316987Y108652D02*
Y106152D01*
X318053D01*
G01X266387Y103679D02*
Y101179D01*
X267453D01*
G01X269120D02*
Y103679D01*
X268800Y103179D01*
G01Y101179D02*
X269440D01*
G01X271320Y101096D02*
X271267Y101137D01*
Y101221D01*
X271320Y101262D01*
X271373Y101221D01*
Y101137D01*
X271320Y101096D01*
G01Y102221D02*
X271267Y102262D01*
Y102346D01*
X271320Y102387D01*
X271373Y102346D01*
Y102262D01*
X271320Y102221D01*
G01X275720Y103679D02*
Y101179D01*
G01X275107Y103679D02*
X276333D01*
G01X277920Y101179D02*
X277707Y101221D01*
X277520Y101387D01*
X277360Y101637D01*
X277253Y101929D01*
X277200Y102262D01*
Y102596D01*
X277253Y102929D01*
X277360Y103221D01*
X277520Y103471D01*
X277707Y103637D01*
X277920Y103679D01*
X278133Y103637D01*
X278320Y103471D01*
X278480Y103221D01*
X278587Y102929D01*
X278640Y102596D01*
Y102262D01*
X278587Y101929D01*
X278480Y101637D01*
X278320Y101387D01*
X278133Y101221D01*
X277920Y101179D01*
G01X279587D02*
Y103679D01*
X280227D01*
X280440Y103554D01*
X280600Y103262D01*
X280653Y102929D01*
X280600Y102596D01*
X280467Y102346D01*
X280227Y102221D01*
X279587D01*
G01X285107Y103471D02*
X284947Y103596D01*
X284760Y103679D01*
X284547D01*
X284307Y103554D01*
X284120Y103346D01*
X283987Y103096D01*
X283880Y102679D01*
X283853Y102304D01*
X283907Y101929D01*
X283987Y101679D01*
X284147Y101429D01*
X284333Y101262D01*
X284520Y101179D01*
X284707D01*
X284893Y101262D01*
X285053Y101387D01*
X285187Y101554D01*
G01X286720Y101179D02*
X286507Y101221D01*
X286320Y101387D01*
X286160Y101637D01*
X286053Y101929D01*
X286000Y102262D01*
Y102596D01*
X286053Y102929D01*
X286160Y103221D01*
X286320Y103471D01*
X286507Y103637D01*
X286720Y103679D01*
X286933Y103637D01*
X287120Y103471D01*
X287280Y103221D01*
X287387Y102929D01*
X287440Y102596D01*
Y102262D01*
X287387Y101929D01*
X287280Y101637D01*
X287120Y101387D01*
X286933Y101221D01*
X286720Y101179D01*
G01X288307D02*
Y103679D01*
X289533Y101179D01*
Y103679D01*
G01X290533Y101179D02*
Y103679D01*
X291067D01*
X291280Y103554D01*
X291440Y103387D01*
X291573Y103137D01*
X291680Y102846D01*
X291707Y102429D01*
X291680Y102012D01*
X291573Y101721D01*
X291440Y101471D01*
X291280Y101304D01*
X291067Y101179D01*
X290533D01*
G01X292733Y103679D02*
Y101887D01*
X292840Y101512D01*
X293053Y101262D01*
X293320Y101179D01*
X293587Y101262D01*
X293800Y101512D01*
X293907Y101887D01*
Y103679D01*
G01X296107Y103471D02*
X295947Y103596D01*
X295760Y103679D01*
X295547D01*
X295307Y103554D01*
X295120Y103346D01*
X294987Y103096D01*
X294880Y102679D01*
X294853Y102304D01*
X294907Y101929D01*
X294987Y101679D01*
X295147Y101429D01*
X295333Y101262D01*
X295520Y101179D01*
X295707D01*
X295893Y101262D01*
X296053Y101387D01*
X296187Y101554D01*
G01X297720Y103679D02*
Y101179D01*
G01X297107Y103679D02*
X298333D01*
G01X299920Y101179D02*
X299707Y101221D01*
X299520Y101387D01*
X299360Y101637D01*
X299253Y101929D01*
X299200Y102262D01*
Y102596D01*
X299253Y102929D01*
X299360Y103221D01*
X299520Y103471D01*
X299707Y103637D01*
X299920Y103679D01*
X300133Y103637D01*
X300320Y103471D01*
X300480Y103221D01*
X300587Y102929D01*
X300640Y102596D01*
Y102262D01*
X300587Y101929D01*
X300480Y101637D01*
X300320Y101387D01*
X300133Y101221D01*
X299920Y101179D01*
G01X301587D02*
Y103679D01*
X302253D01*
X302467Y103554D01*
X302600Y103387D01*
X302653Y103054D01*
X302600Y102721D01*
X302440Y102512D01*
X302253Y102387D01*
X301587D01*
G01X302253D02*
X302653Y101179D01*
G01X306173Y102012D02*
X306867D01*
G01X311507Y103471D02*
X311347Y103596D01*
X311160Y103679D01*
X310947D01*
X310707Y103554D01*
X310520Y103346D01*
X310387Y103096D01*
X310280Y102679D01*
X310253Y102304D01*
X310307Y101929D01*
X310387Y101679D01*
X310547Y101429D01*
X310733Y101262D01*
X310920Y101179D01*
X311107D01*
X311293Y101262D01*
X311453Y101387D01*
X311587Y101554D01*
G01X313120Y101179D02*
X312907Y101221D01*
X312720Y101387D01*
X312560Y101637D01*
X312453Y101929D01*
X312400Y102262D01*
Y102596D01*
X312453Y102929D01*
X312560Y103221D01*
X312720Y103471D01*
X312907Y103637D01*
X313120Y103679D01*
X313333Y103637D01*
X313520Y103471D01*
X313680Y103221D01*
X313787Y102929D01*
X313840Y102596D01*
Y102262D01*
X313787Y101929D01*
X313680Y101637D01*
X313520Y101387D01*
X313333Y101221D01*
X313120Y101179D01*
G01X314787D02*
Y103679D01*
X315427D01*
X315640Y103554D01*
X315800Y103262D01*
X315853Y102929D01*
X315800Y102596D01*
X315667Y102346D01*
X315427Y102221D01*
X314787D01*
G01X316987Y101179D02*
Y103679D01*
X317627D01*
X317840Y103554D01*
X318000Y103262D01*
X318053Y102929D01*
X318000Y102596D01*
X317867Y102346D01*
X317627Y102221D01*
X316987D01*
G01X320253Y101179D02*
X319187D01*
Y103679D01*
X320253D01*
G01X319827Y102471D02*
X319187D01*
G01X321387Y101179D02*
Y103679D01*
X322053D01*
X322267Y103554D01*
X322400Y103387D01*
X322453Y103054D01*
X322400Y102721D01*
X322240Y102512D01*
X322053Y102387D01*
X321387D01*
G01X322053D02*
X322453Y101179D01*
G01X326320D02*
Y103679D01*
X326000Y103179D01*
G01Y101179D02*
X326640D01*
G01X328520Y101096D02*
X328467Y101137D01*
Y101221D01*
X328520Y101262D01*
X328573Y101221D01*
Y101137D01*
X328520Y101096D01*
G01X330213Y103262D02*
X330373Y103512D01*
X330560Y103637D01*
X330773Y103679D01*
X331040Y103596D01*
X331227Y103387D01*
X331280Y103137D01*
X331253Y102887D01*
X331147Y102679D01*
X330613Y102262D01*
X330373Y101971D01*
X330213Y101554D01*
X330160Y101179D01*
X331280D01*
G01X334427D02*
Y103679D01*
X335120Y101596D01*
X335813Y103679D01*
Y101179D01*
G01X337000Y103679D02*
X337640D01*
G01X337320D02*
Y101179D01*
G01X337000D02*
X337640D01*
G01X338987Y103679D02*
Y101179D01*
X340053D01*
M02*
