G04 ================== begin FILE IDENTIFICATION RECORD ==================*
G04 Layout Name:  SLEEPTRACK2_PHASE1.brd*
G04 Film Name:    Sleeptrack2_Phase_1_Silkscreen_Top_V1*
G04 File Format:  Gerber RS274X*
G04 File Origin:  Cadence Allegro 17.0-P009*
G04 Origin Date:  Wed Jun 08 23:23:27 2016*
G04 *
G04 Layer:  USER PART NUMBER/SILKSCREEN_TOP*
G04 Layer:  TOLERANCE/SILKSCREEN_TOP*
G04 Layer:  REF DES/SILKSCREEN_TOP*
G04 Layer:  PACKAGE GEOMETRY/SILKSCREEN_TOP*
G04 Layer:  DEVICE TYPE/SILKSCREEN_TOP*
G04 Layer:  COMPONENT VALUE/SILKSCREEN_TOP*
G04 Layer:  BOARD GEOMETRY/SILKSCREEN_TOP*
G04 *
G04 Offset:    (0.00 0.00)*
G04 Mirror:    No*
G04 Mode:      Positive*
G04 Rotation:  0*
G04 FullContactRelief:  No*
G04 UndefLineWidth:     10.00*
G04 ================== end FILE IDENTIFICATION RECORD ====================*
%FSLAX25Y25*MOIN*%
%IR0*IPPOS*OFA0.00000B0.00000*MIA0B0*SFA1.00000B1.00000*%
%ADD10C,.01*%
G75*
%LPD*%
G75*
G36*
G01X-107016Y88679D02*
Y48521D01*
X-122764D01*
Y65647D01*
X-132607D01*
Y71553D01*
X-122764D01*
Y88679D01*
X-107016D01*
G37*
G36*
G01X-68920Y63080D02*
X-64920Y66080D01*
X-68920Y69080D01*
Y63080D01*
G37*
G54D10*
G01X-101152Y-95452D02*
X-100520Y-97670D01*
G01X-101446Y-93555D02*
X-101152Y-95452D01*
G01X-100520Y-97670D02*
X-100220Y-98370D01*
G01D02*
X-99467Y-100145D01*
G01X-100290Y-77860D02*
X-102188Y-77813D01*
G01X-103590Y-77560D02*
X-103390Y-77360D01*
G01X-103090D02*
X-103190D01*
G01D02*
Y-77260D01*
G01Y-77360D02*
X-103290D01*
G01X-103190Y-77260D02*
Y-76960D01*
G01X-101090Y-74560D02*
Y-74460D01*
G01X-100990D02*
X-100890D01*
G01X-100990D02*
X-101090D01*
G01D02*
X-101190D01*
G01D02*
X-101280Y-74440D01*
G01X-102690Y-68760D02*
X-107889Y-68711D01*
G01X-109490Y-68460D02*
X-109090Y-68160D01*
G01X-108990D02*
Y-68060D01*
G01Y-68160D02*
X-109090D01*
G01X-108990Y-68060D02*
X-108943Y-67894D01*
G01D02*
X-103639Y-62120D01*
G01X-107889Y-68711D02*
X-108880Y-68240D01*
G01D02*
X-108990Y-68160D01*
G01X-101280Y-74440D02*
X-102193Y-74007D01*
G01D02*
X-103790Y-73960D01*
G01X-100890Y-74460D02*
X-100690Y-74260D01*
G01X-103190Y-76960D02*
X-101139Y-74719D01*
G01D02*
X-101090Y-74560D01*
G01X-103390Y-77360D02*
X-103290D01*
G01X-102188Y-77813D02*
X-102980Y-77440D01*
G01D02*
X-103090Y-77360D01*
G01X-100260Y-84070D02*
X-100720Y-85350D01*
G01X-99610Y-82550D02*
X-100260Y-84070D01*
G01X-100720Y-85350D02*
X-101228Y-87252D01*
G01D02*
X-101590Y-89760D01*
G01D02*
Y-92660D01*
G01D02*
X-101446Y-93555D01*
G01X-103590Y-61960D02*
Y-61860D01*
G01X-103490D02*
X-103090Y-61560D01*
G01X-103490Y-61860D02*
X-103590D01*
G01D02*
X-103690D01*
G01D02*
X-103780Y-61840D01*
G01X-103639Y-62120D02*
X-103590Y-61960D01*
G01X-103780Y-61840D02*
X-104891Y-61309D01*
G01D02*
X-109590Y-61260D01*
G01X-110767Y-20480D02*
X-110575Y-20790D01*
X-110345Y-20997D01*
X-110077Y-21100D01*
X-109770Y-20997D01*
X-109540Y-20790D01*
X-109310Y-20480D01*
X-109233Y-20067D01*
Y-18000D01*
G01X-107552Y-20738D02*
X-107283Y-20997D01*
X-106977Y-21100D01*
X-106670Y-20997D01*
X-106402Y-20687D01*
X-106210Y-20222D01*
X-106133Y-19757D01*
Y-19188D01*
X-106210Y-18723D01*
X-106402Y-18310D01*
X-106632Y-18103D01*
X-106900Y-18000D01*
X-107207Y-18103D01*
X-107437Y-18310D01*
X-107590Y-18620D01*
X-107667Y-19033D01*
X-107590Y-19395D01*
X-107398Y-19757D01*
X-107168Y-19963D01*
X-106900Y-20015D01*
X-106593Y-19912D01*
X-106363Y-19653D01*
X-106133Y-19188D01*
G01X-111610Y-34940D02*
X-121610D01*
Y-4940D01*
X-111610D01*
Y-34940D01*
G01X-93580Y21770D02*
Y2970D01*
X-123180D01*
Y21770D01*
X-93580D01*
G01D02*
X-123180D01*
G01D02*
Y2970D01*
G01D02*
X-93580D01*
G01X-100997Y61400D02*
X-100580Y61906D01*
X-100330Y62476D01*
Y62983D01*
X-100580Y63489D01*
X-100997Y63869D01*
X-101580Y64059D01*
X-102163Y63933D01*
X-102663Y63616D01*
X-102997Y63046D01*
X-103163Y62286D01*
X-103497Y61843D01*
X-104080Y61653D01*
X-104663Y61780D01*
X-105080Y62096D01*
X-105330Y62540D01*
Y62983D01*
X-105163Y63426D01*
X-104747Y63806D01*
G01X-105330Y65928D02*
X-100330Y66814D01*
X-105330Y67827D01*
X-100330Y68841D01*
X-105330Y69727D01*
G01X-100330Y72925D02*
X-105330D01*
X-104330Y72166D01*
G01X-100330D02*
Y73685D01*
G01X-80390Y-110660D02*
X-78997Y-110419D01*
G01X-88590Y-101460D02*
X-87280Y-102130D01*
G01X-99467Y-100145D02*
X-98910Y-101070D01*
G01X-91299Y-95095D02*
X-91190Y-95160D01*
G01X-92380Y-94830D02*
X-91299Y-95095D01*
G01X-91190Y-95160D02*
X-89990D01*
G01D02*
X-89199Y-94925D01*
G01X-74399Y-95095D02*
X-74290Y-95160D01*
G01X-75480Y-94830D02*
X-74399Y-95095D01*
G01X-74290Y-95160D02*
X-73090D01*
G01D02*
X-72299Y-94925D01*
G01X-87280Y-102130D02*
X-85599Y-102795D01*
G01D02*
X-82890Y-103360D01*
G01D02*
X-81790D01*
G01D02*
X-80297Y-103119D01*
G01D02*
X-78400Y-102630D01*
G01D02*
X-76600Y-101840D01*
G01D02*
X-75590Y-101360D01*
G01X-78997Y-110419D02*
X-76499Y-109825D01*
G01D02*
X-75799Y-109625D01*
G01D02*
X-73100Y-108440D01*
G01D02*
X-72780Y-108280D01*
G01D02*
X-70672Y-106884D01*
G01D02*
X-70375Y-106683D01*
G01D02*
X-68190Y-104760D01*
G01X-98910Y-101070D02*
X-97713Y-102875D01*
G01D02*
X-96790Y-104060D01*
G01D02*
X-94990Y-105860D01*
G01D02*
X-94511Y-106185D01*
G01D02*
X-93575Y-106937D01*
G01D02*
X-91500Y-108280D01*
G01D02*
X-91100Y-108480D01*
G01D02*
X-88780Y-109530D01*
G01D02*
X-87899Y-109795D01*
G01D02*
X-85383Y-110419D01*
G01D02*
X-84897Y-110501D01*
G01D02*
X-83989Y-110611D01*
G01D02*
X-80390Y-110660D01*
G01X-78890Y-89960D02*
X-78846Y-90755D01*
G01X-95790Y-89960D02*
X-95747Y-90655D01*
G01X-94290Y-71460D02*
X-98089Y-71411D01*
G01X-99690Y-71160D02*
X-99290Y-70860D01*
G01X-99190D02*
Y-70760D01*
G01Y-70860D02*
X-99290D01*
G01X-99190Y-70760D02*
X-99141Y-70599D01*
G01X-72690Y-70060D02*
X-72090Y-69660D01*
G01X-71990D02*
X-72090D01*
G01D02*
Y-69560D01*
G01D02*
X-72190Y-69460D01*
G01X-95190Y-66160D02*
Y-66060D01*
G01X-95090D02*
X-94690Y-65760D01*
G01X-95090Y-66060D02*
X-95190D01*
G01D02*
X-95290D01*
G01D02*
X-95380Y-66040D01*
G01X-89199Y-94925D02*
X-88216Y-94516D01*
G01X-72299Y-94925D02*
X-71316Y-94516D01*
G01X-95380Y-66040D02*
X-96491Y-65509D01*
G01D02*
X-99890Y-65460D01*
G01X-99141Y-70599D02*
X-95190Y-66160D01*
G01X-98089Y-71411D02*
X-99080Y-70940D01*
G01D02*
X-99190Y-70860D01*
G01X-69700Y-70680D02*
X-71990Y-69660D01*
G01X-95747Y-90655D02*
X-95560Y-91550D01*
G01D02*
X-94966Y-92642D01*
G01D02*
X-94290Y-93560D01*
G01D02*
X-94108Y-93684D01*
G01D02*
X-92972Y-94536D01*
G01D02*
X-92380Y-94830D01*
G01X-88216Y-94516D02*
X-87872Y-94284D01*
G01D02*
X-87390Y-93960D01*
G01D02*
X-86490Y-93060D01*
G01D02*
X-86013Y-92345D01*
G01D02*
X-85770Y-91870D01*
G01D02*
X-85455Y-90869D01*
G01D02*
X-85290Y-89960D01*
G01X-78846Y-90755D02*
X-78660Y-91550D01*
G01D02*
X-78066Y-92642D01*
G01D02*
X-77490Y-93460D01*
G01D02*
X-77208Y-93684D01*
G01D02*
X-76072Y-94536D01*
G01D02*
X-75480Y-94830D01*
G01X-71316Y-94516D02*
X-70972Y-94284D01*
G01D02*
X-70490Y-93960D01*
G01D02*
X-69590Y-93060D01*
G01X-71705Y-74783D02*
X-72380Y-74340D01*
G01X-69912Y-76085D02*
X-71705Y-74783D01*
G01X-72380Y-74340D02*
X-74700Y-73190D01*
G01D02*
X-75180Y-73030D01*
G01D02*
X-77298Y-72298D01*
G01D02*
X-78182Y-72122D01*
G01D02*
X-80490Y-71760D01*
G01D02*
X-83890D01*
G01D02*
X-86083Y-72101D01*
G01D02*
X-86198Y-72122D01*
G01D02*
X-88100Y-72630D01*
G01D02*
X-89080Y-72990D01*
G01D02*
X-90880Y-73780D01*
G01D02*
X-91700Y-74240D01*
G01D02*
X-93305Y-75237D01*
G01D02*
X-95012Y-76635D01*
G01D02*
X-96715Y-78338D01*
G01D02*
X-98066Y-79978D01*
G01D02*
X-99270Y-81970D01*
G01D02*
X-99610Y-82550D01*
G01X-70590Y-64660D02*
X-70990D01*
G01X-67100Y-66180D02*
X-70590Y-64660D01*
G01X-70990D02*
X-71280Y-64880D01*
G01D02*
X-71390Y-64960D01*
G01X-92157Y9680D02*
X-91840Y9180D01*
X-91460Y8847D01*
X-91017Y8680D01*
X-90510Y8847D01*
X-90130Y9180D01*
X-89750Y9680D01*
X-89623Y10347D01*
Y13680D01*
G01X-87183Y9680D02*
X-86803Y9097D01*
X-86297Y8763D01*
X-85727Y8680D01*
X-85220Y8763D01*
X-84713Y9180D01*
X-84397Y9680D01*
X-84333Y10180D01*
X-84460Y10763D01*
X-84903Y11180D01*
X-85347Y11347D01*
X-85917D01*
G01X-85347D02*
X-84967Y11597D01*
X-84650Y12013D01*
X-84523Y12513D01*
X-84650Y13013D01*
X-84967Y13430D01*
X-85537Y13680D01*
X-86107Y13597D01*
X-86677Y13263D01*
G01X-93580Y2970D02*
Y21770D01*
G01X-85750Y78720D02*
Y76220D01*
X-80750D01*
Y77220D01*
G01X-75670Y89720D02*
X-58170D01*
Y74720D01*
X-75670D01*
Y89720D01*
G01X-75286Y60863D02*
X-58554D01*
Y71297D01*
X-75286D01*
Y60863D01*
G01X-72620Y117130D02*
X-75120D01*
Y112130D01*
X-74120D01*
G01X-83927Y96323D02*
X-84247Y96573D01*
X-84620Y96740D01*
X-85047D01*
X-85527Y96490D01*
X-85900Y96073D01*
X-86167Y95573D01*
X-86380Y94740D01*
X-86433Y93990D01*
X-86327Y93240D01*
X-86167Y92740D01*
X-85847Y92240D01*
X-85473Y91907D01*
X-85100Y91740D01*
X-84727D01*
X-84353Y91907D01*
X-84033Y92157D01*
X-83767Y92490D01*
G01X-81713Y95907D02*
X-81393Y96407D01*
X-81020Y96657D01*
X-80593Y96740D01*
X-80060Y96573D01*
X-79687Y96157D01*
X-79580Y95657D01*
X-79633Y95157D01*
X-79847Y94740D01*
X-80913Y93907D01*
X-81393Y93323D01*
X-81713Y92490D01*
X-81820Y91740D01*
X-79580D01*
G01X-80750Y87220D02*
Y88220D01*
X-85750D01*
Y85720D01*
G01X-71787Y105980D02*
Y110980D01*
X-70453D01*
X-70027Y110730D01*
X-69760Y110397D01*
X-69653Y109730D01*
X-69760Y109063D01*
X-70080Y108647D01*
X-70453Y108397D01*
X-71787D01*
G01X-70453D02*
X-69653Y105980D01*
G01X-67333Y110147D02*
X-67013Y110647D01*
X-66640Y110897D01*
X-66213Y110980D01*
X-65680Y110813D01*
X-65307Y110397D01*
X-65200Y109897D01*
X-65253Y109397D01*
X-65467Y108980D01*
X-66533Y108147D01*
X-67013Y107563D01*
X-67333Y106730D01*
X-67440Y105980D01*
X-65200D01*
G01X-74120Y105230D02*
X-75120D01*
Y100230D01*
X-72620D01*
G01X-70173Y95670D02*
Y92087D01*
X-69920Y91337D01*
X-69413Y90837D01*
X-68780Y90670D01*
X-68147Y90837D01*
X-67640Y91337D01*
X-67387Y92087D01*
Y95670D01*
G01X-63680Y90670D02*
Y95670D01*
X-64440Y94670D01*
G01Y90670D02*
X-62920D01*
G01X-63170Y89720D02*
X-66920Y85970D01*
X-70670Y89720D01*
G01X-71273Y117880D02*
Y122880D01*
X-70207D01*
X-69780Y122630D01*
X-69460Y122297D01*
X-69193Y121797D01*
X-68980Y121213D01*
X-68927Y120380D01*
X-68980Y119547D01*
X-69193Y118963D01*
X-69460Y118463D01*
X-69780Y118130D01*
X-70207Y117880D01*
X-71273D01*
G01X-66713Y122047D02*
X-66393Y122547D01*
X-66020Y122797D01*
X-65593Y122880D01*
X-65060Y122713D01*
X-64687Y122297D01*
X-64580Y121797D01*
X-64633Y121297D01*
X-64847Y120880D01*
X-65913Y120047D01*
X-66393Y119463D01*
X-66713Y118630D01*
X-66820Y117880D01*
X-64580D01*
G01X-50583Y-101460D02*
Y-98960D01*
X-49890Y-101043D01*
X-49197Y-98960D01*
Y-101460D01*
G01X-48357D02*
X-47690Y-98960D01*
X-47023Y-101460D01*
G01X-47263Y-100585D02*
X-48117D01*
G01X-46077Y-101460D02*
Y-98960D01*
X-45543D01*
X-45330Y-99085D01*
X-45170Y-99252D01*
X-45037Y-99502D01*
X-44930Y-99793D01*
X-44903Y-100210D01*
X-44930Y-100627D01*
X-45037Y-100918D01*
X-45170Y-101168D01*
X-45330Y-101335D01*
X-45543Y-101460D01*
X-46077D01*
G01X-43610Y-98960D02*
X-42970D01*
G01X-43290D02*
Y-101460D01*
G01X-43610D02*
X-42970D01*
G01X-41650Y-101127D02*
X-41437Y-101335D01*
X-41197Y-101460D01*
X-40983D01*
X-40770Y-101335D01*
X-40610Y-101127D01*
X-40530Y-100835D01*
X-40583Y-100543D01*
X-40717Y-100293D01*
X-40957Y-100127D01*
X-41277Y-100043D01*
X-41463Y-99877D01*
X-41543Y-99585D01*
X-41490Y-99293D01*
X-41357Y-99085D01*
X-41170Y-98960D01*
X-40983D01*
X-40797Y-99043D01*
X-40637Y-99252D01*
G01X-38890Y-101460D02*
X-39103Y-101418D01*
X-39290Y-101252D01*
X-39450Y-101002D01*
X-39557Y-100710D01*
X-39610Y-100377D01*
Y-100043D01*
X-39557Y-99710D01*
X-39450Y-99418D01*
X-39290Y-99168D01*
X-39103Y-99002D01*
X-38890Y-98960D01*
X-38677Y-99002D01*
X-38490Y-99168D01*
X-38330Y-99418D01*
X-38223Y-99710D01*
X-38170Y-100043D01*
Y-100377D01*
X-38223Y-100710D01*
X-38330Y-101002D01*
X-38490Y-101252D01*
X-38677Y-101418D01*
X-38890Y-101460D01*
G01X-37303D02*
Y-98960D01*
X-36077Y-101460D01*
Y-98960D01*
G01X-32290D02*
Y-101460D01*
G01X-32903Y-98960D02*
X-31677D01*
G01X-30623Y-101460D02*
Y-98960D01*
X-29957D01*
X-29743Y-99085D01*
X-29610Y-99252D01*
X-29557Y-99585D01*
X-29610Y-99918D01*
X-29770Y-100127D01*
X-29957Y-100252D01*
X-30623D01*
G01X-29957D02*
X-29557Y-101460D01*
G01X-28557D02*
X-27890Y-98960D01*
X-27223Y-101460D01*
G01X-27463Y-100585D02*
X-28317D01*
G01X-25690Y-101460D02*
Y-100335D01*
X-26223Y-98960D01*
G01X-25157D02*
X-25690Y-100335D01*
G01X-24103Y-101460D02*
Y-98960D01*
X-22877Y-101460D01*
Y-98960D01*
G01X-21850Y-101460D02*
Y-98960D01*
G01X-20730D02*
Y-101460D01*
G01Y-100210D02*
X-21850D01*
G01X-19757Y-101460D02*
X-19090Y-98960D01*
X-18423Y-101460D01*
G01X-18663Y-100585D02*
X-19517D01*
G01X-17583Y-101460D02*
Y-98960D01*
X-16890Y-101043D01*
X-16197Y-98960D01*
Y-101460D01*
G01X-50423Y-95860D02*
Y-98360D01*
X-49357D01*
G01X-48277Y-95860D02*
Y-97652D01*
X-48170Y-98027D01*
X-47957Y-98277D01*
X-47690Y-98360D01*
X-47423Y-98277D01*
X-47210Y-98027D01*
X-47103Y-97652D01*
Y-95860D01*
G01X-44903Y-96068D02*
X-45063Y-95943D01*
X-45250Y-95860D01*
X-45463D01*
X-45703Y-95985D01*
X-45890Y-96193D01*
X-46023Y-96443D01*
X-46130Y-96860D01*
X-46157Y-97235D01*
X-46103Y-97610D01*
X-46023Y-97860D01*
X-45863Y-98110D01*
X-45677Y-98277D01*
X-45490Y-98360D01*
X-45303D01*
X-45117Y-98277D01*
X-44957Y-98152D01*
X-44823Y-97985D01*
G01X-41890Y-95860D02*
X-41517Y-98360D01*
X-41090Y-95860D01*
X-40663Y-98360D01*
X-40290Y-95860D01*
G01X-39557Y-98360D02*
X-38890Y-95860D01*
X-38223Y-98360D01*
G01X-38463Y-97485D02*
X-39317D01*
G01X-37250Y-98027D02*
X-37037Y-98235D01*
X-36797Y-98360D01*
X-36583D01*
X-36370Y-98235D01*
X-36210Y-98027D01*
X-36130Y-97735D01*
X-36183Y-97443D01*
X-36317Y-97193D01*
X-36557Y-97027D01*
X-36877Y-96943D01*
X-37063Y-96777D01*
X-37143Y-96485D01*
X-37090Y-96193D01*
X-36957Y-95985D01*
X-36770Y-95860D01*
X-36583D01*
X-36397Y-95943D01*
X-36237Y-96152D01*
G01X-34490Y-95860D02*
Y-98360D01*
G01X-35103Y-95860D02*
X-33877D01*
G01X-32610D02*
X-31970D01*
G01X-32290D02*
Y-98360D01*
G01X-32610D02*
X-31970D01*
G01X-30757D02*
X-30090Y-95860D01*
X-29423Y-98360D01*
G01X-29663Y-97485D02*
X-30517D01*
G01X-28477Y-95860D02*
Y-97652D01*
X-28370Y-98027D01*
X-28157Y-98277D01*
X-27890Y-98360D01*
X-27623Y-98277D01*
X-27410Y-98027D01*
X-27303Y-97652D01*
Y-95860D01*
G01X-26250Y-98360D02*
X-25130Y-95860D01*
G01X-26250D02*
X-25130Y-98360D01*
G01X-50450Y-94927D02*
X-50237Y-95135D01*
X-49997Y-95260D01*
X-49783D01*
X-49570Y-95135D01*
X-49410Y-94927D01*
X-49330Y-94635D01*
X-49383Y-94343D01*
X-49517Y-94093D01*
X-49757Y-93927D01*
X-50077Y-93843D01*
X-50263Y-93677D01*
X-50343Y-93385D01*
X-50290Y-93093D01*
X-50157Y-92885D01*
X-49970Y-92760D01*
X-49783D01*
X-49597Y-92843D01*
X-49437Y-93052D01*
G01X-47690Y-95260D02*
Y-92760D01*
G01X-45890Y-94135D02*
X-45037D01*
X-45117Y-93843D01*
X-45250Y-93677D01*
X-45437Y-93593D01*
X-45623Y-93635D01*
X-45783Y-93760D01*
X-45890Y-94052D01*
X-45943Y-94302D01*
Y-94552D01*
X-45890Y-94802D01*
X-45757Y-95052D01*
X-45597Y-95218D01*
X-45410Y-95260D01*
X-45223Y-95177D01*
X-45037Y-94927D01*
G01X-43690Y-94135D02*
X-42837D01*
X-42917Y-93843D01*
X-43050Y-93677D01*
X-43237Y-93593D01*
X-43423Y-93635D01*
X-43583Y-93760D01*
X-43690Y-94052D01*
X-43743Y-94302D01*
Y-94552D01*
X-43690Y-94802D01*
X-43557Y-95052D01*
X-43397Y-95218D01*
X-43210Y-95260D01*
X-43023Y-95177D01*
X-42837Y-94927D01*
G01X-41570Y-96093D02*
Y-93593D01*
G01Y-93968D02*
X-41437Y-93760D01*
X-41303Y-93635D01*
X-41090Y-93593D01*
X-40903Y-93635D01*
X-40717Y-93843D01*
X-40637Y-94135D01*
X-40610Y-94427D01*
X-40637Y-94718D01*
X-40717Y-95010D01*
X-40877Y-95177D01*
X-41090Y-95260D01*
X-41277Y-95218D01*
X-41463Y-95093D01*
X-41570Y-94927D01*
G01X-38890Y-92760D02*
Y-95260D01*
G01X-39263Y-93593D02*
X-38517D01*
G01X-37063Y-95260D02*
Y-93593D01*
G01Y-93927D02*
X-36930Y-93760D01*
X-36797Y-93635D01*
X-36610Y-93593D01*
X-36477Y-93635D01*
X-36317Y-93760D01*
G01X-34010Y-95260D02*
Y-93593D01*
G01Y-93885D02*
X-34117Y-93718D01*
X-34277Y-93635D01*
X-34463Y-93593D01*
X-34650Y-93677D01*
X-34810Y-93843D01*
X-34917Y-94093D01*
X-34970Y-94427D01*
X-34917Y-94760D01*
X-34810Y-95010D01*
X-34650Y-95177D01*
X-34463Y-95260D01*
X-34277Y-95218D01*
X-34117Y-95093D01*
X-34010Y-94927D01*
G01X-31863Y-93802D02*
X-32050Y-93635D01*
X-32210Y-93593D01*
X-32423Y-93677D01*
X-32583Y-93843D01*
X-32690Y-94135D01*
X-32717Y-94427D01*
X-32690Y-94718D01*
X-32583Y-94968D01*
X-32423Y-95177D01*
X-32210Y-95260D01*
X-32023Y-95177D01*
X-31863Y-95010D01*
G01X-30543Y-95260D02*
Y-92760D01*
G01X-29690Y-93593D02*
X-30543Y-94552D01*
G01X-30197Y-94177D02*
X-29637Y-95260D01*
G01X-26223D02*
Y-92760D01*
X-25583D01*
X-25370Y-92885D01*
X-25210Y-93177D01*
X-25157Y-93510D01*
X-25210Y-93843D01*
X-25343Y-94093D01*
X-25583Y-94218D01*
X-26223D01*
G01X-23943Y-95260D02*
Y-92760D01*
G01Y-93968D02*
X-23810Y-93760D01*
X-23677Y-93635D01*
X-23463Y-93593D01*
X-23303Y-93635D01*
X-23117Y-93802D01*
X-23037Y-94052D01*
Y-95260D01*
G01X-20810D02*
Y-93593D01*
G01Y-93885D02*
X-20917Y-93718D01*
X-21077Y-93635D01*
X-21263Y-93593D01*
X-21450Y-93677D01*
X-21610Y-93843D01*
X-21717Y-94093D01*
X-21770Y-94427D01*
X-21717Y-94760D01*
X-21610Y-95010D01*
X-21450Y-95177D01*
X-21263Y-95260D01*
X-21077Y-95218D01*
X-20917Y-95093D01*
X-20810Y-94927D01*
G01X-19490Y-94968D02*
X-19357Y-95135D01*
X-19170Y-95260D01*
X-19010D01*
X-18850Y-95177D01*
X-18743Y-95052D01*
X-18690Y-94885D01*
X-18717Y-94635D01*
X-18823Y-94510D01*
X-19303Y-94260D01*
X-19410Y-93968D01*
X-19357Y-93760D01*
X-19250Y-93635D01*
X-19090Y-93593D01*
X-18930Y-93635D01*
X-18770Y-93760D01*
G01X-17290Y-94135D02*
X-16437D01*
X-16517Y-93843D01*
X-16650Y-93677D01*
X-16837Y-93593D01*
X-17023Y-93635D01*
X-17183Y-93760D01*
X-17290Y-94052D01*
X-17343Y-94302D01*
Y-94552D01*
X-17290Y-94802D01*
X-17157Y-95052D01*
X-16997Y-95218D01*
X-16810Y-95260D01*
X-16623Y-95177D01*
X-16437Y-94927D01*
G01X-12490Y-95260D02*
Y-92760D01*
X-12810Y-93260D01*
G01Y-95260D02*
X-12170D01*
G01X-68190Y-104760D02*
X-66715Y-103039D01*
G01D02*
X-65510Y-101250D01*
G01D02*
X-65267Y-100875D01*
G01D02*
X-63920Y-98150D01*
G01D02*
X-63820Y-97850D01*
G01D02*
X-63028Y-94952D01*
G01X-50450Y-91827D02*
X-50237Y-92035D01*
X-49997Y-92160D01*
X-49783D01*
X-49570Y-92035D01*
X-49410Y-91827D01*
X-49330Y-91535D01*
X-49383Y-91243D01*
X-49517Y-90993D01*
X-49757Y-90827D01*
X-50077Y-90743D01*
X-50263Y-90577D01*
X-50343Y-90285D01*
X-50290Y-89993D01*
X-50157Y-89785D01*
X-49970Y-89660D01*
X-49783D01*
X-49597Y-89743D01*
X-49437Y-89952D01*
G01X-48223Y-89660D02*
Y-92160D01*
X-47157D01*
G01X-44957D02*
X-46023D01*
Y-89660D01*
X-44957D01*
G01X-45383Y-90868D02*
X-46023D01*
G01X-42757Y-92160D02*
X-43823D01*
Y-89660D01*
X-42757D01*
G01X-43183Y-90868D02*
X-43823D01*
G01X-41623Y-92160D02*
Y-89660D01*
X-40983D01*
X-40770Y-89785D01*
X-40610Y-90077D01*
X-40557Y-90410D01*
X-40610Y-90743D01*
X-40743Y-90993D01*
X-40983Y-91118D01*
X-41623D01*
G01X-38890Y-89660D02*
Y-92160D01*
G01X-39503Y-89660D02*
X-38277D01*
G01X-37223Y-92160D02*
Y-89660D01*
X-36557D01*
X-36343Y-89785D01*
X-36210Y-89952D01*
X-36157Y-90285D01*
X-36210Y-90618D01*
X-36370Y-90827D01*
X-36557Y-90952D01*
X-37223D01*
G01X-36557D02*
X-36157Y-92160D01*
G01X-35157D02*
X-34490Y-89660D01*
X-33823Y-92160D01*
G01X-34063Y-91285D02*
X-34917D01*
G01X-31703Y-89868D02*
X-31863Y-89743D01*
X-32050Y-89660D01*
X-32263D01*
X-32503Y-89785D01*
X-32690Y-89993D01*
X-32823Y-90243D01*
X-32930Y-90660D01*
X-32957Y-91035D01*
X-32903Y-91410D01*
X-32823Y-91660D01*
X-32663Y-91910D01*
X-32477Y-92077D01*
X-32290Y-92160D01*
X-32103D01*
X-31917Y-92077D01*
X-31757Y-91952D01*
X-31623Y-91785D01*
G01X-30677Y-92160D02*
Y-89660D01*
G01X-29663D02*
X-30677Y-91202D01*
G01X-29503Y-92160D02*
X-30223Y-90493D01*
G01X-27890Y-92243D02*
X-27943Y-92202D01*
Y-92118D01*
X-27890Y-92077D01*
X-27837Y-92118D01*
Y-92202D01*
X-27890Y-92243D01*
G01X-26010Y-89660D02*
X-25370D01*
G01X-25690D02*
Y-92160D01*
G01X-26010D02*
X-25370D01*
G01X-23490D02*
X-23703Y-92118D01*
X-23890Y-91952D01*
X-24050Y-91702D01*
X-24157Y-91410D01*
X-24210Y-91077D01*
Y-90743D01*
X-24157Y-90410D01*
X-24050Y-90118D01*
X-23890Y-89868D01*
X-23703Y-89702D01*
X-23490Y-89660D01*
X-23277Y-89702D01*
X-23090Y-89868D01*
X-22930Y-90118D01*
X-22823Y-90410D01*
X-22770Y-90743D01*
Y-91077D01*
X-22823Y-91410D01*
X-22930Y-91702D01*
X-23090Y-91952D01*
X-23277Y-92118D01*
X-23490Y-92160D01*
G01X-63690Y-77660D02*
X-63420Y-77150D01*
G01X-62090Y-77460D02*
X-63290Y-76860D01*
G01X-63390Y-76960D02*
Y-76860D01*
G01X-63290D02*
X-63390D01*
G01D02*
X-63770Y-76250D01*
G01X-58790Y-76360D02*
X-58613Y-76145D01*
G01X-57090Y-75960D02*
X-58290Y-75360D01*
G01X-58390Y-75460D02*
Y-75360D01*
G01X-58290D02*
X-58390D01*
G01D02*
Y-75260D01*
G01D02*
X-59167Y-73845D01*
G01X-53490Y-74860D02*
X-53313Y-74645D01*
G01X-51890Y-74260D02*
X-52890Y-73760D01*
G01X-52990Y-73860D02*
Y-73760D01*
G01X-52890D02*
X-52990D01*
G01D02*
Y-73660D01*
G01D02*
X-53670Y-72250D01*
G01X-69590Y-93060D02*
X-69113Y-92345D01*
G01X-63028Y-94952D02*
X-62952Y-94568D01*
G01X-53670Y-72250D02*
X-55314Y-69478D01*
G01D02*
X-56266Y-68240D01*
G01D02*
X-57090Y-67160D01*
G01D02*
X-59690Y-64560D01*
G01X-53313Y-74645D02*
X-53010Y-73950D01*
G01D02*
X-52990Y-73860D01*
G01X-59167Y-73845D02*
X-60315Y-72080D01*
G01D02*
X-62165Y-69937D01*
G01D02*
X-63613Y-68585D01*
G01D02*
X-64710Y-67685D01*
G01D02*
X-66705Y-66383D01*
G01D02*
X-67100Y-66180D01*
G01X-58613Y-76145D02*
X-58410Y-75550D01*
G01D02*
X-58390Y-75460D01*
G01X-63770Y-76250D02*
X-65090Y-74360D01*
G01D02*
X-66890Y-72560D01*
G01D02*
X-67908Y-71784D01*
G01D02*
X-69700Y-70680D01*
G01X-63420Y-77150D02*
X-63390Y-76960D01*
G01X-69113Y-92345D02*
X-68910Y-91950D01*
G01D02*
X-68532Y-90754D01*
G01D02*
X-68390Y-89960D01*
G01X-62952Y-94568D02*
X-62737Y-93258D01*
G01D02*
X-62590Y-91360D01*
G01D02*
X-62747Y-89055D01*
G01D02*
X-62833Y-88365D01*
G01D02*
X-63420Y-85870D01*
G01D02*
X-63720Y-84870D01*
G01D02*
X-64310Y-83370D01*
G01D02*
X-64470Y-83050D01*
G01D02*
X-65513Y-81075D01*
G01D02*
X-65867Y-80545D01*
G01D02*
X-67015Y-78982D01*
G01D02*
X-67665Y-78238D01*
G01D02*
X-69168Y-76735D01*
G01D02*
X-69912Y-76085D01*
G01X-59690Y-64560D02*
X-60810Y-63685D01*
G01D02*
X-63405Y-61883D01*
G01D02*
X-64680Y-61140D01*
G01D02*
X-68100Y-59690D01*
G01D02*
X-68400Y-59590D01*
G01D02*
X-69490Y-59260D01*
G01D02*
X-69890Y-58760D01*
G01X-48780Y78720D02*
Y76220D01*
X-43780D01*
Y77220D01*
G01X-57123Y63800D02*
Y68800D01*
X-55857D01*
X-55351Y68550D01*
X-54971Y68217D01*
X-54654Y67717D01*
X-54401Y67133D01*
X-54338Y66300D01*
X-54401Y65467D01*
X-54654Y64883D01*
X-54971Y64383D01*
X-55351Y64050D01*
X-55857Y63800D01*
X-57123D01*
G01X-49873D02*
Y68800D01*
X-52215Y65217D01*
X-49050D01*
G01X-64920Y69080D02*
Y63080D01*
G01X-64120Y112130D02*
X-63120D01*
Y117130D01*
X-65620D01*
G01X-46200Y112110D02*
X-43700D01*
Y117110D01*
X-44700D01*
G01X-54700D02*
X-55700D01*
Y112110D01*
X-53200D01*
G01X-47467Y95523D02*
X-47787Y95773D01*
X-48160Y95940D01*
X-48587D01*
X-49067Y95690D01*
X-49440Y95273D01*
X-49707Y94773D01*
X-49920Y93940D01*
X-49973Y93190D01*
X-49867Y92440D01*
X-49707Y91940D01*
X-49387Y91440D01*
X-49013Y91107D01*
X-48640Y90940D01*
X-48267D01*
X-47893Y91107D01*
X-47573Y91357D01*
X-47307Y91690D01*
G01X-44240Y90940D02*
Y95940D01*
X-44880Y94940D01*
G01Y90940D02*
X-43600D01*
G01X-43780Y87220D02*
Y88220D01*
X-48780D01*
Y85720D01*
G01X-65620Y100230D02*
X-63120D01*
Y105230D01*
X-64120D01*
G01X-52287Y118030D02*
Y123030D01*
X-50953D01*
X-50527Y122780D01*
X-50260Y122447D01*
X-50153Y121780D01*
X-50260Y121113D01*
X-50580Y120697D01*
X-50953Y120447D01*
X-52287D01*
G01X-50953D02*
X-50153Y118030D01*
G01X-46820D02*
Y123030D01*
X-47460Y122030D01*
G01Y118030D02*
X-46180D01*
G01X-8727Y-22890D02*
X-8410Y-23390D01*
X-8030Y-23723D01*
X-7587Y-23890D01*
X-7080Y-23723D01*
X-6700Y-23390D01*
X-6320Y-22890D01*
X-6193Y-22223D01*
Y-18890D01*
G01X-2360Y-23890D02*
Y-18890D01*
X-3120Y-19890D01*
G01Y-23890D02*
X-1600D01*
G01X-9660Y-17470D02*
X1340D01*
Y107530D01*
X-9660D01*
Y-17470D01*
G01X89750Y105000D02*
Y117000D01*
X65550D01*
Y120800D01*
X33950D01*
Y117000D01*
X9750D01*
Y105000D01*
G01X45047Y117020D02*
Y113437D01*
X45300Y112687D01*
X45807Y112187D01*
X46440Y112020D01*
X47073Y112187D01*
X47580Y112687D01*
X47833Y113437D01*
Y117020D01*
G01X50147Y113020D02*
X50527Y112437D01*
X51033Y112103D01*
X51603Y112020D01*
X52110Y112103D01*
X52617Y112520D01*
X52933Y113020D01*
X52997Y113520D01*
X52870Y114103D01*
X52427Y114520D01*
X51983Y114687D01*
X51413D01*
G01X51983D02*
X52363Y114937D01*
X52680Y115353D01*
X52807Y115853D01*
X52680Y116353D01*
X52363Y116770D01*
X51793Y117020D01*
X51223Y116937D01*
X50653Y116603D01*
G01X58833Y-104957D02*
X58513Y-104707D01*
X58140Y-104540D01*
X57713D01*
X57233Y-104790D01*
X56860Y-105207D01*
X56593Y-105707D01*
X56380Y-106540D01*
X56327Y-107290D01*
X56433Y-108040D01*
X56593Y-108540D01*
X56913Y-109040D01*
X57287Y-109373D01*
X57660Y-109540D01*
X58033D01*
X58407Y-109373D01*
X58727Y-109123D01*
X58993Y-108790D01*
G01X60887Y-108540D02*
X61207Y-109123D01*
X61633Y-109457D01*
X62113Y-109540D01*
X62540Y-109457D01*
X62967Y-109040D01*
X63233Y-108540D01*
X63287Y-108040D01*
X63180Y-107457D01*
X62807Y-107040D01*
X62433Y-106873D01*
X61953D01*
G01X62433D02*
X62753Y-106623D01*
X63020Y-106207D01*
X63127Y-105707D01*
X63020Y-105207D01*
X62753Y-104790D01*
X62273Y-104540D01*
X61793Y-104623D01*
X61313Y-104957D01*
G01X74750Y-109820D02*
X77250D01*
Y-104820D01*
X76250D01*
G01X66250D02*
X65250D01*
Y-109820D01*
X67750D01*
G01X52410Y-94970D02*
Y-95970D01*
X57410D01*
Y-93470D01*
G01X80166Y-97576D02*
Y-85764D01*
X68354D01*
Y-97576D01*
X80166D01*
G01X51833Y-82670D02*
Y-77670D01*
X53167D01*
X53593Y-77920D01*
X53860Y-78253D01*
X53967Y-78920D01*
X53860Y-79587D01*
X53540Y-80003D01*
X53167Y-80253D01*
X51833D01*
G01X53167D02*
X53967Y-82670D01*
G01X56127Y-81670D02*
X56447Y-82253D01*
X56873Y-82587D01*
X57353Y-82670D01*
X57780Y-82587D01*
X58207Y-82170D01*
X58473Y-81670D01*
X58527Y-81170D01*
X58420Y-80587D01*
X58047Y-80170D01*
X57673Y-80003D01*
X57193D01*
G01X57673D02*
X57993Y-79753D01*
X58260Y-79337D01*
X58367Y-78837D01*
X58260Y-78337D01*
X57993Y-77920D01*
X57513Y-77670D01*
X57033Y-77753D01*
X56553Y-78087D01*
G01X57410Y-86470D02*
Y-83970D01*
X52410D01*
Y-84970D01*
G01X70847Y-79510D02*
Y-83093D01*
X71100Y-83843D01*
X71606Y-84343D01*
X72239Y-84510D01*
X72873Y-84343D01*
X73379Y-83843D01*
X73632Y-83093D01*
Y-79510D01*
G01X76134Y-80343D02*
X76514Y-79843D01*
X76958Y-79593D01*
X77464Y-79510D01*
X78097Y-79677D01*
X78541Y-80093D01*
X78667Y-80593D01*
X78604Y-81093D01*
X78351Y-81510D01*
X77084Y-82343D01*
X76514Y-82927D01*
X76134Y-83760D01*
X76008Y-84510D01*
X78667D01*
G01X109903Y-97520D02*
X110220Y-98020D01*
X110600Y-98353D01*
X111043Y-98520D01*
X111550Y-98353D01*
X111930Y-98020D01*
X112310Y-97520D01*
X112437Y-96853D01*
Y-93520D01*
G01X117030Y-98520D02*
Y-93520D01*
X114687Y-97103D01*
X117853D01*
G01X86460Y-96670D02*
Y-97670D01*
X91460D01*
Y-95170D01*
G01X109330Y-51920D02*
X119330D01*
Y-91920D01*
X109330D01*
Y-51920D01*
G01X85763Y-84210D02*
Y-79210D01*
X87097D01*
X87523Y-79460D01*
X87790Y-79793D01*
X87897Y-80460D01*
X87790Y-81127D01*
X87470Y-81543D01*
X87097Y-81793D01*
X85763D01*
G01X87097D02*
X87897Y-84210D01*
G01X91870D02*
Y-79210D01*
X89897Y-82793D01*
X92563D01*
G01X91460Y-88170D02*
Y-85670D01*
X86460D01*
Y-86670D01*
G01X99223Y-22270D02*
X99540Y-22770D01*
X99920Y-23103D01*
X100363Y-23270D01*
X100870Y-23103D01*
X101250Y-22770D01*
X101630Y-22270D01*
X101757Y-21603D01*
Y-18270D01*
G01X104387Y-19103D02*
X104767Y-18603D01*
X105210Y-18353D01*
X105717Y-18270D01*
X106350Y-18437D01*
X106793Y-18853D01*
X106920Y-19353D01*
X106857Y-19853D01*
X106603Y-20270D01*
X105337Y-21103D01*
X104767Y-21687D01*
X104387Y-22520D01*
X104260Y-23270D01*
X106920D01*
G01X98160Y-17470D02*
X109160D01*
Y107530D01*
X98160D01*
Y-17470D01*
M02*
