G04 ================== begin FILE IDENTIFICATION RECORD ==================*
G04 Layout Name:  SLEEPTRACK2_PHASE1.brd*
G04 Film Name:    Sleeptrack2_Phase_1_Soldermask_Top_V1*
G04 File Format:  Gerber RS274X*
G04 File Origin:  Cadence Allegro 17.0-P009*
G04 Origin Date:  Wed Jun 08 23:23:27 2016*
G04 *
G04 Layer:  VIA CLASS/SOLDERMASK_TOP*
G04 Layer:  PIN/SOLDERMASK_TOP*
G04 Layer:  PACKAGE GEOMETRY/SOLDERMASK_TOP*
G04 Layer:  DRC ERROR CLASS/SOLDERMASK_TOP*
G04 Layer:  BOARD GEOMETRY/SOLDERMASK_TOP*
G04 *
G04 Offset:    (0.00 0.00)*
G04 Mirror:    No*
G04 Mode:      Positive*
G04 Rotation:  0*
G04 FullContactRelief:  No*
G04 UndefLineWidth:     10.00*
G04 ================== end FILE IDENTIFICATION RECORD ====================*
%FSLAX25Y25*MOIN*%
%IR0*IPPOS*OFA0.00000B0.00000*MIA0B0*SFA1.00000B1.00000*%
%ADD16R,.105X.0805*%
%ADD11C,.07*%
%ADD14C,.044*%
%ADD17R,.05X.05*%
%ADD10C,.075*%
%ADD18R,.075X.075*%
%ADD13R,.046X.031*%
%ADD12R,.036X.046*%
%ADD15R,.046X.036*%
%ADD19R,.065X.075*%
%ADD20R,.01209X.03209*%
%ADD21R,.06417X.0689*%
%LPD*%
G75*
G54D10*
X-116610Y-9940D03*
Y-19940D03*
Y-29940D03*
X-4160Y-9970D03*
Y30D03*
Y10030D03*
Y20030D03*
Y30030D03*
Y40030D03*
Y50030D03*
Y60030D03*
Y70030D03*
Y80030D03*
Y90030D03*
Y100030D03*
X114330Y-86920D03*
Y-76920D03*
Y-66920D03*
Y-56920D03*
X103660Y-9970D03*
Y30D03*
Y10030D03*
Y20030D03*
Y30030D03*
Y40030D03*
Y50030D03*
Y60030D03*
Y70030D03*
Y80030D03*
Y90030D03*
Y100030D03*
G54D20*
X77213Y-97379D03*
X75244D03*
X73276D03*
X71307D03*
Y-85961D03*
X73276D03*
X75244D03*
X77213D03*
G54D11*
X-99480Y16270D03*
Y8470D03*
X-114890Y58600D03*
Y68600D03*
Y78600D03*
G54D21*
X74260Y-91670D03*
G54D12*
X-83250Y79220D03*
Y85220D03*
X-46280Y79220D03*
Y85220D03*
X54910Y-92970D03*
Y-86970D03*
X88960Y-94670D03*
Y-88670D03*
G54D13*
X-72020Y85970D03*
Y82220D03*
Y78470D03*
X-61820D03*
Y85970D03*
G54D14*
X-71553Y58866D03*
X-87500Y85220D03*
X-67988Y97562D03*
X-65890Y82420D03*
X-41990Y85220D03*
X45850Y-82710D03*
X78910Y-107740D03*
X62240Y-92960D03*
X71590Y-102460D03*
X81310Y-100250D03*
X63320Y-107320D03*
X73510Y-66850D03*
X73500Y-82220D03*
X88960Y-99650D03*
G54D15*
X-72120Y114630D03*
Y102730D03*
X-66120Y114630D03*
X-46700Y114610D03*
X-52700D03*
X-66120Y102730D03*
X74250Y-107320D03*
X68250D03*
G54D16*
X9750Y-10000D03*
Y0D03*
Y10000D03*
Y20000D03*
Y30000D03*
Y40000D03*
Y50000D03*
Y60000D03*
Y70000D03*
Y80000D03*
Y90000D03*
Y100000D03*
X89750Y-10000D03*
Y20000D03*
Y10000D03*
Y0D03*
Y50000D03*
Y40000D03*
Y30000D03*
Y80000D03*
Y70000D03*
Y60000D03*
Y100000D03*
Y90000D03*
G54D17*
X24750Y30000D03*
X74750Y90000D03*
Y100000D03*
G54D18*
X24750Y70000D03*
Y100000D03*
G54D19*
X45750Y111000D03*
X53750D03*
M02*
