G04 ================== begin FILE IDENTIFICATION RECORD ==================*
G04 Layout Name:  SLEEPTRACK2_PHASE1.brd*
G04 Film Name:    Sleeptrack2_Phase_1_VCC_V1*
G04 File Format:  Gerber RS274X*
G04 File Origin:  Cadence Allegro 17.0-P009*
G04 Origin Date:  Wed Jun 08 23:23:27 2016*
G04 *
G04 Layer:  ETCH/VCC*
G04 Layer:  PIN/VCC*
G04 Layer:  VIA CLASS/VCC*
G04 *
G04 Offset:    (0.00 0.00)*
G04 Mirror:    No*
G04 Mode:      Positive*
G04 Rotation:  0*
G04 FullContactRelief:  No*
G04 UndefLineWidth:     10.00*
G04 ================== end FILE IDENTIFICATION RECORD ====================*
%FSLAX25Y25*MOIN*%
%IR0*IPPOS*OFA0.00000B0.00000*MIA0B0*SFA1.00000B1.00000*%
%ADD12C,.024*%
%ADD11C,.055*%
%ADD10C,.135*%
%ADD13C,.01*%
%ADD15C,.03404*%
%ADD16C,.06504*%
%ADD14C,.15004*%
%ADD17R,.67004X.57904*%
G75*
%LPD*%
G75*
G36*
G01X123499Y-123499D02*
X-123499D01*
Y123499D01*
X123499D01*
Y-123499D01*
G37*
%LPC*%
G75*
G54D15*
X-67988Y97562D03*
X-41990Y85220D03*
X88960Y-99650D03*
X73500Y-82220D03*
X-71553Y58866D03*
X45850Y-82710D03*
X-87500Y85220D03*
X73510Y-66850D03*
X62240Y-92960D03*
X-65890Y82420D03*
X81310Y-100250D03*
X63320Y-107320D03*
X71590Y-102460D03*
G54D16*
X103660Y-9970D03*
Y30D03*
Y10030D03*
Y20030D03*
Y30030D03*
Y40030D03*
Y50030D03*
Y60030D03*
Y70030D03*
Y80030D03*
Y90030D03*
Y100030D03*
X-4160Y-9970D03*
Y30D03*
Y10030D03*
Y20030D03*
Y30030D03*
Y40030D03*
Y50030D03*
Y60030D03*
Y70030D03*
Y80030D03*
Y90030D03*
Y100030D03*
X-116610Y-9940D03*
Y-19940D03*
Y-29940D03*
X-99480Y8470D03*
Y16270D03*
X-114890Y58600D03*
Y68600D03*
Y78600D03*
X114330Y-56920D03*
Y-66920D03*
Y-76920D03*
Y-86920D03*
G54D14*
X114700Y114700D03*
Y-114700D03*
X-114700D03*
Y114700D03*
G54D17*
X49750Y-26050D03*
%LPD*%
G75*
G54D10*
X-114700Y-114700D03*
Y114700D03*
X114700Y-114700D03*
Y114700D03*
G54D11*
X-116610Y-9940D03*
Y-19940D03*
Y-29940D03*
X-99480Y16270D03*
Y8470D03*
X-114890Y58600D03*
Y68600D03*
Y78600D03*
X-4160Y-9970D03*
Y30D03*
Y10030D03*
Y20030D03*
Y30030D03*
Y40030D03*
Y50030D03*
Y60030D03*
Y70030D03*
Y80030D03*
Y90030D03*
Y100030D03*
X114330Y-86920D03*
Y-76920D03*
Y-66920D03*
Y-56920D03*
X103660Y-9970D03*
Y30D03*
Y10030D03*
Y20030D03*
Y30030D03*
Y40030D03*
Y50030D03*
Y60030D03*
Y70030D03*
Y80030D03*
Y90030D03*
Y100030D03*
G54D12*
X-71553Y58866D03*
X-87500Y85220D03*
X-67988Y97562D03*
X-65890Y82420D03*
X-41990Y85220D03*
X45850Y-82710D03*
X78910Y-107740D03*
X62240Y-92960D03*
X71590Y-102460D03*
X81310Y-100250D03*
X63320Y-107320D03*
X73510Y-66850D03*
X73500Y-82220D03*
X88960Y-99650D03*
G54D13*
G01X-116610Y-33392D02*
Y-29940D01*
G01D02*
Y-26488D01*
G01X-120062Y-29940D02*
X-116610D01*
G01D02*
X-113158D01*
G01X103660Y96578D02*
Y100030D01*
G01D02*
Y103482D01*
G01X100208Y100030D02*
X103660D01*
G01D02*
X107112D01*
G01X114330Y-90372D02*
Y-86920D01*
G01D02*
Y-83468D01*
G01X110878Y-86920D02*
X114330D01*
G01D02*
X117782D01*
M02*
