G04 ================== begin FILE IDENTIFICATION RECORD ==================*
G04 Layout Name:  SLEEPTRACK2_PHASE1.brd*
G04 Film Name:    Sleeptrack2_Phase_1_TOP_V1*
G04 File Format:  Gerber RS274X*
G04 File Origin:  Cadence Allegro 17.0-P009*
G04 Origin Date:  Wed Jun 08 23:23:27 2016*
G04 *
G04 Layer:  ETCH/TOP*
G04 Layer:  PIN/TOP*
G04 Layer:  VIA CLASS/TOP*
G04 *
G04 Offset:    (0.00 0.00)*
G04 Mirror:    No*
G04 Mode:      Positive*
G04 Rotation:  0*
G04 FullContactRelief:  No*
G04 UndefLineWidth:     10.00*
G04 ================== end FILE IDENTIFICATION RECORD ====================*
%FSLAX25Y25*MOIN*%
%IR0*IPPOS*OFA0.00000B0.00000*MIA0B0*SFA1.00000B1.00000*%
%ADD17R,.1X.08*%
%ADD15C,.024*%
%ADD11C,.06*%
%ADD19R,.07X.07*%
%ADD18R,.045X.045*%
%ADD12R,.03X.04*%
%ADD16R,.04X.03*%
%ADD21R,.01201X.03201*%
%ADD13R,.04X.025*%
%ADD20R,.06X.07*%
%ADD10C,.135*%
%ADD22R,.06417X.0689*%
%ADD14R,.06299X.0689*%
%ADD23C,.01*%
%ADD24C,.02*%
%ADD25C,.03*%
%ADD26C,.04*%
%ADD27C,.015*%
%ADD28C,.025*%
G75*
%LPD*%
G75*
G54D10*
X-114700Y-114700D03*
Y114700D03*
X114700Y-114700D03*
Y114700D03*
G54D20*
X45750Y111000D03*
X53750D03*
G54D11*
X-116610Y-9940D03*
Y-19940D03*
Y-29940D03*
X-99480Y16270D03*
Y8470D03*
X-114890Y58600D03*
Y68600D03*
Y78600D03*
X-4160Y-9970D03*
Y30D03*
Y10030D03*
Y20030D03*
Y30030D03*
Y40030D03*
Y50030D03*
Y60030D03*
Y70030D03*
Y80030D03*
Y90030D03*
Y100030D03*
X114330Y-86920D03*
Y-76920D03*
Y-66920D03*
Y-56920D03*
X103660Y-9970D03*
Y30D03*
Y10030D03*
Y20030D03*
Y30030D03*
Y40030D03*
Y50030D03*
Y60030D03*
Y70030D03*
Y80030D03*
Y90030D03*
Y100030D03*
G54D21*
X77213Y-97379D03*
X75244D03*
X73276D03*
X71307D03*
Y-85961D03*
X73276D03*
X75244D03*
X77213D03*
G54D12*
X-83250Y79220D03*
Y85220D03*
X-46280Y79220D03*
Y85220D03*
X54910Y-92970D03*
Y-86970D03*
X88960Y-94670D03*
Y-88670D03*
G54D22*
X74260Y-91670D03*
G54D13*
X-72020Y85970D03*
Y82220D03*
Y78470D03*
X-61820D03*
Y85970D03*
G54D23*
G01X74250Y-107320D02*
X78490D01*
X78910Y-107740D01*
G01X75244Y-97379D02*
Y-103826D01*
X74250Y-104820D01*
Y-107320D01*
G01X75244Y-96519D02*
Y-97379D01*
G01X71590Y-102460D02*
Y-101240D01*
X73276Y-99554D01*
Y-97379D01*
G01Y-96615D02*
Y-97379D01*
G01X81310Y-100250D02*
X79530D01*
X77213Y-97933D01*
Y-97379D01*
G01Y-96615D02*
Y-97379D01*
G01X68250Y-107320D02*
X63320D01*
G01X68250D02*
Y-104820D01*
X68105Y-104675D01*
Y-100985D01*
X71307Y-97783D01*
Y-97379D01*
G01Y-96519D02*
Y-97379D01*
G01X62240Y-92960D02*
X57420D01*
X57410Y-92970D01*
X54910D01*
G01X71307Y-85961D02*
Y-83139D01*
X71300Y-83132D01*
Y-81308D01*
X71307Y-81301D01*
Y-77163D01*
X71540Y-76930D01*
X107190D01*
X107200Y-76920D01*
X114330D01*
G01X71307Y-86946D02*
Y-85961D01*
G01X73510Y-66850D02*
X75870D01*
X75970Y-66950D01*
X110300D01*
X110330Y-66920D01*
X114330D01*
G01X73276Y-85961D02*
Y-82444D01*
X73500Y-82220D01*
G01X73276Y-86725D02*
Y-85961D01*
G01X75244Y-86946D02*
Y-85961D01*
G01D02*
Y-84296D01*
X76940Y-82600D01*
X86160D01*
X88960Y-85400D01*
Y-88670D01*
G01Y-94670D02*
Y-99650D01*
G01X114330Y-66920D02*
X121060Y-60190D01*
Y-10895D01*
X110135Y30D01*
X103660D01*
G54D14*
X-74322Y66080D03*
X-59518D03*
G54D24*
G01X-99480Y16270D02*
Y20770D01*
X-99330Y20920D01*
Y62640D01*
X-105290Y68600D01*
X-114890D01*
G54D15*
X-71553Y58866D03*
X-87500Y85220D03*
X-67988Y97562D03*
X-65890Y82420D03*
X-41990Y85220D03*
X45850Y-82710D03*
X78910Y-107740D03*
X62240Y-92960D03*
X71590Y-102460D03*
X81310Y-100250D03*
X63320Y-107320D03*
X73510Y-66850D03*
X73500Y-82220D03*
X88960Y-99650D03*
G54D25*
G01X-72020Y85970D02*
Y88970D01*
G01X-74322Y66080D02*
Y61635D01*
X-71553Y58866D01*
G01X-72020Y78470D02*
Y73827D01*
X-74322Y71525D01*
Y66080D01*
G01X-83250Y85220D02*
X-87500D01*
G01X-72020Y88970D02*
Y95594D01*
X-76620Y100194D01*
Y110130D01*
X-76578Y110172D01*
Y110672D01*
X-72620Y114630D01*
X-72120D01*
G01X-67988Y97562D02*
Y88978D01*
X-66320Y87310D01*
Y82850D01*
X-65890Y82420D01*
G01X-67988Y97562D02*
X-72120Y101694D01*
Y102730D01*
G01X-66120D02*
X-65620D01*
X-61820Y98930D01*
Y85970D01*
G01X-46280Y79220D02*
X-35210D01*
X-31250Y83180D01*
Y114610D01*
G01X-49530Y79220D02*
X-46280D01*
G01X-61820Y78470D02*
X-50530D01*
X-49780Y79220D01*
X-49530D01*
G01X-61820Y78470D02*
Y73827D01*
X-59518Y71525D01*
Y66080D01*
G01X-66120Y114630D02*
X-56720D01*
X-56700Y114610D01*
X-52700D01*
G01X-46700D02*
X-31250D01*
G01D02*
X-18740D01*
X-4160Y100030D01*
G01X54910Y-86970D02*
X50110D01*
X45850Y-82710D01*
G54D16*
X-72120Y114630D03*
Y102730D03*
X-66120Y114630D03*
X-46700Y114610D03*
X-52700D03*
X-66120Y102730D03*
X74250Y-107320D03*
X68250D03*
G54D26*
G01X-114890Y78600D02*
X-87870D01*
X-87250Y79220D01*
X-83250D01*
G54D17*
X9750Y-10000D03*
Y0D03*
Y10000D03*
Y20000D03*
Y30000D03*
Y40000D03*
Y50000D03*
Y60000D03*
Y70000D03*
Y80000D03*
Y90000D03*
Y100000D03*
X89750Y-10000D03*
Y20000D03*
Y10000D03*
Y0D03*
Y50000D03*
Y40000D03*
Y30000D03*
Y80000D03*
Y70000D03*
Y60000D03*
Y100000D03*
Y90000D03*
G54D27*
G01X-116610Y-9940D02*
X-8440D01*
X-8410Y-9970D01*
X-4160D01*
G54D18*
X24750Y30000D03*
X74750Y90000D03*
Y100000D03*
G54D28*
G01X-72020Y78470D02*
X-79250D01*
X-80000Y79220D01*
X-83250D01*
G01Y85220D02*
X-80000D01*
X-79930Y85150D01*
X-78700D01*
X-75770Y82220D01*
X-72020D01*
G01D02*
X-65280D01*
G01X-72020Y88970D02*
X-72000Y88990D01*
G01X-46280Y85220D02*
X-41990D01*
G01X-65280Y82220D02*
X-55500D01*
X-52500Y85220D01*
X-46280D01*
G01X-65890Y82420D02*
X-65480D01*
X-65280Y82220D01*
G01X-50280Y78470D02*
X-49530Y79220D01*
G01X9750Y-10000D02*
X620D01*
X590Y-9970D01*
X-4160D01*
G01Y30D02*
X2970D01*
X3000Y0D01*
X9750D01*
G01X-4160Y10030D02*
X2970D01*
X3000Y10000D01*
X9750D01*
G01X-4160Y20030D02*
X2970D01*
X3000Y20000D01*
X9750D01*
G01X-4160Y40030D02*
X2970D01*
X3000Y40000D01*
X9750D01*
G01X-4160Y50030D02*
X2970D01*
X3000Y50000D01*
X9750D01*
G01X-4160Y30030D02*
X2970D01*
X3000Y30000D01*
X9750D01*
G01Y80000D02*
X620D01*
X590Y80030D01*
X-4160D01*
G01Y60030D02*
X2970D01*
X3000Y60000D01*
X9750D01*
G01X-4160Y70030D02*
X2970D01*
X3000Y70000D01*
X9750D01*
G01X-4160Y90030D02*
X2970D01*
X3000Y90000D01*
X9750D01*
G01X-4160Y100030D02*
X2970D01*
X3000Y100000D01*
X9750D01*
G01X89750Y-10000D02*
X98880D01*
X98910Y-9970D01*
X103660D01*
G01X89750Y0D02*
X98880D01*
X98910Y30D01*
X103660D01*
G01X89750Y10000D02*
X98880D01*
X98910Y10030D01*
X103660D01*
G01X89750Y20000D02*
X98880D01*
X98910Y20030D01*
X103660D01*
G01X89750Y40000D02*
X98880D01*
X98910Y40030D01*
X103660D01*
G01X89750Y30000D02*
X98880D01*
X98910Y30030D01*
X103660D01*
G01X89750Y50000D02*
X98880D01*
X98910Y50030D01*
X103660D01*
G01X89750Y70000D02*
X98880D01*
X98910Y70030D01*
X103660D01*
G01Y60030D02*
X96530D01*
X96500Y60000D01*
X89750D01*
G01X103660Y80030D02*
X96530D01*
X96500Y80000D01*
X89750D01*
G01X103660Y100030D02*
X96530D01*
X96500Y100000D01*
X89750D01*
G01X103660Y90030D02*
X96530D01*
X96500Y90000D01*
X89750D01*
G54D19*
X24750Y70000D03*
Y100000D03*
M02*
