0
SECTION
2
HEADER
9
$ACADVER
1
AC1003
9
$INSBASE
10
0.0
20
0.0
30
0.0
9
$EXTMIN
10
0.000
20
0.000
30
0.0
9
$EXTMAX
10
609.000
20
549.000
30
0.0
9
$LIMMIN
10
0.000
20
0.000
9
$LIMMAX
10
609.000
20
549.000
9
$LTSCALE
40
1.0
9
$LUNITS
70
2
9
$LUPREC
70
3
9
$LIMCHECK
70
0
9
$UCSNAME
2

9
$UCSORG
10
0.0
20
0.0
30
0.0
9
$UCSXDIR
10
1.0
20
0.0
30
0.0
9
$UCSYDIR
10
0.0
20
1.0
30
0.0
9
$WORLDVIEW
70
1
9
$UNITMODE
70
0
0
ENDSEC
0
SECTION
2
TABLES
0
TABLE
2
VPORT
70
1
0
VPORT
2
*ACTIVE
70
0
10
0.0
20
0.0
11
1.0
21
1.0
12
304.500
22
274.500
13
0.0
23
0.0
14
1.0
24
1.0
15
0.0
25
0.0
16
0.0
26
0.0
36
1.0
17
0.0
27
0.0
37
0.0
40
500.0
41
0.901
42
50.0
43
0.0
44
0.0
50
0.0
51
0.0
71
0
72
100
73
1
74
1
75
0
76
0
77
0
78
0
0
ENDTAB
0
TABLE
2
LTYPE
70
1
0
LTYPE
2
CONTINUOUS
70
64
3
Solid line
72
65
73
0
40
0.000
0
ENDTAB
0
TABLE
2
LAYER
70
1
0
LAYER
2
0
70
64
62
7
6
CONTINUOUS
0
ENDTAB
0
ENDSEC
0
SECTION
2
BLOCKS
0
ENDSEC
0
SECTION
2
ENTITIES
0
POLYLINE
8
0
6
CONTINUOUS
66
1
62
250
10
0.0
20
0.0
30
0.000000
0
VERTEX
8
0
10
70.000000
20
503.000000
0
VERTEX
8
0
10
69.100000
20
503.200000
0
VERTEX
8
0
10
57.989805
20
508.510629
0
VERTEX
8
0
10
11.000000
20
509.000000
0
SEQEND
0
POLYLINE
8
0
6
CONTINUOUS
66
1
62
250
10
0.0
20
0.0
30
0.000000
0
VERTEX
8
0
10
71.000000
20
503.000000
0
VERTEX
8
0
10
70.000000
20
503.000000
0
SEQEND
0
POLYLINE
8
0
6
CONTINUOUS
66
1
62
250
10
0.0
20
0.0
30
0.000000
0
VERTEX
8
0
10
72.000000
20
503.000000
0
VERTEX
8
0
10
71.000000
20
503.000000
0
SEQEND
0
POLYLINE
8
0
6
CONTINUOUS
66
1
62
250
10
0.0
20
0.0
30
0.000000
0
VERTEX
8
0
10
72.000000
20
503.000000
0
VERTEX
8
0
10
76.000000
20
506.000000
0
SEQEND
0
POLYLINE
8
0
6
CONTINUOUS
66
1
62
250
10
0.0
20
0.0
30
0.000000
0
VERTEX
8
0
10
71.000000
20
502.000000
0
VERTEX
8
0
10
71.000000
20
503.000000
0
SEQEND
0
POLYLINE
8
0
6
CONTINUOUS
66
1
62
250
10
0.0
20
0.0
30
0.000000
0
VERTEX
8
0
10
154.000000
20
461.000000
0
VERTEX
8
0
10
153.100000
20
461.200000
0
VERTEX
8
0
10
141.986134
20
466.514682
0
VERTEX
8
0
10
108.000000
20
467.000000
0
SEQEND
0
POLYLINE
8
0
6
CONTINUOUS
66
1
62
250
10
0.0
20
0.0
30
0.000000
0
VERTEX
8
0
10
155.000000
20
461.000000
0
VERTEX
8
0
10
154.000000
20
461.000000
0
SEQEND
0
POLYLINE
8
0
6
CONTINUOUS
66
1
62
250
10
0.0
20
0.0
30
0.000000
0
VERTEX
8
0
10
156.000000
20
461.000000
0
VERTEX
8
0
10
155.000000
20
461.000000
0
SEQEND
0
POLYLINE
8
0
6
CONTINUOUS
66
1
62
250
10
0.0
20
0.0
30
0.000000
0
VERTEX
8
0
10
156.000000
20
461.000000
0
VERTEX
8
0
10
160.000000
20
464.000000
0
SEQEND
0
POLYLINE
8
0
6
CONTINUOUS
66
1
62
250
10
0.0
20
0.0
30
0.000000
0
VERTEX
8
0
10
155.000000
20
460.000000
0
VERTEX
8
0
10
155.000000
20
461.000000
0
SEQEND
0
POLYLINE
8
0
6
CONTINUOUS
66
1
62
250
10
0.0
20
0.0
30
0.000000
0
VERTEX
8
0
10
17.000000
20
441.000000
0
VERTEX
8
0
10
17.472973
20
442.662162
0
VERTEX
8
0
10
70.509901
20
500.400990
0
VERTEX
8
0
10
71.000000
20
502.000000
0
SEQEND
0
POLYLINE
8
0
6
CONTINUOUS
66
1
62
250
10
0.0
20
0.0
30
0.000000
0
VERTEX
8
0
10
17.000000
20
440.000000
0
VERTEX
8
0
10
16.000000
20
440.000000
0
SEQEND
0
POLYLINE
8
0
6
CONTINUOUS
66
1
62
250
10
0.0
20
0.0
30
0.000000
0
VERTEX
8
0
10
17.000000
20
440.000000
0
VERTEX
8
0
10
17.000000
20
441.000000
0
SEQEND
0
POLYLINE
8
0
6
CONTINUOUS
66
1
62
250
10
0.0
20
0.0
30
0.000000
0
VERTEX
8
0
10
12.000000
20
437.000000
0
VERTEX
8
0
10
16.000000
20
440.000000
0
SEQEND
0
POLYLINE
8
0
6
CONTINUOUS
66
1
62
250
10
0.0
20
0.0
30
0.000000
0
VERTEX
8
0
10
80.000000
20
434.000000
0
VERTEX
8
0
10
28.009253
20
434.490391
0
VERTEX
8
0
10
18.100000
20
439.200000
0
VERTEX
8
0
10
17.000000
20
440.000000
0
SEQEND
0
POLYLINE
8
0
6
CONTINUOUS
66
1
62
250
10
0.0
20
0.0
30
0.000000
0
VERTEX
8
0
10
386.000000
20
426.000000
0
VERTEX
8
0
10
385.000000
20
427.000000
0
SEQEND
0
POLYLINE
8
0
6
CONTINUOUS
66
1
62
250
10
0.0
20
0.0
30
0.000000
0
VERTEX
8
0
10
386.000000
20
425.000000
0
VERTEX
8
0
10
386.000000
20
426.000000
0
SEQEND
0
POLYLINE
8
0
6
CONTINUOUS
66
1
62
250
10
0.0
20
0.0
30
0.000000
0
VERTEX
8
0
10
387.000000
20
425.000000
0
VERTEX
8
0
10
386.000000
20
425.000000
0
SEQEND
0
POLYLINE
8
0
6
CONTINUOUS
66
1
62
250
10
0.0
20
0.0
30
0.000000
0
VERTEX
8
0
10
380.000000
20
421.000000
0
VERTEX
8
0
10
386.000000
20
425.000000
0
SEQEND
0
POLYLINE
8
0
6
CONTINUOUS
66
1
62
250
10
0.0
20
0.0
30
0.000000
0
VERTEX
8
0
10
115.000000
20
414.000000
0
VERTEX
8
0
10
115.487805
20
415.609756
0
VERTEX
8
0
10
155.000000
20
460.000000
0
SEQEND
0
POLYLINE
8
0
6
CONTINUOUS
66
1
62
250
10
0.0
20
0.0
30
0.000000
0
VERTEX
8
0
10
115.000000
20
413.000000
0
VERTEX
8
0
10
114.000000
20
413.000000
0
SEQEND
0
POLYLINE
8
0
6
CONTINUOUS
66
1
62
250
10
0.0
20
0.0
30
0.000000
0
VERTEX
8
0
10
115.000000
20
413.000000
0
VERTEX
8
0
10
115.000000
20
414.000000
0
SEQEND
0
POLYLINE
8
0
6
CONTINUOUS
66
1
62
250
10
0.0
20
0.0
30
0.000000
0
VERTEX
8
0
10
110.000000
20
410.000000
0
VERTEX
8
0
10
114.000000
20
413.000000
0
SEQEND
0
POLYLINE
8
0
6
CONTINUOUS
66
1
62
250
10
0.0
20
0.0
30
0.000000
0
VERTEX
8
0
10
164.000000
20
407.000000
0
VERTEX
8
0
10
126.012484
20
407.486859
0
VERTEX
8
0
10
116.100000
20
412.200000
0
VERTEX
8
0
10
115.000000
20
413.000000
0
SEQEND
0
POLYLINE
8
0
6
CONTINUOUS
66
1
62
250
10
0.0
20
0.0
30
0.000000
0
VERTEX
8
0
10
577.000000
20
385.000000
0
VERTEX
8
0
10
570.200000
20
399.100000
0
VERTEX
8
0
10
553.760000
20
426.820000
0
VERTEX
8
0
10
544.243902
20
439.195122
0
VERTEX
8
0
10
536.000000
20
450.000000
0
VERTEX
8
0
10
510.000000
20
476.000000
0
VERTEX
8
0
10
498.795082
20
484.754098
0
VERTEX
8
0
10
472.846154
20
502.769231
0
VERTEX
8
0
10
460.100000
20
510.200000
0
VERTEX
8
0
10
425.900000
20
524.700000
0
VERTEX
8
0
10
422.900000
20
525.700000
0
VERTEX
8
0
10
412.000000
20
529.000000
0
VERTEX
8
0
10
408.000000
20
534.000000
0
SEQEND
0
POLYLINE
8
0
6
CONTINUOUS
66
1
62
250
10
0.0
20
0.0
30
0.000000
0
VERTEX
8
0
10
577.000000
20
384.000000
0
VERTEX
8
0
10
577.000000
20
385.000000
0
SEQEND
0
POLYLINE
8
0
6
CONTINUOUS
66
1
62
250
10
0.0
20
0.0
30
0.000000
0
VERTEX
8
0
10
578.000000
20
384.000000
0
VERTEX
8
0
10
577.000000
20
384.000000
0
SEQEND
0
POLYLINE
8
0
6
CONTINUOUS
66
1
62
250
10
0.0
20
0.0
30
0.000000
0
VERTEX
8
0
10
577.000000
20
383.000000
0
VERTEX
8
0
10
577.000000
20
384.000000
0
SEQEND
0
POLYLINE
8
0
6
CONTINUOUS
66
1
62
250
10
0.0
20
0.0
30
0.000000
0
VERTEX
8
0
10
588.000000
20
379.000000
0
VERTEX
8
0
10
578.000000
20
384.000000
0
SEQEND
0
POLYLINE
8
0
6
CONTINUOUS
66
1
62
250
10
0.0
20
0.0
30
0.000000
0
VERTEX
8
0
10
95.000000
20
377.000000
0
VERTEX
8
0
10
94.100000
20
377.200000
0
VERTEX
8
0
10
84.972414
20
381.531034
0
VERTEX
8
0
10
69.000000
20
382.000000
0
SEQEND
0
POLYLINE
8
0
6
CONTINUOUS
66
1
62
250
10
0.0
20
0.0
30
0.000000
0
VERTEX
8
0
10
96.000000
20
377.000000
0
VERTEX
8
0
10
95.000000
20
377.000000
0
SEQEND
0
POLYLINE
8
0
6
CONTINUOUS
66
1
62
250
10
0.0
20
0.0
30
0.000000
0
VERTEX
8
0
10
97.000000
20
377.000000
0
VERTEX
8
0
10
96.000000
20
377.000000
0
SEQEND
0
POLYLINE
8
0
6
CONTINUOUS
66
1
62
250
10
0.0
20
0.0
30
0.000000
0
VERTEX
8
0
10
97.000000
20
377.000000
0
VERTEX
8
0
10
98.000000
20
377.000000
0
VERTEX
8
0
10
100.000000
20
379.000000
0
SEQEND
0
POLYLINE
8
0
6
CONTINUOUS
66
1
62
250
10
0.0
20
0.0
30
0.000000
0
VERTEX
8
0
10
96.000000
20
376.000000
0
VERTEX
8
0
10
96.000000
20
377.000000
0
SEQEND
0
POLYLINE
8
0
6
CONTINUOUS
66
1
62
250
10
0.0
20
0.0
30
0.000000
0
VERTEX
8
0
10
572.000000
20
373.000000
0
VERTEX
8
0
10
573.769231
20
375.153846
0
VERTEX
8
0
10
576.800000
20
382.100000
0
VERTEX
8
0
10
577.000000
20
383.000000
0
SEQEND
0
POLYLINE
8
0
6
CONTINUOUS
66
1
62
250
10
0.0
20
0.0
30
0.000000
0
VERTEX
8
0
10
523.000000
20
369.000000
0
VERTEX
8
0
10
515.230769
20
383.153846
0
VERTEX
8
0
10
503.754098
20
400.795082
0
VERTEX
8
0
10
485.249057
20
422.228302
0
VERTEX
8
0
10
470.771698
20
435.750943
0
VERTEX
8
0
10
459.795082
20
444.754098
0
VERTEX
8
0
10
439.846154
20
457.769231
0
VERTEX
8
0
10
435.900000
20
459.800000
0
VERTEX
8
0
10
401.000000
20
475.000000
0
VERTEX
8
0
10
397.000000
20
475.000000
0
VERTEX
8
0
10
394.100000
20
472.800000
0
VERTEX
8
0
10
393.000000
20
472.000000
0
SEQEND
0
POLYLINE
8
0
6
CONTINUOUS
66
1
62
250
10
0.0
20
0.0
30
0.000000
0
VERTEX
8
0
10
523.000000
20
368.000000
0
VERTEX
8
0
10
523.000000
20
369.000000
0
SEQEND
0
POLYLINE
8
0
6
CONTINUOUS
66
1
62
250
10
0.0
20
0.0
30
0.000000
0
VERTEX
8
0
10
524.000000
20
368.000000
0
VERTEX
8
0
10
523.000000
20
368.000000
0
SEQEND
0
POLYLINE
8
0
6
CONTINUOUS
66
1
62
250
10
0.0
20
0.0
30
0.000000
0
VERTEX
8
0
10
523.000000
20
367.000000
0
VERTEX
8
0
10
523.000000
20
368.000000
0
SEQEND
0
POLYLINE
8
0
6
CONTINUOUS
66
1
62
250
10
0.0
20
0.0
30
0.000000
0
VERTEX
8
0
10
536.000000
20
362.000000
0
VERTEX
8
0
10
524.000000
20
368.000000
0
SEQEND
0
POLYLINE
8
0
6
CONTINUOUS
66
1
62
250
10
0.0
20
0.0
30
0.000000
0
VERTEX
8
0
10
519.000000
20
358.000000
0
VERTEX
8
0
10
520.769231
20
360.153846
0
VERTEX
8
0
10
522.800000
20
366.100000
0
VERTEX
8
0
10
523.000000
20
367.000000
0
SEQEND
0
POLYLINE
8
0
6
CONTINUOUS
66
1
62
250
10
0.0
20
0.0
30
0.000000
0
VERTEX
8
0
10
473.000000
20
353.000000
0
VERTEX
8
0
10
469.200000
20
359.100000
0
VERTEX
8
0
10
456.000000
20
378.000000
0
VERTEX
8
0
10
438.000000
20
396.000000
0
VERTEX
8
0
10
427.820000
20
403.760000
0
VERTEX
8
0
10
409.900000
20
414.800000
0
VERTEX
8
0
10
387.000000
20
425.000000
0
SEQEND
0
POLYLINE
8
0
6
CONTINUOUS
66
1
62
250
10
0.0
20
0.0
30
0.000000
0
VERTEX
8
0
10
474.000000
20
353.000000
0
VERTEX
8
0
10
473.000000
20
353.000000
0
SEQEND
0
POLYLINE
8
0
6
CONTINUOUS
66
1
62
250
10
0.0
20
0.0
30
0.000000
0
VERTEX
8
0
10
473.000000
20
352.000000
0
VERTEX
8
0
10
473.000000
20
353.000000
0
SEQEND
0
POLYLINE
8
0
6
CONTINUOUS
66
1
62
250
10
0.0
20
0.0
30
0.000000
0
VERTEX
8
0
10
75.000000
20
349.000000
0
VERTEX
8
0
10
75.000000
20
352.000000
0
VERTEX
8
0
10
95.508197
20
374.409836
0
VERTEX
8
0
10
96.000000
20
376.000000
0
SEQEND
0
POLYLINE
8
0
6
CONTINUOUS
66
1
62
250
10
0.0
20
0.0
30
0.000000
0
VERTEX
8
0
10
75.000000
20
348.000000
0
VERTEX
8
0
10
74.000000
20
348.000000
0
SEQEND
0
POLYLINE
8
0
6
CONTINUOUS
66
1
62
250
10
0.0
20
0.0
30
0.000000
0
VERTEX
8
0
10
75.000000
20
348.000000
0
VERTEX
8
0
10
75.000000
20
349.000000
0
SEQEND
0
POLYLINE
8
0
6
CONTINUOUS
66
1
62
250
10
0.0
20
0.0
30
0.000000
0
VERTEX
8
0
10
76.000000
20
348.000000
0
VERTEX
8
0
10
75.000000
20
348.000000
0
SEQEND
0
POLYLINE
8
0
6
CONTINUOUS
66
1
62
250
10
0.0
20
0.0
30
0.000000
0
VERTEX
8
0
10
486.000000
20
347.000000
0
VERTEX
8
0
10
474.000000
20
353.000000
0
SEQEND
0
POLYLINE
8
0
6
CONTINUOUS
66
1
62
250
10
0.0
20
0.0
30
0.000000
0
VERTEX
8
0
10
71.000000
20
346.000000
0
VERTEX
8
0
10
73.000000
20
348.000000
0
VERTEX
8
0
10
74.000000
20
348.000000
0
SEQEND
0
POLYLINE
8
0
6
CONTINUOUS
66
1
62
250
10
0.0
20
0.0
30
0.000000
0
VERTEX
8
0
10
470.000000
20
345.000000
0
VERTEX
8
0
10
472.700000
20
350.100000
0
VERTEX
8
0
10
473.000000
20
352.000000
0
SEQEND
0
POLYLINE
8
0
6
CONTINUOUS
66
1
62
250
10
0.0
20
0.0
30
0.000000
0
VERTEX
8
0
10
104.000000
20
343.000000
0
VERTEX
8
0
10
85.023691
20
343.473815
0
VERTEX
8
0
10
77.100000
20
347.200000
0
VERTEX
8
0
10
76.000000
20
348.000000
0
SEQEND
0
POLYLINE
8
0
6
CONTINUOUS
66
1
62
250
10
0.0
20
0.0
30
0.000000
0
VERTEX
8
0
10
149.000000
20
222.000000
0
VERTEX
8
0
10
149.430769
20
215.053846
0
VERTEX
8
0
10
151.300000
20
206.100000
0
VERTEX
8
0
10
157.240000
20
195.180000
0
VERTEX
8
0
10
164.000000
20
186.000000
0
VERTEX
8
0
10
165.820000
20
184.760000
0
VERTEX
8
0
10
177.180000
20
176.240000
0
VERTEX
8
0
10
183.100000
20
173.300000
0
VERTEX
8
0
10
193.911765
20
170.647059
0
VERTEX
8
0
10
195.000000
20
170.000000
0
VERTEX
8
0
10
207.000000
20
170.000000
0
VERTEX
8
0
10
214.911765
20
172.352941
0
VERTEX
8
0
10
224.735294
20
176.441176
0
VERTEX
8
0
10
228.180000
20
178.760000
0
VERTEX
8
0
10
233.000000
20
182.000000
0
VERTEX
8
0
10
242.000000
20
191.000000
0
VERTEX
8
0
10
246.769231
20
198.153846
0
VERTEX
8
0
10
249.200000
20
202.900000
0
VERTEX
8
0
10
252.352941
20
212.911765
0
VERTEX
8
0
10
254.000000
20
222.000000
0
SEQEND
0
POLYLINE
8
0
6
CONTINUOUS
66
1
62
250
10
0.0
20
0.0
30
0.000000
0
VERTEX
8
0
10
318.000000
20
222.000000
0
VERTEX
8
0
10
318.439024
20
214.048780
0
VERTEX
8
0
10
320.300000
20
206.100000
0
VERTEX
8
0
10
326.240000
20
195.180000
0
VERTEX
8
0
10
332.000000
20
187.000000
0
VERTEX
8
0
10
334.820000
20
184.760000
0
VERTEX
8
0
10
346.180000
20
176.240000
0
VERTEX
8
0
10
352.100000
20
173.300000
0
VERTEX
8
0
10
362.911765
20
170.647059
0
VERTEX
8
0
10
364.000000
20
170.000000
0
VERTEX
8
0
10
376.000000
20
170.000000
0
VERTEX
8
0
10
383.911765
20
172.352941
0
VERTEX
8
0
10
393.735294
20
176.441176
0
VERTEX
8
0
10
397.180000
20
178.760000
0
VERTEX
8
0
10
402.000000
20
182.000000
0
VERTEX
8
0
10
411.000000
20
191.000000
0
VERTEX
8
0
10
415.769231
20
198.153846
0
VERTEX
8
0
10
417.800000
20
202.100000
0
VERTEX
8
0
10
421.580000
20
214.060000
0
VERTEX
8
0
10
423.000000
20
222.000000
0
SEQEND
0
POLYLINE
8
0
6
CONTINUOUS
66
1
62
250
10
0.0
20
0.0
30
0.000000
0
VERTEX
8
0
10
221.000000
20
107.000000
0
VERTEX
8
0
10
234.100000
20
100.300000
0
VERTEX
8
0
10
250.911765
20
93.647059
0
VERTEX
8
0
10
278.000000
20
88.000000
0
VERTEX
8
0
10
289.000000
20
88.000000
0
VERTEX
8
0
10
303.932432
20
90.405405
0
VERTEX
8
0
10
322.900000
20
95.300000
0
VERTEX
8
0
10
340.900000
20
103.200000
0
VERTEX
8
0
10
351.000000
20
108.000000
0
SEQEND
0
POLYLINE
8
0
6
CONTINUOUS
66
1
62
250
10
0.0
20
0.0
30
0.000000
0
VERTEX
8
0
10
303.000000
20
15.000000
0
VERTEX
8
0
10
316.932432
20
17.405405
0
VERTEX
8
0
10
341.911765
20
23.352941
0
VERTEX
8
0
10
348.911765
20
25.352941
0
VERTEX
8
0
10
375.900000
20
37.200000
0
VERTEX
8
0
10
379.100000
20
38.800000
0
VERTEX
8
0
10
400.180000
20
52.760000
0
VERTEX
8
0
10
403.153846
20
54.769231
0
VERTEX
8
0
10
425.000000
20
74.000000
0
VERTEX
8
0
10
439.752941
20
91.211765
0
VERTEX
8
0
10
451.800000
20
109.100000
0
VERTEX
8
0
10
454.230769
20
112.846154
0
VERTEX
8
0
10
467.700000
20
140.100000
0
VERTEX
8
0
10
468.700000
20
143.100000
0
VERTEX
8
0
10
476.615385
20
172.076923
0
VERTEX
8
0
10
477.384615
20
175.923077
0
VERTEX
8
0
10
479.527624
20
189.024862
0
VERTEX
8
0
10
481.000000
20
208.000000
0
VERTEX
8
0
10
479.430769
20
231.053846
0
VERTEX
8
0
10
478.569231
20
237.946154
0
VERTEX
8
0
10
472.700000
20
262.900000
0
VERTEX
8
0
10
469.700000
20
272.900000
0
VERTEX
8
0
10
463.800000
20
287.900000
0
VERTEX
8
0
10
462.200000
20
291.100000
0
VERTEX
8
0
10
451.769231
20
310.846154
0
VERTEX
8
0
10
448.230769
20
316.153846
0
VERTEX
8
0
10
436.752212
20
331.783186
0
VERTEX
8
0
10
430.247788
20
339.216814
0
VERTEX
8
0
10
415.216814
20
354.247788
0
VERTEX
8
0
10
407.783186
20
360.752212
0
VERTEX
8
0
10
389.846154
20
373.769231
0
VERTEX
8
0
10
383.100000
20
378.200000
0
VERTEX
8
0
10
359.900000
20
389.700000
0
VERTEX
8
0
10
355.100000
20
391.300000
0
VERTEX
8
0
10
333.923077
20
398.615385
0
VERTEX
8
0
10
325.076923
20
400.384615
0
VERTEX
8
0
10
302.000000
20
404.000000
0
VERTEX
8
0
10
268.000000
20
404.000000
0
VERTEX
8
0
10
246.067568
20
400.594595
0
VERTEX
8
0
10
244.923077
20
400.384615
0
VERTEX
8
0
10
225.900000
20
395.300000
0
VERTEX
8
0
10
216.100000
20
391.700000
0
VERTEX
8
0
10
198.100000
20
383.800000
0
VERTEX
8
0
10
189.900000
20
379.200000
0
VERTEX
8
0
10
173.846154
20
369.230769
0
VERTEX
8
0
10
156.783186
20
355.247788
0
VERTEX
8
0
10
139.752212
20
338.216814
0
VERTEX
8
0
10
126.240000
20
321.820000
0
VERTEX
8
0
10
114.200000
20
301.900000
0
VERTEX
8
0
10
110.800000
20
296.100000
0
VERTEX
8
0
10
104.300000
20
280.900000
0
VERTEX
8
0
10
99.700000
20
268.100000
0
VERTEX
8
0
10
94.615385
20
249.076923
0
VERTEX
8
0
10
91.000000
20
224.000000
0
VERTEX
8
0
10
91.000000
20
195.000000
0
VERTEX
8
0
10
92.439024
20
186.048780
0
VERTEX
8
0
10
95.384615
20
167.076923
0
VERTEX
8
0
10
101.700000
20
144.900000
0
VERTEX
8
0
10
104.700000
20
137.900000
0
VERTEX
8
0
10
112.230769
20
120.153846
0
VERTEX
8
0
10
117.800000
20
110.900000
0
VERTEX
8
0
10
129.769231
20
92.846154
0
VERTEX
8
0
10
139.000000
20
81.000000
0
VERTEX
8
0
10
157.000000
20
63.000000
0
VERTEX
8
0
10
161.788235
20
59.752941
0
VERTEX
8
0
10
171.153846
20
52.230769
0
VERTEX
8
0
10
191.900000
20
38.800000
0
VERTEX
8
0
10
195.900000
20
36.800000
0
VERTEX
8
0
10
219.100000
20
26.300000
0
VERTEX
8
0
10
227.911765
20
23.647059
0
VERTEX
8
0
10
253.067568
20
17.405405
0
VERTEX
8
0
10
257.932432
20
16.594595
0
VERTEX
8
0
10
267.013139
20
15.486131
0
VERTEX
8
0
10
303.000000
20
15.000000
0
SEQEND
0
ENDSEC
0
EOF
