M48
INCH
T01C.013
T02C.035
T03C.036
T04C.13
T05C.1495
;LEADER: 12 
;HEADER: 
;CODE  : ASCII 
;FILE  : SLEEPTRACK2_PHASE3-1-4.drl for  ... layers TOP and BOTTOM
;DESIGN: SLEEPTRACK2_PHASE3_v2.brd
;T01 Holesize 1. = 13.000000 Tolerance = +0.000000/-0.000000 PLATED MILS Quantity = 33
;T02 Holesize 2. = 35.000000 Tolerance = +0.000000/-0.000000 PLATED MILS Quantity = 5
;T03 Holesize 3. = 36.000000 Tolerance = +0.000000/-0.000000 PLATED MILS Quantity = 27
;T04 Holesize 4. = 130.000000 Tolerance = +0.000000/-0.000000 NON_PLATED MILS Quantity = 4
%
G90
T01
X-0070000Y0011960
X-0073960Y0008080
X-0059581Y-0040541
X-0015790Y-0017350
X-0015790Y-0035660
X-0053120Y0091140
X0121500Y0013310
X-0054010Y-0044340
X-0022990Y0023570
X-0026200Y-0063710
X-0006725Y-0059905
X-0000560Y-0056040
X-0069970Y-0006800
X-0056010Y-0012130
X-0041340Y0005140
X-0058064Y0014350
X-0033180Y0004420
X-0067988Y0097562
X-0065890Y0082420
X-0019670Y-0032130
X-0031960Y-0006500
X-0063519Y-0046111
X-0018480Y-0059530
X-0027280Y-0049350
X-0064980Y-0016410
X-0073337Y-0041570
X-0045430Y0023390
X-0010610Y-0064130
X0118700Y-0018090
X-0081590Y0002670
X0113800Y0012450
X-0075960Y-0003620
X-0081790Y-0016750
T02
X-0098560Y0027270
X-0098560Y0035070
X-0114890Y0078600
R02Y-0010000
T03
X-0098250Y-0010150
R02Y0010000
X-0004160Y0100030
R11Y-0010000
X0103660Y0100030
R11Y-0010000
T04
X-0110840Y-0060840
X-0110840Y0110840
X0110840Y0110840
X0110840Y-0060840

M30
