G04 ================== begin FILE IDENTIFICATION RECORD ==================*
G04 Layout Name:  C:/Users/Madison/Desktop/gc/Photon_Dev/Breakout/breakout_2_copy.brd*
G04 Film Name:    Breakout_Soldermask_top_V1*
G04 File Format:  Gerber RS274X*
G04 File Origin:  Cadence Allegro 17.0-P009*
G04 Origin Date:  Mon May 16 00:39:03 2016*
G04 *
G04 Layer:  VIA CLASS/SOLDERMASK_TOP*
G04 Layer:  PIN/SOLDERMASK_TOP*
G04 Layer:  PACKAGE GEOMETRY/SOLDERMASK_TOP*
G04 Layer:  DRC ERROR CLASS/SOLDERMASK_TOP*
G04 Layer:  BOARD GEOMETRY/SOLDERMASK_TOP*
G04 *
G04 Offset:    (0.00 0.00)*
G04 Mirror:    No*
G04 Mode:      Positive*
G04 Rotation:  0*
G04 FullContactRelief:  No*
G04 UndefLineWidth:     10.00*
G04 ================== end FILE IDENTIFICATION RECORD ====================*
%FSLAX25Y25*MOIN*%
%IR0*IPPOS*OFA0.00000B0.00000*MIA0B0*SFA1.00000B1.00000*%
%ADD11R,.0805X.105*%
%AMMACRO18*
4,1,5,-.00551,.0125,
-.00551,-.0125,
.00184,-.0125,
.00551,-.00883,
.00551,.0125,
-.00551,.0125,
0.0*
%
%ADD18MACRO18*%
%ADD14R,.05X.05*%
%ADD10C,.075*%
%ADD13R,.075X.075*%
%ADD17R,.01102X.025*%
%ADD19R,.025X.01102*%
%ADD24R,.03X.055*%
%ADD20R,.031X.046*%
%ADD23R,.01X.03462*%
%ADD12R,.075X.065*%
%ADD22R,.02909X.01024*%
%ADD15R,.02362X.0365*%
%ADD21R,.01024X.02909*%
%ADD16R,.0365X.02362*%
%ADD26O,.04528X.08465*%
%ADD27O,.08465X.04528*%
%ADD25R,.07677X.05512*%
%LPD*%
G75*
G54D10*
X-398500Y-94000D03*
Y94000D03*
X-368500Y-94000D03*
X-378500D03*
X-388500D03*
X-368500Y94000D03*
X-378500D03*
X-388500D03*
X-338500Y-94000D03*
X-348500D03*
X-358500D03*
X-338500Y94000D03*
X-348500D03*
X-358500D03*
X-308500Y-94000D03*
X-318500D03*
X-328500D03*
X-308500Y94000D03*
X-318500D03*
X-328500D03*
X-278500Y-94000D03*
X-288500D03*
X-298500D03*
X-278500Y94000D03*
X-288500D03*
X-298500D03*
X-248500Y-94000D03*
X-258500D03*
X-268500D03*
X-248500Y94000D03*
X-258500D03*
X-268500D03*
X-218500Y-94000D03*
X-228500D03*
X-238500D03*
X-218500Y94000D03*
X-228500D03*
X-238500D03*
X-188500Y-94000D03*
X-198500D03*
X-208500D03*
X-188500Y94000D03*
X-198500D03*
X-208500D03*
X-158500Y-94000D03*
X-168500D03*
X-178500D03*
X-158500Y94000D03*
X-168500D03*
X-178500D03*
X-128500Y-94000D03*
X-138500D03*
X-148500D03*
X-128500Y94000D03*
X-138500D03*
X-148500D03*
X-98500Y-94000D03*
X-108500D03*
X-118500D03*
X-98500Y94000D03*
X-108500D03*
X-118500D03*
X-68500Y-94000D03*
X-78500D03*
X-88500D03*
X-68500Y94000D03*
X-78500D03*
X-88500D03*
X-38500Y-94000D03*
X-48500D03*
X-58500D03*
X-38500Y94000D03*
X-48500D03*
X-58500D03*
X-8500Y-94000D03*
X-18500D03*
X-28500D03*
X-8500Y94000D03*
X-18500D03*
X-28500D03*
X18500Y-94000D03*
X8500D03*
X18500Y94000D03*
X8500D03*
X48500Y-94000D03*
X38500D03*
X28500D03*
X48500Y94000D03*
X38500D03*
X28500D03*
X78500Y-94000D03*
X68500D03*
X58500D03*
X78500Y94000D03*
X68500D03*
X58500D03*
X108500Y-94000D03*
X98500D03*
X88500D03*
X108500Y94000D03*
X98500D03*
X88500D03*
X138500Y-94000D03*
X128500D03*
X118500D03*
X138500Y94000D03*
X128500D03*
X118500D03*
X168500Y-94000D03*
X158500D03*
X148500D03*
X168500Y94000D03*
X158500D03*
X148500D03*
X198500Y-94000D03*
X188500D03*
X178500D03*
X198500Y94000D03*
X188500D03*
X178500D03*
X228500Y-94000D03*
X218500D03*
X208500D03*
X228500Y94000D03*
X218500D03*
X208500D03*
X258500Y-94000D03*
X248500D03*
X238500D03*
X258500Y94000D03*
X248500D03*
X238500D03*
X288500Y-94000D03*
X278500D03*
X268500D03*
X288500Y94000D03*
X278500D03*
X268500D03*
X318500Y-94000D03*
X308500D03*
X298500D03*
X318500Y94000D03*
X308500D03*
X298500D03*
X348500Y-94000D03*
X338500D03*
X328500D03*
X348500Y94000D03*
X338500D03*
X328500D03*
X378500Y-94000D03*
X368500D03*
X358500D03*
X378500Y94000D03*
X368500D03*
X358500D03*
X398500Y-94000D03*
X388500D03*
X398500Y94000D03*
X388500D03*
G54D20*
X-16950Y-5100D03*
X-13200D03*
X-9450D03*
Y5100D03*
X-16950D03*
G54D11*
X-373290Y-40000D03*
X-383290D03*
Y40000D03*
X-373290D03*
X-343290Y-40000D03*
X-353290D03*
X-363290D03*
Y40000D03*
X-353290D03*
X-343290D03*
X-313290Y-40000D03*
X-323290D03*
X-333290D03*
Y40000D03*
X-323290D03*
X-313290D03*
X-283290Y-40000D03*
X-293290D03*
X-303290D03*
Y40000D03*
X-293290D03*
X-283290D03*
X-273290Y-40000D03*
Y40000D03*
G54D21*
X75553Y-8858D03*
X73584D03*
X71616D03*
X69647D03*
X75553Y8858D03*
X73584D03*
X71616D03*
X69647D03*
G54D12*
X-394290Y-4000D03*
Y4000D03*
G54D22*
X78750Y-4921D03*
Y-6890D03*
Y-8858D03*
X66450Y-4921D03*
Y-6890D03*
Y-8858D03*
X78750Y8858D03*
Y6890D03*
Y4921D03*
Y2953D03*
Y984D03*
Y-984D03*
Y-2953D03*
X66450Y8858D03*
Y6890D03*
Y4921D03*
Y2953D03*
Y984D03*
Y-984D03*
Y-2953D03*
G54D13*
X-383290Y-25000D03*
X-353290D03*
G54D23*
X165753Y-4724D03*
X163784D03*
X161816D03*
X159847D03*
Y4724D03*
X161816D03*
X163784D03*
X165753D03*
G54D14*
X-373290Y25000D03*
X-383290D03*
X-313290Y-25000D03*
G54D15*
X-190800Y-19744D03*
X-195800D03*
X-200800D03*
X-205800D03*
Y19744D03*
X-200800D03*
X-195800D03*
X-190800D03*
X-185800Y-19744D03*
Y19744D03*
G54D24*
X197500Y-9750D03*
Y9750D03*
X202500Y-9750D03*
X207500D03*
X212500D03*
X202500Y9750D03*
X207500D03*
X212500D03*
G54D25*
X245000Y0D03*
G54D16*
X-215544Y-10000D03*
Y-5000D03*
Y5000D03*
Y10000D03*
Y0D03*
X-176056Y-5000D03*
Y-10000D03*
Y10000D03*
Y5000D03*
Y0D03*
G54D26*
X345172Y16535D03*
X388872Y0D03*
G54D17*
X-101725Y-5020D03*
X-100032D03*
Y5020D03*
X-98339Y-5020D03*
X-96646D03*
X-94954D03*
X-93261D03*
X-91568D03*
X-89875D03*
Y5020D03*
X-91568D03*
X-93261D03*
X-94954D03*
X-96646D03*
X-98339D03*
G54D27*
X362888Y-9843D03*
X356195Y-19685D03*
X375093Y17717D03*
G54D18*
X-101725Y5020D03*
G54D19*
Y2539D03*
Y846D03*
Y-846D03*
Y-2539D03*
X-89875D03*
Y-846D03*
Y846D03*
Y2539D03*
M02*
