%FSTAX23Y23*%
%MOIN*%
%SFA1B1*%

%IPPOS*%
%ADD37C,0.003940*%
%ADD38C,0.001970*%
%LNaux_bno055-1*%
%LPD*%
G54D37*
X00388Y0005D02*
X00411D01*
X004Y00038D02*
Y00061D01*
X00188Y00075D02*
X00211D01*
X002Y00063D02*
Y00086D01*
X0043Y00148D02*
Y00171D01*
X00418Y0016D02*
X00441D01*
X00278Y00075D02*
X00301D01*
X0029Y00063D02*
Y00086D01*
X0015Y00238D02*
Y00261D01*
X00138Y0025D02*
X00161D01*
X0015Y00348D02*
Y00371D01*
X00138Y0036D02*
X00161D01*
X00262Y00245D02*
X00301D01*
X00282Y00226D02*
Y00265D01*
X0043Y00268D02*
Y00291D01*
X00418Y0028D02*
X00441D01*
G54D38*
X00362Y0003D02*
Y00069D01*
X00437Y0003D02*
Y00069D01*
X00362D02*
X00437D01*
X00362Y0003D02*
X00437D01*
X00237Y00055D02*
Y00094D01*
X00162Y00055D02*
Y00094D01*
Y00055D02*
X00237D01*
X00162Y00094D02*
X00237D01*
X00412Y00124D02*
X00447D01*
X00412Y00195D02*
X00447D01*
X00412Y00124D02*
Y00195D01*
X00447Y00124D02*
Y00195D01*
X00254Y00057D02*
Y00092D01*
X00325Y00057D02*
Y00092D01*
X00254D02*
X00325D01*
X00254Y00057D02*
X00325D01*
X00132Y00214D02*
X00167D01*
X00132Y00285D02*
X00167D01*
X00132Y00214D02*
Y00285D01*
X00167Y00214D02*
Y00285D01*
X00132Y00395D02*
X00167D01*
X00132Y00324D02*
X00167D01*
Y00395*
X00132Y00324D02*
Y00395D01*
X00391Y00108D02*
Y00382D01*
X00172Y00108D02*
Y00382D01*
X00391*
X00172Y00108D02*
X00391D01*
X00412Y00315D02*
X00447D01*
X00412Y00244D02*
X00447D01*
Y00315*
X00412Y00244D02*
Y00315D01*
M02*