%FSTAX23Y23*%
%MOIN*%
%SFA1B1*%

%IPPOS*%
%ADD25C,0.009840*%
%ADD26C,0.007870*%
%ADD27C,0.002500*%
%LNaux_bno055-1*%
%LPD*%
G54D25*
X00257Y00096D02*
D01*
X00257Y00096*
X00257Y00096*
X00257Y00097*
X00257Y00097*
X00257Y00097*
X00257Y00098*
X00256Y00098*
X00256Y00098*
X00256Y00099*
X00256Y00099*
X00256Y00099*
X00255Y00099*
X00255Y001*
X00255Y001*
X00255Y001*
X00254Y001*
X00254Y001*
X00254Y001*
X00253Y001*
X00253Y00101*
X00253Y00101*
X00252Y00101*
X00252*
X00252Y00101*
X00251Y00101*
X00251Y001*
X00251Y001*
X0025Y001*
X0025Y001*
X0025Y001*
X00249Y001*
X00249Y001*
X00249Y00099*
X00249Y00099*
X00248Y00099*
X00248Y00099*
X00248Y00098*
X00248Y00098*
X00248Y00098*
X00248Y00097*
X00247Y00097*
X00247Y00097*
X00247Y00096*
X00247Y00096*
X00247Y00096*
X00247Y00095*
X00247Y00095*
X00247Y00095*
X00247Y00094*
X00248Y00094*
X00248Y00094*
X00248Y00093*
X00248Y00093*
X00248Y00093*
X00248Y00093*
X00249Y00092*
X00249Y00092*
X00249Y00092*
X00249Y00092*
X0025Y00091*
X0025Y00091*
X0025Y00091*
X00251Y00091*
X00251Y00091*
X00251Y00091*
X00252Y00091*
X00252Y00091*
X00252*
X00253Y00091*
X00253Y00091*
X00253Y00091*
X00254Y00091*
X00254Y00091*
X00254Y00091*
X00255Y00091*
X00255Y00092*
X00255Y00092*
X00255Y00092*
X00256Y00092*
X00256Y00093*
X00256Y00093*
X00256Y00093*
X00256Y00093*
X00257Y00094*
X00257Y00094*
X00257Y00094*
X00257Y00095*
X00257Y00095*
X00257Y00095*
X00257Y00096*
G54D26*
X00362Y00354D02*
Y00355D01*
X00332Y00354D02*
X00362D01*
Y00136D02*
Y00137D01*
X00332D02*
X00362D01*
X00201Y00354D02*
Y00355D01*
Y00354D02*
X00231D01*
X002Y00137D02*
X00201Y00137D01*
Y00136D02*
Y00137D01*
X002Y00137D02*
X00231D01*
G54D27*
X00403Y00086D02*
X004Y00089D01*
X00393*
X0039Y00086*
Y00073*
X00393Y0007*
X004*
X00403Y00073*
X00409Y0007D02*
X00416D01*
X00413*
Y00089*
X00409Y00086*
X00133D02*
X0013Y00089D01*
X00123*
X0012Y00086*
Y00073*
X00123Y0007*
X0013*
X00133Y00073*
X00153Y0007D02*
X00139D01*
X00153Y00083*
Y00086*
X00149Y00089*
X00143*
X00139Y00086*
X00068Y00129D02*
X00061D01*
X00065*
Y00113*
X00061Y0011*
X00058*
X00055Y00113*
X00074Y0011D02*
X00081D01*
X00078*
Y00129*
X00074Y00126*
X00135Y0029D02*
Y00309D01*
X00145*
X00148Y00306*
Y003*
X00145Y00296*
X00135*
X00141D02*
X00148Y0029D01*
X00154D02*
X00161D01*
X00158*
Y00309*
X00154Y00306*
X00135Y00405D02*
Y00424D01*
X00145*
X00148Y00421*
Y00415*
X00145Y00411*
X00135*
X00141D02*
X00148Y00405D01*
X00168D02*
X00154D01*
X00168Y00418*
Y00421*
X00164Y00424*
X00158*
X00154Y00421*
X0041Y00215D02*
Y00234D01*
X0042*
X00423Y00231*
Y00225*
X0042Y00221*
X0041*
X00416D02*
X00423Y00215D01*
X00429Y00231D02*
X00433Y00234D01*
X00439*
X00443Y00231*
Y00228*
X00439Y00225*
X00436*
X00439*
X00443Y00221*
Y00218*
X00439Y00215*
X00433*
X00429Y00218*
X00335Y00065D02*
Y00084D01*
X00345*
X00348Y00081*
Y00075*
X00345Y00071*
X00335*
X00341D02*
X00348Y00065D01*
X00364D02*
Y00084D01*
X00354Y00075*
X00368*
X00415Y00095D02*
Y00114D01*
X00425*
X00428Y00111*
Y00105*
X00425Y00101*
X00415*
X00421D02*
X00428Y00095D01*
X00448Y00114D02*
X00434D01*
Y00105*
X00441Y00108*
X00444*
X00448Y00105*
Y00098*
X00444Y00095*
X00438*
X00434Y00098*
X0027Y00249D02*
Y00233D01*
X00273Y0023*
X0028*
X00283Y00233*
Y00249*
X00289Y0023D02*
X00296D01*
X00293*
Y00249*
X00289Y00246*
M02*