G04 ================== begin FILE IDENTIFICATION RECORD ==================*
G04 Layout Name:  SLEEPTRACK2_PHASE3_v2.brd*
G04 Film Name:    Sleeptrack2_Phase_3_Silkscreen_Top_V2*
G04 File Format:  Gerber RS274X*
G04 File Origin:  Cadence Allegro 17.0-P009*
G04 Origin Date:  Sat Oct 29 00:36:46 2016*
G04 *
G04 Layer:  USER PART NUMBER/SILKSCREEN_TOP*
G04 Layer:  TOLERANCE/SILKSCREEN_TOP*
G04 Layer:  REF DES/SILKSCREEN_TOP*
G04 Layer:  PACKAGE GEOMETRY/SILKSCREEN_TOP*
G04 Layer:  DEVICE TYPE/SILKSCREEN_TOP*
G04 Layer:  COMPONENT VALUE/SILKSCREEN_TOP*
G04 Layer:  BOARD GEOMETRY/SILKSCREEN_TOP*
G04 *
G04 Offset:    (0.00 0.00)*
G04 Mirror:    No*
G04 Mode:      Positive*
G04 Rotation:  0*
G04 FullContactRelief:  No*
G04 UndefLineWidth:     10.00*
G04 ================== end FILE IDENTIFICATION RECORD ====================*
%FSLAX55Y55*MOIN*%
%IR0*IPPOS*OFA0.00000B0.00000*MIA0B0*SFA1.00000B1.00000*%
%ADD10C,.01*%
G75*
%LPD*%
G75*
G36*
G01X-107016Y88679D02*
Y48521D01*
X-122764D01*
Y65647D01*
X-132607D01*
Y71553D01*
X-122764D01*
Y88679D01*
X-107016D01*
G37*
G36*
G01X-68900Y62600D02*
X-64900Y65600D01*
X-68900Y68600D01*
Y62600D01*
G37*
G54D10*
G01X-93250Y-15150D02*
X-142450D01*
Y14850D01*
X-93250D01*
Y-15150D01*
G01X-92660Y40570D02*
Y21770D01*
X-122260D01*
Y40570D01*
X-92660D01*
G01X-122260D02*
Y21770D01*
G01D02*
X-92660D01*
G01Y40570D02*
X-122260D01*
G01X-104770Y-14467D02*
X-104460Y-14275D01*
X-104253Y-14045D01*
X-104150Y-13777D01*
X-104253Y-13470D01*
X-104460Y-13240D01*
X-104770Y-13010D01*
X-105183Y-12933D01*
X-107250D01*
G01X-104615Y-11443D02*
X-104357Y-11213D01*
X-104202Y-10945D01*
X-104150Y-10600D01*
X-104253Y-10255D01*
X-104460Y-9987D01*
X-104822Y-9795D01*
X-105235Y-9757D01*
X-105648Y-9833D01*
X-105907Y-10025D01*
X-106113Y-10293D01*
X-106165Y-10562D01*
X-106113Y-10830D01*
X-105907Y-11175D01*
X-107250Y-11060D01*
Y-10025D01*
G01X-90780Y37407D02*
X-91280Y37090D01*
X-91613Y36710D01*
X-91780Y36267D01*
X-91613Y35760D01*
X-91280Y35380D01*
X-90780Y35000D01*
X-90113Y34873D01*
X-86780D01*
G01X-90780Y32433D02*
X-91363Y32053D01*
X-91697Y31547D01*
X-91780Y30977D01*
X-91697Y30470D01*
X-91280Y29963D01*
X-90780Y29647D01*
X-90280Y29583D01*
X-89697Y29710D01*
X-89280Y30153D01*
X-89113Y30597D01*
Y31167D01*
G01Y30597D02*
X-88863Y30217D01*
X-88447Y29900D01*
X-87947Y29773D01*
X-87447Y29900D01*
X-87030Y30217D01*
X-86780Y30787D01*
X-86863Y31357D01*
X-87197Y31927D01*
G01X-92660Y21770D02*
Y40570D01*
G01X-100997Y61400D02*
X-100580Y61906D01*
X-100330Y62476D01*
Y62983D01*
X-100580Y63489D01*
X-100997Y63869D01*
X-101580Y64059D01*
X-102163Y63933D01*
X-102663Y63616D01*
X-102997Y63046D01*
X-103163Y62286D01*
X-103497Y61843D01*
X-104080Y61653D01*
X-104663Y61780D01*
X-105080Y62096D01*
X-105330Y62540D01*
Y62983D01*
X-105163Y63426D01*
X-104747Y63806D01*
G01X-105330Y65928D02*
X-100330Y66814D01*
X-105330Y67827D01*
X-100330Y68841D01*
X-105330Y69727D01*
G01X-100330Y72925D02*
X-105330D01*
X-104330Y72166D01*
G01X-100330D02*
Y73685D01*
G01X-91880Y82180D02*
Y75180D01*
X-81880D01*
Y82180D01*
G01Y93180D02*
Y100180D01*
X-91880D01*
Y98180D01*
Y93180D01*
G01X-44227Y-73412D02*
Y-48215D01*
X-78873D01*
Y-73412D01*
X-44227D01*
G01X-64900Y68600D02*
Y62600D01*
G01X-75266Y60383D02*
X-58534D01*
Y70817D01*
X-75266D01*
Y60383D01*
G01X-70173Y95670D02*
Y92087D01*
X-69920Y91337D01*
X-69413Y90837D01*
X-68780Y90670D01*
X-68147Y90837D01*
X-67640Y91337D01*
X-67387Y92087D01*
Y95670D01*
G01X-63680Y90670D02*
Y95670D01*
X-64440Y94670D01*
G01Y90670D02*
X-62920D01*
G01X-75670Y89720D02*
X-58170D01*
Y74720D01*
X-75670D01*
Y89720D01*
G01X-63170D02*
X-66920Y85970D01*
X-70670Y89720D01*
G01X-69739Y72903D02*
Y77903D01*
X-68473D01*
X-67967Y77653D01*
X-67587Y77320D01*
X-67270Y76820D01*
X-67017Y76236D01*
X-66954Y75403D01*
X-67017Y74570D01*
X-67270Y73986D01*
X-67587Y73486D01*
X-67967Y73153D01*
X-68473Y72903D01*
X-69739D01*
G01X-64641Y73903D02*
X-64262Y73320D01*
X-63755Y72986D01*
X-63185Y72903D01*
X-62679Y72986D01*
X-62172Y73403D01*
X-61856Y73903D01*
X-61792Y74403D01*
X-61919Y74986D01*
X-62362Y75403D01*
X-62805Y75570D01*
X-63375D01*
G01X-62805D02*
X-62425Y75820D01*
X-62109Y76236D01*
X-61982Y76736D01*
X-62109Y77236D01*
X-62425Y77653D01*
X-62995Y77903D01*
X-63565Y77820D01*
X-64135Y77486D01*
G01X-77463Y79853D02*
X-77713Y79533D01*
X-77880Y79160D01*
Y78733D01*
X-77630Y78253D01*
X-77213Y77880D01*
X-76713Y77613D01*
X-75880Y77400D01*
X-75130Y77347D01*
X-74380Y77453D01*
X-73880Y77613D01*
X-73380Y77933D01*
X-73047Y78307D01*
X-72880Y78680D01*
Y79053D01*
X-73047Y79427D01*
X-73297Y79747D01*
X-73630Y80013D01*
G01X-77047Y82067D02*
X-77547Y82387D01*
X-77797Y82760D01*
X-77880Y83187D01*
X-77713Y83720D01*
X-77297Y84093D01*
X-76797Y84200D01*
X-76297Y84147D01*
X-75880Y83933D01*
X-75047Y82867D01*
X-74463Y82387D01*
X-73630Y82067D01*
X-72880Y81960D01*
Y84200D01*
G01X-62747Y113270D02*
X-62080Y115770D01*
X-61413Y113270D01*
G01X-61653Y114145D02*
X-62507D01*
G01X-75503Y115752D02*
X-75663Y115877D01*
X-75850Y115960D01*
X-76063D01*
X-76303Y115835D01*
X-76490Y115627D01*
X-76623Y115377D01*
X-76730Y114960D01*
X-76757Y114585D01*
X-76703Y114210D01*
X-76623Y113960D01*
X-76463Y113710D01*
X-76277Y113543D01*
X-76090Y113460D01*
X-75903D01*
X-75717Y113543D01*
X-75557Y113668D01*
X-75423Y113835D01*
G01X-72620Y117130D02*
X-75120D01*
Y112130D01*
X-74120D01*
G01X-64120D02*
X-63120D01*
Y117130D01*
X-65620D01*
G01X-71787Y105980D02*
Y110980D01*
X-70453D01*
X-70027Y110730D01*
X-69760Y110397D01*
X-69653Y109730D01*
X-69760Y109063D01*
X-70080Y108647D01*
X-70453Y108397D01*
X-71787D01*
G01X-70453D02*
X-69653Y105980D01*
G01X-67333Y110147D02*
X-67013Y110647D01*
X-66640Y110897D01*
X-66213Y110980D01*
X-65680Y110813D01*
X-65307Y110397D01*
X-65200Y109897D01*
X-65253Y109397D01*
X-65467Y108980D01*
X-66533Y108147D01*
X-67013Y107563D01*
X-67333Y106730D01*
X-67440Y105980D01*
X-65200D01*
G01X-65620Y100230D02*
X-63120D01*
Y105230D01*
X-64120D01*
G01X-74120D02*
X-75120D01*
Y100230D01*
X-72620D01*
G01X-71273Y117880D02*
Y122880D01*
X-70207D01*
X-69780Y122630D01*
X-69460Y122297D01*
X-69193Y121797D01*
X-68980Y121213D01*
X-68927Y120380D01*
X-68980Y119547D01*
X-69193Y118963D01*
X-69460Y118463D01*
X-69780Y118130D01*
X-70207Y117880D01*
X-71273D01*
G01X-66713Y122047D02*
X-66393Y122547D01*
X-66020Y122797D01*
X-65593Y122880D01*
X-65060Y122713D01*
X-64687Y122297D01*
X-64580Y121797D01*
X-64633Y121297D01*
X-64847Y120880D01*
X-65913Y120047D01*
X-66393Y119463D01*
X-66713Y118630D01*
X-66820Y117880D01*
X-64580D01*
G01X-37687Y-39060D02*
Y-34060D01*
X-36353D01*
X-35927Y-34310D01*
X-35660Y-34643D01*
X-35553Y-35310D01*
X-35660Y-35977D01*
X-35980Y-36393D01*
X-36353Y-36643D01*
X-37687D01*
G01X-36353D02*
X-35553Y-39060D01*
G01X-33393Y-38060D02*
X-33073Y-38643D01*
X-32647Y-38977D01*
X-32167Y-39060D01*
X-31740Y-38977D01*
X-31313Y-38560D01*
X-31047Y-38060D01*
X-30993Y-37560D01*
X-31100Y-36977D01*
X-31473Y-36560D01*
X-31847Y-36393D01*
X-32327D01*
G01X-31847D02*
X-31527Y-36143D01*
X-31260Y-35727D01*
X-31153Y-35227D01*
X-31260Y-34727D01*
X-31527Y-34310D01*
X-32007Y-34060D01*
X-32487Y-34143D01*
X-32967Y-34477D01*
G01X-32110Y-42860D02*
Y-40360D01*
X-37110D01*
Y-41360D01*
G01Y-51360D02*
Y-52360D01*
X-32110D01*
Y-49860D01*
G01X-45213Y-42880D02*
X-45530Y-42380D01*
X-45910Y-42047D01*
X-46353Y-41880D01*
X-46859Y-42047D01*
X-47239Y-42380D01*
X-47619Y-42880D01*
X-47746Y-43547D01*
Y-46880D01*
G01X-52337Y-41880D02*
Y-46880D01*
X-49995Y-43297D01*
X-53160D01*
G01X-16484Y35134D02*
X-50736D01*
Y69386D01*
X-16484D01*
Y35134D01*
G01X-29260Y58947D02*
X-34260D01*
Y56414D01*
G01X-33593Y53912D02*
X-34010Y53406D01*
X-34260Y52836D01*
Y52329D01*
X-34010Y51823D01*
X-33593Y51443D01*
X-33010Y51253D01*
X-32427Y51379D01*
X-31927Y51696D01*
X-31593Y52266D01*
X-31427Y53026D01*
X-31093Y53469D01*
X-30510Y53659D01*
X-29927Y53532D01*
X-29510Y53216D01*
X-29260Y52772D01*
Y52329D01*
X-29427Y51886D01*
X-29843Y51506D01*
G01X-34260Y47485D02*
X-29260D01*
X-30260Y48244D01*
G01X-34260D02*
Y46725D01*
G01X-46870Y79810D02*
Y72810D01*
X-36870D01*
Y79810D01*
G01X-46200Y112110D02*
X-43700D01*
Y117110D01*
X-44700D01*
G01X-54700D02*
X-55700D01*
Y112110D01*
X-53200D01*
G01X-36870Y90810D02*
Y97810D01*
X-46870D01*
Y95810D01*
Y90810D01*
G01X-52287Y118030D02*
Y123030D01*
X-50953D01*
X-50527Y122780D01*
X-50260Y122447D01*
X-50153Y121780D01*
X-50260Y121113D01*
X-50580Y120697D01*
X-50953Y120447D01*
X-52287D01*
G01X-50953D02*
X-50153Y118030D01*
G01X-46820D02*
Y123030D01*
X-47460Y122030D01*
G01Y118030D02*
X-46180D01*
G01X-30687Y-61347D02*
X-31007Y-61097D01*
X-31380Y-60930D01*
X-31807D01*
X-32287Y-61180D01*
X-32660Y-61597D01*
X-32927Y-62097D01*
X-33140Y-62930D01*
X-33193Y-63680D01*
X-33087Y-64430D01*
X-32927Y-64930D01*
X-32607Y-65430D01*
X-32233Y-65763D01*
X-31860Y-65930D01*
X-31487D01*
X-31113Y-65763D01*
X-30793Y-65513D01*
X-30527Y-65180D01*
G01X-28633Y-64930D02*
X-28313Y-65513D01*
X-27887Y-65847D01*
X-27407Y-65930D01*
X-26980Y-65847D01*
X-26553Y-65430D01*
X-26287Y-64930D01*
X-26233Y-64430D01*
X-26340Y-63847D01*
X-26713Y-63430D01*
X-27087Y-63263D01*
X-27567D01*
G01X-27087D02*
X-26767Y-63013D01*
X-26500Y-62597D01*
X-26393Y-62097D01*
X-26500Y-61597D01*
X-26767Y-61180D01*
X-27247Y-60930D01*
X-27727Y-61013D01*
X-28207Y-61347D01*
G01X-14770Y-66210D02*
X-12270D01*
Y-61210D01*
X-13270D01*
G01X-23270D02*
X-24270D01*
Y-66210D01*
X-21770D01*
G01X-18673Y-35900D02*
Y-39483D01*
X-18420Y-40233D01*
X-17914Y-40733D01*
X-17281Y-40900D01*
X-16647Y-40733D01*
X-16141Y-40233D01*
X-15888Y-39483D01*
Y-35900D01*
G01X-13386Y-36733D02*
X-13006Y-36233D01*
X-12562Y-35983D01*
X-12056Y-35900D01*
X-11423Y-36067D01*
X-10979Y-36483D01*
X-10853Y-36983D01*
X-10916Y-37483D01*
X-11169Y-37900D01*
X-12436Y-38733D01*
X-13006Y-39317D01*
X-13386Y-40150D01*
X-13512Y-40900D01*
X-10853D01*
G01X-9354Y-53966D02*
Y-42154D01*
X-21166D01*
Y-53966D01*
X-9354D01*
G01X-28610Y39760D02*
Y44760D01*
G01X-26110Y42260D02*
X-31110D01*
G01X-32453Y77483D02*
X-32703Y77163D01*
X-32870Y76790D01*
Y76363D01*
X-32620Y75883D01*
X-32203Y75510D01*
X-31703Y75243D01*
X-30870Y75030D01*
X-30120Y74977D01*
X-29370Y75083D01*
X-28870Y75243D01*
X-28370Y75563D01*
X-28037Y75937D01*
X-27870Y76310D01*
Y76683D01*
X-28037Y77057D01*
X-28287Y77377D01*
X-28620Y77643D01*
G01X-27870Y80710D02*
X-32870D01*
X-31870Y80070D01*
G01X-27870D02*
Y81350D01*
G01X-3757Y-40600D02*
Y-35600D01*
X-2423D01*
X-1997Y-35850D01*
X-1730Y-36183D01*
X-1623Y-36850D01*
X-1730Y-37517D01*
X-2050Y-37933D01*
X-2423Y-38183D01*
X-3757D01*
G01X-2423D02*
X-1623Y-40600D01*
G01X2350D02*
Y-35600D01*
X377Y-39183D01*
X3043D01*
G01X1940Y-44560D02*
Y-42060D01*
X-3060D01*
Y-43060D01*
G01Y-53060D02*
Y-54060D01*
X1940D01*
Y-51560D01*
G01X-8727Y-22890D02*
X-8410Y-23390D01*
X-8030Y-23723D01*
X-7587Y-23890D01*
X-7080Y-23723D01*
X-6700Y-23390D01*
X-6320Y-22890D01*
X-6193Y-22223D01*
Y-18890D01*
G01X-2360Y-23890D02*
Y-18890D01*
X-3120Y-19890D01*
G01Y-23890D02*
X-1600D01*
G01X-9660Y-17470D02*
X1340D01*
Y107530D01*
X-9660D01*
Y-17470D01*
G01X89750Y105000D02*
Y117000D01*
X65550D01*
Y120800D01*
X33950D01*
Y117000D01*
X9750D01*
Y105000D01*
G01X24680Y-54960D02*
X26324Y-57732D01*
G01D02*
X27276Y-58970D01*
G01D02*
X28100Y-60050D01*
G01D02*
X30700Y-62650D01*
G01D02*
X31820Y-63525D01*
G01X33175Y-57273D02*
X34623Y-58625D01*
G01D02*
X35720Y-59525D01*
G01D02*
X37715Y-60827D01*
G01X31820Y-63525D02*
X34415Y-65327D01*
G01D02*
X35690Y-66070D01*
G01D02*
X39110Y-67520D01*
G01X34700Y-49550D02*
X34430Y-50060D01*
G01X33100Y-49750D02*
X34300Y-50350D01*
G01X34400Y-50250D02*
Y-50350D01*
G01X34300D02*
X34400D01*
G01D02*
X34780Y-50960D01*
G01X29800Y-50850D02*
X29623Y-51065D01*
G01X28100Y-51250D02*
X29300Y-51850D01*
G01X29400Y-51750D02*
Y-51850D01*
G01X29300D02*
X29400D01*
G01D02*
Y-51950D01*
G01D02*
X30177Y-53365D01*
G01X24500Y-52350D02*
X24323Y-52565D01*
G01X22900Y-52950D02*
X23900Y-53450D01*
G01X24000Y-53350D02*
Y-53450D01*
G01X23900D02*
X24000D01*
G01D02*
Y-53550D01*
G01D02*
X24680Y-54960D01*
G01X24323Y-52565D02*
X24020Y-53260D01*
G01D02*
X24000Y-53350D01*
G01X30177Y-53365D02*
X31325Y-55130D01*
G01D02*
X33175Y-57273D01*
G01X29623Y-51065D02*
X29420Y-51660D01*
G01D02*
X29400Y-51750D01*
G01X34780Y-50960D02*
X36100Y-52850D01*
G01D02*
X37900Y-54650D01*
G01X34430Y-50060D02*
X34400Y-50250D01*
G01X33962Y-32642D02*
X33747Y-33952D01*
G01D02*
X33600Y-35850D01*
G01D02*
X33757Y-38155D01*
G01D02*
X33843Y-38845D01*
G01D02*
X34430Y-41340D01*
G01D02*
X34730Y-42340D01*
G01D02*
X35320Y-43840D01*
G01D02*
X35480Y-44160D01*
G01D02*
X36523Y-46135D01*
G01D02*
X36877Y-46665D01*
G01D02*
X38025Y-48228D01*
G01X72550Y-7713D02*
X72337Y-7505D01*
X72097Y-7380D01*
X71883D01*
X71670Y-7505D01*
X71510Y-7713D01*
X71430Y-8005D01*
X71483Y-8297D01*
X71617Y-8547D01*
X71857Y-8713D01*
X72177Y-8797D01*
X72363Y-8963D01*
X72443Y-9255D01*
X72390Y-9547D01*
X72257Y-9755D01*
X72070Y-9880D01*
X71883D01*
X71697Y-9797D01*
X71537Y-9588D01*
G01X69790Y-7380D02*
Y-9880D01*
G01X67990Y-8505D02*
X67137D01*
X67217Y-8797D01*
X67350Y-8963D01*
X67537Y-9047D01*
X67723Y-9005D01*
X67883Y-8880D01*
X67990Y-8588D01*
X68043Y-8338D01*
Y-8088D01*
X67990Y-7838D01*
X67857Y-7588D01*
X67697Y-7422D01*
X67510Y-7380D01*
X67323Y-7463D01*
X67137Y-7713D01*
G01X65790Y-8505D02*
X64937D01*
X65017Y-8797D01*
X65150Y-8963D01*
X65337Y-9047D01*
X65523Y-9005D01*
X65683Y-8880D01*
X65790Y-8588D01*
X65843Y-8338D01*
Y-8088D01*
X65790Y-7838D01*
X65657Y-7588D01*
X65497Y-7422D01*
X65310Y-7380D01*
X65123Y-7463D01*
X64937Y-7713D01*
G01X63670Y-6547D02*
Y-9047D01*
G01Y-8672D02*
X63537Y-8880D01*
X63403Y-9005D01*
X63190Y-9047D01*
X63003Y-9005D01*
X62817Y-8797D01*
X62737Y-8505D01*
X62710Y-8213D01*
X62737Y-7922D01*
X62817Y-7630D01*
X62977Y-7463D01*
X63190Y-7380D01*
X63377Y-7422D01*
X63563Y-7547D01*
X63670Y-7713D01*
G01X60990Y-9880D02*
Y-7380D01*
G01X61363Y-9047D02*
X60617D01*
G01X59163Y-7380D02*
Y-9047D01*
G01Y-8713D02*
X59030Y-8880D01*
X58897Y-9005D01*
X58710Y-9047D01*
X58577Y-9005D01*
X58417Y-8880D01*
G01X56110Y-7380D02*
Y-9047D01*
G01Y-8755D02*
X56217Y-8922D01*
X56377Y-9005D01*
X56563Y-9047D01*
X56750Y-8963D01*
X56910Y-8797D01*
X57017Y-8547D01*
X57070Y-8213D01*
X57017Y-7880D01*
X56910Y-7630D01*
X56750Y-7463D01*
X56563Y-7380D01*
X56377Y-7422D01*
X56217Y-7547D01*
X56110Y-7713D01*
G01X53963Y-8838D02*
X54150Y-9005D01*
X54310Y-9047D01*
X54523Y-8963D01*
X54683Y-8797D01*
X54790Y-8505D01*
X54817Y-8213D01*
X54790Y-7922D01*
X54683Y-7672D01*
X54523Y-7463D01*
X54310Y-7380D01*
X54123Y-7463D01*
X53963Y-7630D01*
G01X52643Y-7380D02*
Y-9880D01*
G01X51790Y-9047D02*
X52643Y-8088D01*
G01X52297Y-8463D02*
X51737Y-7380D01*
G01X48323D02*
Y-9880D01*
X47683D01*
X47470Y-9755D01*
X47310Y-9463D01*
X47257Y-9130D01*
X47310Y-8797D01*
X47443Y-8547D01*
X47683Y-8422D01*
X48323D01*
G01X46043Y-7380D02*
Y-9880D01*
G01Y-8672D02*
X45910Y-8880D01*
X45777Y-9005D01*
X45563Y-9047D01*
X45403Y-9005D01*
X45217Y-8838D01*
X45137Y-8588D01*
Y-7380D01*
G01X42910D02*
Y-9047D01*
G01Y-8755D02*
X43017Y-8922D01*
X43177Y-9005D01*
X43363Y-9047D01*
X43550Y-8963D01*
X43710Y-8797D01*
X43817Y-8547D01*
X43870Y-8213D01*
X43817Y-7880D01*
X43710Y-7630D01*
X43550Y-7463D01*
X43363Y-7380D01*
X43177Y-7422D01*
X43017Y-7547D01*
X42910Y-7713D01*
G01X41590Y-7672D02*
X41457Y-7505D01*
X41270Y-7380D01*
X41110D01*
X40950Y-7463D01*
X40843Y-7588D01*
X40790Y-7755D01*
X40817Y-8005D01*
X40923Y-8130D01*
X41403Y-8380D01*
X41510Y-8672D01*
X41457Y-8880D01*
X41350Y-9005D01*
X41190Y-9047D01*
X41030Y-9005D01*
X40870Y-8880D01*
G01X39390Y-8505D02*
X38537D01*
X38617Y-8797D01*
X38750Y-8963D01*
X38937Y-9047D01*
X39123Y-9005D01*
X39283Y-8880D01*
X39390Y-8588D01*
X39443Y-8338D01*
Y-8088D01*
X39390Y-7838D01*
X39257Y-7588D01*
X39097Y-7422D01*
X38910Y-7380D01*
X38723Y-7463D01*
X38537Y-7713D01*
G01X35177Y-7880D02*
X35017Y-7588D01*
X34803Y-7422D01*
X34563Y-7380D01*
X34350Y-7422D01*
X34137Y-7630D01*
X34003Y-7880D01*
X33977Y-8130D01*
X34030Y-8422D01*
X34217Y-8630D01*
X34403Y-8713D01*
X34643D01*
G01X34403D02*
X34243Y-8838D01*
X34110Y-9047D01*
X34057Y-9297D01*
X34110Y-9547D01*
X34243Y-9755D01*
X34483Y-9880D01*
X34723Y-9838D01*
X34963Y-9672D01*
G01X37725Y-24171D02*
X36520Y-25960D01*
G01D02*
X36277Y-26335D01*
G01D02*
X34930Y-29060D01*
G01D02*
X34830Y-29360D01*
G01D02*
X34038Y-32258D01*
G01D02*
X33962Y-32642D01*
G01X70993Y-310D02*
Y-2810D01*
X70300Y-727D01*
X69607Y-2810D01*
Y-310D01*
G01X68767D02*
X68100Y-2810D01*
X67433Y-310D01*
G01X67673Y-1185D02*
X68527D01*
G01X66487Y-310D02*
Y-2810D01*
X65953D01*
X65740Y-2685D01*
X65580Y-2518D01*
X65447Y-2268D01*
X65340Y-1977D01*
X65313Y-1560D01*
X65340Y-1143D01*
X65447Y-852D01*
X65580Y-602D01*
X65740Y-435D01*
X65953Y-310D01*
X66487D01*
G01X64020Y-2810D02*
X63380D01*
G01X63700D02*
Y-310D01*
G01X64020D02*
X63380D01*
G01X62060Y-643D02*
X61847Y-435D01*
X61607Y-310D01*
X61393D01*
X61180Y-435D01*
X61020Y-643D01*
X60940Y-935D01*
X60993Y-1227D01*
X61127Y-1477D01*
X61367Y-1643D01*
X61687Y-1727D01*
X61873Y-1893D01*
X61953Y-2185D01*
X61900Y-2477D01*
X61767Y-2685D01*
X61580Y-2810D01*
X61393D01*
X61207Y-2727D01*
X61047Y-2518D01*
G01X59300Y-310D02*
X59513Y-352D01*
X59700Y-518D01*
X59860Y-768D01*
X59967Y-1060D01*
X60020Y-1393D01*
Y-1727D01*
X59967Y-2060D01*
X59860Y-2352D01*
X59700Y-2602D01*
X59513Y-2768D01*
X59300Y-2810D01*
X59087Y-2768D01*
X58900Y-2602D01*
X58740Y-2352D01*
X58633Y-2060D01*
X58580Y-1727D01*
Y-1393D01*
X58633Y-1060D01*
X58740Y-768D01*
X58900Y-518D01*
X59087Y-352D01*
X59300Y-310D01*
G01X57713D02*
Y-2810D01*
X56487Y-310D01*
Y-2810D01*
G01X52700D02*
Y-310D01*
G01X53313Y-2810D02*
X52087D01*
G01X51033Y-310D02*
Y-2810D01*
X50367D01*
X50153Y-2685D01*
X50020Y-2518D01*
X49967Y-2185D01*
X50020Y-1852D01*
X50180Y-1643D01*
X50367Y-1518D01*
X51033D01*
G01X50367D02*
X49967Y-310D01*
G01X48967D02*
X48300Y-2810D01*
X47633Y-310D01*
G01X47873Y-1185D02*
X48727D01*
G01X46100Y-310D02*
Y-1435D01*
X46633Y-2810D01*
G01X45567D02*
X46100Y-1435D01*
G01X44513Y-310D02*
Y-2810D01*
X43287Y-310D01*
Y-2810D01*
G01X42260Y-310D02*
Y-2810D01*
G01X41140D02*
Y-310D01*
G01Y-1560D02*
X42260D01*
G01X40167Y-310D02*
X39500Y-2810D01*
X38833Y-310D01*
G01X39073Y-1185D02*
X39927D01*
G01X37993Y-310D02*
Y-2810D01*
X37300Y-727D01*
X36607Y-2810D01*
Y-310D01*
G01X43100Y-57650D02*
X43200Y-57750D01*
G01X41600Y-62550D02*
X42000D01*
G01X38110Y-61030D02*
X41600Y-62550D01*
G01X42000D02*
X42290Y-62330D01*
G01D02*
X42400Y-62250D01*
G01X37715Y-60827D02*
X38110Y-61030D01*
G01X39110Y-67520D02*
X39410Y-67620D01*
G01D02*
X40500Y-67950D01*
G01D02*
X40900Y-68450D01*
G01X49900Y-37250D02*
X49856Y-36455D01*
G01X43700Y-57150D02*
X43100Y-57550D01*
G01X43000D02*
X43100D01*
G01D02*
Y-57650D01*
G01X40710Y-56530D02*
X43000Y-57550D01*
G01X58882Y-32926D02*
X58400Y-33250D01*
G01D02*
X57500Y-34150D01*
G01D02*
X57023Y-34865D01*
G01D02*
X56780Y-35340D01*
G01D02*
X56465Y-36341D01*
G01D02*
X56300Y-37250D01*
G01X49856Y-36455D02*
X49670Y-35660D01*
G01D02*
X49076Y-34568D01*
G01D02*
X48500Y-33750D01*
G01D02*
X48218Y-33526D01*
G01D02*
X47082Y-32674D01*
G01X41982Y-32926D02*
X41500Y-33250D01*
G01D02*
X40600Y-34150D01*
G01D02*
X40123Y-34865D01*
G01X42715Y-52427D02*
X43390Y-52870D01*
G01X40922Y-51125D02*
X42715Y-52427D01*
G01X43390Y-52870D02*
X45710Y-54020D01*
G01D02*
X46190Y-54180D01*
G01D02*
X48308Y-54912D01*
G01D02*
X49192Y-55088D01*
G01D02*
X51500Y-55450D01*
G01D02*
X54900D01*
G01D02*
X57093Y-55109D01*
G01D02*
X57208Y-55088D01*
G01D02*
X59110Y-54580D01*
G01D02*
X60090Y-54220D01*
G01D02*
X61890Y-53430D01*
G01D02*
X62710Y-52970D01*
G01X37900Y-54650D02*
X38918Y-55426D01*
G01D02*
X40710Y-56530D01*
G01X40123Y-34865D02*
X39920Y-35260D01*
G01D02*
X39542Y-36456D01*
G01D02*
X39400Y-37250D01*
G01X38025Y-48228D02*
X38675Y-48972D01*
G01D02*
X40178Y-50475D01*
G01D02*
X40922Y-51125D01*
G01X67330Y-11393D02*
X67117Y-11185D01*
X66877Y-11060D01*
X66663D01*
X66450Y-11185D01*
X66290Y-11393D01*
X66210Y-11685D01*
X66263Y-11977D01*
X66397Y-12227D01*
X66637Y-12393D01*
X66957Y-12477D01*
X67143Y-12643D01*
X67223Y-12935D01*
X67170Y-13227D01*
X67037Y-13435D01*
X66850Y-13560D01*
X66663D01*
X66477Y-13477D01*
X66317Y-13268D01*
G01X65103Y-13560D02*
Y-11060D01*
X64037D01*
G01X61837D02*
X62903D01*
Y-13560D01*
X61837D01*
G01X62263Y-12352D02*
X62903D01*
G01X59637Y-11060D02*
X60703D01*
Y-13560D01*
X59637D01*
G01X60063Y-12352D02*
X60703D01*
G01X58503Y-11060D02*
Y-13560D01*
X57863D01*
X57650Y-13435D01*
X57490Y-13143D01*
X57437Y-12810D01*
X57490Y-12477D01*
X57623Y-12227D01*
X57863Y-12102D01*
X58503D01*
G01X55770Y-13560D02*
Y-11060D01*
G01X56383Y-13560D02*
X55157D01*
G01X54103Y-11060D02*
Y-13560D01*
X53437D01*
X53223Y-13435D01*
X53090Y-13268D01*
X53037Y-12935D01*
X53090Y-12602D01*
X53250Y-12393D01*
X53437Y-12268D01*
X54103D01*
G01X53437D02*
X53037Y-11060D01*
G01X52037D02*
X51370Y-13560D01*
X50703Y-11060D01*
G01X50943Y-11935D02*
X51797D01*
G01X48583Y-13352D02*
X48743Y-13477D01*
X48930Y-13560D01*
X49143D01*
X49383Y-13435D01*
X49570Y-13227D01*
X49703Y-12977D01*
X49810Y-12560D01*
X49837Y-12185D01*
X49783Y-11810D01*
X49703Y-11560D01*
X49543Y-11310D01*
X49357Y-11143D01*
X49170Y-11060D01*
X48983D01*
X48797Y-11143D01*
X48637Y-11268D01*
X48503Y-11435D01*
G01X47557Y-11060D02*
Y-13560D01*
G01X46543D02*
X47557Y-12018D01*
G01X46383Y-11060D02*
X47103Y-12727D01*
G01X44770Y-10977D02*
X44823Y-11018D01*
Y-11102D01*
X44770Y-11143D01*
X44717Y-11102D01*
Y-11018D01*
X44770Y-10977D01*
G01X42890Y-13560D02*
X42250D01*
G01X42570D02*
Y-11060D01*
G01X42890D02*
X42250D01*
G01X40370D02*
X40583Y-11102D01*
X40770Y-11268D01*
X40930Y-11518D01*
X41037Y-11810D01*
X41090Y-12143D01*
Y-12477D01*
X41037Y-12810D01*
X40930Y-13102D01*
X40770Y-13352D01*
X40583Y-13518D01*
X40370Y-13560D01*
X40157Y-13518D01*
X39970Y-13352D01*
X39810Y-13102D01*
X39703Y-12810D01*
X39650Y-12477D01*
Y-12143D01*
X39703Y-11810D01*
X39810Y-11518D01*
X39970Y-11268D01*
X40157Y-11102D01*
X40370Y-11060D01*
G01X51400Y-16550D02*
X50007Y-16791D01*
G01X59600Y-25750D02*
X58290Y-25080D01*
G01X62200Y-32050D02*
X61000D01*
G01D02*
X60209Y-32285D01*
G01D02*
X59226Y-32694D01*
G01X45409Y-32115D02*
X45300Y-32050D01*
G01X46490Y-32380D02*
X45409Y-32115D01*
G01X45300Y-32050D02*
X44100D01*
G01D02*
X43309Y-32285D01*
G01D02*
X42326Y-32694D01*
G01X58290Y-25080D02*
X56609Y-24415D01*
G01D02*
X53900Y-23850D01*
G01D02*
X52800D01*
G01D02*
X51307Y-24091D01*
G01D02*
X49410Y-24580D01*
G01D02*
X47610Y-25370D01*
G01D02*
X46600Y-25850D01*
G01X50007Y-16791D02*
X47509Y-17385D01*
G01D02*
X46809Y-17585D01*
G01D02*
X44110Y-18770D01*
G01D02*
X43790Y-18930D01*
G01D02*
X41682Y-20326D01*
G01D02*
X41385Y-20527D01*
G01D02*
X39200Y-22450D01*
G01D02*
X37725Y-24171D01*
G01X62510Y-18930D02*
X62110Y-18730D01*
G01D02*
X59790Y-17680D01*
G01D02*
X58909Y-17415D01*
G01D02*
X56393Y-16791D01*
G01D02*
X55907Y-16709D01*
G01D02*
X54999Y-16599D01*
G01D02*
X51400Y-16550D01*
G01X59226Y-32694D02*
X58882Y-32926D01*
G01X47082Y-32674D02*
X46490Y-32380D01*
G01X42326Y-32694D02*
X41982Y-32926D01*
G01X65773Y-6040D02*
Y-3540D01*
X64707D01*
G01X63627Y-6040D02*
Y-4248D01*
X63520Y-3873D01*
X63307Y-3623D01*
X63040Y-3540D01*
X62773Y-3623D01*
X62560Y-3873D01*
X62453Y-4248D01*
Y-6040D01*
G01X60253Y-5832D02*
X60413Y-5957D01*
X60600Y-6040D01*
X60813D01*
X61053Y-5915D01*
X61240Y-5707D01*
X61373Y-5457D01*
X61480Y-5040D01*
X61507Y-4665D01*
X61453Y-4290D01*
X61373Y-4040D01*
X61213Y-3790D01*
X61027Y-3623D01*
X60840Y-3540D01*
X60653D01*
X60467Y-3623D01*
X60307Y-3748D01*
X60173Y-3915D01*
G01X57240Y-6040D02*
X56867Y-3540D01*
X56440Y-6040D01*
X56013Y-3540D01*
X55640Y-6040D01*
G01X54907Y-3540D02*
X54240Y-6040D01*
X53573Y-3540D01*
G01X53813Y-4415D02*
X54667D01*
G01X52600Y-3873D02*
X52387Y-3665D01*
X52147Y-3540D01*
X51933D01*
X51720Y-3665D01*
X51560Y-3873D01*
X51480Y-4165D01*
X51533Y-4457D01*
X51667Y-4707D01*
X51907Y-4873D01*
X52227Y-4957D01*
X52413Y-5123D01*
X52493Y-5415D01*
X52440Y-5707D01*
X52307Y-5915D01*
X52120Y-6040D01*
X51933D01*
X51747Y-5957D01*
X51587Y-5748D01*
G01X49840Y-6040D02*
Y-3540D01*
G01X50453Y-6040D02*
X49227D01*
G01X47960D02*
X47320D01*
G01X47640D02*
Y-3540D01*
G01X47960D02*
X47320D01*
G01X46107D02*
X45440Y-6040D01*
X44773Y-3540D01*
G01X45013Y-4415D02*
X45867D01*
G01X43827Y-6040D02*
Y-4248D01*
X43720Y-3873D01*
X43507Y-3623D01*
X43240Y-3540D01*
X42973Y-3623D01*
X42760Y-3873D01*
X42653Y-4248D01*
Y-6040D01*
G01X41600Y-3540D02*
X40480Y-6040D01*
G01X41600D02*
X40480Y-3540D01*
G01X45047Y117020D02*
Y113437D01*
X45300Y112687D01*
X45807Y112187D01*
X46440Y112020D01*
X47073Y112187D01*
X47580Y112687D01*
X47833Y113437D01*
Y117020D01*
G01X50147Y113020D02*
X50527Y112437D01*
X51033Y112103D01*
X51603Y112020D01*
X52110Y112103D01*
X52617Y112520D01*
X52933Y113020D01*
X52997Y113520D01*
X52870Y114103D01*
X52427Y114520D01*
X51983Y114687D01*
X51413D01*
G01X51983D02*
X52363Y114937D01*
X52680Y115353D01*
X52807Y115853D01*
X52680Y116353D01*
X52363Y116770D01*
X51793Y117020D01*
X51223Y116937D01*
X50653Y116603D01*
G01X73700Y-58450D02*
X78899Y-58499D01*
G01X80500Y-58750D02*
X80100Y-59050D01*
G01X80000D02*
Y-59150D01*
G01Y-59050D02*
X80100D01*
G01X80000Y-59150D02*
X79953Y-59316D01*
G01X66200Y-61050D02*
Y-61150D01*
G01X66100D02*
X65700Y-61450D01*
G01X66100Y-61150D02*
X66200D01*
G01D02*
X66300D01*
G01D02*
X66390Y-61170D01*
G01X74600Y-65250D02*
Y-65350D01*
G01X74500D02*
X74100Y-65650D01*
G01X74500Y-65350D02*
X74600D01*
G01D02*
X74700D01*
G01D02*
X74790Y-65370D01*
G01X79953Y-59316D02*
X74649Y-65090D01*
G01D02*
X74600Y-65250D01*
G01X78899Y-58499D02*
X79890Y-58970D01*
G01D02*
X80000Y-59050D01*
G01X74790Y-65370D02*
X75901Y-65901D01*
G01D02*
X80600Y-65950D01*
G01X66390Y-61170D02*
X67501Y-61701D01*
G01D02*
X70900Y-61750D01*
G01X70151Y-56611D02*
X66200Y-61050D01*
G01X66800Y-37250D02*
X66757Y-36555D01*
G01X71300Y-49350D02*
X73198Y-49397D01*
G01X74600Y-49650D02*
X74400Y-49850D01*
G01X74100D02*
X74200D01*
G01D02*
Y-49950D01*
G01Y-49850D02*
X74300D01*
G01X74200Y-49950D02*
Y-50250D01*
G01X72100Y-52650D02*
Y-52750D01*
G01X72000D02*
X71900D01*
G01X72000D02*
X72100D01*
G01D02*
X72200D01*
G01D02*
X72290Y-52770D01*
G01X65300Y-55750D02*
X69099Y-55799D01*
G01X70700Y-56050D02*
X70300Y-56350D01*
G01X70200D02*
Y-56450D01*
G01Y-56350D02*
X70300D01*
G01X70200Y-56450D02*
X70151Y-56611D01*
G01X72456Y-33655D02*
X72162Y-31758D01*
G01X72290Y-52770D02*
X73203Y-53203D01*
G01D02*
X74800Y-53250D01*
G01X71900Y-52750D02*
X71700Y-52950D01*
G01X74200Y-50250D02*
X72149Y-52491D01*
G01D02*
X72100Y-52650D01*
G01X74400Y-49850D02*
X74300D01*
G01X73198Y-49397D02*
X73990Y-49770D01*
G01D02*
X74100Y-49850D01*
G01X71270Y-43140D02*
X71730Y-41860D01*
G01X70620Y-44660D02*
X71270Y-43140D01*
G01X71730Y-41860D02*
X72238Y-39958D01*
G01D02*
X72600Y-37450D01*
G01D02*
Y-34550D01*
G01D02*
X72456Y-33655D01*
G01X69099Y-55799D02*
X70090Y-56270D01*
G01D02*
X70200Y-56350D01*
G01X66757Y-36555D02*
X66570Y-35660D01*
G01D02*
X65976Y-34568D01*
G01D02*
X65300Y-33650D01*
G01D02*
X65118Y-33526D01*
G01D02*
X63982Y-32674D01*
G01X62710Y-52970D02*
X64315Y-51973D01*
G01D02*
X66022Y-50575D01*
G01D02*
X67725Y-48872D01*
G01D02*
X69076Y-47232D01*
G01D02*
X70280Y-45240D01*
G01D02*
X70620Y-44660D01*
G01X72162Y-31758D02*
X71530Y-29540D01*
G01D02*
X71230Y-28840D01*
G01D02*
X70477Y-27065D01*
G01D02*
X69920Y-26140D01*
G01X62309Y-32115D02*
X62200Y-32050D01*
G01X63390Y-32380D02*
X62309Y-32115D01*
G01X69920Y-26140D02*
X68723Y-24335D01*
G01D02*
X67800Y-23150D01*
G01D02*
X66000Y-21350D01*
G01D02*
X65521Y-21025D01*
G01D02*
X64585Y-20273D01*
G01D02*
X62510Y-18930D01*
G01X63982Y-32674D02*
X63390Y-32380D01*
G01X99223Y-22270D02*
X99540Y-22770D01*
X99920Y-23103D01*
X100363Y-23270D01*
X100870Y-23103D01*
X101250Y-22770D01*
X101630Y-22270D01*
X101757Y-21603D01*
Y-18270D01*
G01X104387Y-19103D02*
X104767Y-18603D01*
X105210Y-18353D01*
X105717Y-18270D01*
X106350Y-18437D01*
X106793Y-18853D01*
X106920Y-19353D01*
X106857Y-19853D01*
X106603Y-20270D01*
X105337Y-21103D01*
X104767Y-21687D01*
X104387Y-22520D01*
X104260Y-23270D01*
X106920D01*
G01X98160Y-17470D02*
X109160D01*
Y107530D01*
X98160D01*
Y-17470D01*
G01X109080Y24627D02*
X109586Y24210D01*
X110156Y23960D01*
X110663D01*
X111169Y24210D01*
X111549Y24627D01*
X111739Y25210D01*
X111613Y25793D01*
X111296Y26293D01*
X110726Y26627D01*
X109966Y26793D01*
X109523Y27127D01*
X109333Y27710D01*
X109460Y28293D01*
X109776Y28710D01*
X110220Y28960D01*
X110663D01*
X111106Y28793D01*
X111486Y28377D01*
G01X113608Y28960D02*
X114494Y23960D01*
X115507Y28960D01*
X116521Y23960D01*
X117407Y28960D01*
G01X119402Y28127D02*
X119782Y28627D01*
X120226Y28877D01*
X120732Y28960D01*
X121365Y28793D01*
X121809Y28377D01*
X121935Y27877D01*
X121872Y27377D01*
X121619Y26960D01*
X120352Y26127D01*
X119782Y25543D01*
X119402Y24710D01*
X119276Y23960D01*
X121935D01*
G01X108920Y48447D02*
X109426Y48030D01*
X109996Y47780D01*
X110503D01*
X111009Y48030D01*
X111389Y48447D01*
X111579Y49030D01*
X111453Y49613D01*
X111136Y50113D01*
X110566Y50447D01*
X109806Y50613D01*
X109363Y50947D01*
X109173Y51530D01*
X109300Y52113D01*
X109616Y52530D01*
X110060Y52780D01*
X110503D01*
X110946Y52613D01*
X111326Y52197D01*
G01X113448Y52780D02*
X114334Y47780D01*
X115347Y52780D01*
X116361Y47780D01*
X117247Y52780D01*
G01X119053Y48780D02*
X119432Y48197D01*
X119939Y47863D01*
X120509Y47780D01*
X121015Y47863D01*
X121522Y48280D01*
X121838Y48780D01*
X121902Y49280D01*
X121775Y49863D01*
X121332Y50280D01*
X120889Y50447D01*
X120319D01*
G01X120889D02*
X121269Y50697D01*
X121585Y51113D01*
X121712Y51613D01*
X121585Y52113D01*
X121269Y52530D01*
X120699Y52780D01*
X120129Y52697D01*
X119559Y52363D01*
G01X122890Y-16357D02*
X117890D01*
Y-15023D01*
X118140Y-14597D01*
X118473Y-14330D01*
X119140Y-14223D01*
X119807Y-14330D01*
X120223Y-14650D01*
X120473Y-15023D01*
Y-16357D01*
G01Y-15023D02*
X122890Y-14223D01*
G01Y-10890D02*
X122807Y-10517D01*
X122557Y-10090D01*
X122140Y-9823D01*
X121557Y-9717D01*
X120973Y-9823D01*
X120473Y-10143D01*
X120223Y-10623D01*
Y-11157D01*
X120057Y-11477D01*
X119640Y-11743D01*
X119057Y-11850D01*
X118473Y-11690D01*
X118057Y-11317D01*
X117890Y-10890D01*
X118057Y-10463D01*
X118473Y-10090D01*
X119057Y-9930D01*
X119640Y-10037D01*
X120057Y-10303D01*
X120223Y-10623D01*
Y-11157D01*
X120473Y-11637D01*
X120973Y-11957D01*
X121557Y-12063D01*
X122140Y-11957D01*
X122557Y-11690D01*
X122807Y-11263D01*
X122890Y-10890D01*
G01X111540Y-16560D02*
Y-19060D01*
X116540D01*
Y-18060D01*
G01Y-8060D02*
Y-7060D01*
X111540D01*
Y-9560D01*
G01X122930Y1993D02*
X117930D01*
Y3327D01*
X118180Y3753D01*
X118513Y4020D01*
X119180Y4127D01*
X119847Y4020D01*
X120263Y3700D01*
X120513Y3327D01*
Y1993D01*
G01Y3327D02*
X122930Y4127D01*
G01X122347Y6553D02*
X122763Y6927D01*
X122930Y7353D01*
X122763Y7780D01*
X122263Y8153D01*
X121513Y8420D01*
X120763Y8527D01*
X119847D01*
X119097Y8420D01*
X118430Y8153D01*
X118097Y7833D01*
X117930Y7460D01*
X118097Y7033D01*
X118430Y6713D01*
X118930Y6500D01*
X119597Y6393D01*
X120180Y6500D01*
X120763Y6767D01*
X121097Y7087D01*
X121180Y7460D01*
X121013Y7887D01*
X120597Y8207D01*
X119847Y8527D01*
G01X116300Y8040D02*
Y10540D01*
X111300D01*
Y9540D01*
G01Y-460D02*
Y-1460D01*
X116300D01*
Y1040D01*
G01X111748Y37106D02*
X122772D01*
Y16634D01*
X111748D01*
Y37106D01*
G01Y60086D02*
X122772D01*
Y39614D01*
X111748D01*
Y60086D01*
M02*
