G04 ================== begin FILE IDENTIFICATION RECORD ==================*
G04 Layout Name:  SLEEPTRACK2_PHASE3.brd*
G04 Film Name:    Sleeptrack2_Phase_2_Manufacturing_V3*
G04 File Format:  Gerber RS274X*
G04 File Origin:  Cadence Allegro 17.0-P009*
G04 Origin Date:  Sun Aug 28 20:15:54 2016*
G04 *
G04 Layer:  BOARD GEOMETRY/OUTLINE*
G04 Layer:  BOARD GEOMETRY/ASSEMBLY_NOTES*
G04 Layer:  BOARD GEOMETRY/TOOLING_CORNERS*
G04 Layer:  BOARD GEOMETRY/DIMENSION*
G04 Layer:  BOARD GEOMETRY/ASSEMBLY_DETAIL*
G04 *
G04 Offset:    (0.00 0.00)*
G04 Mirror:    No*
G04 Mode:      Positive*
G04 Rotation:  0*
G04 FullContactRelief:  No*
G04 UndefLineWidth:     10.00*
G04 ================== end FILE IDENTIFICATION RECORD ====================*
%FSLAX25Y25*MOIN*%
%IR0*IPPOS*OFA0.00000B0.00000*MIA0B0*SFA1.00000B1.00000*%
%ADD10C,.01*%
G75*
%LPD*%
G75*
G54D10*
G01X-204970Y23060D02*
Y35560D01*
X-206830Y33060D01*
G01Y23060D02*
X-203110D01*
G01X-192570Y22643D02*
X-192880Y22852D01*
Y23268D01*
X-192570Y23477D01*
X-192260Y23268D01*
Y22852D01*
X-192570Y22643D01*
G01X-182805Y24518D02*
X-181720Y23477D01*
X-180480Y23060D01*
X-179240Y23477D01*
X-178155Y24726D01*
X-177380Y26602D01*
X-177070Y28477D01*
Y30768D01*
X-177380Y32643D01*
X-178155Y34310D01*
X-179085Y35143D01*
X-180170Y35560D01*
X-181410Y35143D01*
X-182340Y34310D01*
X-182960Y33060D01*
X-183270Y31393D01*
X-182960Y29935D01*
X-182185Y28477D01*
X-181255Y27643D01*
X-180170Y27435D01*
X-178930Y27851D01*
X-178000Y28893D01*
X-177070Y30768D01*
G01X-171180Y24935D02*
X-170250Y23893D01*
X-169165Y23268D01*
X-167770Y23060D01*
X-166375Y23477D01*
X-165290Y24310D01*
X-164515Y25768D01*
X-164360Y27435D01*
X-164670Y29102D01*
X-165445Y30143D01*
X-166530Y30977D01*
X-167615Y31185D01*
X-168700Y30977D01*
X-170095Y30143D01*
X-169630Y35560D01*
X-165445D01*
G01X-135000Y-143100D02*
X-195760D01*
G01X-185760Y-124945D02*
Y-143100D01*
G01X-188260Y-128100D02*
X-185760Y-143100D01*
X-183260Y-128100D01*
X-188260D01*
G01X-198160Y-115987D02*
X-198470Y-115778D01*
Y-115362D01*
X-198160Y-115153D01*
X-197850Y-115362D01*
Y-115778D01*
X-198160Y-115987D01*
G01X-188705Y-110362D02*
X-187620Y-108903D01*
X-186690Y-108070D01*
X-185450Y-107653D01*
X-184365Y-108070D01*
X-183590Y-108903D01*
X-182970Y-110153D01*
X-182815Y-111612D01*
X-182970Y-112862D01*
X-183590Y-114112D01*
X-184520Y-115153D01*
X-185605Y-115570D01*
X-186845Y-115153D01*
X-187930Y-113904D01*
X-188550Y-112028D01*
X-188705Y-109945D01*
X-188395Y-107237D01*
X-187930Y-105778D01*
X-187155Y-104320D01*
X-186070Y-103278D01*
X-184985Y-103070D01*
X-183900Y-103487D01*
X-183125Y-104528D01*
G01X-173360Y-115570D02*
X-172275Y-115362D01*
X-171035Y-114737D01*
X-170260Y-113695D01*
X-169950Y-112237D01*
X-170260Y-110779D01*
X-171190Y-109528D01*
X-172585Y-108903D01*
X-174135D01*
X-175065Y-108487D01*
X-175840Y-107445D01*
X-176150Y-105987D01*
X-175685Y-104528D01*
X-174600Y-103487D01*
X-173360Y-103070D01*
X-172120Y-103487D01*
X-171035Y-104528D01*
X-170570Y-105987D01*
X-170880Y-107445D01*
X-171655Y-108487D01*
X-172585Y-108903D01*
X-174135D01*
X-175530Y-109528D01*
X-176460Y-110779D01*
X-176770Y-112237D01*
X-176460Y-113695D01*
X-175685Y-114737D01*
X-174445Y-115362D01*
X-173360Y-115570D01*
G01X-185760Y-93695D02*
Y-75000D01*
G01X-183260Y-90000D02*
X-185760Y-75000D01*
X-188260Y-90000D01*
X-183260D01*
G01X-135000Y-75000D02*
X-195760D01*
G01X-135000Y-72500D02*
X-196370D01*
G01X-186370Y13685D02*
Y-72500D01*
G01X-188870Y-57500D02*
X-186370Y-72500D01*
X-183870Y-57500D01*
X-188870D01*
G01X-186370Y44935D02*
Y122500D01*
G01X-183870Y107500D02*
X-186370Y122500D01*
X-188870Y107500D01*
X-183870D01*
G01X-135000Y122500D02*
X-196370D01*
G01X-125000Y-153100D02*
Y-170390D01*
G01X-113965Y-160390D02*
X-125000D01*
G01X-110000Y-157890D02*
X-125000Y-160390D01*
X-110000Y-162890D01*
Y-157890D01*
G01X-125000Y-75000D02*
Y-143100D01*
X125000D01*
Y-75000D01*
X-125000D01*
G01D02*
Y-143100D01*
X-38358D01*
Y-75000D01*
X-125000D01*
G01Y122500D02*
Y-72500D01*
G03X-122500Y-75000I2500J0D01*
G01X122500D01*
G03X125000Y-72500I0J2500D01*
G01Y122500D01*
G03X122500Y125000I-2500J0D01*
G01X-122500D01*
G03X-125000Y122500I0J-2500D01*
G01X-99940Y-167057D02*
X-100250Y-166848D01*
Y-166432D01*
X-99940Y-166223D01*
X-99630Y-166432D01*
Y-166848D01*
X-99940Y-167057D01*
G01X-87540Y-166640D02*
X-86455Y-166432D01*
X-85215Y-165807D01*
X-84440Y-164765D01*
X-84130Y-163307D01*
X-84440Y-161849D01*
X-85370Y-160598D01*
X-86765Y-159973D01*
X-88315D01*
X-89245Y-159557D01*
X-90020Y-158515D01*
X-90330Y-157057D01*
X-89865Y-155598D01*
X-88780Y-154557D01*
X-87540Y-154140D01*
X-86300Y-154557D01*
X-85215Y-155598D01*
X-84750Y-157057D01*
X-85060Y-158515D01*
X-85835Y-159557D01*
X-86765Y-159973D01*
X-88315D01*
X-89710Y-160598D01*
X-90640Y-161849D01*
X-90950Y-163307D01*
X-90640Y-164765D01*
X-89865Y-165807D01*
X-88625Y-166432D01*
X-87540Y-166640D01*
G01X-75450D02*
X-75140Y-163932D01*
X-74675Y-161640D01*
X-74055Y-159557D01*
X-73280Y-157265D01*
X-72040Y-154140D01*
X-78240D01*
G01X-61115Y-160390D02*
X-38358D01*
G01Y-153100D02*
Y-170390D01*
G01X-53358Y-162890D02*
X-38358Y-160390D01*
X-53358Y-157890D01*
Y-162890D01*
G01X-38358Y-163100D02*
Y-170600D01*
G01X-2815Y-160600D02*
X-38358D01*
G01X-23358Y-158100D02*
X-38358Y-160600D01*
X-23358Y-163100D01*
Y-158100D01*
G01X-21943Y40453D02*
Y38933D01*
G01X-20860Y39757D02*
X-23027D01*
G01X11210Y-166850D02*
Y-154350D01*
X9350Y-156850D01*
G01Y-166850D02*
X13070D01*
G01X23610Y-167267D02*
X23300Y-167058D01*
Y-166642D01*
X23610Y-166433D01*
X23920Y-166642D01*
Y-167058D01*
X23610Y-167267D01*
G01X33065Y-161642D02*
X34150Y-160183D01*
X35080Y-159350D01*
X36320Y-158933D01*
X37405Y-159350D01*
X38180Y-160183D01*
X38800Y-161433D01*
X38955Y-162892D01*
X38800Y-164142D01*
X38180Y-165392D01*
X37250Y-166433D01*
X36165Y-166850D01*
X34925Y-166433D01*
X33840Y-165184D01*
X33220Y-163308D01*
X33065Y-161225D01*
X33375Y-158517D01*
X33840Y-157058D01*
X34615Y-155600D01*
X35700Y-154558D01*
X36785Y-154350D01*
X37870Y-154767D01*
X38645Y-155808D01*
G01X45000Y-164350D02*
X45930Y-165809D01*
X47170Y-166642D01*
X48565Y-166850D01*
X49805Y-166642D01*
X51045Y-165600D01*
X51820Y-164350D01*
X51975Y-163100D01*
X51665Y-161642D01*
X50580Y-160600D01*
X49495Y-160183D01*
X48100D01*
G01X49495D02*
X50425Y-159558D01*
X51200Y-158517D01*
X51510Y-157267D01*
X51200Y-156017D01*
X50425Y-154975D01*
X49030Y-154350D01*
X47635Y-154558D01*
X46240Y-155392D01*
G01X62435Y-160600D02*
X125000D01*
G01X110000Y-163100D02*
X125000Y-160600D01*
X110000Y-158100D01*
Y-163100D01*
G01X125000Y-153100D02*
Y-170600D01*
M02*
