G04 ================== begin FILE IDENTIFICATION RECORD ==================*
G04 Layout Name:  SLEEPTRACK2_PHASE3_v2.brd*
G04 Film Name:    Sleeptrack2_Phase_3_GND_V2*
G04 File Format:  Gerber RS274X*
G04 File Origin:  Cadence Allegro 17.0-P009*
G04 Origin Date:  Wed Oct 26 22:38:21 2016*
G04 *
G04 Layer:  ETCH/GND*
G04 Layer:  PIN/GND*
G04 Layer:  VIA CLASS/GND*
G04 *
G04 Offset:    (0.00 0.00)*
G04 Mirror:    No*
G04 Mode:      Positive*
G04 Rotation:  0*
G04 FullContactRelief:  No*
G04 UndefLineWidth:     10.00*
G04 ================== end FILE IDENTIFICATION RECORD ====================*
%FSLAX25Y25*MOIN*%
%IR0*IPPOS*OFA0.00000B0.00000*MIA0B0*SFA1.00000B1.00000*%
%ADD10C,.024*%
%ADD12C,.055*%
%ADD11C,.135*%
%ADD13C,.01*%
%ADD14C,.03404*%
%ADD16C,.06504*%
%ADD17C,.15004*%
%ADD15R,.67004X.57904*%
G75*
%LPD*%
G75*
G36*
G01X-124790Y-80120D02*
X-38650D01*
Y-148220D01*
X-124790D01*
Y-80120D01*
G37*
G36*
G01X123999Y-73999D02*
X-123999D01*
Y123999D01*
X123999D01*
Y-73999D01*
G37*
G36*
G01X-36119Y-80120D02*
X125210D01*
Y-148220D01*
X-36119D01*
Y-80120D01*
G37*
%LPC*%
G75*
G54D14*
X-49390Y-125650D03*
X-78810Y-97180D03*
X-77990Y-107800D03*
X-68410Y-118420D03*
X-63239Y-113109D03*
X-55364Y-109330D03*
X-67320Y-140080D03*
X-78910Y-143270D03*
X-74040Y-139240D03*
X-102410Y-113890D03*
X-102390Y-126380D03*
X-97870Y-122430D03*
X-91870Y-110870D03*
X-96180Y-107110D03*
X-81940Y-103540D03*
X-95190Y-134710D03*
X-98330Y-142120D03*
X-88960Y-142600D03*
X-96650Y-131000D03*
X-109480Y-128480D03*
X-85030Y-89030D03*
X-73960Y8080D03*
X-70000Y11960D03*
X-64980Y-16410D03*
X-59581Y-40541D03*
X-45430Y23390D03*
X-10610Y-64130D03*
X-27280Y-49350D03*
X-18480Y-59530D03*
X-15790Y-35660D03*
X-31960Y-6500D03*
X-19670Y-32130D03*
X-15790Y-17350D03*
X118700Y-18090D03*
X113800Y12450D03*
X-63519Y-46111D03*
X-73337Y-41570D03*
X-81790Y-16750D03*
X-75960Y-3620D03*
X-81590Y2670D03*
G54D16*
X-98250Y-10150D03*
X-98560Y27270D03*
X-98250Y9850D03*
Y-150D03*
X-114890Y58600D03*
X-98560Y35070D03*
X-114890Y68600D03*
Y78600D03*
X-4160Y-9970D03*
Y30D03*
Y10030D03*
Y20030D03*
Y30030D03*
Y40030D03*
Y50030D03*
Y60030D03*
Y70030D03*
Y80030D03*
Y90030D03*
Y100030D03*
X103660Y-9970D03*
Y30D03*
Y10030D03*
Y20030D03*
Y30030D03*
Y40030D03*
Y50030D03*
Y60030D03*
Y70030D03*
Y80030D03*
Y90030D03*
Y100030D03*
G54D17*
X-110840Y110840D03*
Y-60840D03*
X110840D03*
Y110840D03*
G54D15*
X49750Y-26050D03*
%LPD*%
G75*
G54D10*
X-109480Y-128480D03*
X-117120Y-132030D03*
X-117030Y-121850D03*
X-95190Y-134710D03*
X-96650Y-131000D03*
X-98330Y-142120D03*
X-85290Y-135120D03*
X-88960Y-142600D03*
X-96180Y-107110D03*
X-81940Y-103540D03*
X-102410Y-113890D03*
X-102390Y-126380D03*
X-84200Y-109300D03*
X-97870Y-122430D03*
X-91870Y-110870D03*
X-85030Y-89030D03*
X-81790Y-16750D03*
X-81590Y2670D03*
X-67320Y-140080D03*
X-78910Y-143270D03*
X-74040Y-139240D03*
X-68400Y-133960D03*
X-77990Y-107800D03*
X-68410Y-118420D03*
X-63239Y-113109D03*
X-70117Y-109430D03*
X-67990Y-123490D03*
X-55364Y-109330D03*
X-78810Y-97180D03*
X-73337Y-41570D03*
X-63519Y-46111D03*
X-59581Y-40541D03*
X-64980Y-16410D03*
X-56010Y-12130D03*
X-69970Y-6800D03*
X-75960Y-3620D03*
X-58064Y14350D03*
X-73960Y8080D03*
X-70000Y11960D03*
X-65890Y82420D03*
X-67988Y97562D03*
X-49390Y-125650D03*
X-54010Y-44340D03*
X-31960Y-6500D03*
X-33180Y4420D03*
X-41340Y5140D03*
X-45430Y23390D03*
X-53120Y91140D03*
X-10610Y-64130D03*
X-18480Y-59530D03*
X-6725Y-59905D03*
X-26200Y-63710D03*
X-27280Y-49350D03*
X-19670Y-32130D03*
X-15790Y-35660D03*
Y-17350D03*
X-22990Y23570D03*
X-560Y-56040D03*
X113800Y12450D03*
X118700Y-18090D03*
X121500Y13310D03*
G54D11*
X-110840Y-60840D03*
Y110840D03*
X110840Y-60840D03*
Y110840D03*
G54D12*
X-114890Y58600D03*
Y68600D03*
Y78600D03*
X-98250Y-10150D03*
Y9850D03*
Y-150D03*
X-98560Y35070D03*
Y27270D03*
X-4160Y-9970D03*
Y30D03*
Y10030D03*
Y20030D03*
Y30030D03*
Y40030D03*
Y50030D03*
Y60030D03*
Y70030D03*
Y80030D03*
Y90030D03*
Y100030D03*
X103660Y-9970D03*
Y30D03*
Y10030D03*
Y20030D03*
Y30030D03*
Y40030D03*
Y50030D03*
Y60030D03*
Y70030D03*
Y80030D03*
Y90030D03*
Y100030D03*
G54D13*
G01X-98250Y-3602D02*
Y-150D01*
G01D02*
Y3302D01*
G01X-101702Y-150D02*
X-98250D01*
G01D02*
X-94798D01*
G01X-98560Y23818D02*
Y27270D01*
G01D02*
Y30722D01*
G01X-102012Y27270D02*
X-98560D01*
G01D02*
X-95108D01*
G01X-7612Y90030D02*
X-4160D01*
G01Y86578D02*
Y90030D01*
G01D02*
Y93482D01*
G01Y90030D02*
X-708D01*
G01X103660Y66578D02*
Y70030D01*
G01D02*
Y73482D01*
G01X100208Y70030D02*
X103660D01*
G01D02*
X107112D01*
M02*
