G04 ================== begin FILE IDENTIFICATION RECORD ==================*
G04 Layout Name:  SLEEPTRACK2_PHASE3.brd*
G04 Film Name:    Sleeptrack2_Phase_2_Silkscreen_Bottom_V3*
G04 File Format:  Gerber RS274X*
G04 File Origin:  Cadence Allegro 17.0-P009*
G04 Origin Date:  Sun Aug 28 20:15:54 2016*
G04 *
G04 Layer:  USER PART NUMBER/SILKSCREEN_BOTTOM*
G04 Layer:  TOLERANCE/SILKSCREEN_BOTTOM*
G04 Layer:  REF DES/SILKSCREEN_BOTTOM*
G04 Layer:  PACKAGE GEOMETRY/SILKSCREEN_BOTTOM*
G04 Layer:  DEVICE TYPE/SILKSCREEN_BOTTOM*
G04 Layer:  COMPONENT VALUE/SILKSCREEN_BOTTOM*
G04 Layer:  BOARD GEOMETRY/SILKSCREEN_BOTTOM*
G04 *
G04 Offset:    (0.00 0.00)*
G04 Mirror:    No*
G04 Mode:      Positive*
G04 Rotation:  0*
G04 FullContactRelief:  No*
G04 UndefLineWidth:     10.00*
G04 ================== end FILE IDENTIFICATION RECORD ====================*
%FSLAX25Y25*MOIN*%
%IR0*IPPOS*OFA0.00000B0.00000*MIA0B0*SFA1.00000B1.00000*%
%ADD10C,.01*%
G75*
%LPD*%
G75*
G54D10*
G01X-88910Y5580D02*
X-89910D01*
Y10580D01*
X-87410D01*
G01X-88980Y16950D02*
X-89980D01*
Y21950D01*
X-87480D01*
G01X-88910Y-5470D02*
X-89910D01*
Y-470D01*
X-87410D01*
G01X-66824Y-6130D02*
Y8830D01*
G01X-47336Y-6130D02*
X-66824D01*
G01X-77200Y5343D02*
X-72200D01*
Y6677D01*
X-72450Y7103D01*
X-72783Y7370D01*
X-73450Y7477D01*
X-74117Y7370D01*
X-74533Y7050D01*
X-74783Y6677D01*
Y5343D01*
G01Y6677D02*
X-77200Y7477D01*
G01Y10703D02*
X-76117Y10810D01*
X-75200Y10970D01*
X-74367Y11183D01*
X-73450Y11450D01*
X-72200Y11877D01*
Y9743D01*
G01X-80410Y10580D02*
X-77910D01*
Y5580D01*
X-78910D01*
G01X-76280Y16623D02*
X-71280D01*
Y17957D01*
X-71530Y18383D01*
X-71863Y18650D01*
X-72530Y18757D01*
X-73197Y18650D01*
X-73613Y18330D01*
X-73863Y17957D01*
Y16623D01*
G01Y17957D02*
X-76280Y18757D01*
G01X-74197Y21077D02*
X-73613Y21450D01*
X-73280Y21770D01*
X-73113Y22197D01*
X-73280Y22570D01*
X-73613Y22837D01*
X-74113Y23050D01*
X-74697Y23103D01*
X-75197Y23050D01*
X-75697Y22837D01*
X-76113Y22517D01*
X-76280Y22143D01*
X-76113Y21717D01*
X-75613Y21343D01*
X-74863Y21130D01*
X-74030Y21077D01*
X-72947Y21183D01*
X-72363Y21343D01*
X-71780Y21610D01*
X-71363Y21983D01*
X-71280Y22357D01*
X-71447Y22730D01*
X-71863Y22997D01*
G01X-80480Y21950D02*
X-77980D01*
Y16950D01*
X-78980D01*
G01X-72927Y-3017D02*
X-72677Y-3337D01*
X-72510Y-3710D01*
Y-4137D01*
X-72760Y-4617D01*
X-73177Y-4990D01*
X-73677Y-5257D01*
X-74510Y-5470D01*
X-75260Y-5523D01*
X-76010Y-5417D01*
X-76510Y-5257D01*
X-77010Y-4937D01*
X-77343Y-4563D01*
X-77510Y-4190D01*
Y-3817D01*
X-77343Y-3443D01*
X-77093Y-3123D01*
X-76760Y-2857D01*
G01X-77510Y850D02*
X-72510D01*
X-76093Y-1123D01*
Y1543D01*
G01X-80410Y-470D02*
X-77910D01*
Y-5470D01*
X-78910D01*
G01X-64410Y16890D02*
X-66910D01*
Y21890D01*
X-65910D01*
G01X-55910D02*
X-54910D01*
Y16890D01*
X-57410D01*
G01X-66824Y8830D02*
X-47336D01*
G01X-59493Y28813D02*
X-59173Y29063D01*
X-58800Y29230D01*
X-58373D01*
X-57893Y28980D01*
X-57520Y28563D01*
X-57253Y28063D01*
X-57040Y27230D01*
X-56987Y26480D01*
X-57093Y25730D01*
X-57253Y25230D01*
X-57573Y24730D01*
X-57947Y24397D01*
X-58320Y24230D01*
X-58693D01*
X-59067Y24397D01*
X-59387Y24647D01*
X-59653Y24980D01*
G01X-61547D02*
X-61867Y24563D01*
X-62240Y24313D01*
X-62720Y24230D01*
X-63200Y24397D01*
X-63573Y24730D01*
X-63840Y25313D01*
X-63893Y25980D01*
X-63787Y26647D01*
X-63520Y27063D01*
X-63147Y27397D01*
X-62773Y27480D01*
X-62400Y27397D01*
X-61920Y27063D01*
X-62080Y29230D01*
X-63520D01*
G01X-35229Y-38820D02*
Y-36570D01*
X-33963Y-33820D01*
G01X-36496D02*
X-35229Y-36570D01*
G01X-40327Y-38820D02*
Y-33820D01*
X-39568Y-34820D01*
G01Y-38820D02*
X-41087D01*
G01X-22872Y-17090D02*
Y-32050D01*
X-54368D01*
Y-17090D01*
X-22872D01*
G01X-47336Y8830D02*
Y-6130D01*
G01X-38070Y16890D02*
Y14390D01*
X-43070D01*
Y15390D01*
G01X-47157Y14540D02*
Y10957D01*
X-47410Y10207D01*
X-47916Y9707D01*
X-48549Y9540D01*
X-49183Y9707D01*
X-49689Y10207D01*
X-49942Y10957D01*
Y14540D01*
G01X-54407Y9540D02*
Y14540D01*
X-52065Y10957D01*
X-55230D01*
G01X-35073Y27830D02*
Y32830D01*
X-36407D01*
X-36833Y32580D01*
X-37100Y32247D01*
X-37207Y31580D01*
X-37100Y30913D01*
X-36780Y30497D01*
X-36407Y30247D01*
X-35073D01*
G01X-36407D02*
X-37207Y27830D01*
G01X-40540D02*
Y32830D01*
X-39900Y31830D01*
G01Y27830D02*
X-41180D01*
G01X-44940Y32830D02*
X-44513Y32663D01*
X-44193Y32247D01*
X-43980Y31747D01*
X-43820Y31080D01*
X-43767Y30330D01*
X-43820Y29580D01*
X-43980Y28913D01*
X-44193Y28413D01*
X-44513Y27997D01*
X-44940Y27830D01*
X-45367Y27997D01*
X-45687Y28413D01*
X-45900Y28913D01*
X-46060Y29580D01*
X-46113Y30330D01*
X-46060Y31080D01*
X-45900Y31747D01*
X-45687Y32247D01*
X-45367Y32663D01*
X-44940Y32830D01*
G01X-43070Y25390D02*
Y26390D01*
X-38070D01*
Y23890D01*
G01X-25440Y16890D02*
Y14390D01*
X-30440D01*
Y15390D01*
G01X-24653Y27970D02*
Y32970D01*
X-25987D01*
X-26413Y32720D01*
X-26680Y32387D01*
X-26787Y31720D01*
X-26680Y31053D01*
X-26360Y30637D01*
X-25987Y30387D01*
X-24653D01*
G01X-25987D02*
X-26787Y27970D01*
G01X-28947Y28720D02*
X-29267Y28303D01*
X-29640Y28053D01*
X-30120Y27970D01*
X-30600Y28137D01*
X-30973Y28470D01*
X-31240Y29053D01*
X-31293Y29720D01*
X-31187Y30387D01*
X-30920Y30803D01*
X-30547Y31137D01*
X-30173Y31220D01*
X-29800Y31137D01*
X-29320Y30803D01*
X-29480Y32970D01*
X-30920D01*
G01X-30440Y25390D02*
Y26390D01*
X-25440D01*
Y23890D01*
M02*
