G04 ================== begin FILE IDENTIFICATION RECORD ==================*
G04 Layout Name:  SLEEPTRACK2_PHASE3_v2.brd*
G04 Film Name:    Sleeptrack2_Phase_3_VCC_V2*
G04 File Format:  Gerber RS274X*
G04 File Origin:  Cadence Allegro 17.0-P009*
G04 Origin Date:  Sat Oct 29 00:36:46 2016*
G04 *
G04 Layer:  ETCH/VCC*
G04 Layer:  PIN/VCC*
G04 Layer:  VIA CLASS/VCC*
G04 *
G04 Offset:    (0.00 0.00)*
G04 Mirror:    No*
G04 Mode:      Positive*
G04 Rotation:  0*
G04 FullContactRelief:  No*
G04 UndefLineWidth:     10.00*
G04 ================== end FILE IDENTIFICATION RECORD ====================*
%FSLAX55Y55*MOIN*%
%IR0*IPPOS*OFA0.00000B0.00000*MIA0B0*SFA1.00000B1.00000*%
%ADD12C,.024*%
%ADD11C,.055*%
%ADD10C,.135*%
%ADD13C,.01*%
%ADD14C,.03404*%
%ADD16C,.06504*%
%ADD17C,.15004*%
%ADD15R,.67004X.57904*%
G75*
%LPD*%
G75*
G36*
G01X-123999Y123999D02*
X123999D01*
Y-73999D01*
X-123999D01*
Y123999D01*
G37*
%LPC*%
G75*
G54D14*
X-53120Y91140D03*
X121500Y13310D03*
X-58064Y14350D03*
X-73960Y8080D03*
X-70000Y11960D03*
X-54010Y-44340D03*
X-59581Y-40541D03*
X-67988Y97562D03*
X-56010Y-12130D03*
X-41340Y5140D03*
X-65890Y82420D03*
X-26200Y-63710D03*
X-27280Y-49350D03*
X-18480Y-59530D03*
X-15790Y-35660D03*
X-31960Y-6500D03*
X-19670Y-32130D03*
X-15790Y-17350D03*
X-33180Y4420D03*
X-22990Y23570D03*
X-560Y-56040D03*
X-6725Y-59905D03*
X-63519Y-46111D03*
X-81790Y-16750D03*
X-69970Y-6800D03*
G54D16*
X-98250Y-10150D03*
X-98560Y27270D03*
X-98250Y9850D03*
Y-150D03*
X-114890Y58600D03*
X-98560Y35070D03*
X-114890Y68600D03*
Y78600D03*
X-4160Y-9970D03*
Y30D03*
Y10030D03*
Y20030D03*
Y30030D03*
Y40030D03*
Y50030D03*
Y60030D03*
Y70030D03*
Y80030D03*
Y90030D03*
Y100030D03*
X103660Y-9970D03*
Y30D03*
Y10030D03*
Y20030D03*
Y30030D03*
Y40030D03*
Y50030D03*
Y60030D03*
Y70030D03*
Y80030D03*
Y90030D03*
Y100030D03*
G54D17*
X-110840Y110840D03*
Y-60840D03*
X110840D03*
Y110840D03*
G54D15*
X49750Y-26050D03*
%LPD*%
G75*
G54D10*
X-110840Y-60840D03*
Y110840D03*
X110840Y-60840D03*
Y110840D03*
G54D11*
X-114890Y58600D03*
Y68600D03*
Y78600D03*
X-98250Y-10150D03*
Y9850D03*
Y-150D03*
X-98560Y35070D03*
Y27270D03*
X-4160Y-9970D03*
Y30D03*
Y10030D03*
Y20030D03*
Y30030D03*
Y40030D03*
Y50030D03*
Y60030D03*
Y70030D03*
Y80030D03*
Y90030D03*
Y100030D03*
X103660Y-9970D03*
Y30D03*
Y10030D03*
Y20030D03*
Y30030D03*
Y40030D03*
Y50030D03*
Y60030D03*
Y70030D03*
Y80030D03*
Y90030D03*
Y100030D03*
G54D12*
X-73337Y-41570D03*
X-63519Y-46111D03*
X-59581Y-40541D03*
X-81790Y-16750D03*
X-64980Y-16410D03*
X-69970Y-6800D03*
X-75960Y-3620D03*
X-81590Y2670D03*
X-58064Y14350D03*
X-73960Y8080D03*
X-70000Y11960D03*
X-65890Y82420D03*
X-67988Y97562D03*
X-54010Y-44340D03*
X-56010Y-12130D03*
X-41340Y5140D03*
X-45430Y23390D03*
X-53120Y91140D03*
X-10610Y-64130D03*
X-18480Y-59530D03*
X-26200Y-63710D03*
X-27280Y-49350D03*
X-19670Y-32130D03*
X-15790Y-35660D03*
Y-17350D03*
X-31960Y-6500D03*
X-33180Y4420D03*
X-22990Y23570D03*
X-560Y-56040D03*
X-6725Y-59905D03*
X118700Y-18090D03*
X113800Y12450D03*
X121500Y13310D03*
G54D13*
G01X-98250Y6398D02*
Y9850D01*
G01D02*
Y13302D01*
G01X-101702Y9850D02*
X-98250D01*
G01D02*
X-94798D01*
G01X103660Y96578D02*
Y100030D01*
G01D02*
Y103482D01*
G01X100208Y100030D02*
X103660D01*
G01D02*
X107112D01*
M02*
