G04 ================== begin FILE IDENTIFICATION RECORD ==================*
G04 Layout Name:  SLEEPTRACK2_PHASE3_v2.brd*
G04 Film Name:    Sleeptrack2_Phase_3_TOP_V2*
G04 File Format:  Gerber RS274X*
G04 File Origin:  Cadence Allegro 17.0-P009*
G04 Origin Date:  Wed Oct 26 22:38:20 2016*
G04 *
G04 Layer:  ETCH/TOP*
G04 Layer:  PIN/TOP*
G04 Layer:  VIA CLASS/TOP*
G04 *
G04 Offset:    (0.00 0.00)*
G04 Mirror:    No*
G04 Mode:      Positive*
G04 Rotation:  0*
G04 FullContactRelief:  No*
G04 UndefLineWidth:     10.00*
G04 ================== end FILE IDENTIFICATION RECORD ====================*
%FSLAX25Y25*MOIN*%
%IR0*IPPOS*OFA0.00000B0.00000*MIA0B0*SFA1.00000B1.00000*%
%ADD19R,.06969X.09724*%
%ADD29R,.1X.08*%
%ADD14C,.06*%
%ADD11C,.024*%
%ADD17R,.06X.06*%
%ADD31R,.07X.07*%
%ADD16R,.03X.00984*%
%ADD30R,.045X.045*%
%ADD15R,.00984X.03*%
%AMMACRO24*
4,1,6,-.0348,.03536,
-.03536,.0348,
-.03536,-.0348,
0.0,-.07015,
.07015,0.0,
.0348,.03536,
-.0348,.03536,
0.0*
%
%ADD24MACRO24*%
%ADD22R,.03X.04*%
%ADD10R,.04X.03*%
%ADD25R,.01201X.03201*%
%ADD21R,.04X.025*%
%ADD32R,.06X.07*%
%ADD13C,.135*%
%ADD12R,.05118X.0748*%
%ADD33R,.03543X.03937*%
%ADD18R,.02165X.03937*%
%ADD26R,.06417X.0689*%
%AMMACRO28*
4,1,6,.03536,.0348,
.0348,.03536,
-.0348,.03536,
-.07015,0.0,
0.0,-.07015,
.03536,-.0348,
.03536,.0348,
0.0*
%
%ADD28MACRO28*%
%AMMACRO27*
4,1,6,.0348,-.03536,
.03536,-.0348,
.03536,.0348,
0.0,.07015,
-.07015,0.0,
-.0348,-.03536,
.0348,-.03536,
0.0*
%
%ADD27MACRO27*%
%AMMACRO23*
4,1,6,-.03536,-.0348,
-.0348,-.03536,
.0348,-.03536,
.07015,0.0,
0.0,.07015,
-.03536,.0348,
-.03536,-.0348,
0.0*
%
%ADD23MACRO23*%
%ADD20R,.06299X.0689*%
%ADD34C,.01*%
%ADD35C,.03*%
%ADD36C,.04*%
%ADD37C,.025*%
%ADD38C,.006*%
%ADD39C,.008*%
G75*
%LPD*%
G75*
G54D10*
X-109010Y-132030D03*
Y-142120D03*
Y-121850D03*
Y-109960D03*
X-103010Y-132030D03*
X-82960Y-138930D03*
X-88960D03*
X-103010Y-142120D03*
Y-121850D03*
Y-109960D03*
X-60500Y-125650D03*
X-72120Y114630D03*
X-66120D03*
Y102730D03*
X-72120D03*
X-54500Y-125650D03*
X-46700Y114610D03*
X-52700D03*
X-15270Y-63710D03*
X-21270D03*
G54D20*
X-59498Y65600D03*
X-74302D03*
G54D11*
X-109480Y-128480D03*
X-117120Y-132030D03*
X-117030Y-121850D03*
X-95190Y-134710D03*
X-96650Y-131000D03*
X-98330Y-142120D03*
X-85290Y-135120D03*
X-88960Y-142600D03*
X-96180Y-107110D03*
X-81940Y-103540D03*
X-102410Y-113890D03*
X-102390Y-126380D03*
X-84200Y-109300D03*
X-97870Y-122430D03*
X-91870Y-110870D03*
X-85030Y-89030D03*
X-81790Y-16750D03*
X-81590Y2670D03*
X-67320Y-140080D03*
X-78910Y-143270D03*
X-74040Y-139240D03*
X-68400Y-133960D03*
X-77990Y-107800D03*
X-68410Y-118420D03*
X-63239Y-113109D03*
X-70117Y-109430D03*
X-67990Y-123490D03*
X-55364Y-109330D03*
X-78810Y-97180D03*
X-73337Y-41570D03*
X-63519Y-46111D03*
X-59581Y-40541D03*
X-64980Y-16410D03*
X-56010Y-12130D03*
X-69970Y-6800D03*
X-75960Y-3620D03*
X-58064Y14350D03*
X-73960Y8080D03*
X-70000Y11960D03*
X-65890Y82420D03*
X-67988Y97562D03*
X-49390Y-125650D03*
X-54010Y-44340D03*
X-31960Y-6500D03*
X-33180Y4420D03*
X-41340Y5140D03*
X-45430Y23390D03*
X-53120Y91140D03*
X-10610Y-64130D03*
X-18480Y-59530D03*
X-6725Y-59905D03*
X-26200Y-63710D03*
X-27280Y-49350D03*
X-19670Y-32130D03*
X-15790Y-35660D03*
Y-17350D03*
X-22990Y23570D03*
X-560Y-56040D03*
X113800Y12450D03*
X118700Y-18090D03*
X121500Y13310D03*
G54D12*
X-115627Y-100379D03*
Y-87781D03*
X-93973Y-100379D03*
Y-87781D03*
G54D21*
X-72020Y85970D03*
Y82220D03*
Y78470D03*
X-61820D03*
Y85970D03*
G54D30*
X24750Y30000D03*
X74750Y90000D03*
Y100000D03*
G54D13*
X-110840Y-60840D03*
Y110840D03*
X110840Y-60840D03*
Y110840D03*
G54D22*
X-34610Y-43360D03*
Y-49360D03*
X-560Y-45060D03*
Y-51060D03*
X114040Y-16060D03*
Y-10060D03*
X113800Y7540D03*
Y1540D03*
G54D31*
X24750Y70000D03*
Y100000D03*
G54D23*
X-47625Y38245D03*
G54D32*
X45750Y111000D03*
X53750D03*
G54D14*
X-114890Y58600D03*
Y68600D03*
Y78600D03*
X-98250Y-10150D03*
Y9850D03*
Y-150D03*
X-98560Y35070D03*
Y27270D03*
X-4160Y-9970D03*
Y30D03*
Y10030D03*
Y20030D03*
Y30030D03*
Y40030D03*
Y50030D03*
Y60030D03*
Y70030D03*
Y80030D03*
Y90030D03*
Y100030D03*
X103660Y-9970D03*
Y30D03*
Y10030D03*
Y20030D03*
Y30030D03*
Y40030D03*
Y50030D03*
Y60030D03*
Y70030D03*
Y80030D03*
Y90030D03*
Y100030D03*
G54D33*
X114110Y18996D03*
Y34744D03*
Y41976D03*
Y57724D03*
X120410Y18996D03*
Y34744D03*
Y41976D03*
Y57724D03*
G54D24*
X-46901Y65551D03*
G54D15*
X-82936Y-132031D03*
X-84904D03*
X-86873D03*
X-88841D03*
X-90810D03*
X-92778D03*
X-82936Y-117369D03*
X-84904D03*
X-86873D03*
X-88841D03*
X-90810D03*
X-92778D03*
X-75160Y-132031D03*
X-77030D03*
X-78999D03*
X-80967D03*
X-75062Y-117369D03*
X-77030D03*
X-78999D03*
X-80967D03*
G54D34*
G01X-117030Y-121850D02*
Y-124050D01*
X-117060Y-124080D01*
Y-131970D01*
G01X-117120Y-132030D02*
X-117220Y-132130D01*
Y-141120D01*
X-116220Y-142120D01*
X-109010D01*
G01Y-132030D02*
X-117120D01*
G01X-109010Y-109960D02*
X-116220D01*
X-117220Y-110960D01*
Y-116730D01*
G01D02*
Y-119460D01*
X-117030Y-119650D01*
Y-121850D01*
G01D02*
X-109010D01*
G01X-74302Y65600D02*
Y20040D01*
X-75302Y19040D01*
X-98510D01*
X-106230Y11320D01*
Y-14760D01*
X-83260Y-37730D01*
X-47411D01*
X-41781Y-43360D01*
X-34610D01*
G01X-82960Y-134070D02*
Y-138930D01*
G01X-82936Y-130850D02*
X-82960Y-130874D01*
Y-134070D01*
G01X-92778Y-117369D02*
Y-116482D01*
X-96180Y-113080D01*
Y-107110D01*
G01X-92778Y-118550D02*
Y-117369D01*
G01X-81940Y-103540D02*
Y-105740D01*
X-81060Y-106620D01*
Y-112194D01*
X-82767Y-113901D01*
Y-114667D01*
X-82936Y-114836D01*
Y-117369D01*
G01Y-118229D02*
Y-117369D01*
G01X-86873D02*
Y-91387D01*
X-89290Y-88970D01*
Y-88905D01*
X-90414Y-87781D01*
X-93973D01*
G01X-86873Y-118550D02*
Y-117369D01*
G01X-88940Y-115260D02*
Y-106593D01*
X-93973Y-101560D01*
Y-100379D01*
G01X-88841Y-118550D02*
X-88940Y-118451D01*
Y-115260D01*
G01X-84904Y-117369D02*
Y-112604D01*
X-84200Y-111900D01*
Y-109300D01*
G01X-84904Y-118550D02*
Y-117369D01*
G01X-97870Y-122430D02*
Y-122380D01*
X-98400Y-121850D01*
X-103010D01*
G01X-94886Y-125684D02*
X-96816D01*
X-97870Y-124630D01*
Y-122430D01*
G01X-96414Y-123716D02*
X-97700Y-122430D01*
X-97870D01*
G01X-90810Y-117369D02*
Y-114130D01*
X-91870Y-113070D01*
Y-110870D01*
G01X-90810Y-118550D02*
Y-117369D01*
G01X-85030Y-89030D02*
X-81698Y-92362D01*
X-78088D01*
X-73210Y-97240D01*
Y-111680D01*
X-74507Y-112977D01*
G01X-80967Y-132031D02*
Y-135301D01*
X-78910Y-137358D01*
Y-143270D01*
G01X-80967Y-130850D02*
Y-132031D01*
G01X-78999D02*
Y-134281D01*
X-74040Y-139240D01*
G01X-78999Y-130850D02*
Y-132031D01*
G01X-74274Y-128086D02*
X-71510Y-130850D01*
X-71487D01*
X-69956Y-132381D01*
Y-132404D01*
X-68828Y-133532D01*
G01D02*
X-70927D01*
X-72108Y-132351D01*
X-72131D01*
X-72451Y-132031D01*
X-75160D01*
G01X-68400Y-133960D02*
X-68828Y-133532D01*
G01X-78999Y-118230D02*
Y-117369D01*
G01Y-116182D02*
Y-117369D01*
G01X-78975Y-116158D02*
X-78999Y-116182D01*
G01X-75990Y-111530D02*
X-75590Y-111130D01*
Y-98200D01*
X-76610Y-97180D01*
X-78810D01*
G01X-77990Y-107800D02*
Y-110984D01*
G01X-80967Y-115567D02*
Y-117369D01*
G01Y-118229D02*
Y-117369D01*
G01X-73720Y-125650D02*
X-72779D01*
X-70489Y-127940D01*
X-65790D01*
X-63500Y-125650D01*
X-60500D01*
G01X-75062Y-125684D02*
X-75028Y-125650D01*
X-73720D01*
G01X-63239Y-103520D02*
Y-113109D01*
G01X-72807Y-121810D02*
X-72712Y-121715D01*
X-71705D01*
X-68410Y-118420D01*
G01X-75062Y-121747D02*
X-74999Y-121810D01*
X-72807D01*
G01X-75062Y-117369D02*
X-74247Y-116554D01*
X-69656D01*
X-69322Y-116220D01*
X-60301D01*
X-59301Y-115220D01*
Y-103520D01*
G01X-67176D02*
Y-106489D01*
X-70117Y-109430D01*
G01X-71884Y-123716D02*
X-70554Y-125046D01*
X-69546D01*
X-67990Y-123490D01*
G01X-75062Y-127653D02*
X-74707D01*
X-74274Y-128086D01*
G01X-67456Y-50420D02*
Y-47451D01*
X-73337Y-41570D01*
G01X-63519Y-50420D02*
Y-46111D01*
G01X-59581Y-50420D02*
Y-40541D01*
G01X-54500Y-125650D02*
X-49390D01*
G01X-55364Y-103520D02*
Y-109330D01*
G01X-27280Y-49350D02*
X-32100D01*
X-32110Y-49360D01*
X-34610D01*
G01X-54010Y-44340D02*
X-55010D01*
X-55644Y-44974D01*
Y-50420D01*
G01X-31960Y-6500D02*
X-23730D01*
X-19670Y-10560D01*
Y-32130D01*
G01X-14276Y-53769D02*
Y-60216D01*
X-15270Y-61210D01*
Y-63710D01*
G01D02*
X-11030D01*
X-10610Y-64130D01*
G01X-18480Y-59530D02*
X-17930Y-58980D01*
Y-57630D01*
X-16244Y-55944D01*
Y-53769D01*
G01X-6725Y-59905D02*
X-12307Y-54323D01*
Y-53769D01*
G01X-21270Y-63710D02*
Y-61210D01*
X-21415Y-61065D01*
Y-57375D01*
X-18213Y-54173D01*
Y-53769D01*
G01X-21270Y-63710D02*
X-26200D01*
G01X-14276Y-52909D02*
Y-53769D01*
G01X-16244Y-53005D02*
Y-53769D01*
G01X-18213Y-43336D02*
Y-42351D01*
G01X-19670Y-32130D02*
Y-38072D01*
X-18213Y-39529D01*
Y-42351D01*
G01X-12307Y-53005D02*
Y-53769D01*
G01X-18213Y-52909D02*
Y-53769D01*
G01X-15790Y-17350D02*
Y-35660D01*
G01X-16244Y-43115D02*
Y-42351D01*
G01X-15790Y-35660D02*
Y-38380D01*
X-16244Y-38834D01*
Y-42351D01*
G01X-560Y-45060D02*
Y-41790D01*
X-3360Y-38990D01*
X-12580D01*
X-14276Y-40686D01*
Y-42351D01*
G01Y-43336D02*
Y-42351D01*
G01X-560Y-51060D02*
Y-56040D01*
G01X118700Y-18090D02*
X117144Y-16534D01*
X116684D01*
X116210Y-16060D01*
X114040D01*
G01X103660Y-9970D02*
X111450D01*
X111540Y-10060D01*
X114040D01*
G01X113800Y7540D02*
Y12450D01*
G01X103660Y30D02*
X109790D01*
X111300Y1540D01*
X113800D01*
G01X114110Y18996D02*
Y18799D01*
X111630Y16319D01*
X109949D01*
X103660Y10030D01*
G01X114110Y34744D02*
Y18996D01*
G01X103660Y20030D02*
X110838Y27208D01*
Y38507D01*
X114110Y41779D01*
Y41976D01*
G01Y57724D02*
Y41976D01*
G01X121500Y13310D02*
Y14380D01*
X120410Y15470D01*
Y18996D01*
G01Y34744D02*
Y18996D01*
G01Y41976D02*
Y34744D01*
G01Y57724D02*
Y41976D01*
G54D25*
X-12307Y-53769D03*
X-14276D03*
X-16244D03*
X-18213D03*
Y-42351D03*
X-16244D03*
X-14276D03*
X-12307D03*
G54D16*
X-93566Y-127653D03*
Y-125684D03*
Y-123716D03*
Y-121747D03*
X-74274Y-127653D03*
Y-125684D03*
Y-123716D03*
Y-121747D03*
G54D35*
G01X-98560Y35070D02*
Y40070D01*
X-98680Y40190D01*
Y61990D01*
X-105290Y68600D01*
X-114890D01*
G01X-4160Y-9970D02*
X-12720Y-1410D01*
X-57860D01*
X-66600Y-10150D01*
X-98250D01*
G01X-74302Y65600D02*
X-74322Y65620D01*
Y71525D01*
X-72020Y73827D01*
Y78470D01*
G01X-59498Y65600D02*
Y67750D01*
X-59518Y67770D01*
Y71525D01*
X-61820Y73827D01*
Y78470D01*
G01X-72020Y85970D02*
Y88970D01*
G01D02*
Y95594D01*
X-76620Y100194D01*
Y110130D01*
X-76578Y110172D01*
Y110672D01*
X-72620Y114630D01*
X-72120D01*
G01X-66120Y102730D02*
X-65620D01*
X-61820Y98930D01*
Y85970D01*
G01X-67988Y97562D02*
Y88978D01*
X-66320Y87310D01*
Y82850D01*
X-65890Y82420D01*
G01X-61820Y78470D02*
X-47210D01*
X-46870Y78810D01*
X-41870D01*
G01X-67988Y97562D02*
X-72120Y101694D01*
Y102730D01*
G01X-66120Y114630D02*
X-56720D01*
X-56700Y114610D01*
X-52700D01*
G01X-41870Y91810D02*
X-52450D01*
X-53120Y91140D01*
G01X-32330Y114640D02*
X-29350Y111660D01*
Y81650D01*
X-32190Y78810D01*
X-41870D01*
G01X-4160Y100030D02*
X-11570D01*
X-15290Y103750D01*
Y111740D01*
X-18190Y114640D01*
X-32330D01*
G01D02*
X-42670D01*
X-42700Y114610D01*
X-46700D01*
G01X-4160Y30030D02*
X-11380D01*
X-20319Y38969D01*
G01X-4160Y90030D02*
X-13430D01*
X-19595Y83865D01*
Y66275D01*
X-20319Y65551D01*
G01X590Y-9970D02*
X-4160D01*
G01X9750Y-10000D02*
X870D01*
X840Y-9970D01*
X590D01*
G54D26*
X-15260Y-48060D03*
G54D17*
X-86880Y81180D03*
Y94180D03*
X-41870Y78810D03*
Y91810D03*
G54D36*
G01X-86880Y81180D02*
X-87690Y80370D01*
X-99060D01*
X-101180Y82490D01*
X-111000D01*
X-114890Y78600D01*
G54D27*
X-19595Y38245D03*
G54D18*
X-59301Y-103520D03*
X-63239D03*
X-67176D03*
X-67456Y-50420D03*
X-63519D03*
X-59581D03*
X-55364Y-103520D03*
X-55644Y-50420D03*
G54D37*
G01X-86880Y81180D02*
X-82130D01*
X-81830Y80880D01*
X-80830D01*
X-78420Y78470D01*
X-72020D01*
G01X-86880Y94180D02*
X-86740Y94320D01*
X-83300D01*
X-80800Y91820D01*
Y87250D01*
X-75770Y82220D01*
X-72020D01*
G01Y88970D02*
X-72000Y88990D01*
G01X-65890Y82420D02*
X-65480D01*
X-65280Y82220D01*
X-72020D01*
G01X620Y-10000D02*
X590Y-9970D01*
G01X-4160Y30D02*
X2970D01*
X3000Y0D01*
X9750D01*
G01X-4160Y10030D02*
X2970D01*
X3000Y10000D01*
X9750D01*
G01X-4160Y20030D02*
X2970D01*
X3000Y20000D01*
X9750D01*
G01X-4160Y40030D02*
X2970D01*
X3000Y40000D01*
X9750D01*
G01X-4160Y30030D02*
X2970D01*
X3000Y30000D01*
X9750D01*
G01X-4160Y60030D02*
X2970D01*
X3000Y60000D01*
X9750D01*
G01X-4160Y50030D02*
X2970D01*
X3000Y50000D01*
X9750D01*
G01X-4160Y90030D02*
X2970D01*
X3000Y90000D01*
X9750D01*
G01Y80000D02*
X620D01*
X590Y80030D01*
X-4160D01*
G01Y70030D02*
X2970D01*
X3000Y70000D01*
X9750D01*
G01X-4160Y100030D02*
X2970D01*
X3000Y100000D01*
X9750D01*
G01X89750Y-10000D02*
X98880D01*
X98910Y-9970D01*
X103660D01*
G01X89750Y0D02*
X98880D01*
X98910Y30D01*
X103660D01*
G01X89750Y10000D02*
X98880D01*
X98910Y10030D01*
X103660D01*
G01X89750Y40000D02*
X98880D01*
X98910Y40030D01*
X103660D01*
G01X89750Y30000D02*
X98880D01*
X98910Y30030D01*
X103660D01*
G01X89750Y20000D02*
X98880D01*
X98910Y20030D01*
X103660D01*
G01Y60030D02*
X96530D01*
X96500Y60000D01*
X89750D01*
G01Y50000D02*
X98880D01*
X98910Y50030D01*
X103660D01*
G01X89750Y70000D02*
X98880D01*
X98910Y70030D01*
X103660D01*
G01Y90030D02*
X96530D01*
X96500Y90000D01*
X89750D01*
G01X103660Y80030D02*
X96530D01*
X96500Y80000D01*
X89750D01*
G01X103660Y100030D02*
X96530D01*
X96500Y100000D01*
X89750D01*
G54D28*
X-19595Y66275D03*
G54D19*
X-74597Y-86000D03*
X-74877Y-67940D03*
X-47943Y-86000D03*
X-48223Y-67940D03*
G54D38*
G01X-92778Y-132031D02*
Y-131422D01*
X-93350Y-130850D01*
G01X-82936Y-132031D02*
Y-134046D01*
X-82960Y-134070D01*
G01X-88841Y-117369D02*
Y-115359D01*
X-88940Y-115260D01*
G01X-93566Y-121747D02*
Y-121402D01*
G01X-74507Y-112977D02*
X-75610Y-114080D01*
Y-114420D01*
X-75759Y-114569D01*
X-76093D01*
X-76854Y-115330D01*
Y-117193D01*
X-77030Y-117369D01*
G01X-78999Y-116182D02*
Y-114942D01*
X-75990Y-111933D01*
Y-111530D01*
G01X-77990Y-110984D02*
X-78470Y-111464D01*
Y-112150D01*
X-80967Y-114647D01*
Y-115567D01*
G01X-74274Y-125684D02*
X-73754D01*
X-73720Y-125650D01*
G01X-74274Y-121747D02*
X-72870D01*
X-72807Y-121810D01*
G01X-74274Y-127653D02*
Y-128086D01*
G54D29*
X9750Y-10000D03*
Y0D03*
Y10000D03*
Y20000D03*
Y30000D03*
Y40000D03*
Y50000D03*
Y60000D03*
Y70000D03*
Y80000D03*
Y90000D03*
Y100000D03*
X89750Y-10000D03*
Y20000D03*
Y10000D03*
Y0D03*
Y40000D03*
Y30000D03*
Y70000D03*
Y60000D03*
Y50000D03*
Y90000D03*
Y80000D03*
Y100000D03*
G54D39*
G01X-117060Y-131970D02*
X-117120Y-132030D01*
G01X-88841Y-132031D02*
Y-132866D01*
X-90205Y-134230D01*
X-92286D01*
X-93090Y-135034D01*
Y-135580D01*
X-94320Y-136810D01*
X-96630D01*
X-99610Y-133830D01*
Y-129950D01*
X-101080Y-128480D01*
X-109480D01*
G01X-93566Y-121402D02*
X-98238Y-116730D01*
X-117220D01*
G01X-90810Y-132031D02*
Y-132289D01*
X-91706Y-133185D01*
X-93787D01*
X-95190Y-134588D01*
Y-134710D01*
G01X-90810Y-130850D02*
Y-132031D01*
G01X-88841Y-130850D02*
Y-132031D01*
G01X-103010Y-142120D02*
X-98330D01*
G01X-93350Y-130850D02*
X-94170D01*
X-94320Y-131000D01*
X-96650D01*
G01X-86873Y-132031D02*
Y-133444D01*
X-89459Y-136030D01*
X-90994D01*
X-93784Y-138820D01*
X-97940D01*
X-102520Y-134240D01*
Y-132520D01*
X-103010Y-132030D01*
G01X-86873Y-130850D02*
Y-132031D01*
G01X-84904D02*
Y-134734D01*
X-85290Y-135120D01*
G01X-84904Y-130850D02*
Y-132031D01*
G01X-88960Y-138930D02*
Y-142600D01*
G01X-102410Y-113890D02*
Y-113390D01*
X-103010Y-112790D01*
Y-109960D01*
G01X-93566Y-127653D02*
X-99017D01*
X-100290Y-126380D01*
X-102390D01*
G01X-92778Y-127653D02*
X-93566D01*
G01X-92778Y-121747D02*
X-93221D01*
X-93566Y-121402D01*
G01Y-125684D02*
X-94886D01*
G01X-92778D02*
X-93566D01*
G01Y-123716D02*
X-96414D01*
G01X-92778D02*
X-93566D01*
G01X-77030Y-132031D02*
Y-133562D01*
X-73452Y-137140D01*
X-73170D01*
X-71940Y-138370D01*
Y-138652D01*
X-70512Y-140080D01*
X-67320D01*
G01X-77030Y-131213D02*
Y-132031D01*
G01X-74274Y-123716D02*
X-71884D01*
G01X-75062D02*
X-74274D01*
M02*
