G04 ================== begin FILE IDENTIFICATION RECORD ==================*
G04 Layout Name:  SLEEPTRACK2_PHASE3.brd*
G04 Film Name:    Sleeptrack2_Phase_2_Soldermask_Top_V3*
G04 File Format:  Gerber RS274X*
G04 File Origin:  Cadence Allegro 17.0-P009*
G04 Origin Date:  Sun Aug 28 20:15:54 2016*
G04 *
G04 Layer:  VIA CLASS/SOLDERMASK_TOP*
G04 Layer:  PIN/SOLDERMASK_TOP*
G04 Layer:  PACKAGE GEOMETRY/SOLDERMASK_TOP*
G04 Layer:  DRC ERROR CLASS/SOLDERMASK_TOP*
G04 Layer:  BOARD GEOMETRY/SOLDERMASK_TOP*
G04 *
G04 Offset:    (0.00 0.00)*
G04 Mirror:    No*
G04 Mode:      Positive*
G04 Rotation:  0*
G04 FullContactRelief:  No*
G04 UndefLineWidth:     10.00*
G04 ================== end FILE IDENTIFICATION RECORD ====================*
%FSLAX25Y25*MOIN*%
%IR0*IPPOS*OFA0.00000B0.00000*MIA0B0*SFA1.00000B1.00000*%
%ADD21C,.023*%
%ADD24R,.105X.0805*%
%ADD13C,.07*%
%ADD11C,.044*%
%ADD25R,.05X.05*%
%ADD16C,.075*%
%ADD19R,.07362X.10118*%
%ADD26R,.075X.075*%
%ADD20R,.046X.031*%
%ADD17R,.036X.046*%
%ADD10R,.046X.036*%
%ADD27R,.065X.075*%
%ADD22R,.01209X.03209*%
%ADD18R,.02362X.04134*%
%ADD14R,.01909X.01024*%
%ADD15R,.01024X.01909*%
%ADD23R,.06417X.0689*%
%ADD12R,.05315X.07677*%
%LPD*%
G75*
G54D10*
X-109220Y-137000D03*
Y-116730D03*
Y-126910D03*
Y-104840D03*
X-83170Y-133810D03*
X-89170D03*
X-103220Y-137000D03*
Y-116730D03*
Y-126910D03*
Y-104840D03*
X-60710Y-120530D03*
X-72120Y114630D03*
X-66120D03*
Y102730D03*
X-72120D03*
X-54710Y-120530D03*
X-46700Y114610D03*
X-52700D03*
X-15270Y-63710D03*
X-21270D03*
G54D20*
X-72020Y85970D03*
Y82220D03*
Y78470D03*
X-61820D03*
Y85970D03*
G54D11*
X-109690Y-123360D03*
X-117240Y-116730D03*
X-117330Y-126910D03*
X-95400Y-129590D03*
X-98540Y-137000D03*
X-85500Y-130000D03*
X-89170Y-137480D03*
X-96860Y-125880D03*
X-102620Y-108770D03*
X-102600Y-121260D03*
X-84410Y-104180D03*
X-98080Y-117310D03*
X-92080Y-105750D03*
X-96390Y-101990D03*
X-85240Y-83910D03*
X-82150Y-98420D03*
X-81790Y-16750D03*
X-81590Y2670D03*
X-87500Y85220D03*
X-67530Y-134960D03*
X-79120Y-138150D03*
X-74250Y-134120D03*
X-68610Y-128840D03*
X-78200Y-102680D03*
X-68620Y-113300D03*
X-63449Y-107989D03*
X-70327Y-104310D03*
X-68200Y-118370D03*
X-55574Y-104210D03*
X-79020Y-92060D03*
X-73337Y-41570D03*
X-63519Y-46111D03*
X-59581Y-40541D03*
X-64980Y-16410D03*
X-56010Y-12130D03*
X-69970Y-6800D03*
X-70615Y19485D03*
X-75960Y-3620D03*
X-58064Y14350D03*
X-73960Y8080D03*
X-70000Y11960D03*
X-70080Y26160D03*
X-65890Y82420D03*
X-67988Y97562D03*
X-49600Y-120530D03*
X-54010Y-44340D03*
X-40070Y-9460D03*
X-44130Y-11020D03*
X-36290Y-20730D03*
X-38600Y-26900D03*
X-31960Y-6500D03*
X-53100Y12720D03*
X-48080Y12710D03*
X-33180Y4420D03*
X-41340Y5140D03*
X-40000Y10410D03*
X-45430Y23390D03*
X-41990Y85220D03*
X-10610Y-64130D03*
X-18480Y-59530D03*
X-6725Y-59905D03*
X-26200Y-63710D03*
X-27280Y-49350D03*
X-19670Y-32130D03*
X-15790Y-35660D03*
Y-17350D03*
X-22990Y23570D03*
X-560Y-56040D03*
X64620Y-111090D03*
X65330Y-103530D03*
X68824Y-106694D03*
X78230Y-107900D03*
X113800Y12450D03*
X118700Y-18090D03*
X121500Y13310D03*
G54D12*
X-115837Y-95259D03*
Y-82661D03*
X-94183Y-95259D03*
Y-82661D03*
G54D21*
X-8490Y-139040D03*
X-13490Y-129040D03*
X-18490Y-139040D03*
X-23490Y-129040D03*
X-28490Y-139040D03*
X16510Y-129040D03*
X11510Y-139040D03*
X6510Y-129040D03*
X1510Y-139040D03*
X-3490Y-129040D03*
X41510Y-139040D03*
X36510Y-129040D03*
X31510Y-139040D03*
X26510Y-129040D03*
X21510Y-139040D03*
X66510Y-129040D03*
X61510Y-139040D03*
X56510Y-129040D03*
X51510Y-139040D03*
X46510Y-129040D03*
X91510Y-139040D03*
X86510Y-129040D03*
X81510Y-139040D03*
X76510Y-129040D03*
X71510Y-139040D03*
X116510Y-129040D03*
X111510Y-139040D03*
X106510Y-129040D03*
X101510Y-139040D03*
X96510Y-129040D03*
G54D22*
X-12307Y-53769D03*
X-14276D03*
X-16244D03*
X-18213D03*
Y-42351D03*
X-16244D03*
X-14276D03*
X-12307D03*
G54D13*
X-114890Y58600D03*
Y68600D03*
Y78600D03*
X-98560Y35070D03*
Y27270D03*
G54D23*
X-15260Y-48060D03*
G54D14*
X-92988Y-122533D03*
Y-120564D03*
Y-118596D03*
Y-116627D03*
X-75272Y-122533D03*
Y-120564D03*
Y-118596D03*
Y-116627D03*
X60238Y-108663D03*
Y-106694D03*
Y-104726D03*
X42522Y-108663D03*
Y-106694D03*
Y-104726D03*
X60238Y-102757D03*
X42522D03*
G54D15*
X-81177Y-125730D03*
X-83146D03*
X-85114D03*
X-87083D03*
X-89051D03*
X-91020D03*
X-92988D03*
X-81177Y-113430D03*
X-83146D03*
X-85114D03*
X-87083D03*
X-89051D03*
X-91020D03*
X-92988D03*
X-75272Y-125730D03*
X-77240D03*
X-79209D03*
X-75272Y-113430D03*
X-77240D03*
X-79209D03*
X60238Y-111860D03*
X58270D03*
X56301D03*
X54333D03*
X52364D03*
X50396D03*
X48427D03*
X46459D03*
X44490D03*
X42522D03*
X60238Y-99560D03*
X58270D03*
X56301D03*
X54333D03*
X52364D03*
X50396D03*
X48427D03*
X46459D03*
X44490D03*
X42522D03*
G54D24*
X9750Y-10000D03*
Y0D03*
Y10000D03*
Y20000D03*
Y30000D03*
Y40000D03*
Y50000D03*
Y60000D03*
Y70000D03*
Y80000D03*
Y90000D03*
Y100000D03*
X89750Y-10000D03*
Y20000D03*
Y10000D03*
Y0D03*
Y40000D03*
Y30000D03*
Y70000D03*
Y60000D03*
Y50000D03*
Y90000D03*
Y80000D03*
Y100000D03*
G54D16*
X-98250Y-10150D03*
Y9850D03*
Y-150D03*
X-4160Y-9970D03*
Y30D03*
Y10030D03*
Y20030D03*
Y30030D03*
Y40030D03*
Y50030D03*
Y60030D03*
Y70030D03*
Y80030D03*
Y90030D03*
Y100030D03*
X103660Y-9970D03*
Y30D03*
Y10030D03*
Y20030D03*
Y30030D03*
Y40030D03*
Y50030D03*
Y60030D03*
Y70030D03*
Y80030D03*
Y90030D03*
Y100030D03*
G54D25*
X24750Y30000D03*
X74750Y90000D03*
Y100000D03*
G54D17*
X-83250Y79220D03*
Y85220D03*
X-34610Y-43360D03*
Y-49360D03*
X-46280Y79220D03*
Y85220D03*
X-560Y-45060D03*
Y-51060D03*
X114040Y-16060D03*
Y-10060D03*
X113800Y7540D03*
Y1540D03*
G54D26*
X24750Y70000D03*
Y100000D03*
G54D18*
X-59511Y-98400D03*
X-63449D03*
X-67386D03*
X-67456Y-50420D03*
X-63519D03*
X-59581D03*
X-55574Y-98400D03*
X-55644Y-50420D03*
G54D27*
X45750Y111000D03*
X53750D03*
G54D19*
X-74807Y-80880D03*
X-74877Y-67940D03*
X-48153Y-80880D03*
X-48223Y-67940D03*
M02*
