G04 ================== begin FILE IDENTIFICATION RECORD ==================*
G04 Layout Name:  SLEEPTRACK2_PHASE3.brd*
G04 Film Name:    Sleeptrack2_Phase_2_Manufacturing_V2*
G04 File Format:  Gerber RS274X*
G04 File Origin:  Cadence Allegro 17.0-P009*
G04 Origin Date:  Mon Aug 29 21:59:40 2016*
G04 *
G04 Layer:  BOARD GEOMETRY/OUTLINE*
G04 Layer:  BOARD GEOMETRY/ASSEMBLY_NOTES*
G04 Layer:  BOARD GEOMETRY/TOOLING_CORNERS*
G04 Layer:  BOARD GEOMETRY/DIMENSION*
G04 Layer:  BOARD GEOMETRY/ASSEMBLY_DETAIL*
G04 *
G04 Offset:    (0.00 0.00)*
G04 Mirror:    No*
G04 Mode:      Positive*
G04 Rotation:  0*
G04 FullContactRelief:  No*
G04 UndefLineWidth:     10.00*
G04 ================== end FILE IDENTIFICATION RECORD ====================*
%FSLAX25Y25*MOIN*%
%IR0*IPPOS*OFA0.00000B0.00000*MIA0B0*SFA1.00000B1.00000*%
%ADD10C,.01*%
G75*
%LPD*%
G75*
G54D10*
G01X-203780Y130090D02*
Y142590D01*
X-199905D01*
X-198665Y141965D01*
X-197890Y141132D01*
X-197580Y139465D01*
X-197890Y137798D01*
X-198820Y136757D01*
X-199905Y136132D01*
X-203780D01*
G01X-199905D02*
X-197580Y130090D01*
G01X-188280Y129673D02*
X-188590Y129882D01*
Y130298D01*
X-188280Y130507D01*
X-187970Y130298D01*
Y129882D01*
X-188280Y129673D01*
G01X-175880Y142590D02*
X-177120Y142173D01*
X-178050Y141132D01*
X-178670Y139882D01*
X-179135Y138215D01*
X-179290Y136340D01*
X-179135Y134465D01*
X-178670Y132798D01*
X-178050Y131548D01*
X-177120Y130507D01*
X-175880Y130090D01*
X-174640Y130507D01*
X-173710Y131548D01*
X-173090Y132798D01*
X-172625Y134465D01*
X-172470Y136340D01*
X-172625Y138215D01*
X-173090Y139882D01*
X-173710Y141132D01*
X-174640Y142173D01*
X-175880Y142590D01*
G01X-166890Y132590D02*
X-165960Y131131D01*
X-164720Y130298D01*
X-163325Y130090D01*
X-162085Y130298D01*
X-160845Y131340D01*
X-160070Y132590D01*
X-159915Y133840D01*
X-160225Y135298D01*
X-161310Y136340D01*
X-162395Y136757D01*
X-163790D01*
G01X-162395D02*
X-161465Y137382D01*
X-160690Y138423D01*
X-160380Y139673D01*
X-160690Y140923D01*
X-161465Y141965D01*
X-162860Y142590D01*
X-164255Y142382D01*
X-165650Y141548D01*
G01X-139322Y124977D02*
X-124126Y124399D01*
X-138313Y129875D01*
X-139322Y124977D01*
G01X-124126Y124399D02*
X-149455Y129618D01*
G01X-124790Y-157974D02*
Y-210830D01*
G01X-109790Y-198330D02*
X-124790Y-200830D01*
X-109790Y-203330D01*
Y-198330D01*
G01X-42125Y-200830D02*
X-124790D01*
G01Y-158220D02*
Y-176180D01*
G01X-110665Y-166180D02*
X-124790D01*
G01X-109790Y-163680D02*
X-124790Y-166180D01*
X-109790Y-168680D01*
Y-163680D01*
G01X-38650Y-148220D02*
Y-80120D01*
X-124790D01*
Y-148220D01*
X-38650D01*
G01X-125000Y122500D02*
Y-72500D01*
G03X-122500Y-75000I2500J0D01*
G01D02*
X122500D01*
G03X125000Y-72500I0J2500D01*
G01Y122500D01*
G03X122500Y125000I-2500J0D01*
G01X-122500D01*
G03X-125000Y122500I0J-2500D01*
G01X-96640Y-172847D02*
X-96950Y-172638D01*
Y-172222D01*
X-96640Y-172013D01*
X-96330Y-172222D01*
Y-172638D01*
X-96640Y-172847D01*
G01X-84240Y-172430D02*
X-83155Y-172222D01*
X-81915Y-171597D01*
X-81140Y-170555D01*
X-80830Y-169097D01*
X-81140Y-167639D01*
X-82070Y-166388D01*
X-83465Y-165763D01*
X-85015D01*
X-85945Y-165347D01*
X-86720Y-164305D01*
X-87030Y-162847D01*
X-86565Y-161388D01*
X-85480Y-160347D01*
X-84240Y-159930D01*
X-83000Y-160347D01*
X-81915Y-161388D01*
X-81450Y-162847D01*
X-81760Y-164305D01*
X-82535Y-165347D01*
X-83465Y-165763D01*
X-85015D01*
X-86410Y-166388D01*
X-87340Y-167639D01*
X-87650Y-169097D01*
X-87340Y-170555D01*
X-86565Y-171597D01*
X-85325Y-172222D01*
X-84240Y-172430D01*
G01X-74785Y-167222D02*
X-73700Y-165763D01*
X-72770Y-164930D01*
X-71530Y-164513D01*
X-70445Y-164930D01*
X-69670Y-165763D01*
X-69050Y-167013D01*
X-68895Y-168472D01*
X-69050Y-169722D01*
X-69670Y-170972D01*
X-70600Y-172013D01*
X-71685Y-172430D01*
X-72925Y-172013D01*
X-74010Y-170764D01*
X-74630Y-168888D01*
X-74785Y-166805D01*
X-74475Y-164097D01*
X-74010Y-162638D01*
X-73235Y-161180D01*
X-72150Y-160138D01*
X-71065Y-159930D01*
X-69980Y-160347D01*
X-69205Y-161388D01*
G01X-57815Y-166180D02*
X-38650D01*
G01X-31045Y-196663D02*
X-30115Y-195414D01*
X-29030Y-194788D01*
X-27790Y-194580D01*
X-26240Y-194997D01*
X-25155Y-196038D01*
X-24845Y-197288D01*
X-25000Y-198539D01*
X-25620Y-199580D01*
X-28720Y-201663D01*
X-30115Y-203122D01*
X-31045Y-205205D01*
X-31355Y-207080D01*
X-24845D01*
G01X-15700Y-207497D02*
X-16010Y-207288D01*
Y-206872D01*
X-15700Y-206663D01*
X-15390Y-206872D01*
Y-207288D01*
X-15700Y-207497D01*
G01X-6710Y-205205D02*
X-5780Y-206247D01*
X-4695Y-206872D01*
X-3300Y-207080D01*
X-1905Y-206663D01*
X-820Y-205830D01*
X-45Y-204372D01*
X110Y-202705D01*
X-200Y-201038D01*
X-975Y-199997D01*
X-2060Y-199163D01*
X-3145Y-198955D01*
X-4230Y-199163D01*
X-5625Y-199997D01*
X-5160Y-194580D01*
X-975D01*
G01X9100D02*
X7860Y-194997D01*
X6930Y-196038D01*
X6310Y-197288D01*
X5845Y-198955D01*
X5690Y-200830D01*
X5845Y-202705D01*
X6310Y-204372D01*
X6930Y-205622D01*
X7860Y-206663D01*
X9100Y-207080D01*
X10340Y-206663D01*
X11270Y-205622D01*
X11890Y-204372D01*
X12355Y-202705D01*
X12510Y-200830D01*
X12355Y-198955D01*
X11890Y-197288D01*
X11270Y-196038D01*
X10340Y-194997D01*
X9100Y-194580D01*
G01X-38650Y-158220D02*
Y-176180D01*
G01X-53650Y-168680D02*
X-38650Y-166180D01*
X-53650Y-163680D01*
Y-168680D01*
G01X-36119Y-158220D02*
Y-176680D01*
G01X-5025Y-166680D02*
X-36119D01*
G01X-21119Y-164180D02*
X-36119Y-166680D01*
X-21119Y-169180D01*
Y-164180D01*
G01X125210Y-148220D02*
Y-80120D01*
X-36119D01*
Y-148220D01*
X125210D01*
G01X-21943Y40453D02*
Y38933D01*
G01X-20860Y39757D02*
X-23027D01*
G01X9000Y-172930D02*
Y-160430D01*
X7140Y-162930D01*
G01Y-172930D02*
X10860D01*
G01X21400Y-173347D02*
X21090Y-173138D01*
Y-172722D01*
X21400Y-172513D01*
X21710Y-172722D01*
Y-173138D01*
X21400Y-173347D01*
G01X30855Y-167722D02*
X31940Y-166263D01*
X32870Y-165430D01*
X34110Y-165013D01*
X35195Y-165430D01*
X35970Y-166263D01*
X36590Y-167513D01*
X36745Y-168972D01*
X36590Y-170222D01*
X35970Y-171472D01*
X35040Y-172513D01*
X33955Y-172930D01*
X32715Y-172513D01*
X31630Y-171264D01*
X31010Y-169388D01*
X30855Y-167305D01*
X31165Y-164597D01*
X31630Y-163138D01*
X32405Y-161680D01*
X33490Y-160638D01*
X34575Y-160430D01*
X35660Y-160847D01*
X36435Y-161888D01*
G01X46200Y-172930D02*
Y-160430D01*
X44340Y-162930D01*
G01Y-172930D02*
X48060D01*
G01X23125Y-200830D02*
X125210D01*
G01X60225Y-166680D02*
X125210D01*
G01X110210Y-203330D02*
X125210Y-200830D01*
X110210Y-198330D01*
Y-203330D01*
G01Y-169180D02*
X125210Y-166680D01*
X110210Y-164180D01*
Y-169180D01*
G01X125210Y-158220D02*
Y-210830D01*
G01Y-158220D02*
Y-176680D01*
G01X135210Y-148220D02*
X163520D01*
G01X141120Y-115377D02*
X140810Y-115168D01*
Y-114752D01*
X141120Y-114543D01*
X141430Y-114752D01*
Y-115168D01*
X141120Y-115377D01*
G01X150575Y-109752D02*
X151660Y-108293D01*
X152590Y-107460D01*
X153830Y-107043D01*
X154915Y-107460D01*
X155690Y-108293D01*
X156310Y-109543D01*
X156465Y-111002D01*
X156310Y-112252D01*
X155690Y-113502D01*
X154760Y-114543D01*
X153675Y-114960D01*
X152435Y-114543D01*
X151350Y-113294D01*
X150730Y-111418D01*
X150575Y-109335D01*
X150885Y-106627D01*
X151350Y-105168D01*
X152125Y-103710D01*
X153210Y-102668D01*
X154295Y-102460D01*
X155380Y-102877D01*
X156155Y-103918D01*
G01X165920Y-114960D02*
X167005Y-114752D01*
X168245Y-114127D01*
X169020Y-113085D01*
X169330Y-111627D01*
X169020Y-110169D01*
X168090Y-108918D01*
X166695Y-108293D01*
X165145D01*
X164215Y-107877D01*
X163440Y-106835D01*
X163130Y-105377D01*
X163595Y-103918D01*
X164680Y-102877D01*
X165920Y-102460D01*
X167160Y-102877D01*
X168245Y-103918D01*
X168710Y-105377D01*
X168400Y-106835D01*
X167625Y-107877D01*
X166695Y-108293D01*
X165145D01*
X163750Y-108918D01*
X162820Y-110169D01*
X162510Y-111627D01*
X162820Y-113085D01*
X163595Y-114127D01*
X164835Y-114752D01*
X165920Y-114960D01*
G01X135210Y-80120D02*
X163520D01*
G01X132500Y-75000D02*
X163870D01*
G01X132325Y25667D02*
X133255Y26916D01*
X134340Y27542D01*
X135580Y27750D01*
X137130Y27333D01*
X138215Y26292D01*
X138525Y25042D01*
X138370Y23791D01*
X137750Y22750D01*
X134650Y20667D01*
X133255Y19208D01*
X132325Y17125D01*
X132015Y15250D01*
X138525D01*
G01X147670Y14833D02*
X147360Y15042D01*
Y15458D01*
X147670Y15667D01*
X147980Y15458D01*
Y15042D01*
X147670Y14833D01*
G01X160070Y27750D02*
X158830Y27333D01*
X157900Y26292D01*
X157280Y25042D01*
X156815Y23375D01*
X156660Y21500D01*
X156815Y19625D01*
X157280Y17958D01*
X157900Y16708D01*
X158830Y15667D01*
X160070Y15250D01*
X161310Y15667D01*
X162240Y16708D01*
X162860Y17958D01*
X163325Y19625D01*
X163480Y21500D01*
X163325Y23375D01*
X162860Y25042D01*
X162240Y26292D01*
X161310Y27333D01*
X160070Y27750D01*
G01X172470D02*
X171230Y27333D01*
X170300Y26292D01*
X169680Y25042D01*
X169215Y23375D01*
X169060Y21500D01*
X169215Y19625D01*
X169680Y17958D01*
X170300Y16708D01*
X171230Y15667D01*
X172470Y15250D01*
X173710Y15667D01*
X174640Y16708D01*
X175260Y17958D01*
X175725Y19625D01*
X175880Y21500D01*
X175725Y23375D01*
X175260Y25042D01*
X174640Y26292D01*
X173710Y27333D01*
X172470Y27750D01*
G01X132290Y124990D02*
X163870D01*
G01X153520Y-124335D02*
Y-148220D01*
G01X151020Y-133220D02*
X153520Y-148220D01*
X156020Y-133220D01*
X151020D01*
G01X153520Y-93085D02*
Y-80120D01*
G01X156020Y-95120D02*
X153520Y-80120D01*
X151020Y-95120D01*
X156020D01*
G01X153870Y5875D02*
Y-75000D01*
G01X151370Y-60000D02*
X153870Y-75000D01*
X156370Y-60000D01*
X151370D01*
G01X153870Y37125D02*
Y124990D01*
G01X156370Y109990D02*
X153870Y124990D01*
X151370Y109990D01*
X156370D01*
M02*
