G04 ================== begin FILE IDENTIFICATION RECORD ==================*
G04 Layout Name:  SLEEPTRACK2_PHASE3_v2.brd*
G04 Film Name:    Sleeptrack2_Phase_3_TOP_V2*
G04 File Format:  Gerber RS274X*
G04 File Origin:  Cadence Allegro 17.0-P009*
G04 Origin Date:  Sat Oct 29 00:36:46 2016*
G04 *
G04 Layer:  ETCH/TOP*
G04 Layer:  PIN/TOP*
G04 Layer:  VIA CLASS/TOP*
G04 *
G04 Offset:    (0.00 0.00)*
G04 Mirror:    No*
G04 Mode:      Positive*
G04 Rotation:  0*
G04 FullContactRelief:  No*
G04 UndefLineWidth:     10.00*
G04 ================== end FILE IDENTIFICATION RECORD ====================*
%FSLAX55Y55*MOIN*%
%IR0*IPPOS*OFA0.00000B0.00000*MIA0B0*SFA1.00000B1.00000*%
%ADD13R,.06969X.09724*%
%ADD26R,.1X.08*%
%ADD15C,.024*%
%ADD11C,.06*%
%ADD12R,.06X.06*%
%ADD28R,.07X.07*%
%ADD27R,.045X.045*%
%AMMACRO21*
4,1,6,-.0348,.03536,
-.03536,.0348,
-.03536,-.0348,
0.0,-.07015,
.07015,0.0,
.0348,.03536,
-.0348,.03536,
0.0*
%
%ADD21MACRO21*%
%ADD19R,.03X.04*%
%ADD18R,.04X.03*%
%ADD22R,.01201X.03201*%
%ADD17R,.04X.025*%
%ADD29R,.06X.07*%
%ADD10C,.135*%
%ADD30R,.03543X.03937*%
%ADD14R,.02165X.03937*%
%ADD23R,.06417X.0689*%
%AMMACRO25*
4,1,6,.03536,.0348,
.0348,.03536,
-.0348,.03536,
-.07015,0.0,
0.0,-.07015,
.03536,-.0348,
.03536,.0348,
0.0*
%
%ADD25MACRO25*%
%AMMACRO24*
4,1,6,.0348,-.03536,
.03536,-.0348,
.03536,.0348,
0.0,.07015,
-.07015,0.0,
-.0348,-.03536,
.0348,-.03536,
0.0*
%
%ADD24MACRO24*%
%AMMACRO20*
4,1,6,-.03536,-.0348,
-.0348,-.03536,
.0348,-.03536,
.07015,0.0,
0.0,.07015,
-.03536,.0348,
-.03536,-.0348,
0.0*
%
%ADD20MACRO20*%
%ADD16R,.06299X.0689*%
%ADD31C,.01*%
%ADD32C,.03*%
%ADD33C,.04*%
%ADD34C,.025*%
G75*
%LPD*%
G75*
G54D10*
X-110840Y-60840D03*
Y110840D03*
X110840Y-60840D03*
Y110840D03*
G54D20*
X-47625Y38245D03*
G54D11*
X-114890Y58600D03*
Y68600D03*
Y78600D03*
X-98250Y-10150D03*
Y9850D03*
Y-150D03*
X-98560Y35070D03*
Y27270D03*
X-4160Y-9970D03*
Y30D03*
Y10030D03*
Y20030D03*
Y30030D03*
Y40030D03*
Y50030D03*
Y60030D03*
Y70030D03*
Y80030D03*
Y90030D03*
Y100030D03*
X103660Y-9970D03*
Y30D03*
Y10030D03*
Y20030D03*
Y30030D03*
Y40030D03*
Y50030D03*
Y60030D03*
Y70030D03*
Y80030D03*
Y90030D03*
Y100030D03*
G54D30*
X114110Y18996D03*
Y34744D03*
X120410Y18996D03*
Y34744D03*
X114110Y41976D03*
X120410D03*
X114110Y57724D03*
X120410D03*
G54D21*
X-46901Y65551D03*
G54D12*
X-86880Y81180D03*
Y94180D03*
X-41870Y78810D03*
Y91810D03*
G54D31*
G01X-74302Y65600D02*
Y20040D01*
X-75302Y19040D01*
X-98510D01*
X-106230Y11320D01*
Y-14760D01*
X-83260Y-37730D01*
X-47411D01*
X-41781Y-43360D01*
X-34610D01*
G01X-67456Y-50420D02*
Y-47451D01*
X-73337Y-41570D01*
G01X-63519Y-50420D02*
Y-46111D01*
G01X-54010Y-44340D02*
X-55010D01*
X-55644Y-44974D01*
Y-50420D01*
G01X-59581D02*
Y-40541D01*
G01X-14276Y-53769D02*
Y-60216D01*
X-15270Y-61210D01*
Y-63710D01*
G01D02*
X-11030D01*
X-10610Y-64130D01*
G01X-18480Y-59530D02*
X-17930Y-58980D01*
Y-57630D01*
X-16244Y-55944D01*
Y-53769D01*
G01X-21270Y-63710D02*
Y-61210D01*
X-21415Y-61065D01*
Y-57375D01*
X-18213Y-54173D01*
Y-53769D01*
G01X-21270Y-63710D02*
X-26200D01*
G01X-14276Y-52909D02*
Y-53769D01*
G01X-27280Y-49350D02*
X-32100D01*
X-32110Y-49360D01*
X-34610D01*
G01X-16244Y-53005D02*
Y-53769D01*
G01X-18213Y-43336D02*
Y-42351D01*
G01X-19670Y-32130D02*
Y-38072D01*
X-18213Y-39529D01*
Y-42351D01*
G01X-12307Y-53005D02*
Y-53769D01*
G01X-6725Y-59905D02*
X-12307Y-54323D01*
Y-53769D01*
G01X-18213Y-52909D02*
Y-53769D01*
G01X-15790Y-17350D02*
Y-35660D01*
G01X-16244Y-43115D02*
Y-42351D01*
G01X-15790Y-35660D02*
Y-38380D01*
X-16244Y-38834D01*
Y-42351D01*
G01X-560Y-45060D02*
Y-41790D01*
X-3360Y-38990D01*
X-12580D01*
X-14276Y-40686D01*
Y-42351D01*
G01Y-43336D02*
Y-42351D01*
G01X-31960Y-6500D02*
X-23730D01*
X-19670Y-10560D01*
Y-32130D01*
G01X-560Y-51060D02*
Y-56040D01*
G01X103660Y-9970D02*
X111450D01*
X111540Y-10060D01*
X114040D01*
G01X103660Y30D02*
X109790D01*
X111300Y1540D01*
X113800D01*
G01X114110Y18996D02*
Y18799D01*
X111630Y16319D01*
X109949D01*
X103660Y10030D01*
G01Y20030D02*
X110838Y27208D01*
Y38507D01*
X114110Y41779D01*
Y41976D01*
G01X118700Y-18090D02*
X117144Y-16534D01*
X116684D01*
X116210Y-16060D01*
X114040D01*
G01X113800Y7540D02*
Y12450D01*
G01X121500Y13310D02*
Y14380D01*
X120410Y15470D01*
Y18996D01*
G01Y34744D02*
Y18996D01*
G01Y41976D02*
Y34744D01*
G01X114110D02*
Y18996D01*
G01X120410Y57724D02*
Y41976D01*
G01X114110Y57724D02*
Y41976D01*
G54D22*
X-18213Y-42351D03*
X-16244D03*
X-14276D03*
X-12307D03*
Y-53769D03*
X-14276D03*
X-16244D03*
X-18213D03*
G54D13*
X-74877Y-67940D03*
X-48223D03*
G54D32*
G01X-98560Y35070D02*
Y40070D01*
X-98680Y40190D01*
Y61990D01*
X-105290Y68600D01*
X-114890D01*
G01X-4160Y-9970D02*
X-12720Y-1410D01*
X-57860D01*
X-66600Y-10150D01*
X-98250D01*
G01X-74302Y65600D02*
X-74322Y65620D01*
Y71525D01*
X-72020Y73827D01*
Y78470D01*
G01X-59498Y65600D02*
Y67750D01*
X-59518Y67770D01*
Y71525D01*
X-61820Y73827D01*
Y78470D01*
G01X-72020Y85970D02*
Y88970D01*
G01D02*
Y95594D01*
X-76620Y100194D01*
Y110130D01*
X-76578Y110172D01*
Y110672D01*
X-72620Y114630D01*
X-72120D01*
G01X-66120Y102730D02*
X-65620D01*
X-61820Y98930D01*
Y85970D01*
G01X-67988Y97562D02*
Y88978D01*
X-66320Y87310D01*
Y82850D01*
X-65890Y82420D01*
G01X-61820Y78470D02*
X-47210D01*
X-46870Y78810D01*
X-41870D01*
G01X-67988Y97562D02*
X-72120Y101694D01*
Y102730D01*
G01X-66120Y114630D02*
X-56720D01*
X-56700Y114610D01*
X-52700D01*
G01X-41870Y91810D02*
X-52450D01*
X-53120Y91140D01*
G01X-32330Y114640D02*
X-29350Y111660D01*
Y81650D01*
X-32190Y78810D01*
X-41870D01*
G01X-32330Y114640D02*
X-42670D01*
X-42700Y114610D01*
X-46700D01*
G01X-4160Y30030D02*
X-11380D01*
X-20319Y38969D01*
G01X-4160Y90030D02*
X-13430D01*
X-19595Y83865D01*
Y66275D01*
X-20319Y65551D01*
G01X-4160Y100030D02*
X-11570D01*
X-15290Y103750D01*
Y111740D01*
X-18190Y114640D01*
X-32330D01*
G01X590Y-9970D02*
X-4160D01*
G01X9750Y-10000D02*
X870D01*
X840Y-9970D01*
X590D01*
G54D23*
X-15260Y-48060D03*
G54D14*
X-67456Y-50420D03*
X-63519D03*
X-59581D03*
X-55644D03*
G54D33*
G01X-86880Y81180D02*
X-87690Y80370D01*
X-99060D01*
X-101180Y82490D01*
X-111000D01*
X-114890Y78600D01*
G54D24*
X-19595Y38245D03*
G54D15*
X-73337Y-41570D03*
X-63519Y-46111D03*
X-59581Y-40541D03*
X-81790Y-16750D03*
X-64980Y-16410D03*
X-69970Y-6800D03*
X-75960Y-3620D03*
X-81590Y2670D03*
X-58064Y14350D03*
X-73960Y8080D03*
X-70000Y11960D03*
X-65890Y82420D03*
X-67988Y97562D03*
X-54010Y-44340D03*
X-56010Y-12130D03*
X-41340Y5140D03*
X-45430Y23390D03*
X-53120Y91140D03*
X-10610Y-64130D03*
X-18480Y-59530D03*
X-26200Y-63710D03*
X-27280Y-49350D03*
X-19670Y-32130D03*
X-15790Y-35660D03*
Y-17350D03*
X-31960Y-6500D03*
X-33180Y4420D03*
X-22990Y23570D03*
X-560Y-56040D03*
X-6725Y-59905D03*
X118700Y-18090D03*
X113800Y12450D03*
X121500Y13310D03*
G54D34*
G01X-86880Y81180D02*
X-82130D01*
X-81830Y80880D01*
X-80830D01*
X-78420Y78470D01*
X-72020D01*
G01X-86880Y94180D02*
X-86740Y94320D01*
X-83300D01*
X-80800Y91820D01*
Y87250D01*
X-75770Y82220D01*
X-72020D01*
G01Y88970D02*
X-72000Y88990D01*
G01X-65890Y82420D02*
X-65480D01*
X-65280Y82220D01*
X-72020D01*
G01X620Y-10000D02*
X590Y-9970D01*
G01X-4160Y30D02*
X2970D01*
X3000Y0D01*
X9750D01*
G01X-4160Y10030D02*
X2970D01*
X3000Y10000D01*
X9750D01*
G01X-4160Y40030D02*
X2970D01*
X3000Y40000D01*
X9750D01*
G01X-4160Y20030D02*
X2970D01*
X3000Y20000D01*
X9750D01*
G01X-4160Y30030D02*
X2970D01*
X3000Y30000D01*
X9750D01*
G01X-4160Y60030D02*
X2970D01*
X3000Y60000D01*
X9750D01*
G01X-4160Y50030D02*
X2970D01*
X3000Y50000D01*
X9750D01*
G01X-4160Y90030D02*
X2970D01*
X3000Y90000D01*
X9750D01*
G01Y80000D02*
X620D01*
X590Y80030D01*
X-4160D01*
G01Y70030D02*
X2970D01*
X3000Y70000D01*
X9750D01*
G01X-4160Y100030D02*
X2970D01*
X3000Y100000D01*
X9750D01*
G01X89750Y-10000D02*
X98880D01*
X98910Y-9970D01*
X103660D01*
G01X89750Y0D02*
X98880D01*
X98910Y30D01*
X103660D01*
G01X89750Y10000D02*
X98880D01*
X98910Y10030D01*
X103660D01*
G01X89750Y40000D02*
X98880D01*
X98910Y40030D01*
X103660D01*
G01X89750Y30000D02*
X98880D01*
X98910Y30030D01*
X103660D01*
G01X89750Y20000D02*
X98880D01*
X98910Y20030D01*
X103660D01*
G01Y60030D02*
X96530D01*
X96500Y60000D01*
X89750D01*
G01Y50000D02*
X98880D01*
X98910Y50030D01*
X103660D01*
G01X89750Y70000D02*
X98880D01*
X98910Y70030D01*
X103660D01*
G01Y90030D02*
X96530D01*
X96500Y90000D01*
X89750D01*
G01X103660Y80030D02*
X96530D01*
X96500Y80000D01*
X89750D01*
G01X103660Y100030D02*
X96530D01*
X96500Y100000D01*
X89750D01*
G54D16*
X-59498Y65600D03*
X-74302D03*
G54D25*
X-19595Y66275D03*
G54D17*
X-72020Y85970D03*
Y82220D03*
Y78470D03*
X-61820D03*
Y85970D03*
G54D26*
X9750Y-10000D03*
Y0D03*
Y10000D03*
Y20000D03*
Y30000D03*
Y40000D03*
Y50000D03*
Y60000D03*
Y70000D03*
Y80000D03*
Y90000D03*
Y100000D03*
X89750Y-10000D03*
Y10000D03*
Y0D03*
Y40000D03*
Y30000D03*
Y20000D03*
Y60000D03*
Y50000D03*
Y90000D03*
Y80000D03*
Y70000D03*
Y100000D03*
G54D18*
X-72120Y114630D03*
X-66120D03*
Y102730D03*
X-72120D03*
X-46700Y114610D03*
X-52700D03*
X-15270Y-63710D03*
X-21270D03*
G54D27*
X24750Y30000D03*
X74750Y90000D03*
Y100000D03*
G54D19*
X-34610Y-43360D03*
Y-49360D03*
X-560Y-45060D03*
Y-51060D03*
X114040Y-16060D03*
Y-10060D03*
X113800Y7540D03*
Y1540D03*
G54D28*
X24750Y70000D03*
Y100000D03*
G54D29*
X45750Y111000D03*
X53750D03*
M02*
