G04 ================== begin FILE IDENTIFICATION RECORD ==================*
G04 Layout Name:  SLEEPTRACK2_PHASE3.brd*
G04 Film Name:    Sleeptrack2_Phase_2_VCC_V3*
G04 File Format:  Gerber RS274X*
G04 File Origin:  Cadence Allegro 17.0-P009*
G04 Origin Date:  Sun Aug 28 20:15:54 2016*
G04 *
G04 Layer:  ETCH/VCC*
G04 Layer:  PIN/VCC*
G04 Layer:  VIA CLASS/VCC*
G04 *
G04 Offset:    (0.00 0.00)*
G04 Mirror:    No*
G04 Mode:      Positive*
G04 Rotation:  0*
G04 FullContactRelief:  No*
G04 UndefLineWidth:     10.00*
G04 ================== end FILE IDENTIFICATION RECORD ====================*
%FSLAX25Y25*MOIN*%
%IR0*IPPOS*OFA0.00000B0.00000*MIA0B0*SFA1.00000B1.00000*%
%ADD13C,.022*%
%ADD10C,.024*%
%ADD12C,.055*%
%ADD11C,.135*%
%ADD14C,.01*%
%ADD19C,.03204*%
%ADD15C,.03404*%
%ADD17C,.06504*%
%ADD18C,.15004*%
%ADD16R,.67004X.57904*%
G75*
%LPD*%
G75*
G36*
G01X-125000Y-143100D02*
Y-75000D01*
X-38860D01*
Y-143100D01*
X-125000D01*
G37*
G36*
G01X-123999Y123999D02*
X123999D01*
Y-73999D01*
X-123999D01*
Y123999D01*
G37*
G36*
G01X-38358Y-143100D02*
Y-75000D01*
X125000D01*
Y-143100D01*
X-38358D01*
G37*
%LPC*%
G75*
G54D19*
X-28490Y-139040D03*
X-23490Y-129040D03*
X-18490Y-139040D03*
X-13490Y-129040D03*
X-8490Y-139040D03*
X-3490Y-129040D03*
X1510Y-139040D03*
X6510Y-129040D03*
X11510Y-139040D03*
X16510Y-129040D03*
X21510Y-139040D03*
X26510Y-129040D03*
X31510Y-139040D03*
X36510Y-129040D03*
X41510Y-139040D03*
X46510Y-129040D03*
X51510Y-139040D03*
X56510Y-129040D03*
X61510Y-139040D03*
X66510Y-129040D03*
X71510Y-139040D03*
X76510Y-129040D03*
X81510Y-139040D03*
X86510Y-129040D03*
X91510Y-139040D03*
X96510Y-129040D03*
X101510Y-139040D03*
X106510Y-129040D03*
X111510Y-139040D03*
X116510Y-129040D03*
G54D15*
X-109690Y-123360D03*
X-74250Y-134120D03*
X-79120Y-138150D03*
X-67530Y-134960D03*
X-68610Y-128840D03*
X-98540Y-137000D03*
X-85240Y-83910D03*
X-82150Y-98420D03*
X-78200Y-102680D03*
X-70327Y-104310D03*
X-84410Y-104180D03*
X-96390Y-101990D03*
X-63449Y-107989D03*
X-79020Y-92060D03*
X-85500Y-130000D03*
X-68200Y-118370D03*
X-68620Y-113300D03*
X-102620Y-108770D03*
X-102600Y-121260D03*
X-117240Y-116730D03*
X-117330Y-126910D03*
X-95400Y-129590D03*
X-96860Y-125880D03*
X121500Y13310D03*
X-38600Y-26900D03*
X-40070Y-9460D03*
X-44130Y-11020D03*
X-58064Y14350D03*
X-48080Y12710D03*
X-53100Y12720D03*
X-40000Y10410D03*
X-73960Y8080D03*
X-70000Y11960D03*
X-54010Y-44340D03*
X-59581Y-40541D03*
X-87500Y85220D03*
X-67988Y97562D03*
X-56010Y-12130D03*
X-41340Y5140D03*
X-65890Y82420D03*
X-41990Y85220D03*
X-26200Y-63710D03*
X-27280Y-49350D03*
X-18480Y-59530D03*
X-15790Y-35660D03*
X-31960Y-6500D03*
X-19670Y-32130D03*
X-15790Y-17350D03*
X-33180Y4420D03*
X-22990Y23570D03*
X-560Y-56040D03*
X-6725Y-59905D03*
X-63519Y-46111D03*
X-81790Y-16750D03*
X-69970Y-6800D03*
X-70615Y19485D03*
X-70080Y26160D03*
X-36290Y-20730D03*
X68824Y-106694D03*
X65330Y-103530D03*
X64620Y-111090D03*
X78230Y-107900D03*
G54D17*
X-98250Y-10150D03*
X-98560Y27270D03*
X-98250Y9850D03*
Y-150D03*
X-114890Y58600D03*
X-98560Y35070D03*
X-114890Y68600D03*
Y78600D03*
X-4160Y-9970D03*
Y30D03*
Y10030D03*
Y20030D03*
Y30030D03*
Y40030D03*
Y50030D03*
Y60030D03*
Y70030D03*
Y80030D03*
Y90030D03*
Y100030D03*
X103660Y-9970D03*
Y30D03*
Y10030D03*
Y20030D03*
Y30030D03*
Y40030D03*
Y50030D03*
Y60030D03*
Y70030D03*
Y80030D03*
Y90030D03*
Y100030D03*
G54D18*
X-110840Y110840D03*
Y-60840D03*
X110840D03*
Y110840D03*
G54D16*
X49750Y-26050D03*
%LPD*%
G75*
G54D10*
X-109690Y-123360D03*
X-117240Y-116730D03*
X-117330Y-126910D03*
X-95400Y-129590D03*
X-98540Y-137000D03*
X-85500Y-130000D03*
X-89170Y-137480D03*
X-96860Y-125880D03*
X-102620Y-108770D03*
X-102600Y-121260D03*
X-84410Y-104180D03*
X-98080Y-117310D03*
X-92080Y-105750D03*
X-96390Y-101990D03*
X-85240Y-83910D03*
X-82150Y-98420D03*
X-81790Y-16750D03*
X-81590Y2670D03*
X-87500Y85220D03*
X-67530Y-134960D03*
X-79120Y-138150D03*
X-74250Y-134120D03*
X-68610Y-128840D03*
X-78200Y-102680D03*
X-68620Y-113300D03*
X-63449Y-107989D03*
X-70327Y-104310D03*
X-68200Y-118370D03*
X-55574Y-104210D03*
X-79020Y-92060D03*
X-73337Y-41570D03*
X-63519Y-46111D03*
X-59581Y-40541D03*
X-64980Y-16410D03*
X-56010Y-12130D03*
X-69970Y-6800D03*
X-70615Y19485D03*
X-75960Y-3620D03*
X-58064Y14350D03*
X-73960Y8080D03*
X-70000Y11960D03*
X-70080Y26160D03*
X-65890Y82420D03*
X-67988Y97562D03*
X-49600Y-120530D03*
X-54010Y-44340D03*
X-40070Y-9460D03*
X-44130Y-11020D03*
X-36290Y-20730D03*
X-38600Y-26900D03*
X-31960Y-6500D03*
X-53100Y12720D03*
X-48080Y12710D03*
X-33180Y4420D03*
X-41340Y5140D03*
X-40000Y10410D03*
X-45430Y23390D03*
X-41990Y85220D03*
X-10610Y-64130D03*
X-18480Y-59530D03*
X-6725Y-59905D03*
X-26200Y-63710D03*
X-27280Y-49350D03*
X-19670Y-32130D03*
X-15790Y-35660D03*
Y-17350D03*
X-22990Y23570D03*
X-560Y-56040D03*
X64620Y-111090D03*
X65330Y-103530D03*
X68824Y-106694D03*
X78230Y-107900D03*
X113800Y12450D03*
X118700Y-18090D03*
X121500Y13310D03*
G54D11*
X-110840Y-60840D03*
Y110840D03*
X110840Y-60840D03*
Y110840D03*
G54D12*
X-114890Y58600D03*
Y68600D03*
Y78600D03*
X-98250Y-10150D03*
Y9850D03*
Y-150D03*
X-98560Y35070D03*
Y27270D03*
X-4160Y-9970D03*
Y30D03*
Y10030D03*
Y20030D03*
Y30030D03*
Y40030D03*
Y50030D03*
Y60030D03*
Y70030D03*
Y80030D03*
Y90030D03*
Y100030D03*
X103660Y-9970D03*
Y30D03*
Y10030D03*
Y20030D03*
Y30030D03*
Y40030D03*
Y50030D03*
Y60030D03*
Y70030D03*
Y80030D03*
Y90030D03*
Y100030D03*
G54D13*
X-8490Y-139040D03*
X-13490Y-129040D03*
X-18490Y-139040D03*
X-23490Y-129040D03*
X-28490Y-139040D03*
X16510Y-129040D03*
X11510Y-139040D03*
X6510Y-129040D03*
X1510Y-139040D03*
X-3490Y-129040D03*
X41510Y-139040D03*
X36510Y-129040D03*
X31510Y-139040D03*
X26510Y-129040D03*
X21510Y-139040D03*
X66510Y-129040D03*
X61510Y-139040D03*
X56510Y-129040D03*
X51510Y-139040D03*
X46510Y-129040D03*
X91510Y-139040D03*
X86510Y-129040D03*
X81510Y-139040D03*
X76510Y-129040D03*
X71510Y-139040D03*
X116510Y-129040D03*
X111510Y-139040D03*
X106510Y-129040D03*
X101510Y-139040D03*
X96510Y-129040D03*
G54D14*
G01X-98250Y6398D02*
Y9850D01*
G01D02*
Y13302D01*
G01X-101702Y9850D02*
X-98250D01*
G01D02*
X-94798D01*
G01X103660Y96578D02*
Y100030D01*
G01D02*
Y103482D01*
G01X100208Y100030D02*
X103660D01*
G01D02*
X107112D01*
M02*
