G04 ================== begin FILE IDENTIFICATION RECORD ==================*
G04 Layout Name:  SLEEPTRACK2_PHASE3_v2.brd*
G04 Film Name:    Sleeptrack2_Phase_3_BOTTOM_V2*
G04 File Format:  Gerber RS274X*
G04 File Origin:  Cadence Allegro 17.0-P009*
G04 Origin Date:  Wed Oct 26 22:38:21 2016*
G04 *
G04 Layer:  ETCH/BOTTOM*
G04 Layer:  PIN/BOTTOM*
G04 Layer:  VIA CLASS/BOTTOM*
G04 *
G04 Offset:    (0.00 0.00)*
G04 Mirror:    No*
G04 Mode:      Positive*
G04 Rotation:  0*
G04 FullContactRelief:  No*
G04 UndefLineWidth:     10.00*
G04 ================== end FILE IDENTIFICATION RECORD ====================*
%FSLAX25Y25*MOIN*%
%IR0*IPPOS*OFA0.00000B0.00000*MIA0B0*SFA1.00000B1.00000*%
%ADD12C,.06*%
%ADD10C,.024*%
%ADD15R,.03X.00984*%
%ADD14R,.00984X.03*%
%ADD17R,.03X.04*%
%ADD13R,.04X.03*%
%ADD11C,.135*%
%ADD16R,.05118X.0748*%
%ADD18C,.01*%
%ADD19C,.006*%
%ADD20C,.008*%
G75*
%LPD*%
G75*
G54D10*
X-109480Y-128480D03*
X-117120Y-132030D03*
X-117030Y-121850D03*
X-95190Y-134710D03*
X-96650Y-131000D03*
X-98330Y-142120D03*
X-85290Y-135120D03*
X-88960Y-142600D03*
X-96180Y-107110D03*
X-81940Y-103540D03*
X-102410Y-113890D03*
X-102390Y-126380D03*
X-84200Y-109300D03*
X-97870Y-122430D03*
X-91870Y-110870D03*
X-85030Y-89030D03*
X-81790Y-16750D03*
X-81590Y2670D03*
X-67320Y-140080D03*
X-78910Y-143270D03*
X-74040Y-139240D03*
X-68400Y-133960D03*
X-77990Y-107800D03*
X-68410Y-118420D03*
X-63239Y-113109D03*
X-70117Y-109430D03*
X-67990Y-123490D03*
X-55364Y-109330D03*
X-78810Y-97180D03*
X-73337Y-41570D03*
X-63519Y-46111D03*
X-59581Y-40541D03*
X-64980Y-16410D03*
X-56010Y-12130D03*
X-69970Y-6800D03*
X-75960Y-3620D03*
X-58064Y14350D03*
X-73960Y8080D03*
X-70000Y11960D03*
X-65890Y82420D03*
X-67988Y97562D03*
X-49390Y-125650D03*
X-54010Y-44340D03*
X-31960Y-6500D03*
X-33180Y4420D03*
X-41340Y5140D03*
X-45430Y23390D03*
X-53120Y91140D03*
X-10610Y-64130D03*
X-18480Y-59530D03*
X-6725Y-59905D03*
X-26200Y-63710D03*
X-27280Y-49350D03*
X-19670Y-32130D03*
X-15790Y-35660D03*
Y-17350D03*
X-22990Y23570D03*
X-560Y-56040D03*
X113800Y12450D03*
X118700Y-18090D03*
X121500Y13310D03*
G54D20*
G01X-96650Y-131000D02*
X-98330Y-132680D01*
Y-142120D01*
G01X-102390Y-126380D02*
Y-116010D01*
X-102410Y-115990D01*
Y-113890D01*
G01X-60053Y-5701D02*
Y-14807D01*
X-60033Y-14827D01*
G01X-80910Y8080D02*
X-73960D01*
G54D11*
X-110840Y-60840D03*
Y110840D03*
X110840Y-60840D03*
Y110840D03*
G54D12*
X-114890Y58600D03*
Y68600D03*
Y78600D03*
X-98250Y-10150D03*
Y9850D03*
Y-150D03*
X-98560Y35070D03*
Y27270D03*
X-4160Y-9970D03*
Y30D03*
Y10030D03*
Y20030D03*
Y30030D03*
Y40030D03*
Y50030D03*
Y60030D03*
Y70030D03*
Y80030D03*
Y90030D03*
Y100030D03*
X103660Y-9970D03*
Y30D03*
Y10030D03*
Y20030D03*
Y30030D03*
Y40030D03*
Y50030D03*
Y60030D03*
Y70030D03*
Y80030D03*
Y90030D03*
Y100030D03*
G54D13*
X-80910Y8080D03*
X-86910D03*
X-80980Y19450D03*
X-86980D03*
X-80910Y-2970D03*
X-86910D03*
X-63910Y19390D03*
X-57910D03*
G54D14*
X-58084Y-5701D03*
X-60053D03*
X-62021D03*
X-63990D03*
X-65958D03*
X-58084Y8961D03*
X-60053D03*
X-62021D03*
X-63990D03*
X-65958D03*
X-48242Y-5701D03*
X-50210D03*
X-52179D03*
X-54147D03*
X-56116D03*
X-48340Y8961D03*
X-50210D03*
X-52179D03*
X-54147D03*
X-56116D03*
G54D15*
X-66746Y4583D03*
Y2614D03*
Y646D03*
Y-1323D03*
X-47454Y4583D03*
Y2614D03*
Y646D03*
Y-1323D03*
G54D16*
X-49447Y-30869D03*
Y-18271D03*
X-27793Y-30869D03*
Y-18271D03*
G54D17*
X-40570Y17390D03*
Y23390D03*
X-27940Y17390D03*
Y23390D03*
G54D18*
G01X-65958Y-5701D02*
Y-11308D01*
X-71400Y-16750D01*
X-81790D01*
G01X-86910Y-2970D02*
Y-5470D01*
X-85580Y-6800D01*
X-69970D01*
G01X-70004Y2614D02*
X-70750Y3360D01*
X-80900D01*
X-81590Y2670D01*
G01X-86980Y19450D02*
Y16950D01*
X-86910Y16880D01*
Y8080D01*
G01D02*
Y-2970D01*
G01X-63239Y-113109D02*
Y-117420D01*
X-64239Y-118420D01*
X-68410D01*
G01X-63519Y-46111D02*
Y-38649D01*
X-61450Y-36580D01*
X-24120D01*
X-19670Y-32130D01*
G01X-59581Y-40541D02*
X-57621Y-38581D01*
X-18711D01*
X-15790Y-35660D01*
G01X-62001Y-4800D02*
Y-6380D01*
G01X-63990Y-5701D02*
X-64150Y-5861D01*
Y-13380D01*
X-64980Y-14210D01*
Y-16410D01*
G01X-66746Y-1323D02*
X-69893D01*
X-69970Y-1400D01*
Y-6800D01*
G01X-58084Y-5701D02*
Y-10056D01*
X-56010Y-12130D01*
G01X-62021Y-5701D02*
Y-21854D01*
X-53006Y-30869D01*
X-49447D01*
G01X-75960Y-3620D02*
X-76610Y-2970D01*
X-80910D01*
G01X-66746Y646D02*
X-71694D01*
X-75960Y-3620D01*
G01X-69730Y2610D02*
X-70000D01*
X-70004Y2614D01*
G01X-66746D02*
X-70004D01*
G01X-58064Y14350D02*
Y8981D01*
X-58084Y8961D01*
G01X-58064Y14350D02*
Y16736D01*
X-57910Y16890D01*
Y19390D01*
G01X-60053Y8961D02*
Y10703D01*
X-63910Y14560D01*
Y19390D01*
G01X-66746Y4583D02*
X-69144D01*
X-69921Y5360D01*
X-71240D01*
X-73960Y8080D01*
G01X-65958Y8961D02*
Y10960D01*
X-66958Y11960D01*
X-70000D01*
G01D02*
X-75115Y17075D01*
X-78105D01*
X-80480Y19450D01*
X-80980D01*
G01X-48242Y-5701D02*
X-47443Y-6500D01*
X-31960D01*
G01X-47454Y4583D02*
X-44737D01*
X-44180Y5140D01*
X-41340D01*
G01X-47454Y646D02*
X-36954D01*
X-33180Y4420D01*
G01X-42972Y-1603D02*
X-25707D01*
X-15790Y-11520D01*
Y-17350D01*
G01X-47454Y2614D02*
X-38696D01*
X-27940Y13370D01*
Y17390D01*
G01X-56116Y8961D02*
Y11874D01*
X-53308Y14682D01*
X-42778D01*
X-40570Y16890D01*
Y17390D01*
G01Y23390D02*
X-45430D01*
G01X-18480Y-59530D02*
X-20036Y-57974D01*
Y-56594D01*
X-27280Y-49350D01*
G01X103660Y-9970D02*
X109190D01*
X110730Y-11510D01*
Y-33150D01*
X83720Y-60160D01*
X13260D01*
X8990Y-55890D01*
Y-42490D01*
X-1370Y-32130D01*
X-19670D01*
G01X-15790Y-35660D02*
X-15270D01*
X-15190Y-35580D01*
X-1990D01*
X6910Y-44480D01*
Y-57460D01*
X11780Y-62330D01*
X84930D01*
X113128Y-34132D01*
Y-4008D01*
X109090Y30D01*
X103660D01*
G01X-27940Y23390D02*
X-25370D01*
X-25190Y23570D01*
X-22990D01*
G54D19*
G01X-60033Y-14827D02*
X-56630Y-18230D01*
X-52847D01*
X-52806Y-18271D01*
X-49447D01*
G01X-48340Y8961D02*
Y5469D01*
X-47454Y4583D01*
G01X-48340Y8961D02*
X-45161D01*
X-41340Y5140D01*
G01X-47454Y-1323D02*
X-43252D01*
X-42972Y-1603D01*
M02*
