G04 ================== begin FILE IDENTIFICATION RECORD ==================*
G04 Layout Name:  C:/Users/Madison/Desktop/gc/Photon_Dev/Photon_4Layer_V2.brd*
G04 Film Name:    SleepTrack_V2_BOTTOM*
G04 File Format:  Gerber RS274X*
G04 File Origin:  Cadence Allegro 17.0-P009*
G04 Origin Date:  Fri Feb 12 22:27:43 2016*
G04 *
G04 Layer:  ETCH/BOTTOM*
G04 Layer:  PIN/BOTTOM*
G04 Layer:  VIA CLASS/BOTTOM*
G04 *
G04 Offset:    (0.00 0.00)*
G04 Mirror:    No*
G04 Mode:      Positive*
G04 Rotation:  0*
G04 FullContactRelief:  No*
G04 UndefLineWidth:     6.00*
G04 ================== end FILE IDENTIFICATION RECORD ====================*
%FSLAX25Y25*MOIN*%
%IR0*IPPOS*OFA0.00000B0.00000*MIA0B0*SFA1.00000B1.00000*%
%AMMACRO15*
21,1,.01772,.00906,0.0,0.0,179.999*%
%ADD15MACRO15*%
%ADD16C,.06*%
%ADD11C,.024*%
%AMMACRO18*
21,1,.03937,.03937,0.0,0.0,89.999*
1,1,.03937,0.0,.019685*
1,1,.03937,0.0,-.019685*%
%ADD18MACRO18*%
%ADD12R,.03X.04*%
%ADD17R,.04X.03*%
%ADD10C,.135*%
%AMMACRO14*
21,1,.01772,.00906,0.0,0.0,89.999*%
%ADD14MACRO14*%
%AMMACRO20*
21,1,.03937,.03937,0.0,0.0,179.999*
1,1,.03937,-.019685,0.0*
1,1,.03937,.019685,0.0*%
%ADD20MACRO20*%
%ADD21O,.03346X.05118*%
%AMMACRO13*
21,1,.04,.03,0.0,0.0,89.999*%
%ADD13MACRO13*%
%ADD19O,.05709X.06496*%
%ADD22C,.006*%
G75*
%LPD*%
G75*
G54D10*
X-90000Y-90000D03*
Y90000D03*
X90000Y-90000D03*
Y90000D03*
G54D20*
X44499Y-95859D03*
X61034Y-52159D03*
G54D11*
X-90670Y-55346D03*
X-94929Y1068D03*
X-97045Y3640D03*
X-95629Y20753D03*
X-91572Y73541D03*
X-83655Y-79651D03*
X-85056Y-16468D03*
X-85163Y7345D03*
X-72891Y17693D03*
X-74120Y14268D03*
X-81874Y74477D03*
X-72423Y82004D03*
X-53716Y-64805D03*
X-54821Y13130D03*
X-65670Y16400D03*
X-46930Y15106D03*
X-62543Y72696D03*
X-58591Y90558D03*
X-52793Y79612D03*
X-59735Y81354D03*
X-62400Y91936D03*
X-56745Y85605D03*
X-34060Y-75335D03*
X-30472Y-66313D03*
X-36816Y-66781D03*
X-27339Y-42978D03*
X-33540Y-43420D03*
X-38111Y-27963D03*
X-43784Y-29835D03*
X-32936Y-23634D03*
Y-28724D03*
X-26663Y-29003D03*
X-38350Y14508D03*
X-34174Y15847D03*
X-28841Y17687D03*
X-28444Y83967D03*
X-6292Y-71006D03*
X-12545Y-69017D03*
X-6006Y-55250D03*
X-12051Y-38922D03*
X-7514Y-50128D03*
X-23296Y-17498D03*
X-23881Y-10478D03*
X-4316Y-9204D03*
X-22958Y-23985D03*
X-22464Y-6474D03*
X-10686Y-776D03*
X-22854Y14911D03*
X-10361Y39000D03*
X-5408Y44265D03*
X-11674Y59475D03*
X-11715Y65465D03*
X-20150Y83629D03*
X-4992Y80028D03*
X1573Y-63128D03*
X17277Y-73515D03*
X12435Y-48341D03*
X10193Y-43353D03*
X-1768Y-40690D03*
X18499Y-50674D03*
X1859Y-17238D03*
X8296Y4240D03*
X2379Y12207D03*
X-910Y44291D03*
X10504Y51298D03*
X4264Y76323D03*
X14235Y75075D03*
X39650Y-54249D03*
X39182Y-39780D03*
X20641Y-33600D03*
X28509Y-31993D03*
X25220Y-16562D03*
X29731Y-19162D03*
X27768Y2262D03*
X28080Y6487D03*
X32175Y1625D03*
X27664Y-5798D03*
X23881Y19032D03*
X40248Y30927D03*
X30909Y41891D03*
X22717Y53540D03*
X29601Y58019D03*
X23049Y92378D03*
X45292Y-72553D03*
X48854Y-41780D03*
X42510Y-21671D03*
X50128Y-29588D03*
X54704Y-18642D03*
X60697Y-23699D03*
X57278Y-3393D03*
X60729Y3660D03*
X57096Y11362D03*
X60996Y19054D03*
X48763Y21112D03*
X47710Y74334D03*
X58600Y75955D03*
X72000Y-57259D03*
X72202Y-40833D03*
X72930Y-21957D03*
X70382Y-12337D03*
X72689Y4842D03*
X64545Y5889D03*
X77259Y26832D03*
X80379Y38896D03*
X66430Y44031D03*
X90766Y-12506D03*
X90142Y-17056D03*
X92452Y-3068D03*
G54D21*
X43935Y79656D03*
X63029D03*
G54D12*
X-80158Y-10468D03*
Y-16468D03*
X-54769D03*
Y-10468D03*
X-67626Y1264D03*
Y7264D03*
X-42575Y-16468D03*
Y-10468D03*
G54D22*
G01X-32936Y-23634D02*
X-35542D01*
X-36621Y-24713D01*
X-90597D01*
X-97526Y-17784D01*
Y819D01*
X-99045Y2338D01*
Y5072D01*
X-96980Y7137D01*
Y19275D01*
X-97629Y19924D01*
Y69564D01*
X-95394Y71799D01*
X-92659D01*
X-92401Y71541D01*
X-90743D01*
X-90485Y71799D01*
X-63440D01*
X-62543Y72696D01*
G01X-85056Y-16468D02*
X-80158D01*
G01D02*
X-67626D01*
G01X-80158Y1264D02*
Y-10468D01*
G01D02*
X-67626D01*
G01Y7264D02*
X-80158D01*
G01D02*
X-83082D01*
X-83163Y7345D01*
X-85163D01*
G01X29601Y58019D02*
X22737D01*
X-8645Y26637D01*
X-61947D01*
X-70891Y17693D01*
X-72891D01*
G01X22717Y53540D02*
X-5421Y25402D01*
X-61256D01*
X-69563Y17095D01*
Y16198D01*
X-71493Y14268D01*
X-74120D01*
G01X-69310Y76199D02*
X-71279D01*
G01D02*
X-73248D01*
G01D02*
X-75216D01*
G01D02*
X-77185D01*
G01D02*
Y74878D01*
X-79001Y73062D01*
X-80459D01*
X-81874Y74477D01*
G01X-69310Y87419D02*
Y85117D01*
X-72423Y82004D01*
G01X-54769Y-16468D02*
X-67626D01*
G01X-54769D02*
X-42575D01*
G01X-67626Y1264D02*
Y-10468D01*
G01X-42575D02*
X-54769D01*
G01Y1264D02*
Y-10468D01*
G01X-67626D02*
X-54769D01*
G01Y7264D02*
X-67626D01*
G01X-54769D02*
X-42575D01*
G01X-10686Y-776D02*
X-15664D01*
X-23483Y7043D01*
X-24989D01*
X-28827Y10881D01*
X-52572D01*
X-54821Y13130D01*
G01X-65373Y76199D02*
X-67342D01*
G01D02*
X-69310D01*
G01X-63405D02*
Y77229D01*
X-62725Y77909D01*
X-53919D01*
X-48706Y72696D01*
X-14703D01*
X-13715Y71708D01*
Y60075D01*
X-13115Y59475D01*
X-11674D01*
G01X-63405Y83778D02*
X-57747D01*
X-57574Y83605D01*
X-57358D01*
X-54780Y81027D01*
X-54208D01*
X-52793Y79612D01*
G01X-63405Y79840D02*
Y81809D01*
G01Y87419D02*
Y90931D01*
X-62400Y91936D01*
G01X-63405Y79840D02*
X-61249D01*
X-59735Y81354D01*
G01X-67342Y87419D02*
Y82091D01*
X-65091Y79840D01*
X-63405D01*
G01X-11715Y65465D02*
Y84962D01*
X-12315Y85562D01*
X-19254D01*
X-19321Y85629D01*
X-20979D01*
X-21046Y85562D01*
X-27210D01*
X-27615Y85967D01*
X-29273D01*
X-29635Y85605D01*
X-56745D01*
G01X-65373Y87419D02*
Y86082D01*
X-64896Y85605D01*
X-56745D01*
G01X-30472Y-66313D02*
X-30329D01*
X-29094Y-67548D01*
G01D02*
X-25802D01*
G01X-29099D02*
X-29094D01*
G01X-25802Y-57343D02*
X-28602D01*
X-31101Y-54844D01*
Y-52824D01*
X-29549Y-51272D01*
Y-43576D01*
X-28951Y-42978D01*
X-27339D01*
G01X-32936Y-28724D02*
X-34060Y-29848D01*
Y-41111D01*
X-35540Y-42591D01*
Y-44249D01*
X-34060Y-45729D01*
Y-75335D01*
G01X-26663Y-29003D02*
X-28942Y-26724D01*
X-33765D01*
X-36816Y-29775D01*
Y-66781D01*
G01X-19802Y-47164D02*
Y-46849D01*
X-25782Y-40869D01*
X-30989D01*
X-33540Y-43420D01*
G01X-23296Y-17498D02*
X-27506D01*
X-28536Y-16468D01*
X-30836D01*
G01D02*
X-42575D01*
G01X-30836Y1264D02*
Y-10468D01*
G01X-42575Y1264D02*
Y-10468D01*
G01X-30836D02*
X-28536D01*
X-28526Y-10478D01*
X-23881D01*
G01X-30836Y-10468D02*
X-42575D01*
G01X-32936Y-23634D02*
X-23309D01*
X-22958Y-23985D01*
G01X-302Y-46618D02*
X-3402D01*
Y-42690D01*
X-12976D01*
X-26663Y-29003D01*
G01X-30836Y7264D02*
X-42575D01*
G01X56059Y-44551D02*
X25134D01*
X18002Y-37419D01*
X-6736D01*
X-7336Y-36819D01*
Y624D01*
X-7936Y1224D01*
X-13191D01*
X-13336Y1079D01*
X-15821D01*
X-22985Y8243D01*
X-24491D01*
X-28611Y12363D01*
X-44187D01*
X-46930Y15106D01*
G01X8296Y4240D02*
X-17227D01*
X-22430Y9443D01*
X-23993D01*
X-28200Y13650D01*
X-37492D01*
X-38350Y14508D01*
G01X2379Y12207D02*
X-1040Y8788D01*
X-19930D01*
X-21785Y10643D01*
X-23495D01*
X-27854Y15002D01*
X-33329D01*
X-34174Y15847D01*
G01X48854Y-41780D02*
X24061D01*
X16641Y-34360D01*
Y13111D01*
X16041Y13711D01*
X3704D01*
X3208Y14207D01*
X1550D01*
X-814Y11843D01*
X-22997D01*
X-28841Y17687D01*
G01X-25802Y-47164D02*
X-25688Y-47278D01*
Y-51402D01*
X-24986Y-52104D01*
X-16952D01*
X-5928Y-63128D01*
X1573D01*
G01X-19802Y-57343D02*
X-19230Y-56771D01*
X-14391D01*
X-6292Y-64870D01*
Y-71006D01*
G01X-19802Y-67548D02*
X-18333Y-69017D01*
X-12545D01*
G01X-6302Y-46618D02*
Y-48916D01*
X-7514Y-50128D01*
G01X39169Y-35600D02*
X19579D01*
X18641Y-34662D01*
Y14311D01*
X18041Y14911D01*
X4202D01*
X3706Y15407D01*
X1052D01*
X556Y14911D01*
X-22854D01*
G01X10504Y51298D02*
Y64532D01*
X-4992Y80028D01*
G01X10193Y-43353D02*
Y-48341D01*
X12435D01*
G01X-1768Y-40690D02*
X-897Y-39819D01*
X10517D01*
X18499Y-47801D01*
Y-50674D01*
G01X-4316Y-9204D02*
X5876D01*
X6881Y-8199D01*
Y2825D01*
X8296Y4240D01*
G01X14235Y75075D02*
X16836D01*
X20112Y71799D01*
X54444D01*
X58600Y75955D01*
G01X44499Y-95859D02*
Y-93090D01*
X24924Y-73515D01*
X17277D01*
G01X34656Y-69875D02*
X42614D01*
X45292Y-72553D01*
G01X34661Y-49660D02*
Y-51960D01*
X34791Y-52090D01*
Y-60034D01*
G01X24814Y-63182D02*
X31964D01*
X34791Y-60355D01*
Y-60034D01*
G01X42510Y-21671D02*
X20641D01*
Y-33600D01*
G01X70382Y-12337D02*
Y-12695D01*
X69498Y-13579D01*
X26695D01*
X25220Y-15054D01*
Y-16562D01*
G01X29731Y-19162D02*
X48204D01*
X52741Y-23699D01*
X60697D01*
G01X35350Y15691D02*
X34850D01*
X32175Y13016D01*
Y1625D01*
G01X41350Y15691D02*
Y7888D01*
X27664Y-5798D01*
G01X60996Y19054D02*
X58405D01*
X58383Y19032D01*
X23881D01*
G01X77259Y26832D02*
X63128D01*
X48069Y41891D01*
X30909D01*
G01X40661Y-49660D02*
Y-53238D01*
X39650Y-54249D01*
G01X62216Y-82080D02*
Y-75619D01*
X55640Y-69043D01*
Y-62370D01*
X55578Y-62308D01*
Y-60008D01*
G01X40791Y-60034D02*
X52752D01*
X52778Y-60008D01*
X55578D01*
G01X39198Y-32071D02*
Y-34371D01*
X39169Y-34400D01*
Y-35600D01*
G01X39182Y-39780D02*
Y-36868D01*
X39169Y-36855D01*
Y-35600D01*
G01X61034Y-52159D02*
Y-49026D01*
X56559Y-44551D01*
X56059D01*
G01X45198Y-32071D02*
X47998D01*
X50128Y-29941D01*
Y-29588D01*
G01X61578Y-60008D02*
X69251D01*
X72000Y-57259D01*
G01X62059Y-44551D02*
X68484D01*
X72202Y-40833D01*
G01X90922Y26299D02*
X87122D01*
X86953Y26130D01*
X78781D01*
X78079Y26832D01*
X77259D01*
G01X90142Y-17056D02*
X88766Y-15680D01*
Y-9774D01*
X92452Y-6088D01*
Y-3068D01*
G54D13*
X-80158Y1264D03*
Y7264D03*
X-67626Y-10468D03*
Y-16468D03*
X-54769Y7264D03*
Y1264D03*
X-30836Y-10468D03*
Y-16468D03*
Y1264D03*
Y7264D03*
X-42575D03*
Y1264D03*
G54D14*
X-71279Y76199D03*
X-73248D03*
X-75216D03*
X-77185D03*
X-79153D03*
Y87419D03*
X-77185D03*
X-75216D03*
X-73248D03*
X-71279D03*
X-63405Y76199D03*
X-65373D03*
X-67342D03*
X-69310D03*
Y87419D03*
X-67342D03*
X-65373D03*
X-63405D03*
G54D15*
X-79153Y79840D03*
Y81809D03*
Y83778D03*
X-63405D03*
Y81809D03*
Y79840D03*
G54D16*
X-24856Y-88569D03*
X-4856D03*
X-14856D03*
X5144D03*
X84942Y-65331D03*
Y-55331D03*
Y-45331D03*
X82295Y65754D03*
Y73554D03*
X90922Y36299D03*
Y26299D03*
Y16299D03*
G54D17*
X-25802Y-57343D03*
Y-67548D03*
Y-47164D03*
X-19802Y-57343D03*
Y-67548D03*
Y-47164D03*
X-6302Y-46618D03*
X-302D03*
X34791Y-60034D03*
X40791D03*
X34661Y-49660D03*
X40661D03*
X39198Y-32071D03*
X35350Y15691D03*
X61578Y-60008D03*
X55578D03*
X56059Y-44551D03*
X62059D03*
X45198Y-32071D03*
X41350Y15691D03*
G54D18*
X34656Y-69875D03*
X24814Y-63182D03*
X62216Y-82080D03*
G54D19*
X41376Y91585D03*
X65588D03*
M02*
