G04 ================== begin FILE IDENTIFICATION RECORD ==================*
G04 Layout Name:  C:/Users/Madison/Desktop/gc/Photon_Dev/Sleep_Track_V2.brd*
G04 Film Name:    SleepTrack_V2_GROUND_RB*
G04 File Format:  Gerber RS274X*
G04 File Origin:  Cadence Allegro 17.0-P009*
G04 Origin Date:  Wed Feb 17 03:02:27 2016*
G04 *
G04 Layer:  ETCH/GROUND*
G04 Layer:  PIN/GROUND*
G04 Layer:  VIA CLASS/GROUND*
G04 *
G04 Offset:    (0.00 0.00)*
G04 Mirror:    No*
G04 Mode:      Negative*
G04 Rotation:  0*
G04 FullContactRelief:  Yes*
G04 UndefLineWidth:     6.00*
G04 ================== end FILE IDENTIFICATION RECORD ====================*
%FSLAX25Y25*MOIN*%
%IR0*IPPOS*OFA0.00000B0.00000*MIA0B0*SFA1.00000B1.00000*%
%ADD11C,.03*%
%AMMACRO13*
21,1,.03937,.04528,0.0,0.0,89.999*
1,1,.04528,0.0,.019685*
1,1,.04528,0.0,-.019685*%
%ADD13MACRO13*%
%ADD12C,.075*%
%ADD10C,.16*%
%AMMACRO15*
21,1,.03937,.04528,0.0,0.0,179.999*
1,1,.04528,-.019685,0.0*
1,1,.04528,.019685,0.0*%
%ADD15MACRO15*%
%ADD16O,.0374X.05512*%
%ADD14O,.06102X.0689*%
%ADD17C,.15004*%
%ADD18R,.78742X.43704*%
G75*
%LPD*%
G75*
G36*
G01X-110000Y-110000D02*
X110000D01*
Y110000D01*
X-110000D01*
Y-110000D01*
G37*
%LPC*%
G75*
G36*
G01X90500Y99499D02*
G02X99499Y90500I0J-8999D01*
G01Y-90500D01*
G02X90500Y-99499I-8999J0D01*
G01X-90500D01*
G02X-99499Y-90500I0J8999D01*
G01Y90500D01*
G02X-90500Y99499I8999J0D01*
G01X90500D01*
G37*
%LPD*%
G75*
G54D17*
X90000Y90000D03*
Y-90000D03*
X-90000Y90000D03*
Y-90000D03*
G54D18*
X-53859Y49296D03*
G54D11*
X-97045Y3640D03*
X-91572Y73541D03*
X-83655Y-79651D03*
X-72891Y17693D03*
X-74120Y14268D03*
X-53716Y-64805D03*
X-54821Y13130D03*
X-46930Y15106D03*
X-62400Y91936D03*
X-34060Y-75335D03*
X-30472Y-66313D03*
X-36816Y-66781D03*
X-27339Y-42978D03*
X-33540Y-43420D03*
X-43784Y-29835D03*
X-32936Y-23634D03*
Y-28724D03*
X-26663Y-29003D03*
X-38350Y14508D03*
X-34174Y15847D03*
X-28841Y17687D03*
X-31876Y84812D03*
X-6292Y-71006D03*
X-12545Y-69017D03*
X-7514Y-50128D03*
X-23881Y-10478D03*
X-4316Y-9204D03*
X-22958Y-23985D03*
X-10686Y-776D03*
X-22854Y14911D03*
X-5408Y44265D03*
X-11310Y70018D03*
X-8298Y74278D03*
X-11674Y59475D03*
X-11715Y65465D03*
X-4992Y80028D03*
X-16250Y82654D03*
X1573Y-63128D03*
X17277Y-73515D03*
X12435Y-48341D03*
X10193Y-43353D03*
X-1768Y-40690D03*
X18499Y-50674D03*
X8296Y4240D03*
X2379Y12207D03*
X-117Y18837D03*
X10504Y51298D03*
X6006Y44369D03*
X4264Y76323D03*
X-1625Y75595D03*
X14235Y75075D03*
X39182Y-39780D03*
X20641Y-33600D03*
X28509Y-31993D03*
X25220Y-16562D03*
X29731Y-19162D03*
X28080Y6487D03*
X32175Y1625D03*
X27664Y-5798D03*
X23881Y19032D03*
X30909Y41891D03*
X22717Y53540D03*
X29601Y58019D03*
X48854Y-41780D03*
X42510Y-21671D03*
X50128Y-29588D03*
X54704Y-18642D03*
X60697Y-23699D03*
X60996Y19054D03*
X58600Y75955D03*
X72000Y-57259D03*
X70382Y-12337D03*
X64545Y5889D03*
X77259Y26832D03*
X90142Y-17056D03*
X92452Y-3068D03*
G54D12*
X-4856Y-88569D03*
X-14856D03*
X5144D03*
X84942Y-65331D03*
Y-45331D03*
X82295Y65754D03*
X90922Y26299D03*
Y16299D03*
G54D13*
X24814Y-63182D03*
X62216Y-82080D03*
G54D10*
X-90000Y-90000D03*
Y90000D03*
X90000Y-90000D03*
Y90000D03*
G54D15*
X44499Y-95859D03*
X61034Y-52159D03*
G54D16*
X43935Y79656D03*
X63029D03*
G54D14*
X41376Y91585D03*
X65588D03*
M02*
