G04 ================== begin FILE IDENTIFICATION RECORD ==================*
G04 Layout Name:  C:/Users/Madison/Desktop/gc/Photon_Dev/Sleep_Track_V2.brd*
G04 Film Name:    SleepTrack_V2_Silkscreen_Top_RB*
G04 File Format:  Gerber RS274X*
G04 File Origin:  Cadence Allegro 17.0-P009*
G04 Origin Date:  Wed Feb 17 03:02:27 2016*
G04 *
G04 Layer:  USER PART NUMBER/SILKSCREEN_TOP*
G04 Layer:  TOLERANCE/SILKSCREEN_TOP*
G04 Layer:  REF DES/SILKSCREEN_TOP*
G04 Layer:  PACKAGE GEOMETRY/SILKSCREEN_TOP*
G04 Layer:  DEVICE TYPE/SILKSCREEN_TOP*
G04 Layer:  COMPONENT VALUE/SILKSCREEN_TOP*
G04 Layer:  BOARD GEOMETRY/SILKSCREEN_TOP*
G04 *
G04 Offset:    (0.00 0.00)*
G04 Mirror:    No*
G04 Mode:      Positive*
G04 Rotation:  0*
G04 FullContactRelief:  No*
G04 UndefLineWidth:     10.00*
G04 ================== end FILE IDENTIFICATION RECORD ====================*
%FSLAX25Y25*MOIN*%
%IR0*IPPOS*OFA0.00000B0.00000*MIA0B0*SFA1.00000B1.00000*%
%ADD10C,.01*%
%ADD11C,.006*%
G75*
%LPD*%
G75*
G36*
G01X-21341Y97854D02*
Y88011D01*
X-48507D01*
Y97854D01*
X-21341D01*
G37*
G36*
G01X17815D02*
Y88011D01*
X-9351D01*
Y97854D01*
X17815D01*
G37*
G36*
G01X7467Y-53040D02*
G03I-863J0D01*
G37*
G36*
G01X2583Y7059D02*
G03I-841J0D01*
G37*
G36*
G01X9675Y65635D02*
X12675Y61635D01*
X15675Y65635D01*
X9675D01*
G37*
G36*
G01X56396Y-111167D02*
X56397Y-98765D01*
X55708Y-98076D01*
X33464D01*
X32775Y-98765D01*
X32774Y-111167D01*
X33463Y-111856D01*
X55707D01*
X56396Y-111167D01*
G37*
G36*
G01X24263Y-98005D02*
X65011D01*
X67275Y-95741D01*
X67276Y-45151D01*
X65012Y-42887D01*
X24264D01*
X22000Y-45151D01*
X21999Y-95741D01*
X24263Y-98005D01*
G37*
G36*
G01X40311Y50905D02*
X36311Y47905D01*
X40311Y44905D01*
Y50905D01*
G37*
G36*
G01X83048Y6220D02*
Y46378D01*
X98796D01*
Y29252D01*
X108639D01*
Y23346D01*
X98796D01*
Y6220D01*
X83048D01*
G37*
G54D10*
G01X-89448Y-75281D02*
Y-64651D01*
X-96140D01*
Y-75281D01*
X-89448D01*
G01X-14489Y71147D02*
X-93229D01*
Y-39089D01*
X-14489D01*
Y71147D01*
G01X-95386Y-43909D02*
Y-50601D01*
X-83182D01*
Y-43909D01*
X-95386D01*
G01X-93317Y79616D02*
X-95817D01*
Y74616D01*
X-94817D01*
G01X-39957Y-58612D02*
Y-92864D01*
X-74209D01*
Y-58612D01*
X-39957D01*
G01X-92039Y-56745D02*
X-92545Y-56662D01*
X-92988Y-56328D01*
X-93368Y-55828D01*
X-93621Y-55245D01*
X-93748Y-54578D01*
Y-53912D01*
X-93621Y-53245D01*
X-93368Y-52662D01*
X-92988Y-52162D01*
X-92545Y-51828D01*
X-92038Y-51745D01*
X-91532Y-51828D01*
X-91089Y-52162D01*
X-90709Y-52662D01*
X-90455Y-53245D01*
X-90329Y-53912D01*
Y-54578D01*
X-90455Y-55245D01*
X-90709Y-55828D01*
X-91089Y-56328D01*
X-91532Y-56662D01*
X-92039Y-56745D01*
G01X-91532Y-55412D02*
X-90772Y-56745D01*
G01X-86941D02*
X-86940Y-51745D01*
X-87700Y-52745D01*
G01Y-56745D02*
X-86181D01*
G01X-87841Y-71851D02*
Y-66851D01*
X-86575D01*
X-86069Y-67101D01*
X-85689Y-67434D01*
X-85372Y-67934D01*
X-85119Y-68518D01*
X-85055Y-69351D01*
X-85119Y-70184D01*
X-85372Y-70768D01*
X-85689Y-71268D01*
X-86069Y-71601D01*
X-86575Y-71851D01*
X-87841D01*
G01X-82743Y-71101D02*
X-82364Y-71518D01*
X-81920Y-71768D01*
X-81351Y-71851D01*
X-80781Y-71684D01*
X-80337Y-71351D01*
X-80021Y-70768D01*
X-79958Y-70101D01*
X-80084Y-69434D01*
X-80401Y-69018D01*
X-80844Y-68684D01*
X-81287Y-68601D01*
X-81730Y-68684D01*
X-82300Y-69018D01*
X-82110Y-66851D01*
X-80401D01*
G01X-77150Y-44404D02*
X-78150D01*
Y-49404D01*
X-75650D01*
G01X-79192Y78774D02*
X-79512Y79024D01*
X-79885Y79191D01*
X-80312D01*
X-80792Y78941D01*
X-81165Y78524D01*
X-81432Y78024D01*
X-81645Y77191D01*
X-81698Y76441D01*
X-81592Y75691D01*
X-81432Y75191D01*
X-81112Y74691D01*
X-80738Y74358D01*
X-80365Y74191D01*
X-79992D01*
X-79618Y74358D01*
X-79298Y74608D01*
X-79032Y74941D01*
G01X-75965Y74191D02*
Y79191D01*
X-76605Y78191D01*
G01Y74191D02*
X-75325D01*
G01X-71565Y79191D02*
X-71992Y79024D01*
X-72312Y78608D01*
X-72525Y78108D01*
X-72685Y77441D01*
X-72738Y76691D01*
X-72685Y75941D01*
X-72525Y75274D01*
X-72312Y74774D01*
X-71992Y74358D01*
X-71565Y74191D01*
X-71138Y74358D01*
X-70818Y74774D01*
X-70605Y75274D01*
X-70445Y75941D01*
X-70392Y76691D01*
X-70445Y77441D01*
X-70605Y78108D01*
X-70818Y78608D01*
X-71138Y79024D01*
X-71565Y79191D01*
G01X-84817Y74616D02*
X-83817D01*
Y79616D01*
X-86317D01*
G01X-69056Y85475D02*
X-74056D01*
Y86809D01*
X-73806Y87235D01*
X-73473Y87502D01*
X-72806Y87609D01*
X-72139Y87502D01*
X-71723Y87182D01*
X-71473Y86809D01*
Y85475D01*
G01Y86809D02*
X-69056Y87609D01*
G01Y90942D02*
X-74056D01*
X-73056Y90302D01*
G01X-69056D02*
Y91582D01*
G01Y95982D02*
X-74056D01*
X-70473Y94009D01*
Y96675D01*
G01X-74577Y94318D02*
Y96818D01*
X-79577D01*
Y95818D01*
G01Y85818D02*
Y84818D01*
X-74577D01*
Y87318D01*
G01X-63450Y-62407D02*
Y-67407D01*
X-60917D01*
G01X-58415Y-66740D02*
X-57909Y-67157D01*
X-57339Y-67407D01*
X-56832D01*
X-56326Y-67157D01*
X-55946Y-66740D01*
X-55756Y-66157D01*
X-55882Y-65574D01*
X-56199Y-65074D01*
X-56769Y-64740D01*
X-57529Y-64574D01*
X-57972Y-64240D01*
X-58162Y-63657D01*
X-58035Y-63074D01*
X-57719Y-62657D01*
X-57275Y-62407D01*
X-56832D01*
X-56389Y-62574D01*
X-56009Y-62990D01*
G01X-51988Y-67407D02*
Y-62407D01*
X-52747Y-63407D01*
G01Y-67407D02*
X-51228D01*
G01X-44583Y-70738D02*
X-49583D01*
G01X-76609Y-56043D02*
Y-51043D01*
X-75275D01*
X-74849Y-51293D01*
X-74582Y-51626D01*
X-74475Y-52293D01*
X-74582Y-52960D01*
X-74902Y-53376D01*
X-75275Y-53626D01*
X-76609D01*
G01X-75275D02*
X-74475Y-56043D01*
G01X-72155Y-51876D02*
X-71835Y-51376D01*
X-71462Y-51126D01*
X-71035Y-51043D01*
X-70502Y-51210D01*
X-70129Y-51626D01*
X-70022Y-52126D01*
X-70075Y-52626D01*
X-70289Y-53043D01*
X-71355Y-53876D01*
X-71835Y-54460D01*
X-72155Y-55293D01*
X-72262Y-56043D01*
X-70022D01*
G01X-66742D02*
X-66369Y-55960D01*
X-65942Y-55710D01*
X-65675Y-55293D01*
X-65569Y-54710D01*
X-65675Y-54126D01*
X-65995Y-53626D01*
X-66475Y-53376D01*
X-67009D01*
X-67329Y-53210D01*
X-67595Y-52793D01*
X-67702Y-52210D01*
X-67542Y-51626D01*
X-67169Y-51210D01*
X-66742Y-51043D01*
X-66315Y-51210D01*
X-65942Y-51626D01*
X-65782Y-52210D01*
X-65889Y-52793D01*
X-66155Y-53210D01*
X-66475Y-53376D01*
X-67009D01*
X-67489Y-53626D01*
X-67809Y-54126D01*
X-67915Y-54710D01*
X-67809Y-55293D01*
X-67542Y-55710D01*
X-67115Y-55960D01*
X-66742Y-56043D01*
G01X-62083Y-53105D02*
X-60501Y-48105D01*
X-58918Y-53105D01*
G01X-59487Y-51355D02*
X-61514D01*
G01X-54643Y-53105D02*
Y-48105D01*
X-56985Y-51688D01*
X-53820D01*
G01X-68650Y-49404D02*
X-66150D01*
Y-44404D01*
X-67150D01*
G01X-46562Y-47428D02*
Y-42506D01*
X-51484D01*
Y-47428D01*
X-46562D01*
G01Y-53642D02*
Y-48720D01*
X-51484D01*
Y-53642D01*
X-46562D01*
G01X-60194Y-42714D02*
Y-47636D01*
X-55272D01*
Y-42714D01*
X-60194D01*
G01X-56994Y78101D02*
Y83101D01*
X-55728D01*
X-55222Y82851D01*
X-54842Y82518D01*
X-54525Y82018D01*
X-54272Y81434D01*
X-54209Y80601D01*
X-54272Y79768D01*
X-54525Y79184D01*
X-54842Y78684D01*
X-55222Y78351D01*
X-55728Y78101D01*
X-56994D01*
G01X-50504D02*
Y83101D01*
X-51263Y82101D01*
G01Y78101D02*
X-49744D01*
G01X-58526Y72176D02*
Y77176D01*
X-57260D01*
X-56754Y76926D01*
X-56374Y76593D01*
X-56057Y76093D01*
X-55804Y75509D01*
X-55741Y74676D01*
X-55804Y73843D01*
X-56057Y73259D01*
X-56374Y72759D01*
X-56754Y72426D01*
X-57260Y72176D01*
X-58526D01*
G01X-52036Y77176D02*
X-52542Y77009D01*
X-52922Y76593D01*
X-53175Y76093D01*
X-53365Y75426D01*
X-53428Y74676D01*
X-53365Y73926D01*
X-53175Y73259D01*
X-52922Y72759D01*
X-52542Y72343D01*
X-52036Y72176D01*
X-51529Y72343D01*
X-51149Y72759D01*
X-50896Y73259D01*
X-50706Y73926D01*
X-50643Y74676D01*
X-50706Y75426D01*
X-50896Y76093D01*
X-51149Y76593D01*
X-51529Y77009D01*
X-52036Y77176D01*
G01X-64939Y72250D02*
X-60017D01*
Y77172D01*
X-64939D01*
Y72250D01*
G01X-62472Y87195D02*
X-62722Y86875D01*
X-62889Y86502D01*
Y86075D01*
X-62639Y85595D01*
X-62222Y85222D01*
X-61722Y84955D01*
X-60889Y84742D01*
X-60139Y84689D01*
X-59389Y84795D01*
X-58889Y84955D01*
X-58389Y85275D01*
X-58056Y85649D01*
X-57889Y86022D01*
Y86395D01*
X-58056Y86769D01*
X-58306Y87089D01*
X-58639Y87355D01*
G01X-58472Y89515D02*
X-58056Y89889D01*
X-57889Y90315D01*
X-58056Y90742D01*
X-58556Y91115D01*
X-59306Y91382D01*
X-60056Y91489D01*
X-60972D01*
X-61722Y91382D01*
X-62389Y91115D01*
X-62722Y90795D01*
X-62889Y90422D01*
X-62722Y89995D01*
X-62389Y89675D01*
X-61889Y89462D01*
X-61222Y89355D01*
X-60639Y89462D01*
X-60056Y89729D01*
X-59722Y90049D01*
X-59639Y90422D01*
X-59806Y90849D01*
X-60222Y91169D01*
X-60972Y91489D01*
G01X-63488Y94344D02*
Y96844D01*
X-68488D01*
Y95844D01*
G01Y85844D02*
Y84844D01*
X-63488D01*
Y87344D01*
G01X-49612Y77086D02*
X-44690D01*
Y82008D01*
X-49612D01*
Y77086D01*
G01X-29856Y-93569D02*
Y-83569D01*
X10144D01*
Y-93569D01*
X-29856D01*
G01X-47083Y-68238D02*
Y-73238D01*
G01X-43845Y-52659D02*
X-42578D01*
Y-54159D01*
X-42958Y-54659D01*
X-43401Y-54992D01*
X-44035Y-55159D01*
X-44668Y-54992D01*
X-45111Y-54659D01*
X-45491Y-54159D01*
X-45744Y-53576D01*
X-45871Y-52909D01*
Y-52326D01*
X-45744Y-51826D01*
X-45491Y-51242D01*
X-45111Y-50742D01*
X-44731Y-50409D01*
X-44225Y-50159D01*
X-43781D01*
X-43275Y-50326D01*
X-42895Y-50659D01*
G01X-40583Y-55159D02*
Y-50159D01*
X-37670Y-55159D01*
Y-50159D01*
G01X-35421Y-55159D02*
Y-50159D01*
X-34155D01*
X-33649Y-50409D01*
X-33269Y-50742D01*
X-32952Y-51242D01*
X-32699Y-51826D01*
X-32636Y-52659D01*
X-32699Y-53492D01*
X-32952Y-54076D01*
X-33269Y-54576D01*
X-33649Y-54909D01*
X-34155Y-55159D01*
X-35421D01*
G01X-46098Y-46411D02*
X-45719Y-46994D01*
X-45212Y-47328D01*
X-44642Y-47411D01*
X-44136Y-47328D01*
X-43629Y-46911D01*
X-43313Y-46411D01*
X-43249Y-45911D01*
X-43376Y-45328D01*
X-43819Y-44911D01*
X-44262Y-44744D01*
X-44832D01*
G01X-44262D02*
X-43882Y-44494D01*
X-43566Y-44078D01*
X-43439Y-43578D01*
X-43566Y-43078D01*
X-43882Y-42661D01*
X-44452Y-42411D01*
X-45022Y-42494D01*
X-45592Y-42828D01*
G01X-41190Y-42411D02*
X-39608Y-47411D01*
X-38025Y-42411D01*
G01X-35902Y-46411D02*
X-35523Y-46994D01*
X-35016Y-47328D01*
X-34446Y-47411D01*
X-33940Y-47328D01*
X-33433Y-46911D01*
X-33117Y-46411D01*
X-33053Y-45911D01*
X-33180Y-45328D01*
X-33623Y-44911D01*
X-34066Y-44744D01*
X-34636D01*
G01X-34066D02*
X-33686Y-44494D01*
X-33370Y-44078D01*
X-33243Y-43578D01*
X-33370Y-43078D01*
X-33686Y-42661D01*
X-34256Y-42411D01*
X-34826Y-42494D01*
X-35396Y-42828D01*
G01X-29728Y77814D02*
X-27228D01*
Y82814D01*
X-28228D01*
G01X-38228D02*
X-39228D01*
Y77814D01*
X-36728D01*
G01X-16338Y-80783D02*
X-16021Y-81283D01*
X-15641Y-81616D01*
X-15198Y-81783D01*
X-14691Y-81616D01*
X-14311Y-81283D01*
X-13931Y-80783D01*
X-13804Y-80116D01*
Y-76783D01*
G01X-9971Y-81783D02*
Y-76783D01*
X-10731Y-77783D01*
G01Y-81783D02*
X-9211D01*
G01X-4871Y-76783D02*
X-5378Y-76950D01*
X-5758Y-77366D01*
X-6011Y-77866D01*
X-6201Y-78533D01*
X-6264Y-79283D01*
X-6201Y-80033D01*
X-6011Y-80700D01*
X-5758Y-81200D01*
X-5378Y-81616D01*
X-4871Y-81783D01*
X-4364Y-81616D01*
X-3984Y-81200D01*
X-3731Y-80700D01*
X-3541Y-80033D01*
X-3478Y-79283D01*
X-3541Y-78533D01*
X-3731Y-77866D01*
X-3984Y-77366D01*
X-4364Y-76950D01*
X-4871Y-76783D01*
G01X-11615Y-58305D02*
Y-55805D01*
X-11935Y-56305D01*
G01Y-58305D02*
X-11295D01*
G01X-11050Y-72748D02*
Y-67748D01*
X-9784D01*
X-9278Y-67998D01*
X-8898Y-68331D01*
X-8581Y-68831D01*
X-8328Y-69415D01*
X-8265Y-70248D01*
X-8328Y-71081D01*
X-8581Y-71665D01*
X-8898Y-72165D01*
X-9278Y-72498D01*
X-9784Y-72748D01*
X-11050D01*
G01X-4686D02*
X-4560Y-71665D01*
X-4370Y-70748D01*
X-4116Y-69915D01*
X-3800Y-68998D01*
X-3293Y-67748D01*
X-5826D01*
G01X-11230Y-66415D02*
X-3356D01*
Y-58541D01*
X-11230D01*
Y-66415D01*
G01X-12030Y-36634D02*
Y-25610D01*
X8442D01*
Y-36634D01*
X-12030D01*
G01X-10066Y-14836D02*
Y-17336D01*
X-5066D01*
Y-16336D01*
G01X-8517Y-24462D02*
X-8011Y-24879D01*
X-7441Y-25129D01*
X-6934D01*
X-6428Y-24879D01*
X-6048Y-24462D01*
X-5858Y-23879D01*
X-5984Y-23296D01*
X-6301Y-22796D01*
X-6871Y-22462D01*
X-7631Y-22296D01*
X-8074Y-21962D01*
X-8264Y-21379D01*
X-8137Y-20796D01*
X-7821Y-20379D01*
X-7377Y-20129D01*
X-6934D01*
X-6491Y-20296D01*
X-6111Y-20712D01*
G01X-3989Y-20129D02*
X-3103Y-25129D01*
X-2090Y-20129D01*
X-1076Y-25129D01*
X-190Y-20129D01*
G01X3008Y-25129D02*
Y-20129D01*
X2249Y-21129D01*
G01Y-25129D02*
X3768D01*
G01X6903Y-20962D02*
X7283Y-20462D01*
X7727Y-20212D01*
X8233Y-20129D01*
X8866Y-20296D01*
X9310Y-20712D01*
X9436Y-21212D01*
X9373Y-21712D01*
X9120Y-22129D01*
X7853Y-22962D01*
X7283Y-23546D01*
X6903Y-24379D01*
X6777Y-25129D01*
X9436D01*
G01X-5066Y-6336D02*
Y-5336D01*
X-10066D01*
Y-7836D01*
G01X-13642Y24531D02*
Y35555D01*
X6830D01*
Y24531D01*
X-13642D01*
G01X-4130Y56258D02*
X-4450Y56508D01*
X-4823Y56675D01*
X-5250D01*
X-5730Y56425D01*
X-6103Y56008D01*
X-6370Y55508D01*
X-6583Y54675D01*
X-6636Y53925D01*
X-6530Y53175D01*
X-6370Y52675D01*
X-6050Y52175D01*
X-5676Y51842D01*
X-5303Y51675D01*
X-4930D01*
X-4556Y51842D01*
X-4236Y52092D01*
X-3970Y52425D01*
G01X-903Y51675D02*
X-530Y51758D01*
X-103Y52008D01*
X164Y52425D01*
X270Y53008D01*
X164Y53592D01*
X-156Y54092D01*
X-636Y54342D01*
X-1170D01*
X-1490Y54508D01*
X-1756Y54925D01*
X-1863Y55508D01*
X-1703Y56092D01*
X-1330Y56508D01*
X-903Y56675D01*
X-476Y56508D01*
X-103Y56092D01*
X57Y55508D01*
X-50Y54925D01*
X-316Y54508D01*
X-636Y54342D01*
X-1170D01*
X-1650Y54092D01*
X-1970Y53592D01*
X-2076Y53008D01*
X-1970Y52425D01*
X-1703Y52008D01*
X-1276Y51758D01*
X-903Y51675D01*
G01X-6685Y50600D02*
X-9185D01*
Y45600D01*
X-8185D01*
G01X-9096Y36970D02*
X-8590Y36553D01*
X-8020Y36303D01*
X-7513D01*
X-7007Y36553D01*
X-6627Y36970D01*
X-6437Y37553D01*
X-6563Y38136D01*
X-6880Y38636D01*
X-7450Y38970D01*
X-8210Y39136D01*
X-8653Y39470D01*
X-8843Y40053D01*
X-8716Y40636D01*
X-8400Y41053D01*
X-7956Y41303D01*
X-7513D01*
X-7070Y41136D01*
X-6690Y40720D01*
G01X-4568Y41303D02*
X-3682Y36303D01*
X-2669Y41303D01*
X-1655Y36303D01*
X-769Y41303D01*
G01X2429Y36303D02*
X2873Y36386D01*
X3379Y36636D01*
X3696Y37053D01*
X3822Y37636D01*
X3696Y38220D01*
X3316Y38720D01*
X2746Y38970D01*
X2113D01*
X1733Y39136D01*
X1416Y39553D01*
X1290Y40136D01*
X1480Y40720D01*
X1923Y41136D01*
X2429Y41303D01*
X2936Y41136D01*
X3379Y40720D01*
X3569Y40136D01*
X3443Y39553D01*
X3126Y39136D01*
X2746Y38970D01*
X2113D01*
X1543Y38720D01*
X1163Y38220D01*
X1037Y37636D01*
X1163Y37053D01*
X1480Y36636D01*
X1986Y36386D01*
X2429Y36303D01*
G01X-3831Y78046D02*
X-4151Y78296D01*
X-4524Y78463D01*
X-4951D01*
X-5431Y78213D01*
X-5804Y77796D01*
X-6071Y77296D01*
X-6284Y76463D01*
X-6337Y75713D01*
X-6231Y74963D01*
X-6071Y74463D01*
X-5751Y73963D01*
X-5377Y73630D01*
X-5004Y73463D01*
X-4631D01*
X-4257Y73630D01*
X-3937Y73880D01*
X-3671Y74213D01*
G01X-1617Y75546D02*
X-1244Y76130D01*
X-924Y76463D01*
X-497Y76630D01*
X-124Y76463D01*
X143Y76130D01*
X356Y75630D01*
X409Y75046D01*
X356Y74546D01*
X143Y74046D01*
X-177Y73630D01*
X-551Y73463D01*
X-977Y73630D01*
X-1351Y74130D01*
X-1564Y74880D01*
X-1617Y75713D01*
X-1511Y76796D01*
X-1351Y77380D01*
X-1084Y77963D01*
X-711Y78380D01*
X-337Y78463D01*
X36Y78296D01*
X303Y77880D01*
G01X-6672Y72453D02*
X-9172D01*
Y67453D01*
X-8172D01*
G01X-3532Y67334D02*
X-3852Y67584D01*
X-4225Y67751D01*
X-4652D01*
X-5132Y67501D01*
X-5505Y67084D01*
X-5772Y66584D01*
X-5985Y65751D01*
X-6038Y65001D01*
X-5932Y64251D01*
X-5772Y63751D01*
X-5452Y63251D01*
X-5078Y62918D01*
X-4705Y62751D01*
X-4332D01*
X-3958Y62918D01*
X-3638Y63168D01*
X-3372Y63501D01*
G01X-412Y62751D02*
X-305Y63834D01*
X-145Y64751D01*
X68Y65584D01*
X335Y66501D01*
X762Y67751D01*
X-1372D01*
G01X-6685Y61975D02*
X-9185D01*
Y56975D01*
X-8185D01*
G01X-24349Y77870D02*
Y82870D01*
X-23015D01*
X-22589Y82620D01*
X-22322Y82287D01*
X-22215Y81620D01*
X-22322Y80953D01*
X-22642Y80537D01*
X-23015Y80287D01*
X-24349D01*
G01X-23015D02*
X-22215Y77870D01*
G01X-18242D02*
Y82870D01*
X-20215Y79287D01*
X-17549D01*
G01X-14482Y82870D02*
X-14909Y82703D01*
X-15229Y82287D01*
X-15442Y81787D01*
X-15602Y81120D01*
X-15655Y80370D01*
X-15602Y79620D01*
X-15442Y78953D01*
X-15229Y78453D01*
X-14909Y78037D01*
X-14482Y77870D01*
X-14055Y78037D01*
X-13735Y78453D01*
X-13522Y78953D01*
X-13362Y79620D01*
X-13309Y80370D01*
X-13362Y81120D01*
X-13522Y81787D01*
X-13735Y82287D01*
X-14055Y82703D01*
X-14482Y82870D01*
G01X-23103Y90731D02*
X-22597Y90314D01*
X-22027Y90064D01*
X-21520D01*
X-21014Y90314D01*
X-20634Y90731D01*
X-20444Y91314D01*
X-20570Y91897D01*
X-20887Y92397D01*
X-21457Y92731D01*
X-22217Y92897D01*
X-22660Y93231D01*
X-22850Y93814D01*
X-22723Y94397D01*
X-22407Y94814D01*
X-21963Y95064D01*
X-21520D01*
X-21077Y94897D01*
X-20697Y94481D01*
G01X-18575Y95064D02*
X-17689Y90064D01*
X-16676Y95064D01*
X-15662Y90064D01*
X-14776Y95064D01*
G01X-12970Y90814D02*
X-12591Y90397D01*
X-12147Y90147D01*
X-11578Y90064D01*
X-11008Y90231D01*
X-10564Y90564D01*
X-10248Y91147D01*
X-10185Y91814D01*
X-10311Y92481D01*
X-10628Y92897D01*
X-11071Y93231D01*
X-11514Y93314D01*
X-11957Y93231D01*
X-12527Y92897D01*
X-12337Y95064D01*
X-10628D01*
G01X15366Y-65005D02*
X20366Y-66587D01*
X15366Y-68170D01*
G01X17116Y-67601D02*
Y-65574D01*
G01X20366Y-70293D02*
X16783D01*
X16033Y-70546D01*
X15533Y-71052D01*
X15366Y-71685D01*
X15533Y-72319D01*
X16033Y-72825D01*
X16783Y-73078D01*
X20366D01*
G01X15366Y-75391D02*
X20366D01*
Y-76657D01*
X20116Y-77163D01*
X19783Y-77543D01*
X19283Y-77860D01*
X18699Y-78113D01*
X17866Y-78176D01*
X17033Y-78113D01*
X16449Y-77860D01*
X15949Y-77543D01*
X15616Y-77163D01*
X15366Y-76657D01*
Y-75391D01*
G01X20366Y-81122D02*
Y-82641D01*
G01Y-81881D02*
X15366D01*
G01Y-81122D02*
Y-82641D01*
G01Y-86979D02*
X15449Y-86473D01*
X15783Y-86030D01*
X16283Y-85650D01*
X16866Y-85397D01*
X17533Y-85270D01*
X18199D01*
X18866Y-85397D01*
X19449Y-85650D01*
X19949Y-86030D01*
X20283Y-86473D01*
X20366Y-86979D01*
X20283Y-87486D01*
X19949Y-87929D01*
X19449Y-88309D01*
X18866Y-88562D01*
X18199Y-88689D01*
X17533D01*
X16866Y-88562D01*
X16283Y-88309D01*
X15783Y-87929D01*
X15449Y-87486D01*
X15366Y-86979D01*
G01X-1763Y-67139D02*
X-1603Y-67431D01*
X-1389Y-67597D01*
X-1149Y-67639D01*
X-936Y-67597D01*
X-723Y-67389D01*
X-589Y-67139D01*
X-563Y-66889D01*
X-616Y-66597D01*
X-803Y-66389D01*
X-989Y-66306D01*
X-1229D01*
G01X-989D02*
X-829Y-66181D01*
X-696Y-65972D01*
X-643Y-65722D01*
X-696Y-65472D01*
X-829Y-65264D01*
X-1069Y-65139D01*
X-1309Y-65181D01*
X-1549Y-65347D01*
G01X9750Y-43420D02*
X-2652D01*
Y-55822D01*
X9750D01*
Y-43420D01*
G01X15999Y-64510D02*
X20921D01*
Y-59588D01*
X15999D01*
Y-64510D01*
G01X-559Y-37614D02*
Y-41197D01*
X-306Y-41947D01*
X200Y-42447D01*
X833Y-42614D01*
X1467Y-42447D01*
X1973Y-41947D01*
X2226Y-41197D01*
Y-37614D01*
G01X4855Y-42031D02*
X5298Y-42447D01*
X5805Y-42614D01*
X6311Y-42447D01*
X6755Y-41947D01*
X7071Y-41197D01*
X7198Y-40447D01*
Y-39531D01*
X7071Y-38781D01*
X6755Y-38114D01*
X6375Y-37781D01*
X5931Y-37614D01*
X5425Y-37781D01*
X5045Y-38114D01*
X4792Y-38614D01*
X4665Y-39281D01*
X4792Y-39864D01*
X5108Y-40447D01*
X5488Y-40781D01*
X5931Y-40864D01*
X6438Y-40697D01*
X6818Y-40281D01*
X7198Y-39531D01*
G01X16114Y-41266D02*
X16364Y-40946D01*
X16531Y-40573D01*
Y-40146D01*
X16281Y-39666D01*
X15864Y-39293D01*
X15364Y-39026D01*
X14531Y-38813D01*
X13781Y-38760D01*
X13031Y-38866D01*
X12531Y-39026D01*
X12031Y-39346D01*
X11698Y-39720D01*
X11531Y-40093D01*
Y-40466D01*
X11698Y-40840D01*
X11948Y-41160D01*
X12281Y-41426D01*
G01X15698Y-43480D02*
X16198Y-43800D01*
X16448Y-44173D01*
X16531Y-44600D01*
X16364Y-45133D01*
X15948Y-45506D01*
X15448Y-45613D01*
X14948Y-45560D01*
X14531Y-45346D01*
X13698Y-44280D01*
X13114Y-43800D01*
X12281Y-43480D01*
X11531Y-43373D01*
Y-45613D01*
G01Y-49533D02*
X16531D01*
X12948Y-47560D01*
Y-50226D01*
G01X11787Y-36239D02*
Y-37239D01*
X16787D01*
Y-34739D01*
G01Y-27739D02*
Y-25239D01*
X11787D01*
Y-26239D01*
G01X5561Y-13276D02*
Y6724D01*
X19061D01*
Y-13276D01*
X5561D01*
G01X7311Y6724D02*
Y-13276D01*
G01X16458Y8242D02*
Y13242D01*
X17792D01*
X18218Y12992D01*
X18485Y12659D01*
X18592Y11992D01*
X18485Y11325D01*
X18165Y10909D01*
X17792Y10659D01*
X16458D01*
G01X17792D02*
X18592Y8242D01*
G01X21925D02*
Y13242D01*
X21285Y12242D01*
G01Y8242D02*
X22565D01*
G01X-13585Y-4108D02*
Y892D01*
X-12251D01*
X-11825Y642D01*
X-11558Y309D01*
X-11451Y-358D01*
X-11558Y-1025D01*
X-11878Y-1441D01*
X-12251Y-1691D01*
X-13585D01*
G01X-12251D02*
X-11451Y-4108D01*
G01X-7478D02*
Y892D01*
X-9451Y-2691D01*
X-6785D01*
G01X-4731Y59D02*
X-4411Y559D01*
X-4038Y809D01*
X-3611Y892D01*
X-3078Y725D01*
X-2705Y309D01*
X-2598Y-191D01*
X-2651Y-691D01*
X-2865Y-1108D01*
X-3931Y-1941D01*
X-4411Y-2525D01*
X-4731Y-3358D01*
X-4838Y-4108D01*
X-2598D01*
G01X4774Y10224D02*
Y8432D01*
X4881Y8057D01*
X5094Y7807D01*
X5361Y7724D01*
X5628Y7807D01*
X5841Y8057D01*
X5948Y8432D01*
Y10224D01*
G01X7561Y7724D02*
Y10224D01*
X7241Y9724D01*
G01Y7724D02*
X7881D01*
G01X9761D02*
Y10224D01*
X9441Y9724D01*
G01Y7724D02*
X10081D01*
G01X9561Y4224D02*
G03I-1000J0D01*
G01X21883Y23767D02*
Y26267D01*
X16883D01*
Y25267D01*
G01Y15267D02*
Y14267D01*
X21883D01*
Y16767D01*
G01X1815Y45600D02*
X2815D01*
Y50600D01*
X315D01*
G01X9061Y48919D02*
Y53919D01*
X10327D01*
X10833Y53669D01*
X11213Y53336D01*
X11530Y52836D01*
X11783Y52252D01*
X11846Y51419D01*
X11783Y50586D01*
X11530Y50002D01*
X11213Y49502D01*
X10833Y49169D01*
X10327Y48919D01*
X9061D01*
G01X14159Y49919D02*
X14538Y49336D01*
X15045Y49002D01*
X15615Y48919D01*
X16121Y49002D01*
X16628Y49419D01*
X16944Y49919D01*
X17008Y50419D01*
X16881Y51002D01*
X16438Y51419D01*
X15995Y51586D01*
X15425D01*
G01X15995D02*
X16375Y51836D01*
X16691Y52252D01*
X16818Y52752D01*
X16691Y53252D01*
X16375Y53669D01*
X15805Y53919D01*
X15235Y53836D01*
X14665Y53502D01*
G01X1828Y67453D02*
X2828D01*
Y72453D01*
X328D01*
G01X1815Y56975D02*
X2815D01*
Y61975D01*
X315D01*
G01X15675Y61635D02*
X9675D01*
G01X7458Y72001D02*
Y55269D01*
X17892D01*
Y72001D01*
X7458D01*
G01X11492Y79989D02*
Y84989D01*
X12826D01*
X13252Y84739D01*
X13519Y84406D01*
X13626Y83739D01*
X13519Y83072D01*
X13199Y82656D01*
X12826Y82406D01*
X11492D01*
G01X12826D02*
X13626Y79989D01*
G01X15786Y80989D02*
X16106Y80406D01*
X16532Y80072D01*
X17012Y79989D01*
X17439Y80072D01*
X17866Y80489D01*
X18132Y80989D01*
X18186Y81489D01*
X18079Y82072D01*
X17706Y82489D01*
X17332Y82656D01*
X16852D01*
G01X17332D02*
X17652Y82906D01*
X17919Y83322D01*
X18026Y83822D01*
X17919Y84322D01*
X17652Y84739D01*
X17172Y84989D01*
X16692Y84906D01*
X16212Y84572D01*
G01X20452Y80572D02*
X20826Y80156D01*
X21252Y79989D01*
X21679Y80156D01*
X22052Y80656D01*
X22319Y81406D01*
X22426Y82156D01*
Y83072D01*
X22319Y83822D01*
X22052Y84489D01*
X21732Y84822D01*
X21359Y84989D01*
X20932Y84822D01*
X20612Y84489D01*
X20399Y83989D01*
X20292Y83322D01*
X20399Y82739D01*
X20666Y82156D01*
X20986Y81822D01*
X21359Y81739D01*
X21786Y81906D01*
X22106Y82322D01*
X22426Y83072D01*
G01X-471Y84816D02*
X-2971D01*
Y79816D01*
X-1971D01*
G01X8029D02*
X9029D01*
Y84816D01*
X6529D01*
G01X29198Y-26741D02*
X34198D01*
Y-28075D01*
X33948Y-28501D01*
X33615Y-28768D01*
X32948Y-28875D01*
X32281Y-28768D01*
X31865Y-28448D01*
X31615Y-28075D01*
Y-26741D01*
G01Y-28075D02*
X29198Y-28875D01*
G01Y-32848D02*
X34198D01*
X30615Y-30875D01*
Y-33541D01*
G01X29198Y-36608D02*
X34198D01*
X33198Y-35968D01*
G01X29198D02*
Y-37248D01*
G01X22057Y-36239D02*
Y-37239D01*
X27057D01*
Y-34739D01*
G01Y-27739D02*
Y-25239D01*
X22057D01*
Y-26239D01*
G01X27092Y-22334D02*
Y-17334D01*
X28426D01*
X28852Y-17584D01*
X29119Y-17917D01*
X29226Y-18584D01*
X29119Y-19251D01*
X28799Y-19667D01*
X28426Y-19917D01*
X27092D01*
G01X28426D02*
X29226Y-22334D01*
G01X31386Y-21334D02*
X31706Y-21917D01*
X32132Y-22251D01*
X32612Y-22334D01*
X33039Y-22251D01*
X33466Y-21834D01*
X33732Y-21334D01*
X33786Y-20834D01*
X33679Y-20251D01*
X33306Y-19834D01*
X32932Y-19667D01*
X32452D01*
G01X32932D02*
X33252Y-19417D01*
X33519Y-19001D01*
X33626Y-18501D01*
X33519Y-18001D01*
X33252Y-17584D01*
X32772Y-17334D01*
X32292Y-17417D01*
X31812Y-17751D01*
G01X36959Y-22334D02*
Y-17334D01*
X36319Y-18334D01*
G01Y-22334D02*
X37599D01*
G01X30169Y-13736D02*
Y-14736D01*
X35169D01*
Y-12236D01*
G01X26104Y-14042D02*
X21104D01*
Y-12522D01*
X21354Y-12016D01*
X21937Y-11636D01*
X22604Y-11509D01*
X23271Y-11636D01*
X23771Y-11952D01*
X24021Y-12522D01*
Y-14042D01*
G01X26104Y-7678D02*
X26021Y-8184D01*
X25687Y-8627D01*
X25187Y-9007D01*
X24604Y-9260D01*
X23937Y-9387D01*
X23271D01*
X22604Y-9260D01*
X22021Y-9007D01*
X21521Y-8627D01*
X21187Y-8184D01*
X21104Y-7678D01*
X21187Y-7171D01*
X21521Y-6728D01*
X22021Y-6348D01*
X22604Y-6095D01*
X23271Y-5968D01*
X23937D01*
X24604Y-6095D01*
X25187Y-6348D01*
X25687Y-6728D01*
X26021Y-7171D01*
X26104Y-7678D01*
G01X21104Y-2580D02*
X26104D01*
G01X21104Y-4036D02*
Y-1123D01*
G01X22416Y-20245D02*
Y-15323D01*
X17494D01*
Y-20245D01*
X22416D01*
G01X35169Y-5236D02*
Y-2736D01*
X30169D01*
Y-3736D01*
G01X34785Y8181D02*
X32285D01*
Y3181D01*
X33285D01*
G01X34811Y37028D02*
X32311D01*
Y32028D01*
X33311D01*
G01X23873Y16133D02*
X27456D01*
X28206Y16386D01*
X28706Y16893D01*
X28873Y17526D01*
X28706Y18159D01*
X28206Y18666D01*
X27456Y18919D01*
X23873D01*
G01X28873Y22626D02*
X23873D01*
X24873Y21866D01*
G01X28873D02*
Y23386D01*
G01X47061Y11870D02*
X29561D01*
Y26870D01*
X47061D01*
Y11870D01*
G01X34561D02*
X38311Y15620D01*
X42061Y11870D01*
G01X28600Y44057D02*
X23600D01*
Y45323D01*
X23850Y45829D01*
X24183Y46209D01*
X24683Y46526D01*
X25267Y46779D01*
X26100Y46842D01*
X26933Y46779D01*
X27517Y46526D01*
X28017Y46209D01*
X28350Y45829D01*
X28600Y45323D01*
Y44057D01*
G01Y51307D02*
X23600D01*
X27183Y48965D01*
Y52130D01*
G01X36311Y44905D02*
Y50905D01*
G01X46677Y53122D02*
X29945D01*
Y42688D01*
X46677D01*
Y53122D01*
G01X26104Y58162D02*
Y63162D01*
X27370D01*
X27876Y62912D01*
X28256Y62579D01*
X28573Y62079D01*
X28826Y61495D01*
X28889Y60662D01*
X28826Y59829D01*
X28573Y59245D01*
X28256Y58745D01*
X27876Y58412D01*
X27370Y58162D01*
X26104D01*
G01X31898Y59829D02*
X33418D01*
G01X32594Y60912D02*
Y58745D01*
G01X35720Y57976D02*
X40642D01*
Y62898D01*
X35720D01*
Y57976D01*
G01X26234Y65052D02*
Y70052D01*
X27500D01*
X28006Y69802D01*
X28386Y69469D01*
X28703Y68969D01*
X28956Y68385D01*
X29019Y67552D01*
X28956Y66719D01*
X28703Y66135D01*
X28386Y65635D01*
X28006Y65302D01*
X27500Y65052D01*
X26234D01*
G01X31901Y66719D02*
X33548D01*
G01X35785Y63891D02*
X40707D01*
Y68813D01*
X35785D01*
Y63891D01*
G01X68639Y99144D02*
Y76428D01*
X38325D01*
Y99144D01*
X68639D01*
G01X18887Y89834D02*
X19393Y89417D01*
X19963Y89167D01*
X20470D01*
X20976Y89417D01*
X21356Y89834D01*
X21546Y90417D01*
X21420Y91000D01*
X21103Y91500D01*
X20533Y91834D01*
X19773Y92000D01*
X19330Y92334D01*
X19140Y92917D01*
X19267Y93500D01*
X19583Y93917D01*
X20027Y94167D01*
X20470D01*
X20913Y94000D01*
X21293Y93584D01*
G01X23415Y94167D02*
X24301Y89167D01*
X25314Y94167D01*
X26328Y89167D01*
X27214Y94167D01*
G01X31172Y89167D02*
Y94167D01*
X28830Y90584D01*
X31995D01*
G01X40866Y-37441D02*
X40486Y-37191D01*
X40042Y-37024D01*
X39536D01*
X38966Y-37274D01*
X38523Y-37691D01*
X38206Y-38191D01*
X37953Y-39024D01*
X37890Y-39774D01*
X38016Y-40524D01*
X38206Y-41024D01*
X38586Y-41524D01*
X39029Y-41857D01*
X39472Y-42024D01*
X39916D01*
X40359Y-41857D01*
X40739Y-41607D01*
X41055Y-41274D01*
G01X43114Y-42024D02*
Y-37024D01*
X46027Y-42024D01*
Y-37024D01*
G01X49668Y-42024D02*
X49669Y-37024D01*
X48909Y-38024D01*
G01Y-42024D02*
X50428D01*
G01X50722Y-12236D02*
Y-14736D01*
X55722D01*
Y-13736D01*
G01X40781Y-22529D02*
Y-17529D01*
X42115D01*
X42541Y-17779D01*
X42808Y-18112D01*
X42915Y-18779D01*
X42808Y-19446D01*
X42488Y-19862D01*
X42115Y-20112D01*
X40781D01*
G01X42115D02*
X42915Y-22529D01*
G01X45075Y-21529D02*
X45395Y-22112D01*
X45821Y-22446D01*
X46301Y-22529D01*
X46728Y-22446D01*
X47155Y-22029D01*
X47421Y-21529D01*
X47475Y-21029D01*
X47368Y-20446D01*
X46995Y-20029D01*
X46621Y-19862D01*
X46141D01*
G01X46621D02*
X46941Y-19612D01*
X47208Y-19196D01*
X47315Y-18696D01*
X47208Y-18196D01*
X46941Y-17779D01*
X46461Y-17529D01*
X45981Y-17612D01*
X45501Y-17946D01*
G01X50648Y-17529D02*
X50221Y-17696D01*
X49901Y-18112D01*
X49688Y-18612D01*
X49528Y-19279D01*
X49475Y-20029D01*
X49528Y-20779D01*
X49688Y-21446D01*
X49901Y-21946D01*
X50221Y-22362D01*
X50648Y-22529D01*
X51075Y-22362D01*
X51395Y-21946D01*
X51608Y-21446D01*
X51768Y-20779D01*
X51821Y-20029D01*
X51768Y-19279D01*
X51608Y-18612D01*
X51395Y-18112D01*
X51075Y-17696D01*
X50648Y-17529D01*
G01X40010Y-13736D02*
Y-14736D01*
X45010D01*
Y-12236D01*
G01X60186Y979D02*
Y-10833D01*
X71998D01*
Y979D01*
X60186D01*
G01X50722Y6263D02*
Y3763D01*
X55722D01*
Y4763D01*
G01X52693Y2321D02*
X52373Y2571D01*
X52000Y2738D01*
X51573D01*
X51093Y2488D01*
X50720Y2071D01*
X50453Y1571D01*
X50240Y738D01*
X50187Y-12D01*
X50293Y-762D01*
X50453Y-1262D01*
X50773Y-1762D01*
X51147Y-2095D01*
X51520Y-2262D01*
X51893D01*
X52267Y-2095D01*
X52587Y-1845D01*
X52853Y-1512D01*
G01X54747Y-1262D02*
X55067Y-1845D01*
X55493Y-2179D01*
X55973Y-2262D01*
X56400Y-2179D01*
X56827Y-1762D01*
X57093Y-1262D01*
X57147Y-762D01*
X57040Y-179D01*
X56667Y238D01*
X56293Y405D01*
X55813D01*
G01X56293D02*
X56613Y655D01*
X56880Y1071D01*
X56987Y1571D01*
X56880Y2071D01*
X56613Y2488D01*
X56133Y2738D01*
X55653Y2655D01*
X55173Y2321D01*
G01X55722Y-3736D02*
Y-2736D01*
X50722D01*
Y-5236D01*
G01X45010D02*
Y-2736D01*
X40010D01*
Y-3736D01*
G01X35390Y2425D02*
X35070Y2675D01*
X34697Y2842D01*
X34270D01*
X33790Y2592D01*
X33417Y2175D01*
X33150Y1675D01*
X32937Y842D01*
X32884Y92D01*
X32990Y-658D01*
X33150Y-1158D01*
X33470Y-1658D01*
X33844Y-1991D01*
X34217Y-2158D01*
X34590D01*
X34964Y-1991D01*
X35284Y-1741D01*
X35550Y-1408D01*
G01X37604Y2009D02*
X37924Y2509D01*
X38297Y2759D01*
X38724Y2842D01*
X39257Y2675D01*
X39630Y2259D01*
X39737Y1759D01*
X39684Y1259D01*
X39470Y842D01*
X38404Y9D01*
X37924Y-575D01*
X37604Y-1408D01*
X37497Y-2158D01*
X39737D01*
G01X43017D02*
Y2842D01*
X42377Y1842D01*
G01Y-2158D02*
X43657D01*
G01X43285Y3181D02*
X44285D01*
Y8181D01*
X41785D01*
G01X46390Y33661D02*
X46140Y33341D01*
X45973Y32968D01*
Y32541D01*
X46223Y32061D01*
X46640Y31688D01*
X47140Y31421D01*
X47973Y31208D01*
X48723Y31155D01*
X49473Y31261D01*
X49973Y31421D01*
X50473Y31741D01*
X50806Y32115D01*
X50973Y32488D01*
Y32861D01*
X50806Y33235D01*
X50556Y33555D01*
X50223Y33821D01*
G01X50973Y36888D02*
X45973D01*
X46973Y36248D01*
G01X50973D02*
Y37528D01*
G01X43311Y32028D02*
X44311D01*
Y37028D01*
X41811D01*
G01X56537Y18707D02*
X51537D01*
Y20041D01*
X51787Y20467D01*
X52120Y20734D01*
X52787Y20841D01*
X53454Y20734D01*
X53870Y20414D01*
X54120Y20041D01*
Y18707D01*
G01Y20041D02*
X56537Y20841D01*
G01X52370Y23161D02*
X51870Y23481D01*
X51620Y23854D01*
X51537Y24281D01*
X51704Y24814D01*
X52120Y25187D01*
X52620Y25294D01*
X53120Y25241D01*
X53537Y25027D01*
X54370Y23961D01*
X54954Y23481D01*
X55787Y23161D01*
X56537Y23054D01*
Y25294D01*
G01X55722Y14763D02*
Y15763D01*
X50722D01*
Y13263D01*
G01X55510Y54080D02*
Y59080D01*
X56844D01*
X57270Y58830D01*
X57537Y58497D01*
X57644Y57830D01*
X57537Y57163D01*
X57217Y56747D01*
X56844Y56497D01*
X55510D01*
G01X56844D02*
X57644Y54080D01*
G01X59804Y55080D02*
X60124Y54497D01*
X60550Y54163D01*
X61030Y54080D01*
X61457Y54163D01*
X61884Y54580D01*
X62150Y55080D01*
X62204Y55580D01*
X62097Y56163D01*
X61724Y56580D01*
X61350Y56747D01*
X60870D01*
G01X61350D02*
X61670Y56997D01*
X61937Y57413D01*
X62044Y57913D01*
X61937Y58413D01*
X61670Y58830D01*
X61190Y59080D01*
X60710Y58997D01*
X60230Y58663D01*
G01X66017Y54080D02*
Y59080D01*
X64044Y55497D01*
X66710D01*
G01X42562Y53872D02*
Y58872D01*
X43896D01*
X44322Y58622D01*
X44589Y58289D01*
X44696Y57622D01*
X44589Y56955D01*
X44269Y56539D01*
X43896Y56289D01*
X42562D01*
G01X43896D02*
X44696Y53872D01*
G01X46856Y54872D02*
X47176Y54289D01*
X47602Y53955D01*
X48082Y53872D01*
X48509Y53955D01*
X48936Y54372D01*
X49202Y54872D01*
X49256Y55372D01*
X49149Y55955D01*
X48776Y56372D01*
X48402Y56539D01*
X47922D01*
G01X48402D02*
X48722Y56789D01*
X48989Y57205D01*
X49096Y57705D01*
X48989Y58205D01*
X48722Y58622D01*
X48242Y58872D01*
X47762Y58789D01*
X47282Y58455D01*
G01X51256Y54622D02*
X51576Y54205D01*
X51949Y53955D01*
X52429Y53872D01*
X52909Y54039D01*
X53282Y54372D01*
X53549Y54955D01*
X53602Y55622D01*
X53496Y56289D01*
X53229Y56705D01*
X52856Y57039D01*
X52482Y57122D01*
X52109Y57039D01*
X51629Y56705D01*
X51789Y58872D01*
X53229D01*
G01X51993Y46791D02*
X51743Y46471D01*
X51576Y46098D01*
Y45671D01*
X51826Y45191D01*
X52243Y44818D01*
X52743Y44551D01*
X53576Y44338D01*
X54326Y44285D01*
X55076Y44391D01*
X55576Y44551D01*
X56076Y44871D01*
X56409Y45245D01*
X56576Y45618D01*
Y45991D01*
X56409Y46365D01*
X56159Y46685D01*
X55826Y46951D01*
G01X52409Y49005D02*
X51909Y49325D01*
X51659Y49698D01*
X51576Y50125D01*
X51743Y50658D01*
X52159Y51031D01*
X52659Y51138D01*
X53159Y51085D01*
X53576Y50871D01*
X54409Y49805D01*
X54993Y49325D01*
X55826Y49005D01*
X56576Y48898D01*
Y51138D01*
G01X60811Y50431D02*
X58311D01*
Y45431D01*
X59311D01*
G01X60889Y38276D02*
X58389D01*
Y33276D01*
X59389D01*
G01X62638Y69826D02*
Y72326D01*
X57638D01*
Y71326D01*
G01Y61326D02*
Y60326D01*
X62638D01*
Y62826D01*
G01X51068Y69579D02*
Y72079D01*
X46068D01*
Y71079D01*
G01Y61079D02*
Y60079D01*
X51068D01*
Y62579D01*
G01X79942Y-40331D02*
X89942D01*
Y-70331D01*
X79942D01*
Y-40331D01*
G01X64870Y-28756D02*
Y-23756D01*
X66204D01*
X66630Y-24006D01*
X66897Y-24339D01*
X67004Y-25006D01*
X66897Y-25673D01*
X66577Y-26089D01*
X66204Y-26339D01*
X64870D01*
G01X66204D02*
X67004Y-28756D01*
G01X70977D02*
Y-23756D01*
X69004Y-27339D01*
X71670D01*
G01X64672Y-15271D02*
X62172D01*
Y-20271D01*
X63172D01*
G01X73172D02*
X74172D01*
Y-15271D01*
X71672D01*
G01X75604Y-20576D02*
X79187D01*
X79937Y-20323D01*
X80437Y-19816D01*
X80604Y-19183D01*
X80437Y-18550D01*
X79937Y-18043D01*
X79187Y-17790D01*
X75604D01*
G01X79854Y-15476D02*
X80271Y-15096D01*
X80521Y-14653D01*
X80604Y-14083D01*
X80437Y-13513D01*
X80104Y-13070D01*
X79521Y-12753D01*
X78854Y-12690D01*
X78187Y-12816D01*
X77771Y-13133D01*
X77437Y-13576D01*
X77354Y-14020D01*
X77437Y-14463D01*
X77771Y-15033D01*
X75604Y-14843D01*
Y-13133D01*
G01X99295Y-20786D02*
X81795D01*
Y-5786D01*
X99295D01*
Y-20786D01*
G01X78928Y-31243D02*
X83928D01*
Y-28710D01*
G01Y-24879D02*
X78928D01*
X79928Y-25638D01*
G01X83928D02*
Y-24119D01*
G01X61852Y5993D02*
Y10993D01*
X62918D01*
X63345Y10743D01*
X63665Y10410D01*
X63932Y9910D01*
X64145Y9326D01*
X64198Y8493D01*
X64145Y7660D01*
X63932Y7076D01*
X63665Y6576D01*
X63345Y6243D01*
X62918Y5993D01*
X61852D01*
G01X66412Y10160D02*
X66732Y10660D01*
X67105Y10910D01*
X67532Y10993D01*
X68065Y10826D01*
X68438Y10410D01*
X68545Y9910D01*
X68492Y9410D01*
X68278Y8993D01*
X67212Y8160D01*
X66732Y7576D01*
X66412Y6743D01*
X66305Y5993D01*
X68545D01*
G01X78442Y5707D02*
X83442D01*
Y4373D01*
X83192Y3947D01*
X82859Y3680D01*
X82192Y3573D01*
X81525Y3680D01*
X81109Y4000D01*
X80859Y4373D01*
Y5707D01*
G01Y4373D02*
X78442Y3573D01*
G01X79442Y1413D02*
X78859Y1093D01*
X78525Y667D01*
X78442Y187D01*
X78525Y-240D01*
X78942Y-667D01*
X79442Y-933D01*
X79942Y-987D01*
X80525Y-880D01*
X80942Y-507D01*
X81109Y-133D01*
Y347D01*
G01Y-133D02*
X81359Y-453D01*
X81775Y-720D01*
X82275Y-827D01*
X82775Y-720D01*
X83192Y-453D01*
X83442Y27D01*
X83359Y507D01*
X83025Y987D01*
G01X80525Y-3147D02*
X81109Y-3520D01*
X81442Y-3840D01*
X81609Y-4267D01*
X81442Y-4640D01*
X81109Y-4907D01*
X80609Y-5120D01*
X80025Y-5173D01*
X79525Y-5120D01*
X79025Y-4907D01*
X78609Y-4587D01*
X78442Y-4213D01*
X78609Y-3787D01*
X79109Y-3413D01*
X79859Y-3200D01*
X80692Y-3147D01*
X81775Y-3253D01*
X82359Y-3413D01*
X82942Y-3680D01*
X83359Y-4053D01*
X83442Y-4427D01*
X83275Y-4800D01*
X82859Y-5067D01*
G01X77696Y-1872D02*
X74113D01*
X73363Y-2125D01*
X72863Y-2631D01*
X72696Y-3264D01*
X72863Y-3898D01*
X73363Y-4404D01*
X74113Y-4657D01*
X77696D01*
G01X76863Y-7159D02*
X77363Y-7539D01*
X77613Y-7983D01*
X77696Y-8489D01*
X77529Y-9122D01*
X77113Y-9566D01*
X76613Y-9692D01*
X76113Y-9629D01*
X75696Y-9376D01*
X74863Y-8109D01*
X74279Y-7539D01*
X73446Y-7159D01*
X72696Y-7033D01*
Y-9692D01*
G01X62565Y14323D02*
Y11823D01*
X67565D01*
Y12823D01*
G01Y22823D02*
Y23823D01*
X62565D01*
Y21323D01*
G01X76583Y32396D02*
X71583D01*
Y33730D01*
X71833Y34156D01*
X72166Y34423D01*
X72833Y34530D01*
X73500Y34423D01*
X73916Y34103D01*
X74166Y33730D01*
Y32396D01*
G01Y33730D02*
X76583Y34530D01*
G01X75583Y36690D02*
X76166Y37010D01*
X76500Y37436D01*
X76583Y37916D01*
X76500Y38343D01*
X76083Y38770D01*
X75583Y39036D01*
X75083Y39090D01*
X74500Y38983D01*
X74083Y38610D01*
X73916Y38236D01*
Y37756D01*
G01Y38236D02*
X73666Y38556D01*
X73250Y38823D01*
X72750Y38930D01*
X72250Y38823D01*
X71833Y38556D01*
X71583Y38076D01*
X71666Y37596D01*
X72000Y37116D01*
G01X81337Y15089D02*
X81754Y15595D01*
X82004Y16165D01*
Y16672D01*
X81754Y17178D01*
X81337Y17558D01*
X80754Y17748D01*
X80171Y17622D01*
X79671Y17305D01*
X79337Y16735D01*
X79171Y15975D01*
X78837Y15532D01*
X78254Y15342D01*
X77671Y15469D01*
X77254Y15785D01*
X77004Y16229D01*
Y16672D01*
X77171Y17115D01*
X77587Y17495D01*
G01X77004Y19617D02*
X82004Y20503D01*
X77004Y21516D01*
X82004Y22530D01*
X77004Y23416D01*
G01X82004Y26614D02*
X77004D01*
X78004Y25855D01*
G01X82004D02*
Y27374D01*
G01X77004Y31712D02*
X77171Y31206D01*
X77587Y30826D01*
X78087Y30573D01*
X78754Y30383D01*
X79504Y30320D01*
X80254Y30383D01*
X80921Y30573D01*
X81421Y30826D01*
X81837Y31206D01*
X82004Y31712D01*
X81837Y32219D01*
X81421Y32599D01*
X80921Y32852D01*
X80254Y33042D01*
X79504Y33105D01*
X78754Y33042D01*
X78087Y32852D01*
X77587Y32599D01*
X77171Y32219D01*
X77004Y31712D01*
G01X69311Y45431D02*
X70311D01*
Y50431D01*
X67811D01*
G01X69389Y33276D02*
X70389D01*
Y38276D01*
X67889D01*
G01X75929Y53530D02*
X80851D01*
Y58452D01*
X75929D01*
Y53530D01*
G01Y51588D02*
Y46666D01*
X80851D01*
Y51588D01*
X75929D01*
G01X76395Y60254D02*
Y79054D01*
X105995D01*
Y60254D01*
X76395D01*
G01D02*
X105995D01*
G01X76395Y79054D02*
Y60254D01*
G01X105995Y79054D02*
X76395D01*
G01X75463Y95519D02*
X75713Y95898D01*
X75880Y96342D01*
Y96848D01*
X75630Y97418D01*
X75213Y97861D01*
X74713Y98178D01*
X73880Y98431D01*
X73130Y98494D01*
X72380Y98368D01*
X71880Y98178D01*
X71380Y97798D01*
X71047Y97355D01*
X70880Y96912D01*
Y96468D01*
X71047Y96025D01*
X71297Y95645D01*
X71630Y95329D01*
G01X70880Y93270D02*
X75880D01*
X70880Y90357D01*
X75880D01*
G01X71880Y88108D02*
X71297Y87729D01*
X70963Y87222D01*
X70880Y86652D01*
X70963Y86146D01*
X71380Y85639D01*
X71880Y85323D01*
X72380Y85259D01*
X72963Y85386D01*
X73380Y85829D01*
X73547Y86272D01*
Y86842D01*
G01Y86272D02*
X73797Y85892D01*
X74213Y85576D01*
X74713Y85449D01*
X75213Y85576D01*
X75630Y85892D01*
X75880Y86462D01*
X75797Y87032D01*
X75463Y87602D01*
G01X91462Y-41014D02*
X91152Y-41206D01*
X90945Y-41436D01*
X90842Y-41704D01*
X90945Y-42011D01*
X91152Y-42241D01*
X91462Y-42471D01*
X91875Y-42548D01*
X93942D01*
G01X91204Y-44229D02*
X90945Y-44498D01*
X90842Y-44804D01*
X90945Y-45111D01*
X91255Y-45379D01*
X91720Y-45571D01*
X92185Y-45648D01*
X92754D01*
X93219Y-45571D01*
X93632Y-45379D01*
X93839Y-45149D01*
X93942Y-44881D01*
X93839Y-44574D01*
X93632Y-44344D01*
X93322Y-44191D01*
X92909Y-44114D01*
X92547Y-44191D01*
X92185Y-44383D01*
X91979Y-44613D01*
X91927Y-44881D01*
X92030Y-45188D01*
X92289Y-45418D01*
X92754Y-45648D01*
G01X96451Y-22005D02*
X84639D01*
Y-33817D01*
X96451D01*
Y-22005D01*
G01X86795Y-20786D02*
X90545Y-17036D01*
X94295Y-20786D01*
G01X87045Y2825D02*
X84545D01*
Y-2175D01*
X85545D01*
G01X95545D02*
X96545D01*
Y2825D01*
X94045D01*
G01X81567Y58417D02*
X83149Y53417D01*
X84733Y58417D01*
G01X88754Y56084D02*
X89007Y56334D01*
X89197Y56750D01*
X89324Y57334D01*
X89197Y57834D01*
X88944Y58167D01*
X88501Y58417D01*
X86791D01*
Y53417D01*
X88881D01*
X89324Y53750D01*
X89577Y54250D01*
X89704Y54834D01*
X89577Y55417D01*
X89197Y55917D01*
X88754Y56084D01*
X86791D01*
G01X91763Y53417D02*
X93346Y58417D01*
X94928Y53417D01*
G01X94359Y55167D02*
X92332D01*
G01X98444Y58417D02*
X98443Y53417D01*
G01X96987Y58417D02*
X99900D01*
G01X80878Y51761D02*
X82460Y46761D01*
X84044Y51761D01*
G01X86166D02*
Y48178D01*
X86419Y47428D01*
X86925Y46928D01*
X87558Y46761D01*
X88192Y46928D01*
X88698Y47427D01*
X88951Y48178D01*
X88952Y51761D01*
G01X91327Y47428D02*
X91833Y47011D01*
X92403Y46761D01*
X92910D01*
X93416Y47011D01*
X93796Y47427D01*
X93986Y48011D01*
X93860Y48594D01*
X93543Y49094D01*
X92973Y49428D01*
X92213Y49594D01*
X91770Y49928D01*
X91580Y50511D01*
X91707Y51094D01*
X92023Y51511D01*
X92467Y51761D01*
X92910D01*
X93353Y51594D01*
X93733Y51178D01*
G01X98261Y49428D02*
X98514Y49678D01*
X98704Y50094D01*
X98831Y50678D01*
X98704Y51178D01*
X98451Y51511D01*
X98008Y51761D01*
X96298D01*
Y46761D01*
X98388D01*
X98831Y47094D01*
X99084Y47594D01*
X99211Y48178D01*
X99084Y48761D01*
X98704Y49261D01*
X98261Y49428D01*
X96298D01*
G01X86206Y62646D02*
X86523Y62146D01*
X86903Y61813D01*
X87346Y61646D01*
X87853Y61813D01*
X88233Y62146D01*
X88613Y62646D01*
X88740Y63313D01*
Y66646D01*
G01X91306Y61646D02*
Y66646D01*
X92826D01*
X93333Y66396D01*
X93713Y65813D01*
X93840Y65146D01*
X93713Y64479D01*
X93396Y63979D01*
X92826Y63729D01*
X91306D01*
G01X97673Y61646D02*
Y66646D01*
X96913Y65646D01*
G01Y61646D02*
X98433D01*
G01X105995Y60254D02*
Y79054D01*
G54D11*
G01X-97279Y-74945D02*
Y-79664D01*
X-96343Y-80600D01*
X-89258D01*
X-88660Y-80002D01*
Y-74945D01*
G01X62114Y14144D02*
Y11453D01*
X62140Y11427D01*
X68003D01*
X68133Y11557D01*
Y14079D01*
M02*
