M48
INCH
T01C.013
T02C.035
T03C.036
T04C.13

;LEADER: 12 
;HEADER: 
;CODE  : ASCII 
;FILE  : SLEEPTRACK2_PHASE3_v2-1-4.drl for  ... layers TOP and BOTTOM
;DESIGN: SLEEPTRACK2_PHASE3_v2.brd
;T01 Holesize 1. = 13.000000 Tolerance = +0.000000/-0.000000 PLATED MILS Quantity = 33
;T02 Holesize 2. = 35.000000 Tolerance = +0.000000/-0.000000 PLATED MILS Quantity = 5
;T03 Holesize 3. = 36.000000 Tolerance = +0.000000/-0.000000 PLATED MILS Quantity = 27
;T04 Holesize 4. = 130.000000 Tolerance = +0.000000/-0.000000 NON_PLATED MILS Quantity = 4

%
G90
T01
X-007000Y001196
X-007396Y000808
X-005958Y-004054
X-001579Y-001735
X-001579Y-003566
X-005312Y009114
X012150Y001331
X-005401Y-004434
X-002299Y002357
X-002620Y-006371
X-000673Y-005990
X-000056Y-005604
X-006997Y-000680
X-005601Y-001213
X-004134Y000514
X-005806Y001435
X-003318Y000442
X-006799Y009756
X-006589Y008242
X-001967Y-003213
X-003196Y-000650
X-006352Y-004611
X-001848Y-005953
X-002728Y-004935
X-006498Y-001641
X-007334Y-004157
X-004543Y002339
X-001061Y-006413
X011870Y-001809
X-008159Y000267
X011380Y001245
X-007596Y-000362
X-008179Y-001675
T02
X-009856Y002727
X-009856Y003507
X-011489Y007860
R02Y-001000
T03
X-009825Y-001015
R02Y001000
X-000416Y010003
R11Y-001000
X010366Y010003
R11Y-001000
T04
X-011084Y-006084
X-011084Y011084
X011084Y011084
X011084Y-006084

M30
