G04 ================== begin FILE IDENTIFICATION RECORD ==================*
G04 Layout Name:  SLEEPTRACK2_PHASE2.brd*
G04 Film Name:    Sleeptrack2_Phase_2_Soldermask_Top_V2*
G04 File Format:  Gerber RS274X*
G04 File Origin:  Cadence Allegro 17.0-P009*
G04 Origin Date:  Sat Jul 16 00:02:06 2016*
G04 *
G04 Layer:  VIA CLASS/SOLDERMASK_TOP*
G04 Layer:  PIN/SOLDERMASK_TOP*
G04 Layer:  PACKAGE GEOMETRY/SOLDERMASK_TOP*
G04 Layer:  DRC ERROR CLASS/SOLDERMASK_TOP*
G04 Layer:  BOARD GEOMETRY/SOLDERMASK_TOP*
G04 *
G04 Offset:    (0.00 0.00)*
G04 Mirror:    No*
G04 Mode:      Positive*
G04 Rotation:  0*
G04 FullContactRelief:  No*
G04 UndefLineWidth:     10.00*
G04 ================== end FILE IDENTIFICATION RECORD ====================*
%FSLAX25Y25*MOIN*%
%IR0*IPPOS*OFA0.00000B0.00000*MIA0B0*SFA1.00000B1.00000*%
%ADD19R,.105X.0805*%
%ADD11C,.07*%
%ADD12C,.044*%
%ADD20R,.05X.05*%
%ADD10C,.075*%
%ADD21R,.075X.075*%
%ADD14R,.046X.031*%
%ADD15R,.065X.07*%
%ADD13R,.036X.046*%
%ADD16R,.046X.036*%
%ADD22R,.065X.075*%
%ADD17R,.01209X.03209*%
%ADD18R,.06417X.0689*%
%LPD*%
G75*
G54D10*
X-98250Y-10150D03*
Y9850D03*
Y-150D03*
X12700Y-69440D03*
X22700D03*
X-4160Y-9970D03*
Y30D03*
Y10030D03*
Y20030D03*
Y30030D03*
Y40030D03*
Y50030D03*
Y60030D03*
Y70030D03*
Y80030D03*
Y90030D03*
Y100030D03*
X32700Y-69440D03*
X42700D03*
X103660Y-9970D03*
Y30D03*
Y10030D03*
Y20030D03*
Y30030D03*
Y40030D03*
Y50030D03*
Y60030D03*
Y70030D03*
Y80030D03*
Y90030D03*
Y100030D03*
G54D20*
X24750Y30000D03*
X74750Y90000D03*
Y100000D03*
G54D11*
X-98560Y27270D03*
X-114890Y58600D03*
X-98560Y35070D03*
X-114890Y68600D03*
Y78600D03*
G54D21*
X24750Y70000D03*
Y100000D03*
G54D12*
X-73100Y-6800D03*
X-72950Y3360D03*
X-87500Y85220D03*
X-67988Y97562D03*
X-56010Y-12130D03*
X-45430Y23390D03*
X-58064Y14350D03*
X-41340Y5140D03*
X-65890Y82420D03*
X-41990Y85220D03*
X-10610Y-64130D03*
X-26200Y-63710D03*
X-27280Y-49350D03*
X-18480Y-59530D03*
X-15790Y-35660D03*
X-31960Y-6500D03*
X-19670Y-32130D03*
X-15790Y-17350D03*
X-33180Y4420D03*
X-22990Y23570D03*
X-560Y-56040D03*
X-6725Y-59905D03*
X7600Y-58150D03*
X118700Y-18090D03*
X113800Y12450D03*
G54D22*
X45750Y111000D03*
X53750D03*
G54D13*
X-83250Y79220D03*
Y85220D03*
X-46280Y79220D03*
Y85220D03*
X-34610Y-43360D03*
Y-49360D03*
X-560Y-45060D03*
Y-51060D03*
X114040Y-16060D03*
Y-10060D03*
X113800Y7540D03*
Y1540D03*
G54D14*
X-72020Y85970D03*
Y82220D03*
Y78470D03*
X-61820D03*
Y85970D03*
G54D15*
X-74302Y65600D03*
X-59498D03*
G54D16*
X-72120Y114630D03*
Y102730D03*
X-66120Y114630D03*
X-46700Y114610D03*
X-52700D03*
X-66120Y102730D03*
X-15270Y-63710D03*
X-21270D03*
G54D17*
X-18213Y-42351D03*
X-16244D03*
X-14276D03*
X-12307D03*
Y-53769D03*
X-14276D03*
X-16244D03*
X-18213D03*
G54D18*
X-15260Y-48060D03*
G54D19*
X9750Y-10000D03*
Y0D03*
Y10000D03*
Y20000D03*
Y30000D03*
Y40000D03*
Y50000D03*
Y60000D03*
Y70000D03*
Y80000D03*
Y90000D03*
Y100000D03*
X89750Y-10000D03*
Y20000D03*
Y10000D03*
Y0D03*
Y50000D03*
Y40000D03*
Y30000D03*
Y80000D03*
Y70000D03*
Y60000D03*
Y100000D03*
Y90000D03*
M02*
