G04 This is an RS-274x file exported by *
G04 gerbv version 2.6.1 *
G04 More information is available about gerbv at *
G04 http://gerbv.geda-project.org/ *
G04 --End of header info--*
%MOIN*%
%FSLAX34Y34*%
%IPPOS*%
G04 --Define apertures--*
%ADD10C,0.1350*%
%ADD11C,0.0550*%
%ADD12C,0.0240*%
%ADD13C,0.0100*%
%ADD14C,0.0340*%
%ADD15R,0.6700X0.5790*%
%ADD16C,0.0650*%
%ADD17C,0.1500*%
G04 --Start main section--*
G36*
G01X0012400Y-007400D02*
G01X-012400Y-007400D01*
G01X-012400Y0012400D01*
G01X0012400Y0012400D01*
G01X0012400Y-007400D01*
G37*
%LPC*%
G54D14*
G01X-007396Y0000808D03*
G01X-007000Y0001196D03*
G01X-006498Y-001641D03*
G01X-005958Y-004054D03*
G01X-004543Y0002339D03*
G01X-001061Y-006413D03*
G01X-002728Y-004935D03*
G01X-001848Y-005953D03*
G01X-001579Y-003566D03*
G01X-003196Y-000650D03*
G01X-001967Y-003213D03*
G01X-001579Y-001735D03*
G01X0011870Y-001809D03*
G01X0011380Y0001245D03*
G01X-006352Y-004611D03*
G01X-007334Y-004157D03*
G01X-008179Y-001675D03*
G01X-007596Y-000362D03*
G01X-008159Y0000267D03*
G54D16*
G01X-009825Y-001015D03*
G01X-009856Y0002727D03*
G01X-009825Y0000985D03*
G01X-009825Y-000015D03*
G01X-011489Y0005860D03*
G01X-009856Y0003507D03*
G01X-011489Y0006860D03*
G01X-011489Y0007860D03*
G01X-000416Y-000997D03*
G01X-000416Y0000003D03*
G01X-000416Y0001003D03*
G01X-000416Y0002003D03*
G01X-000416Y0003003D03*
G01X-000416Y0004003D03*
G01X-000416Y0005003D03*
G01X-000416Y0006003D03*
G01X-000416Y0007003D03*
G01X-000416Y0008003D03*
G01X-000416Y0009003D03*
G01X-000416Y0010003D03*
G01X0010366Y-000997D03*
G01X0010366Y0000003D03*
G01X0010366Y0001003D03*
G01X0010366Y0002003D03*
G01X0010366Y0003003D03*
G01X0010366Y0004003D03*
G01X0010366Y0005003D03*
G01X0010366Y0006003D03*
G01X0010366Y0007003D03*
G01X0010366Y0008003D03*
G01X0010366Y0009003D03*
G01X0010366Y0010003D03*
G54D17*
G01X-011084Y0011084D03*
G01X-011084Y-006084D03*
G01X0011084Y-006084D03*
G01X0011084Y0011084D03*
G54D15*
G01X0004975Y-002605D03*
%LPD*%
G54D10*
G01X-011084Y-006084D03*
G01X-011084Y0011084D03*
G01X0011084Y-006084D03*
G01X0011084Y0011084D03*
G54D11*
G01X-011489Y0005860D03*
G01X-011489Y0006860D03*
G01X-011489Y0007860D03*
G01X-009825Y-001015D03*
G01X-009825Y0000985D03*
G01X-009825Y-000015D03*
G01X-009856Y0003507D03*
G01X-009856Y0002727D03*
G01X-000416Y-000997D03*
G01X-000416Y0000003D03*
G01X-000416Y0001003D03*
G01X-000416Y0002003D03*
G01X-000416Y0003003D03*
G01X-000416Y0004003D03*
G01X-000416Y0005003D03*
G01X-000416Y0006003D03*
G01X-000416Y0007003D03*
G01X-000416Y0008003D03*
G01X-000416Y0009003D03*
G01X-000416Y0010003D03*
G01X0010366Y-000997D03*
G01X0010366Y0000003D03*
G01X0010366Y0001003D03*
G01X0010366Y0002003D03*
G01X0010366Y0003003D03*
G01X0010366Y0004003D03*
G01X0010366Y0005003D03*
G01X0010366Y0006003D03*
G01X0010366Y0007003D03*
G01X0010366Y0008003D03*
G01X0010366Y0009003D03*
G01X0010366Y0010003D03*
G54D12*
G01X-007334Y-004157D03*
G01X-006352Y-004611D03*
G01X-005958Y-004054D03*
G01X-008179Y-001675D03*
G01X-006498Y-001641D03*
G01X-006997Y-000680D03*
G01X-007596Y-000362D03*
G01X-008159Y0000267D03*
G01X-005806Y0001435D03*
G01X-007396Y0000808D03*
G01X-007000Y0001196D03*
G01X-006589Y0008242D03*
G01X-006799Y0009756D03*
G01X-005401Y-004434D03*
G01X-005601Y-001213D03*
G01X-004134Y0000514D03*
G01X-004543Y0002339D03*
G01X-005312Y0009114D03*
G01X-001061Y-006413D03*
G01X-001848Y-005953D03*
G01X-002620Y-006371D03*
G01X-002728Y-004935D03*
G01X-001967Y-003213D03*
G01X-001579Y-003566D03*
G01X-001579Y-001735D03*
G01X-003196Y-000650D03*
G01X-003318Y0000442D03*
G01X-002299Y0002357D03*
G01X-000056Y-005604D03*
G01X-000672Y-005990D03*
G01X0011870Y-001809D03*
G01X0011380Y0001245D03*
G01X0012150Y0001331D03*
G54D13*
G01X-009825Y-000360D02*
G01X-009825Y-000015D01*
G01X-009825Y-000015D02*
G01X-009825Y0000330D01*
G01X-010170Y-000015D02*
G01X-009825Y-000015D01*
G01X-009825Y-000015D02*
G01X-009480Y-000015D01*
G01X-009856Y0002382D02*
G01X-009856Y0002727D01*
G01X-009856Y0002727D02*
G01X-009856Y0003072D01*
G01X-010201Y0002727D02*
G01X-009856Y0002727D01*
G01X-009856Y0002727D02*
G01X-009511Y0002727D01*
G01X-000416Y0008658D02*
G01X-000416Y0009003D01*
G01X-000416Y0009003D02*
G01X-000416Y0009348D01*
G01X-000761Y0009003D02*
G01X-000416Y0009003D01*
G01X-000416Y0009003D02*
G01X-000071Y0009003D01*
G01X0010366Y0006658D02*
G01X0010366Y0007003D01*
G01X0010366Y0007003D02*
G01X0010366Y0007348D01*
G01X0010021Y0007003D02*
G01X0010366Y0007003D01*
G01X0010366Y0007003D02*
G01X0010711Y0007003D01*
M02*
