G04 ================== begin FILE IDENTIFICATION RECORD ==================*
G04 Layout Name:  SLEEPTRACK2_PHASE2.brd*
G04 Film Name:    Sleeptrack2_Phase_2_Silkscreen_Top_V1*
G04 File Format:  Gerber RS274X*
G04 File Origin:  Cadence Allegro 17.0-P009*
G04 Origin Date:  Thu Jul 14 23:11:08 2016*
G04 *
G04 Layer:  USER PART NUMBER/SILKSCREEN_TOP*
G04 Layer:  TOLERANCE/SILKSCREEN_TOP*
G04 Layer:  REF DES/SILKSCREEN_TOP*
G04 Layer:  PACKAGE GEOMETRY/SILKSCREEN_TOP*
G04 Layer:  DEVICE TYPE/SILKSCREEN_TOP*
G04 Layer:  COMPONENT VALUE/SILKSCREEN_TOP*
G04 Layer:  BOARD GEOMETRY/SILKSCREEN_TOP*
G04 *
G04 Offset:    (0.00 0.00)*
G04 Mirror:    No*
G04 Mode:      Positive*
G04 Rotation:  0*
G04 FullContactRelief:  No*
G04 UndefLineWidth:     10.00*
G04 ================== end FILE IDENTIFICATION RECORD ====================*
%FSLAX25Y25*MOIN*%
%IR0*IPPOS*OFA0.00000B0.00000*MIA0B0*SFA1.00000B1.00000*%
%ADD10C,.01*%
G75*
%LPD*%
G75*
G36*
G01X-107016Y88679D02*
Y48521D01*
X-122764D01*
Y65647D01*
X-132607D01*
Y71553D01*
X-122764D01*
Y88679D01*
X-107016D01*
G37*
G36*
G01X-68900Y62600D02*
X-64900Y65600D01*
X-68900Y68600D01*
Y62600D01*
G37*
G54D10*
G01X-93250Y-15150D02*
X-142450D01*
Y14850D01*
X-93250D01*
Y-15150D01*
G01X-104770Y-14467D02*
X-104460Y-14275D01*
X-104253Y-14045D01*
X-104150Y-13777D01*
X-104253Y-13470D01*
X-104460Y-13240D01*
X-104770Y-13010D01*
X-105183Y-12933D01*
X-107250D01*
G01X-104615Y-11443D02*
X-104357Y-11213D01*
X-104202Y-10945D01*
X-104150Y-10600D01*
X-104253Y-10255D01*
X-104460Y-9987D01*
X-104822Y-9795D01*
X-105235Y-9757D01*
X-105648Y-9833D01*
X-105907Y-10025D01*
X-106113Y-10293D01*
X-106165Y-10562D01*
X-106113Y-10830D01*
X-105907Y-11175D01*
X-107250Y-11060D01*
Y-10025D01*
G01X-92660Y40570D02*
Y21770D01*
X-122260D01*
Y40570D01*
X-92660D01*
G01X-122260D02*
Y21770D01*
G01D02*
X-92660D01*
G01Y40570D02*
X-122260D01*
G01X-100997Y61400D02*
X-100580Y61906D01*
X-100330Y62476D01*
Y62983D01*
X-100580Y63489D01*
X-100997Y63869D01*
X-101580Y64059D01*
X-102163Y63933D01*
X-102663Y63616D01*
X-102997Y63046D01*
X-103163Y62286D01*
X-103497Y61843D01*
X-104080Y61653D01*
X-104663Y61780D01*
X-105080Y62096D01*
X-105330Y62540D01*
Y62983D01*
X-105163Y63426D01*
X-104747Y63806D01*
G01X-105330Y65928D02*
X-100330Y66814D01*
X-105330Y67827D01*
X-100330Y68841D01*
X-105330Y69727D01*
G01X-100330Y72925D02*
X-105330D01*
X-104330Y72166D01*
G01X-100330D02*
Y73685D01*
G01X-78173Y-73010D02*
Y-70510D01*
X-77480Y-72593D01*
X-76787Y-70510D01*
Y-73010D01*
G01X-75947D02*
X-75280Y-70510D01*
X-74613Y-73010D01*
G01X-74853Y-72135D02*
X-75707D01*
G01X-73667Y-73010D02*
Y-70510D01*
X-73133D01*
X-72920Y-70635D01*
X-72760Y-70802D01*
X-72627Y-71052D01*
X-72520Y-71343D01*
X-72493Y-71760D01*
X-72520Y-72177D01*
X-72627Y-72468D01*
X-72760Y-72718D01*
X-72920Y-72885D01*
X-73133Y-73010D01*
X-73667D01*
G01X-71200Y-70510D02*
X-70560D01*
G01X-70880D02*
Y-73010D01*
G01X-71200D02*
X-70560D01*
G01X-69240Y-72677D02*
X-69027Y-72885D01*
X-68787Y-73010D01*
X-68573D01*
X-68360Y-72885D01*
X-68200Y-72677D01*
X-68120Y-72385D01*
X-68173Y-72093D01*
X-68307Y-71843D01*
X-68547Y-71677D01*
X-68867Y-71593D01*
X-69053Y-71427D01*
X-69133Y-71135D01*
X-69080Y-70843D01*
X-68947Y-70635D01*
X-68760Y-70510D01*
X-68573D01*
X-68387Y-70593D01*
X-68227Y-70802D01*
G01X-66480Y-73010D02*
X-66693Y-72968D01*
X-66880Y-72802D01*
X-67040Y-72552D01*
X-67147Y-72260D01*
X-67200Y-71927D01*
Y-71593D01*
X-67147Y-71260D01*
X-67040Y-70968D01*
X-66880Y-70718D01*
X-66693Y-70552D01*
X-66480Y-70510D01*
X-66267Y-70552D01*
X-66080Y-70718D01*
X-65920Y-70968D01*
X-65813Y-71260D01*
X-65760Y-71593D01*
Y-71927D01*
X-65813Y-72260D01*
X-65920Y-72552D01*
X-66080Y-72802D01*
X-66267Y-72968D01*
X-66480Y-73010D01*
G01X-64893D02*
Y-70510D01*
X-63667Y-73010D01*
Y-70510D01*
G01X-59880D02*
Y-73010D01*
G01X-60493Y-70510D02*
X-59267D01*
G01X-58213Y-73010D02*
Y-70510D01*
X-57547D01*
X-57333Y-70635D01*
X-57200Y-70802D01*
X-57147Y-71135D01*
X-57200Y-71468D01*
X-57360Y-71677D01*
X-57547Y-71802D01*
X-58213D01*
G01X-57547D02*
X-57147Y-73010D01*
G01X-56147D02*
X-55480Y-70510D01*
X-54813Y-73010D01*
G01X-55053Y-72135D02*
X-55907D01*
G01X-53280Y-73010D02*
Y-71885D01*
X-53813Y-70510D01*
G01X-52747D02*
X-53280Y-71885D01*
G01X-51693Y-73010D02*
Y-70510D01*
X-50467Y-73010D01*
Y-70510D01*
G01X-49440Y-73010D02*
Y-70510D01*
G01X-48320D02*
Y-73010D01*
G01Y-71760D02*
X-49440D01*
G01X-47347Y-73010D02*
X-46680Y-70510D01*
X-46013Y-73010D01*
G01X-46253Y-72135D02*
X-47107D01*
G01X-45173Y-73010D02*
Y-70510D01*
X-44480Y-72593D01*
X-43787Y-70510D01*
Y-73010D01*
G01X-72953Y-67280D02*
Y-69780D01*
X-71887D01*
G01X-70807Y-67280D02*
Y-69072D01*
X-70700Y-69447D01*
X-70487Y-69697D01*
X-70220Y-69780D01*
X-69953Y-69697D01*
X-69740Y-69447D01*
X-69633Y-69072D01*
Y-67280D01*
G01X-67433Y-67488D02*
X-67593Y-67363D01*
X-67780Y-67280D01*
X-67993D01*
X-68233Y-67405D01*
X-68420Y-67613D01*
X-68553Y-67863D01*
X-68660Y-68280D01*
X-68687Y-68655D01*
X-68633Y-69030D01*
X-68553Y-69280D01*
X-68393Y-69530D01*
X-68207Y-69697D01*
X-68020Y-69780D01*
X-67833D01*
X-67647Y-69697D01*
X-67487Y-69572D01*
X-67353Y-69405D01*
G01X-64420Y-67280D02*
X-64047Y-69780D01*
X-63620Y-67280D01*
X-63193Y-69780D01*
X-62820Y-67280D01*
G01X-62087Y-69780D02*
X-61420Y-67280D01*
X-60753Y-69780D01*
G01X-60993Y-68905D02*
X-61847D01*
G01X-59780Y-69447D02*
X-59567Y-69655D01*
X-59327Y-69780D01*
X-59113D01*
X-58900Y-69655D01*
X-58740Y-69447D01*
X-58660Y-69155D01*
X-58713Y-68863D01*
X-58847Y-68613D01*
X-59087Y-68447D01*
X-59407Y-68363D01*
X-59593Y-68197D01*
X-59673Y-67905D01*
X-59620Y-67613D01*
X-59487Y-67405D01*
X-59300Y-67280D01*
X-59113D01*
X-58927Y-67363D01*
X-58767Y-67572D01*
G01X-57020Y-67280D02*
Y-69780D01*
G01X-57633Y-67280D02*
X-56407D01*
G01X-55140D02*
X-54500D01*
G01X-54820D02*
Y-69780D01*
G01X-55140D02*
X-54500D01*
G01X-53287D02*
X-52620Y-67280D01*
X-51953Y-69780D01*
G01X-52193Y-68905D02*
X-53047D01*
G01X-51007Y-67280D02*
Y-69072D01*
X-50900Y-69447D01*
X-50687Y-69697D01*
X-50420Y-69780D01*
X-50153Y-69697D01*
X-49940Y-69447D01*
X-49833Y-69072D01*
Y-67280D01*
G01X-48780Y-69780D02*
X-47660Y-67280D01*
G01X-48780D02*
X-47660Y-69780D01*
G01X-79730Y-65607D02*
X-79517Y-65815D01*
X-79277Y-65940D01*
X-79063D01*
X-78850Y-65815D01*
X-78690Y-65607D01*
X-78610Y-65315D01*
X-78663Y-65023D01*
X-78797Y-64773D01*
X-79037Y-64607D01*
X-79357Y-64523D01*
X-79543Y-64357D01*
X-79623Y-64065D01*
X-79570Y-63773D01*
X-79437Y-63565D01*
X-79250Y-63440D01*
X-79063D01*
X-78877Y-63523D01*
X-78717Y-63732D01*
G01X-76970Y-65940D02*
Y-63440D01*
G01X-75170Y-64815D02*
X-74317D01*
X-74397Y-64523D01*
X-74530Y-64357D01*
X-74717Y-64273D01*
X-74903Y-64315D01*
X-75063Y-64440D01*
X-75170Y-64732D01*
X-75223Y-64982D01*
Y-65232D01*
X-75170Y-65482D01*
X-75037Y-65732D01*
X-74877Y-65898D01*
X-74690Y-65940D01*
X-74503Y-65857D01*
X-74317Y-65607D01*
G01X-72970Y-64815D02*
X-72117D01*
X-72197Y-64523D01*
X-72330Y-64357D01*
X-72517Y-64273D01*
X-72703Y-64315D01*
X-72863Y-64440D01*
X-72970Y-64732D01*
X-73023Y-64982D01*
Y-65232D01*
X-72970Y-65482D01*
X-72837Y-65732D01*
X-72677Y-65898D01*
X-72490Y-65940D01*
X-72303Y-65857D01*
X-72117Y-65607D01*
G01X-70850Y-66773D02*
Y-64273D01*
G01Y-64648D02*
X-70717Y-64440D01*
X-70583Y-64315D01*
X-70370Y-64273D01*
X-70183Y-64315D01*
X-69997Y-64523D01*
X-69917Y-64815D01*
X-69890Y-65107D01*
X-69917Y-65398D01*
X-69997Y-65690D01*
X-70157Y-65857D01*
X-70370Y-65940D01*
X-70557Y-65898D01*
X-70743Y-65773D01*
X-70850Y-65607D01*
G01X-68170Y-63440D02*
Y-65940D01*
G01X-68543Y-64273D02*
X-67797D01*
G01X-66343Y-65940D02*
Y-64273D01*
G01Y-64607D02*
X-66210Y-64440D01*
X-66077Y-64315D01*
X-65890Y-64273D01*
X-65757Y-64315D01*
X-65597Y-64440D01*
G01X-63290Y-65940D02*
Y-64273D01*
G01Y-64565D02*
X-63397Y-64398D01*
X-63557Y-64315D01*
X-63743Y-64273D01*
X-63930Y-64357D01*
X-64090Y-64523D01*
X-64197Y-64773D01*
X-64250Y-65107D01*
X-64197Y-65440D01*
X-64090Y-65690D01*
X-63930Y-65857D01*
X-63743Y-65940D01*
X-63557Y-65898D01*
X-63397Y-65773D01*
X-63290Y-65607D01*
G01X-61143Y-64482D02*
X-61330Y-64315D01*
X-61490Y-64273D01*
X-61703Y-64357D01*
X-61863Y-64523D01*
X-61970Y-64815D01*
X-61997Y-65107D01*
X-61970Y-65398D01*
X-61863Y-65648D01*
X-61703Y-65857D01*
X-61490Y-65940D01*
X-61303Y-65857D01*
X-61143Y-65690D01*
G01X-59823Y-65940D02*
Y-63440D01*
G01X-58970Y-64273D02*
X-59823Y-65232D01*
G01X-59477Y-64857D02*
X-58917Y-65940D01*
G01X-55503D02*
Y-63440D01*
X-54863D01*
X-54650Y-63565D01*
X-54490Y-63857D01*
X-54437Y-64190D01*
X-54490Y-64523D01*
X-54623Y-64773D01*
X-54863Y-64898D01*
X-55503D01*
G01X-53223Y-65940D02*
Y-63440D01*
G01Y-64648D02*
X-53090Y-64440D01*
X-52957Y-64315D01*
X-52743Y-64273D01*
X-52583Y-64315D01*
X-52397Y-64482D01*
X-52317Y-64732D01*
Y-65940D01*
G01X-50090D02*
Y-64273D01*
G01Y-64565D02*
X-50197Y-64398D01*
X-50357Y-64315D01*
X-50543Y-64273D01*
X-50730Y-64357D01*
X-50890Y-64523D01*
X-50997Y-64773D01*
X-51050Y-65107D01*
X-50997Y-65440D01*
X-50890Y-65690D01*
X-50730Y-65857D01*
X-50543Y-65940D01*
X-50357Y-65898D01*
X-50197Y-65773D01*
X-50090Y-65607D01*
G01X-48770Y-65648D02*
X-48637Y-65815D01*
X-48450Y-65940D01*
X-48290D01*
X-48130Y-65857D01*
X-48023Y-65732D01*
X-47970Y-65565D01*
X-47997Y-65315D01*
X-48103Y-65190D01*
X-48583Y-64940D01*
X-48690Y-64648D01*
X-48637Y-64440D01*
X-48530Y-64315D01*
X-48370Y-64273D01*
X-48210Y-64315D01*
X-48050Y-64440D01*
G01X-46570Y-64815D02*
X-45717D01*
X-45797Y-64523D01*
X-45930Y-64357D01*
X-46117Y-64273D01*
X-46303Y-64315D01*
X-46463Y-64440D01*
X-46570Y-64732D01*
X-46623Y-64982D01*
Y-65232D01*
X-46570Y-65482D01*
X-46437Y-65732D01*
X-46277Y-65898D01*
X-46090Y-65940D01*
X-45903Y-65857D01*
X-45717Y-65607D01*
G01X-42277Y-63857D02*
X-42117Y-63607D01*
X-41930Y-63482D01*
X-41717Y-63440D01*
X-41450Y-63523D01*
X-41263Y-63732D01*
X-41210Y-63982D01*
X-41237Y-64232D01*
X-41343Y-64440D01*
X-41877Y-64857D01*
X-42117Y-65148D01*
X-42277Y-65565D01*
X-42330Y-65940D01*
X-41210D01*
G01X-74510Y-61927D02*
X-74297Y-62135D01*
X-74057Y-62260D01*
X-73843D01*
X-73630Y-62135D01*
X-73470Y-61927D01*
X-73390Y-61635D01*
X-73443Y-61343D01*
X-73577Y-61093D01*
X-73817Y-60927D01*
X-74137Y-60843D01*
X-74323Y-60677D01*
X-74403Y-60385D01*
X-74350Y-60093D01*
X-74217Y-59885D01*
X-74030Y-59760D01*
X-73843D01*
X-73657Y-59843D01*
X-73497Y-60052D01*
G01X-72283Y-59760D02*
Y-62260D01*
X-71217D01*
G01X-69017D02*
X-70083D01*
Y-59760D01*
X-69017D01*
G01X-69443Y-60968D02*
X-70083D01*
G01X-66817Y-62260D02*
X-67883D01*
Y-59760D01*
X-66817D01*
G01X-67243Y-60968D02*
X-67883D01*
G01X-65683Y-62260D02*
Y-59760D01*
X-65043D01*
X-64830Y-59885D01*
X-64670Y-60177D01*
X-64617Y-60510D01*
X-64670Y-60843D01*
X-64803Y-61093D01*
X-65043Y-61218D01*
X-65683D01*
G01X-62950Y-59760D02*
Y-62260D01*
G01X-63563Y-59760D02*
X-62337D01*
G01X-61283Y-62260D02*
Y-59760D01*
X-60617D01*
X-60403Y-59885D01*
X-60270Y-60052D01*
X-60217Y-60385D01*
X-60270Y-60718D01*
X-60430Y-60927D01*
X-60617Y-61052D01*
X-61283D01*
G01X-60617D02*
X-60217Y-62260D01*
G01X-59217D02*
X-58550Y-59760D01*
X-57883Y-62260D01*
G01X-58123Y-61385D02*
X-58977D01*
G01X-55763Y-59968D02*
X-55923Y-59843D01*
X-56110Y-59760D01*
X-56323D01*
X-56563Y-59885D01*
X-56750Y-60093D01*
X-56883Y-60343D01*
X-56990Y-60760D01*
X-57017Y-61135D01*
X-56963Y-61510D01*
X-56883Y-61760D01*
X-56723Y-62010D01*
X-56537Y-62177D01*
X-56350Y-62260D01*
X-56163D01*
X-55977Y-62177D01*
X-55817Y-62052D01*
X-55683Y-61885D01*
G01X-54737Y-62260D02*
Y-59760D01*
G01X-53723D02*
X-54737Y-61302D01*
G01X-53563Y-62260D02*
X-54283Y-60593D01*
G01X-51950Y-62343D02*
X-52003Y-62302D01*
Y-62218D01*
X-51950Y-62177D01*
X-51897Y-62218D01*
Y-62302D01*
X-51950Y-62343D01*
G01X-50070Y-59760D02*
X-49430D01*
G01X-49750D02*
Y-62260D01*
G01X-50070D02*
X-49430D01*
G01X-47550D02*
X-47763Y-62218D01*
X-47950Y-62052D01*
X-48110Y-61802D01*
X-48217Y-61510D01*
X-48270Y-61177D01*
Y-60843D01*
X-48217Y-60510D01*
X-48110Y-60218D01*
X-47950Y-59968D01*
X-47763Y-59802D01*
X-47550Y-59760D01*
X-47337Y-59802D01*
X-47150Y-59968D01*
X-46990Y-60218D01*
X-46883Y-60510D01*
X-46830Y-60843D01*
Y-61177D01*
X-46883Y-61510D01*
X-46990Y-61802D01*
X-47150Y-62052D01*
X-47337Y-62218D01*
X-47550Y-62260D01*
G01X-73980Y-36070D02*
X-73937Y-36765D01*
G01X-79342Y-41562D02*
X-78710Y-43780D01*
G01X-79636Y-39665D02*
X-79342Y-41562D01*
G01X-78710Y-43780D02*
X-78410Y-44480D01*
G01D02*
X-77657Y-46255D01*
G01D02*
X-77100Y-47180D01*
G01X-79418Y-33362D02*
X-79780Y-35870D01*
G01D02*
Y-38770D01*
G01D02*
X-79636Y-39665D01*
G01X-70570Y-40940D02*
X-69489Y-41205D01*
G01X-77100Y-47180D02*
X-75903Y-48985D01*
G01D02*
X-74980Y-50170D01*
G01D02*
X-73180Y-51970D01*
G01D02*
X-72701Y-52295D01*
G01D02*
X-71765Y-53047D01*
G01D02*
X-69690Y-54390D01*
G01X-73937Y-36765D02*
X-73750Y-37660D01*
G01D02*
X-73156Y-38752D01*
G01D02*
X-72480Y-39670D01*
G01D02*
X-72298Y-39794D01*
G01D02*
X-71162Y-40646D01*
G01D02*
X-70570Y-40940D01*
G01X-78480Y-23970D02*
X-80378Y-23923D01*
G01X-81780Y-23670D02*
X-81580Y-23470D01*
G01X-81280D02*
X-81380D01*
G01D02*
Y-23370D01*
G01Y-23470D02*
X-81480D01*
G01X-81380Y-23370D02*
Y-23070D01*
G01X-79280Y-20670D02*
Y-20570D01*
G01X-79180D02*
X-79080D01*
G01X-79180D02*
X-79280D01*
G01D02*
X-79380D01*
G01D02*
X-79470Y-20550D01*
G01X-72480Y-17570D02*
X-76279Y-17521D01*
G01X-77880Y-17270D02*
X-77480Y-16970D01*
G01X-77380D02*
Y-16870D01*
G01Y-16970D02*
X-77480D01*
G01X-77380Y-16870D02*
X-77331Y-16709D01*
G01X-80880Y-14870D02*
X-86079Y-14821D01*
G01X-87680Y-14570D02*
X-87280Y-14270D01*
G01X-87180D02*
Y-14170D01*
G01Y-14270D02*
X-87280D01*
G01X-87180Y-14170D02*
X-87133Y-14004D01*
G01X-73380Y-12270D02*
Y-12170D01*
G01X-73280D02*
X-72880Y-11870D01*
G01X-73280Y-12170D02*
X-73380D01*
G01D02*
X-73480D01*
G01D02*
X-73570Y-12150D01*
G01X-81780Y-8070D02*
Y-7970D01*
G01X-81680D02*
X-81280Y-7670D01*
G01X-81680Y-7970D02*
X-81780D01*
G01D02*
X-81880D01*
G01D02*
X-81970Y-7950D01*
G01X-87133Y-14004D02*
X-81829Y-8230D01*
G01D02*
X-81780Y-8070D01*
G01X-86079Y-14821D02*
X-87070Y-14350D01*
G01D02*
X-87180Y-14270D01*
G01X-79470Y-20550D02*
X-80383Y-20117D01*
G01D02*
X-81980Y-20070D01*
G01X-79080Y-20570D02*
X-78880Y-20370D01*
G01X-81380Y-23070D02*
X-79329Y-20829D01*
G01D02*
X-79280Y-20670D01*
G01X-81580Y-23470D02*
X-81480D01*
G01X-80378Y-23923D02*
X-81170Y-23550D01*
G01D02*
X-81280Y-23470D01*
G01X-78450Y-30180D02*
X-78910Y-31460D01*
G01X-77800Y-28660D02*
X-78450Y-30180D01*
G01X-78910Y-31460D02*
X-79418Y-33362D01*
G01X-81970Y-7950D02*
X-83081Y-7419D01*
G01D02*
X-87780Y-7370D01*
G01X-73570Y-12150D02*
X-74681Y-11619D01*
G01D02*
X-78080Y-11570D01*
G01X-77331Y-16709D02*
X-73380Y-12270D01*
G01X-76279Y-17521D02*
X-77270Y-17050D01*
G01D02*
X-77380Y-16970D01*
G01X-69890Y-20350D02*
X-71495Y-21347D01*
G01D02*
X-73202Y-22745D01*
G01D02*
X-74905Y-24448D01*
G01D02*
X-76256Y-26088D01*
G01D02*
X-77460Y-28080D01*
G01D02*
X-77800Y-28660D01*
G01X-92660Y21770D02*
Y40570D01*
G01X-91237Y28480D02*
X-90920Y27980D01*
X-90540Y27647D01*
X-90097Y27480D01*
X-89590Y27647D01*
X-89210Y27980D01*
X-88830Y28480D01*
X-88703Y29147D01*
Y32480D01*
G01X-86263Y28480D02*
X-85883Y27897D01*
X-85377Y27563D01*
X-84807Y27480D01*
X-84300Y27563D01*
X-83793Y27980D01*
X-83477Y28480D01*
X-83413Y28980D01*
X-83540Y29563D01*
X-83983Y29980D01*
X-84427Y30147D01*
X-84997D01*
G01X-84427D02*
X-84047Y30397D01*
X-83730Y30813D01*
X-83603Y31313D01*
X-83730Y31813D01*
X-84047Y32230D01*
X-84617Y32480D01*
X-85187Y32397D01*
X-85757Y32063D01*
G01X-85750Y78720D02*
Y76220D01*
X-80750D01*
Y77220D01*
G01X-75670Y89720D02*
X-58170D01*
Y74720D01*
X-75670D01*
Y89720D01*
G01X-69739Y72903D02*
Y77903D01*
X-68473D01*
X-67967Y77653D01*
X-67587Y77320D01*
X-67270Y76820D01*
X-67017Y76236D01*
X-66954Y75403D01*
X-67017Y74570D01*
X-67270Y73986D01*
X-67587Y73486D01*
X-67967Y73153D01*
X-68473Y72903D01*
X-69739D01*
G01X-64641Y73903D02*
X-64262Y73320D01*
X-63755Y72986D01*
X-63185Y72903D01*
X-62679Y72986D01*
X-62172Y73403D01*
X-61856Y73903D01*
X-61792Y74403D01*
X-61919Y74986D01*
X-62362Y75403D01*
X-62805Y75570D01*
X-63375D01*
G01X-62805D02*
X-62425Y75820D01*
X-62109Y76236D01*
X-61982Y76736D01*
X-62109Y77236D01*
X-62425Y77653D01*
X-62995Y77903D01*
X-63565Y77820D01*
X-64135Y77486D01*
G01X-75266Y60383D02*
X-58534D01*
Y70817D01*
X-75266D01*
Y60383D01*
G01X-72620Y117130D02*
X-75120D01*
Y112130D01*
X-74120D01*
G01X-83927Y96323D02*
X-84247Y96573D01*
X-84620Y96740D01*
X-85047D01*
X-85527Y96490D01*
X-85900Y96073D01*
X-86167Y95573D01*
X-86380Y94740D01*
X-86433Y93990D01*
X-86327Y93240D01*
X-86167Y92740D01*
X-85847Y92240D01*
X-85473Y91907D01*
X-85100Y91740D01*
X-84727D01*
X-84353Y91907D01*
X-84033Y92157D01*
X-83767Y92490D01*
G01X-81713Y95907D02*
X-81393Y96407D01*
X-81020Y96657D01*
X-80593Y96740D01*
X-80060Y96573D01*
X-79687Y96157D01*
X-79580Y95657D01*
X-79633Y95157D01*
X-79847Y94740D01*
X-80913Y93907D01*
X-81393Y93323D01*
X-81713Y92490D01*
X-81820Y91740D01*
X-79580D01*
G01X-80750Y87220D02*
Y88220D01*
X-85750D01*
Y85720D01*
G01X-71787Y105980D02*
Y110980D01*
X-70453D01*
X-70027Y110730D01*
X-69760Y110397D01*
X-69653Y109730D01*
X-69760Y109063D01*
X-70080Y108647D01*
X-70453Y108397D01*
X-71787D01*
G01X-70453D02*
X-69653Y105980D01*
G01X-67333Y110147D02*
X-67013Y110647D01*
X-66640Y110897D01*
X-66213Y110980D01*
X-65680Y110813D01*
X-65307Y110397D01*
X-65200Y109897D01*
X-65253Y109397D01*
X-65467Y108980D01*
X-66533Y108147D01*
X-67013Y107563D01*
X-67333Y106730D01*
X-67440Y105980D01*
X-65200D01*
G01X-74120Y105230D02*
X-75120D01*
Y100230D01*
X-72620D01*
G01X-70173Y95670D02*
Y92087D01*
X-69920Y91337D01*
X-69413Y90837D01*
X-68780Y90670D01*
X-68147Y90837D01*
X-67640Y91337D01*
X-67387Y92087D01*
Y95670D01*
G01X-63680Y90670D02*
Y95670D01*
X-64440Y94670D01*
G01Y90670D02*
X-62920D01*
G01X-63170Y89720D02*
X-66920Y85970D01*
X-70670Y89720D01*
G01X-71273Y117880D02*
Y122880D01*
X-70207D01*
X-69780Y122630D01*
X-69460Y122297D01*
X-69193Y121797D01*
X-68980Y121213D01*
X-68927Y120380D01*
X-68980Y119547D01*
X-69193Y118963D01*
X-69460Y118463D01*
X-69780Y118130D01*
X-70207Y117880D01*
X-71273D01*
G01X-66713Y122047D02*
X-66393Y122547D01*
X-66020Y122797D01*
X-65593Y122880D01*
X-65060Y122713D01*
X-64687Y122297D01*
X-64580Y121797D01*
X-64633Y121297D01*
X-64847Y120880D01*
X-65913Y120047D01*
X-66393Y119463D01*
X-66713Y118630D01*
X-66820Y117880D01*
X-64580D01*
G01X-58580Y-56770D02*
X-57187Y-56529D01*
G01X-66780Y-47570D02*
X-65470Y-48240D01*
G01X-57080Y-36070D02*
X-57036Y-36865D01*
G01X-69489Y-41205D02*
X-69380Y-41270D01*
G01D02*
X-68180D01*
G01D02*
X-67389Y-41035D01*
G01D02*
X-66406Y-40626D01*
G01X-52589Y-41205D02*
X-52480Y-41270D01*
G01X-53670Y-40940D02*
X-52589Y-41205D01*
G01X-52480Y-41270D02*
X-51280D01*
G01D02*
X-50489Y-41035D01*
G01D02*
X-49506Y-40626D01*
G01X-65470Y-48240D02*
X-63789Y-48905D01*
G01D02*
X-61080Y-49470D01*
G01D02*
X-59980D01*
G01D02*
X-58487Y-49229D01*
G01D02*
X-56590Y-48740D01*
G01D02*
X-54790Y-47950D01*
G01D02*
X-53780Y-47470D01*
G01X-57187Y-56529D02*
X-54689Y-55935D01*
G01D02*
X-53989Y-55735D01*
G01D02*
X-51290Y-54550D01*
G01D02*
X-50970Y-54390D01*
G01D02*
X-48862Y-52994D01*
G01D02*
X-48565Y-52793D01*
G01D02*
X-46380Y-50870D01*
G01D02*
X-44905Y-49149D01*
G01X-69690Y-54390D02*
X-69290Y-54590D01*
G01D02*
X-66970Y-55640D01*
G01D02*
X-66089Y-55905D01*
G01D02*
X-63573Y-56529D01*
G01D02*
X-63087Y-56611D01*
G01D02*
X-62179Y-56721D01*
G01D02*
X-58580Y-56770D01*
G01X-66406Y-40626D02*
X-66062Y-40394D01*
G01D02*
X-65580Y-40070D01*
G01D02*
X-64680Y-39170D01*
G01D02*
X-64203Y-38455D01*
G01D02*
X-63960Y-37980D01*
G01D02*
X-63645Y-36979D01*
G01D02*
X-63480Y-36070D01*
G01X-57036Y-36865D02*
X-56850Y-37660D01*
G01D02*
X-56256Y-38752D01*
G01D02*
X-55680Y-39570D01*
G01D02*
X-55398Y-39794D01*
G01D02*
X-54262Y-40646D01*
G01D02*
X-53670Y-40940D01*
G01X-49506Y-40626D02*
X-49162Y-40394D01*
G01D02*
X-48680Y-40070D01*
G01D02*
X-47780Y-39170D01*
G01D02*
X-47303Y-38455D01*
G01X-44905Y-49149D02*
X-43700Y-47360D01*
G01D02*
X-43457Y-46985D01*
G01D02*
X-42110Y-44260D01*
G01D02*
X-42010Y-43960D01*
G01D02*
X-41218Y-41062D01*
G01D02*
X-41142Y-40678D01*
G01X-47303Y-38455D02*
X-47100Y-38060D01*
G01D02*
X-46722Y-36864D01*
G01D02*
X-46580Y-36070D01*
G01X-41142Y-40678D02*
X-40927Y-39368D01*
G01D02*
X-40780Y-37470D01*
G01D02*
X-40937Y-35165D01*
G01D02*
X-41023Y-34475D01*
G01X-41880Y-23770D02*
X-41610Y-23260D01*
G01X-40280Y-23570D02*
X-41480Y-22970D01*
G01X-41580Y-23070D02*
Y-22970D01*
G01X-41480D02*
X-41580D01*
G01D02*
X-41960Y-22360D01*
G01X-50880Y-16170D02*
X-50280Y-15770D01*
G01X-50180D02*
X-50280D01*
G01D02*
Y-15670D01*
G01D02*
X-50380Y-15570D01*
G01X-47890Y-16790D02*
X-50180Y-15770D01*
G01X-49895Y-20893D02*
X-50570Y-20450D01*
G01X-48102Y-22195D02*
X-49895Y-20893D01*
G01X-50570Y-20450D02*
X-52890Y-19300D01*
G01D02*
X-53370Y-19140D01*
G01D02*
X-55488Y-18408D01*
G01D02*
X-56372Y-18232D01*
G01D02*
X-58680Y-17870D01*
G01D02*
X-62080D01*
G01D02*
X-64273Y-18211D01*
G01D02*
X-64388Y-18232D01*
G01D02*
X-66290Y-18740D01*
G01D02*
X-67270Y-19100D01*
G01D02*
X-69070Y-19890D01*
G01D02*
X-69890Y-20350D01*
G01X-48780Y-10770D02*
X-49180D01*
G01X-45290Y-12290D02*
X-48780Y-10770D01*
G01X-49180D02*
X-49470Y-10990D01*
G01D02*
X-49580Y-11070D01*
G01X-38505Y-18190D02*
X-40355Y-16047D01*
G01D02*
X-41803Y-14695D01*
G01D02*
X-42900Y-13795D01*
G01D02*
X-44895Y-12493D01*
G01D02*
X-45290Y-12290D01*
G01X-41960Y-22360D02*
X-43280Y-20470D01*
G01D02*
X-45080Y-18670D01*
G01D02*
X-46098Y-17894D01*
G01D02*
X-47890Y-16790D01*
G01X-41610Y-23260D02*
X-41580Y-23070D01*
G01X-41023Y-34475D02*
X-41610Y-31980D01*
G01D02*
X-41910Y-30980D01*
G01D02*
X-42500Y-29480D01*
G01D02*
X-42660Y-29160D01*
G01D02*
X-43703Y-27185D01*
G01D02*
X-44057Y-26655D01*
G01D02*
X-45205Y-25092D01*
G01D02*
X-45855Y-24348D01*
G01D02*
X-47358Y-22845D01*
G01D02*
X-48102Y-22195D01*
G01X-39000Y-9795D02*
X-41595Y-7993D01*
G01D02*
X-42870Y-7250D01*
G01D02*
X-46290Y-5800D01*
G01D02*
X-46590Y-5700D01*
G01D02*
X-47680Y-5370D01*
G01D02*
X-48080Y-4870D01*
G01X-48780Y78720D02*
Y76220D01*
X-43780D01*
Y77220D01*
G01X-64900Y68600D02*
Y62600D01*
G01X-64120Y112130D02*
X-63120D01*
Y117130D01*
X-65620D01*
G01X-46200Y112110D02*
X-43700D01*
Y117110D01*
X-44700D01*
G01X-54700D02*
X-55700D01*
Y112110D01*
X-53200D01*
G01X-47467Y95523D02*
X-47787Y95773D01*
X-48160Y95940D01*
X-48587D01*
X-49067Y95690D01*
X-49440Y95273D01*
X-49707Y94773D01*
X-49920Y93940D01*
X-49973Y93190D01*
X-49867Y92440D01*
X-49707Y91940D01*
X-49387Y91440D01*
X-49013Y91107D01*
X-48640Y90940D01*
X-48267D01*
X-47893Y91107D01*
X-47573Y91357D01*
X-47307Y91690D01*
G01X-44240Y90940D02*
Y95940D01*
X-44880Y94940D01*
G01Y90940D02*
X-43600D01*
G01X-43780Y87220D02*
Y88220D01*
X-48780D01*
Y85720D01*
G01X-65620Y100230D02*
X-63120D01*
Y105230D01*
X-64120D01*
G01X-52287Y118030D02*
Y123030D01*
X-50953D01*
X-50527Y122780D01*
X-50260Y122447D01*
X-50153Y121780D01*
X-50260Y121113D01*
X-50580Y120697D01*
X-50953Y120447D01*
X-52287D01*
G01X-50953D02*
X-50153Y118030D01*
G01X-46820D02*
Y123030D01*
X-47460Y122030D01*
G01Y118030D02*
X-46180D01*
G01X-30687Y-61347D02*
X-31007Y-61097D01*
X-31380Y-60930D01*
X-31807D01*
X-32287Y-61180D01*
X-32660Y-61597D01*
X-32927Y-62097D01*
X-33140Y-62930D01*
X-33193Y-63680D01*
X-33087Y-64430D01*
X-32927Y-64930D01*
X-32607Y-65430D01*
X-32233Y-65763D01*
X-31860Y-65930D01*
X-31487D01*
X-31113Y-65763D01*
X-30793Y-65513D01*
X-30527Y-65180D01*
G01X-28633Y-64930D02*
X-28313Y-65513D01*
X-27887Y-65847D01*
X-27407Y-65930D01*
X-26980Y-65847D01*
X-26553Y-65430D01*
X-26287Y-64930D01*
X-26233Y-64430D01*
X-26340Y-63847D01*
X-26713Y-63430D01*
X-27087Y-63263D01*
X-27567D01*
G01X-27087D02*
X-26767Y-63013D01*
X-26500Y-62597D01*
X-26393Y-62097D01*
X-26500Y-61597D01*
X-26767Y-61180D01*
X-27247Y-60930D01*
X-27727Y-61013D01*
X-28207Y-61347D01*
G01X-14770Y-66210D02*
X-12270D01*
Y-61210D01*
X-13270D01*
G01X-23270D02*
X-24270D01*
Y-66210D01*
X-21770D01*
G01X-37687Y-39060D02*
Y-34060D01*
X-36353D01*
X-35927Y-34310D01*
X-35660Y-34643D01*
X-35553Y-35310D01*
X-35660Y-35977D01*
X-35980Y-36393D01*
X-36353Y-36643D01*
X-37687D01*
G01X-36353D02*
X-35553Y-39060D01*
G01X-33393Y-38060D02*
X-33073Y-38643D01*
X-32647Y-38977D01*
X-32167Y-39060D01*
X-31740Y-38977D01*
X-31313Y-38560D01*
X-31047Y-38060D01*
X-30993Y-37560D01*
X-31100Y-36977D01*
X-31473Y-36560D01*
X-31847Y-36393D01*
X-32327D01*
G01X-31847D02*
X-31527Y-36143D01*
X-31260Y-35727D01*
X-31153Y-35227D01*
X-31260Y-34727D01*
X-31527Y-34310D01*
X-32007Y-34060D01*
X-32487Y-34143D01*
X-32967Y-34477D01*
G01X-32110Y-42860D02*
Y-40360D01*
X-37110D01*
Y-41360D01*
G01Y-51360D02*
Y-52360D01*
X-32110D01*
Y-49860D01*
G01X-18673Y-35900D02*
Y-39483D01*
X-18420Y-40233D01*
X-17914Y-40733D01*
X-17281Y-40900D01*
X-16647Y-40733D01*
X-16141Y-40233D01*
X-15888Y-39483D01*
Y-35900D01*
G01X-13386Y-36733D02*
X-13006Y-36233D01*
X-12562Y-35983D01*
X-12056Y-35900D01*
X-11423Y-36067D01*
X-10979Y-36483D01*
X-10853Y-36983D01*
X-10916Y-37483D01*
X-11169Y-37900D01*
X-12436Y-38733D01*
X-13006Y-39317D01*
X-13386Y-40150D01*
X-13512Y-40900D01*
X-10853D01*
G01X-9354Y-53966D02*
Y-42154D01*
X-21166D01*
Y-53966D01*
X-9354D01*
G01X-36980Y-22470D02*
X-36803Y-22255D01*
G01X-35280Y-22070D02*
X-36480Y-21470D01*
G01X-36580Y-21570D02*
Y-21470D01*
G01X-36480D02*
X-36580D01*
G01D02*
Y-21370D01*
G01D02*
X-37357Y-19955D01*
G01X-31680Y-20970D02*
X-31503Y-20755D01*
G01X-30080Y-20370D02*
X-31080Y-19870D01*
G01X-31180Y-19970D02*
Y-19870D01*
G01X-31080D02*
X-31180D01*
G01D02*
Y-19770D01*
G01D02*
X-31860Y-18360D01*
G01D02*
X-33504Y-15588D01*
G01D02*
X-34456Y-14350D01*
G01D02*
X-35280Y-13270D01*
G01D02*
X-37880Y-10670D01*
G01D02*
X-39000Y-9795D01*
G01X-31503Y-20755D02*
X-31200Y-20060D01*
G01D02*
X-31180Y-19970D01*
G01X-37357Y-19955D02*
X-38505Y-18190D01*
G01X-36803Y-22255D02*
X-36600Y-21660D01*
G01D02*
X-36580Y-21570D01*
G01X2100Y-65013D02*
X1600Y-65330D01*
X1267Y-65710D01*
X1100Y-66153D01*
X1267Y-66660D01*
X1600Y-67040D01*
X2100Y-67420D01*
X2767Y-67547D01*
X6100D01*
G01X1100Y-72140D02*
X6100D01*
X2517Y-69797D01*
Y-72963D01*
G01X47700Y-64440D02*
Y-74440D01*
X7700D01*
Y-64440D01*
X47700D01*
G01X-3757Y-40600D02*
Y-35600D01*
X-2423D01*
X-1997Y-35850D01*
X-1730Y-36183D01*
X-1623Y-36850D01*
X-1730Y-37517D01*
X-2050Y-37933D01*
X-2423Y-38183D01*
X-3757D01*
G01X-2423D02*
X-1623Y-40600D01*
G01X2350D02*
Y-35600D01*
X377Y-39183D01*
X3043D01*
G01X1940Y-44560D02*
Y-42060D01*
X-3060D01*
Y-43060D01*
G01Y-53060D02*
Y-54060D01*
X1940D01*
Y-51560D01*
G01X-8727Y-22890D02*
X-8410Y-23390D01*
X-8030Y-23723D01*
X-7587Y-23890D01*
X-7080Y-23723D01*
X-6700Y-23390D01*
X-6320Y-22890D01*
X-6193Y-22223D01*
Y-18890D01*
G01X-2360Y-23890D02*
Y-18890D01*
X-3120Y-19890D01*
G01Y-23890D02*
X-1600D01*
G01X-9660Y-17470D02*
X1340D01*
Y107530D01*
X-9660D01*
Y-17470D01*
G01X89750Y105000D02*
Y117000D01*
X65550D01*
Y120800D01*
X33950D01*
Y117000D01*
X9750D01*
Y105000D01*
G01X45047Y117020D02*
Y113437D01*
X45300Y112687D01*
X45807Y112187D01*
X46440Y112020D01*
X47073Y112187D01*
X47580Y112687D01*
X47833Y113437D01*
Y117020D01*
G01X50147Y113020D02*
X50527Y112437D01*
X51033Y112103D01*
X51603Y112020D01*
X52110Y112103D01*
X52617Y112520D01*
X52933Y113020D01*
X52997Y113520D01*
X52870Y114103D01*
X52427Y114520D01*
X51983Y114687D01*
X51413D01*
G01X51983D02*
X52363Y114937D01*
X52680Y115353D01*
X52807Y115853D01*
X52680Y116353D01*
X52363Y116770D01*
X51793Y117020D01*
X51223Y116937D01*
X50653Y116603D01*
G01X99223Y-22270D02*
X99540Y-22770D01*
X99920Y-23103D01*
X100363Y-23270D01*
X100870Y-23103D01*
X101250Y-22770D01*
X101630Y-22270D01*
X101757Y-21603D01*
Y-18270D01*
G01X104387Y-19103D02*
X104767Y-18603D01*
X105210Y-18353D01*
X105717Y-18270D01*
X106350Y-18437D01*
X106793Y-18853D01*
X106920Y-19353D01*
X106857Y-19853D01*
X106603Y-20270D01*
X105337Y-21103D01*
X104767Y-21687D01*
X104387Y-22520D01*
X104260Y-23270D01*
X106920D01*
G01X98160Y-17470D02*
X109160D01*
Y107530D01*
X98160D01*
Y-17470D01*
G01X122890Y-16357D02*
X117890D01*
Y-15023D01*
X118140Y-14597D01*
X118473Y-14330D01*
X119140Y-14223D01*
X119807Y-14330D01*
X120223Y-14650D01*
X120473Y-15023D01*
Y-16357D01*
G01Y-15023D02*
X122890Y-14223D01*
G01Y-10890D02*
X122807Y-10517D01*
X122557Y-10090D01*
X122140Y-9823D01*
X121557Y-9717D01*
X120973Y-9823D01*
X120473Y-10143D01*
X120223Y-10623D01*
Y-11157D01*
X120057Y-11477D01*
X119640Y-11743D01*
X119057Y-11850D01*
X118473Y-11690D01*
X118057Y-11317D01*
X117890Y-10890D01*
X118057Y-10463D01*
X118473Y-10090D01*
X119057Y-9930D01*
X119640Y-10037D01*
X120057Y-10303D01*
X120223Y-10623D01*
Y-11157D01*
X120473Y-11637D01*
X120973Y-11957D01*
X121557Y-12063D01*
X122140Y-11957D01*
X122557Y-11690D01*
X122807Y-11263D01*
X122890Y-10890D01*
G01X111540Y-16560D02*
Y-19060D01*
X116540D01*
Y-18060D01*
G01Y-8060D02*
Y-7060D01*
X111540D01*
Y-9560D01*
G01X122930Y1993D02*
X117930D01*
Y3327D01*
X118180Y3753D01*
X118513Y4020D01*
X119180Y4127D01*
X119847Y4020D01*
X120263Y3700D01*
X120513Y3327D01*
Y1993D01*
G01Y3327D02*
X122930Y4127D01*
G01X122347Y6553D02*
X122763Y6927D01*
X122930Y7353D01*
X122763Y7780D01*
X122263Y8153D01*
X121513Y8420D01*
X120763Y8527D01*
X119847D01*
X119097Y8420D01*
X118430Y8153D01*
X118097Y7833D01*
X117930Y7460D01*
X118097Y7033D01*
X118430Y6713D01*
X118930Y6500D01*
X119597Y6393D01*
X120180Y6500D01*
X120763Y6767D01*
X121097Y7087D01*
X121180Y7460D01*
X121013Y7887D01*
X120597Y8207D01*
X119847Y8527D01*
G01X116300Y8040D02*
Y10540D01*
X111300D01*
Y9540D01*
G01Y-460D02*
Y-1460D01*
X116300D01*
Y1040D01*
M02*
