G04 Layer_Physical_Order=1*
G04 Layer_Color=255*
%FSLAX25Y25*%
%MOIN*%
G70*
G01*
G75*
%ADD10R,0.02362X0.02362*%
%ADD11O,0.03740X0.05906*%
%ADD12R,0.02362X0.02362*%
%ADD13C,0.01000*%
%ADD14C,0.04724*%
%ADD15R,0.04724X0.04724*%
%ADD16C,0.02000*%
D10*
X1228Y-27000D02*
D03*
X4772D02*
D03*
X18772Y-27000D02*
D03*
X15228D02*
D03*
D11*
X-3500Y20000D02*
D03*
X-13500D02*
D03*
Y-20000D02*
D03*
X-3500D02*
D03*
X6500D02*
D03*
X16500D02*
D03*
D12*
X26500Y-3772D02*
D03*
Y-228D02*
D03*
D13*
X-3500Y14000D02*
Y20000D01*
X-5000Y12500D02*
X-3500Y14000D01*
X20500Y-500D02*
X26228D01*
X26500Y-228D01*
X26272Y-3543D02*
X26500Y-3772D01*
X11457Y-3543D02*
X26272D01*
X3500Y5000D02*
X6500Y2000D01*
Y-20000D02*
Y2000D01*
X-3500Y-20000D02*
Y-10000D01*
X15000Y-21000D02*
X18772Y-24772D01*
X15500Y-11500D02*
X16500Y-12500D01*
Y-20000D02*
Y-12500D01*
X10500Y-4500D02*
X11457Y-3543D01*
X10500Y-10000D02*
Y-4500D01*
X-3500Y-10000D02*
X-1500D01*
X-23500Y5000D02*
X3500D01*
X-23500Y15000D02*
X-20000D01*
X-15000Y20000D01*
X1228Y-24772D02*
X5000Y-21000D01*
X1228Y-27000D02*
Y-24772D01*
X18772Y-27000D02*
Y-24772D01*
X10000Y-26000D02*
X11500D01*
X12500Y-27000D01*
X15228D01*
X8500Y-26000D02*
X10000D01*
X7500Y-27000D02*
X8500Y-26000D01*
X4772Y-27000D02*
X7500D01*
X-32000Y11500D02*
Y30000D01*
Y-30000D02*
Y-11500D01*
Y30000D02*
X30000D01*
Y-30000D02*
Y30000D01*
X-32000Y-30000D02*
X30000D01*
X-32000Y-11500D02*
Y11500D01*
D14*
X-25500Y15000D02*
D03*
Y5000D02*
D03*
Y-5000D02*
D03*
D15*
Y-15000D02*
D03*
D16*
X-5000Y12500D02*
D03*
X19500Y5000D02*
D03*
X20500Y-500D02*
D03*
X25000Y-11500D02*
D03*
X10500Y-10000D02*
D03*
X-1500D02*
D03*
X15500Y-11500D02*
D03*
X10000Y-26000D02*
D03*
M02*
