G04 Layer_Physical_Order=2*
G04 Layer_Color=32768*
%FSLAX25Y25*%
%MOIN*%
G70*
G01*
G75*
%ADD13C,0.01000*%
%ADD17C,0.04000*%
G04:AMPARAMS|DCode=18|XSize=100.157mil|YSize=100.157mil|CornerRadius=0mil|HoleSize=0mil|Usage=FLASHONLY|Rotation=0.000|XOffset=0mil|YOffset=0mil|HoleType=Round|Shape=Relief|Width=10mil|Gap=10mil|Entries=4|*
%AMTHD18*
7,0,0,0.10016,0.08016,0.01000,45*
%
%ADD18THD18*%
%ADD19C,0.08016*%
%ADD20C,0.05500*%
G04:AMPARAMS|DCode=21|XSize=75mil|YSize=75mil|CornerRadius=0mil|HoleSize=0mil|Usage=FLASHONLY|Rotation=0.000|XOffset=0mil|YOffset=0mil|HoleType=Round|Shape=Relief|Width=10mil|Gap=10mil|Entries=4|*
%AMTHD21*
7,0,0,0.07500,0.05500,0.01000,45*
%
%ADD21THD21*%
D13*
X-32000Y11500D02*
Y30000D01*
Y-30000D02*
Y-11500D01*
Y30000D02*
X30000D01*
Y-30000D02*
Y30000D01*
X-32000Y-30000D02*
X30000D01*
X-32000Y-11500D02*
Y11500D01*
D17*
X-30000Y-30000D02*
X30000D01*
Y30000D01*
X-30000D02*
X30000D01*
X-30000Y-30000D02*
Y30000D01*
D18*
X-25500Y15000D02*
D03*
D19*
Y5000D02*
D03*
Y-5000D02*
D03*
Y-15000D02*
D03*
D20*
X-5000Y12500D02*
D03*
X19500Y5000D02*
D03*
X20500Y-500D02*
D03*
X10500Y-10000D02*
D03*
X-1500D02*
D03*
X15500Y-11500D02*
D03*
X10000Y-26000D02*
D03*
D21*
X25000Y-11500D02*
D03*
M02*
