M48
INCH
T01C.013
T02C.035
T03C.036
T04C.13

;LEADER: 12 
;HEADER: 
;CODE  : ASCII 
;FILE  : SLEEPTRACK2_PHASE1-1-4.drl for  ... layers TOP and BOTTOM
;DESIGN: SLEEPTRACK2_PHASE1.brd
;T01 Holesize 1. = 13.000000 Tolerance = +0.000000/-0.000000 PLATED MILS Quantity = 14
;T02 Holesize 2. = 35.000000 Tolerance = +0.000000/-0.000000 PLATED MILS Quantity = 5
;T03 Holesize 3. = 36.000000 Tolerance = +0.000000/-0.000000 PLATED MILS Quantity = 31
;T04 Holesize 4. = 130.000000 Tolerance = +0.000000/-0.000000 NON_PLATED MILS Quantity = 4

%
G90
T01
X0073500Y-0082220
X0073510Y-0066850
X-0067988Y0097562
X0063320Y-0107320
X-0041990Y0085220
X0081310Y-0100250
X0088960Y-0099650
X-0087500Y0085220
X-0065890Y0082420
X0071590Y-0102460
X0062240Y-0092960
X-0071553Y0058866
X0045850Y-0082710
X0078910Y-0107740
T02
X-0114890Y0078600
R02Y-0010000
X-0099480Y0008470
X-0099480Y0016270
T03
X-0116610Y-0029940
R02Y0010000
X-0004160Y0100030
R11Y-0010000
X0103660Y0100030
R11Y-0010000
X0114330Y-0056920
R03Y-0010000
T04
X-0114700Y0114700
X-0114700Y-0114700
X0114700Y0114700
X0114700Y-0114700

M30
