G04 ================== begin FILE IDENTIFICATION RECORD ==================*
G04 Layout Name:  C:/Users/Madison/Desktop/gc/Photon_Dev/IMU_External/IMU.brd*
G04 Film Name:    IMU_Silkscreen_Top_V2*
G04 File Format:  Gerber RS274X*
G04 File Origin:  Cadence Allegro 17.0-P009*
G04 Origin Date:  Sun Mar 20 23:17:24 2016*
G04 *
G04 Layer:  USER PART NUMBER/SILKSCREEN_TOP*
G04 Layer:  TOLERANCE/SILKSCREEN_TOP*
G04 Layer:  REF DES/SILKSCREEN_TOP*
G04 Layer:  PACKAGE GEOMETRY/SILKSCREEN_TOP*
G04 Layer:  DEVICE TYPE/SILKSCREEN_TOP*
G04 Layer:  COMPONENT VALUE/SILKSCREEN_TOP*
G04 Layer:  BOARD GEOMETRY/SILKSCREEN_TOP*
G04 *
G04 Offset:    (0.00 0.00)*
G04 Mirror:    No*
G04 Mode:      Positive*
G04 Rotation:  0*
G04 FullContactRelief:  No*
G04 UndefLineWidth:     6.00*
G04 ================== end FILE IDENTIFICATION RECORD ====================*
%FSLAX25Y25*MOIN*%
%IR0*IPPOS*OFA0.00000B0.00000*MIA0B0*SFA1.00000B1.00000*%
%ADD10C,.006*%
G75*
%LPD*%
G75*
G54D10*
G01X-16262Y-14305D02*
X-14688D01*
Y-11745D01*
X-16262D01*
Y-14305D01*
G01X-16287Y-18505D02*
X-14713D01*
Y-15945D01*
X-16287D01*
Y-18505D01*
G01X-17405Y-8148D02*
Y-11731D01*
X-17152Y-12481D01*
X-16646Y-12981D01*
X-16013Y-13148D01*
X-15379Y-12981D01*
X-14873Y-12481D01*
X-14620Y-11731D01*
Y-8148D01*
G01X-12118Y-11065D02*
X-11674Y-10481D01*
X-11294Y-10148D01*
X-10788Y-9981D01*
X-10345Y-10148D01*
X-10028Y-10481D01*
X-9775Y-10981D01*
X-9711Y-11565D01*
X-9775Y-12065D01*
X-10028Y-12565D01*
X-10408Y-12981D01*
X-10851Y-13148D01*
X-11358Y-12981D01*
X-11801Y-12481D01*
X-12054Y-11731D01*
X-12118Y-10898D01*
X-11991Y-9815D01*
X-11801Y-9231D01*
X-11484Y-8648D01*
X-11041Y-8231D01*
X-10598Y-8148D01*
X-10155Y-8315D01*
X-9838Y-8731D01*
G01X-7085Y11458D02*
X-20865D01*
Y-6258D01*
X-7085D01*
Y11458D01*
G01X-12955Y16412D02*
Y14838D01*
X-10395D01*
Y16412D01*
X-12955D01*
G01X-16730D02*
Y14838D01*
X-14170D01*
Y16412D01*
X-16730D01*
G01X3750Y-11570D02*
Y-10930D01*
G01Y-11250D02*
X6250D01*
G01Y-11570D02*
Y-10930D01*
G01Y-9743D02*
X3750D01*
X5833Y-9050D01*
X3750Y-8357D01*
X6250D01*
G01X3750Y-7437D02*
X5542D01*
X5917Y-7330D01*
X6167Y-7117D01*
X6250Y-6850D01*
X6167Y-6583D01*
X5917Y-6370D01*
X5542Y-6263D01*
X3750D01*
G01X6250Y-1917D02*
Y-2983D01*
X3750D01*
Y-1917D01*
G01X4958Y-2343D02*
Y-2983D01*
G01X4583Y-650D02*
X6250Y150D01*
G01X4583D02*
X6250Y-650D01*
G01X3750Y1950D02*
X6250D01*
G01X4583Y1577D02*
Y2323D01*
G01X6333Y4150D02*
X6292Y4097D01*
X6208D01*
X6167Y4150D01*
X6208Y4203D01*
X6292D01*
X6333Y4150D01*
G01X6975Y-11392D02*
X9475Y-10725D01*
X6975Y-10058D01*
G01X7392Y-9032D02*
X7142Y-8872D01*
X7017Y-8685D01*
X6975Y-8472D01*
X7058Y-8205D01*
X7267Y-8018D01*
X7517Y-7965D01*
X7767Y-7992D01*
X7975Y-8098D01*
X8392Y-8632D01*
X8683Y-8872D01*
X9100Y-9032D01*
X9475Y-9085D01*
Y-7965D01*
G01X9558Y-6325D02*
X9517Y-6378D01*
X9433D01*
X9392Y-6325D01*
X9433Y-6272D01*
X9517D01*
X9558Y-6325D01*
G01X6975Y-4125D02*
X7058Y-4338D01*
X7267Y-4498D01*
X7517Y-4605D01*
X7850Y-4685D01*
X8225Y-4712D01*
X8600Y-4685D01*
X8933Y-4605D01*
X9183Y-4498D01*
X9392Y-4338D01*
X9475Y-4125D01*
X9392Y-3912D01*
X9183Y-3752D01*
X8933Y-3645D01*
X8600Y-3565D01*
X8225Y-3538D01*
X7850Y-3565D01*
X7517Y-3645D01*
X7267Y-3752D01*
X7058Y-3912D01*
X6975Y-4125D01*
G01X-505Y-13913D02*
Y-15487D01*
X2055D01*
Y-13913D01*
X-505D01*
G01X-4738Y-11745D02*
X-6312D01*
Y-14305D01*
X-4738D01*
Y-11745D01*
G01X-4763Y-15895D02*
X-6337D01*
Y-18455D01*
X-4763D01*
Y-15895D01*
G01X1630Y4538D02*
Y6112D01*
X-930D01*
Y4538D01*
X1630D01*
G01X-9180Y16412D02*
Y14838D01*
X-6620D01*
Y16412D01*
X-9180D01*
M02*
